<svg width="18" height="18" viewBox="0 0 18 18" xmlns="http://www.w3.org/2000/svg">
  <path fill-rule="evenodd" clip-rule="evenodd" d="M9 18A9 9 0 1 0 9 0a9 9 0 0 0 0 18Zm0-2A7 7 0 1 0 9 2a7 7 0 0 0 0 14Z" fill="#494c4e"/>
  <path d="M10.5 4.75a1.5 1.5 0 1 1-3 0 1.5 1.5 0 0 1 3 0Z" fill="#494c4e"/>
  <path d="M13.154 7.207c.11-.069.236-.113.344-.184a.557.557 0 0 0-.19-1.011.523.523 0 0 0-.226.014c-.572.131-3.193.724-4.082.724-.889 0-3.51-.593-4.082-.724a.523.523 0 0 0-.226-.014.557.557 0 0 0-.21.997c.118.085.258.138.38.217.837.542 2.644 1.249 2.391 2.262l-1.078 3.986a.639.639 0 0 0 1.138.557L9 11l1.687 3.03a.639.639 0 0 0 1.138-.556l-1.078-3.986c-.23-.923 1.628-1.801 2.407-2.281Z" fill="#494c4e"/>
</svg>
