<svg width="18" height="18" viewBox="0 0 18 18" xmlns="http://www.w3.org/2000/svg">
  <g clip-path="url(#clip0_4_312)">
    <path fill-rule="evenodd" clip-rule="evenodd" d="M9 2C10.3845 2 11.7378 2.41054 12.889 3.17971C14.0401 3.94888 14.9373 5.04213 15.4672 6.32122C15.997 7.6003 16.1356 9.00777 15.8655 10.3656C15.5954 11.7235 14.9287 12.9708 13.9497 13.9497C12.9708 14.9287 11.7235 15.5954 10.3656 15.8655C9.00777 16.1356 7.6003 15.997 6.32122 15.4672C5.04213 14.9373 3.94888 14.0401 3.17971 12.889C2.41054 11.7378 2 10.3845 2 9C2.00212 7.14413 2.7403 5.36489 4.05259 4.05259C5.36489 2.7403 7.14413 2.00212 9 2V2ZM9 0C6.61305 0 4.32387 0.948212 2.63604 2.63604C0.948212 4.32387 0 6.61305 0 9C0 11.3869 0.948212 13.6761 2.63604 15.364C4.32387 17.0518 6.61305 18 9 18C11.3869 18 13.6761 17.0518 15.364 15.364C17.0518 13.6761 18 11.3869 18 9C18 6.61305 17.0518 4.32387 15.364 2.63604C13.6761 0.948212 11.3869 0 9 0V0Z" fill="#494c4e"/>
    <path fill-rule="evenodd" clip-rule="evenodd" d="M10 5C10 4.44772 9.55228 4 9 4C8.44772 4 8 4.44772 8 5V8H5C4.44772 8 4 8.44772 4 9C4 9.55228 4.44772 10 5 10H8V13C8 13.5523 8.44772 14 9 14C9.55228 14 10 13.5523 10 13V10H13C13.5523 10 14 9.55228 14 9C14 8.44772 13.5523 8 13 8H10V5Z" fill="#494c4e"/>
  </g>
  <defs>
    <clipPath id="clip0_4_312">
      <rect width="18" height="18" fill="white"/>
    </clipPath>
  </defs>
</svg>
