<svg xmlns="http://www.w3.org/2000/svg" width="18" height="18" viewBox="0 0 18 18" >
<path fill="#494c4e" d="M13.8506 0C14.2255 0.00460581 14.5834 0.157844 14.8457 0.425781C15.108 0.693764 15.2534 1.05471 15.25 1.42969V3.22949C15.1859 3.07263 15.1139 2.89798 15.0352 2.70117C14.8657 2.27778 14.456 2 14 2C13.544 2 13.1343 2.27778 12.9648 2.70117C12.7106 3.33675 12.5419 3.74778 12.4004 4.03906C12.262 4.32399 12.1638 4.46116 12.0625 4.5625C11.9612 4.66384 11.824 4.76198 11.5391 4.90039C11.2478 5.04189 10.8367 5.21061 10.2012 5.46484C9.77778 5.63426 9.5 6.04396 9.5 6.5C9.5 6.95604 9.77778 7.36574 10.2012 7.53516C10.8367 7.78939 11.2478 7.95811 11.5391 8.09961C11.824 8.23802 11.9612 8.33616 12.0625 8.4375C12.1638 8.53884 12.262 8.67601 12.4004 8.96094C12.5419 9.25222 12.7106 9.66325 12.9648 10.2988C13.1343 10.7222 13.544 11 14 11C14.456 11 14.8657 10.7222 15.0352 10.2988C15.114 10.1017 15.1859 9.9266 15.25 9.76953V16.5703C15.2534 16.9453 15.108 17.3062 14.8457 17.5742C14.5834 17.8422 14.2255 17.9954 13.8506 18H2.65039C2.27529 17.9955 1.91673 17.8423 1.6543 17.5742C1.39207 17.3063 1.24662 16.9452 1.25 16.5703V15L1.14746 14.9951C0.643331 14.9438 0.25 14.5177 0.25 14C0.25 13.4477 0.697715 13 1.25 13V10L1.14746 9.99512C0.643331 9.94379 0.25 9.51768 0.25 9C0.25 8.44771 0.697715 8 1.25 8V5L1.14746 4.99512C0.643331 4.94379 0.25 4.51768 0.25 4C0.25 3.44772 0.697715 3 1.25 3V1.42969C1.24662 1.05478 1.39207 0.693749 1.6543 0.425781C1.91673 0.157729 2.27529 0.0044997 2.65039 0H13.8506ZM3.5 12.75C3.172 12.75 2.87435 12.8773 2.65137 13.084C3.00378 13.2386 3.25 13.5905 3.25 14C3.25 14.4094 3.00359 14.7603 2.65137 14.915C2.8744 15.122 3.17176 15.25 3.5 15.25C4.19036 15.25 4.75 14.6904 4.75 14C4.75 13.3096 4.19036 12.75 3.5 12.75ZM9.5 10C9.34273 10 9.20099 10.0962 9.14258 10.2422C8.82734 11.0303 8.70582 11.3157 8.51074 11.5107C8.31567 11.7058 8.03027 11.8273 7.24219 12.1426C7.09617 12.201 7 12.3427 7 12.5C7 12.6573 7.09617 12.799 7.24219 12.8574C8.03027 13.1727 8.31567 13.2942 8.51074 13.4893C8.70582 13.6843 8.82734 13.9697 9.14258 14.7578C9.20099 14.9038 9.34273 15 9.5 15C9.65727 15 9.79901 14.9038 9.85742 14.7578C10.1727 13.9697 10.2942 13.6843 10.4893 13.4893C10.6843 13.2942 10.9697 13.1727 11.7578 12.8574C11.9038 12.799 12 12.6573 12 12.5C12 12.3427 11.9038 12.201 11.7578 12.1426C10.9697 11.8273 10.6843 11.7058 10.4893 11.5107C10.2942 11.3157 10.1727 11.0303 9.85742 10.2422C9.79901 10.0962 9.65727 10 9.5 10ZM3.5 7.75C3.172 7.75003 2.87435 7.8773 2.65137 8.08398C3.00378 8.23862 3.25 8.59049 3.25 9C3.25 9.40937 3.00359 9.76032 2.65137 9.91504C2.8744 10.122 3.17176 10.25 3.5 10.25C4.19036 10.25 4.75 9.69036 4.75 9C4.75 8.30964 4.19036 7.75 3.5 7.75ZM14 3C14.2202 3 14.4182 3.13444 14.5 3.33887C14.9414 4.44241 15.1126 4.84113 15.3857 5.11426C15.6589 5.38739 16.0576 5.55858 17.1611 6C17.3656 6.08177 17.5 6.27982 17.5 6.5C17.5 6.72018 17.3656 6.91823 17.1611 7C16.0576 7.44142 15.6589 7.61261 15.3857 7.88574C15.1126 8.15887 14.9414 8.55759 14.5 9.66113C14.4182 9.86556 14.2202 10 14 10C13.7798 10 13.5818 9.86556 13.5 9.66113C13.0586 8.55759 12.8874 8.15887 12.6143 7.88574C12.3411 7.61261 11.9424 7.44142 10.8389 7C10.6344 6.91823 10.5 6.72018 10.5 6.5C10.5 6.27982 10.6344 6.08177 10.8389 6C11.9424 5.55858 12.3411 5.38739 12.6143 5.11426C12.8874 4.84113 13.0586 4.44241 13.5 3.33887C13.5818 3.13444 13.7798 3 14 3ZM3.5 2.75C3.172 2.75003 2.87435 2.8773 2.65137 3.08398C3.00378 3.23862 3.25 3.59049 3.25 4C3.25 4.40937 3.00359 4.76032 2.65137 4.91504C2.8744 5.12199 3.17176 5.24997 3.5 5.25C4.19036 5.25 4.75 4.69036 4.75 4C4.75 3.30964 4.19036 2.75 3.5 2.75Z"/>
</svg>