<svg width="18" height="18" xmlns="http://www.w3.org/2000/svg" viewBox="0 0 18 18">
  <path fill="#494c4e" d="M5 3.26v.251l1.283 1.3.15.153 3.275 3.321a1 1 0 0 1 .279.651c0 .022.013.041.013.064a.889.889 0 0 1-.068.333.991.991 0 0 1-.207.343.106.106 0 0 1-.017.026.062.062 0 0 1-.017.011.981.981 0 0 1-.339.21A.9.9 0 0 1 9 10c-.02 0-.036-.01-.056-.011a.992.992 0 0 1-.659-.281l-2-1.97-1.474-1.455L3.511 5h-1a.548.548 0 0 1-.355-.169l-.714-.707L.147 2.84A.49.49 0 0 1 .5 2H2V.5a.49.49 0 0 1 .84-.353l1.991 2.009A.548.548 0 0 1 5 2.511z"/>
  <path fill="#494c4e" d="M.515 6.021l.232.229a2.565 2.565 0 0 0 1.553.729A7.005 7.005 0 1 0 6.98 2.3 2.559 2.559 0 0 0 6.252.748L6.021.515A9.026 9.026 0 1 1 .515 6.021z"/>
  <path fill="#494c4e" d="M11.132 6.881L8.355 4.065A4.91 4.91 0 0 1 9 4a5 5 0 1 1-5 5 4.91 4.91 0 0 1 .065-.645l2.812 2.774h.015a2.995 2.995 0 0 0 4.3-4.166.592.592 0 0 0-.06-.082z"/>
</svg>
