<svg width="18" height="18" viewBox="0 0 18 18" fill="none" xmlns="http://www.w3.org/2000/svg">
  <g clip-path="url(#a)" fill="#494C4E">
    <path d="M4.565 0h-.222c-1.776.004-3.216 1.47-3.22 3.05v1.59c.005 1.578 1.444 2.809 3.22 2.813h.222c1.777-.004 3.216-1.235 3.22-2.814V3.05C7.781 1.47 6.342.004 4.565 0Z"/>
    <path fill-rule="evenodd" clip-rule="evenodd" d="m11.933 13.834 4.408-4.467a.859.859 0 0 1 1.177-.03c.334.304.348.81.032 1.131l-4.996 5.062-.009.008-.007.008a.857.857 0 0 1-1.17.008l-.01-.011-2.218-2.128a.775.775 0 0 1 0-1.13.856.856 0 0 1 1.177 0l1.615 1.55.001-.001Z"/>
    <path d="M4.454 8.563c2.22 0 3.405 1.59 3.775 2.331-.191.192-.551.569-.777 1-.297.567-.394 1.273.111 2.22.171.32.426.543.666.763l.667.57v.887c-.08.354-.336.891-.556 1.111C7.785 18 7.23 18 7.23 18H2.234s-1.11 0-1.666-.555c-.555-.555-.555-1.11-.555-1.11v-3.886c0-.98 1.666-3.886 4.441-3.886Z"/>
  </g>
</svg>
