<svg width="18" height="18" viewBox="0 0 18 18" fill="none" xmlns="http://www.w3.org/2000/svg">
  <path d="M4.1 2h-.2C2.3 2.004 1.003 3.324 1 4.747v1.431c.004 1.423 1.3 2.53 2.9 2.534h.2C5.7 8.71 6.996 7.601 7 6.178V4.747C6.996 3.324 5.7 2.003 4.1 2ZM6 18H2c-1.1 0-2-.8-2-1.778v-2.666c0-1.956 1.8-4 4-4s4 2.044 4 4v2.666C8 17.2 7.1 18 6 18Z" fill="#494C4E"/>
  <path d="m10.72 13.195-.92-.884a1.521 1.521 0 0 0-2.1 0 1.448 1.448 0 0 0 .001 2.1l1.997 1.917.01.01.007.006a1.52 1.52 0 0 0 2.077-.007l.012-.01.025-.025 4.5-4.56a1.452 1.452 0 0 0-.058-2.099 1.524 1.524 0 0 0-2.099.054l-3.452 3.498Z" fill="#494C4E" stroke="#fff" stroke-width="1.5"/>
</svg>
