<svg xmlns="http://www.w3.org/2000/svg" width="18" height="18" viewBox="0 0 18 18">
  <path fill="#494c4e" fill-rule="evenodd" d="M6 2v3.17c1.165.413 2 1.024 2 2.33s-.835 1.917-2 2.33V16a1 1 0 1 1-2 0V9.83C2.835 9.416 2 8.805 2 7.5s.835-1.917 2-2.33V2a1 1 0 0 1 2 0M4 7.5c0-.552.448-.5 1-.5s1-.052 1 .5-.448.5-1 .5-1 .052-1-.5m9 9.5a1 1 0 0 1-1-1v-3.17c-1.165-.412-2-1.024-2-2.33s.835-1.917 2-2.33V2a1 1 0 1 1 2 0v6.17c1.165.413 2 1.024 2 2.33s-.835 1.918-2 2.33V16a1 1 0 0 1-1 1m0-7c-.552 0-1-.052-1 .5s.448.5 1 .5 1 .052 1-.5-.448-.5-1-.5" clip-rule="evenodd"/>
</svg>
