<svg width="18" height="18" xmlns="http://www.w3.org/2000/svg" viewBox="0 0 18 18"><path fill="#565a5c" d="M18 1v3a1 1 0 0 1-2 0v-.58l-.15.15-1.06 1.05-.36.36a1 1 0 0 1-1.41-1.41l.36-.36 1.05-1.06.01-.01.14-.14H14a1 1 0 0 1 0-2h3a1 1 0 0 1 1 1z"/><rect fill="#565a5c" x=".706" y="14.294" width="2" height="4" rx="1" ry="1" transform="rotate(45 1.706 16.294)"/><rect fill="#565a5c" x="4.949" y="10.051" width="2" height="4" rx="1" ry="1" transform="rotate(45 5.948 12.052)"/><rect fill="#565a5c" x="9.191" y="5.809" width="2" height="4" rx="1" ry="1" transform="rotate(45 10.191 7.81)"/></svg>