<svg width="18" height="18" xmlns="http://www.w3.org/2000/svg" viewBox="0 0 18 18"><ellipse fill="#565a5c" cx="7.283" cy="9.472" rx="3" ry="3"/><path fill="#565a5c" d="M6.636 3.861a.992.992 0 0 1-.67.499 5.023 5.023 0 0 0-1.61.647 1 1 0 0 1-1.055-1.7 6.999 6.999 0 0 1 2.25-.903 1 1 0 0 1 1.085 1.457zM1.881 9.917a1 1 0 0 1-1.878-.446 6.947 6.947 0 0 1 .346-2.404 1 1 0 1 1 1.899.625 4.956 4.956 0 0 0-.246 1.714.981.981 0 0 1-.121.511zM3.27 12.578c.199.232.423.433.666.625l.26.204a3.008 3.008 0 0 1 .508 4.212c-.34.433-.971.509-1.404.169s-.509-.971-.169-1.404a1.003 1.003 0 0 0-.169-1.404l-.212-.167a7.045 7.045 0 0 1-.947-.883c-.371-.418-.349-1.062.063-1.425a1.007 1.007 0 0 1 1.404.073zM18 1v3c0 .55-.45 1-1 1s-1-.45-1-1v-.58l-1.79 1.72c-.55.59-1.29.86-2.09.86h-.11c-.76 0-1.48-.19-2.04-.71l-.63-.58A.942.942 0 0 1 9 3.98c0-.55.45-.99 1-.99.27 0 .51.11.69.28l.07.08.22.23.35.32c.2.18.45.26.72.25.27 0 .52-.14.7-.34L14.47 2H14c-.55 0-1-.45-1-1s.45-1 1-1h3c.55 0 1 .45 1 1z"/></svg>