<svg width="18" height="18" xmlns="http://www.w3.org/2000/svg" viewBox="0 0 18 18">
  <path fill="#565a5c" d="M0 16a2 2 0 0 0 2 2h14a2 2 0 0 0 2-2v-4H0zm7-2h8a1 1 0 0 1 0 2H7a1 1 0 0 1 0-2zm-5 .5a.5.5 0 0 1 .5-.5h1a.5.5 0 0 1 .5.5v1a.5.5 0 0 1-.5.5h-1a.5.5 0 0 1-.5-.5zM0 1v9h18V1a1 1 0 0 0-1-1H1a1 1 0 0 0-1 1zm16 2a1 1 0 1 1-1-1 1 1 0 0 1 1 1zM2 7a24.681 24.681 0 0 1 1.263-3.674c.476-.543 1.108-.25 1.632.011l1.165.583c.029.015.66-.876.712-.945.332-.441.66-1.023 1.3-.971a3.163 3.163 0 0 1 1.186.558l1.076.615 1.313.75 1.362.778 1.222.7.893.51c.333.19.68.362.817.753a1.014 1.014 0 0 1-.155.955A1.075 1.075 0 0 1 14.9 8H3a1 1 0 0 1-1-1z"/>
</svg>
