<svg width="18" height="18" xmlns="http://www.w3.org/2000/svg" viewBox="0 0 18 18">
    <path fill="#565a5c" d="M14.81,7.991H10c-.01-.64-.01-1.27,0-1.92v-.14c.02-.77.04-1.22.36-1.53a1.793,1.793,0,0,1,1.04-.36l.15-.01a2.694,2.694,0,0,0,1.29-.3,2.205,2.205,0,0,0,1.05-1.46,4.3,4.3,0,0,0,.09-1.31,1,1,0,0,0-2,.07,3.026,3.026,0,0,1-.03.76.441.441,0,0,1-.09.2,1.893,1.893,0,0,1-.41.05l-.18.01a3.611,3.611,0,0,0-2.3.91A3.831,3.831,0,0,0,8,5.9v.13c-.01.66-.01,1.31,0,1.96H3.19A3.205,3.205,0,0,0,0,11.181V14.8a3.205,3.205,0,0,0,3.19,3.19H14.81A3.205,3.205,0,0,0,18,14.8v-3.62A3.205,3.205,0,0,0,14.81,7.991Zm-7.81,6H6v1a1,1,0,0,1-2,0v-1H3a1,1,0,0,1,0-2H4v-1a1,1,0,0,1,2,0v1H7a1,1,0,0,1,0,2Zm4,2a1,1,0,1,1,1-1A1,1,0,0,1,11,15.991Zm0-4a1,1,0,1,1,1-1A1,1,0,0,1,11,11.991Zm4,4a1,1,0,1,1,1-1A1,1,0,0,1,15,15.991Zm0-4a1,1,0,1,1,1-1A1,1,0,0,1,15,11.991Z"/>
</svg>