<svg width="18" height="18" xmlns="http://www.w3.org/2000/svg" viewBox="0 0 18 18"><path fill="#565a5c" d="M9.106 7.542C6.676 8.431 5 10.317 5 12.5c0 1.47.76 2.806 2 3.793v1.427a.264.264 0 0 1-.07.19.214.214 0 0 1-.18.09.234.234 0 0 1-.17-.07L5 16.5l-1.57 1.42-.01.01a.234.234 0 0 1-.17.07.214.214 0 0 1-.18-.09.264.264 0 0 1-.07-.19V9.57a1.393 1.393 0 0 1-.37-.46 1.628 1.628 0 0 1-1.25-.49 1.71 1.71 0 0 1-.49-1.25A1.678 1.678 0 0 1 .26 5a1.678 1.678 0 0 1 .63-2.37 1.71 1.71 0 0 1 .49-1.25c.33-.332.783-.51 1.25-.49A1.678 1.678 0 0 1 5 .26a1.678 1.678 0 0 1 2.37.63c.467-.02.92.158 1.25.49.327.332.504.784.49 1.25.413.216.715.598.83 1.05.124.448.05.928-.2 1.32a1.678 1.678 0 0 1-.63 2.37c.002.058 0 .115-.004.172zM5 7a2 2 0 1 0 0-4 2 2 0 0 0 0 4zm7.25 9C9.35 16 7 14.433 7 12.5S9.35 9 12.25 9s5.25 1.567 5.25 3.5-2.35 3.5-5.25 3.5zm-1.49-2a2.407 2.407 0 0 1-.51-1.5c0-.576.193-1.102.51-1.5-1.046.28-1.76.847-1.76 1.5s.714 1.22 1.76 1.5zm2.98-3c.317.398.51.924.51 1.5s-.193 1.102-.51 1.5c1.045-.28 1.76-.847 1.76-1.5s-.715-1.22-1.76-1.5z"/></svg>