<svg version="1.1" viewBox="0 0 18 18" xmlns="http://www.w3.org/2000/svg">
	<g fill="none" fill-rule="evenodd">
		<g transform="translate(.00183 .001084)">
			<rect width="18" height="18"/>
			<path d="m7.4995 7.8839c0.0035968 0.15123-0.048138 0.2811-0.1552 0.38961-0.10707 0.10851-0.23743 0.16318-0.39108 0.16402h-6.4065c-0.20872-1.4637e-4 -0.36546-0.089079-0.47023-0.2668-0.072244-0.12352-0.09331-0.25498-0.063198-0.3944 0.025708-0.12233 0.038561-0.24676 0.062127-0.36909 0.72664-3.4293 2.7372-5.8059 6.0316-7.1298 0.24636-0.10545 0.50023-0.19404 0.75837-0.26575 0.22614-0.042593 0.40181 0.031225 0.527 0.22145 0.076379 0.093688 0.11208 0.20055 0.10711 0.32058l5.3e-7 7.3301z" fill="#494C4E"/>
			<path d="m17.998 9.3478v0.15111c0.0080807 2.3506-0.81891 4.3569-2.481 6.019-1.6621 1.6621-3.6685 2.4891-6.019 2.481-2.8347-0.02982-5.1228-1.1632-6.8642-3.4001-0.43425-0.56847-0.7988-1.1786-1.0937-1.8303-0.22511-0.42188-0.39416-0.86514-0.50717-1.3298-0.067999-0.37872-0.088777-0.99544 0.44956-0.99544h7.5433c0.13106 0.0016024 0.24293-0.043936 0.33561-0.13662 0.092679-0.092678 0.13822-0.20455 0.13662-0.33561l-9.5e-7 -8.5c-0.004662-0.29908 0.14236-0.45648 0.44106-0.47222 0.3145 0.010389 0.62806 0.046278 0.93783 0.10578 2.2701 0.37627 4.091 1.4882 5.4627 3.3358 1.06 1.4644 1.6128 3.1001 1.6585 4.9073z" fill="#494C4E"/>
		</g>
	</g>
</svg>
