<svg width="18" height="18" xmlns="http://www.w3.org/2000/svg" viewBox="0 0 18 18">
  <path fill="#565a5c" d="M18,12.45V4a1,1,0,0,0-1-1H14V1a1,1,0,0,0-2,0V3H6V1A1,1,0,0,0,4,1V3H1A1,1,0,0,0,0,4V17a1,1,0,0,0,1,1h9.287a2.952,2.952,0,0,1-1.261-2H2V8H16v3.067a2.9,2.9,0,0,1,1.4.785Z"/>
  <path fill="#565a5c" d="M17.388,16.429l-.875.875-.438.437a1.167,1.167,0,0,1-.7.263.525.525,0,0,1-.35-.088.764.764,0,0,1-.525-.787v-.875H11.875a.875.875,0,0,1,0-1.75H14.5v-.875a.766.766,0,0,1,.525-.788.8.8,0,0,1,.963.175L17.475,14.5a1.028,1.028,0,0,1,.525.875C18,15.816,17.65,16.079,17.388,16.429Z"/>
  <path fill="#565a5c" d="M6.613,13.179l.875.875.437.437a1.167,1.167,0,0,0,.7.263.525.525,0,0,0,.35-.088.764.764,0,0,0,.525-.787V13h2.625A.942.942,0,0,0,13,12.129a.941.941,0,0,0-.875-.875H9.5v-.875a.766.766,0,0,0-.525-.788.8.8,0,0,0-.963.175L6.525,11.254A1.026,1.026,0,0,0,6,12.129C6,12.566,6.35,12.829,6.613,13.179Z"/></svg>
