<svg width="18" height="18" xmlns="http://www.w3.org/2000/svg" viewBox="0 0 18 18">
<path fill="#565a5c" d="M18,12.382V17a1,1,0,0,1-1,1H12.277c.142-.125.278-.252.407-.379L14.329,16H16V14.353Zm0-6.17a3.129,3.129,0,0,0-3.328.685L13.553,8H2v8H6.3a3.49,3.49,0,0,0-.283,2H1a1,1,0,0,1-1-1V4A1,1,0,0,1,1,3H4V1A1,1,0,0,1,6,1V3h6V1a1,1,0,0,1,2,0V3h3a1,1,0,0,1,1,1V6.212Z"/>
<path fill="#565a5c" d="M17.675,9.9l-6.4,6.3c-.437.431-2.762,2.005-3.2,1.571s1.169-2.714,1.6-3.145l6.4-6.3a1.135,1.135,0,0,1,1.59.008A1.1,1.1,0,0,1,17.675,9.9Z"/></svg>
