<svg width="18" height="18" xmlns="http://www.w3.org/2000/svg" viewBox="0 0 18 18">
<path fill="#494C4E" d="M10,7.993a1.6,1.6,0,0,1-.359.85l-.419.593-5.728,8.1a.929.929,0,0,1-.764.457.9.9,0,0,1-.71-.38,1.038,1.038,0,0,1-.2-.62,1.411,1.411,0,0,1,.137-.537l.13-.318c.071-.175,2.1-5.145,2.113-5.145-.289,0-3.047.016-3.335,0A.978.978,0,0,1,0,10.084,1.739,1.739,0,0,1,.5,8.942L6.224.856A3.41,3.41,0,0,1,6.763.175.865.865,0,0,1,8.042.446a1.76,1.76,0,0,1-.18,1.583L5.934,6.993H8.488a2.247,2.247,0,0,1,1,.1.959.959,0,0,1,.5.746A.945.945,0,0,1,10,7.993Z"/>
<path fill="#494C4E" d="M18,6V3a3,3,0,0,0-6,0V6a3,3,0,0,0,2,2.82v.3a3,3,0,0,0-2,2.82v3a3,3,0,0,0,6,0v-3a3,3,0,0,0-2-2.82v-.3A3,3,0,0,0,18,6ZM14,3a1,1,0,0,1,2,0V6a1,1,0,0,0-2,0Zm2,11.94a1,1,0,0,1-2,0V12a1,1,0,0,0,2,0Z"/></svg>
