<svg width="18" height="18" xmlns="http://www.w3.org/2000/svg" viewBox="0 0 18 18">
	<path d="M 4.089844 17.726562 C 6.199219 17.726562 7.910156 16.019531 7.910156 13.910156 C 7.910156 12.90625 7.453125 11.863281 6.816406 11.183594 C 6.121094 10.433594 5.195312 10.089844 4.089844 10.089844 C 3.753906 10.089844 5.179688 4.636719 6.546875 2.726562 C 7.910156 0.816406 7.636719 0.273438 6.816406 0.273438 C 5.726562 0.273438 3.480469 2.933594 2.453125 5.117188 C 0.632812 9 0.273438 11.773438 0.273438 13.910156 C 0.273438 16.019531 1.980469 17.726562 4.089844 17.726562 Z M 13.910156 17.726562 C 16.019531 17.726562 17.726562 16.019531 17.726562 13.910156 C 17.726562 12.90625 17.269531 11.863281 16.636719 11.183594 C 15.9375 10.433594 15.011719 10.089844 13.910156 10.089844 C 13.574219 10.089844 15 4.636719 16.363281 2.726562 C 17.726562 0.816406 17.453125 0.273438 16.636719 0.273438 C 15.546875 0.273438 13.296875 2.933594 12.273438 5.117188 C 10.449219 9 10.089844 11.773438 10.089844 13.910156 C 10.089844 16.019531 11.800781 17.726562 13.910156 17.726562 Z M 13.910156 17.726562" fill="#494c4e" fill-rule="evenodd"/>
</svg>
