<svg  height="18" width="18" xmlns="http://www.w3.org/2000/svg" viewBox="0 0 18 18">
	<path fill="#494c4e" d="M17,0H1C0.4,0,0,0.5,0,1v8v2.2C0.3,11.1,0.7,11,1,11s0.7,0.1,1,0.2V10h2v2H3.2L4,12.8l2-2V10h0.8l2.1-2.1
		C9.2,7.6,9.6,7.3,10,7.2V6h2v1.2c0.4,0.1,0.8,0.4,1.1,0.7C13.7,8.4,14,9.2,14,10h2v2h-2v-2c0,0.8-0.3,1.6-0.9,2.1L11.2,14H12v2h-2
		v-0.8L7.2,18H9h8c0.6,0,1-0.5,1-1V9V1C18,0.5,17.6,0,17,0z M4,8H2V6h2V8z M4,4H2V2h2V4z M8,8H6V6h2V8z M8,4H6V2h2V4z M12,4h-2V2h2
		V4z M16,16h-2v-2h2V16z M16,8h-2V6h2V8z M16,4h-2V2h2V4z"/>
	<path fill="#494c4e" d="M11.7,9.3c-0.4-0.4-1-0.4-1.4,0L4,15.6l-2.3-2.3c-0.4-0.4-1-0.4-1.4,0s-0.4,1,0,1.4l3,3C3.5,17.9,3.7,18,4,18
		s0.5-0.1,0.7-0.3l7-7C12.1,10.3,12.1,9.7,11.7,9.3z"/>
	<path fill="#494c4e" d="M11,9c0.3,0,0.5,0.1,0.7,0.3c0.4,0.4,0.4,1,0,1.4l-7,7C4.5,17.9,4.3,18,4,18s-0.5-0.1-0.7-0.3l-3-3
		c-0.4-0.4-0.4-1,0-1.4C0.5,13.1,0.7,13,1,13s0.5,0.1,0.7,0.3L4,15.6l6.3-6.3C10.5,9.1,10.7,9,11,9"/>
</svg>