<svg width="18" height="18" xmlns="http://www.w3.org/2000/svg" viewBox="0 0 18 18" mirror-in-rtl="true">
  <path fill="#494c4e" d="M12.94 12.835L5.964 9.35a2.948 2.948 0 000-.733l6.96-3.477a2.983 2.983 0 10-.922-2.139 3.1 3.1 0 00.037.346L5.061 6.833c-.032-.031-.06-.065-.093-.093a3 3 0 10.118 4.405l6.958 3.476a2.862 2.862 0 00-.042.38 3.007 3.007 0 10.941-2.166zm1.059-9.893a.993.993 0 11.446.9 1.028 1.028 0 01-.446-.837.288.288 0 010-.063zM2.993 10.001a1 1 0 010-2v-.007a1.025 1.025 0 01.558.171 1 1 0 01.441.775v.12a.991.991 0 01-1 .941zm12.065 6a1 1 0 01-1.059-.939.3.3 0 010-.06 1.031 1.031 0 01.444-.834 1.021 1.021 0 01.556-.166 1 1 0 01.059 2z"/>
</svg>
