<svg xmlns="http://www.w3.org/2000/svg" width="18" height="18" fill="none" viewBox="0 0 18 18">
  <g clip-path="url(#a)">
    <path fill="#202122" d="M11.83 2.904c0-1.458-2.139-3.888-4.11-2.48-.202 2.696-2.05 5.513-4.066 7.178-.122.088-1.046.225-1.77.32A1.014 1.014 0 0 0 1 8.925v5.482a1 1 0 0 0 1 1h1.72C4.623 15.825 6.494 17 9.13 17h4.576c.712 0 2.37-.46 2.37-1.898s-1.488-1.515-1.488-1.515 2.45-.26 2.45-1.63c0-1.243-.698-1.727-1.93-1.78 0 0 2.891-.002 2.891-1.9 0-.974-.619-1.952-2.37-2.005h-4.703s.903-1.91.903-3.368Z"/>
  </g>
  <defs>
    <clipPath id="a">
      <path fill="#fff" d="M0 0h18v18H0z"/>
    </clipPath>
  </defs>
</svg>
