<svg width="18" height="18" xmlns="http://www.w3.org/2000/svg" viewBox="0 0 18 18">

<path fill="#494C4E" d="M17.44,13.26l-.31-.36-1.69-1.96a2,2,0,0,0-.19-.22,2.235,2.235,0,0,0-.73-.49A2.345,2.345,0,0,0,13.5,10a2.5,2.5,0,0,0-1.99,1H10.49A2.5,2.5,0,0,0,8.5,10a2.345,2.345,0,0,0-1.02.23,2.235,2.235,0,0,0-.73.49,2,2,0,0,0-.19.22L4.87,12.9l-.31.36A2.985,2.985,0,0,0,4,15a.859.859,0,0,0,.01.16A2.991,2.991,0,0,0,9.82,16h2.36a2.991,2.991,0,0,0,5.81-.84A.859.859,0,0,0,18,15,2.985,2.985,0,0,0,17.44,13.26ZM7,16a1,1,0,1,1,1-1A1,1,0,0,1,7,16Zm8,0a1,1,0,1,1,1-1A1,1,0,0,1,15,16Z"/>
<path fill="#494C4E" d="M9.85,3.15,6.86.15A.507.507,0,0,0,6.5,0H1.4A1.417,1.417,0,0,0,0,1.43V12.57A1.417,1.417,0,0,0,1.4,14h.862a7.939,7.939,0,0,1,.817-2H3a1,1,0,0,1,0-2H4.721A7.96,7.96,0,0,1,10,8V3.5A.469.469,0,0,0,9.85,3.15ZM3,2H4A1,1,0,0,1,4,4H3A1,1,0,0,1,3,2ZM7,8H3A1,1,0,0,1,3,6H7A1,1,0,0,1,7,8Z"/></svg>
