<svg width="18" height="18" viewBox="0 0 18 18" xmlns="http://www.w3.org/2000/svg">
  <g fill="#494C4E" fill-rule="nonzero">
    <path d="M18 12v5a1 1 0 01-1 1H1a1 1 0 01-1-1v-5a1 1 0 012 0v4h14v-4a1 1 0 012 0z"/>
    <path d="M10.5 0c.108 0 .213.035.299.098l.061.052 2.99 3a.47.47 0 01.144.271L14 3.5l-.001 4.65-2.37-1.927a.995.995 0 00-.488-.213L11 6H7a1 1 0 00-.117 1.993L7 8h1v2H7a1 1 0 00-.993.883L6 11a1 1 0 00.883.993L7 12h1v2H5.4a1.417 1.417 0 01-1.395-1.294L4 12.57V1.43A1.417 1.417 0 015.264.008L5.4 0h5.1zM8 2H7a1 1 0 00-.117 1.993L7 4h1a1 1 0 00.117-1.993L8 2z"/>
    <path d="M14.02 11a.32.32 0 01-.134.264l-3.31 2.662a.372.372 0 01-.225.074.345.345 0 01-.351-.339V8.318A.346.346 0 0110.351 8c.079 0 .155.023.218.068l3.317 2.668a.32.32 0 01.134.264z"/>
  </g>
</svg>