<svg width="18" height="18" viewBox="0 0 18 18" xmlns="http://www.w3.org/2000/svg">
  <g transform="translate(0 2)" fill="#494C4E" fill-rule="evenodd">
    <path d="M16 0H2a2.006 2.006 0 00-2 2v8a2.054 2.054 0 001.9 2h5.4l-2.9 2.2a.947.947 0 00-.3 1.1.96.96 0 00.9.7h8a.96.96 0 00.9-.7c.12-.394.004-.822-.3-1.1L10.7 12H16a2.006 2.006 0 002-2V2a2.006 2.006 0 00-2-2zm0 10H2V2h14v8z" fill-rule="nonzero"/>
    <circle cx="9" cy="5" r="2"/>
    <path d="M11 7a2 2 0 012 2H5a2 2 0 012-2h4z"/>
  </g>
</svg>