<svg width="18" height="18" xmlns="http://www.w3.org/2000/svg" viewBox="0 0 18 18" mirror-in-rtl="true">
  <mask id="a" fill="#fff">
    <path d="M1.585 1.19l.097.079 4.905 4.577.41.382 3.775 3.523v-.005l1.628 1.517-.002.007 1.544 1.44.003-.008 1.373 1.28.097.079a1 1 0 00.008.006l-.008.018 1.267 1.184a1 1 0 01-1.267 1.542l-.097-.08-.895-.835c-.278.434-.59.872-.936 1.312a.947.947 0 11-1.495-1.167c.393-.457.74-.938 1.044-1.44l-1.505-1.404a8.051 8.051 0 01-.954 1.249.953.953 0 01-1.338.019.947.947 0 01-.028-1.336c.347-.39.643-.818.883-1.273L7.002 8.97v5.286c0 .189-.111.36-.284.436a.424.424 0 01-.19.038.526.526 0 01-.321-.123l-2.915-2.719H.932a.93.93 0 01-.928-.928V7.132a.93.93 0 01.928-.928h2.35l.378-.353-3.342-3.12A1 1 0 011.585 1.19zM13.44.827c.055.056 4.354 4.87 2.712 11.196l-1.662-1.55a10.72 10.72 0 00-2.452-8.369A.95.95 0 0113.44.828zm-2.865 2.818a8.053 8.053 0 012.157 5.19L10.225 6.5a6.406 6.406 0 00-1.014-1.537.947.947 0 011.364-1.317z"/>
  </mask>
  <g mask="url(#a)">
    <path fill="#494c4e" d="M-1 0h18v18H-1z"/>
  </g>
</svg>