<svg width="492" height="328" viewBox="0 0 492 328" fill="none" xmlns="http://www.w3.org/2000/svg">
<g clip-path="url(#clip0_338_1969)">
<path d="M136.481 84.1191L133.416 88.0479L129.939 92.5066L126.758 96.5854L126.272 97.2094L126.259 97.226L126.238 97.2094L125.51 96.5854L114.914 87.5159L114.245 86.9453L112.174 85.172L92.4951 68.3315L100.284 58.3455L126.637 77.1093L129.27 78.9829L131.578 80.6267L136.481 84.1191Z" fill="#E3E9F1"/>
<g opacity="0.1">
<path d="M146.664 93.5177C146.662 94.3314 146.338 95.1113 145.763 95.6863C145.188 96.2613 144.408 96.5845 143.595 96.5851H125.511L114.915 87.5156L114.245 86.945L112.178 85.1709C113.626 82.7158 115.689 80.6809 118.163 79.2667C120.636 77.8526 123.435 77.1082 126.284 77.1068H126.642L129.277 78.9804H131.943C134.274 78.9775 136.576 79.4933 138.683 80.4903C140.791 81.4873 142.65 82.9406 144.127 84.7451C145.79 87.3682 146.67 90.4115 146.664 93.5177V93.5177Z" fill="#494C4E"/>
</g>
<path d="M141.758 36.4138L135.313 41.088L131.307 43.9896L108.024 60.8723L105.949 62.3789L97.6146 68.4187L95.0191 65.0966L94.6991 64.6851L93.9717 63.752L89.8213 58.4372L98.3962 51.2149L114.448 37.6958L116.225 36.2058L127.037 27.0986L129.016 25.4338L131.536 23.3107L133.191 25.4338L134.493 27.0986L141.758 36.4138Z" fill="#E3E9F1"/>
<g opacity="0.1">
<path d="M150.384 27.0988C149.518 33.9669 143.368 39.5485 135.313 41.0882L131.308 43.9898C131.006 44.0019 130.709 44.0064 130.404 44.0064C123.962 44.0064 118.206 41.5419 114.447 37.696L116.223 36.206C113.529 33.8661 111.768 30.6329 111.262 27.0988H150.384Z" fill="#494C4E"/>
</g>
<path d="M264.771 136.036V259.476H194.704V136.085C194.704 133.958 195.368 131.884 196.605 130.155C197.842 128.426 199.589 127.127 201.601 126.442C202.658 126.077 203.768 125.891 204.887 125.892H218.225L264.771 136.036Z" fill="#868C8F"/>
<path d="M260.638 131.183L220.461 126.38L216.389 125.893H204.887C203.767 125.891 202.655 126.076 201.597 126.442C199.585 127.128 197.838 128.427 196.601 130.157C195.365 131.887 194.701 133.962 194.702 136.089V259.476H213.828L213.878 258.082V259.476H264.779V126.773C263.507 126.205 262.11 131.183 260.638 131.183ZM202.841 163.787C202.842 163.34 203.02 162.912 203.335 162.596C203.651 162.28 204.078 162.102 204.525 162.101H212.14C212.586 162.101 213.015 162.279 213.331 162.595C213.646 162.911 213.824 163.34 213.824 163.787V220.096H202.841V163.787Z" fill="#B5BDC2"/>
<path d="M431.407 259.474V259.728C429.545 260.252 427.619 260.517 425.684 260.515H283.851V277.194H418.158C419.759 277.194 421.302 277.791 422.487 278.869C423.672 279.946 424.413 281.427 424.566 283.022H73.1617C73.3149 281.427 74.0563 279.946 75.2412 278.869C76.4261 277.791 77.9695 277.194 79.5704 277.194H211.417V260.515H66.3164V259.474H431.407Z" fill="#9EA5A9"/>
<path d="M211.416 260.515V277.194H79.5736C77.9728 277.194 76.4293 277.791 75.2444 278.869C74.0595 279.946 73.3182 281.427 73.165 283.022C73.1446 283.226 73.1348 283.432 73.1356 283.637V324.587C73.1357 325.054 73.04 325.516 72.8543 325.945C72.6687 326.373 72.397 326.759 72.0563 327.078C71.7155 327.398 71.3129 327.643 70.8733 327.8C70.4338 327.958 69.9667 328.023 69.501 327.992C68.6245 327.915 67.8092 327.51 67.2191 326.857C66.6289 326.204 66.3076 325.351 66.3197 324.471V260.515H211.416Z" fill="#CDD5DC"/>
<path d="M431.412 259.728V324.587C431.412 325.054 431.316 325.516 431.13 325.945C430.945 326.373 430.673 326.759 430.332 327.078C429.991 327.398 429.589 327.643 429.149 327.8C428.71 327.958 428.243 328.023 427.777 327.992C426.9 327.915 426.085 327.51 425.495 326.857C424.905 326.204 424.584 325.351 424.596 324.471V283.637C424.596 283.429 424.587 283.225 424.567 283.022C424.414 281.427 423.672 279.946 422.488 278.869C421.303 277.791 419.759 277.194 418.158 277.194H283.852V260.515H425.685C427.62 260.517 429.545 260.252 431.408 259.728H431.412Z" fill="#CDD5DC"/>
<path d="M211.416 250.088L216.048 250.282V277.194H211.416V250.088Z" fill="#CDD5DC"/>
<path d="M425.684 219.162H66.3162C55.194 219.162 46.1777 228.186 46.1777 239.319C46.1777 250.451 55.194 259.475 66.3162 259.475H425.684C436.806 259.475 445.823 250.451 445.823 239.319C445.823 228.186 436.806 219.162 425.684 219.162Z" fill="#F9FBFF"/>
<path d="M213.874 258.437V259.477H223.211V258.437H213.874ZM213.824 259.477L213.861 258.437H213.824V259.477ZM425.685 218.125H66.3166C60.7128 218.116 55.3341 220.331 51.3589 224.285C47.3837 228.238 45.1362 233.607 45.1087 239.216C45.0812 244.825 47.276 250.216 51.2122 254.208C55.1485 258.2 60.5052 260.468 66.1088 260.514C66.1796 260.514 66.2466 260.514 66.3166 260.514H425.685C427.619 260.516 429.545 260.251 431.407 259.728V259.728C436.333 258.343 440.591 255.221 443.395 250.938C446.198 246.655 447.359 241.501 446.661 236.428C445.963 231.356 443.455 226.707 439.599 223.342C435.743 219.977 430.801 218.122 425.685 218.121V218.125ZM431.407 257.559C429.556 258.142 427.626 258.439 425.685 258.437H66.3166C66.2466 258.437 66.1758 258.437 66.1088 258.433C61.0676 258.37 56.2557 256.314 52.7227 252.714C49.1898 249.114 47.2225 244.262 47.2499 239.216C47.2774 234.17 49.2973 229.339 52.8692 225.778C56.441 222.217 61.275 220.214 66.3166 220.206H425.685C430.247 220.207 434.659 221.844 438.12 224.819C441.582 227.794 443.865 231.911 444.557 236.425C445.249 240.939 444.303 245.551 441.891 249.428C439.479 253.304 435.76 256.189 431.407 257.559V257.559ZM213.824 258.437V259.477L213.861 258.437H213.824ZM213.874 258.437V259.477H223.211V258.437H213.874Z" fill="#868C8F"/>
<path d="M66.1107 253.169C73.7534 253.169 79.949 246.968 79.949 239.319C79.949 231.669 73.7534 225.468 66.1107 225.468C58.4681 225.468 52.2725 231.669 52.2725 239.319C52.2725 246.968 58.4681 253.169 66.1107 253.169Z" fill="#CDD5DC"/>
<path d="M66.1107 245.193C69.3523 245.193 71.9802 242.563 71.9802 239.319C71.9802 236.074 69.3523 233.444 66.1107 233.444C62.8691 233.444 60.2412 236.074 60.2412 239.319C60.2412 242.563 62.8691 245.193 66.1107 245.193Z" fill="#E3E9F1"/>
<path d="M126.016 253.169C133.659 253.169 139.854 246.968 139.854 239.319C139.854 231.669 133.659 225.468 126.016 225.468C118.373 225.468 112.178 231.669 112.178 239.319C112.178 246.968 118.373 253.169 126.016 253.169Z" fill="#CDD5DC"/>
<path d="M126.016 245.193C129.258 245.193 131.885 242.563 131.885 239.319C131.885 236.074 129.258 233.444 126.016 233.444C122.774 233.444 120.146 236.074 120.146 239.319C120.146 242.563 122.774 245.193 126.016 245.193Z" fill="#E3E9F1"/>
<path d="M185.921 253.169C193.564 253.169 199.76 246.968 199.76 239.319C199.76 231.669 193.564 225.468 185.921 225.468C178.279 225.468 172.083 231.669 172.083 239.319C172.083 246.968 178.279 253.169 185.921 253.169Z" fill="#CDD5DC"/>
<path d="M185.921 245.193C189.163 245.193 191.791 242.563 191.791 239.319C191.791 236.074 189.163 233.444 185.921 233.444C182.68 233.444 180.052 236.074 180.052 239.319C180.052 242.563 182.68 245.193 185.921 245.193Z" fill="#E3E9F1"/>
<path d="M245.826 253.169C253.468 253.169 259.664 246.968 259.664 239.319C259.664 231.669 253.468 225.468 245.826 225.468C238.183 225.468 231.987 231.669 231.987 239.319C231.987 246.968 238.183 253.169 245.826 253.169Z" fill="#CDD5DC"/>
<path d="M245.826 245.193C249.067 245.193 251.695 242.563 251.695 239.319C251.695 236.074 249.067 233.444 245.826 233.444C242.584 233.444 239.956 236.074 239.956 239.319C239.956 242.563 242.584 245.193 245.826 245.193Z" fill="#E3E9F1"/>
<path d="M305.731 253.169C313.374 253.169 319.569 246.968 319.569 239.319C319.569 231.669 313.374 225.468 305.731 225.468C298.088 225.468 291.893 231.669 291.893 239.319C291.893 246.968 298.088 253.169 305.731 253.169Z" fill="#CDD5DC"/>
<path d="M305.731 245.193C308.972 245.193 311.6 242.563 311.6 239.319C311.6 236.074 308.972 233.444 305.731 233.444C302.489 233.444 299.861 236.074 299.861 239.319C299.861 242.563 302.489 245.193 305.731 245.193Z" fill="#E3E9F1"/>
<path d="M365.636 253.169C373.279 253.169 379.474 246.968 379.474 239.319C379.474 231.669 373.279 225.468 365.636 225.468C357.993 225.468 351.798 231.669 351.798 239.319C351.798 246.968 357.993 253.169 365.636 253.169Z" fill="#CDD5DC"/>
<path d="M365.636 245.193C368.878 245.193 371.506 242.563 371.506 239.319C371.506 236.074 368.878 233.444 365.636 233.444C362.394 233.444 359.767 236.074 359.767 239.319C359.767 242.563 362.394 245.193 365.636 245.193Z" fill="#E3E9F1"/>
<path d="M425.541 253.169C433.184 253.169 439.38 246.968 439.38 239.319C439.38 231.669 433.184 225.468 425.541 225.468C417.899 225.468 411.703 231.669 411.703 239.319C411.703 246.968 417.899 253.169 425.541 253.169Z" fill="#CDD5DC"/>
<path d="M425.541 245.193C428.783 245.193 431.411 242.563 431.411 239.319C431.411 236.074 428.783 233.444 425.541 233.444C422.3 233.444 419.672 236.074 419.672 239.319C419.672 242.563 422.3 245.193 425.541 245.193Z" fill="#E3E9F1"/>
<path d="M260.636 125.892H210.216C209.097 125.891 207.987 126.077 206.93 126.442C208.941 127.128 210.687 128.426 211.923 130.155C213.16 131.885 213.824 133.958 213.822 136.085V259.476L213.871 258.08V259.476H270.813V136.085C270.813 133.382 269.741 130.791 267.833 128.879C265.924 126.968 263.336 125.894 260.636 125.892V125.892Z" fill="#B5BDC2"/>
<path d="M273.667 125.892H213.032C213.315 125.892 213.595 125.905 213.873 125.929C215.41 126.052 216.898 126.527 218.223 127.317C219.745 128.218 221.006 129.5 221.881 131.038C222.757 132.575 223.216 134.315 223.215 136.085V259.476V259.456V259.475H283.849V136.084C283.849 134.746 283.586 133.42 283.074 132.184C282.563 130.947 281.813 129.824 280.867 128.877C279.922 127.931 278.799 127.18 277.564 126.668C276.329 126.156 275.005 125.892 273.667 125.892Z" fill="#E3E9F1"/>
<g opacity="0.1">
<path d="M250.735 153.474C249.704 152.467 248.477 151.682 247.131 151.169C245.784 150.655 244.347 150.424 242.908 150.489C241.15 150.564 239.438 151.075 237.927 151.978C236.416 152.88 235.153 154.145 234.252 155.658C233.352 157.171 232.842 158.885 232.768 160.645C232.695 162.404 233.06 164.155 233.831 165.738C233.939 165.96 234.108 166.147 234.317 166.278C234.527 166.41 234.769 166.479 235.016 166.48L251.672 166.515C251.919 166.515 252.16 166.446 252.37 166.316C252.579 166.186 252.748 166 252.857 165.778C253.847 163.766 254.174 161.492 253.793 159.282C253.411 157.072 252.339 155.04 250.732 153.478L250.735 153.474Z" fill="#494C4E"/>
</g>
<path d="M148.832 152.176C147.971 152.175 147.128 151.929 146.403 151.465C145.678 151.001 145.101 150.339 144.739 149.558C144.377 148.776 144.246 147.907 144.361 147.054C144.477 146.2 144.834 145.397 145.39 144.74L158.425 121.385C158.572 121.134 158.624 120.839 158.572 120.553C158.521 120.267 158.368 120.009 158.142 119.825L140.109 107.541C139.655 107.16 139.279 106.694 139.005 106.168C138.731 105.642 138.562 105.067 138.51 104.477C138.457 103.886 138.522 103.29 138.699 102.724C138.877 102.158 139.164 101.633 139.544 101.178C139.924 100.723 140.39 100.348 140.916 100.073C141.441 99.7984 142.015 99.63 142.605 99.5775C143.196 99.525 143.791 99.5893 144.356 99.7669C144.921 99.9445 145.446 100.232 145.901 100.612L164.991 113.509C166.979 115.156 168.239 117.52 168.498 120.09C168.757 122.66 167.994 125.229 166.374 127.239C166.346 127.275 166.317 127.309 166.289 127.343L152.278 147.703C151.385 148.758 150.112 152.176 148.832 152.176Z" fill="#B5BDC2"/>
<path d="M153.754 145.195C152.894 145.194 152.051 144.948 151.326 144.484C150.601 144.02 150.024 143.358 149.662 142.576C149.3 141.795 149.169 140.926 149.284 140.072C149.4 139.219 149.756 138.416 150.312 137.759L160.886 120.944C161.033 120.693 161.086 120.398 161.034 120.111C160.982 119.825 160.829 119.567 160.603 119.384L142.16 106.657C140.249 105.056 139.995 103.089 141.595 101.175C143.195 99.2616 144.81 94.0817 146.721 95.6825L167.041 112.188C171.183 115.66 171.791 123.013 168.425 127.241C168.397 127.277 168.368 127.311 168.339 127.345L157.201 143.598C156.777 144.099 156.249 144.502 155.654 144.778C155.059 145.054 154.41 145.196 153.754 145.195V145.195Z" fill="#E3E9F1"/>
<path d="M147.834 121.057V158.223H105.928C105.484 158.223 105.058 158.046 104.745 157.732C104.431 157.418 104.254 156.992 104.254 156.548V122.732C104.254 122.512 104.297 122.294 104.381 122.091C104.465 121.887 104.589 121.703 104.744 121.547C104.899 121.392 105.084 121.268 105.287 121.184C105.49 121.1 105.708 121.057 105.928 121.057H147.834Z" fill="#FAD39E"/>
<path d="M113.363 121.055H154.002C154.215 121.055 154.427 121.097 154.625 121.179C154.822 121.261 155.002 121.381 155.153 121.532C155.304 121.684 155.424 121.863 155.506 122.061C155.587 122.259 155.63 122.471 155.63 122.685V156.594C155.63 156.808 155.587 157.02 155.506 157.217C155.424 157.415 155.304 157.595 155.153 157.746C155.002 157.897 154.822 158.017 154.625 158.099C154.427 158.181 154.215 158.223 154.002 158.223H113.363V121.055Z" fill="#FAEAD4"/>
<path d="M109.376 182.784V218.343H98.8176C98.2317 218.343 97.6698 218.11 97.2555 217.695C96.8412 217.281 96.6084 216.718 96.6084 216.132V183.197L109.376 182.784Z" fill="#DEB881"/>
<g opacity="0.1">
<path d="M107.553 185.657L107.558 185.661L107.482 185.657H107.553Z" fill="#6E7376"/>
</g>
<path d="M168.717 182.784V216.129C168.717 216.716 168.484 217.278 168.07 217.693C167.655 218.108 167.094 218.341 166.508 218.341H109.376V182.784H168.717Z" fill="#FAD39E"/>
<path d="M179.494 168.631H123.058C122.715 168.631 122.375 168.703 122.062 168.842C121.748 168.981 121.467 169.185 121.237 169.44L109.572 182.351L109.375 182.782H168.716L180.096 169.99C180.201 169.873 180.269 169.728 180.294 169.573C180.318 169.418 180.297 169.259 180.233 169.116C180.17 168.972 180.066 168.85 179.935 168.764C179.804 168.678 179.651 168.632 179.494 168.631Z" fill="#FAE5C8"/>
<path d="M109.375 182.782L96.6079 183.193L86.9291 171.303C86.8319 171.183 86.7704 171.039 86.752 170.885C86.7335 170.732 86.7587 170.577 86.8248 170.438C86.8908 170.298 86.9949 170.18 87.125 170.098C87.2551 170.015 87.406 169.971 87.5601 169.971L98.1771 169.956C98.5511 169.955 98.9202 170.04 99.2563 170.204C99.5925 170.368 99.8868 170.606 100.117 170.901L109.375 182.782Z" fill="#FAD39E"/>
<g opacity="0.1">
<path d="M108.732 146.012C107.936 146.795 106.866 147.238 105.75 147.248C105.238 147.247 104.73 147.152 104.252 146.968V131.989L109.269 138.674C110.065 139.762 110.448 141.097 110.35 142.442C110.251 143.786 109.678 145.052 108.732 146.012V146.012Z" fill="#494C4E"/>
</g>
<path d="M120.401 98.3168C119.522 97.2617 118.286 92.9236 116.922 92.8023C115.558 92.6809 114.228 92.6877 113.176 93.568C113.176 93.568 93.2641 110.676 90.4276 113.766C88.6475 115.62 87.6041 118.061 87.4932 120.63C87.3823 123.2 88.2115 125.721 89.8252 127.722L89.8426 127.741L101.503 142.525C103.209 144.202 104.181 144.992 105.72 144.992H106.154C107.181 145.09 108.207 144.803 109.034 144.185C109.556 143.707 109.94 143.097 110.147 142.42C110.354 141.742 110.375 141.022 110.208 140.333C109.942 138.933 109.319 137.624 108.401 136.534L97.7496 121.201C97.7205 121.155 97.7094 121.1 97.7184 121.046C97.7275 120.992 97.756 120.944 97.7985 120.91L119.758 105.547C120.8 104.673 121.453 103.421 121.573 102.065C121.694 100.71 121.272 99.3615 120.401 98.3168V98.3168Z" fill="#B5BDC2"/>
<path d="M106.128 145.195C105.472 145.196 104.823 145.053 104.228 144.777C103.633 144.501 103.105 144.098 102.682 143.596L91.5458 127.343C91.5164 127.309 91.4886 127.275 91.46 127.239C89.8393 125.229 89.0752 122.661 89.3334 120.09C89.5916 117.52 90.8513 115.156 92.8394 113.508L112.75 96.5014C114.662 94.9007 116.688 99.2606 118.287 101.174C119.055 102.093 119.427 103.28 119.321 104.473C119.215 105.666 118.64 106.768 117.722 107.537L98.6321 120.438C98.468 120.574 98.3621 120.768 98.3361 120.98C98.31 121.192 98.3658 121.406 98.492 121.579L109.569 137.758C110.125 138.416 110.482 139.218 110.597 140.072C110.712 140.925 110.582 141.794 110.22 142.576C109.858 143.357 109.281 144.019 108.556 144.483C107.831 144.947 106.989 145.194 106.128 145.195V145.195Z" fill="#E3E9F1"/>
<path d="M112.178 96.3884H147.705V107.218C147.705 108.173 147.326 109.089 146.651 109.765C145.976 110.441 145.061 110.82 144.106 110.82H115.776C114.821 110.82 113.906 110.441 113.231 109.765C112.556 109.089 112.177 108.173 112.177 107.218V96.3884H112.178Z" fill="#B5BDC2"/>
<path d="M112.178 95.5677H147.705V106.397C147.705 107.352 147.326 108.269 146.651 108.944C145.976 109.62 145.061 110 144.106 110H115.776C114.821 110 113.906 109.62 113.231 108.944C112.556 108.269 112.177 107.352 112.177 106.397V95.5677H112.178Z" fill="#CDD5DC"/>
<path d="M127.944 80.6256H131.935C136.117 80.6256 140.127 82.2883 143.084 85.2479C146.041 88.2075 147.702 92.2216 147.702 96.4072V96.4072C147.702 97.0558 147.445 97.6779 146.987 98.1365C146.528 98.5951 145.907 98.8528 145.259 98.8528H114.62C114.299 98.8528 113.982 98.7895 113.685 98.6666C113.389 98.5437 113.119 98.3636 112.892 98.1365C112.666 97.9094 112.486 97.6398 112.363 97.3431C112.24 97.0464 112.177 96.7283 112.177 96.4072V96.4072C112.177 92.2216 113.838 88.2075 116.795 85.2479C119.752 82.2883 123.762 80.6256 127.944 80.6256V80.6256Z" fill="#B5BDC2"/>
<path d="M147.706 94.766C147.705 94.9179 147.69 95.0694 147.66 95.2182C147.572 95.7012 147.338 96.1457 146.99 96.4919C146.763 96.7195 146.493 96.8998 146.196 97.0227C145.899 97.1455 145.58 97.2085 145.259 97.2079H114.62C114.051 97.2086 113.5 97.0099 113.063 96.6465C112.625 96.283 112.329 95.7777 112.225 95.2182C112.194 95.0694 112.179 94.9179 112.179 94.766C112.178 92.6936 112.586 90.6414 113.378 88.7266C114.17 86.8118 115.331 85.072 116.795 83.6064C118.259 82.1408 119.997 80.9781 121.91 80.1848C123.823 79.3915 125.873 78.9831 127.944 78.9829H131.935C136.117 78.9831 140.128 80.646 143.085 83.6059C146.042 86.5657 147.704 90.5801 147.704 94.766H147.706Z" fill="#9EA5A9"/>
<path d="M145.26 97.8327H114.619C113.904 97.8344 113.211 97.585 112.661 97.128C112.11 96.6709 111.738 96.0351 111.607 95.3313C111.57 95.1447 111.552 94.9548 111.552 94.7645C111.552 92.61 111.975 90.4765 112.799 88.4858C113.623 86.4952 114.83 84.6865 116.352 83.163C117.874 81.6395 119.682 80.431 121.67 79.6066C123.659 78.7822 125.791 78.3579 127.943 78.3581H131.934C136.282 78.3585 140.451 80.0874 143.525 83.1643C146.6 86.2413 148.327 90.4145 148.327 94.766C148.327 94.9599 148.308 95.1533 148.269 95.3433C148.157 95.9469 147.865 96.5021 147.43 96.9351C146.854 97.5102 146.074 97.833 145.26 97.8327V97.8327ZM127.942 79.6055C125.952 79.6008 123.982 79.9911 122.144 80.7537C120.306 81.5163 118.638 82.6361 117.235 84.0483C115.827 85.4545 114.711 87.1252 113.95 88.9645C113.189 90.8038 112.799 92.7753 112.802 94.766C112.802 94.8772 112.814 94.988 112.836 95.0969C112.911 95.5152 113.131 95.8937 113.457 96.1659C113.783 96.4381 114.195 96.5866 114.619 96.5854H145.26C145.744 96.5851 146.209 96.3927 146.551 96.0503C146.885 95.707 147.075 95.2484 147.082 94.7691C147.082 90.7482 145.486 86.8918 142.646 84.0484C139.806 81.205 135.953 79.6074 131.936 79.607L127.942 79.6055Z" fill="#F1F5FB"/>
<path d="M129.941 92.5058C131.921 92.5058 133.526 90.8994 133.526 88.9177C133.526 86.936 131.921 85.3295 129.941 85.3295C127.961 85.3295 126.356 86.936 126.356 88.9177C126.356 90.8994 127.961 92.5058 129.941 92.5058Z" fill="#B5BDC2"/>
<path d="M129.942 93.1304C129.109 93.1304 128.295 92.8833 127.603 92.4203C126.911 91.9574 126.371 91.2994 126.053 90.5296C125.734 89.7598 125.651 88.9127 125.813 88.0955C125.976 87.2783 126.377 86.5276 126.965 85.9384C127.554 85.3492 128.304 84.948 129.12 84.7854C129.937 84.6228 130.783 84.7063 131.552 85.0251C132.321 85.344 132.979 85.884 133.441 86.5768C133.904 87.2696 134.151 88.0842 134.151 88.9174C134.149 90.0341 133.705 91.1046 132.916 91.8942C132.127 92.6839 131.057 93.1284 129.942 93.1304V93.1304ZM129.942 85.954C129.356 85.954 128.783 86.1279 128.296 86.4536C127.809 86.7794 127.43 87.2423 127.205 87.784C126.981 88.3257 126.923 88.9217 127.037 89.4967C127.151 90.0717 127.434 90.5999 127.848 91.0144C128.262 91.4289 128.79 91.7111 129.364 91.8254C129.939 91.9397 130.534 91.8809 131.075 91.6565C131.617 91.432 132.079 91.0519 132.404 90.5644C132.73 90.0768 132.903 89.5037 132.903 88.9174C132.902 88.1316 132.59 87.3784 132.035 86.8228C131.479 86.2673 130.727 85.9548 129.942 85.954Z" fill="#F1F5FB"/>
<path d="M141.681 105.772C142.628 105.772 143.396 105.003 143.396 104.056C143.396 103.108 142.628 102.34 141.681 102.34C140.734 102.34 139.967 103.108 139.967 104.056C139.967 105.003 140.734 105.772 141.681 105.772Z" fill="#FAE5C8"/>
<path d="M129.941 105.772C130.888 105.772 131.656 105.003 131.656 104.056C131.656 103.108 130.888 102.34 129.941 102.34C128.994 102.34 128.227 103.108 128.227 104.056C128.227 105.003 128.994 105.772 129.941 105.772Z" fill="#FAE5C8"/>
<path d="M118.201 105.772C119.148 105.772 119.915 105.003 119.915 104.056C119.915 103.108 119.148 102.34 118.201 102.34C117.254 102.34 116.486 103.108 116.486 104.056C116.486 105.003 117.254 105.772 118.201 105.772Z" fill="#FAE5C8"/>
<path d="M327.667 182.784V218.343H317.11C316.819 218.343 316.532 218.286 316.264 218.175C315.996 218.064 315.752 217.901 315.547 217.696C315.342 217.49 315.179 217.246 315.068 216.978C314.957 216.71 314.9 216.422 314.9 216.132V185.058C314.9 184.558 315.094 184.078 315.441 183.72C315.789 183.361 316.262 183.151 316.76 183.135L327.667 182.784Z" fill="#DEB881"/>
<g opacity="0.1">
<path d="M325.846 185.657L325.85 185.661L325.774 185.657H325.846Z" fill="#6E7376"/>
</g>
<path d="M387.008 184.707V216.129C387.008 216.42 386.951 216.707 386.84 216.976C386.729 217.244 386.566 217.488 386.361 217.693C386.156 217.899 385.912 218.061 385.644 218.173C385.376 218.284 385.089 218.341 384.799 218.341H327.667V182.784H385.086C385.596 182.784 386.085 182.986 386.445 183.347C386.805 183.708 387.008 184.197 387.008 184.707Z" fill="#FADAAF"/>
<path d="M356.228 204.976C356.37 205.133 356.543 205.258 356.736 205.344C356.929 205.429 357.137 205.474 357.348 205.474H357.357H357.367C357.546 205.472 357.723 205.437 357.889 205.373C357.909 205.365 357.93 205.361 357.95 205.352C358.112 205.281 358.261 205.182 358.39 205.06C358.403 205.047 358.422 205.043 358.435 205.029L363.304 200.157C363.584 199.869 363.739 199.483 363.736 199.082C363.733 198.681 363.573 198.297 363.29 198.014C363.007 197.73 362.623 197.569 362.222 197.566C361.822 197.564 361.436 197.719 361.149 197.998L358.873 200.276V192.718C358.873 192.313 358.713 191.925 358.427 191.639C358.141 191.353 357.753 191.192 357.348 191.192C356.944 191.192 356.556 191.353 356.27 191.639C355.984 191.925 355.824 192.313 355.824 192.718V200.255L353.547 197.976C353.405 197.834 353.237 197.721 353.052 197.645C352.867 197.568 352.669 197.529 352.469 197.529C352.269 197.529 352.07 197.568 351.885 197.645C351.7 197.721 351.532 197.834 351.391 197.976C351.249 198.117 351.137 198.285 351.06 198.471C350.984 198.656 350.944 198.854 350.944 199.054C350.944 199.255 350.984 199.453 351.06 199.638C351.137 199.823 351.249 199.992 351.391 200.133L356.228 204.976Z" fill="#FF6B70"/>
<path d="M364.727 203.491C364.527 203.491 364.329 203.531 364.144 203.607C363.959 203.684 363.791 203.796 363.649 203.938C363.507 204.08 363.395 204.248 363.318 204.433C363.242 204.618 363.202 204.817 363.202 205.017V207.561H351.499V205.017C351.499 204.612 351.338 204.224 351.052 203.938C350.766 203.652 350.378 203.491 349.974 203.491C349.57 203.491 349.182 203.652 348.896 203.938C348.61 204.224 348.449 204.612 348.449 205.017V209.087C348.449 209.492 348.61 209.88 348.896 210.166C349.182 210.452 349.57 210.613 349.974 210.613H364.727C365.132 210.613 365.519 210.452 365.805 210.166C366.091 209.88 366.252 209.492 366.252 209.087V205.017C366.252 204.817 366.212 204.618 366.136 204.433C366.059 204.248 365.947 204.08 365.805 203.938C365.664 203.796 365.496 203.684 365.311 203.607C365.126 203.531 364.927 203.491 364.727 203.491V203.491Z" fill="#FF6B70"/>
<path d="M213.825 241.098H275.561V328H219.553C218.034 328 216.578 327.396 215.504 326.322C214.43 325.247 213.827 323.789 213.827 322.269V241.1L213.825 241.098Z" fill="#B5BDC2"/>
<path d="M283.851 241.098V322.272C283.85 323.792 283.246 325.248 282.172 326.322C281.098 327.396 279.643 327.999 278.125 328H223.214V241.098H283.851Z" fill="#E3E9F1"/>
<path d="M97.4791 72.3549C103.323 72.3549 108.061 67.613 108.061 61.7637C108.061 55.9144 103.323 51.1725 97.4791 51.1725C91.635 51.1725 86.8975 55.9144 86.8975 61.7637C86.8975 67.613 91.635 72.3549 97.4791 72.3549Z" fill="#9EA5A9"/>
<path d="M97.4793 72.9796C95.263 72.9796 93.0964 72.3218 91.2537 71.0893C89.4109 69.8569 87.9746 68.1052 87.1264 66.0558C86.2783 64.0063 86.0564 61.7512 86.4888 59.5755C86.9211 57.3998 87.9884 55.4013 89.5556 53.8328C91.1227 52.2642 93.1194 51.196 95.2931 50.7632C97.4669 50.3304 99.72 50.5525 101.768 51.4014C103.815 52.2504 105.565 53.6879 106.797 55.5324C108.028 57.3768 108.685 59.5453 108.685 61.7636C108.682 64.7372 107.5 67.5879 105.399 69.6905C103.298 71.7932 100.45 72.976 97.4793 72.9796ZM97.4793 51.7972C95.5096 51.7966 93.584 52.3807 91.9459 53.4756C90.3079 54.5705 89.0311 56.127 88.2769 57.9482C87.5228 59.7695 87.3252 61.7736 87.7091 63.7073C88.0931 65.641 89.0414 67.4172 90.434 68.8114C91.8266 70.2056 93.6011 71.1551 95.5329 71.5399C97.4647 71.9246 99.4672 71.7273 101.287 70.9729C103.107 70.2185 104.662 68.9408 105.756 67.3016C106.851 65.6623 107.435 63.7351 107.434 61.7636C107.431 59.1217 106.382 56.5888 104.515 54.7204C102.649 52.8521 100.119 51.8008 97.4793 51.7972V51.7972Z" fill="#F1F5FB"/>
<path d="M97.4793 65.7999C99.7066 65.7999 101.512 63.9927 101.512 61.7633C101.512 59.534 99.7066 57.7267 97.4793 57.7267C95.2519 57.7267 93.4463 59.534 93.4463 61.7633C93.4463 63.9927 95.2519 65.7999 97.4793 65.7999Z" fill="#F1F5FB"/>
<path d="M248.205 180.091H236.233C236.069 180.091 235.907 180.058 235.756 179.995C235.604 179.933 235.467 179.841 235.351 179.725C235.235 179.609 235.143 179.471 235.08 179.32C235.018 179.168 234.985 179.006 234.985 178.842C234.985 178.678 235.018 178.515 235.08 178.364C235.143 178.212 235.235 178.075 235.351 177.959C235.467 177.843 235.604 177.751 235.756 177.688C235.907 177.625 236.069 177.593 236.233 177.593H248.205C248.536 177.593 248.854 177.724 249.088 177.959C249.322 178.193 249.453 178.51 249.453 178.842C249.453 179.173 249.322 179.491 249.088 179.725C248.854 179.959 248.536 180.091 248.205 180.091V180.091Z" fill="#868C8F"/>
<path d="M248.205 187.475H236.233C236.069 187.475 235.907 187.442 235.756 187.38C235.604 187.317 235.467 187.225 235.351 187.109C235.235 186.993 235.143 186.855 235.08 186.704C235.018 186.552 234.985 186.39 234.985 186.226C234.985 186.062 235.018 185.9 235.08 185.748C235.143 185.597 235.235 185.459 235.351 185.343C235.467 185.227 235.604 185.135 235.756 185.072C235.907 185.009 236.069 184.977 236.233 184.977H248.205C248.536 184.977 248.854 185.109 249.088 185.343C249.322 185.577 249.453 185.895 249.453 186.226C249.453 186.557 249.322 186.875 249.088 187.109C248.854 187.343 248.536 187.475 248.205 187.475V187.475Z" fill="#868C8F"/>
<path d="M248.205 194.86H236.233C235.902 194.86 235.585 194.729 235.351 194.495C235.117 194.26 234.985 193.943 234.985 193.612C234.985 193.28 235.117 192.963 235.351 192.729C235.585 192.494 235.902 192.363 236.233 192.363H248.205C248.536 192.363 248.854 192.494 249.088 192.729C249.322 192.963 249.453 193.28 249.453 193.612C249.453 193.943 249.322 194.26 249.088 194.495C248.854 194.729 248.536 194.86 248.205 194.86V194.86Z" fill="#868C8F"/>
<path d="M248.205 202.245H236.233C235.902 202.245 235.585 202.113 235.351 201.879C235.117 201.645 234.985 201.327 234.985 200.996C234.985 200.665 235.117 200.347 235.351 200.113C235.585 199.878 235.902 199.747 236.233 199.747H248.205C248.536 199.747 248.854 199.878 249.088 200.113C249.322 200.347 249.453 200.665 249.453 200.996C249.453 201.327 249.322 201.645 249.088 201.879C248.854 202.113 248.536 202.245 248.205 202.245V202.245Z" fill="#868C8F"/>
<path d="M248.205 209.629H236.232C236.066 209.633 235.901 209.603 235.746 209.542C235.591 209.482 235.45 209.39 235.33 209.274C235.211 209.158 235.117 209.019 235.052 208.865C234.987 208.712 234.954 208.547 234.954 208.38C234.954 208.214 234.987 208.049 235.052 207.895C235.117 207.742 235.211 207.603 235.33 207.486C235.45 207.37 235.591 207.279 235.746 207.218C235.901 207.157 236.066 207.128 236.232 207.132H248.205C248.371 207.128 248.537 207.157 248.692 207.218C248.847 207.279 248.988 207.37 249.107 207.486C249.226 207.603 249.321 207.742 249.385 207.895C249.45 208.049 249.483 208.214 249.483 208.38C249.483 208.547 249.45 208.712 249.385 208.865C249.321 209.019 249.226 209.158 249.107 209.274C248.988 209.39 248.847 209.482 248.692 209.542C248.537 209.603 248.371 209.633 248.205 209.629V209.629Z" fill="#868C8F"/>
<path d="M235.9 163.83C235.211 162.413 234.893 160.844 234.977 159.271C235.061 157.698 235.543 156.172 236.379 154.836C237.215 153.501 238.377 152.401 239.755 151.64C241.133 150.878 242.682 150.481 244.257 150.484C245.831 150.487 247.378 150.892 248.753 151.659C250.128 152.426 251.285 153.531 252.115 154.87C252.945 156.209 253.421 157.737 253.499 159.31C253.576 160.884 253.251 162.451 252.556 163.865L235.9 163.83Z" fill="#F9FBFF"/>
<path d="M252.558 165.114L235.901 165.079C235.668 165.078 235.44 165.012 235.242 164.888C235.044 164.765 234.885 164.588 234.783 164.378C234.018 162.807 233.656 161.069 233.729 159.322C233.802 157.576 234.309 155.874 235.203 154.373C236.097 152.871 237.351 151.615 238.851 150.719C240.351 149.823 242.05 149.315 243.795 149.24C245.62 149.164 247.433 149.564 249.056 150.4C250.679 151.237 252.057 152.482 253.054 154.013C254.051 155.544 254.633 157.309 254.743 159.133C254.852 160.957 254.486 162.779 253.68 164.418C253.576 164.628 253.416 164.804 253.218 164.927C253.02 165.05 252.791 165.114 252.558 165.114V165.114ZM236.721 162.583L251.742 162.615C252.214 161.371 252.369 160.03 252.195 158.712C252.021 157.393 251.523 156.138 250.745 155.06C249.967 153.981 248.934 153.113 247.738 152.533C246.543 151.953 245.222 151.679 243.894 151.735C242.627 151.79 241.391 152.144 240.288 152.769C239.184 153.393 238.244 154.271 237.544 155.329C236.844 156.387 236.405 157.596 236.262 158.857C236.119 160.118 236.276 161.395 236.721 162.583V162.583Z" fill="#FF6B70"/>
<path d="M244.148 157.744C243.791 157.342 243.448 156.921 243.104 156.5C243.065 156.446 243.009 156.408 242.944 156.39C242.88 156.373 242.812 156.379 242.751 156.406C242.69 156.434 242.641 156.481 242.61 156.54C242.58 156.6 242.572 156.668 242.586 156.733C242.67 157.27 242.754 157.806 242.816 158.34C242.786 159.109 242.958 159.872 243.314 160.553C243.467 160.795 243.702 160.974 243.976 161.057C244.25 161.139 244.545 161.121 244.806 161.004C245.067 160.887 245.277 160.68 245.398 160.42C245.519 160.161 245.543 159.866 245.464 159.591C245.194 158.871 244.74 158.234 244.148 157.744Z" fill="#B5BDC2"/>
<path d="M244.298 161.152C245.027 161.152 245.617 160.56 245.617 159.83C245.617 159.101 245.027 158.509 244.298 158.509C243.569 158.509 242.978 159.101 242.978 159.83C242.978 160.56 243.569 161.152 244.298 161.152Z" fill="#B5BDC2"/>
<path d="M244.299 161.567C243.964 161.568 243.636 161.471 243.354 161.288C243.073 161.106 242.85 160.846 242.712 160.54C242.559 160.198 242.52 159.815 242.601 159.448C242.683 159.082 242.881 158.751 243.166 158.507C243.45 158.262 243.806 158.116 244.18 158.091C244.555 158.066 244.927 158.162 245.242 158.366C245.557 158.57 245.798 158.87 245.928 159.222C246.059 159.574 246.072 159.959 245.966 160.319C245.86 160.679 245.64 160.995 245.34 161.22C245.04 161.445 244.675 161.567 244.299 161.567ZM244.299 158.924C244.148 158.924 243.999 158.961 243.866 159.033C243.733 159.105 243.62 159.209 243.538 159.336C243.455 159.463 243.406 159.608 243.394 159.759C243.383 159.91 243.409 160.061 243.471 160.199V160.199C243.538 160.348 243.643 160.475 243.776 160.569C243.909 160.662 244.064 160.718 244.226 160.73C244.388 160.743 244.55 160.711 244.695 160.64C244.841 160.568 244.964 160.458 245.053 160.322C245.141 160.185 245.192 160.028 245.198 159.866C245.205 159.703 245.168 159.542 245.09 159.399C245.013 159.256 244.899 159.137 244.76 159.053C244.621 158.969 244.462 158.925 244.299 158.924V158.924Z" fill="#FF6B70"/>
<path d="M238.434 158.788C238.318 158.78 238.203 158.817 238.114 158.893C238.026 158.968 237.97 159.076 237.96 159.192L237.952 159.279C237.952 159.288 237.947 159.321 237.947 159.329C237.94 159.445 237.979 159.558 238.056 159.644C238.132 159.731 238.24 159.784 238.355 159.791C238.473 159.797 238.589 159.756 238.678 159.678C238.766 159.599 238.821 159.489 238.829 159.371L238.837 159.267C238.846 159.15 238.809 159.034 238.734 158.944C238.659 158.855 238.551 158.799 238.434 158.788ZM250.105 159.225C250.095 159.109 250.04 159.001 249.95 158.926C249.861 158.85 249.745 158.813 249.629 158.823C249.512 158.833 249.405 158.889 249.329 158.979C249.254 159.068 249.217 159.184 249.227 159.301L249.236 159.405C249.244 159.509 249.289 159.607 249.363 159.681C249.437 159.756 249.535 159.801 249.639 159.809C249.661 159.812 249.684 159.812 249.706 159.809C249.764 159.805 249.821 159.79 249.872 159.764C249.924 159.738 249.971 159.703 250.009 159.659C250.046 159.615 250.075 159.564 250.093 159.509C250.111 159.454 250.118 159.396 250.114 159.338L250.105 159.225ZM239.043 157.044C238.932 157 238.808 157.001 238.698 157.046C238.588 157.092 238.5 157.18 238.453 157.29L238.424 157.352C238.378 157.46 238.376 157.581 238.418 157.69C238.46 157.798 238.543 157.886 238.65 157.935C238.695 157.952 238.742 157.963 238.79 157.968C238.882 157.974 238.973 157.953 239.052 157.906C239.131 157.859 239.193 157.789 239.232 157.706L239.256 157.643L239.273 157.606C239.296 157.555 239.308 157.499 239.309 157.442C239.31 157.386 239.3 157.329 239.279 157.277C239.257 157.224 239.226 157.177 239.186 157.137C239.146 157.097 239.098 157.065 239.046 157.044H239.043ZM249.648 157.389L249.598 157.281C249.575 157.228 249.541 157.18 249.499 157.14C249.457 157.1 249.408 157.068 249.354 157.047C249.3 157.026 249.242 157.016 249.184 157.017C249.126 157.019 249.069 157.032 249.016 157.055C248.909 157.105 248.827 157.194 248.785 157.303C248.744 157.413 248.748 157.535 248.795 157.642L248.833 157.734C248.866 157.808 248.918 157.872 248.985 157.918C249.051 157.965 249.129 157.993 249.209 158C249.279 158.005 249.349 157.994 249.413 157.967C249.52 157.921 249.605 157.835 249.649 157.727C249.694 157.619 249.694 157.497 249.65 157.389H249.648ZM240.22 155.562C240.178 155.522 240.129 155.491 240.075 155.47C240.02 155.449 239.963 155.439 239.905 155.441C239.847 155.442 239.79 155.455 239.737 155.479C239.684 155.503 239.636 155.537 239.596 155.579L239.513 155.666C239.435 155.753 239.395 155.866 239.4 155.983C239.406 156.099 239.457 156.208 239.543 156.287C239.585 156.326 239.635 156.357 239.69 156.377C239.744 156.398 239.802 156.407 239.861 156.404C239.919 156.401 239.976 156.387 240.028 156.362C240.081 156.336 240.128 156.301 240.166 156.257L240.232 156.186C240.273 156.145 240.304 156.096 240.326 156.042C240.347 155.988 240.358 155.931 240.357 155.873C240.356 155.815 240.343 155.758 240.32 155.705C240.297 155.651 240.264 155.603 240.223 155.563L240.22 155.562ZM248.571 155.696L248.487 155.608C248.407 155.523 248.297 155.473 248.18 155.469C248.063 155.465 247.949 155.507 247.864 155.587C247.778 155.667 247.728 155.778 247.724 155.895C247.72 156.012 247.763 156.126 247.843 156.211L247.91 156.287C247.989 156.369 248.097 156.418 248.211 156.423C248.325 156.427 248.436 156.387 248.522 156.312C248.607 156.236 248.66 156.13 248.669 156.016C248.679 155.902 248.643 155.789 248.571 155.7V155.696ZM241.788 154.551C241.761 154.499 241.725 154.454 241.68 154.417C241.636 154.379 241.584 154.352 241.529 154.334C241.474 154.317 241.415 154.312 241.358 154.317C241.3 154.323 241.244 154.34 241.193 154.368L241.089 154.422C241.039 154.45 240.994 154.488 240.958 154.533C240.922 154.579 240.896 154.631 240.88 154.686C240.864 154.742 240.859 154.8 240.866 154.858C240.873 154.915 240.891 154.971 240.919 155.021C240.953 155.086 241.003 155.14 241.064 155.18C241.125 155.22 241.196 155.243 241.268 155.247C241.355 155.256 241.442 155.237 241.518 155.193L241.605 155.148C241.709 155.093 241.786 155 241.821 154.888C241.856 154.776 241.845 154.655 241.79 154.551H241.788ZM246.999 154.439L246.895 154.38C246.791 154.325 246.67 154.314 246.558 154.349C246.446 154.384 246.352 154.461 246.298 154.565C246.243 154.669 246.232 154.79 246.267 154.903C246.301 155.015 246.379 155.108 246.483 155.163L246.57 155.208C246.625 155.24 246.686 155.258 246.749 155.262C246.85 155.271 246.95 155.244 247.033 155.188C247.116 155.131 247.177 155.048 247.207 154.951C247.236 154.855 247.231 154.752 247.193 154.658C247.155 154.565 247.087 154.487 246.999 154.439V154.439ZM243.098 153.739L242.986 153.756C242.88 153.774 242.784 153.83 242.717 153.914C242.65 153.998 242.615 154.104 242.62 154.211C242.625 154.319 242.67 154.421 242.745 154.498C242.82 154.575 242.92 154.622 243.027 154.63C243.063 154.635 243.1 154.633 243.135 154.626L243.239 154.609C243.298 154.602 243.355 154.583 243.406 154.553C243.458 154.524 243.502 154.484 243.538 154.436C243.574 154.389 243.599 154.335 243.614 154.277C243.628 154.219 243.63 154.159 243.621 154.101C243.611 154.042 243.59 153.986 243.558 153.936C243.527 153.886 243.485 153.842 243.436 153.809C243.388 153.775 243.333 153.751 243.274 153.739C243.216 153.727 243.156 153.727 243.098 153.739ZM245.106 153.764L244.99 153.743C244.877 153.729 244.762 153.759 244.671 153.828C244.579 153.897 244.518 153.998 244.5 154.112C244.482 154.225 244.509 154.34 244.575 154.434C244.641 154.528 244.74 154.592 244.853 154.614L244.957 154.634C244.969 154.634 244.982 154.638 244.999 154.638C245.108 154.647 245.217 154.614 245.303 154.546C245.389 154.479 245.447 154.381 245.464 154.272C245.483 154.158 245.457 154.04 245.39 153.945C245.324 153.85 245.223 153.785 245.109 153.764H245.106Z" fill="#CD2026"/>
<g opacity="0.2">
<path d="M265.621 177.541H262.613C261.542 177.541 260.674 178.409 260.674 179.481V182.492C260.674 183.564 261.542 184.433 262.613 184.433H265.621C266.692 184.433 267.56 183.564 267.56 182.492V179.481C267.56 178.409 266.692 177.541 265.621 177.541Z" fill="#494C4E"/>
</g>
<path d="M266.503 176.659H263.495C262.424 176.659 261.556 177.528 261.556 178.6V181.61C261.556 182.682 262.424 183.551 263.495 183.551H266.503C267.574 183.551 268.442 182.682 268.442 181.61V178.6C268.442 177.528 267.574 176.659 266.503 176.659Z" fill="#F9FBFF"/>
<g opacity="0.2">
<path d="M265.621 190.694H262.613C261.542 190.694 260.674 191.563 260.674 192.635V195.646C260.674 196.718 261.542 197.587 262.613 197.587H265.621C266.692 197.587 267.56 196.718 267.56 195.646V192.635C267.56 191.563 266.692 190.694 265.621 190.694Z" fill="#494C4E"/>
</g>
<path d="M266.503 189.812H263.495C262.424 189.812 261.556 190.681 261.556 191.753V194.763C261.556 195.835 262.424 196.704 263.495 196.704H266.503C267.574 196.704 268.442 195.835 268.442 194.763V191.753C268.442 190.681 267.574 189.812 266.503 189.812Z" fill="#F9FBFF"/>
<g opacity="0.2">
<path d="M265.621 203.847H262.613C261.542 203.847 260.674 204.716 260.674 205.788V208.799C260.674 209.871 261.542 210.739 262.613 210.739H265.621C266.692 210.739 267.56 209.871 267.56 208.799V205.788C267.56 204.716 266.692 203.847 265.621 203.847Z" fill="#494C4E"/>
</g>
<path d="M266.503 202.966H263.495C262.424 202.966 261.556 203.834 261.556 204.906V207.917C261.556 208.989 262.424 209.858 263.495 209.858H266.503C267.574 209.858 268.442 208.989 268.442 207.917V204.906C268.442 203.834 267.574 202.966 266.503 202.966Z" fill="#F9FBFF"/>
<path d="M245.031 268.115H235.758C235.32 268.115 234.964 268.471 234.964 268.91V270.454C234.964 270.893 235.32 271.249 235.758 271.249H245.031C245.47 271.249 245.826 270.893 245.826 270.454V268.91C245.826 268.471 245.47 268.115 245.031 268.115Z" fill="white"/>
<path d="M245.031 276.551H235.758C235.32 276.551 234.964 276.907 234.964 277.346V278.89C234.964 279.329 235.32 279.685 235.758 279.685H245.031C245.47 279.685 245.826 279.329 245.826 278.89V277.346C245.826 276.907 245.47 276.551 245.031 276.551Z" fill="white"/>
<path d="M245.031 284.986H235.758C235.32 284.986 234.964 285.342 234.964 285.781V287.325C234.964 287.764 235.32 288.12 235.758 288.12H245.031C245.47 288.12 245.826 287.764 245.826 287.325V285.781C245.826 285.342 245.47 284.986 245.031 284.986Z" fill="white"/>
<g opacity="0.1">
<path d="M238.341 249.752C239.995 249.752 241.335 248.41 241.335 246.755C241.335 245.1 239.995 243.759 238.341 243.759C236.688 243.759 235.348 245.1 235.348 246.755C235.348 248.41 236.688 249.752 238.341 249.752Z" fill="#494C4E"/>
</g>
<path d="M239.223 248.869C240.877 248.869 242.217 247.528 242.217 245.873C242.217 244.218 240.877 242.876 239.223 242.876C237.57 242.876 236.229 244.218 236.229 245.873C236.229 247.528 237.57 248.869 239.223 248.869Z" fill="#FF6B70"/>
<g opacity="0.1">
<path d="M238.341 236.364C239.995 236.364 241.335 235.023 241.335 233.368C241.335 231.713 239.995 230.371 238.341 230.371C236.688 230.371 235.348 231.713 235.348 233.368C235.348 235.023 236.688 236.364 238.341 236.364Z" fill="#494C4E"/>
<path d="M250.814 236.364C252.468 236.364 253.808 235.023 253.808 233.368C253.808 231.713 252.468 230.371 250.814 230.371C249.161 230.371 247.82 231.713 247.82 233.368C247.82 235.023 249.161 236.364 250.814 236.364Z" fill="#494C4E"/>
<path d="M263.286 236.364C264.939 236.364 266.28 235.023 266.28 233.368C266.28 231.713 264.939 230.371 263.286 230.371C261.632 230.371 260.292 231.713 260.292 233.368C260.292 235.023 261.632 236.364 263.286 236.364Z" fill="#494C4E"/>
</g>
<path d="M239.223 235.482C240.877 235.482 242.217 234.14 242.217 232.485C242.217 230.83 240.877 229.489 239.223 229.489C237.57 229.489 236.229 230.83 236.229 232.485C236.229 234.14 237.57 235.482 239.223 235.482Z" fill="#B5BDC2"/>
<path d="M251.695 235.482C253.348 235.482 254.689 234.14 254.689 232.485C254.689 230.83 253.348 229.489 251.695 229.489C250.042 229.489 248.701 230.83 248.701 232.485C248.701 234.14 250.042 235.482 251.695 235.482Z" fill="#B5BDC2"/>
<path d="M264.167 235.482C265.82 235.482 267.161 234.14 267.161 232.485C267.161 230.83 265.82 229.489 264.167 229.489C262.513 229.489 261.173 230.83 261.173 232.485C261.173 234.14 262.513 235.482 264.167 235.482Z" fill="#B5BDC2"/>
<path d="M150.488 25.434C150.489 25.9906 150.455 26.5467 150.384 27.0988C149.519 33.9669 143.369 39.5485 135.314 41.0882C133.833 41.3693 132.329 41.5101 130.822 41.5088C125.471 41.5954 120.275 39.7078 116.225 36.206C113.531 33.8661 111.77 30.6329 111.264 27.0988C111.194 26.5467 111.159 25.9906 111.16 25.434H150.488Z" fill="#CDD5DC"/>
<path d="M130.822 42.3413C125.267 42.4155 119.876 40.4526 115.668 36.823C112.818 34.3554 110.96 30.9368 110.439 27.2018C110.364 26.6154 110.328 26.0248 110.328 25.4337V24.6009H151.32V25.4337C151.321 26.0259 151.284 26.6174 151.209 27.2048C150.305 34.3698 143.98 40.2785 135.472 41.9057C133.939 42.1964 132.382 42.3422 130.822 42.3413V42.3413ZM112.019 26.2658C112.035 26.5122 112.058 26.7549 112.089 26.9923C112.562 30.332 114.23 33.3864 116.783 35.5885C120.686 38.9424 125.679 40.752 130.822 40.6765C132.277 40.6769 133.728 40.5409 135.158 40.2702C142.959 38.7787 148.747 33.4436 149.559 26.9945C149.59 26.7554 149.613 26.5124 149.629 26.2658H112.019Z" fill="#F1F5FB"/>
<path d="M313.081 56.3058H189.474C188.271 56.2904 187.123 55.8012 186.277 54.9441C185.432 54.0871 184.958 52.9313 184.958 51.727C184.958 50.5227 185.432 49.3668 186.277 48.5098C187.123 47.6528 188.271 47.1636 189.474 47.1481H313.081C314.284 47.1636 315.433 47.6528 316.278 48.5098C317.124 49.3668 317.598 50.5227 317.598 51.727C317.598 52.9313 317.124 54.0871 316.278 54.9441C315.433 55.8012 314.284 56.2904 313.081 56.3058V56.3058Z" fill="#F1F5FB"/>
<path d="M363.387 56.3058H335.032C333.829 56.2904 332.68 55.8012 331.835 54.9441C330.99 54.0871 330.516 52.9313 330.516 51.727C330.516 50.5227 330.99 49.3668 331.835 48.5098C332.68 47.6528 333.829 47.1636 335.032 47.1481H363.387C364.59 47.1636 365.739 47.6528 366.584 48.5098C367.429 49.3668 367.903 50.5227 367.903 51.727C367.903 52.9313 367.429 54.0871 366.584 54.9441C365.739 55.8012 364.59 56.2904 363.387 56.3058V56.3058Z" fill="#F1F5FB"/>
<path d="M377.168 129.164H336.475C335.272 129.149 334.124 128.659 333.278 127.802C332.433 126.945 331.959 125.79 331.959 124.585C331.959 123.381 332.433 122.225 333.278 121.368C334.124 120.511 335.272 120.022 336.475 120.006H377.168C378.371 120.022 379.52 120.511 380.365 121.368C381.21 122.225 381.684 123.381 381.684 124.585C381.684 125.79 381.21 126.945 380.365 127.802C379.52 128.659 378.371 129.149 377.168 129.164V129.164Z" fill="#F1F5FB"/>
<path d="M394.298 80.9153H245.133C243.92 80.9153 242.756 80.4329 241.898 79.5743C241.041 78.7157 240.559 77.5511 240.559 76.3368C240.559 75.1225 241.041 73.958 241.898 73.0994C242.756 72.2407 243.92 71.7584 245.133 71.7584H394.298C395.512 71.7584 396.675 72.2407 397.533 73.0994C398.391 73.958 398.873 75.1225 398.873 76.3368C398.873 77.5511 398.391 78.7157 397.533 79.5743C396.675 80.4329 395.512 80.9153 394.298 80.9153V80.9153Z" fill="#F9FBFF"/>
<path d="M332.966 103.758H312.424C311.211 103.758 310.047 103.275 309.189 102.417C308.332 101.558 307.85 100.393 307.85 99.1791C307.85 97.9648 308.332 96.8003 309.189 95.9416C310.047 95.083 311.211 94.6006 312.424 94.6006H332.966C334.179 94.6006 335.343 95.083 336.201 95.9416C337.058 96.8003 337.54 97.9648 337.54 99.1791C337.54 100.393 337.058 101.558 336.201 102.417C335.343 103.275 334.179 103.758 332.966 103.758V103.758Z" fill="#F9FBFF"/>
<path d="M404.246 148.554H383.702C382.489 148.554 381.326 148.072 380.468 147.213C379.61 146.354 379.128 145.19 379.128 143.975C379.128 142.761 379.61 141.597 380.468 140.738C381.326 139.879 382.489 139.397 383.702 139.397H404.245C405.458 139.397 406.622 139.879 407.48 140.738C408.338 141.597 408.819 142.761 408.819 143.975C408.819 145.19 408.338 146.354 407.48 147.213C406.622 148.072 405.458 148.554 404.245 148.554H404.246Z" fill="#F9FBFF"/>
<path d="M425.241 103.758H355.224C354.011 103.758 352.847 103.275 351.989 102.417C351.131 101.558 350.649 100.393 350.649 99.1791C350.649 97.9648 351.131 96.8003 351.989 95.9416C352.847 95.083 354.011 94.6006 355.224 94.6006H425.241C426.454 94.6006 427.618 95.083 428.476 95.9416C429.334 96.8003 429.816 97.9648 429.816 99.1791C429.816 100.393 429.334 101.558 428.476 102.417C427.618 103.275 426.454 103.758 425.241 103.758V103.758Z" fill="#F1F5FB"/>
<g opacity="0.1">
<path d="M213.824 220.099H211.416V283.022H213.824V220.099Z" fill="#494C4E"/>
</g>
<path d="M445.426 28.157H46.5744C45.3612 28.157 44.1977 27.6746 43.3398 26.8159C42.4819 25.9573 42 24.7928 42 23.5785C42 22.3642 42.4819 21.1996 43.3398 20.341C44.1977 19.4824 45.3612 19 46.5744 19H445.428C446.641 19 447.805 19.4824 448.662 20.341C449.52 21.1996 450.002 22.3642 450.002 23.5785C450.002 24.7928 449.52 25.9573 448.662 26.8159C447.805 27.6746 446.641 28.157 445.428 28.157H445.426Z" fill="#E3E9F1"/>
</g>
<defs>
<clipPath id="clip0_338_1969">
<rect width="408" height="309" fill="white" transform="translate(42 19)"/>
</clipPath>
</defs>
</svg>
