<svg width="500" height="330" viewBox="0 0 500 330" fill="none" xmlns="http://www.w3.org/2000/svg">
<g clip-path="url(#clip0_338_1969)">
<path d="M140.481 79.1191L137.416 83.0479L133.939 87.5066L130.758 91.5854L130.272 92.2094L130.259 92.226L130.238 92.2094L129.51 91.5854L118.914 82.5159L118.245 81.9453L116.174 80.172L96.4951 63.3315L104.284 53.3455L130.637 72.1093L133.27 73.9829L135.578 75.6267L140.481 79.1191Z" fill="#E3E9F1"/>
<g opacity="0.1">
<path d="M150.664 88.5177C150.662 89.3314 150.338 90.1113 149.763 90.6863C149.188 91.2613 148.408 91.5845 147.595 91.5851H129.511L118.915 82.5156L118.245 81.945L116.178 80.1709C117.626 77.7158 119.689 75.6809 122.163 74.2667C124.636 72.8526 127.435 72.1082 130.284 72.1068H130.642L133.277 73.9804H135.943C138.274 73.9775 140.576 74.4933 142.683 75.4903C144.791 76.4873 146.65 77.9406 148.127 79.7451C149.79 82.3682 150.67 85.4115 150.664 88.5177V88.5177Z" fill="#494C4E"/>
</g>
<path d="M145.758 31.4138L139.313 36.088L135.307 38.9896L112.024 55.8723L109.949 57.3789L101.615 63.4187L99.0191 60.0966L98.6991 59.6851L97.9717 58.752L93.8213 53.4372L102.396 46.2149L118.448 32.6958L120.225 31.2058L131.037 22.0986L133.016 20.4338L135.536 18.3107L137.191 20.4338L138.493 22.0986L145.758 31.4138Z" fill="#E3E9F1"/>
<g opacity="0.1">
<path d="M154.384 22.0988C153.518 28.9669 147.368 34.5485 139.313 36.0882L135.308 38.9898C135.006 39.0019 134.709 39.0064 134.404 39.0064C127.962 39.0064 122.206 36.5419 118.447 32.696L120.223 31.206C117.529 28.8661 115.768 25.6329 115.262 22.0988H154.384Z" fill="#494C4E"/>
</g>
<path d="M268.771 131.036V254.476H198.704V131.085C198.704 128.958 199.368 126.884 200.605 125.155C201.842 123.426 203.589 122.127 205.601 121.442C206.658 121.077 207.768 120.891 208.887 120.892H222.225L268.771 131.036Z" fill="#868C8F"/>
<path d="M264.638 126.183L224.461 121.38L220.389 120.893H208.887C207.767 120.891 206.655 121.076 205.597 121.442C203.585 122.128 201.838 123.427 200.601 125.157C199.365 126.887 198.701 128.962 198.702 131.089V254.476H217.828L217.878 253.082V254.476H268.779V121.773C267.507 121.205 266.11 126.183 264.638 126.183ZM206.841 158.787C206.842 158.34 207.02 157.912 207.335 157.596C207.651 157.28 208.078 157.102 208.525 157.101H216.14C216.586 157.101 217.015 157.279 217.331 157.595C217.646 157.911 217.824 158.34 217.824 158.787V215.096H206.841V158.787Z" fill="#B5BDC2"/>
<path d="M435.407 254.474V254.728C433.545 255.252 431.619 255.517 429.684 255.515H287.851V272.194H422.158C423.759 272.194 425.302 272.791 426.487 273.869C427.672 274.946 428.413 276.427 428.566 278.022H77.1617C77.3149 276.427 78.0563 274.946 79.2412 273.869C80.4261 272.791 81.9695 272.194 83.5704 272.194H215.417V255.515H70.3164V254.474H435.407Z" fill="#9EA5A9"/>
<path d="M215.416 255.515V272.194H83.5736C81.9728 272.194 80.4293 272.791 79.2444 273.869C78.0595 274.946 77.3182 276.427 77.165 278.022C77.1446 278.226 77.1348 278.432 77.1356 278.637V319.587C77.1357 320.054 77.04 320.516 76.8543 320.945C76.6687 321.373 76.397 321.759 76.0563 322.078C75.7155 322.398 75.3129 322.643 74.8733 322.8C74.4338 322.958 73.9667 323.023 73.501 322.992C72.6245 322.915 71.8092 322.51 71.2191 321.857C70.6289 321.204 70.3076 320.351 70.3197 319.471V255.515H215.416Z" fill="#CDD5DC"/>
<path d="M435.412 254.728V319.587C435.412 320.054 435.316 320.516 435.13 320.945C434.945 321.373 434.673 321.759 434.332 322.078C433.991 322.398 433.589 322.643 433.149 322.8C432.71 322.958 432.243 323.023 431.777 322.992C430.9 322.915 430.085 322.51 429.495 321.857C428.905 321.204 428.584 320.351 428.596 319.471V278.637C428.596 278.429 428.587 278.225 428.567 278.022C428.414 276.427 427.672 274.946 426.488 273.869C425.303 272.791 423.759 272.194 422.158 272.194H287.852V255.515H429.685C431.62 255.517 433.545 255.252 435.408 254.728H435.412Z" fill="#CDD5DC"/>
<path d="M215.416 245.088L220.048 245.282V272.194H215.416V245.088Z" fill="#CDD5DC"/>
<path d="M429.684 214.162H70.3162C59.194 214.162 50.1777 223.186 50.1777 234.319C50.1777 245.451 59.194 254.475 70.3162 254.475H429.684C440.806 254.475 449.823 245.451 449.823 234.319C449.823 223.186 440.806 214.162 429.684 214.162Z" fill="#F9FBFF"/>
<path d="M217.874 253.437V254.477H227.211V253.437H217.874ZM217.824 254.477L217.861 253.437H217.824V254.477ZM429.685 213.125H70.3166C64.7128 213.116 59.3341 215.331 55.3589 219.285C51.3837 223.238 49.1362 228.607 49.1087 234.216C49.0812 239.825 51.276 245.216 55.2122 249.208C59.1485 253.2 64.5052 255.468 70.1088 255.514C70.1796 255.514 70.2466 255.514 70.3166 255.514H429.685C431.619 255.516 433.545 255.251 435.407 254.728V254.728C440.333 253.343 444.591 250.221 447.395 245.938C450.198 241.655 451.359 236.501 450.661 231.428C449.963 226.356 447.455 221.707 443.599 218.342C439.743 214.977 434.801 213.122 429.685 213.121V213.125ZM435.407 252.559C433.556 253.142 431.626 253.439 429.685 253.437H70.3166C70.2466 253.437 70.1758 253.437 70.1088 253.433C65.0676 253.37 60.2557 251.314 56.7227 247.714C53.1898 244.114 51.2225 239.262 51.2499 234.216C51.2774 229.17 53.2973 224.339 56.8692 220.778C60.441 217.217 65.275 215.214 70.3166 215.206H429.685C434.247 215.207 438.659 216.844 442.12 219.819C445.582 222.794 447.865 226.911 448.557 231.425C449.249 235.939 448.303 240.551 445.891 244.428C443.479 248.304 439.76 251.189 435.407 252.559V252.559ZM217.824 253.437V254.477L217.861 253.437H217.824ZM217.874 253.437V254.477H227.211V253.437H217.874Z" fill="#868C8F"/>
<path d="M70.1107 248.169C77.7534 248.169 83.949 241.968 83.949 234.319C83.949 226.669 77.7534 220.468 70.1107 220.468C62.4681 220.468 56.2725 226.669 56.2725 234.319C56.2725 241.968 62.4681 248.169 70.1107 248.169Z" fill="#CDD5DC"/>
<path d="M70.1107 240.193C73.3523 240.193 75.9802 237.563 75.9802 234.319C75.9802 231.074 73.3523 228.444 70.1107 228.444C66.8691 228.444 64.2412 231.074 64.2412 234.319C64.2412 237.563 66.8691 240.193 70.1107 240.193Z" fill="#E3E9F1"/>
<path d="M130.016 248.169C137.659 248.169 143.854 241.968 143.854 234.319C143.854 226.669 137.659 220.468 130.016 220.468C122.373 220.468 116.178 226.669 116.178 234.319C116.178 241.968 122.373 248.169 130.016 248.169Z" fill="#CDD5DC"/>
<path d="M130.016 240.193C133.258 240.193 135.885 237.563 135.885 234.319C135.885 231.074 133.258 228.444 130.016 228.444C126.774 228.444 124.146 231.074 124.146 234.319C124.146 237.563 126.774 240.193 130.016 240.193Z" fill="#E3E9F1"/>
<path d="M189.921 248.169C197.564 248.169 203.76 241.968 203.76 234.319C203.76 226.669 197.564 220.468 189.921 220.468C182.279 220.468 176.083 226.669 176.083 234.319C176.083 241.968 182.279 248.169 189.921 248.169Z" fill="#CDD5DC"/>
<path d="M189.921 240.193C193.163 240.193 195.791 237.563 195.791 234.319C195.791 231.074 193.163 228.444 189.921 228.444C186.68 228.444 184.052 231.074 184.052 234.319C184.052 237.563 186.68 240.193 189.921 240.193Z" fill="#E3E9F1"/>
<path d="M249.826 248.169C257.468 248.169 263.664 241.968 263.664 234.319C263.664 226.669 257.468 220.468 249.826 220.468C242.183 220.468 235.987 226.669 235.987 234.319C235.987 241.968 242.183 248.169 249.826 248.169Z" fill="#CDD5DC"/>
<path d="M249.826 240.193C253.067 240.193 255.695 237.563 255.695 234.319C255.695 231.074 253.067 228.444 249.826 228.444C246.584 228.444 243.956 231.074 243.956 234.319C243.956 237.563 246.584 240.193 249.826 240.193Z" fill="#E3E9F1"/>
<path d="M309.731 248.169C317.374 248.169 323.569 241.968 323.569 234.319C323.569 226.669 317.374 220.468 309.731 220.468C302.088 220.468 295.893 226.669 295.893 234.319C295.893 241.968 302.088 248.169 309.731 248.169Z" fill="#CDD5DC"/>
<path d="M309.731 240.193C312.972 240.193 315.6 237.563 315.6 234.319C315.6 231.074 312.972 228.444 309.731 228.444C306.489 228.444 303.861 231.074 303.861 234.319C303.861 237.563 306.489 240.193 309.731 240.193Z" fill="#E3E9F1"/>
<path d="M369.636 248.169C377.279 248.169 383.474 241.968 383.474 234.319C383.474 226.669 377.279 220.468 369.636 220.468C361.993 220.468 355.798 226.669 355.798 234.319C355.798 241.968 361.993 248.169 369.636 248.169Z" fill="#CDD5DC"/>
<path d="M369.636 240.193C372.878 240.193 375.506 237.563 375.506 234.319C375.506 231.074 372.878 228.444 369.636 228.444C366.394 228.444 363.767 231.074 363.767 234.319C363.767 237.563 366.394 240.193 369.636 240.193Z" fill="#E3E9F1"/>
<path d="M429.541 248.169C437.184 248.169 443.38 241.968 443.38 234.319C443.38 226.669 437.184 220.468 429.541 220.468C421.899 220.468 415.703 226.669 415.703 234.319C415.703 241.968 421.899 248.169 429.541 248.169Z" fill="#CDD5DC"/>
<path d="M429.541 240.193C432.783 240.193 435.411 237.563 435.411 234.319C435.411 231.074 432.783 228.444 429.541 228.444C426.3 228.444 423.672 231.074 423.672 234.319C423.672 237.563 426.3 240.193 429.541 240.193Z" fill="#E3E9F1"/>
<path d="M264.636 120.892H214.216C213.097 120.891 211.987 121.077 210.93 121.442C212.941 122.128 214.687 123.426 215.923 125.155C217.16 126.885 217.824 128.958 217.822 131.085V254.476L217.871 253.08V254.476H274.813V131.085C274.813 128.382 273.741 125.791 271.833 123.879C269.924 121.968 267.336 120.894 264.636 120.892V120.892Z" fill="#B5BDC2"/>
<path d="M277.667 120.892H217.032C217.315 120.892 217.595 120.905 217.873 120.929C219.41 121.052 220.898 121.527 222.223 122.317C223.745 123.218 225.006 124.5 225.881 126.038C226.757 127.575 227.216 129.315 227.215 131.085V254.476V254.456V254.475H287.849V131.084C287.849 129.746 287.586 128.42 287.074 127.184C286.563 125.947 285.813 124.824 284.867 123.877C283.922 122.931 282.799 122.18 281.564 121.668C280.329 121.156 279.005 120.892 277.667 120.892Z" fill="#E3E9F1"/>
<g opacity="0.1">
<path d="M254.735 148.474C253.704 147.467 252.477 146.682 251.131 146.169C249.784 145.655 248.347 145.424 246.908 145.489C245.15 145.564 243.438 146.075 241.927 146.978C240.416 147.88 239.153 149.145 238.252 150.658C237.352 152.171 236.842 153.885 236.768 155.645C236.695 157.404 237.06 159.155 237.831 160.738C237.939 160.96 238.108 161.147 238.317 161.278C238.527 161.41 238.769 161.479 239.016 161.48L255.672 161.515C255.919 161.515 256.16 161.446 256.37 161.316C256.579 161.186 256.748 161 256.857 160.778C257.847 158.766 258.174 156.492 257.793 154.282C257.411 152.072 256.339 150.04 254.732 148.478L254.735 148.474Z" fill="#494C4E"/>
</g>
<path d="M152.832 147.176C151.971 147.175 151.128 146.929 150.403 146.465C149.678 146.001 149.101 145.339 148.739 144.558C148.377 143.776 148.246 142.907 148.361 142.054C148.477 141.2 148.834 140.397 149.39 139.74L162.425 116.385C162.572 116.134 162.624 115.839 162.572 115.553C162.521 115.267 162.368 115.009 162.142 114.825L144.109 102.541C143.655 102.16 143.279 101.694 143.005 101.168C142.731 100.642 142.562 100.067 142.51 99.4766C142.457 98.8858 142.522 98.2904 142.699 97.7244C142.877 97.1585 143.164 96.633 143.544 96.1781C143.924 95.7232 144.39 95.3477 144.916 95.073C145.441 94.7984 146.015 94.63 146.605 94.5775C147.196 94.525 147.791 94.5893 148.356 94.7669C148.921 94.9445 149.446 95.2318 149.901 95.6125L168.991 108.509C170.979 110.156 172.239 112.52 172.498 115.09C172.757 117.66 171.994 120.229 170.374 122.239C170.346 122.275 170.317 122.309 170.289 122.343L156.278 142.703C155.385 143.758 154.112 147.176 152.832 147.176Z" fill="#B5BDC2"/>
<path d="M157.754 140.195C156.894 140.194 156.051 139.948 155.326 139.484C154.601 139.02 154.024 138.358 153.662 137.576C153.3 136.795 153.169 135.926 153.284 135.072C153.4 134.219 153.756 133.416 154.312 132.759L164.886 115.944C165.033 115.693 165.086 115.398 165.034 115.111C164.982 114.825 164.829 114.567 164.603 114.384L146.16 101.657C144.249 100.056 143.995 98.0887 145.595 96.1752C147.195 94.2616 148.81 89.0817 150.721 90.6825L171.041 107.188C175.183 110.66 175.791 118.013 172.425 122.241C172.397 122.277 172.368 122.311 172.339 122.345L161.201 138.598C160.777 139.099 160.249 139.502 159.654 139.778C159.059 140.054 158.41 140.196 157.754 140.195V140.195Z" fill="#E3E9F1"/>
<path d="M151.834 116.057V153.223H109.928C109.484 153.223 109.058 153.046 108.745 152.732C108.431 152.418 108.254 151.992 108.254 151.548V117.732C108.254 117.512 108.297 117.294 108.381 117.091C108.465 116.887 108.589 116.703 108.744 116.547C108.899 116.392 109.084 116.268 109.287 116.184C109.49 116.1 109.708 116.057 109.928 116.057H151.834Z" fill="#FAD39E"/>
<path d="M117.363 116.055H158.002C158.215 116.055 158.427 116.097 158.625 116.179C158.822 116.261 159.002 116.381 159.153 116.532C159.304 116.684 159.424 116.863 159.506 117.061C159.587 117.259 159.63 117.471 159.63 117.685V151.594C159.63 151.808 159.587 152.02 159.506 152.217C159.424 152.415 159.304 152.595 159.153 152.746C159.002 152.897 158.822 153.017 158.625 153.099C158.427 153.181 158.215 153.223 158.002 153.223H117.363V116.055Z" fill="#FAEAD4"/>
<path d="M113.376 177.784V213.343H102.818C102.232 213.343 101.67 213.11 101.255 212.695C100.841 212.281 100.608 211.718 100.608 211.132V178.197L113.376 177.784Z" fill="#DEB881"/>
<g opacity="0.1">
<path d="M111.553 180.657L111.558 180.661L111.482 180.657H111.553Z" fill="#6E7376"/>
</g>
<path d="M172.717 177.784V211.129C172.717 211.716 172.484 212.278 172.07 212.693C171.655 213.108 171.094 213.341 170.508 213.341H113.376V177.784H172.717Z" fill="#FAD39E"/>
<path d="M183.494 163.631H127.058C126.715 163.631 126.375 163.703 126.062 163.842C125.748 163.981 125.467 164.185 125.237 164.44L113.572 177.351L113.375 177.782H172.716L184.096 164.99C184.201 164.873 184.269 164.728 184.294 164.573C184.318 164.418 184.297 164.259 184.233 164.116C184.17 163.972 184.066 163.85 183.935 163.764C183.804 163.678 183.651 163.632 183.494 163.631Z" fill="#FAE5C8"/>
<path d="M113.375 177.782L100.608 178.193L90.9291 166.303C90.8319 166.183 90.7704 166.039 90.752 165.885C90.7335 165.732 90.7587 165.577 90.8248 165.438C90.8908 165.298 90.9949 165.18 91.125 165.098C91.2551 165.015 91.406 164.971 91.5601 164.971L102.177 164.956C102.551 164.955 102.92 165.04 103.256 165.204C103.592 165.368 103.887 165.606 104.117 165.901L113.375 177.782Z" fill="#FAD39E"/>
<g opacity="0.1">
<path d="M112.732 141.012C111.936 141.795 110.866 142.238 109.75 142.248C109.238 142.247 108.73 142.152 108.252 141.968V126.989L113.269 133.674C114.065 134.762 114.448 136.097 114.35 137.442C114.251 138.786 113.678 140.052 112.732 141.012V141.012Z" fill="#494C4E"/>
</g>
<path d="M124.401 93.3168C123.522 92.2617 122.286 87.9236 120.922 87.8023C119.558 87.6809 118.228 87.6877 117.176 88.568C117.176 88.568 97.2641 105.676 94.4276 108.766C92.6475 110.62 91.6041 113.061 91.4932 115.63C91.3823 118.2 92.2115 120.721 93.8252 122.722L93.8426 122.741L105.503 137.525C107.209 139.202 108.181 139.992 109.72 139.992H110.154C111.181 140.09 112.207 139.803 113.034 139.185C113.556 138.707 113.94 138.097 114.147 137.42C114.354 136.742 114.375 136.022 114.208 135.333C113.942 133.933 113.319 132.624 112.401 131.534L101.75 116.201C101.72 116.155 101.709 116.1 101.718 116.046C101.727 115.992 101.756 115.944 101.799 115.91L123.758 100.547C124.8 99.6729 125.453 98.4205 125.573 97.065C125.694 95.7095 125.272 94.3615 124.401 93.3168V93.3168Z" fill="#B5BDC2"/>
<path d="M110.128 140.195C109.472 140.196 108.823 140.053 108.228 139.777C107.633 139.501 107.105 139.098 106.682 138.596L95.5458 122.343C95.5164 122.309 95.4886 122.275 95.46 122.239C93.8393 120.229 93.0752 117.661 93.3334 115.09C93.5916 112.52 94.8513 110.156 96.8394 108.508L116.75 91.5014C118.662 89.9007 120.688 94.2606 122.287 96.1741C123.055 97.093 123.427 98.2796 123.321 99.4729C123.215 100.666 122.64 101.768 121.722 102.537L102.632 115.438C102.468 115.574 102.362 115.768 102.336 115.98C102.31 116.192 102.366 116.406 102.492 116.579L113.569 132.758C114.125 133.416 114.482 134.218 114.597 135.072C114.712 135.925 114.582 136.794 114.22 137.576C113.858 138.357 113.281 139.019 112.556 139.483C111.831 139.947 110.989 140.194 110.128 140.195V140.195Z" fill="#E3E9F1"/>
<path d="M116.178 91.3884H151.705V102.218C151.705 103.173 151.326 104.089 150.651 104.765C149.976 105.441 149.061 105.82 148.106 105.82H119.776C118.821 105.82 117.906 105.441 117.231 104.765C116.556 104.089 116.177 103.173 116.177 102.218V91.3884H116.178Z" fill="#B5BDC2"/>
<path d="M116.178 90.5677H151.705V101.397C151.705 102.352 151.326 103.269 150.651 103.944C149.976 104.62 149.061 105 148.106 105H119.776C118.821 105 117.906 104.62 117.231 103.944C116.556 103.269 116.177 102.352 116.177 101.397V90.5677H116.178Z" fill="#CDD5DC"/>
<path d="M131.944 75.6256H135.935C140.117 75.6256 144.127 77.2883 147.084 80.2479C150.041 83.2075 151.702 87.2216 151.702 91.4072V91.4072C151.702 92.0558 151.445 92.6779 150.987 93.1365C150.528 93.5951 149.907 93.8528 149.259 93.8528H118.62C118.299 93.8528 117.982 93.7895 117.685 93.6666C117.389 93.5437 117.119 93.3636 116.892 93.1365C116.666 92.9094 116.486 92.6398 116.363 92.3431C116.24 92.0464 116.177 91.7283 116.177 91.4072V91.4072C116.177 87.2216 117.838 83.2075 120.795 80.2479C123.752 77.2883 127.762 75.6256 131.944 75.6256V75.6256Z" fill="#B5BDC2"/>
<path d="M151.706 89.766C151.705 89.9179 151.69 90.0694 151.66 90.2182C151.572 90.7012 151.338 91.1457 150.99 91.4919C150.763 91.7195 150.493 91.8998 150.196 92.0227C149.899 92.1455 149.58 92.2085 149.259 92.2079H118.62C118.051 92.2086 117.5 92.0099 117.063 91.6465C116.625 91.283 116.329 90.7777 116.225 90.2182C116.194 90.0694 116.179 89.9179 116.179 89.766C116.178 87.6936 116.586 85.6414 117.378 83.7266C118.17 81.8118 119.331 80.072 120.795 78.6064C122.259 77.1408 123.997 75.9781 125.91 75.1848C127.823 74.3915 129.873 73.9831 131.944 73.9829H135.935C140.117 73.9831 144.128 75.646 147.085 78.6059C150.042 81.5657 151.704 85.5801 151.704 89.766H151.706Z" fill="#9EA5A9"/>
<path d="M149.26 92.8327H118.619C117.904 92.8344 117.211 92.585 116.661 92.128C116.11 91.6709 115.738 91.0351 115.607 90.3313C115.57 90.1447 115.552 89.9548 115.552 89.7645C115.552 87.61 115.975 85.4765 116.799 83.4858C117.623 81.4952 118.83 79.6865 120.352 78.163C121.874 76.6395 123.682 75.431 125.67 74.6066C127.659 73.7822 129.791 73.3579 131.943 73.3581H135.934C140.282 73.3585 144.451 75.0874 147.525 78.1643C150.6 81.2413 152.327 85.4145 152.327 89.766C152.327 89.9599 152.308 90.1533 152.269 90.3433C152.157 90.9469 151.865 91.5021 151.43 91.9351C150.854 92.5102 150.074 92.833 149.26 92.8327V92.8327ZM131.942 74.6055C129.952 74.6008 127.982 74.9911 126.144 75.7537C124.306 76.5163 122.638 77.6361 121.235 79.0483C119.827 80.4545 118.711 82.1252 117.95 83.9645C117.189 85.8038 116.799 87.7753 116.802 89.766C116.802 89.8772 116.814 89.988 116.836 90.0969C116.911 90.5152 117.131 90.8937 117.457 91.1659C117.783 91.4381 118.195 91.5866 118.619 91.5854H149.26C149.744 91.5851 150.209 91.3927 150.551 91.0503C150.885 90.707 151.075 90.2484 151.082 89.7691C151.082 85.7482 149.486 81.8918 146.646 79.0484C143.806 76.205 139.953 74.6074 135.936 74.607L131.942 74.6055Z" fill="#F1F5FB"/>
<path d="M133.941 87.5058C135.921 87.5058 137.526 85.8994 137.526 83.9177C137.526 81.936 135.921 80.3295 133.941 80.3295C131.961 80.3295 130.356 81.936 130.356 83.9177C130.356 85.8994 131.961 87.5058 133.941 87.5058Z" fill="#B5BDC2"/>
<path d="M133.942 88.1304C133.109 88.1304 132.295 87.8833 131.603 87.4203C130.911 86.9574 130.371 86.2994 130.053 85.5296C129.734 84.7598 129.651 83.9127 129.813 83.0955C129.976 82.2783 130.377 81.5276 130.965 80.9384C131.554 80.3492 132.304 79.948 133.12 79.7854C133.937 79.6228 134.783 79.7063 135.552 80.0251C136.321 80.344 136.979 80.884 137.441 81.5768C137.904 82.2696 138.151 83.0842 138.151 83.9174C138.149 85.0341 137.705 86.1046 136.916 86.8942C136.127 87.6839 135.057 88.1284 133.942 88.1304V88.1304ZM133.942 80.954C133.356 80.954 132.783 81.1279 132.296 81.4536C131.809 81.7794 131.43 82.2423 131.205 82.784C130.981 83.3257 130.923 83.9217 131.037 84.4967C131.151 85.0717 131.434 85.5999 131.848 86.0144C132.262 86.4289 132.79 86.7111 133.364 86.8254C133.939 86.9397 134.534 86.8809 135.075 86.6565C135.617 86.432 136.079 86.0519 136.404 85.5644C136.73 85.0768 136.903 84.5037 136.903 83.9174C136.902 83.1316 136.59 82.3784 136.035 81.8228C135.479 81.2673 134.727 80.9548 133.942 80.954Z" fill="#F1F5FB"/>
<path d="M145.681 100.772C146.628 100.772 147.396 100.003 147.396 99.0556C147.396 98.1079 146.628 97.3396 145.681 97.3396C144.734 97.3396 143.967 98.1079 143.967 99.0556C143.967 100.003 144.734 100.772 145.681 100.772Z" fill="#FAE5C8"/>
<path d="M133.941 100.772C134.888 100.772 135.656 100.003 135.656 99.0556C135.656 98.1079 134.888 97.3396 133.941 97.3396C132.994 97.3396 132.227 98.1079 132.227 99.0556C132.227 100.003 132.994 100.772 133.941 100.772Z" fill="#FAE5C8"/>
<path d="M122.201 100.772C123.148 100.772 123.915 100.003 123.915 99.0556C123.915 98.1079 123.148 97.3396 122.201 97.3396C121.254 97.3396 120.486 98.1079 120.486 99.0556C120.486 100.003 121.254 100.772 122.201 100.772Z" fill="#FAE5C8"/>
<path d="M331.667 177.784V213.343H321.11C320.819 213.343 320.532 213.286 320.264 213.175C319.996 213.064 319.752 212.901 319.547 212.696C319.342 212.49 319.179 212.246 319.068 211.978C318.957 211.71 318.9 211.422 318.9 211.132V180.058C318.9 179.558 319.094 179.078 319.441 178.72C319.789 178.361 320.262 178.151 320.76 178.135L331.667 177.784Z" fill="#DEB881"/>
<g opacity="0.1">
<path d="M329.846 180.657L329.85 180.661L329.774 180.657H329.846Z" fill="#6E7376"/>
</g>
<path d="M391.008 179.707V211.129C391.008 211.42 390.951 211.707 390.84 211.976C390.729 212.244 390.566 212.488 390.361 212.693C390.156 212.899 389.912 213.061 389.644 213.173C389.376 213.284 389.089 213.341 388.799 213.341H331.667V177.784H389.086C389.596 177.784 390.085 177.986 390.445 178.347C390.805 178.708 391.008 179.197 391.008 179.707Z" fill="#FADAAF"/>
<path d="M360.228 199.976C360.37 200.133 360.543 200.258 360.736 200.344C360.929 200.429 361.137 200.474 361.348 200.474H361.357H361.367C361.546 200.472 361.723 200.437 361.889 200.373C361.909 200.365 361.93 200.361 361.95 200.352C362.112 200.281 362.261 200.182 362.39 200.06C362.403 200.047 362.422 200.043 362.435 200.029L367.304 195.157C367.584 194.869 367.739 194.483 367.736 194.082C367.733 193.681 367.573 193.297 367.29 193.014C367.007 192.73 366.623 192.569 366.222 192.566C365.822 192.564 365.436 192.719 365.149 192.998L362.873 195.276V187.718C362.873 187.313 362.713 186.925 362.427 186.639C362.141 186.353 361.753 186.192 361.348 186.192C360.944 186.192 360.556 186.353 360.27 186.639C359.984 186.925 359.824 187.313 359.824 187.718V195.255L357.547 192.976C357.405 192.834 357.237 192.721 357.052 192.645C356.867 192.568 356.669 192.529 356.469 192.529C356.269 192.529 356.07 192.568 355.885 192.645C355.7 192.721 355.532 192.834 355.391 192.976C355.249 193.117 355.137 193.285 355.06 193.471C354.984 193.656 354.944 193.854 354.944 194.054C354.944 194.255 354.984 194.453 355.06 194.638C355.137 194.823 355.249 194.992 355.391 195.133L360.228 199.976Z" fill="#FF6B70"/>
<path d="M368.727 198.491C368.527 198.491 368.329 198.531 368.144 198.607C367.959 198.684 367.791 198.796 367.649 198.938C367.507 199.08 367.395 199.248 367.318 199.433C367.242 199.618 367.202 199.817 367.202 200.017V202.561H355.499V200.017C355.499 199.612 355.338 199.224 355.052 198.938C354.766 198.652 354.378 198.491 353.974 198.491C353.57 198.491 353.182 198.652 352.896 198.938C352.61 199.224 352.449 199.612 352.449 200.017V204.087C352.449 204.492 352.61 204.88 352.896 205.166C353.182 205.452 353.57 205.613 353.974 205.613H368.727C369.132 205.613 369.519 205.452 369.805 205.166C370.091 204.88 370.252 204.492 370.252 204.087V200.017C370.252 199.817 370.212 199.618 370.136 199.433C370.059 199.248 369.947 199.08 369.805 198.938C369.664 198.796 369.496 198.684 369.311 198.607C369.126 198.531 368.927 198.491 368.727 198.491V198.491Z" fill="#FF6B70"/>
<path d="M217.825 236.098H279.561V323H223.553C222.034 323 220.578 322.396 219.504 321.322C218.43 320.247 217.827 318.789 217.827 317.269V236.1L217.825 236.098Z" fill="#B5BDC2"/>
<path d="M287.851 236.098V317.272C287.85 318.792 287.246 320.248 286.172 321.322C285.098 322.396 283.643 322.999 282.125 323H227.214V236.098H287.851Z" fill="#E3E9F1"/>
<path d="M101.479 67.3549C107.323 67.3549 112.061 62.613 112.061 56.7637C112.061 50.9144 107.323 46.1725 101.479 46.1725C95.635 46.1725 90.8975 50.9144 90.8975 56.7637C90.8975 62.613 95.635 67.3549 101.479 67.3549Z" fill="#9EA5A9"/>
<path d="M101.479 67.9796C99.263 67.9796 97.0964 67.3218 95.2537 66.0893C93.4109 64.8569 91.9746 63.1052 91.1264 61.0558C90.2783 59.0063 90.0564 56.7512 90.4888 54.5755C90.9211 52.3998 91.9884 50.4013 93.5556 48.8328C95.1227 47.2642 97.1194 46.196 99.2931 45.7632C101.467 45.3304 103.72 45.5525 105.768 46.4014C107.815 47.2504 109.565 48.6879 110.797 50.5324C112.028 52.3768 112.685 54.5453 112.685 56.7636C112.682 59.7372 111.5 62.5879 109.399 64.6905C107.298 66.7932 104.45 67.976 101.479 67.9796ZM101.479 46.7972C99.5096 46.7966 97.584 47.3807 95.9459 48.4756C94.3079 49.5705 93.0311 51.127 92.2769 52.9482C91.5228 54.7695 91.3252 56.7736 91.7091 58.7073C92.0931 60.641 93.0414 62.4172 94.434 63.8114C95.8266 65.2056 97.6011 66.1551 99.5329 66.5399C101.465 66.9246 103.467 66.7273 105.287 65.9729C107.107 65.2185 108.662 63.9408 109.756 62.3016C110.851 60.6623 111.435 58.7351 111.434 56.7636C111.431 54.1217 110.382 51.5888 108.515 49.7204C106.649 47.8521 104.119 46.8008 101.479 46.7972V46.7972Z" fill="#F1F5FB"/>
<path d="M101.479 60.7999C103.707 60.7999 105.512 58.9927 105.512 56.7633C105.512 54.534 103.707 52.7267 101.479 52.7267C99.2519 52.7267 97.4463 54.534 97.4463 56.7633C97.4463 58.9927 99.2519 60.7999 101.479 60.7999Z" fill="#F1F5FB"/>
<path d="M252.205 175.091H240.233C240.069 175.091 239.907 175.058 239.756 174.995C239.604 174.933 239.467 174.841 239.351 174.725C239.235 174.609 239.143 174.471 239.08 174.32C239.018 174.168 238.985 174.006 238.985 173.842C238.985 173.678 239.018 173.515 239.08 173.364C239.143 173.212 239.235 173.075 239.351 172.959C239.467 172.843 239.604 172.751 239.756 172.688C239.907 172.625 240.069 172.593 240.233 172.593H252.205C252.536 172.593 252.854 172.724 253.088 172.959C253.322 173.193 253.453 173.51 253.453 173.842C253.453 174.173 253.322 174.491 253.088 174.725C252.854 174.959 252.536 175.091 252.205 175.091V175.091Z" fill="#868C8F"/>
<path d="M252.205 182.475H240.233C240.069 182.475 239.907 182.442 239.756 182.38C239.604 182.317 239.467 182.225 239.351 182.109C239.235 181.993 239.143 181.855 239.08 181.704C239.018 181.552 238.985 181.39 238.985 181.226C238.985 181.062 239.018 180.9 239.08 180.748C239.143 180.597 239.235 180.459 239.351 180.343C239.467 180.227 239.604 180.135 239.756 180.072C239.907 180.009 240.069 179.977 240.233 179.977H252.205C252.536 179.977 252.854 180.109 253.088 180.343C253.322 180.577 253.453 180.895 253.453 181.226C253.453 181.557 253.322 181.875 253.088 182.109C252.854 182.343 252.536 182.475 252.205 182.475V182.475Z" fill="#868C8F"/>
<path d="M252.205 189.86H240.233C239.902 189.86 239.585 189.729 239.351 189.495C239.117 189.26 238.985 188.943 238.985 188.612C238.985 188.28 239.117 187.963 239.351 187.729C239.585 187.494 239.902 187.363 240.233 187.363H252.205C252.536 187.363 252.854 187.494 253.088 187.729C253.322 187.963 253.453 188.28 253.453 188.612C253.453 188.943 253.322 189.26 253.088 189.495C252.854 189.729 252.536 189.86 252.205 189.86V189.86Z" fill="#868C8F"/>
<path d="M252.205 197.245H240.233C239.902 197.245 239.585 197.113 239.351 196.879C239.117 196.645 238.985 196.327 238.985 195.996C238.985 195.665 239.117 195.347 239.351 195.113C239.585 194.878 239.902 194.747 240.233 194.747H252.205C252.536 194.747 252.854 194.878 253.088 195.113C253.322 195.347 253.453 195.665 253.453 195.996C253.453 196.327 253.322 196.645 253.088 196.879C252.854 197.113 252.536 197.245 252.205 197.245V197.245Z" fill="#868C8F"/>
<path d="M252.205 204.629H240.232C240.066 204.633 239.901 204.603 239.746 204.542C239.591 204.482 239.45 204.39 239.33 204.274C239.211 204.158 239.117 204.019 239.052 203.865C238.987 203.712 238.954 203.547 238.954 203.38C238.954 203.214 238.987 203.049 239.052 202.895C239.117 202.742 239.211 202.603 239.33 202.486C239.45 202.37 239.591 202.279 239.746 202.218C239.901 202.157 240.066 202.128 240.232 202.132H252.205C252.371 202.128 252.537 202.157 252.692 202.218C252.847 202.279 252.988 202.37 253.107 202.486C253.226 202.603 253.321 202.742 253.385 202.895C253.45 203.049 253.483 203.214 253.483 203.38C253.483 203.547 253.45 203.712 253.385 203.865C253.321 204.019 253.226 204.158 253.107 204.274C252.988 204.39 252.847 204.482 252.692 204.542C252.537 204.603 252.371 204.633 252.205 204.629V204.629Z" fill="#868C8F"/>
<path d="M239.9 158.83C239.211 157.413 238.893 155.844 238.977 154.271C239.061 152.698 239.543 151.172 240.379 149.836C241.215 148.501 242.377 147.401 243.755 146.64C245.133 145.878 246.682 145.481 248.257 145.484C249.831 145.487 251.378 145.892 252.753 146.659C254.128 147.426 255.285 148.531 256.115 149.87C256.945 151.209 257.421 152.737 257.499 154.31C257.576 155.884 257.251 157.451 256.556 158.865L239.9 158.83Z" fill="#F9FBFF"/>
<path d="M256.558 160.114L239.901 160.079C239.668 160.078 239.44 160.012 239.242 159.888C239.044 159.765 238.885 159.588 238.783 159.378C238.018 157.807 237.656 156.069 237.729 154.322C237.802 152.576 238.309 150.874 239.203 149.373C240.097 147.871 241.351 146.615 242.851 145.719C244.351 144.823 246.05 144.315 247.795 144.24C249.62 144.164 251.433 144.564 253.056 145.4C254.679 146.237 256.057 147.482 257.054 149.013C258.051 150.544 258.633 152.309 258.743 154.133C258.852 155.957 258.486 157.779 257.68 159.418C257.576 159.628 257.416 159.804 257.218 159.927C257.02 160.05 256.791 160.114 256.558 160.114V160.114ZM240.721 157.583L255.742 157.615C256.214 156.371 256.369 155.03 256.195 153.712C256.021 152.393 255.523 151.138 254.745 150.06C253.967 148.981 252.934 148.113 251.738 147.533C250.543 146.953 249.222 146.679 247.894 146.735C246.627 146.79 245.391 147.144 244.288 147.769C243.184 148.393 242.244 149.271 241.544 150.329C240.844 151.387 240.405 152.596 240.262 153.857C240.119 155.118 240.276 156.395 240.721 157.583V157.583Z" fill="#FF6B70"/>
<path d="M248.148 152.744C247.791 152.342 247.448 151.921 247.104 151.5C247.065 151.446 247.009 151.408 246.944 151.39C246.88 151.373 246.812 151.379 246.751 151.406C246.69 151.434 246.641 151.481 246.61 151.54C246.58 151.6 246.572 151.668 246.586 151.733C246.67 152.27 246.754 152.806 246.816 153.34C246.786 154.109 246.958 154.872 247.314 155.553C247.467 155.795 247.702 155.974 247.976 156.057C248.25 156.139 248.545 156.121 248.806 156.004C249.067 155.887 249.277 155.68 249.398 155.42C249.519 155.161 249.543 154.866 249.464 154.591C249.194 153.871 248.74 153.234 248.148 152.744Z" fill="#B5BDC2"/>
<path d="M248.298 156.152C249.027 156.152 249.617 155.56 249.617 154.83C249.617 154.101 249.027 153.509 248.298 153.509C247.569 153.509 246.978 154.101 246.978 154.83C246.978 155.56 247.569 156.152 248.298 156.152Z" fill="#B5BDC2"/>
<path d="M248.299 156.567C247.964 156.568 247.636 156.471 247.354 156.288C247.073 156.106 246.85 155.846 246.712 155.54C246.559 155.198 246.52 154.815 246.601 154.448C246.683 154.082 246.881 153.751 247.166 153.507C247.45 153.262 247.806 153.116 248.18 153.091C248.555 153.066 248.927 153.162 249.242 153.366C249.557 153.57 249.798 153.87 249.928 154.222C250.059 154.574 250.072 154.959 249.966 155.319C249.86 155.679 249.64 155.995 249.34 156.22C249.04 156.445 248.675 156.567 248.299 156.567ZM248.299 153.924C248.148 153.924 247.999 153.961 247.866 154.033C247.733 154.105 247.62 154.209 247.538 154.336C247.455 154.463 247.406 154.608 247.394 154.759C247.383 154.91 247.409 155.061 247.471 155.199V155.199C247.538 155.348 247.643 155.475 247.776 155.569C247.909 155.662 248.064 155.718 248.226 155.73C248.388 155.743 248.55 155.711 248.695 155.64C248.841 155.568 248.964 155.458 249.053 155.322C249.141 155.185 249.192 155.028 249.198 154.866C249.205 154.703 249.168 154.542 249.09 154.399C249.013 154.256 248.899 154.137 248.76 154.053C248.621 153.969 248.462 153.925 248.299 153.924V153.924Z" fill="#FF6B70"/>
<path d="M242.434 153.788C242.318 153.78 242.203 153.817 242.114 153.893C242.026 153.968 241.97 154.076 241.96 154.192L241.952 154.279C241.952 154.288 241.947 154.321 241.947 154.329C241.94 154.445 241.979 154.558 242.056 154.644C242.132 154.731 242.24 154.784 242.355 154.791C242.473 154.797 242.589 154.756 242.678 154.678C242.766 154.599 242.821 154.489 242.829 154.371L242.837 154.267C242.846 154.15 242.809 154.034 242.734 153.944C242.659 153.855 242.551 153.799 242.434 153.788ZM254.105 154.225C254.095 154.109 254.04 154.001 253.95 153.926C253.861 153.85 253.745 153.813 253.629 153.823C253.512 153.833 253.405 153.889 253.329 153.979C253.254 154.068 253.217 154.184 253.227 154.301L253.236 154.405C253.244 154.509 253.289 154.607 253.363 154.681C253.437 154.756 253.535 154.801 253.639 154.809C253.661 154.812 253.684 154.812 253.706 154.809C253.764 154.805 253.821 154.79 253.872 154.764C253.924 154.738 253.971 154.703 254.009 154.659C254.046 154.615 254.075 154.564 254.093 154.509C254.111 154.454 254.118 154.396 254.114 154.338L254.105 154.225ZM243.043 152.044C242.932 152 242.808 152.001 242.698 152.046C242.588 152.092 242.5 152.18 242.453 152.29L242.424 152.352C242.378 152.46 242.376 152.581 242.418 152.69C242.46 152.798 242.543 152.886 242.65 152.935C242.695 152.952 242.742 152.963 242.79 152.968C242.882 152.974 242.973 152.953 243.052 152.906C243.131 152.859 243.193 152.789 243.232 152.706L243.256 152.643L243.273 152.606C243.296 152.555 243.308 152.499 243.309 152.442C243.31 152.386 243.3 152.329 243.279 152.277C243.257 152.224 243.226 152.177 243.186 152.137C243.146 152.097 243.098 152.065 243.046 152.044H243.043ZM253.648 152.389L253.598 152.281C253.575 152.228 253.541 152.18 253.499 152.14C253.457 152.1 253.408 152.068 253.354 152.047C253.3 152.026 253.242 152.016 253.184 152.017C253.126 152.019 253.069 152.032 253.016 152.055C252.909 152.105 252.827 152.194 252.785 152.303C252.744 152.413 252.748 152.535 252.795 152.642L252.833 152.734C252.866 152.808 252.918 152.872 252.985 152.918C253.051 152.965 253.129 152.993 253.209 153C253.279 153.005 253.349 152.994 253.413 152.967C253.52 152.921 253.605 152.835 253.649 152.727C253.694 152.619 253.694 152.497 253.65 152.389H253.648ZM244.22 150.562C244.178 150.522 244.129 150.491 244.075 150.47C244.02 150.449 243.963 150.439 243.905 150.441C243.847 150.442 243.79 150.455 243.737 150.479C243.684 150.503 243.636 150.537 243.596 150.579L243.513 150.666C243.435 150.753 243.395 150.866 243.4 150.983C243.406 151.099 243.457 151.208 243.543 151.287C243.585 151.326 243.635 151.357 243.69 151.377C243.744 151.398 243.802 151.407 243.861 151.404C243.919 151.401 243.976 151.387 244.028 151.362C244.081 151.336 244.128 151.301 244.166 151.257L244.232 151.186C244.273 151.145 244.304 151.096 244.326 151.042C244.347 150.988 244.358 150.931 244.357 150.873C244.356 150.815 244.343 150.758 244.32 150.705C244.297 150.651 244.264 150.603 244.223 150.563L244.22 150.562ZM252.571 150.696L252.487 150.608C252.407 150.523 252.297 150.473 252.18 150.469C252.063 150.465 251.949 150.507 251.864 150.587C251.778 150.667 251.728 150.778 251.724 150.895C251.72 151.012 251.763 151.126 251.843 151.211L251.91 151.287C251.989 151.369 252.097 151.418 252.211 151.423C252.325 151.427 252.436 151.387 252.522 151.312C252.607 151.236 252.66 151.13 252.669 151.016C252.679 150.902 252.643 150.789 252.571 150.7V150.696ZM245.788 149.551C245.761 149.499 245.725 149.454 245.68 149.417C245.636 149.379 245.584 149.352 245.529 149.334C245.474 149.317 245.415 149.312 245.358 149.317C245.3 149.323 245.244 149.34 245.193 149.368L245.089 149.422C245.039 149.45 244.994 149.488 244.958 149.533C244.922 149.579 244.896 149.631 244.88 149.686C244.864 149.742 244.859 149.8 244.866 149.858C244.873 149.915 244.891 149.971 244.919 150.021C244.953 150.086 245.003 150.14 245.064 150.18C245.125 150.22 245.196 150.243 245.268 150.247C245.355 150.256 245.442 150.237 245.518 150.193L245.605 150.148C245.709 150.093 245.786 150 245.821 149.888C245.856 149.776 245.845 149.655 245.79 149.551H245.788ZM250.999 149.439L250.895 149.38C250.791 149.325 250.67 149.314 250.558 149.349C250.446 149.384 250.352 149.461 250.298 149.565C250.243 149.669 250.232 149.79 250.267 149.903C250.301 150.015 250.379 150.108 250.483 150.163L250.57 150.208C250.625 150.24 250.686 150.258 250.749 150.262C250.85 150.271 250.95 150.244 251.033 150.188C251.116 150.131 251.177 150.048 251.207 149.951C251.236 149.855 251.231 149.752 251.193 149.658C251.155 149.565 251.087 149.487 250.999 149.439V149.439ZM247.098 148.739L246.986 148.756C246.88 148.774 246.784 148.83 246.717 148.914C246.65 148.998 246.615 149.104 246.62 149.211C246.625 149.319 246.67 149.421 246.745 149.498C246.82 149.575 246.92 149.622 247.027 149.63C247.063 149.635 247.1 149.633 247.135 149.626L247.239 149.609C247.298 149.602 247.355 149.583 247.406 149.553C247.458 149.524 247.502 149.484 247.538 149.436C247.574 149.389 247.599 149.335 247.614 149.277C247.628 149.219 247.63 149.159 247.621 149.101C247.611 149.042 247.59 148.986 247.558 148.936C247.527 148.886 247.485 148.842 247.436 148.809C247.388 148.775 247.333 148.751 247.274 148.739C247.216 148.727 247.156 148.727 247.098 148.739ZM249.106 148.764L248.99 148.743C248.877 148.729 248.762 148.759 248.671 148.828C248.579 148.897 248.518 148.998 248.5 149.112C248.482 149.225 248.509 149.34 248.575 149.434C248.641 149.528 248.74 149.592 248.853 149.614L248.957 149.634C248.969 149.634 248.982 149.638 248.999 149.638C249.108 149.647 249.217 149.614 249.303 149.546C249.389 149.479 249.447 149.381 249.464 149.272C249.483 149.158 249.457 149.04 249.39 148.945C249.324 148.85 249.223 148.785 249.109 148.764H249.106Z" fill="#CD2026"/>
<g opacity="0.2">
<path d="M269.621 172.541H266.613C265.542 172.541 264.674 173.409 264.674 174.481V177.492C264.674 178.564 265.542 179.433 266.613 179.433H269.621C270.692 179.433 271.56 178.564 271.56 177.492V174.481C271.56 173.409 270.692 172.541 269.621 172.541Z" fill="#494C4E"/>
</g>
<path d="M270.503 171.659H267.495C266.424 171.659 265.556 172.528 265.556 173.6V176.61C265.556 177.682 266.424 178.551 267.495 178.551H270.503C271.574 178.551 272.442 177.682 272.442 176.61V173.6C272.442 172.528 271.574 171.659 270.503 171.659Z" fill="#F9FBFF"/>
<g opacity="0.2">
<path d="M269.621 185.694H266.613C265.542 185.694 264.674 186.563 264.674 187.635V190.646C264.674 191.718 265.542 192.587 266.613 192.587H269.621C270.692 192.587 271.56 191.718 271.56 190.646V187.635C271.56 186.563 270.692 185.694 269.621 185.694Z" fill="#494C4E"/>
</g>
<path d="M270.503 184.812H267.495C266.424 184.812 265.556 185.681 265.556 186.753V189.763C265.556 190.835 266.424 191.704 267.495 191.704H270.503C271.574 191.704 272.442 190.835 272.442 189.763V186.753C272.442 185.681 271.574 184.812 270.503 184.812Z" fill="#F9FBFF"/>
<g opacity="0.2">
<path d="M269.621 198.847H266.613C265.542 198.847 264.674 199.716 264.674 200.788V203.799C264.674 204.871 265.542 205.739 266.613 205.739H269.621C270.692 205.739 271.56 204.871 271.56 203.799V200.788C271.56 199.716 270.692 198.847 269.621 198.847Z" fill="#494C4E"/>
</g>
<path d="M270.503 197.966H267.495C266.424 197.966 265.556 198.834 265.556 199.906V202.917C265.556 203.989 266.424 204.858 267.495 204.858H270.503C271.574 204.858 272.442 203.989 272.442 202.917V199.906C272.442 198.834 271.574 197.966 270.503 197.966Z" fill="#F9FBFF"/>
<path d="M249.031 263.115H239.758C239.32 263.115 238.964 263.471 238.964 263.91V265.454C238.964 265.893 239.32 266.249 239.758 266.249H249.031C249.47 266.249 249.826 265.893 249.826 265.454V263.91C249.826 263.471 249.47 263.115 249.031 263.115Z" fill="white"/>
<path d="M249.031 271.551H239.758C239.32 271.551 238.964 271.907 238.964 272.346V273.89C238.964 274.329 239.32 274.685 239.758 274.685H249.031C249.47 274.685 249.826 274.329 249.826 273.89V272.346C249.826 271.907 249.47 271.551 249.031 271.551Z" fill="white"/>
<path d="M249.031 279.986H239.758C239.32 279.986 238.964 280.342 238.964 280.781V282.325C238.964 282.764 239.32 283.12 239.758 283.12H249.031C249.47 283.12 249.826 282.764 249.826 282.325V280.781C249.826 280.342 249.47 279.986 249.031 279.986Z" fill="white"/>
<g opacity="0.1">
<path d="M242.341 244.752C243.995 244.752 245.335 243.41 245.335 241.755C245.335 240.1 243.995 238.759 242.341 238.759C240.688 238.759 239.348 240.1 239.348 241.755C239.348 243.41 240.688 244.752 242.341 244.752Z" fill="#494C4E"/>
</g>
<path d="M243.223 243.869C244.877 243.869 246.217 242.528 246.217 240.873C246.217 239.218 244.877 237.876 243.223 237.876C241.57 237.876 240.229 239.218 240.229 240.873C240.229 242.528 241.57 243.869 243.223 243.869Z" fill="#FF6B70"/>
<g opacity="0.1">
<path d="M242.341 231.364C243.995 231.364 245.335 230.023 245.335 228.368C245.335 226.713 243.995 225.371 242.341 225.371C240.688 225.371 239.348 226.713 239.348 228.368C239.348 230.023 240.688 231.364 242.341 231.364Z" fill="#494C4E"/>
<path d="M254.814 231.364C256.468 231.364 257.808 230.023 257.808 228.368C257.808 226.713 256.468 225.371 254.814 225.371C253.161 225.371 251.82 226.713 251.82 228.368C251.82 230.023 253.161 231.364 254.814 231.364Z" fill="#494C4E"/>
<path d="M267.286 231.364C268.939 231.364 270.28 230.023 270.28 228.368C270.28 226.713 268.939 225.371 267.286 225.371C265.632 225.371 264.292 226.713 264.292 228.368C264.292 230.023 265.632 231.364 267.286 231.364Z" fill="#494C4E"/>
</g>
<path d="M243.223 230.482C244.877 230.482 246.217 229.14 246.217 227.485C246.217 225.83 244.877 224.489 243.223 224.489C241.57 224.489 240.229 225.83 240.229 227.485C240.229 229.14 241.57 230.482 243.223 230.482Z" fill="#B5BDC2"/>
<path d="M255.695 230.482C257.348 230.482 258.689 229.14 258.689 227.485C258.689 225.83 257.348 224.489 255.695 224.489C254.042 224.489 252.701 225.83 252.701 227.485C252.701 229.14 254.042 230.482 255.695 230.482Z" fill="#B5BDC2"/>
<path d="M268.167 230.482C269.82 230.482 271.161 229.14 271.161 227.485C271.161 225.83 269.82 224.489 268.167 224.489C266.513 224.489 265.173 225.83 265.173 227.485C265.173 229.14 266.513 230.482 268.167 230.482Z" fill="#B5BDC2"/>
<path d="M154.488 20.434C154.489 20.9906 154.455 21.5467 154.384 22.0988C153.519 28.9669 147.369 34.5485 139.314 36.0882C137.833 36.3693 136.329 36.5101 134.822 36.5088C129.471 36.5954 124.275 34.7078 120.225 31.206C117.531 28.8661 115.77 25.6329 115.264 22.0988C115.194 21.5467 115.159 20.9906 115.16 20.434H154.488Z" fill="#CDD5DC"/>
<path d="M134.822 37.3413C129.267 37.4155 123.876 35.4526 119.668 31.823C116.818 29.3554 114.96 25.9368 114.439 22.2018C114.364 21.6154 114.328 21.0248 114.328 20.4337V19.6009H155.32V20.4337C155.321 21.0259 155.284 21.6174 155.209 22.2048C154.305 29.3698 147.98 35.2785 139.472 36.9057C137.939 37.1964 136.382 37.3422 134.822 37.3413V37.3413ZM116.019 21.2658C116.035 21.5122 116.058 21.7549 116.089 21.9923C116.562 25.332 118.23 28.3864 120.783 30.5885C124.686 33.9424 129.679 35.752 134.822 35.6765C136.277 35.6769 137.728 35.5409 139.158 35.2702C146.959 33.7787 152.747 28.4436 153.559 21.9945C153.59 21.7554 153.613 21.5124 153.629 21.2658H116.019Z" fill="#F1F5FB"/>
<path d="M317.081 51.3058H193.474C192.271 51.2904 191.123 50.8012 190.277 49.9441C189.432 49.0871 188.958 47.9313 188.958 46.727C188.958 45.5227 189.432 44.3668 190.277 43.5098C191.123 42.6528 192.271 42.1636 193.474 42.1481H317.081C318.284 42.1636 319.433 42.6528 320.278 43.5098C321.124 44.3668 321.598 45.5227 321.598 46.727C321.598 47.9313 321.124 49.0871 320.278 49.9441C319.433 50.8012 318.284 51.2904 317.081 51.3058V51.3058Z" fill="#F1F5FB"/>
<path d="M367.387 51.3058H339.032C337.829 51.2904 336.68 50.8012 335.835 49.9441C334.99 49.0871 334.516 47.9313 334.516 46.727C334.516 45.5227 334.99 44.3668 335.835 43.5098C336.68 42.6528 337.829 42.1636 339.032 42.1481H367.387C368.59 42.1636 369.739 42.6528 370.584 43.5098C371.429 44.3668 371.903 45.5227 371.903 46.727C371.903 47.9313 371.429 49.0871 370.584 49.9441C369.739 50.8012 368.59 51.2904 367.387 51.3058V51.3058Z" fill="#F1F5FB"/>
<path d="M381.168 124.164H340.475C339.272 124.149 338.124 123.659 337.278 122.802C336.433 121.945 335.959 120.79 335.959 119.585C335.959 118.381 336.433 117.225 337.278 116.368C338.124 115.511 339.272 115.022 340.475 115.006H381.168C382.371 115.022 383.52 115.511 384.365 116.368C385.21 117.225 385.684 118.381 385.684 119.585C385.684 120.79 385.21 121.945 384.365 122.802C383.52 123.659 382.371 124.149 381.168 124.164V124.164Z" fill="#F1F5FB"/>
<path d="M398.298 75.9153H249.133C247.92 75.9153 246.756 75.4329 245.898 74.5743C245.041 73.7157 244.559 72.5511 244.559 71.3368C244.559 70.1225 245.041 68.958 245.898 68.0994C246.756 67.2407 247.92 66.7584 249.133 66.7584H398.298C399.512 66.7584 400.675 67.2407 401.533 68.0994C402.391 68.958 402.873 70.1225 402.873 71.3368C402.873 72.5511 402.391 73.7157 401.533 74.5743C400.675 75.4329 399.512 75.9153 398.298 75.9153V75.9153Z" fill="#F9FBFF"/>
<path d="M336.966 98.7576H316.424C315.211 98.7576 314.047 98.2752 313.189 97.4166C312.332 96.558 311.85 95.3934 311.85 94.1791C311.85 92.9648 312.332 91.8003 313.189 90.9416C314.047 90.083 315.211 89.6006 316.424 89.6006H336.966C338.179 89.6006 339.343 90.083 340.201 90.9416C341.058 91.8003 341.54 92.9648 341.54 94.1791C341.54 95.3934 341.058 96.558 340.201 97.4166C339.343 98.2752 338.179 98.7576 336.966 98.7576V98.7576Z" fill="#F9FBFF"/>
<path d="M408.246 143.554H387.702C386.489 143.554 385.326 143.072 384.468 142.213C383.61 141.354 383.128 140.19 383.128 138.975C383.128 137.761 383.61 136.597 384.468 135.738C385.326 134.879 386.489 134.397 387.702 134.397H408.245C409.458 134.397 410.622 134.879 411.48 135.738C412.338 136.597 412.819 137.761 412.819 138.975C412.819 140.19 412.338 141.354 411.48 142.213C410.622 143.072 409.458 143.554 408.245 143.554H408.246Z" fill="#F9FBFF"/>
<path d="M429.241 98.7576H359.224C358.011 98.7576 356.847 98.2752 355.989 97.4166C355.131 96.558 354.649 95.3934 354.649 94.1791C354.649 92.9648 355.131 91.8003 355.989 90.9416C356.847 90.083 358.011 89.6006 359.224 89.6006H429.241C430.454 89.6006 431.618 90.083 432.476 90.9416C433.334 91.8003 433.816 92.9648 433.816 94.1791C433.816 95.3934 433.334 96.558 432.476 97.4166C431.618 98.2752 430.454 98.7576 429.241 98.7576V98.7576Z" fill="#F1F5FB"/>
<g opacity="0.1">
<path d="M217.824 215.099H215.416V278.022H217.824V215.099Z" fill="#494C4E"/>
</g>
<path d="M449.426 23.157H50.5744C49.3612 23.157 48.1977 22.6746 47.3398 21.8159C46.4819 20.9573 46 19.7928 46 18.5785C46 17.3642 46.4819 16.1996 47.3398 15.341C48.1977 14.4824 49.3612 14 50.5744 14H449.428C450.641 14 451.805 14.4824 452.662 15.341C453.52 16.1996 454.002 17.3642 454.002 18.5785C454.002 19.7928 453.52 20.9573 452.662 21.8159C451.805 22.6746 450.641 23.157 449.428 23.157H449.426Z" fill="#E3E9F1"/>
</g>
<defs>
<clipPath id="clip0_338_1969">
<rect width="408" height="309" fill="white" transform="translate(46 14)"/>
</clipPath>
</defs>
</svg>
