<svg xmlns="http://www.w3.org/2000/svg" viewBox="0 0 541.847 410">
  <defs>
    <style>
      .cls-1{opacity:.1}.cls-2{fill:#e3e9f1}.cls-3{fill:#494c4e}.cls-4{fill:#868c8f}.cls-5{fill:#b5bdc2}.cls-6{fill:#9ea5a9}.cls-7{fill:#cdd5dc}.cls-8{fill:#f9fbff}.cls-9{fill:#fad39e}.cls-11{fill:#deb881}.cls-12{fill:#6e7376}.cls-13{fill:#fae5c8}.cls-14{fill:#f1f5fb}.cls-16{fill:#ff6b70}.cls-18{opacity:.2}.cls-19{fill:#fff}
    </style>
  </defs>
  <g id="Layer_2" data-name="Layer 2">
    <g id="Layer_1-2" data-name="Layer 1">
      <path class="cls-2" d="m125.477 86.404-4.071 5.213-4.617 5.916-4.225 5.412-.646.828-.017.022-.027-.022-.967-.828-14.072-12.034-.889-.757-2.751-2.353-26.134-22.345 10.344-13.25 34.999 24.897 3.496 2.486 3.065 2.181 6.512 4.634z"/>
      <g class="cls-1">
        <path class="cls-3" d="M139 98.875a4.079 4.079 0 0 1-4.076 4.07h-24.017L96.835 90.911l-.889-.757L93.2 87.8a21.769 21.769 0 0 1 18.734-10.7h.475l3.5 2.486h3.54a20.888 20.888 0 0 1 16.182 7.649A21.662 21.662 0 0 1 139 98.875Z"/>
      </g>
      <path class="cls-2" d="m132.485 23.106-8.56 6.202-5.319 3.85-30.922 22.401-2.756 1.999-11.068 8.014-3.447-4.408-.425-.546-.966-1.238-5.512-7.052 11.388-9.583 21.318-17.938 2.359-1.977 14.359-12.084 2.629-2.209 3.347-2.817 2.198 2.817 1.729 2.209 9.648 12.36z"/>
      <g class="cls-1">
        <path class="cls-3" d="M143.94 10.746c-1.149 9.113-9.317 16.519-20.015 18.562l-5.319 3.85c-.4.016-.795.022-1.2.022-8.555 0-16.2-3.27-21.192-8.373l2.359-1.977a19.7 19.7 0 0 1-6.589-12.084Z"/>
      </g>
      <path class="cls-4" d="M295.853 155.291v163.787H202.8V155.355a13.511 13.511 0 0 1 9.159-12.794 13.316 13.316 0 0 1 4.364-.73h17.714Z"/>
      <path class="cls-5" d="m290.363 148.851-53.357-6.373-5.407-.646h-15.276a13.306 13.306 0 0 0-4.369.729 13.511 13.511 0 0 0-9.157 12.8v163.717h25.4l.066-1.85v1.85h67.6V143c-1.689-.754-3.545 5.851-5.5 5.851Zm-76.757 43.261a2.241 2.241 0 0 1 2.236-2.237h10.113a2.238 2.238 0 0 1 2.237 2.237v74.714h-14.586Z"/>
      <path class="cls-6" d="M517.155 319.076v.337a28.029 28.029 0 0 1-7.6 1.044H321.192v22.131h178.367a8.55 8.55 0 0 1 8.511 7.732H41.385a8.55 8.55 0 0 1 8.511-7.732h175.1v-22.131H32.294v-1.381Z"/>
      <path class="cls-7" d="M224.994 320.457v22.131H49.9a8.55 8.55 0 0 0-8.511 7.732 7.9 7.9 0 0 0-.039.817v54.334a4.527 4.527 0 0 1-4.827 4.518 4.626 4.626 0 0 1-4.225-4.672v-84.86ZM517.16 319.413v86.058a4.527 4.527 0 0 1-4.827 4.518 4.626 4.626 0 0 1-4.225-4.672v-54.18c0-.276-.011-.547-.038-.817a8.55 8.55 0 0 0-8.511-7.732H321.192v-22.131h188.363a28.029 28.029 0 0 0 7.6-1.044ZM224.994 306.622l6.152.257v35.709h-6.152v-35.966z"/>
      <rect class="cls-8" x="5.548" y="265.587" width="530.751" height="53.49" rx="26.745"/>
      <path class="cls-4" d="M228.258 317.7v1.38h12.4v-1.38Zm-.066 1.38.049-1.38h-.049Zm281.363-54.869H32.294a28.123 28.123 0 0 0-.276 56.245H509.555a28.029 28.029 0 0 0 7.6-1.044 28.127 28.127 0 0 0-7.6-55.206Zm7.6 52.323a25.248 25.248 0 0 1-7.6 1.166H32.294c-.093 0-.187 0-.276-.006a25.362 25.362 0 0 1 .276-50.722h477.261a25.365 25.365 0 0 1 7.6 49.562ZM228.192 317.7v1.38l.049-1.38Zm.066 0v1.38h12.4v-1.38Z"/>
      <circle class="cls-7" cx="32.02" cy="292.332" r="18.378"/>
      <circle class="cls-2" cx="32.02" cy="292.332" r="7.795"/>
      <circle class="cls-7" cx="111.578" cy="292.332" r="18.378"/>
      <circle class="cls-2" cx="111.578" cy="292.332" r="7.795"/>
      <circle class="cls-7" cx="191.135" cy="292.332" r="18.378"/>
      <circle class="cls-2" cx="191.135" cy="292.332" r="7.795"/>
      <circle class="cls-7" cx="270.692" cy="292.332" r="18.378"/>
      <circle class="cls-2" cx="270.692" cy="292.332" r="7.795"/>
      <circle class="cls-7" cx="350.25" cy="292.332" r="18.378"/>
      <circle class="cls-2" cx="350.25" cy="292.332" r="7.795"/>
      <circle class="cls-7" cx="429.807" cy="292.332" r="18.378"/>
      <circle class="cls-2" cx="429.807" cy="292.332" r="7.795"/>
      <circle class="cls-7" cx="509.364" cy="292.332" r="18.378"/>
      <circle class="cls-2" cx="509.364" cy="292.332" r="7.795"/>
      <path class="cls-5" d="M290.361 141.831H223.4a13.316 13.316 0 0 0-4.364.73 13.506 13.506 0 0 1 9.154 12.794v163.723l.065-1.852v1.852h75.621V155.355a13.522 13.522 0 0 0-13.515-13.524Z"/>
      <path class="cls-2" d="M307.668 141.831h-80.527c.376 0 .747.017 1.117.049a13.341 13.341 0 0 1 5.776 1.842 13.5 13.5 0 0 1 6.63 11.633v163.723-.026.025h80.526V155.354a13.522 13.522 0 0 0-13.522-13.523Z"/>
      <g class="cls-1">
        <path class="cls-3" d="M277.212 178.428a13.98 13.98 0 0 0-10.395-3.961 14.076 14.076 0 0 0-12.054 20.233 1.754 1.754 0 0 0 1.573.985l22.121.047a1.756 1.756 0 0 0 1.574-.978 14.082 14.082 0 0 0-2.823-16.321Z"/>
      </g>
      <path class="cls-5" d="M141.878 176.705a5.993 5.993 0 0 1-4.571-9.866l17.311-30.989a1.612 1.612 0 0 0-.375-2.069l-23.949-16.3a5.993 5.993 0 1 1 7.692-9.193l25.352 17.112a13.029 13.029 0 0 1 1.837 18.218 5.196 5.196 0 0 1-.113.138l-18.607 27.014c-1.186 1.401-2.876 5.935-4.577 5.935Z"/>
      <path class="cls-2" d="M148.416 167.443a5.994 5.994 0 0 1-4.571-9.867l14.043-22.311a1.613 1.613 0 0 0-.376-2.069l-24.494-16.888c-2.538-2.124-2.875-4.734-.75-7.273s4.27-9.412 6.808-7.288l26.986 21.9c5.5 4.607 6.308 14.364 1.837 19.974a5.196 5.196 0 0 1-.113.138l-14.793 21.565a5.982 5.982 0 0 1-4.577 2.119Z"/>
      <path class="cls-9" d="M140.554 135.415v49.315H84.9a2.225 2.225 0 0 1-2.223-2.223v-44.869a2.222 2.222 0 0 1 2.223-2.223Z"/>
      <path d="M94.775 135.413h53.97a2.162 2.162 0 0 1 2.162 2.162v44.993a2.162 2.162 0 0 1-2.162 2.162h-53.97v-49.317Z" style="fill:#faead4"/>
      <path class="cls-11" d="M89.479 217.318V264.5H75.457a2.934 2.934 0 0 1-2.934-2.934v-43.7Z"/>
      <g class="cls-1">
        <path class="cls-12" d="m87.058 221.13.006.006-.099-.006h.093z"/>
      </g>
      <path class="cls-9" d="M168.287 217.318v44.245a2.934 2.934 0 0 1-2.934 2.934H89.479v-47.179Z"/>
      <path class="cls-13" d="M182.6 198.539h-74.95a3.261 3.261 0 0 0-2.419 1.074l-15.492 17.131-.261.572h78.808l15.114-16.973a1.083 1.083 0 0 0-.8-1.804Z"/>
      <path class="cls-9" d="m89.478 217.316-16.955.545-12.854-15.776a1.084 1.084 0 0 1 .838-1.768l14.1-.02a3.261 3.261 0 0 1 2.576 1.255Z"/>
      <g class="cls-1">
        <path class="cls-3" d="M88.624 168.527a5.721 5.721 0 0 1-3.961 1.64 5.565 5.565 0 0 1-1.989-.371v-19.875l6.663 8.87a7.529 7.529 0 0 1-.713 9.736Z"/>
      </g>
      <path class="cls-5" d="M104.12 105.242c-1.167-1.4-2.808-7.156-4.62-7.317s-3.578-.152-4.975 1.016c0 0-26.444 22.7-30.211 26.8a14.019 14.019 0 0 0-.8 18.518l.023.025L79.023 163.9c2.265 2.225 3.556 3.273 5.6 3.273h.577a5.513 5.513 0 0 0 3.824-1.07 5.254 5.254 0 0 0 1.56-5.111 11.025 11.025 0 0 0-2.4-5.041l-14.146-20.345a.293.293 0 0 1 .065-.386l29.164-20.384a6.819 6.819 0 0 0 .853-9.594Z"/>
      <path class="cls-2" d="M85.166 167.443a5.979 5.979 0 0 1-4.577-2.121L65.8 143.757c-.039-.045-.076-.091-.114-.138a13.029 13.029 0 0 1 1.832-18.219l26.443-22.566c2.539-2.124 5.229 3.661 7.353 6.2a5.994 5.994 0 0 1-.751 8.443l-25.352 17.117a1.113 1.113 0 0 0-.186 1.514l14.711 21.468a5.994 5.994 0 0 1-4.57 9.867Z"/>
      <path class="cls-5" d="M93.2 102.684h47.183v14.369a4.78 4.78 0 0 1-4.78 4.78H97.979a4.78 4.78 0 0 1-4.78-4.78v-14.369h.001Z"/>
      <path class="cls-7" d="M93.2 101.595h47.183v14.369a4.78 4.78 0 0 1-4.78 4.78H97.979a4.78 4.78 0 0 1-4.78-4.78v-14.369h.001Z"/>
      <path class="cls-5" d="M114.139 81.769h5.3a20.94 20.94 0 0 1 20.94 20.94 3.245 3.245 0 0 1-3.245 3.245h-40.69a3.245 3.245 0 0 1-3.245-3.245 20.94 20.94 0 0 1 20.94-20.94Z"/>
      <path class="cls-6" d="M140.383 100.531a3.057 3.057 0 0 1-.061.6 3.191 3.191 0 0 1-.889 1.69 3.245 3.245 0 0 1-2.3.95h-40.69a3.232 3.232 0 0 1-3.181-2.64 3.057 3.057 0 0 1-.061-.6 20.939 20.939 0 0 1 20.937-20.942h5.3a20.944 20.944 0 0 1 20.943 20.942Z"/>
      <path class="cls-14" d="M137.136 104.6H96.443a4.058 4.058 0 0 1-4-3.319 3.82 3.82 0 0 1-.074-.752 21.767 21.767 0 0 1 21.769-21.769h5.3a21.773 21.773 0 0 1 21.771 21.771 3.918 3.918 0 0 1-.077.766 4.011 4.011 0 0 1-1.115 2.112 4.076 4.076 0 0 1-2.881 1.191Zm-23-24.185a19.984 19.984 0 0 0-14.219 5.895 20.054 20.054 0 0 0-5.888 14.221 2.279 2.279 0 0 0 .045.439 2.4 2.4 0 0 0 2.369 1.975h40.693a2.427 2.427 0 0 0 1.714-.71 2.484 2.484 0 0 0 .705-1.7 20.117 20.117 0 0 0-20.115-20.118Z"/>
      <circle class="cls-5" cx="116.791" cy="92.771" r="4.761"/>
      <path class="cls-14" d="M116.791 98.361a5.59 5.59 0 1 1 5.59-5.59 5.6 5.6 0 0 1-5.59 5.59Zm0-9.522a3.933 3.933 0 1 0 3.933 3.932 3.937 3.937 0 0 0-3.933-3.932Z"/>
      <circle class="cls-13" cx="132.383" cy="112.857" r="2.277"/>
      <circle class="cls-13" cx="116.791" cy="112.857" r="2.277"/>
      <circle class="cls-13" cx="101.199" cy="112.857" r="2.277"/>
      <path class="cls-11" d="M379.382 217.318V264.5h-14.021a2.933 2.933 0 0 1-2.934-2.934v-41.231a2.552 2.552 0 0 1 2.47-2.551Z"/>
      <g class="cls-1">
        <path class="cls-12" d="m376.962 221.13.005.006-.099-.006h.094z"/>
      </g>
      <path d="M458.19 219.87v41.693a2.933 2.933 0 0 1-2.934 2.934h-75.874v-47.179h76.256a2.552 2.552 0 0 1 2.552 2.552Z" style="fill:#fadaaf"/>
      <path class="cls-16" d="M417.313 246.765a2.016 2.016 0 0 0 1.488.661h.025a2 2 0 0 0 .693-.135c.027-.01.054-.016.081-.028a2.036 2.036 0 0 0 .584-.387c.018-.017.043-.023.06-.041l6.467-6.465a2.025 2.025 0 0 0-2.863-2.864l-3.022 3.022V230.5a2.025 2.025 0 0 0-4.05 0v10l-3.024-3.024a2.024 2.024 0 0 0-2.863 2.863Z"/>
      <path class="cls-16" d="M428.6 244.794a2.025 2.025 0 0 0-2.025 2.025v3.375h-15.543v-3.375a2.025 2.025 0 0 0-4.05 0v5.4a2.025 2.025 0 0 0 2.025 2.025H428.6a2.025 2.025 0 0 0 2.025-2.025v-5.4a2.025 2.025 0 0 0-2.025-2.025Z"/>
      <path class="cls-5" d="M228.193 294.693h81.988V410H235.8a7.605 7.605 0 0 1-7.605-7.605v-107.7l-.002-.002Z"/>
      <path class="cls-2" d="M321.192 294.693V402.4a7.609 7.609 0 0 1-7.605 7.6h-72.925V294.693Z"/>
      <circle class="cls-6" cx="73.679" cy="56.741" r="14.053"/>
      <path class="cls-14" d="M73.679 71.623a14.882 14.882 0 1 1 14.882-14.882 14.9 14.9 0 0 1-14.882 14.882Zm0-28.106A13.225 13.225 0 1 0 86.9 56.741a13.239 13.239 0 0 0-13.221-13.224Z"/>
      <circle class="cls-14" cx="73.679" cy="56.741" r="5.356"/>
      <path class="cls-4" d="M273.852 213.745h-15.9a1.657 1.657 0 1 1 0-3.314h15.9a1.657 1.657 0 0 1 0 3.314ZM273.852 223.543h-15.9a1.657 1.657 0 1 1 0-3.314h15.9a1.657 1.657 0 0 1 0 3.314ZM273.852 233.342h-15.9a1.657 1.657 0 1 1 0-3.314h15.9a1.657 1.657 0 1 1 0 3.314ZM273.852 243.14h-15.9a1.657 1.657 0 0 1 0-3.314h15.9a1.657 1.657 0 1 1 0 3.314ZM273.852 252.938h-15.9a1.657 1.657 0 1 1 0-3.313h15.9a1.657 1.657 0 1 1 0 3.313Z"/>
      <path class="cls-8" d="M257.511 192.169a12.315 12.315 0 1 1 22.12.047Z"/>
      <path class="cls-16" d="m279.632 193.873-22.121-.047a1.658 1.658 0 0 1-1.485-.929 13.977 13.977 0 0 1 11.969-20.086 13.978 13.978 0 0 1 13.127 20.139 1.659 1.659 0 0 1-1.49.923Zm-21.032-3.358 19.949.042a10.663 10.663 0 0 0-10.423-14.436 10.663 10.663 0 0 0-9.526 14.394Z"/>
      <path class="cls-5" d="M268.464 184.093a50.744 50.744 0 0 1-1.386-1.65.386.386 0 0 0-.689.309c.112.713.224 1.424.306 2.133a5.835 5.835 0 0 0 .662 2.936 1.58 1.58 0 0 0 2.855-1.277 5.846 5.846 0 0 0-1.748-2.451Z"/>
      <circle class="cls-5" cx="268.662" cy="186.862" r="1.753"/>
      <path class="cls-16" d="M268.665 189.167a2.309 2.309 0 0 1-2.108-1.363 2.309 2.309 0 1 1 2.108 1.363Zm0-3.507a1.2 1.2 0 0 0-1.1 1.692 1.2 1.2 0 1 0 1.1-1.692Z"/>
      <path d="M260.876 185.479a.59.59 0 0 0-.63.536l-.011.116-.006.066a.58.58 0 0 0 .542.613.6.6 0 0 0 .629-.558l.011-.138a.59.59 0 0 0-.535-.635Zm15.5.58a.585.585 0 0 0-1.166.1l.012.138a.58.58 0 0 0 .535.536.265.265 0 0 0 .089 0 .579.579 0 0 0 .541-.624Zm-14.691-2.894a.607.607 0 0 0-.784.326l-.039.083a.594.594 0 0 0 .3.773.746.746 0 0 0 .187.044.6.6 0 0 0 .586-.348l.033-.083.022-.049a.559.559 0 0 0-.302-.746Zm14.083.458-.066-.143a.584.584 0 0 0-.773-.3.592.592 0 0 0-.293.778l.05.122a.6.6 0 0 0 .5.353.57.57 0 0 0 .27-.044.59.59 0 0 0 .315-.766Zm-12.52-2.424a.585.585 0 0 0-.829.022l-.11.116a.584.584 0 0 0 .039.823.578.578 0 0 0 .828-.039l.088-.094a.584.584 0 0 0-.013-.827Zm11.09.177-.111-.116a.584.584 0 0 0-.856.8l.089.1a.587.587 0 0 0 .878-.778Zm-9.008-1.519a.579.579 0 0 0-.79-.243l-.138.072a.583.583 0 0 0-.226.795.564.564 0 0 0 .464.3.549.549 0 0 0 .331-.072l.116-.06a.587.587 0 0 0 .246-.792Zm6.92-.149-.138-.078a.587.587 0 0 0-.547 1.039l.116.06a.545.545 0 0 0 .238.072.584.584 0 0 0 .331-1.093Zm-5.18-.928-.149.022a.585.585 0 0 0 .055 1.16.435.435 0 0 0 .143-.006l.138-.022a.585.585 0 1 0-.187-1.154Zm2.667.033-.154-.028a.585.585 0 0 0-.183 1.155l.138.027c.017 0 .034.006.056.006a.579.579 0 0 0 .618-.486.586.586 0 0 0-.472-.674Z" style="fill:#cd2026"/>
      <g class="cls-18">
        <rect class="cls-3" x="290.411" y="210.361" width="9.145" height="9.145" rx="2.575"/>
      </g>
      <rect class="cls-8" x="291.582" y="209.191" width="9.145" height="9.145" rx="2.575"/>
      <g class="cls-18">
        <rect class="cls-3" x="290.411" y="227.814" width="9.145" height="9.145" rx="2.575"/>
      </g>
      <rect class="cls-8" x="291.582" y="226.644" width="9.145" height="9.145" rx="2.575"/>
      <g class="cls-18">
        <rect class="cls-3" x="290.411" y="245.267" width="9.145" height="9.145" rx="2.575"/>
      </g>
      <rect class="cls-8" x="291.582" y="244.097" width="9.145" height="9.145" rx="2.575"/>
      <rect class="cls-19" x="256.267" y="330.541" width="14.425" height="4.158" rx="1.055"/>
      <rect class="cls-19" x="256.267" y="341.734" width="14.425" height="4.158" rx="1.055"/>
      <rect class="cls-19" x="256.267" y="352.927" width="14.425" height="4.158" rx="1.055"/>
      <g class="cls-1">
        <circle class="cls-3" cx="260.753" cy="302.2" r="3.976"/>
      </g>
      <circle class="cls-16" cx="261.924" cy="301.029" r="3.976"/>
      <g class="cls-1">
        <circle class="cls-3" cx="260.753" cy="284.436" r="3.976"/>
        <circle class="cls-3" cx="277.317" cy="284.436" r="3.976"/>
        <circle class="cls-3" cx="293.88" cy="284.436" r="3.976"/>
      </g>
      <circle class="cls-5" cx="261.924" cy="283.265" r="3.976"/>
      <circle class="cls-5" cx="278.487" cy="283.265" r="3.976"/>
      <circle class="cls-5" cx="295.05" cy="283.265" r="3.976"/>
      <path class="cls-7" d="M144.078 8.537a17.24 17.24 0 0 1-.138 2.209c-1.149 9.113-9.317 16.519-20.015 18.562a31.862 31.862 0 0 1-5.965.558 28.937 28.937 0 0 1-19.385-7.036 19.7 19.7 0 0 1-6.589-12.084 17.24 17.24 0 0 1-.138-2.209Z"/>
      <path class="cls-14" d="M117.96 30.971a30.216 30.216 0 0 1-20.126-7.322 20.663 20.663 0 0 1-6.944-12.766 18.491 18.491 0 0 1-.147-2.346V7.432h54.44v1.105a18.416 18.416 0 0 1-.148 2.35c-1.2 9.507-9.6 17.347-20.9 19.506a33.061 33.061 0 0 1-6.175.578ZM92.989 9.641c.021.327.052.649.092.964a18.488 18.488 0 0 0 6.235 11.406 27.988 27.988 0 0 0 18.644 6.751 30.922 30.922 0 0 0 5.758-.539c10.361-1.979 18.047-9.058 19.126-17.615q.061-.476.093-.967ZM360.011 49.5H195.854a6.076 6.076 0 0 1 0-12.151h164.157a6.076 6.076 0 0 1 0 12.151ZM426.82 49.5h-37.657a6.076 6.076 0 0 1 0-12.151h37.657a6.076 6.076 0 0 1 0 12.151ZM445.122 146.172H391.08a6.076 6.076 0 0 1 0-12.151h54.042a6.076 6.076 0 0 1 0 12.151Z"/>
      <path class="cls-8" d="M467.872 82.153h-198.1a6.075 6.075 0 0 1 0-12.15h198.1a6.075 6.075 0 0 1 0 12.15ZM386.419 112.462h-27.281a6.075 6.075 0 1 1 0-12.15h27.281a6.075 6.075 0 1 1 0 12.15ZM481.083 171.9H453.8a6.075 6.075 0 1 1 0-12.15h27.282a6.075 6.075 0 0 1 0 12.15Z"/>
      <path class="cls-14" d="M508.966 112.462h-92.987a6.075 6.075 0 1 1 0-12.15h92.987a6.075 6.075 0 1 1 0 12.15Z"/>
      <g class="cls-1">
        <path class="cls-3" d="M224.994 266.83h3.198v83.49h-3.198z"/>
      </g>
      <path class="cls-2" d="M535.772 12.15H6.075a6.075 6.075 0 0 1 0-12.15h529.7a6.075 6.075 0 0 1 0 12.15Z"/>
    </g>
  </g>
</svg>
