<svg version="1.1" id="Layer_1" xmlns="http://www.w3.org/2000/svg" xmlns:xlink="http://www.w3.org/1999/xlink" x="0" y="0" viewBox="0 0 329.9 160.6" style="enable-background:new 0 0 329.9 160.6" xml:space="preserve">
  <style>
    .st0{opacity:.1;fill:#494c4e}.st1{opacity:.7;fill:#b5bdc2}.st2{fill:#e3e9f1}.st3{fill:#f8fafd}.st5{fill:#dfe6ee}.st8{fill:#c6cfd7}
  </style>
  <symbol id="New_Symbol" viewBox="-6.1 -9.1 12.1 18.3">
    <path class="st0" d="M-3.9-7.6c-1.2 0-2.2 1-2.2 2.2v7h4.3v-7c.1-1.3-.9-2.2-2.1-2.2zM2.1-7.6c-1.2 0-2.2 1-2.2 2.2v7h4.3v-7c0-1.3-.9-2.2-2.1-2.2z"/>
    <circle class="st1" cx="-2.9" cy="-6.2" r="3"/>
    <circle class="st1" cx="3.1" cy="-6.2" r="3"/>
    <path class="st2" d="M-2.9-7.6c-1.2 0-2.2 1-2.2 2.2V7c0 1.2 1 2.2 2.2 2.2 1.2 0 2.2-1 2.2-2.2V-5.5c0-1.2-1-2.1-2.2-2.1zM3.1-7.6C1.9-7.6.9-6.6.9-5.4V7c0 1.2 1 2.2 2.2 2.2 1.2 0 2.2-1 2.2-2.2V-5.5c-.1-1.2-1-2.1-2.2-2.1z"/>
  </symbol>
  <path class="st3" d="M218.2 67.4H281c2.9 0 5.2 2.3 5.2 5.2v15.5c0 2.9-2.3 5.2-5.2 5.2h-62.8c-2.9 0-5.2-2.3-5.2-5.2V72.6c0-2.9 2.3-5.2 5.2-5.2zM253.1 97.6h62.8c2.9 0 5.2 2.3 5.2 5.2v15.5c0 2.9-2.3 5.2-5.2 5.2h-62.8c-2.9 0-5.2-2.3-5.2-5.2v-15.5c0-2.9 2.4-5.2 5.2-5.2zM261.9 37.2h62.8c2.9 0 5.2 2.3 5.2 5.2v15.5c0 2.9-2.3 5.2-5.2 5.2h-62.8c-2.9 0-5.2-2.3-5.2-5.2V42.4c.1-2.9 2.4-5.2 5.2-5.2zM207.8 7.1h62.8c2.9 0 5.2 2.3 5.2 5.2v15.5c0 2.9-2.3 5.2-5.2 5.2h-62.8c-2.9 0-5.2-2.3-5.2-5.2V12.3c0-3 2.3-5.2 5.2-5.2zM19.6 97.6h62.8c2.9 0 5.2 2.3 5.2 5.2v15.5c0 2.9-2.3 5.2-5.2 5.2H19.6c-2.9 0-5.2-2.3-5.2-5.2v-15.5c0-2.9 2.3-5.2 5.2-5.2zM5.2 37.2H68c2.9 0 5.2 2.3 5.2 5.2v15.5c0 2.9-2.3 5.2-5.2 5.2H5.2c-2.9 0-5.2-2.3-5.2-5.2V42.4c0-2.9 2.3-5.2 5.2-5.2zM54.1 7.1h62.8c2.9 0 5.2 2.3 5.2 5.2v15.5c0 2.9-2.3 5.2-5.2 5.2H54.1c-2.9 0-5.2-2.3-5.2-5.2V12.3c0-3 2.4-5.2 5.2-5.2zM130.6 7.1h62.8c2.9 0 5.2 2.3 5.2 5.2v15.5c0 2.9-2.3 5.2-5.2 5.2h-62.8c-2.9 0-5.2-2.3-5.2-5.2V12.3c.1-3 2.4-5.2 5.2-5.2zM206.7 130.7h62.8c2.9 0 5.2 2.3 5.2 5.2v15.5c0 2.9-2.3 5.2-5.2 5.2h-62.8c-2.9 0-5.2-2.3-5.2-5.2v-15.5c.1-2.9 2.4-5.2 5.2-5.2zM54.1 130.7h62.8c2.9 0 5.2 2.3 5.2 5.2v15.5c0 2.9-2.3 5.2-5.2 5.2H54.1c-2.9 0-5.2-2.3-5.2-5.2v-15.5c0-2.9 2.4-5.2 5.2-5.2zM130.6 130.7h62.8c2.9 0 5.2 2.3 5.2 5.2v15.5c0 2.9-2.3 5.2-5.2 5.2h-62.8c-2.9 0-5.2-2.3-5.2-5.2v-15.5c.1-2.9 2.4-5.2 5.2-5.2zM38.7 67.4h62.8c2.9 0 5.2 2.3 5.2 5.2v15.5c0 2.9-2.3 5.2-5.2 5.2H38.7c-2.9 0-5.2-2.3-5.2-5.2V72.6c.1-2.9 2.4-5.2 5.2-5.2z"/>
  <path class="st0" d="M247 160.6H78.2c-7.2 0-13-5.8-13-13V23.4c0-7.2 5.8-13 13-13H247c7.2 0 13 5.8 13 13v124.2c0 7.2-5.8 13-13 13z"/>
  <path d="M249.3 157.8H80.6c-7.2 0-13-5.8-13-13V20.6c0-7.2 5.8-13 13-13h168.7c7.2 0 13 5.8 13 13v124.2c0 7.2-5.8 13-13 13z" style="fill:#f8faff"/>
  <path class="st5" d="M262.3 18.7c0-6.1-4.2-11.1-9.5-11.1H77c-5.2 0-9.5 5-9.5 11.1v12.7h194.7V18.7zM105.6 74.5H85.7c-2.2 0-4-1.8-4-4V50.6c0-2.2 1.8-4 4-4h19.9c2.2 0 4 1.8 4 4v19.9c0 2.2-1.8 4-4 4zM139.1 74.5h-19.9c-2.2 0-4-1.8-4-4V50.6c0-2.2 1.8-4 4-4h19.9c2.2 0 4 1.8 4 4v19.9c0 2.2-1.8 4-4 4zM172.5 74.5h-19.9c-2.2 0-4-1.8-4-4V50.6c0-2.2 1.8-4 4-4h19.9c2.2 0 4 1.8 4 4v19.9c0 2.2-1.8 4-4 4zM206 74.5h-19.9c-2.2 0-4-1.8-4-4V50.6c0-2.2 1.8-4 4-4H206c2.2 0 4 1.8 4 4v19.9c0 2.2-1.8 4-4 4zM239.5 74.5h-19.9c-2.2 0-4-1.8-4-4V50.6c0-2.2 1.8-4 4-4h19.9c2.2 0 4 1.8 4 4v19.9c0 2.2-1.8 4-4 4zM105.6 108H85.7c-2.2 0-4-1.8-4-4V84.1c0-2.2 1.8-4 4-4h19.9c2.2 0 4 1.8 4 4V104c0 2.2-1.8 4-4 4zM139.1 108h-19.9c-2.2 0-4-1.8-4-4V84.1c0-2.2 1.8-4 4-4h19.9c2.2 0 4 1.8 4 4V104c0 2.2-1.8 4-4 4zM172.5 108h-19.9c-2.2 0-4-1.8-4-4V84.1c0-2.2 1.8-4 4-4h19.9c2.2 0 4 1.8 4 4V104c0 2.2-1.8 4-4 4zM206 108h-19.9c-2.2 0-4-1.8-4-4V84.1c0-2.2 1.8-4 4-4H206c2.2 0 4 1.8 4 4V104c0 2.2-1.8 4-4 4z"/>
  <path d="M239.5 108h-19.9c-2.2 0-4-1.8-4-4V84.1c0-2.2 1.8-4 4-4h19.9c2.2 0 4 1.8 4 4V104c0 2.2-1.8 4-4 4z" style="fill:#46a661"/>
  <path d="m226.9 100.7-4.7-4.7c-.4-.4-.4-.9 0-1.3s.9-.4 1.3 0l3.4 3.4 10.5-10.6c.4-.4.9-.4 1.3 0s.4.9 0 1.3l-11.8 11.9z" style="fill:#fff"/>
  <g>
    <path class="st8" d="m89.4 56.9 9 9 1.3 1.3c1.4 1.4 3.5-.8 2.1-2.1l-9-9-1.3-1.3c-1.3-1.4-3.4.7-2.1 2.1z"/>
    <path class="st8" d="m99.7 54.8-9 9-1.3 1.3c-1.4 1.4.8 3.5 2.1 2.1l9-9 1.3-1.3c1.4-1.4-.7-3.5-2.1-2.1z"/>
  </g>
  <use xlink:href="#New_Symbol" width="12.1" height="18.3" id="XMLID_36_" x="-6.1" y="-9.1" transform="matrix(1 0 0 -1 80.09 9.146)" style="overflow:visible"/>
  <use xlink:href="#New_Symbol" width="12.1" height="18.3" id="XMLID_35_" x="-6.1" y="-9.1" transform="matrix(1 0 0 -1 113.906 9.146)" style="overflow:visible"/>
  <use xlink:href="#New_Symbol" width="12.1" height="18.3" id="XMLID_34_" x="-6.1" y="-9.1" transform="matrix(1 0 0 -1 147.723 9.146)" style="overflow:visible"/>
  <use xlink:href="#New_Symbol" width="12.1" height="18.3" id="XMLID_33_" x="-6.1" y="-9.1" transform="matrix(1 0 0 -1 181.54 9.146)" style="overflow:visible"/>
  <use xlink:href="#New_Symbol" width="12.1" height="18.3" id="XMLID_32_" x="-6.1" y="-9.1" transform="matrix(1 0 0 -1 215.356 9.146)" style="overflow:visible"/>
  <use xlink:href="#New_Symbol" width="12.1" height="18.3" id="XMLID_31_" x="-6.1" y="-9.1" transform="matrix(1 0 0 -1 249.172 9.146)" style="overflow:visible"/>
</svg>
