<svg width="500" height="330" viewBox="0 0 500 330" fill="none" xmlns="http://www.w3.org/2000/svg">
<g clip-path="url(#clip0_338_2657)">
<path d="M330.706 184.152H425.887C430.282 184.152 433.768 187.638 433.768 192.033V215.525C433.768 219.92 430.282 223.406 425.887 223.406H330.706C326.311 223.406 322.825 219.92 322.825 215.525V192.033C322.825 187.638 326.311 184.152 330.706 184.152Z" fill="#F8FAFD"/>
<path d="M383.601 229.923H478.781C483.177 229.923 486.662 233.409 486.662 237.804V261.296C486.662 265.691 483.177 269.177 478.781 269.177H383.601C379.206 269.177 375.72 265.691 375.72 261.296V237.804C375.72 233.409 379.357 229.923 383.601 229.923Z" fill="#F8FAFD"/>
<path d="M396.939 138.38H492.119C496.514 138.38 500 141.865 500 146.261V169.753C500 174.148 496.514 177.634 492.119 177.634H396.939C392.543 177.634 389.058 174.148 389.058 169.753V146.261C389.209 141.865 392.695 138.38 396.939 138.38Z" fill="#F8FAFD"/>
<path d="M314.944 92.7603H410.124C414.519 92.7603 418.005 96.2462 418.005 100.641V124.133C418.005 128.529 414.519 132.015 410.124 132.015H314.944C310.548 132.015 307.063 128.529 307.063 124.133V100.641C307.062 96.0946 310.548 92.7603 314.944 92.7603Z" fill="#F8FAFD"/>
<path d="M29.7064 229.923H124.887C129.282 229.923 132.768 233.409 132.768 237.804V261.296C132.768 265.691 129.282 269.177 124.887 269.177H29.7064C25.3111 269.177 21.8252 265.691 21.8252 261.296V237.804C21.8252 233.409 25.3111 229.923 29.7064 229.923Z" fill="#F8FAFD"/>
<path d="M7.88118 138.38H103.062C107.457 138.38 110.943 141.865 110.943 146.261V169.753C110.943 174.148 107.457 177.634 103.062 177.634H7.88118C3.4859 177.634 0 174.148 0 169.753V146.261C0 141.865 3.4859 138.38 7.88118 138.38Z" fill="#F8FAFD"/>
<path d="M81.9945 92.7603H177.175C181.57 92.7603 185.056 96.2462 185.056 100.641V124.133C185.056 128.529 181.57 132.015 177.175 132.015H81.9945C77.5992 132.015 74.1133 128.529 74.1133 124.133V100.641C74.1133 96.0946 77.7507 92.7603 81.9945 92.7603Z" fill="#F8FAFD"/>
<path d="M197.939 92.7603H293.119C297.514 92.7603 301 96.2462 301 100.641V124.133C301 128.529 297.514 132.015 293.119 132.015H197.939C193.544 132.015 190.058 128.529 190.058 124.133V100.641C190.209 96.0946 193.695 92.7603 197.939 92.7603Z" fill="#F8FAFD"/>
<path d="M313.277 280.089H408.457C412.852 280.089 416.338 283.575 416.338 287.97V311.462C416.338 315.858 412.852 319.344 408.457 319.344H313.277C308.881 319.344 305.396 315.858 305.396 311.462V287.97C305.547 283.575 309.033 280.089 313.277 280.089Z" fill="#F8FAFD"/>
<path d="M81.9945 280.089H177.175C181.57 280.089 185.056 283.575 185.056 287.97V311.462C185.056 315.858 181.57 319.344 177.175 319.344H81.9945C77.5992 319.344 74.1133 315.858 74.1133 311.462V287.97C74.1133 283.575 77.7507 280.089 81.9945 280.089Z" fill="#F8FAFD"/>
<path d="M197.939 280.089H293.119C297.514 280.089 301 283.575 301 287.97V311.462C301 315.858 297.514 319.344 293.119 319.344H197.939C193.544 319.344 190.058 315.858 190.058 311.462V287.97C190.209 283.575 193.695 280.089 197.939 280.089Z" fill="#F8FAFD"/>
<path d="M58.6546 184.152H153.835C158.23 184.152 161.716 187.638 161.716 192.033V215.525C161.716 219.92 158.23 223.406 153.835 223.406H58.6546C54.2593 223.406 50.7734 219.92 50.7734 215.525V192.033C50.925 187.638 54.4109 184.152 58.6546 184.152Z" fill="#F8FAFD"/>
<path opacity="0.1" d="M374.355 325.407H118.52C107.608 325.407 98.8174 316.616 98.8174 305.704V117.465C98.8174 106.552 107.608 97.7618 118.52 97.7618H374.355C385.268 97.7618 394.058 106.552 394.058 117.465V305.704C394.058 316.616 385.268 325.407 374.355 325.407Z" fill="#494C4E"/>
<path d="M377.842 321.163H122.158C111.246 321.163 102.455 312.372 102.455 301.46V113.221C102.455 102.309 111.246 93.5181 122.158 93.5181H377.842C388.754 93.5181 397.544 102.309 397.544 113.221V301.46C397.544 312.372 388.754 321.163 377.842 321.163Z" fill="#F8FAFF"/>
<path d="M397.545 110.341C397.545 101.096 391.179 93.5181 383.146 93.5181H116.702C108.821 93.5181 102.304 101.096 102.304 110.341V129.59H397.393V110.341H397.545Z" fill="#DFE6EE"/>
<path d="M160.048 194.912H129.888C126.553 194.912 123.825 192.184 123.825 188.85V158.689C123.825 155.355 126.553 152.627 129.888 152.627H160.048C163.383 152.627 166.111 155.355 166.111 158.689V188.85C166.111 192.184 163.383 194.912 160.048 194.912Z" fill="#DFE6EE"/>
<path d="M210.822 194.912H180.661C177.327 194.912 174.599 192.184 174.599 188.85V158.689C174.599 155.355 177.327 152.627 180.661 152.627H210.822C214.156 152.627 216.884 155.355 216.884 158.689V188.85C216.884 192.184 214.156 194.912 210.822 194.912Z" fill="#DFE6EE"/>
<path d="M261.443 194.912H231.282C227.948 194.912 225.22 192.184 225.22 188.85V158.689C225.22 155.355 227.948 152.627 231.282 152.627H261.443C264.777 152.627 267.505 155.355 267.505 158.689V188.85C267.505 192.184 264.777 194.912 261.443 194.912Z" fill="#DFE6EE"/>
<path d="M312.216 194.912H282.056C278.721 194.912 275.993 192.184 275.993 188.85V158.689C275.993 155.355 278.721 152.627 282.056 152.627H312.216C315.551 152.627 318.279 155.355 318.279 158.689V188.85C318.279 192.184 315.551 194.912 312.216 194.912Z" fill="#DFE6EE"/>
<path d="M362.989 194.912H332.828C329.494 194.912 326.766 192.184 326.766 188.85V158.689C326.766 155.355 329.494 152.627 332.828 152.627H362.989C366.323 152.627 369.051 155.355 369.051 158.689V188.85C369.051 192.184 366.323 194.912 362.989 194.912Z" fill="#DFE6EE"/>
<path d="M160.048 245.685H129.888C126.553 245.685 123.825 242.957 123.825 239.623V209.462C123.825 206.128 126.553 203.4 129.888 203.4H160.048C163.383 203.4 166.111 206.128 166.111 209.462V239.623C166.111 242.957 163.383 245.685 160.048 245.685Z" fill="#DFE6EE"/>
<path d="M210.822 245.685H180.661C177.327 245.685 174.599 242.957 174.599 239.623V209.462C174.599 206.128 177.327 203.4 180.661 203.4H210.822C214.156 203.4 216.884 206.128 216.884 209.462V239.623C216.884 242.957 214.156 245.685 210.822 245.685Z" fill="#DFE6EE"/>
<path d="M261.443 245.685H231.282C227.948 245.685 225.22 242.957 225.22 239.623V209.462C225.22 206.128 227.948 203.4 231.282 203.4H261.443C264.777 203.4 267.505 206.128 267.505 209.462V239.623C267.505 242.957 264.777 245.685 261.443 245.685Z" fill="#DFE6EE"/>
<path d="M312.216 245.685H282.056C278.721 245.685 275.993 242.957 275.993 239.623V209.462C275.993 206.128 278.721 203.4 282.056 203.4H312.216C315.551 203.4 318.279 206.128 318.279 209.462V239.623C318.279 242.957 315.551 245.685 312.216 245.685Z" fill="#DFE6EE"/>
<path d="M362.989 245.685H332.828C329.494 245.685 326.766 242.957 326.766 239.623V209.462C326.766 206.128 329.494 203.4 332.828 203.4H362.989C366.323 203.4 369.051 206.128 369.051 209.462V239.623C369.051 242.957 366.323 245.685 362.989 245.685Z" fill="#46A661"/>
<path d="M343.892 234.621L336.768 227.497C336.162 226.891 336.162 226.133 336.768 225.527C337.374 224.921 338.132 224.921 338.738 225.527L343.892 230.68L359.805 214.615C360.412 214.009 361.169 214.009 361.776 214.615C362.382 215.221 362.382 215.979 361.776 216.585L343.892 234.621Z" fill="white"/>
<path d="M135.496 168.238C140.043 172.785 144.59 177.331 149.136 181.878C149.743 182.484 150.5 183.242 151.107 183.848C153.229 185.97 156.411 182.636 154.29 180.666C149.743 176.119 145.196 171.572 140.649 167.025C140.043 166.419 139.285 165.661 138.679 165.055C136.708 162.933 133.526 166.116 135.496 168.238Z" fill="#C6CFD7"/>
<path d="M151.107 165.055C146.56 169.602 142.013 174.149 137.466 178.695C136.86 179.302 136.102 180.059 135.496 180.666C133.374 182.788 136.708 185.97 138.679 183.848C143.225 179.302 147.772 174.755 152.319 170.208C152.925 169.602 153.683 168.844 154.289 168.238C156.411 166.116 153.228 162.933 151.107 165.055Z" fill="#C6CFD7"/>
</g>
<defs>
<clipPath id="clip0_338_2657">
<rect width="500" height="243.407" fill="white" transform="translate(0 82)"/>
</clipPath>
</defs>
</svg>
