<?xml version="1.0" encoding="utf-8"?>
<!-- Generator: Adobe Illustrator 25.0.1, SVG Export Plug-In . SVG Version: 6.00 Build 0)  -->
<svg version="1.1" id="Layer_1" xmlns="http://www.w3.org/2000/svg" xmlns:xlink="http://www.w3.org/1999/xlink" x="0px" y="0px"
	 viewBox="0 0 294 152.1" style="enable-background:new 0 0 294 152.1;" xml:space="preserve">
<style type="text/css">
	.st0{fill:#F8FAFD;}
	.st1{clip-path:url(#SVGID_2_);}
	.st2{opacity:0.2088;clip-path:url(#SVGID_4_);fill:#494C4E;enable-background:new    ;}
	.st3{clip-path:url(#SVGID_6_);}
	.st4{clip-path:url(#SVGID_8_);fill:#6E7376;}
	.st5{clip-path:url(#SVGID_10_);}
	.st6{clip-path:url(#SVGID_12_);fill:#E3E9F1;}
	.st7{clip-path:url(#SVGID_14_);}
	.st8{clip-path:url(#SVGID_16_);fill:#FFFFFF;}
	.st9{clip-path:url(#SVGID_18_);}
	.st10{clip-path:url(#SVGID_20_);fill:#9EA5A9;}
	.st11{clip-path:url(#SVGID_22_);}
	.st12{clip-path:url(#SVGID_24_);fill:#46A661;}
	.st13{clip-path:url(#SVGID_26_);}
	.st14{clip-path:url(#SVGID_28_);fill:#9EA5A9;}
	.st15{clip-path:url(#SVGID_30_);}
	.st16{clip-path:url(#SVGID_32_);fill:#46A661;}
	.st17{clip-path:url(#SVGID_34_);}
	.st18{clip-path:url(#SVGID_36_);fill:#9EA5A9;}
	.st19{clip-path:url(#SVGID_38_);}
	.st20{clip-path:url(#SVGID_40_);fill:#46A661;}
	.st21{clip-path:url(#SVGID_42_);}
	.st22{clip-path:url(#SVGID_44_);fill:#E3E9F1;}
	.st23{clip-path:url(#SVGID_46_);}
	.st24{clip-path:url(#SVGID_48_);fill:#E3E9F1;}
	.st25{clip-path:url(#SVGID_50_);}
	.st26{clip-path:url(#SVGID_52_);fill:#E3E9F1;}
</style>
<g>
	<path class="st0" d="M72.6,47.1h55.6c2.5,0,4.6,2.1,4.6,4.6v13.8c0,2.5-2.1,4.6-4.6,4.6H72.6c-2.5,0-4.6-2.1-4.6-4.6V51.6
		C68.1,49,70.2,47.1,72.6,47.1L72.6,47.1z"/>
	<path class="st0" d="M4.7,47.1h55.6c2.5,0,4.6,2.1,4.6,4.6v13.8c0,2.5-2.1,4.6-4.6,4.6H4.7c-2.5-0.1-4.6-2.2-4.6-4.7V51.6
		C0.1,49,2.1,47.1,4.7,47.1L4.7,47.1z"/>
</g>
<g>
	<path class="st0" d="M233.8,46h55.6c2.5,0,4.6,2.1,4.6,4.6v13.8c0,2.5-2.1,4.6-4.6,4.6h-55.6c-2.5,0-4.6-2.1-4.6-4.6V50.6
		C229.2,48.1,231.3,46,233.8,46L233.8,46z"/>
	<path class="st0" d="M165.8,46h55.6c2.5,0,4.6,2.1,4.6,4.6v13.8c0,2.5-2.1,4.6-4.6,4.6h-55.6c-2.5,0-4.6-2.1-4.6-4.6V50.6
		C161.1,48.1,163.2,46,165.8,46L165.8,46z"/>
</g>
<path class="st0" d="M155.6,99.8h55.6c2.5,0,4.6,2.1,4.6,4.6v13.8c0,2.5-2.1,4.6-4.6,4.6h-55.6c-2.5,0-4.6-2.1-4.6-4.6v-13.8
	C151.1,101.9,153.1,99.8,155.6,99.8L155.6,99.8z"/>
<path class="st0" d="M87.8,99.8h55.6c2.5,0,4.6,2.1,4.6,4.6v13.8c0,2.5-2.1,4.6-4.6,4.6H87.8c-2.5,0-4.6-2.1-4.6-4.6v-13.8
	C83.2,101.9,85.3,99.8,87.8,99.8L87.8,99.8z"/>
<path class="st0" d="M74.8,46.4h55.6c2.5,0,4.6,2.1,4.6,4.6v13.8c0,2.5-2.1,4.6-4.6,4.6H74.8c-2.5,0-4.6-2.1-4.6-4.6V50.9
	C70.2,48.4,72.3,46.4,74.8,46.4L74.8,46.4z"/>
<g>
	<path class="st0" d="M226.2,101.8h55.6c2.5,0,4.6,2.1,4.6,4.6v13.8c0,2.5-2.1,4.6-4.6,4.6h-55.6c-2.5,0-4.6-2.1-4.6-4.6v-13.8
		C221.7,103.8,223.7,101.8,226.2,101.8L226.2,101.8z"/>
	<path class="st0" d="M19.5,101.8h55.6c2.5,0,4.6,2.1,4.6,4.6v13.8c0,2.5-2.1,4.6-4.6,4.6H19.5c-2.5,0-4.6-2.1-4.6-4.6v-13.8
		C14.8,103.8,16.9,101.8,19.5,101.8L19.5,101.8z"/>
</g>
<g>
	<path class="st0" d="M186.1,19.6h55.6c2.5,0,4.6,2.1,4.6,4.6V38c0,2.5-2.1,4.6-4.6,4.6h-55.6c-2.5,0-4.6-2.1-4.6-4.6V24.3
		C181.5,21.7,183.6,19.6,186.1,19.6L186.1,19.6z"/>
	<path class="st0" d="M50,19.6h55.6c2.5,0,4.6,2.1,4.6,4.6V38c0,2.5-2.1,4.6-4.6,4.6H50c-2.5,0-4.6-2.1-4.6-4.6V24.3
		C45.5,21.7,47.5,19.6,50,19.6L50,19.6z"/>
	<path class="st0" d="M118.1,19.6h55.6c2.5,0,4.6,2.1,4.6,4.6V38c0,2.5-2.1,4.6-4.6,4.6h-55.6c-2.5,0-4.6-2.1-4.6-4.6V24.3
		C113.4,21.7,115.5,19.6,118.1,19.6L118.1,19.6z"/>
</g>
<g>
	<path class="st0" d="M185.8,129.2h55.6c2.5,0,4.6,2.1,4.6,4.6v13.8c0,2.5-2.1,4.6-4.6,4.6h-55.6c-2.5,0-4.6-2.1-4.6-4.6v-13.8
		C181.2,131.1,183.3,129.2,185.8,129.2L185.8,129.2z"/>
	<path class="st0" d="M49.7,129.2h55.6c2.5,0,4.6,2.1,4.6,4.6v13.8c0,2.5-2.1,4.6-4.6,4.6H49.7c-2.5,0-4.6-2.1-4.6-4.6v-13.8
		C45.2,131.1,47.2,129.2,49.7,129.2L49.7,129.2z"/>
	<path class="st0" d="M117.8,129.2h55.6c2.5,0,4.6,2.1,4.6,4.6v13.8c0,2.5-2.1,4.6-4.6,4.6h-55.6c-2.5,0-4.6-2.1-4.6-4.6v-13.8
		C113.2,131.1,115.2,129.2,117.8,129.2L117.8,129.2z"/>
</g>
<g>
	<path class="st0" d="M195.3,74.4h55.6c2.5,0,4.6,2.1,4.6,4.6v13.8c0,2.5-2.1,4.6-4.6,4.6h-55.6c-2.5,0-4.6-2.1-4.6-4.6V79
		C190.6,76.5,192.7,74.4,195.3,74.4L195.3,74.4z"/>
	<path class="st0" d="M36.4,74.4H92c2.5,0,4.6,2.1,4.6,4.6v13.8c0,2.5-2.1,4.6-4.6,4.6H36.4c-2.5,0-4.6-2.1-4.6-4.6V79
		C31.8,76.5,33.9,74.4,36.4,74.4L36.4,74.4z"/>
</g>
<path class="st0" d="M90.4,68.3h78.9c3.6,0,6.5,2.9,6.5,6.5v19.5c0,3.6-2.9,6.5-6.5,6.5H90.4c-3.6,0-6.5-2.9-6.5-6.5V74.8
	C83.9,71.2,86.8,68.3,90.4,68.3L90.4,68.3z"/>
<g>
	<g>
		<defs>
			<path id="SVGID_1_" d="M72.5,35.9h144.7c2.2,0,4,1.8,4,4V129c0,2.2-1.8,4-4,4H72.5c-2.2,0-4-1.8-4-4V39.9
				C68.5,37.7,70.3,35.9,72.5,35.9z"/>
		</defs>
		<clipPath id="SVGID_2_">
			<use xlink:href="#SVGID_1_"  style="overflow:visible;"/>
		</clipPath>
		<g class="st1">
			<g>
				<defs>
					<rect id="SVGID_3_" x="-30.5" y="-56.5" width="351.6" height="427.9"/>
				</defs>
				<clipPath id="SVGID_4_">
					<use xlink:href="#SVGID_3_"  style="overflow:visible;"/>
				</clipPath>
				<rect x="63.8" y="31.2" class="st2" width="162.1" height="106.5"/>
			</g>
		</g>
	</g>
</g>
<g>
	<g>
		<defs>
			<path id="SVGID_5_" d="M181.2,34L150.6,3.7c-1.6-1.5-4.1-1.5-5.6,0l-30.7,30.1l-0.5-0.5l31.1-30.6c1.6-1.5,4.1-1.5,5.6,0
				l31.1,30.7L181.2,34z"/>
		</defs>
		<clipPath id="SVGID_6_">
			<use xlink:href="#SVGID_5_"  style="overflow:visible;"/>
		</clipPath>
		<g class="st3">
			<g>
				<defs>
					<rect id="SVGID_7_" x="-29.5" y="-57.5" width="351.6" height="427.9"/>
				</defs>
				<clipPath id="SVGID_8_">
					<use xlink:href="#SVGID_7_"  style="overflow:visible;"/>
				</clipPath>
				<rect x="109.1" y="-4.7" class="st4" width="77.3" height="43.4"/>
			</g>
		</g>
	</g>
</g>
<g>
	<g>
		<defs>
			<path id="SVGID_9_" d="M75.4,34h144.7c2.2,0,4,1.8,4,4v89.1c0,2.2-1.8,4-4,4H75.4c-2.2,0-4-1.8-4-4V38C71.4,35.8,73.2,34,75.4,34
				z"/>
		</defs>
		<clipPath id="SVGID_10_">
			<use xlink:href="#SVGID_9_"  style="overflow:visible;"/>
		</clipPath>
		<g class="st5">
			<g>
				<defs>
					<rect id="SVGID_11_" x="-29.5" y="-57.5" width="351.6" height="427.9"/>
				</defs>
				<clipPath id="SVGID_12_">
					<use xlink:href="#SVGID_11_"  style="overflow:visible;"/>
				</clipPath>
				<rect x="66.7" y="29.2" class="st6" width="162.1" height="106.5"/>
			</g>
		</g>
	</g>
</g>
<g>
	<g>
		<defs>
			<rect id="SVGID_13_" x="78.9" y="45.3" width="137.6" height="75.4"/>
		</defs>
		<clipPath id="SVGID_14_">
			<use xlink:href="#SVGID_13_"  style="overflow:visible;"/>
		</clipPath>
		<g class="st7">
			<g>
				<defs>
					<rect id="SVGID_15_" x="-29.5" y="-57.5" width="351.6" height="427.9"/>
				</defs>
				<clipPath id="SVGID_16_">
					<use xlink:href="#SVGID_15_"  style="overflow:visible;"/>
				</clipPath>
				<rect x="74.2" y="40.6" class="st8" width="147" height="84.8"/>
			</g>
		</g>
	</g>
</g>
<g>
	<g>
		<defs>
			<path id="SVGID_17_" d="M190.1,68.9h14.3V54.7h-14.3V68.9z M205.3,69.8h-16v-16h16V69.8z"/>
		</defs>
		<clipPath id="SVGID_18_">
			<use xlink:href="#SVGID_17_"  style="overflow:visible;"/>
		</clipPath>
		<g class="st9">
			<g>
				<defs>
					<rect id="SVGID_19_" x="-29.5" y="-57.5" width="351.6" height="427.9"/>
				</defs>
				<clipPath id="SVGID_20_">
					<use xlink:href="#SVGID_19_"  style="overflow:visible;"/>
				</clipPath>
				<rect x="184.5" y="49" class="st10" width="25.5" height="25.5"/>
			</g>
		</g>
	</g>
</g>
<g>
	<g>
		<defs>
			<path id="SVGID_21_" d="M198.2,66l-4.9-4.9c-0.4-0.4-0.4-0.9,0-1.4s0.9-0.4,1.3,0l3.6,3.6l11-11.1c0.4-0.4,0.9-0.4,1.3,0
				c0.4,0.4,0.4,0.9,0,1.3L198.2,66z"/>
		</defs>
		<clipPath id="SVGID_22_">
			<use xlink:href="#SVGID_21_"  style="overflow:visible;"/>
		</clipPath>
		<g class="st11">
			<g>
				<defs>
					<rect id="SVGID_23_" x="-29.5" y="-57.5" width="351.6" height="427.9"/>
				</defs>
				<clipPath id="SVGID_24_">
					<use xlink:href="#SVGID_23_"  style="overflow:visible;"/>
				</clipPath>
				<rect x="188.3" y="47.2" class="st12" width="27.3" height="23.6"/>
			</g>
		</g>
	</g>
</g>
<g>
	<g>
		<defs>
			<path id="SVGID_25_" d="M190.1,88.7h14.3V74.4h-14.3V88.7z M205.3,89.6h-16v-16h16V89.6z"/>
		</defs>
		<clipPath id="SVGID_26_">
			<use xlink:href="#SVGID_25_"  style="overflow:visible;"/>
		</clipPath>
		<g class="st13">
			<g>
				<defs>
					<rect id="SVGID_27_" x="-29.5" y="-57.5" width="351.6" height="427.9"/>
				</defs>
				<clipPath id="SVGID_28_">
					<use xlink:href="#SVGID_27_"  style="overflow:visible;"/>
				</clipPath>
				<rect x="184.5" y="68.8" class="st14" width="25.5" height="25.5"/>
			</g>
		</g>
	</g>
</g>
<g>
	<g>
		<defs>
			<path id="SVGID_29_" d="M198.2,86.7l-4.9-4.9c-0.4-0.4-0.4-0.9,0-1.4c0.4-0.5,0.9-0.4,1.3,0l3.6,3.6l11-11.1
				c0.4-0.4,0.9-0.4,1.3,0c0.4,0.4,0.4,0.9,0,1.3L198.2,86.7z"/>
		</defs>
		<clipPath id="SVGID_30_">
			<use xlink:href="#SVGID_29_"  style="overflow:visible;"/>
		</clipPath>
		<g class="st15">
			<g>
				<defs>
					<rect id="SVGID_31_" x="-29.5" y="-57.5" width="351.6" height="427.9"/>
				</defs>
				<clipPath id="SVGID_32_">
					<use xlink:href="#SVGID_31_"  style="overflow:visible;"/>
				</clipPath>
				<rect x="188.3" y="67.9" class="st16" width="27.3" height="23.6"/>
			</g>
		</g>
	</g>
</g>
<g>
	<g>
		<defs>
			<path id="SVGID_33_" d="M190.1,109.5h14.3V95.2h-14.3V109.5z M205.3,110.3h-16v-16h16V110.3z"/>
		</defs>
		<clipPath id="SVGID_34_">
			<use xlink:href="#SVGID_33_"  style="overflow:visible;"/>
		</clipPath>
		<g class="st17">
			<g>
				<defs>
					<rect id="SVGID_35_" x="-29.5" y="-57.5" width="351.6" height="427.9"/>
				</defs>
				<clipPath id="SVGID_36_">
					<use xlink:href="#SVGID_35_"  style="overflow:visible;"/>
				</clipPath>
				<rect x="184.5" y="89.6" class="st18" width="25.5" height="25.5"/>
			</g>
		</g>
	</g>
</g>
<g>
	<g>
		<defs>
			<path id="SVGID_37_" d="M198.2,106.5l-4.9-4.9c-0.4-0.4-0.4-0.9,0-1.4c0.4-0.5,0.9-0.4,1.3,0l3.6,3.6l11-11.1
				c0.4-0.4,0.9-0.4,1.3,0c0.4,0.4,0.4,0.9,0,1.4L198.2,106.5z"/>
		</defs>
		<clipPath id="SVGID_38_">
			<use xlink:href="#SVGID_37_"  style="overflow:visible;"/>
		</clipPath>
		<g class="st19">
			<g>
				<defs>
					<rect id="SVGID_39_" x="-29.5" y="-57.5" width="351.6" height="427.9"/>
				</defs>
				<clipPath id="SVGID_40_">
					<use xlink:href="#SVGID_39_"  style="overflow:visible;"/>
				</clipPath>
				<rect x="188.3" y="87.7" class="st20" width="27.3" height="23.6"/>
			</g>
		</g>
	</g>
</g>
<g>
	<g>
		<defs>
			<path id="SVGID_41_" d="M91.2,57.5h86.7c2.1,0,3.8,1.7,3.8,3.8c0,2.1-1.7,3.8-3.8,3.8H91.2c-2.1,0-3.8-1.7-3.8-3.8
				S89,57.5,91.2,57.5z"/>
		</defs>
		<clipPath id="SVGID_42_">
			<use xlink:href="#SVGID_41_"  style="overflow:visible;"/>
		</clipPath>
		<g class="st21">
			<g>
				<defs>
					<rect id="SVGID_43_" x="-29.5" y="-57.5" width="351.6" height="427.9"/>
				</defs>
				<clipPath id="SVGID_44_">
					<use xlink:href="#SVGID_43_"  style="overflow:visible;"/>
				</clipPath>
				<rect x="82.7" y="52.8" class="st22" width="103.7" height="17"/>
			</g>
		</g>
	</g>
</g>
<g>
	<g>
		<defs>
			<path id="SVGID_45_" d="M91.2,78.3h86.7c2.1,0,3.8,1.7,3.8,3.8s-1.7,3.8-3.8,3.8H91.2c-2.1,0-3.8-1.7-3.8-3.8S89,78.3,91.2,78.3z
				"/>
		</defs>
		<clipPath id="SVGID_46_">
			<use xlink:href="#SVGID_45_"  style="overflow:visible;"/>
		</clipPath>
		<g class="st23">
			<g>
				<defs>
					<rect id="SVGID_47_" x="-29.5" y="-57.5" width="351.6" height="427.9"/>
				</defs>
				<clipPath id="SVGID_48_">
					<use xlink:href="#SVGID_47_"  style="overflow:visible;"/>
				</clipPath>
				<rect x="82.7" y="73.6" class="st24" width="103.7" height="17"/>
			</g>
		</g>
	</g>
</g>
<g>
	<g>
		<defs>
			<path id="SVGID_49_" d="M91.2,98.1h86.7c2.1,0,3.8,1.7,3.8,3.8s-1.7,3.8-3.8,3.8H91.2c-2.1,0-3.8-1.7-3.8-3.8S89,98.1,91.2,98.1z
				"/>
		</defs>
		<clipPath id="SVGID_50_">
			<use xlink:href="#SVGID_49_"  style="overflow:visible;"/>
		</clipPath>
		<g class="st25">
			<g>
				<defs>
					<rect id="SVGID_51_" x="-29.5" y="-57.5" width="351.6" height="427.9"/>
				</defs>
				<clipPath id="SVGID_52_">
					<use xlink:href="#SVGID_51_"  style="overflow:visible;"/>
				</clipPath>
				<rect x="82.7" y="93.3" class="st26" width="103.7" height="17"/>
			</g>
		</g>
	</g>
</g>
</svg>
