<svg width="500" height="330" viewBox="0 0 500 330" fill="none" xmlns="http://www.w3.org/2000/svg">
<path d="M130.456 148.534H221.009C225.081 148.534 228.501 151.955 228.501 156.027V178.506C228.501 182.578 225.081 185.999 221.009 185.999H130.456C126.384 185.999 122.964 182.578 122.964 178.506V155.864C123.127 151.629 126.547 148.534 130.456 148.534V148.534Z" fill="#F8FAFD"/>
<path d="M19.8688 148.534H110.423C114.494 148.534 117.914 151.955 117.914 156.027V178.506C117.914 182.578 114.494 185.999 110.423 185.999H19.8688C15.7971 185.836 12.377 182.415 12.377 178.343V155.864C12.377 151.629 15.6343 148.534 19.8688 148.534V148.534Z" fill="#F8FAFD"/>
<path d="M392.998 146.743H483.551C487.623 146.743 491.043 150.164 491.043 154.236V176.715C491.043 180.787 487.623 184.208 483.551 184.208H392.998C388.926 184.208 385.506 180.787 385.506 176.715V154.236C385.506 150.164 388.926 146.743 392.998 146.743Z" fill="#F8FAFD"/>
<path d="M282.247 146.743H372.801C376.873 146.743 380.293 150.164 380.293 154.236V176.715C380.293 180.787 376.873 184.208 372.801 184.208H282.247C278.176 184.208 274.756 180.787 274.756 176.715V154.236C274.593 150.164 278.013 146.743 282.247 146.743Z" fill="#F8FAFD"/>
<path d="M265.635 234.377H356.189C360.261 234.377 363.681 237.798 363.681 241.87V264.348C363.681 268.421 360.261 271.841 356.189 271.841H265.635C261.564 271.841 258.144 268.421 258.144 264.348V241.87C258.306 237.798 261.564 234.377 265.635 234.377Z" fill="#F8FAFD"/>
<path d="M155.212 234.377H245.765C249.837 234.377 253.257 237.798 253.257 241.87V264.348C253.257 268.421 249.837 271.841 245.765 271.841H155.212C151.14 271.841 147.72 268.421 147.72 264.348V241.87C147.72 237.798 151.14 234.377 155.212 234.377V234.377Z" fill="#F8FAFD"/>
<path d="M134.04 147.395H224.593C228.665 147.395 232.085 150.816 232.085 154.888V177.367C232.085 181.439 228.665 184.86 224.593 184.86H134.04C129.968 184.86 126.548 181.439 126.548 177.367V154.725C126.548 150.653 129.968 147.395 134.04 147.395V147.395Z" fill="#F8FAFD"/>
<path d="M380.619 237.635H471.173C475.244 237.635 478.664 241.055 478.664 245.128V267.606C478.664 271.678 475.244 275.099 471.173 275.099H380.619C376.547 275.099 373.127 271.678 373.127 267.606V245.128C373.29 240.892 376.547 237.635 380.619 237.635Z" fill="#F8FAFD"/>
<path d="M43.974 237.635H134.528C138.599 237.635 142.02 241.055 142.02 245.128V267.606C142.02 271.678 138.599 275.099 134.528 275.099H43.974C39.9023 275.099 36.4821 271.678 36.4821 267.606V245.128C36.3193 240.892 39.7395 237.635 43.974 237.635Z" fill="#F8FAFD"/>
<path d="M315.309 103.74H405.863C409.935 103.74 413.355 107.161 413.355 111.233V133.711C413.355 137.784 409.935 141.204 405.863 141.204H315.309C311.238 141.204 307.817 137.784 307.817 133.711V111.396C307.817 107.161 311.238 103.74 315.309 103.74V103.74Z" fill="#F8FAFD"/>
<path d="M93.6491 103.74H184.203C188.275 103.74 191.695 107.161 191.695 111.233V133.711C191.695 137.784 188.275 141.204 184.203 141.204H93.6491C89.5774 141.204 86.1572 137.784 86.1572 133.711V111.396C86.3201 107.161 89.5774 103.74 93.6491 103.74V103.74Z" fill="#F8FAFD"/>
<path d="M204.561 103.74H295.115C299.186 103.74 302.607 107.161 302.607 111.233V133.711C302.607 137.784 299.186 141.204 295.115 141.204H204.561C200.489 141.204 197.069 137.784 197.069 133.711V111.396C196.906 107.161 200.326 103.74 204.561 103.74V103.74Z" fill="#F8FAFD"/>
<path d="M314.819 282.267H405.373C409.444 282.267 412.865 285.687 412.865 289.76V312.238C412.865 316.311 409.444 319.731 405.373 319.731H314.819C310.747 319.731 307.327 316.311 307.327 312.238V289.76C307.327 285.362 310.747 282.267 314.819 282.267V282.267Z" fill="#F8FAFD"/>
<path d="M93.1588 282.267H183.713C187.784 282.267 191.204 285.687 191.204 289.76V312.238C191.204 316.311 187.784 319.731 183.713 319.731H93.1588C89.0872 319.731 85.667 316.311 85.667 312.238V289.76C85.8299 285.362 89.0872 282.267 93.1588 282.267V282.267Z" fill="#F8FAFD"/>
<path d="M204.07 282.267H294.624C298.695 282.267 302.116 285.687 302.116 289.76V312.238C302.116 316.311 298.695 319.731 294.624 319.731H204.07C199.998 319.731 196.578 316.311 196.578 312.238V289.76C196.578 285.362 199.835 282.267 204.07 282.267Z" fill="#F8FAFD"/>
<path d="M330.292 193.004H420.846C424.918 193.004 428.338 196.425 428.338 200.497V222.976C428.338 227.048 424.918 230.469 420.846 230.469H330.292C326.221 230.469 322.801 227.048 322.801 222.976V200.497C322.638 196.425 326.058 193.004 330.292 193.004V193.004Z" fill="#F8FAFD"/>
<path d="M71.4977 193.004H162.051C166.123 193.004 169.543 196.425 169.543 200.497V222.976C169.543 227.048 166.123 230.469 162.051 230.469H71.4977C67.4261 230.469 64.0059 227.048 64.0059 222.976V200.497C64.0059 196.425 67.4261 193.004 71.4977 193.004Z" fill="#F8FAFD"/>
<path d="M159.447 183.067H287.948C293.811 183.067 298.535 187.791 298.535 193.655V225.418C298.535 231.282 293.811 236.006 287.948 236.006H159.447C153.583 236.006 148.86 231.282 148.86 225.418V193.655C148.86 187.791 153.583 183.067 159.447 183.067V183.067Z" fill="#F8FAFD"/>
<path opacity="0.21" d="M365.961 130.292H130.293C126.695 130.292 123.778 133.209 123.778 136.808V281.941C123.778 285.54 126.695 288.457 130.293 288.457H365.961C369.559 288.457 372.475 285.54 372.475 281.941V136.808C372.475 133.209 369.559 130.292 365.961 130.292Z" fill="#494C4E"/>
<path d="M248.208 76.2127L197.557 126.057L198.371 126.871L248.371 77.8416C250.814 75.3983 254.886 75.3983 257.491 77.8416L307.329 127.197L307.98 126.22L257.329 76.2127C254.886 73.7694 250.814 73.7694 248.208 76.2127V76.2127Z" fill="#6E7376"/>
<path d="M370.684 127.197H135.017C131.419 127.197 128.502 130.114 128.502 133.712V278.846C128.502 282.444 131.419 285.361 135.017 285.361H370.684C374.282 285.361 377.199 282.444 377.199 278.846V133.712C377.199 130.114 374.282 127.197 370.684 127.197Z" fill="#E3E9F1"/>
<path d="M364.821 145.603H140.717V268.421H364.821V145.603Z" fill="white"/>
<path d="M320.521 185.51H346.579V159.448H320.521V185.51ZM321.823 160.914H345.113V184.044H321.823V160.914Z" fill="#9EA5A9"/>
<path d="M352.931 156.843L335.016 174.924L329.153 169.06C328.501 168.408 327.687 168.245 327.035 169.06C326.384 169.874 326.384 170.688 327.035 171.34L335.016 179.322L355.048 158.96C355.7 158.309 355.7 157.494 355.048 156.843C354.397 156.191 353.583 156.191 352.931 156.843V156.843Z" fill="#46A661"/>
<path d="M320.521 217.762H346.579V191.7H320.521V217.762ZM321.823 193.003H345.113V216.296H321.823V193.003Z" fill="#9EA5A9"/>
<path d="M352.931 190.56L335.016 208.64L329.153 202.776C328.501 202.125 327.687 201.962 327.035 202.776C326.384 203.591 326.384 204.405 327.035 205.057L335.016 213.038L355.048 192.677C355.7 192.026 355.7 191.211 355.048 190.56C354.397 189.908 353.583 189.908 352.931 190.56Z" fill="#46A661"/>
<path d="M320.521 251.48H346.579V225.418H320.521V251.48ZM321.823 226.884H345.113V250.177H321.823V226.884Z" fill="#9EA5A9"/>
<path d="M352.931 222.813L335.016 240.893L329.153 235.029C328.501 234.378 327.687 234.215 327.035 235.029C326.384 235.844 326.384 236.658 327.035 237.31L335.016 245.291L355.048 225.093C355.7 224.279 355.7 223.464 355.048 222.813C354.397 222.161 353.583 222.161 352.931 222.813Z" fill="#46A661"/>
<path d="M301.955 199.356H160.749C157.166 199.356 154.561 202.125 154.561 205.546C154.561 208.966 157.329 211.735 160.749 211.735H301.955C305.375 211.735 308.144 208.966 308.144 205.546C308.144 202.125 305.375 199.356 301.955 199.356Z" fill="#E3E9F1"/>
<path d="M301.955 231.607H160.749C157.166 231.607 154.561 234.377 154.561 237.797C154.561 241.218 157.329 243.987 160.749 243.987H301.955C305.375 243.987 308.144 241.218 308.144 237.797C308.144 234.377 305.375 231.607 301.955 231.607Z" fill="#E3E9F1"/>
<path d="M301.955 165.475H160.749C157.166 165.475 154.561 168.244 154.561 171.665C154.561 175.086 157.329 177.855 160.749 177.855H301.955C305.375 177.855 308.144 175.086 308.144 171.665C308.144 168.244 305.375 165.475 301.955 165.475Z" fill="#E3E9F1"/>
</svg>
