<svg version="1.1" id="Layer_1" xmlns="http://www.w3.org/2000/svg" xmlns:xlink="http://www.w3.org/1999/xlink" x="0" y="0" viewBox="0 0 294 152.1" style="enable-background:new 0 0 294 152.1" xml:space="preserve">
  <style>
    .st0{fill:#f8fafd}
  </style>
  <path class="st0" d="M72.6 47.1h55.6c2.5 0 4.6 2.1 4.6 4.6v13.8c0 2.5-2.1 4.6-4.6 4.6H72.6c-2.5 0-4.6-2.1-4.6-4.6V51.6c.1-2.6 2.2-4.5 4.6-4.5zM4.7 47.1h55.6c2.5 0 4.6 2.1 4.6 4.6v13.8c0 2.5-2.1 4.6-4.6 4.6H4.7C2.2 70 .1 67.9.1 65.4V51.6c0-2.6 2-4.5 4.6-4.5zM233.8 46h55.6c2.5 0 4.6 2.1 4.6 4.6v13.8c0 2.5-2.1 4.6-4.6 4.6h-55.6c-2.5 0-4.6-2.1-4.6-4.6V50.6c0-2.5 2.1-4.6 4.6-4.6zM165.8 46h55.6c2.5 0 4.6 2.1 4.6 4.6v13.8c0 2.5-2.1 4.6-4.6 4.6h-55.6c-2.5 0-4.6-2.1-4.6-4.6V50.6c-.1-2.5 2-4.6 4.6-4.6zM155.6 99.8h55.6c2.5 0 4.6 2.1 4.6 4.6v13.8c0 2.5-2.1 4.6-4.6 4.6h-55.6c-2.5 0-4.6-2.1-4.6-4.6v-13.8c.1-2.5 2.1-4.6 4.6-4.6zM87.8 99.8h55.6c2.5 0 4.6 2.1 4.6 4.6v13.8c0 2.5-2.1 4.6-4.6 4.6H87.8c-2.5 0-4.6-2.1-4.6-4.6v-13.8c0-2.5 2.1-4.6 4.6-4.6z"/>
  <path class="st0" d="M74.8 46.4h55.6c2.5 0 4.6 2.1 4.6 4.6v13.8c0 2.5-2.1 4.6-4.6 4.6H74.8c-2.5 0-4.6-2.1-4.6-4.6V50.9c0-2.5 2.1-4.5 4.6-4.5zM226.2 101.8h55.6c2.5 0 4.6 2.1 4.6 4.6v13.8c0 2.5-2.1 4.6-4.6 4.6h-55.6c-2.5 0-4.6-2.1-4.6-4.6v-13.8c.1-2.6 2.1-4.6 4.6-4.6zM19.5 101.8h55.6c2.5 0 4.6 2.1 4.6 4.6v13.8c0 2.5-2.1 4.6-4.6 4.6H19.5c-2.5 0-4.6-2.1-4.6-4.6v-13.8c-.1-2.6 2-4.6 4.6-4.6zM186.1 19.6h55.6c2.5 0 4.6 2.1 4.6 4.6V38c0 2.5-2.1 4.6-4.6 4.6h-55.6c-2.5 0-4.6-2.1-4.6-4.6V24.3c0-2.6 2.1-4.7 4.6-4.7zM50 19.6h55.6c2.5 0 4.6 2.1 4.6 4.6V38c0 2.5-2.1 4.6-4.6 4.6H50c-2.5 0-4.6-2.1-4.6-4.6V24.3c.1-2.6 2.1-4.7 4.6-4.7zM118.1 19.6h55.6c2.5 0 4.6 2.1 4.6 4.6V38c0 2.5-2.1 4.6-4.6 4.6h-55.6c-2.5 0-4.6-2.1-4.6-4.6V24.3c-.1-2.6 2-4.7 4.6-4.7zM185.8 129.2h55.6c2.5 0 4.6 2.1 4.6 4.6v13.8c0 2.5-2.1 4.6-4.6 4.6h-55.6c-2.5 0-4.6-2.1-4.6-4.6v-13.8c0-2.7 2.1-4.6 4.6-4.6zM49.7 129.2h55.6c2.5 0 4.6 2.1 4.6 4.6v13.8c0 2.5-2.1 4.6-4.6 4.6H49.7c-2.5 0-4.6-2.1-4.6-4.6v-13.8c.1-2.7 2.1-4.6 4.6-4.6zM117.8 129.2h55.6c2.5 0 4.6 2.1 4.6 4.6v13.8c0 2.5-2.1 4.6-4.6 4.6h-55.6c-2.5 0-4.6-2.1-4.6-4.6v-13.8c0-2.7 2-4.6 4.6-4.6zM195.3 74.4h55.6c2.5 0 4.6 2.1 4.6 4.6v13.8c0 2.5-2.1 4.6-4.6 4.6h-55.6c-2.5 0-4.6-2.1-4.6-4.6V79c-.1-2.5 2-4.6 4.6-4.6zM36.4 74.4H92c2.5 0 4.6 2.1 4.6 4.6v13.8c0 2.5-2.1 4.6-4.6 4.6H36.4c-2.5 0-4.6-2.1-4.6-4.6V79c0-2.5 2.1-4.6 4.6-4.6z"/>
  <path class="st0" d="M90.4 68.3h78.9c3.6 0 6.5 2.9 6.5 6.5v19.5c0 3.6-2.9 6.5-6.5 6.5H90.4c-3.6 0-6.5-2.9-6.5-6.5V74.8c0-3.6 2.9-6.5 6.5-6.5z"/>
  <defs>
    <path id="SVGID_1_" d="M72.5 35.9h144.7c2.2 0 4 1.8 4 4V129c0 2.2-1.8 4-4 4H72.5c-2.2 0-4-1.8-4-4V39.9c0-2.2 1.8-4 4-4z"/>
  </defs>
  <clipPath id="SVGID_2_">
    <use xlink:href="#SVGID_1_" style="overflow:visible"/>
  </clipPath>
  <g style="clip-path:url(#SVGID_2_)">
    <defs>
      <path id="SVGID_3_" d="M-30.5-56.5h351.6v427.9H-30.5z"/>
    </defs>
    <clipPath id="SVGID_4_">
      <use xlink:href="#SVGID_3_" style="overflow:visible"/>
    </clipPath>
    <path style="opacity:.2088;clip-path:url(#SVGID_4_);fill:#494c4e;enable-background:new" d="M63.8 31.2h162.1v106.5H63.8z"/>
  </g>
  <defs>
    <path id="SVGID_5_" d="M181.2 34 150.6 3.7c-1.6-1.5-4.1-1.5-5.6 0l-30.7 30.1-.5-.5 31.1-30.6c1.6-1.5 4.1-1.5 5.6 0l31.1 30.7-.4.6z"/>
  </defs>
  <clipPath id="SVGID_6_">
    <use xlink:href="#SVGID_5_" style="overflow:visible"/>
  </clipPath>
  <g style="clip-path:url(#SVGID_6_)">
    <defs>
      <path id="SVGID_7_" d="M-29.5-57.5h351.6v427.9H-29.5z"/>
    </defs>
    <clipPath id="SVGID_8_">
      <use xlink:href="#SVGID_7_" style="overflow:visible"/>
    </clipPath>
    <path style="clip-path:url(#SVGID_8_);fill:#6e7376" d="M109.1-4.7h77.3v43.4h-77.3z"/>
  </g>
  <g>
    <defs>
      <path id="SVGID_9_" d="M75.4 34h144.7c2.2 0 4 1.8 4 4v89.1c0 2.2-1.8 4-4 4H75.4c-2.2 0-4-1.8-4-4V38c0-2.2 1.8-4 4-4z"/>
    </defs>
    <clipPath id="SVGID_10_">
      <use xlink:href="#SVGID_9_" style="overflow:visible"/>
    </clipPath>
    <g style="clip-path:url(#SVGID_10_)">
      <defs>
        <path id="SVGID_11_" d="M-29.5-57.5h351.6v427.9H-29.5z"/>
      </defs>
      <clipPath id="SVGID_12_">
        <use xlink:href="#SVGID_11_" style="overflow:visible"/>
      </clipPath>
      <path style="clip-path:url(#SVGID_12_);fill:#e3e9f1" d="M66.7 29.2h162.1v106.5H66.7z"/>
    </g>
  </g>
  <g>
    <defs>
      <path id="SVGID_13_" d="M78.9 45.3h137.6v75.4H78.9z"/>
    </defs>
    <clipPath id="SVGID_14_">
      <use xlink:href="#SVGID_13_" style="overflow:visible"/>
    </clipPath>
    <g style="clip-path:url(#SVGID_14_)">
      <defs>
        <path id="SVGID_15_" d="M-29.5-57.5h351.6v427.9H-29.5z"/>
      </defs>
      <clipPath id="SVGID_16_">
        <use xlink:href="#SVGID_15_" style="overflow:visible"/>
      </clipPath>
      <path style="clip-path:url(#SVGID_16_);fill:#fff" d="M74.2 40.6h147v84.8h-147z"/>
    </g>
  </g>
  <g>
    <defs>
      <path id="SVGID_17_" d="M190.1 68.9h14.3V54.7h-14.3v14.2zm15.2.9h-16v-16h16v16z"/>
    </defs>
    <clipPath id="SVGID_18_">
      <use xlink:href="#SVGID_17_" style="overflow:visible"/>
    </clipPath>
    <g style="clip-path:url(#SVGID_18_)">
      <defs>
        <path id="SVGID_19_" d="M-29.5-57.5h351.6v427.9H-29.5z"/>
      </defs>
      <clipPath id="SVGID_20_">
        <use xlink:href="#SVGID_19_" style="overflow:visible"/>
      </clipPath>
      <path style="clip-path:url(#SVGID_20_);fill:#9ea5a9" d="M184.5 49H210v25.5h-25.5z"/>
    </g>
  </g>
  <g>
    <defs>
      <path id="SVGID_21_" d="m198.2 66-4.9-4.9c-.4-.4-.4-.9 0-1.4s.9-.4 1.3 0l3.6 3.6 11-11.1c.4-.4.9-.4 1.3 0s.4.9 0 1.3L198.2 66z"/>
    </defs>
    <clipPath id="SVGID_22_">
      <use xlink:href="#SVGID_21_" style="overflow:visible"/>
    </clipPath>
    <g style="clip-path:url(#SVGID_22_)">
      <defs>
        <path id="SVGID_23_" d="M-29.5-57.5h351.6v427.9H-29.5z"/>
      </defs>
      <clipPath id="SVGID_24_">
        <use xlink:href="#SVGID_23_" style="overflow:visible"/>
      </clipPath>
      <path style="clip-path:url(#SVGID_24_);fill:#46a661" d="M188.3 47.2h27.3v23.6h-27.3z"/>
    </g>
  </g>
  <g>
    <defs>
      <path id="SVGID_25_" d="M190.1 88.7h14.3V74.4h-14.3v14.3zm15.2.9h-16v-16h16v16z"/>
    </defs>
    <clipPath id="SVGID_26_">
      <use xlink:href="#SVGID_25_" style="overflow:visible"/>
    </clipPath>
    <g style="clip-path:url(#SVGID_26_)">
      <defs>
        <path id="SVGID_27_" d="M-29.5-57.5h351.6v427.9H-29.5z"/>
      </defs>
      <clipPath id="SVGID_28_">
        <use xlink:href="#SVGID_27_" style="overflow:visible"/>
      </clipPath>
      <path style="clip-path:url(#SVGID_28_);fill:#9ea5a9" d="M184.5 68.8H210v25.5h-25.5z"/>
    </g>
  </g>
  <g>
    <defs>
      <path id="SVGID_29_" d="m198.2 86.7-4.9-4.9c-.4-.4-.4-.9 0-1.4.4-.5.9-.4 1.3 0l3.6 3.6 11-11.1c.4-.4.9-.4 1.3 0s.4.9 0 1.3l-12.3 12.5z"/>
    </defs>
    <clipPath id="SVGID_30_">
      <use xlink:href="#SVGID_29_" style="overflow:visible"/>
    </clipPath>
    <g style="clip-path:url(#SVGID_30_)">
      <defs>
        <path id="SVGID_31_" d="M-29.5-57.5h351.6v427.9H-29.5z"/>
      </defs>
      <clipPath id="SVGID_32_">
        <use xlink:href="#SVGID_31_" style="overflow:visible"/>
      </clipPath>
      <path style="clip-path:url(#SVGID_32_);fill:#46a661" d="M188.3 67.9h27.3v23.6h-27.3z"/>
    </g>
  </g>
  <g>
    <defs>
      <path id="SVGID_33_" d="M190.1 109.5h14.3V95.2h-14.3v14.3zm15.2.8h-16v-16h16v16z"/>
    </defs>
    <clipPath id="SVGID_34_">
      <use xlink:href="#SVGID_33_" style="overflow:visible"/>
    </clipPath>
    <g style="clip-path:url(#SVGID_34_)">
      <defs>
        <path id="SVGID_35_" d="M-29.5-57.5h351.6v427.9H-29.5z"/>
      </defs>
      <clipPath id="SVGID_36_">
        <use xlink:href="#SVGID_35_" style="overflow:visible"/>
      </clipPath>
      <path style="clip-path:url(#SVGID_36_);fill:#9ea5a9" d="M184.5 89.6H210v25.5h-25.5z"/>
    </g>
  </g>
  <g>
    <defs>
      <path id="SVGID_37_" d="m198.2 106.5-4.9-4.9c-.4-.4-.4-.9 0-1.4.4-.5.9-.4 1.3 0l3.6 3.6 11-11.1c.4-.4.9-.4 1.3 0s.4.9 0 1.4l-12.3 12.4z"/>
    </defs>
    <clipPath id="SVGID_38_">
      <use xlink:href="#SVGID_37_" style="overflow:visible"/>
    </clipPath>
    <g style="clip-path:url(#SVGID_38_)">
      <defs>
        <path id="SVGID_39_" d="M-29.5-57.5h351.6v427.9H-29.5z"/>
      </defs>
      <clipPath id="SVGID_40_">
        <use xlink:href="#SVGID_39_" style="overflow:visible"/>
      </clipPath>
      <path style="clip-path:url(#SVGID_40_);fill:#46a661" d="M188.3 87.7h27.3v23.6h-27.3z"/>
    </g>
  </g>
  <g>
    <defs>
      <path id="SVGID_41_" d="M91.2 57.5h86.7c2.1 0 3.8 1.7 3.8 3.8 0 2.1-1.7 3.8-3.8 3.8H91.2c-2.1 0-3.8-1.7-3.8-3.8s1.6-3.8 3.8-3.8z"/>
    </defs>
    <clipPath id="SVGID_42_">
      <use xlink:href="#SVGID_41_" style="overflow:visible"/>
    </clipPath>
    <g style="clip-path:url(#SVGID_42_)">
      <defs>
        <path id="SVGID_43_" d="M-29.5-57.5h351.6v427.9H-29.5z"/>
      </defs>
      <clipPath id="SVGID_44_">
        <use xlink:href="#SVGID_43_" style="overflow:visible"/>
      </clipPath>
      <path style="clip-path:url(#SVGID_44_);fill:#e3e9f1" d="M82.7 52.8h103.7v17H82.7z"/>
    </g>
  </g>
  <g>
    <defs>
      <path id="SVGID_45_" d="M91.2 78.3h86.7c2.1 0 3.8 1.7 3.8 3.8s-1.7 3.8-3.8 3.8H91.2c-2.1 0-3.8-1.7-3.8-3.8s1.6-3.8 3.8-3.8z"/>
    </defs>
    <clipPath id="SVGID_46_">
      <use xlink:href="#SVGID_45_" style="overflow:visible"/>
    </clipPath>
    <g style="clip-path:url(#SVGID_46_)">
      <defs>
        <path id="SVGID_47_" d="M-29.5-57.5h351.6v427.9H-29.5z"/>
      </defs>
      <clipPath id="SVGID_48_">
        <use xlink:href="#SVGID_47_" style="overflow:visible"/>
      </clipPath>
      <path style="clip-path:url(#SVGID_48_);fill:#e3e9f1" d="M82.7 73.6h103.7v17H82.7z"/>
    </g>
  </g>
  <g>
    <defs>
      <path id="SVGID_49_" d="M91.2 98.1h86.7c2.1 0 3.8 1.7 3.8 3.8s-1.7 3.8-3.8 3.8H91.2c-2.1 0-3.8-1.7-3.8-3.8s1.6-3.8 3.8-3.8z"/>
    </defs>
    <clipPath id="SVGID_50_">
      <use xlink:href="#SVGID_49_" style="overflow:visible"/>
    </clipPath>
    <g style="clip-path:url(#SVGID_50_)">
      <defs>
        <path id="SVGID_51_" d="M-29.5-57.5h351.6v427.9H-29.5z"/>
      </defs>
      <clipPath id="SVGID_52_">
        <use xlink:href="#SVGID_51_" style="overflow:visible"/>
      </clipPath>
      <path style="clip-path:url(#SVGID_52_);fill:#e3e9f1" d="M82.7 93.3h103.7v17H82.7z"/>
    </g>
  </g>
</svg>
