<svg width="492" height="328" viewBox="0 0 492 328" fill="none" xmlns="http://www.w3.org/2000/svg">
<g clip-path="url(#clip0_338_1971)">
<path d="M350.195 157.178H348.247C348.092 157.178 347.944 157.117 347.834 157.007C347.724 156.898 347.663 156.75 347.663 156.595C347.663 156.44 347.724 156.291 347.834 156.182C347.944 156.073 348.092 156.011 348.247 156.011H350.195C350.272 156.011 350.348 156.026 350.419 156.055C350.49 156.085 350.554 156.128 350.608 156.182C350.663 156.236 350.706 156.301 350.735 156.371C350.764 156.442 350.78 156.518 350.78 156.595C350.78 156.671 350.764 156.747 350.735 156.818C350.706 156.889 350.663 156.953 350.608 157.007C350.554 157.062 350.49 157.105 350.419 157.134C350.348 157.163 350.272 157.178 350.195 157.178V157.178ZM345.519 157.178H343.571C343.494 157.178 343.418 157.163 343.347 157.134C343.276 157.105 343.212 157.062 343.157 157.007C343.103 156.953 343.06 156.889 343.031 156.818C343.001 156.747 342.986 156.671 342.986 156.595C342.986 156.518 343.001 156.442 343.031 156.371C343.06 156.301 343.103 156.236 343.157 156.182C343.212 156.128 343.276 156.085 343.347 156.055C343.418 156.026 343.494 156.011 343.571 156.011H345.519C345.674 156.011 345.823 156.073 345.933 156.182C346.042 156.291 346.104 156.44 346.104 156.595C346.104 156.75 346.042 156.898 345.933 157.007C345.823 157.117 345.674 157.178 345.519 157.178ZM340.843 157.178H338.894C338.739 157.178 338.591 157.117 338.481 157.007C338.371 156.898 338.31 156.75 338.31 156.595C338.31 156.44 338.371 156.291 338.481 156.182C338.591 156.073 338.739 156.011 338.894 156.011H340.843C340.92 156.011 340.996 156.026 341.067 156.055C341.137 156.085 341.202 156.128 341.256 156.182C341.31 156.236 341.353 156.301 341.383 156.371C341.412 156.442 341.427 156.518 341.427 156.595C341.427 156.671 341.412 156.747 341.383 156.818C341.353 156.889 341.31 156.953 341.256 157.007C341.202 157.062 341.137 157.105 341.067 157.134C340.996 157.163 340.92 157.178 340.843 157.178ZM336.166 157.178H334.218C334.063 157.178 333.914 157.117 333.804 157.007C333.695 156.898 333.633 156.75 333.633 156.595C333.633 156.44 333.695 156.291 333.804 156.182C333.914 156.073 334.063 156.011 334.218 156.011H336.166C336.243 156.011 336.319 156.026 336.39 156.055C336.461 156.085 336.525 156.128 336.58 156.182C336.634 156.236 336.677 156.301 336.706 156.371C336.736 156.442 336.751 156.518 336.751 156.595C336.751 156.671 336.736 156.747 336.706 156.818C336.677 156.889 336.634 156.953 336.58 157.007C336.525 157.062 336.461 157.105 336.39 157.134C336.319 157.163 336.243 157.178 336.166 157.178V157.178ZM331.49 157.178H329.542C329.465 157.178 329.389 157.163 329.318 157.134C329.247 157.105 329.183 157.062 329.129 157.007C329.074 156.953 329.031 156.889 329.002 156.818C328.973 156.747 328.958 156.671 328.958 156.595C328.958 156.518 328.973 156.442 329.002 156.371C329.031 156.301 329.074 156.236 329.129 156.182C329.183 156.128 329.247 156.085 329.318 156.055C329.389 156.026 329.465 156.011 329.542 156.011H331.49C331.567 156.011 331.643 156.026 331.714 156.055C331.784 156.085 331.849 156.128 331.903 156.182C331.957 156.236 332 156.301 332.03 156.371C332.059 156.442 332.074 156.518 332.074 156.595C332.074 156.671 332.059 156.747 332.03 156.818C332 156.889 331.957 156.953 331.903 157.007C331.849 157.062 331.784 157.105 331.714 157.134C331.643 157.163 331.567 157.178 331.49 157.178ZM326.813 157.178H324.868C324.791 157.178 324.715 157.163 324.644 157.134C324.573 157.105 324.509 157.062 324.454 157.007C324.4 156.953 324.357 156.889 324.328 156.818C324.298 156.747 324.283 156.671 324.283 156.595C324.283 156.518 324.298 156.442 324.328 156.371C324.357 156.301 324.4 156.236 324.454 156.182C324.509 156.128 324.573 156.085 324.644 156.055C324.715 156.026 324.791 156.011 324.868 156.011H326.816C326.892 156.011 326.968 156.026 327.039 156.055C327.11 156.085 327.175 156.128 327.229 156.182C327.283 156.236 327.326 156.301 327.355 156.371C327.385 156.442 327.4 156.518 327.4 156.595C327.4 156.671 327.385 156.747 327.355 156.818C327.326 156.889 327.283 156.953 327.229 157.007C327.175 157.062 327.11 157.105 327.039 157.134C326.968 157.163 326.892 157.178 326.816 157.178H326.813ZM322.137 157.178H320.189C320.112 157.178 320.036 157.163 319.965 157.134C319.894 157.105 319.83 157.062 319.776 157.007C319.721 156.953 319.678 156.889 319.649 156.818C319.62 156.747 319.605 156.671 319.605 156.595C319.605 156.518 319.62 156.442 319.649 156.371C319.678 156.301 319.721 156.236 319.776 156.182C319.83 156.128 319.894 156.085 319.965 156.055C320.036 156.026 320.112 156.011 320.189 156.011H322.14C322.217 156.011 322.293 156.026 322.363 156.055C322.434 156.085 322.499 156.128 322.553 156.182C322.607 156.236 322.65 156.301 322.68 156.371C322.709 156.442 322.724 156.518 322.724 156.595C322.724 156.671 322.709 156.747 322.68 156.818C322.65 156.889 322.607 156.953 322.553 157.007C322.499 157.062 322.434 157.105 322.363 157.134C322.293 157.163 322.217 157.178 322.14 157.178H322.137ZM317.461 157.178H315.512C315.436 157.178 315.36 157.163 315.289 157.134C315.218 157.105 315.153 157.062 315.099 157.007C315.045 156.953 315.002 156.889 314.973 156.818C314.943 156.747 314.928 156.671 314.928 156.595C314.928 156.518 314.943 156.442 314.973 156.371C315.002 156.301 315.045 156.236 315.099 156.182C315.153 156.128 315.218 156.085 315.289 156.055C315.36 156.026 315.436 156.011 315.512 156.011H317.461C317.537 156.011 317.613 156.026 317.684 156.055C317.755 156.085 317.819 156.128 317.874 156.182C317.928 156.236 317.971 156.301 318 156.371C318.03 156.442 318.045 156.518 318.045 156.595C318.045 156.671 318.03 156.747 318 156.818C317.971 156.889 317.928 156.953 317.874 157.007C317.819 157.062 317.755 157.105 317.684 157.134C317.613 157.163 317.537 157.178 317.461 157.178V157.178ZM312.785 157.178H310.836C310.681 157.178 310.532 157.117 310.423 157.007C310.313 156.898 310.252 156.75 310.252 156.595C310.252 156.44 310.313 156.291 310.423 156.182C310.532 156.073 310.681 156.011 310.836 156.011H312.785C312.861 156.011 312.937 156.026 313.008 156.055C313.079 156.085 313.144 156.128 313.198 156.182C313.252 156.236 313.295 156.301 313.325 156.371C313.354 156.442 313.369 156.518 313.369 156.595C313.369 156.671 313.354 156.747 313.325 156.818C313.295 156.889 313.252 156.953 313.198 157.007C313.144 157.062 313.079 157.105 313.008 157.134C312.937 157.163 312.861 157.178 312.785 157.178V157.178ZM308.108 157.178H306.159C306.004 157.178 305.856 157.117 305.746 157.007C305.637 156.898 305.575 156.75 305.575 156.595C305.575 156.44 305.637 156.291 305.746 156.182C305.856 156.073 306.004 156.011 306.159 156.011H308.108C308.185 156.011 308.261 156.026 308.332 156.055C308.403 156.085 308.467 156.128 308.521 156.182C308.576 156.236 308.619 156.301 308.648 156.371C308.677 156.442 308.693 156.518 308.693 156.595C308.693 156.671 308.677 156.747 308.648 156.818C308.619 156.889 308.576 156.953 308.521 157.007C308.467 157.062 308.403 157.105 308.332 157.134C308.261 157.163 308.185 157.178 308.108 157.178V157.178ZM303.432 157.178H301.483C301.328 157.178 301.179 157.117 301.07 157.007C300.96 156.898 300.899 156.75 300.899 156.595C300.899 156.44 300.96 156.291 301.07 156.182C301.179 156.073 301.328 156.011 301.483 156.011H303.432C303.508 156.011 303.584 156.026 303.655 156.055C303.726 156.085 303.791 156.128 303.845 156.182C303.899 156.236 303.942 156.301 303.972 156.371C304.001 156.442 304.016 156.518 304.016 156.595C304.016 156.671 304.001 156.747 303.972 156.818C303.942 156.889 303.899 156.953 303.845 157.007C303.791 157.062 303.726 157.105 303.655 157.134C303.584 157.163 303.508 157.178 303.432 157.178V157.178ZM298.755 157.178H296.807C296.73 157.178 296.654 157.163 296.584 157.134C296.513 157.105 296.448 157.062 296.394 157.007C296.34 156.953 296.297 156.889 296.267 156.818C296.238 156.747 296.223 156.671 296.223 156.595C296.223 156.518 296.238 156.442 296.267 156.371C296.297 156.301 296.34 156.236 296.394 156.182C296.448 156.128 296.513 156.085 296.584 156.055C296.654 156.026 296.73 156.011 296.807 156.011H298.755C298.91 156.011 299.059 156.073 299.168 156.182C299.278 156.291 299.34 156.44 299.34 156.595C299.34 156.75 299.278 156.898 299.168 157.007C299.059 157.117 298.91 157.178 298.755 157.178V157.178ZM294.079 157.178H292.131C292.054 157.178 291.978 157.163 291.907 157.134C291.836 157.105 291.772 157.062 291.717 157.007C291.663 156.953 291.62 156.889 291.591 156.818C291.561 156.747 291.546 156.671 291.546 156.595C291.546 156.518 291.561 156.442 291.591 156.371C291.62 156.301 291.663 156.236 291.717 156.182C291.772 156.128 291.836 156.085 291.907 156.055C291.978 156.026 292.054 156.011 292.131 156.011H294.079C294.155 156.011 294.231 156.026 294.302 156.055C294.373 156.085 294.438 156.128 294.492 156.182C294.546 156.236 294.589 156.301 294.619 156.371C294.648 156.442 294.663 156.518 294.663 156.595C294.663 156.671 294.648 156.747 294.619 156.818C294.589 156.889 294.546 156.953 294.492 157.007C294.438 157.062 294.373 157.105 294.302 157.134C294.231 157.163 294.155 157.178 294.079 157.178V157.178ZM289.402 157.178H287.454C287.377 157.178 287.301 157.163 287.231 157.134C287.16 157.105 287.095 157.062 287.041 157.007C286.987 156.953 286.944 156.889 286.914 156.818C286.885 156.747 286.87 156.671 286.87 156.595C286.87 156.518 286.885 156.442 286.914 156.371C286.944 156.301 286.987 156.236 287.041 156.182C287.095 156.128 287.16 156.085 287.231 156.055C287.301 156.026 287.377 156.011 287.454 156.011H289.402C289.479 156.011 289.555 156.026 289.626 156.055C289.697 156.085 289.761 156.128 289.815 156.182C289.87 156.236 289.913 156.301 289.942 156.371C289.971 156.442 289.987 156.518 289.987 156.595C289.987 156.671 289.971 156.747 289.942 156.818C289.913 156.889 289.87 156.953 289.815 157.007C289.761 157.062 289.697 157.105 289.626 157.134C289.555 157.163 289.479 157.178 289.402 157.178V157.178ZM284.726 157.178H282.778C282.701 157.178 282.625 157.163 282.554 157.134C282.483 157.105 282.419 157.062 282.364 157.007C282.31 156.953 282.267 156.889 282.238 156.818C282.208 156.747 282.193 156.671 282.193 156.595C282.193 156.518 282.208 156.442 282.238 156.371C282.267 156.301 282.31 156.236 282.364 156.182C282.419 156.128 282.483 156.085 282.554 156.055C282.625 156.026 282.701 156.011 282.778 156.011H284.726C284.881 156.011 285.03 156.073 285.14 156.182C285.249 156.291 285.311 156.44 285.311 156.595C285.311 156.75 285.249 156.898 285.14 157.007C285.03 157.117 284.881 157.178 284.726 157.178V157.178ZM280.05 157.178H278.101C278.024 157.178 277.948 157.163 277.878 157.134C277.807 157.105 277.742 157.062 277.688 157.007C277.634 156.953 277.591 156.889 277.561 156.818C277.532 156.747 277.517 156.671 277.517 156.595C277.517 156.518 277.532 156.442 277.561 156.371C277.591 156.301 277.634 156.236 277.688 156.182C277.742 156.128 277.807 156.085 277.878 156.055C277.948 156.026 278.024 156.011 278.101 156.011H280.05C280.205 156.011 280.354 156.073 280.463 156.182C280.573 156.291 280.634 156.44 280.634 156.595C280.634 156.75 280.573 156.898 280.463 157.007C280.354 157.117 280.205 157.178 280.05 157.178V157.178ZM275.374 157.178H273.425C273.348 157.178 273.272 157.163 273.201 157.134C273.13 157.105 273.066 157.062 273.012 157.007C272.957 156.953 272.914 156.889 272.885 156.818C272.855 156.747 272.84 156.671 272.84 156.595C272.84 156.518 272.855 156.442 272.885 156.371C272.914 156.301 272.957 156.236 273.012 156.182C273.066 156.128 273.13 156.085 273.201 156.055C273.272 156.026 273.348 156.011 273.425 156.011H275.374C275.528 156.011 275.677 156.073 275.787 156.182C275.896 156.291 275.958 156.44 275.958 156.595C275.958 156.75 275.896 156.898 275.787 157.007C275.677 157.117 275.528 157.178 275.374 157.178V157.178ZM270.697 157.178H268.748C268.593 157.178 268.445 157.117 268.335 157.007C268.225 156.898 268.164 156.75 268.164 156.595C268.164 156.44 268.225 156.291 268.335 156.182C268.445 156.073 268.593 156.011 268.748 156.011H270.697C270.774 156.011 270.85 156.026 270.921 156.055C270.992 156.085 271.056 156.128 271.11 156.182C271.164 156.236 271.207 156.301 271.237 156.371C271.266 156.442 271.281 156.518 271.281 156.595C271.281 156.671 271.266 156.747 271.237 156.818C271.207 156.889 271.164 156.953 271.11 157.007C271.056 157.062 270.992 157.105 270.921 157.134C270.85 157.163 270.774 157.178 270.697 157.178ZM266.021 157.178H264.07C263.993 157.178 263.917 157.163 263.846 157.134C263.775 157.105 263.711 157.062 263.656 157.007C263.602 156.953 263.559 156.889 263.53 156.818C263.5 156.747 263.485 156.671 263.485 156.595C263.485 156.518 263.5 156.442 263.53 156.371C263.559 156.301 263.602 156.236 263.656 156.182C263.711 156.128 263.775 156.085 263.846 156.055C263.917 156.026 263.993 156.011 264.07 156.011H266.018C266.173 156.011 266.321 156.073 266.431 156.182C266.54 156.291 266.602 156.44 266.602 156.595C266.602 156.75 266.54 156.898 266.431 157.007C266.321 157.117 266.173 157.178 266.018 157.178H266.021ZM261.344 157.178H259.396C259.319 157.178 259.243 157.163 259.172 157.134C259.101 157.105 259.037 157.062 258.983 157.007C258.928 156.953 258.885 156.889 258.856 156.818C258.827 156.747 258.812 156.671 258.812 156.595C258.812 156.518 258.827 156.442 258.856 156.371C258.885 156.301 258.928 156.236 258.983 156.182C259.037 156.128 259.101 156.085 259.172 156.055C259.243 156.026 259.319 156.011 259.396 156.011H261.342C261.419 156.011 261.495 156.026 261.565 156.055C261.636 156.085 261.701 156.128 261.755 156.182C261.809 156.236 261.852 156.301 261.882 156.371C261.911 156.442 261.926 156.518 261.926 156.595C261.926 156.671 261.911 156.747 261.882 156.818C261.852 156.889 261.809 156.953 261.755 157.007C261.701 157.062 261.636 157.105 261.565 157.134C261.495 157.163 261.419 157.178 261.342 157.178H261.344ZM256.668 157.178H254.719C254.643 157.178 254.567 157.163 254.496 157.134C254.425 157.105 254.361 157.062 254.306 157.007C254.252 156.953 254.209 156.889 254.18 156.818C254.15 156.747 254.135 156.671 254.135 156.595C254.135 156.518 254.15 156.442 254.18 156.371C254.209 156.301 254.252 156.236 254.306 156.182C254.361 156.128 254.425 156.085 254.496 156.055C254.567 156.026 254.643 156.011 254.719 156.011H256.668C256.744 156.011 256.82 156.026 256.891 156.055C256.962 156.085 257.026 156.128 257.081 156.182C257.135 156.236 257.178 156.301 257.207 156.371C257.237 156.442 257.252 156.518 257.252 156.595C257.252 156.671 257.237 156.747 257.207 156.818C257.178 156.889 257.135 156.953 257.081 157.007C257.026 157.062 256.962 157.105 256.891 157.134C256.82 157.163 256.744 157.178 256.668 157.178V157.178ZM251.992 157.178H250.043C249.966 157.178 249.89 157.163 249.819 157.134C249.748 157.105 249.684 157.062 249.63 157.007C249.576 156.953 249.532 156.889 249.503 156.818C249.474 156.747 249.459 156.671 249.459 156.595C249.459 156.518 249.474 156.442 249.503 156.371C249.532 156.301 249.576 156.236 249.63 156.182C249.684 156.128 249.748 156.085 249.819 156.055C249.89 156.026 249.966 156.011 250.043 156.011H251.992C252.147 156.011 252.295 156.073 252.405 156.182C252.514 156.291 252.576 156.44 252.576 156.595C252.576 156.75 252.514 156.898 252.405 157.007C252.295 157.117 252.147 157.178 251.992 157.178V157.178ZM247.315 157.178H245.366C245.29 157.178 245.214 157.163 245.143 157.134C245.072 157.105 245.008 157.062 244.953 157.007C244.899 156.953 244.856 156.889 244.827 156.818C244.797 156.747 244.782 156.671 244.782 156.595C244.782 156.518 244.797 156.442 244.827 156.371C244.856 156.301 244.899 156.236 244.953 156.182C245.008 156.128 245.072 156.085 245.143 156.055C245.214 156.026 245.29 156.011 245.366 156.011H247.315C247.47 156.011 247.619 156.073 247.728 156.182C247.838 156.291 247.9 156.44 247.9 156.595C247.9 156.75 247.838 156.898 247.728 157.007C247.619 157.117 247.47 157.178 247.315 157.178V157.178ZM242.639 157.178H240.69C240.535 157.178 240.386 157.117 240.277 157.007C240.167 156.898 240.106 156.75 240.106 156.595C240.106 156.44 240.167 156.291 240.277 156.182C240.386 156.073 240.535 156.011 240.69 156.011H242.639C242.716 156.011 242.791 156.026 242.862 156.055C242.933 156.085 242.998 156.128 243.052 156.182C243.106 156.236 243.149 156.301 243.179 156.371C243.208 156.442 243.223 156.518 243.223 156.595C243.223 156.671 243.208 156.747 243.179 156.818C243.149 156.889 243.106 156.953 243.052 157.007C242.998 157.062 242.933 157.105 242.862 157.134C242.791 157.163 242.716 157.178 242.639 157.178ZM237.962 157.178H236.013C235.937 157.178 235.861 157.163 235.79 157.134C235.719 157.105 235.655 157.062 235.6 157.007C235.546 156.953 235.503 156.889 235.474 156.818C235.444 156.747 235.429 156.671 235.429 156.595C235.429 156.518 235.444 156.442 235.474 156.371C235.503 156.301 235.546 156.236 235.6 156.182C235.655 156.128 235.719 156.085 235.79 156.055C235.861 156.026 235.937 156.011 236.013 156.011H237.962C238.117 156.011 238.266 156.073 238.375 156.182C238.485 156.291 238.547 156.44 238.547 156.595C238.547 156.75 238.485 156.898 238.375 157.007C238.266 157.117 238.117 157.178 237.962 157.178V157.178ZM233.286 157.178H231.338C231.261 157.178 231.185 157.163 231.114 157.134C231.043 157.105 230.979 157.062 230.925 157.007C230.87 156.953 230.827 156.889 230.798 156.818C230.768 156.747 230.753 156.671 230.753 156.595C230.753 156.518 230.768 156.442 230.798 156.371C230.827 156.301 230.87 156.236 230.925 156.182C230.979 156.128 231.043 156.085 231.114 156.055C231.185 156.026 231.261 156.011 231.338 156.011H233.286C233.441 156.011 233.589 156.073 233.699 156.182C233.809 156.291 233.87 156.44 233.87 156.595C233.87 156.75 233.809 156.898 233.699 157.007C233.589 157.117 233.441 157.178 233.286 157.178V157.178ZM228.609 157.178H226.661C226.584 157.178 226.508 157.163 226.438 157.134C226.367 157.105 226.302 157.062 226.248 157.007C226.194 156.953 226.151 156.889 226.121 156.818C226.092 156.747 226.077 156.671 226.077 156.595C226.077 156.518 226.092 156.442 226.121 156.371C226.151 156.301 226.194 156.236 226.248 156.182C226.302 156.128 226.367 156.085 226.438 156.055C226.508 156.026 226.584 156.011 226.661 156.011H228.61C228.687 156.011 228.763 156.026 228.834 156.055C228.904 156.085 228.969 156.128 229.023 156.182C229.077 156.236 229.12 156.301 229.15 156.371C229.179 156.442 229.194 156.518 229.194 156.595C229.194 156.671 229.179 156.747 229.15 156.818C229.12 156.889 229.077 156.953 229.023 157.007C228.969 157.062 228.904 157.105 228.834 157.134C228.763 157.163 228.687 157.178 228.61 157.178H228.609ZM223.933 157.178H221.985C221.83 157.178 221.681 157.117 221.572 157.007C221.462 156.898 221.4 156.75 221.4 156.595C221.4 156.44 221.462 156.291 221.572 156.182C221.681 156.073 221.83 156.011 221.985 156.011H223.933C224.01 156.011 224.086 156.026 224.156 156.055C224.227 156.085 224.292 156.128 224.346 156.182C224.4 156.236 224.443 156.301 224.473 156.371C224.502 156.442 224.517 156.518 224.517 156.595C224.517 156.671 224.502 156.747 224.473 156.818C224.443 156.889 224.4 156.953 224.346 157.007C224.292 157.062 224.227 157.105 224.156 157.134C224.086 157.163 224.01 157.178 223.933 157.178V157.178Z" fill="#B5BDC2"/>
<path d="M431.427 288.033H368.308C368.08 288.033 367.854 287.988 367.643 287.901C367.432 287.814 367.241 287.686 367.079 287.525C366.918 287.363 366.79 287.172 366.703 286.961C366.616 286.751 366.571 286.525 366.571 286.297C366.571 286.069 366.616 285.843 366.703 285.633C366.79 285.422 366.918 285.231 367.079 285.07C367.241 284.908 367.432 284.781 367.643 284.693C367.854 284.606 368.08 284.561 368.308 284.561H375.322C376.264 284.577 377.18 284.244 377.892 283.626C378.604 283.009 379.062 282.15 379.178 281.215C379.229 280.7 379.171 280.179 379.009 279.687C378.846 279.196 378.582 278.743 378.234 278.359C377.886 277.976 377.461 277.669 376.987 277.459C376.513 277.249 376 277.14 375.482 277.14H239.743C238.8 277.124 237.885 277.457 237.173 278.075C236.461 278.693 236.003 279.551 235.886 280.486C235.835 281.002 235.893 281.522 236.056 282.014C236.218 282.506 236.482 282.958 236.83 283.342C237.179 283.726 237.603 284.033 238.077 284.243C238.551 284.452 239.064 284.561 239.583 284.561H334.436C334.897 284.561 335.339 284.744 335.665 285.07C335.991 285.395 336.174 285.837 336.174 286.297C336.174 286.758 335.991 287.199 335.665 287.525C335.339 287.85 334.897 288.033 334.436 288.033H278.967C278.025 288.018 277.109 288.35 276.397 288.968C275.686 289.586 275.228 290.444 275.111 291.379C275.06 291.895 275.118 292.415 275.281 292.907C275.443 293.399 275.707 293.851 276.055 294.235C276.404 294.619 276.828 294.926 277.302 295.136C277.776 295.346 278.289 295.454 278.808 295.454H431.587C432.106 295.454 432.619 295.346 433.093 295.136C433.567 294.926 433.992 294.619 434.34 294.235C434.688 293.851 434.952 293.399 435.114 292.907C435.277 292.415 435.335 291.895 435.284 291.379C435.168 290.444 434.709 289.586 433.997 288.968C433.285 288.35 432.37 288.017 431.427 288.033Z" fill="#E3E9F1"/>
<path d="M412.292 277.14H389.324C387.272 277.14 385.609 278.802 385.609 280.851C385.609 282.9 387.272 284.561 389.324 284.561H412.292C414.343 284.561 416.006 282.9 416.006 280.851C416.006 278.802 414.343 277.14 412.292 277.14Z" fill="#F1F5FB"/>
<path d="M388.067 300.401H318.812C316.761 300.401 315.098 302.063 315.098 304.112C315.098 306.161 316.761 307.822 318.812 307.822H388.067C390.118 307.822 391.781 306.161 391.781 304.112C391.781 302.063 390.118 300.401 388.067 300.401Z" fill="#E3E9F1"/>
<path d="M314.058 200.713H297.007C296.801 200.713 296.597 200.672 296.407 200.593C296.216 200.515 296.044 200.399 295.898 200.254C295.752 200.108 295.637 199.935 295.558 199.745C295.479 199.555 295.439 199.352 295.439 199.146V199.146C295.439 198.73 295.604 198.332 295.898 198.038C296.192 197.744 296.591 197.579 297.007 197.579H306.44C307.201 197.594 307.94 197.326 308.515 196.828C309.089 196.329 309.458 195.635 309.549 194.881C309.586 194.471 309.536 194.058 309.404 193.668C309.272 193.279 309.061 192.921 308.783 192.617C308.505 192.314 308.167 192.071 307.79 191.905C307.413 191.74 307.006 191.654 306.594 191.654H264.415C263.654 191.639 262.915 191.907 262.341 192.405C261.766 192.904 261.398 193.598 261.306 194.352C261.27 194.762 261.319 195.175 261.451 195.564C261.583 195.954 261.794 196.312 262.072 196.615C262.35 196.919 262.688 197.161 263.065 197.327C263.442 197.493 263.849 197.579 264.261 197.579H281.78C282.196 197.579 282.595 197.744 282.889 198.038C283.184 198.332 283.349 198.73 283.349 199.146V199.146C283.349 199.561 283.184 199.96 282.889 200.254C282.595 200.548 282.196 200.713 281.78 200.713H272.032C271.271 200.698 270.532 200.965 269.958 201.464C269.383 201.963 269.015 202.656 268.924 203.411C268.887 203.821 268.936 204.233 269.068 204.623C269.2 205.013 269.412 205.371 269.69 205.674C269.968 205.978 270.306 206.22 270.682 206.386C271.059 206.552 271.466 206.638 271.878 206.638H277.381C277.793 206.638 278.189 206.801 278.48 207.092C278.771 207.383 278.935 207.778 278.935 208.189V208.189C278.935 208.609 278.768 209.011 278.471 209.308C278.174 209.605 277.771 209.771 277.351 209.771H254.136C253.375 209.756 252.636 210.024 252.062 210.523C251.487 211.021 251.119 211.715 251.027 212.47C250.991 212.879 251.04 213.292 251.172 213.682C251.304 214.072 251.516 214.43 251.794 214.733C252.072 215.037 252.41 215.279 252.787 215.445C253.163 215.611 253.571 215.696 253.982 215.697H296.161C296.922 215.711 297.661 215.444 298.236 214.945C298.81 214.447 299.179 213.753 299.27 212.998C299.307 212.588 299.257 212.176 299.125 211.786C298.993 211.396 298.782 211.038 298.504 210.735C298.226 210.431 297.888 210.189 297.511 210.023C297.134 209.857 296.727 209.771 296.315 209.771H288.905C288.489 209.771 288.09 209.606 287.796 209.312C287.502 209.019 287.337 208.62 287.337 208.205V208.205C287.337 207.789 287.502 207.39 287.796 207.097C288.09 206.803 288.489 206.638 288.905 206.638H314.211C314.622 206.638 315.03 206.552 315.406 206.386C315.783 206.22 316.121 205.978 316.399 205.674C316.677 205.371 316.889 205.013 317.021 204.623C317.152 204.233 317.202 203.821 317.165 203.411C317.074 202.656 316.705 201.963 316.131 201.464C315.557 200.966 314.818 200.698 314.058 200.713V200.713Z" fill="#F1F5FB"/>
<path d="M408.44 147.754H392.992C392.806 147.754 392.621 147.717 392.449 147.646C392.276 147.574 392.12 147.47 391.988 147.338C391.856 147.206 391.751 147.05 391.68 146.877C391.609 146.705 391.572 146.52 391.572 146.334C391.572 146.148 391.609 145.963 391.68 145.791C391.751 145.619 391.856 145.462 391.988 145.331C392.12 145.199 392.277 145.094 392.449 145.023C392.621 144.952 392.806 144.915 392.992 144.915H401.539C402.229 144.928 402.898 144.686 403.418 144.234C403.939 143.783 404.273 143.154 404.355 142.47C404.389 142.099 404.344 141.725 404.225 141.372C404.106 141.018 403.914 140.694 403.662 140.419C403.41 140.143 403.104 139.923 402.762 139.773C402.421 139.623 402.052 139.545 401.679 139.545H363.466C362.776 139.531 362.107 139.774 361.586 140.225C361.066 140.677 360.732 141.306 360.649 141.989C360.616 142.361 360.66 142.735 360.779 143.088C360.899 143.442 361.09 143.766 361.342 144.041C361.594 144.317 361.901 144.537 362.242 144.687C362.584 144.837 362.953 144.915 363.326 144.915H379.198C379.575 144.915 379.937 145.064 380.203 145.331C380.469 145.597 380.619 145.958 380.619 146.334V146.334C380.619 146.52 380.582 146.705 380.511 146.877C380.44 147.05 380.335 147.206 380.203 147.338C380.071 147.47 379.915 147.574 379.742 147.646C379.57 147.717 379.385 147.754 379.198 147.754H370.369C369.68 147.74 369.011 147.983 368.49 148.435C367.97 148.886 367.636 149.515 367.553 150.198C367.519 150.57 367.564 150.944 367.683 151.297C367.802 151.65 367.994 151.975 368.246 152.25C368.498 152.525 368.804 152.745 369.146 152.895C369.487 153.046 369.856 153.123 370.229 153.123H375.215C375.589 153.123 375.947 153.271 376.211 153.535C376.475 153.799 376.623 154.157 376.623 154.529C376.623 154.91 376.472 155.275 376.202 155.544C375.933 155.813 375.568 155.964 375.187 155.964H354.154C353.464 155.95 352.795 156.193 352.274 156.644C351.754 157.096 351.42 157.724 351.337 158.408C351.304 158.779 351.348 159.154 351.468 159.507C351.587 159.86 351.779 160.185 352.031 160.46C352.282 160.735 352.589 160.955 352.93 161.105C353.272 161.255 353.641 161.333 354.014 161.333H392.227C392.916 161.347 393.586 161.104 394.106 160.652C394.627 160.201 394.961 159.572 395.043 158.889C395.077 158.517 395.032 158.143 394.913 157.79C394.794 157.437 394.602 157.112 394.35 156.837C394.098 156.562 393.792 156.342 393.45 156.192C393.109 156.041 392.74 155.964 392.367 155.964H385.654C385.277 155.964 384.915 155.814 384.649 155.548C384.382 155.281 384.232 154.92 384.232 154.544V154.544C384.232 154.167 384.382 153.806 384.649 153.54C384.915 153.274 385.277 153.124 385.654 153.124H408.58C408.953 153.124 409.322 153.046 409.663 152.896C410.005 152.746 410.311 152.526 410.563 152.251C410.815 151.976 411.007 151.651 411.126 151.298C411.245 150.945 411.29 150.57 411.256 150.199C411.174 149.515 410.84 148.887 410.32 148.435C409.799 147.983 409.13 147.74 408.44 147.754V147.754Z" fill="#F1F5FB"/>
<path d="M260.754 201.715H249.3C248.217 201.715 247.338 202.593 247.338 203.675C247.338 204.758 248.217 205.636 249.3 205.636H260.754C261.838 205.636 262.717 204.758 262.717 203.675C262.717 202.593 261.838 201.715 260.754 201.715Z" fill="#F1F5FB"/>
<path d="M442.934 162.639H430.876C429.735 162.639 428.811 163.563 428.811 164.702C428.811 165.842 429.735 166.766 430.876 166.766H442.934C444.075 166.766 445 165.842 445 164.702C445 163.563 444.075 162.639 442.934 162.639Z" fill="#F9FBFF"/>
<path d="M325.893 192.951H318.836C317.753 192.951 316.874 193.829 316.874 194.912C316.874 195.994 317.753 196.872 318.836 196.872H325.893C326.977 196.872 327.856 195.994 327.856 194.912C327.856 193.829 326.977 192.951 325.893 192.951Z" fill="#F9FBFF"/>
<path d="M305.874 179.303H298.817C297.733 179.303 296.854 180.181 296.854 181.264C296.854 182.346 297.733 183.224 298.817 183.224H305.874C306.958 183.224 307.836 182.346 307.836 181.264C307.836 180.181 306.958 179.303 305.874 179.303Z" fill="#F9FBFF"/>
<path d="M325.248 143.03H318.191C317.107 143.03 316.229 143.907 316.229 144.99C316.229 146.072 317.107 146.95 318.191 146.95H325.248C326.332 146.95 327.21 146.072 327.21 144.99C327.21 143.907 326.332 143.03 325.248 143.03Z" fill="#F9FBFF"/>
<path d="M374.316 169.183H367.259C366.176 169.183 365.297 170.061 365.297 171.143C365.297 172.226 366.176 173.103 367.259 173.103H374.316C375.4 173.103 376.279 172.226 376.279 171.143C376.279 170.061 375.4 169.183 374.316 169.183Z" fill="#F9FBFF"/>
<path d="M429.439 216.609H421.63C420.431 216.609 419.459 217.58 419.459 218.777C419.459 219.975 420.431 220.946 421.63 220.946H429.439C430.638 220.946 431.61 219.975 431.61 218.777C431.61 217.58 430.638 216.609 429.439 216.609Z" fill="#F1F5FB"/>
<path d="M424.923 160.194H417.115C415.916 160.194 414.943 161.165 414.943 162.363C414.943 163.561 415.916 164.532 417.115 164.532H424.923C426.122 164.532 427.094 163.561 427.094 162.363C427.094 161.165 426.122 160.194 424.923 160.194Z" fill="#F1F5FB"/>
<path d="M331.76 108.853H323.952C322.752 108.853 321.78 109.824 321.78 111.022C321.78 112.22 322.752 113.191 323.952 113.191H331.76C332.959 113.191 333.931 112.22 333.931 111.022C333.931 109.824 332.959 108.853 331.76 108.853Z" fill="#F1F5FB"/>
<path d="M354.099 60.5568H346.29C345.091 60.5568 344.119 61.5278 344.119 62.7256C344.119 63.9234 345.091 64.8944 346.29 64.8944H354.099C355.298 64.8944 356.27 63.9234 356.27 62.7256C356.27 61.5278 355.298 60.5568 354.099 60.5568Z" fill="#F9FBFF"/>
<path d="M348.339 132.232H340.531C339.332 132.232 338.359 133.203 338.359 134.401C338.359 135.599 339.332 136.57 340.531 136.57H348.339C349.538 136.57 350.51 135.599 350.51 134.401C350.51 133.203 349.538 132.232 348.339 132.232Z" fill="#F1F5FB"/>
<path d="M403.431 171.739H389.135C387.936 171.739 386.964 172.71 386.964 173.908C386.964 175.106 387.936 176.077 389.135 176.077H403.431C404.63 176.077 405.602 175.106 405.602 173.908C405.602 172.71 404.63 171.739 403.431 171.739Z" fill="#F9FBFF"/>
<path d="M304.887 301.652H295.466C294.267 301.652 293.295 302.623 293.295 303.821C293.295 305.018 294.267 305.989 295.466 305.989H304.887C306.087 305.989 307.059 305.018 307.059 303.821C307.059 302.623 306.087 301.652 304.887 301.652Z" fill="#F1F5FB"/>
<path d="M379.803 323.663H365.507C364.308 323.663 363.336 324.634 363.336 325.831C363.336 327.029 364.308 328 365.507 328H379.803C381.002 328 381.974 327.029 381.974 325.831C381.974 324.634 381.002 323.663 379.803 323.663Z" fill="#F1F5FB"/>
<path d="M395.079 314.802H386.543C385.344 314.802 384.372 315.773 384.372 316.971C384.372 318.169 385.344 319.14 386.543 319.14H395.079C396.278 319.14 397.25 318.169 397.25 316.971C397.25 315.773 396.278 314.802 395.079 314.802Z" fill="#F1F5FB"/>
<path d="M373.112 314.802H337.99C336.791 314.802 335.818 315.773 335.818 316.971C335.818 318.169 336.791 319.14 337.99 319.14H373.112C374.311 319.14 375.283 318.169 375.283 316.971C375.283 315.773 374.311 314.802 373.112 314.802Z" fill="#F1F5FB"/>
<path d="M441.505 207.305H427.084C425.56 207.305 424.325 208.539 424.325 210.061V210.061C424.325 211.583 425.56 212.817 427.084 212.817H441.505C443.029 212.817 444.264 211.583 444.264 210.061V210.061C444.264 208.539 443.029 207.305 441.505 207.305Z" fill="#F1F5FB"/>
<path d="M389.957 104.901H382.149C380.95 104.901 379.978 105.872 379.978 107.07C379.978 108.268 380.95 109.239 382.149 109.239H389.957C391.156 109.239 392.129 108.268 392.129 107.07C392.129 105.872 391.156 104.901 389.957 104.901Z" fill="#F1F5FB"/>
<path d="M402.024 95.5983H387.602C386.079 95.5983 384.844 96.8321 384.844 98.354V98.3547C384.844 99.8767 386.079 101.11 387.602 101.11H402.024C403.547 101.11 404.782 99.8767 404.782 98.3547V98.354C404.782 96.8321 403.547 95.5983 402.024 95.5983Z" fill="#F1F5FB"/>
<path d="M431.698 192.454H409.281C409.021 192.454 408.764 192.403 408.523 192.303C408.283 192.204 408.065 192.058 407.881 191.875C407.697 191.691 407.551 191.473 407.452 191.233C407.352 190.993 407.301 190.736 407.301 190.476V190.476C407.301 189.951 407.51 189.448 407.881 189.077C408.252 188.706 408.756 188.498 409.281 188.498H415.783C416.702 188.513 417.594 188.188 418.288 187.586C418.982 186.984 419.429 186.147 419.542 185.236C419.592 184.733 419.535 184.226 419.377 183.746C419.218 183.267 418.961 182.826 418.621 182.452C418.282 182.077 417.868 181.778 417.406 181.574C416.944 181.369 416.444 181.263 415.938 181.263H379.793C378.874 181.248 377.982 181.573 377.288 182.175C376.594 182.777 376.148 183.614 376.034 184.525C375.984 185.028 376.041 185.535 376.199 186.015C376.358 186.494 376.615 186.935 376.954 187.309C377.294 187.683 377.708 187.982 378.17 188.187C378.632 188.392 379.132 188.498 379.637 188.498H397.874C398.399 188.498 398.903 188.706 399.274 189.077C399.646 189.448 399.854 189.951 399.854 190.476V190.476C399.854 190.736 399.803 190.993 399.704 191.233C399.604 191.473 399.458 191.691 399.274 191.875C399.09 192.058 398.872 192.204 398.632 192.303C398.392 192.403 398.134 192.454 397.874 192.454H395.71C394.791 192.439 393.899 192.763 393.205 193.365C392.511 193.968 392.064 194.805 391.951 195.716C391.901 196.218 391.957 196.726 392.116 197.205C392.274 197.685 392.532 198.126 392.871 198.5C393.21 198.874 393.624 199.173 394.087 199.378C394.549 199.583 395.049 199.688 395.554 199.688H431.853C432.359 199.688 432.859 199.583 433.321 199.378C433.783 199.173 434.197 198.874 434.537 198.5C434.876 198.126 435.134 197.685 435.292 197.205C435.451 196.726 435.507 196.218 435.457 195.716C435.344 194.805 434.897 193.968 434.203 193.365C433.509 192.763 432.617 192.439 431.698 192.454V192.454Z" fill="#F1F5FB"/>
<path d="M368.848 86.8536H346.43C346.17 86.8537 345.912 86.8026 345.672 86.7032C345.432 86.6039 345.214 86.4582 345.03 86.2746C344.846 86.0909 344.7 85.8729 344.6 85.6329C344.501 85.3929 344.45 85.1357 344.45 84.8759C344.45 84.3512 344.658 83.848 345.03 83.4769C345.401 83.1059 345.905 82.8975 346.43 82.8975H352.933C353.852 82.9128 354.745 82.5882 355.439 81.9861C356.133 81.384 356.58 80.5468 356.693 79.6355C356.743 79.1329 356.686 78.6256 356.528 78.1461C356.369 77.6666 356.112 77.2256 355.772 76.8514C355.433 76.4772 355.019 76.1781 354.557 75.9735C354.094 75.7688 353.595 75.663 353.089 75.6629H316.943C316.024 75.6476 315.132 75.9722 314.438 76.5743C313.744 77.1764 313.297 78.0136 313.183 78.9249C313.134 79.4275 313.19 79.9348 313.349 80.4143C313.507 80.8938 313.765 81.3348 314.104 81.709C314.444 82.0832 314.858 82.3823 315.32 82.5869C315.782 82.7916 316.282 82.8974 316.788 82.8975H335.024C335.549 82.8975 336.053 83.1059 336.424 83.4769C336.796 83.848 337.004 84.3512 337.004 84.8759V84.8759C337.004 85.1357 336.953 85.3929 336.854 85.6329C336.754 85.8729 336.608 86.0909 336.424 86.2746C336.24 86.4582 336.022 86.6039 335.782 86.7032C335.542 86.8026 335.284 86.8537 335.024 86.8536H332.86C331.941 86.8382 331.049 87.1629 330.355 87.765C329.661 88.3672 329.214 89.2043 329.101 90.1155C329.051 90.6181 329.107 91.1254 329.266 91.6049C329.424 92.0844 329.682 92.5254 330.021 92.8996C330.36 93.2738 330.775 93.5729 331.237 93.7776C331.699 93.9823 332.199 94.0881 332.704 94.0881H369.003C369.509 94.0882 370.009 93.9824 370.471 93.7778C370.933 93.5732 371.347 93.2741 371.687 92.8999C372.026 92.5257 372.284 92.0846 372.442 91.6051C372.601 91.1255 372.657 90.6181 372.608 90.1155C372.494 89.2044 372.047 88.3673 371.353 87.7652C370.66 87.1631 369.767 86.8384 368.848 86.8536V86.8536Z" fill="#F9FBFF"/>
<path d="M293.362 130.16H314.735C315.236 130.16 315.716 129.961 316.07 129.607C316.424 129.254 316.623 128.774 316.623 128.274V128.274C316.623 127.774 316.424 127.294 316.07 126.941C315.716 126.587 315.236 126.389 314.735 126.389H308.537C307.661 126.403 306.81 126.094 306.149 125.52C305.487 124.946 305.061 124.147 304.953 123.279C304.906 122.8 304.959 122.316 305.11 121.859C305.261 121.402 305.507 120.981 305.83 120.624C306.154 120.268 306.549 119.982 306.989 119.787C307.43 119.592 307.906 119.491 308.388 119.491H342.843C343.719 119.477 344.57 119.786 345.232 120.36C345.893 120.934 346.319 121.732 346.428 122.601C346.475 123.08 346.421 123.564 346.27 124.021C346.119 124.478 345.873 124.899 345.55 125.256C345.226 125.612 344.831 125.897 344.391 126.093C343.95 126.288 343.473 126.389 342.991 126.389H325.608C325.108 126.389 324.628 126.587 324.274 126.941C323.92 127.294 323.721 127.774 323.721 128.274V128.274C323.721 128.774 323.919 129.254 324.274 129.607C324.628 129.961 325.108 130.16 325.608 130.16H327.672C328.548 130.145 329.399 130.455 330.06 131.029C330.722 131.603 331.148 132.401 331.256 133.27C331.303 133.749 331.25 134.233 331.098 134.69C330.947 135.147 330.702 135.567 330.378 135.924C330.054 136.281 329.66 136.566 329.219 136.761C328.778 136.956 328.302 137.057 327.82 137.057H293.212C292.73 137.057 292.253 136.956 291.813 136.761C291.372 136.565 290.978 136.28 290.654 135.924C290.33 135.567 290.085 135.147 289.934 134.69C289.783 134.232 289.729 133.749 289.776 133.27C289.885 132.401 290.311 131.602 290.973 131.028C291.635 130.454 292.486 130.145 293.362 130.16V130.16Z" fill="#F9FBFF"/>
<path d="M353.757 165.432C359.408 165.432 363.989 160.856 363.989 155.211C363.989 149.566 359.408 144.99 353.757 144.99C348.106 144.99 343.525 149.566 343.525 155.211C343.525 160.856 348.106 165.432 353.757 165.432Z" fill="#FF6B70"/>
<path fill-rule="evenodd" clip-rule="evenodd" d="M351.825 157.193L357.892 150.794C358.105 150.588 358.389 150.472 358.685 150.47C358.982 150.468 359.267 150.581 359.482 150.785C359.697 150.988 359.825 151.267 359.839 151.563C359.853 151.859 359.752 152.148 359.557 152.371L352.679 159.624L352.667 159.634L352.656 159.645C352.443 159.858 352.155 159.978 351.854 159.98C351.553 159.982 351.263 159.866 351.047 159.657L351.032 159.642L347.979 156.593C347.86 156.49 347.763 156.363 347.695 156.221C347.627 156.079 347.589 155.924 347.584 155.767C347.578 155.609 347.605 155.452 347.663 155.306C347.721 155.159 347.808 155.026 347.919 154.915C348.031 154.803 348.164 154.716 348.311 154.658C348.458 154.6 348.615 154.574 348.772 154.579C348.93 154.585 349.085 154.623 349.227 154.691C349.369 154.759 349.496 154.855 349.599 154.974L351.825 157.197V157.193Z" fill="white"/>
<path d="M103.432 42.838L238.162 71.5301C240.336 71.9932 242.398 72.8796 244.23 74.1387C246.062 75.3979 247.627 77.0051 248.837 78.8686C250.047 80.7321 250.877 82.8154 251.281 84.9996C251.685 87.1838 251.654 89.426 251.191 91.5983L216.182 255.653C215.162 260.436 212.281 264.618 208.174 267.279C204.066 269.94 199.069 270.862 194.281 269.843L61.0452 241.469C56.6536 240.533 52.8137 237.894 50.3703 234.13C47.9269 230.367 47.0802 225.788 48.0164 221.4L83.3431 55.8536C84.2793 51.4664 86.9217 47.6304 90.6891 45.1895C94.4565 42.7486 99.0402 41.9028 103.432 42.838V42.838Z" fill="#DEAE6B"/>
<path d="M249.265 89.1203L214.219 253.353C213.759 255.518 212.876 257.572 211.62 259.396C210.365 261.221 208.762 262.78 206.903 263.986C205.045 265.191 202.966 266.018 200.787 266.421C198.608 266.824 196.371 266.793 194.203 266.332L59.3517 237.612C57.1849 237.15 55.1303 236.266 53.3054 235.011C51.4805 233.756 49.921 232.154 48.716 230.296C47.5109 228.439 46.684 226.363 46.2824 224.186C45.8808 222.009 45.9123 219.775 46.3753 217.61L81.4213 53.3764C82.3541 49.0054 84.9868 45.1836 88.7402 42.7517C92.4937 40.3198 97.0604 39.477 101.436 40.4088L164.593 53.8582C165.672 55.2512 167.209 56.2173 168.933 56.5849C170.657 56.9525 172.455 56.6978 174.009 55.866L236.285 69.1276C240.66 70.0594 244.485 72.6892 246.92 76.4385C249.354 80.1878 250.198 84.7495 249.265 89.1203V89.1203Z" fill="#FAD39E"/>
<g opacity="0.1">
<path d="M226.515 86.0742L98.2975 58.769C95.6048 58.1955 92.9565 59.9113 92.3825 62.6013L59.3969 217.177C58.8229 219.867 60.5404 222.513 63.2331 223.086L191.451 250.392C194.144 250.965 196.792 249.249 197.366 246.559L230.352 91.9832C230.926 89.2932 229.208 86.6477 226.515 86.0742Z" fill="#494C4E"/>
</g>
<path d="M229.873 82.9225L101.655 55.6172C98.9622 55.0438 96.314 56.7596 95.7399 59.4495L62.7543 214.026C62.1803 216.716 63.8978 219.361 66.5905 219.935L194.809 247.24C197.501 247.813 200.149 246.098 200.723 243.408L233.709 88.8314C234.283 86.1415 232.566 83.4959 229.873 82.9225Z" fill="white"/>
<path d="M181.763 107.851L110.068 92.5846C109.703 92.5107 109.356 92.3653 109.047 92.1567C108.739 91.9482 108.475 91.6806 108.271 91.3695C108.067 91.0584 107.926 90.71 107.858 90.3443C107.789 89.9786 107.794 89.603 107.872 89.2392C107.949 88.8753 108.098 88.5305 108.31 88.2246C108.522 87.9187 108.793 87.6577 109.106 87.4569C109.42 87.2561 109.77 87.1194 110.137 87.0546C110.503 86.9898 110.879 86.9983 111.243 87.0796L182.938 102.347C183.668 102.503 184.307 102.942 184.714 103.568C185.121 104.194 185.262 104.957 185.106 105.687C184.95 106.417 184.51 107.055 183.883 107.461C183.256 107.867 182.493 108.008 181.763 107.853V107.851Z" fill="#E3E9F1"/>
<path d="M183.617 149.778C182.542 149.55 181.42 149.758 180.497 150.355C179.575 150.953 178.927 151.891 178.697 152.965L165.384 215.351C165.155 216.425 165.362 217.547 165.961 218.468C166.559 219.39 167.5 220.037 168.575 220.266C169.651 220.495 170.773 220.288 171.696 219.69C172.619 219.092 173.266 218.153 173.495 217.078L186.808 154.693C187.036 153.618 186.828 152.497 186.23 151.576C185.632 150.654 184.692 150.008 183.617 149.778V149.778Z" fill="#CDD5DC"/>
<path d="M164.697 165.75C164.251 165.061 163.611 164.52 162.857 164.196C162.103 163.871 161.27 163.777 160.463 163.926C159.656 164.075 158.911 164.46 158.323 165.032C157.735 165.604 157.33 166.338 157.16 167.14L147.676 211.583C147.563 212.115 147.555 212.664 147.654 213.199C147.753 213.734 147.956 214.244 148.253 214.701C148.549 215.157 148.932 215.551 149.381 215.859C149.829 216.167 150.335 216.385 150.867 216.498C151.4 216.611 151.949 216.619 152.485 216.52C153.02 216.421 153.531 216.218 153.988 215.922C154.445 215.626 154.839 215.243 155.148 214.795C155.456 214.347 155.674 213.842 155.787 213.31L165.271 168.867C165.386 168.336 165.395 167.786 165.296 167.251C165.198 166.716 164.994 166.206 164.697 165.75Z" fill="#CDD5DC"/>
<path d="M142.09 170.912C141.557 170.799 141.007 170.791 140.472 170.89C139.936 170.988 139.425 171.192 138.968 171.488C138.511 171.784 138.117 172.167 137.809 172.615C137.5 173.063 137.282 173.568 137.169 174.1L129.975 207.813C129.861 208.345 129.854 208.894 129.953 209.429C130.051 209.964 130.255 210.474 130.551 210.931C130.847 211.387 131.231 211.781 131.679 212.089C132.128 212.397 132.633 212.614 133.166 212.728C133.453 212.789 133.745 212.82 134.039 212.82C134.987 212.817 135.905 212.49 136.642 211.893C137.378 211.297 137.888 210.466 138.086 209.54L145.279 175.827C145.508 174.753 145.3 173.632 144.702 172.71C144.104 171.789 143.164 171.142 142.09 170.912V170.912Z" fill="#CDD5DC"/>
<path d="M122.877 174.188C122.344 174.074 121.795 174.067 121.259 174.166C120.724 174.264 120.213 174.468 119.756 174.764C119.299 175.059 118.905 175.442 118.596 175.891C118.288 176.339 118.07 176.843 117.957 177.375L112.267 204.041C112.153 204.573 112.146 205.122 112.245 205.657C112.344 206.192 112.547 206.702 112.843 207.159C113.14 207.615 113.523 208.009 113.972 208.317C114.42 208.626 114.925 208.843 115.458 208.956C115.991 209.07 116.54 209.077 117.076 208.978C117.611 208.88 118.122 208.676 118.579 208.38C119.036 208.084 119.43 207.701 119.739 207.253C120.047 206.805 120.265 206.3 120.378 205.768L126.069 179.103C126.297 178.028 126.089 176.907 125.49 175.986C124.892 175.064 123.952 174.418 122.877 174.188V174.188Z" fill="#CDD5DC"/>
<path d="M104.391 174.096C103.858 173.982 103.308 173.974 102.773 174.073C102.237 174.172 101.726 174.375 101.27 174.671C100.813 174.967 100.419 175.35 100.11 175.798C99.8011 176.246 99.5838 176.751 99.4703 177.283L94.5648 200.272C94.3355 201.346 94.5429 202.468 95.1413 203.389C95.7397 204.311 96.6802 204.958 97.7558 205.187C98.8314 205.416 99.954 205.209 100.877 204.611C101.799 204.013 102.447 203.074 102.676 201.999L107.581 179.01C107.81 177.936 107.602 176.815 107.004 175.894C106.405 174.972 105.466 174.326 104.391 174.096V174.096Z" fill="#CDD5DC"/>
<path d="M178.975 120.918L107.28 105.65C106.557 105.487 105.928 105.046 105.528 104.422C105.129 103.798 104.991 103.043 105.146 102.318C105.3 101.594 105.734 100.96 106.353 100.553C106.973 100.147 107.727 100 108.454 100.145L180.149 115.413C180.872 115.576 181.501 116.018 181.901 116.641C182.3 117.265 182.437 118.021 182.283 118.745C182.128 119.469 181.695 120.103 181.075 120.51C180.456 120.917 179.701 121.063 178.975 120.918V120.918Z" fill="#E3E9F1"/>
<path d="M143.129 128.704L104.132 120.399C103.402 120.244 102.763 119.804 102.356 119.178C101.949 118.552 101.808 117.79 101.964 117.06C102.12 116.33 102.56 115.691 103.187 115.285C103.814 114.879 104.577 114.738 105.307 114.894L144.304 123.198C145.034 123.354 145.673 123.793 146.08 124.419C146.487 125.045 146.628 125.807 146.472 126.538C146.316 127.268 145.877 127.906 145.25 128.312C144.623 128.719 143.86 128.859 143.129 128.704V128.704Z" fill="#E3E9F1"/>
<path d="M185.386 133.951C184.908 133.85 184.409 133.942 183.999 134.208C183.589 134.473 183.302 134.89 183.199 135.368C183.135 135.679 183.154 136.002 183.253 136.304C177.292 141.519 170.736 146.013 163.72 149.693C163.511 149.537 163.27 149.427 163.014 149.372C162.536 149.27 162.037 149.363 161.627 149.628C161.217 149.894 160.93 150.311 160.828 150.788C160.8 150.923 160.787 151.061 160.79 151.199C155.664 153.742 150.375 155.944 144.958 157.791C144.251 158.034 143.542 158.262 142.834 158.488C142.579 158.215 142.245 158.027 141.88 157.95C141.402 157.848 140.903 157.94 140.493 158.206C140.083 158.471 139.796 158.889 139.693 159.366C139.688 159.388 139.69 159.41 139.686 159.433C134.645 160.853 129.498 161.862 124.294 162.451C124.105 162.205 123.857 162.011 123.573 161.888C123.288 161.765 122.977 161.716 122.669 161.746C122.36 161.776 122.065 161.884 121.81 162.06C121.555 162.236 121.349 162.474 121.211 162.751C115.574 163.201 109.911 163.244 104.268 162.88C104.117 162.492 103.839 162.166 103.479 161.955C103.119 161.744 102.698 161.662 102.285 161.72C101.872 161.779 101.491 161.975 101.204 162.277C100.917 162.58 100.741 162.97 100.704 163.385C100.668 163.8 100.773 164.216 101.002 164.564C101.232 164.911 101.573 165.172 101.969 165.301C102.365 165.431 102.794 165.423 103.185 165.279C103.577 165.134 103.907 164.862 104.124 164.506C109.814 164.874 115.523 164.835 121.208 164.389C121.371 164.725 121.633 165.004 121.959 165.187C122.285 165.37 122.659 165.449 123.032 165.412C123.404 165.376 123.756 165.227 124.041 164.985C124.326 164.743 124.529 164.419 124.624 164.058C129.874 163.456 135.065 162.433 140.15 160.998C140.378 161.246 140.67 161.427 140.995 161.52C141.319 161.614 141.662 161.616 141.988 161.527C142.313 161.438 142.608 161.262 142.84 161.016C143.071 160.771 143.231 160.467 143.301 160.137C143.307 160.109 143.306 160.082 143.31 160.053C144.037 159.822 144.765 159.587 145.49 159.336C150.982 157.462 156.344 155.229 161.541 152.65C161.751 152.807 161.992 152.917 162.249 152.973C162.727 153.074 163.226 152.982 163.635 152.716C164.045 152.451 164.333 152.034 164.435 151.556C164.464 151.421 164.476 151.282 164.472 151.144C171.629 147.391 178.315 142.804 184.392 137.479C184.467 137.508 184.544 137.532 184.622 137.55C184.86 137.603 185.106 137.609 185.345 137.567C185.585 137.524 185.814 137.435 186.019 137.303C186.224 137.172 186.401 137.001 186.539 136.801C186.678 136.601 186.775 136.376 186.826 136.138C186.877 135.9 186.88 135.654 186.835 135.415C186.79 135.176 186.698 134.948 186.565 134.745C186.431 134.541 186.259 134.366 186.057 134.23C185.856 134.093 185.629 133.998 185.39 133.95L185.386 133.951Z" fill="#868C8F"/>
<path d="M181.332 220.027C181.199 219.821 181.025 219.642 180.823 219.503C180.62 219.364 180.392 219.266 180.151 219.215L88.7408 199.749C88.4969 199.688 88.2431 199.677 87.9947 199.716C87.7463 199.755 87.5083 199.843 87.2949 199.976C87.0815 200.109 86.8971 200.284 86.7527 200.489C86.6082 200.695 86.5068 200.928 86.4543 201.173C86.4018 201.419 86.3994 201.673 86.4473 201.92C86.4951 202.166 86.5921 202.401 86.7326 202.609C86.8732 202.817 87.0542 202.995 87.2651 203.132C87.4759 203.269 87.7122 203.362 87.9599 203.406L179.369 222.877C179.609 222.928 179.857 222.931 180.099 222.887C180.341 222.842 180.572 222.751 180.778 222.617C180.984 222.483 181.162 222.31 181.301 222.108C181.441 221.906 181.539 221.678 181.59 221.438C181.643 221.197 181.647 220.949 181.603 220.706C181.558 220.464 181.466 220.233 181.332 220.027V220.027Z" fill="#9EA5A9"/>
<path d="M212.493 106.72C212.175 106.262 211.689 105.947 211.14 105.846C210.591 105.744 210.025 105.864 209.564 106.178L202.281 111.181L200.873 109.011C200.561 108.553 200.084 108.233 199.542 108.118C199 108.002 198.434 108.1 197.962 108.39C197.73 108.54 197.529 108.734 197.372 108.962C197.215 109.189 197.104 109.446 197.046 109.716C196.989 109.986 196.985 110.265 197.035 110.537C197.086 110.809 197.189 111.068 197.34 111.3L199.943 115.307C200.244 115.76 200.711 116.076 201.242 116.187C201.524 116.246 201.814 116.249 202.097 116.195C202.38 116.141 202.649 116.031 202.888 115.872L211.951 109.647C212.41 109.33 212.725 108.844 212.827 108.296C212.928 107.747 212.808 107.181 212.493 106.72V106.72Z" fill="#FF6B70"/>
<g opacity="0.1">
<path d="M203.199 64.7313C201.015 62.4527 198.194 60.8851 195.104 60.2331L195.418 58.7638C195.722 57.3288 195.443 55.8319 194.643 54.6022C193.842 53.3725 192.586 52.5107 191.15 52.2061L184.33 50.7534C184.15 47.5434 182.959 44.4725 180.927 41.9791C178.895 39.4857 176.127 37.6973 173.017 36.8691C169.908 36.041 166.616 36.2155 163.611 37.3677C160.607 38.5199 158.043 40.5909 156.287 43.285C156.003 43.7137 155.742 44.1578 155.506 44.6152L148.687 43.1624C147.434 42.8933 146.126 43.0672 144.987 43.6544C143.848 44.2417 142.949 45.2058 142.442 46.3821C142.302 46.7136 142.192 47.0573 142.114 47.4089L141.801 48.8789C141.408 48.795 141.011 48.724 140.618 48.6731C137.892 48.303 135.116 48.6536 132.567 49.6899C130.169 50.6544 128.045 52.1942 126.384 54.1732C124.723 56.1522 123.575 58.5096 123.042 61.0369L122.428 63.9124C122.33 64.3724 122.322 64.8473 122.408 65.3101C122.493 65.7728 122.669 66.2142 122.925 66.609C123.181 67.0037 123.513 67.3441 123.901 67.6105C124.289 67.877 124.726 68.0643 125.187 68.1617L202.41 84.6064C202.87 84.7044 203.345 84.7108 203.807 84.6252C204.27 84.5397 204.711 84.3638 205.106 84.1077C205.5 83.8516 205.84 83.5203 206.106 83.1328C206.373 82.7453 206.56 82.3091 206.657 81.8492L207.271 78.9738C207.81 76.4482 207.721 73.829 207.011 71.3458C206.301 68.8627 204.992 66.5914 203.199 64.7313ZM175.145 55.983C174.79 56.4782 174.375 56.9283 173.911 57.3232C172.445 58.5724 170.558 59.2157 168.633 59.1218C166.709 59.0278 164.893 58.2037 163.557 56.8177C162.22 55.4317 161.463 53.5883 161.441 51.6639C161.419 49.7394 162.132 47.879 163.437 46.4624C164.741 45.0459 166.537 44.18 168.459 44.0416C170.38 43.9032 172.282 44.5026 173.776 45.7176C175.27 46.9326 176.244 48.6714 176.498 50.5792C176.753 52.4869 176.268 54.4197 175.145 55.983V55.983Z" fill="#494C4E"/>
</g>
<path d="M204.614 62.381C202.43 60.1019 199.609 58.534 196.519 57.8821L196.832 56.4128C197.137 54.9779 196.858 53.481 196.057 52.2513C195.257 51.0216 194.001 50.1597 192.564 49.8552L185.745 48.4024C185.565 45.1917 184.375 42.1198 182.343 39.6256C180.311 37.1313 177.542 35.3423 174.432 34.514C171.321 33.6858 168.028 33.8606 165.023 35.0136C162.018 36.1666 159.455 38.2387 157.699 40.9341C157.415 41.363 157.154 41.807 156.918 42.2643L150.096 40.8122C148.843 40.5432 147.535 40.7173 146.396 41.3047C145.257 41.892 144.358 42.8562 143.851 44.0326C143.711 44.3651 143.602 44.7098 143.525 45.0623L143.212 46.5316C142.819 46.4477 142.422 46.3767 142.029 46.3265C139.304 45.955 136.529 46.3036 133.981 47.3376C131.582 48.3025 129.459 49.8427 127.798 51.8221C126.136 53.8015 124.989 56.1591 124.456 58.6867L123.842 61.5621C123.744 62.0221 123.737 62.4971 123.822 62.9599C123.907 63.4226 124.083 63.864 124.339 64.2587C124.595 64.6535 124.927 64.9939 125.315 65.2603C125.703 65.5268 126.14 65.7141 126.601 65.8115L203.82 82.259C204.28 82.357 204.755 82.3634 205.217 82.2778C205.68 82.1922 206.121 82.0163 206.516 81.7601C206.91 81.5039 207.25 81.1726 207.516 80.7849C207.783 80.3973 207.97 79.9611 208.067 79.5012L208.68 76.6257C209.221 74.1002 209.133 71.4808 208.424 68.9972C207.715 66.5136 206.407 64.2418 204.614 62.381V62.381ZM176.559 53.6327C175.711 54.8094 174.538 55.7139 173.183 56.2358C171.829 56.7577 170.351 56.8745 168.932 56.572C167.512 56.2695 166.211 55.5607 165.187 54.5322C164.164 53.5036 163.462 52.1997 163.168 50.7795C162.915 49.5626 162.97 48.3018 163.328 47.1115C163.686 45.9211 164.335 44.8387 165.217 43.9621C166.099 43.0856 167.186 42.4426 168.38 42.0915C169.573 41.7403 170.836 41.692 172.052 41.9509C173.993 42.3653 175.69 43.533 176.77 45.1971C177.849 46.8612 178.222 48.8855 177.808 50.8247C177.594 51.8376 177.168 52.7942 176.559 53.632V53.6327Z" fill="#868C8F"/>
<g opacity="0.75">
<path d="M202.862 78.403L127.725 62.4022C127.419 62.3281 127.155 62.1379 126.987 61.8721C126.82 61.6062 126.763 61.2856 126.828 60.9784C126.894 60.6712 127.076 60.4015 127.338 60.2268C127.599 60.052 127.918 59.9858 128.227 60.0424L203.365 76.0431C203.678 76.1097 203.952 76.2978 204.126 76.5662C204.301 76.8345 204.361 77.1611 204.295 77.474C204.228 77.787 204.04 78.0607 203.771 78.2349C203.503 78.4091 203.176 78.4696 202.862 78.403H202.862Z" fill="#B5BDC2"/>
</g>
<g opacity="0.4">
<path d="M159.807 50.8512L146.169 47.9478C145.965 47.8985 145.788 47.7718 145.677 47.5944C145.565 47.4171 145.527 47.2032 145.57 46.9983C145.614 46.7933 145.736 46.6135 145.91 46.497C146.085 46.3805 146.298 46.3366 146.504 46.3745L160.142 49.2787C160.246 49.3007 160.344 49.3428 160.431 49.4026C160.518 49.4624 160.592 49.5388 160.65 49.6274C160.707 49.7159 160.747 49.8149 160.766 49.9187C160.785 50.0226 160.784 50.1291 160.762 50.2324C160.74 50.3356 160.698 50.4336 160.638 50.5205C160.578 50.6075 160.501 50.6819 160.413 50.7393C160.324 50.7968 160.225 50.8362 160.121 50.8554C160.017 50.8746 159.91 50.8732 159.807 50.8512V50.8512Z" fill="#B5BDC2"/>
</g>
<g opacity="0.4">
<path d="M193.23 57.9675L179.592 55.064C179.486 55.0442 179.386 55.0034 179.296 54.9442C179.207 54.885 179.13 54.8084 179.07 54.7191C179.011 54.6298 178.97 54.5295 178.95 54.4242C178.93 54.3188 178.931 54.2105 178.953 54.1055C178.976 54.0006 179.019 53.9012 179.08 53.8133C179.142 53.7253 179.22 53.6504 179.311 53.5931C179.402 53.5358 179.503 53.4973 179.609 53.4797C179.715 53.4621 179.823 53.4659 179.928 53.4908L193.566 56.3949C193.669 56.4169 193.767 56.4591 193.854 56.519C193.941 56.5788 194.016 56.6553 194.073 56.7439C194.131 56.8324 194.17 56.9315 194.189 57.0353C194.209 57.1391 194.207 57.2457 194.185 57.349C194.163 57.4522 194.121 57.5501 194.061 57.6371C194.001 57.7241 193.924 57.7984 193.836 57.8558C193.747 57.9132 193.648 57.9527 193.544 57.9718C193.44 57.991 193.333 57.9895 193.23 57.9675V57.9675Z" fill="#B5BDC2"/>
</g>
<path d="M333.5 168.52H299.48C298.03 168.52 296.854 169.694 296.854 171.143C296.854 172.592 298.03 173.766 299.48 173.766H333.5C334.95 173.766 336.126 172.592 336.126 171.143C336.126 169.694 334.95 168.52 333.5 168.52Z" fill="#F1F5FB"/>
<path d="M304.968 143.028H277.464C275.826 143.028 274.497 144.355 274.497 145.992C274.497 147.63 275.826 148.957 277.464 148.957H304.968C306.607 148.957 307.935 147.63 307.935 145.992C307.935 144.355 306.607 143.028 304.968 143.028Z" fill="#F1F5FB"/>
<path d="M349.773 178.782H324.344C322.894 178.782 321.719 179.957 321.719 181.405C321.719 182.854 322.894 184.028 324.344 184.028H349.773C351.224 184.028 352.399 182.854 352.399 181.405C352.399 179.957 351.224 178.782 349.773 178.782Z" fill="#F1F5FB"/>
<path d="M380.352 192.289H372.205C370.755 192.289 369.579 193.463 369.579 194.912C369.579 196.361 370.755 197.535 372.205 197.535H380.352C381.802 197.535 382.978 196.361 382.978 194.912C382.978 193.463 381.802 192.289 380.352 192.289Z" fill="#F9FBFF"/>
<path d="M288.112 120.671H269.773C268.323 120.671 267.147 121.846 267.147 123.294C267.147 124.743 268.323 125.917 269.773 125.917H288.112C289.563 125.917 290.738 124.743 290.738 123.294C290.738 121.846 289.563 120.671 288.112 120.671Z" fill="#F9FBFF"/>
<path d="M388.993 118.357H363.564C362.114 118.357 360.938 119.531 360.938 120.98C360.938 122.429 362.114 123.603 363.564 123.603H388.993C390.443 123.603 391.619 122.429 391.619 120.98C391.619 119.531 390.443 118.357 388.993 118.357Z" fill="#F1F5FB"/>
<path d="M435.681 128.029H403.238C401.788 128.029 400.612 129.203 400.612 130.652C400.612 132.101 401.788 133.275 403.238 133.275H435.681C437.132 133.275 438.307 132.101 438.307 130.652C438.307 129.203 437.132 128.029 435.681 128.029Z" fill="#F9FBFF"/>
<path d="M306.047 97.4595H280.618C279.168 97.4595 277.992 98.6339 277.992 100.083C277.992 101.531 279.168 102.706 280.618 102.706H306.047C307.497 102.706 308.673 101.531 308.673 100.083C308.673 98.6339 307.497 97.4595 306.047 97.4595Z" fill="#F1F5FB"/>
<path d="M395.309 75.285H369.88C368.429 75.285 367.254 76.4593 367.254 77.908C367.254 79.3567 368.429 80.5311 369.88 80.5311H395.309C396.759 80.5311 397.934 79.3567 397.934 77.908C397.934 76.4593 396.759 75.285 395.309 75.285Z" fill="#F9FBFF"/>
<path d="M322.132 264.94V264.948H321.36C321.359 264.948 321.358 264.947 321.357 264.947C321.356 264.946 321.356 264.946 321.355 264.945C321.354 264.944 321.354 264.944 321.353 264.943C321.353 264.942 321.353 264.941 321.353 264.94H322.132Z" fill="#F9FBFF"/>
<path d="M311.918 261.877V261.884H311.147C311.147 261.884 311.143 261.884 311.143 261.877H311.918Z" fill="#F9FBFF"/>
<path d="M338.703 212.249V261.88H317.936V228.315C317.966 227.168 317.539 226.056 316.749 225.223C315.959 224.391 314.871 223.905 313.723 223.873H310.278V218.192C310.236 216.658 310.806 215.171 311.862 214.056C312.918 212.942 314.373 212.292 315.909 212.249H338.703Z" fill="#F1F5FB"/>
<path d="M277.165 236.888V245.596H273.145C272.984 245.596 272.824 245.608 272.665 245.632C272.588 245.643 272.51 245.659 272.436 245.674V245.678C272.424 245.678 272.412 245.678 272.401 245.678C272.374 245.684 272.348 245.692 272.322 245.702C272.284 245.713 272.251 245.721 272.21 245.733C272.159 245.748 272.112 245.768 272.062 245.784C271.87 245.854 271.686 245.943 271.512 246.048L271.383 246.13C271.216 246.242 271.061 246.371 270.92 246.515C270.848 246.583 270.781 246.655 270.717 246.73V246.734C270.652 246.81 270.59 246.889 270.534 246.972C270.534 246.972 270.538 246.972 270.534 246.972C270.475 247.058 270.425 247.14 270.374 247.229C270.323 247.319 270.285 247.412 270.241 247.509C270.202 247.603 270.167 247.698 270.137 247.796C270.113 247.87 270.093 247.945 270.078 248.022C270.058 248.097 270.043 248.174 270.031 248.251C270.008 248.411 269.996 248.572 269.996 248.734V261.873H255.459V236.888C255.459 235.311 256.086 233.799 257.202 232.685C258.318 231.57 259.832 230.943 261.41 230.943H271.214C271.996 230.943 272.77 231.096 273.492 231.395C274.214 231.693 274.87 232.131 275.423 232.683C275.975 233.235 276.414 233.891 276.713 234.612C277.012 235.334 277.165 236.107 277.165 236.888V236.888Z" fill="#F1F5FB"/>
<path d="M277.162 258.409V258.42C277.14 258.39 277.122 258.357 277.107 258.323C277.123 258.353 277.141 258.382 277.162 258.409V258.409Z" fill="#F9FBFF"/>
<path d="M397.25 218.535V221.156H394.538C393.747 221.156 392.963 221.311 392.232 221.614C391.501 221.916 390.837 222.359 390.277 222.918C389.718 223.477 389.274 224.141 388.971 224.871C388.669 225.601 388.513 226.384 388.513 227.174V261.881H367.816L369.429 212.595H391.291C392.87 212.594 394.384 213.22 395.501 214.334C396.618 215.447 397.247 216.958 397.25 218.535Z" fill="#F1F5FB"/>
<path d="M397.181 247.048C397.149 247.171 397.096 247.286 397.024 247.391C397.092 247.284 397.145 247.169 397.181 247.048V247.048Z" fill="#F9FBFF"/>
<path d="M397.25 243.034V246.608C397.253 246.757 397.228 246.906 397.179 247.048C397.222 246.906 397.245 246.759 397.245 246.611V243.034C397.244 242.864 397.215 242.695 397.159 242.535C397.219 242.695 397.25 242.863 397.25 243.034V243.034Z" fill="#F9FBFF"/>
<path d="M364.769 195.021H342.42C341.755 195.021 341.096 195.152 340.482 195.407C339.867 195.661 339.309 196.034 338.839 196.504C338.369 196.974 337.996 197.532 337.742 198.146C337.488 198.76 337.357 199.418 337.357 200.083V261.88H338.702H350.533V253.705C350.533 253.5 350.573 253.297 350.652 253.108C350.73 252.918 350.845 252.746 350.99 252.601C351.136 252.456 351.308 252.341 351.498 252.262C351.687 252.184 351.891 252.144 352.096 252.144H355.093C355.298 252.144 355.502 252.184 355.691 252.262C355.881 252.341 356.053 252.456 356.199 252.601C356.344 252.746 356.459 252.918 356.537 253.108C356.616 253.297 356.656 253.5 356.656 253.705V261.88H367.817H369.827V200.083C369.827 199.418 369.697 198.761 369.443 198.147C369.19 197.533 368.817 196.975 368.348 196.505C367.878 196.035 367.32 195.662 366.706 195.407C366.092 195.153 365.434 195.022 364.769 195.021V195.021ZM349.129 245.759H345.555C345.363 245.759 345.173 245.722 344.995 245.648C344.818 245.575 344.656 245.467 344.521 245.331C344.385 245.195 344.277 245.034 344.203 244.857C344.13 244.679 344.092 244.489 344.092 244.297C344.092 244.105 344.13 243.915 344.203 243.738C344.277 243.56 344.385 243.399 344.521 243.263C344.656 243.128 344.818 243.02 344.995 242.946C345.173 242.873 345.363 242.835 345.555 242.835H349.129C349.321 242.835 349.511 242.873 349.689 242.946C349.866 243.02 350.028 243.128 350.164 243.263C350.3 243.399 350.407 243.56 350.481 243.738C350.554 243.915 350.592 244.105 350.592 244.297C350.592 244.489 350.554 244.679 350.481 244.857C350.407 245.034 350.3 245.195 350.164 245.331C350.028 245.467 349.866 245.575 349.689 245.648C349.511 245.722 349.321 245.759 349.129 245.759V245.759ZM349.129 237.969H345.555C345.168 237.969 344.796 237.815 344.522 237.542C344.248 237.268 344.094 236.896 344.094 236.509C344.094 236.122 344.248 235.751 344.522 235.477C344.796 235.203 345.168 235.049 345.555 235.049H349.129C349.516 235.049 349.888 235.203 350.162 235.477C350.436 235.751 350.59 236.122 350.59 236.509C350.59 236.896 350.436 237.268 350.162 237.542C349.888 237.815 349.516 237.969 349.129 237.969V237.969ZM349.129 230.179H345.555C345.361 230.183 345.167 230.149 344.986 230.077C344.805 230.006 344.64 229.899 344.501 229.763C344.362 229.627 344.251 229.465 344.176 229.285C344.101 229.106 344.062 228.914 344.062 228.719C344.062 228.525 344.101 228.332 344.176 228.153C344.251 227.974 344.362 227.811 344.501 227.676C344.64 227.54 344.805 227.433 344.986 227.361C345.167 227.29 345.361 227.255 345.555 227.26H349.129C349.323 227.255 349.517 227.29 349.698 227.361C349.879 227.433 350.044 227.54 350.183 227.676C350.322 227.811 350.433 227.974 350.508 228.153C350.584 228.332 350.623 228.525 350.623 228.719C350.623 228.914 350.584 229.106 350.508 229.285C350.433 229.465 350.322 229.627 350.183 229.763C350.044 229.899 349.879 230.006 349.698 230.077C349.517 230.149 349.323 230.183 349.129 230.179ZM349.129 222.389H345.555C345.364 222.389 345.173 222.352 344.996 222.278C344.819 222.205 344.658 222.097 344.522 221.962C344.386 221.826 344.279 221.665 344.205 221.488C344.132 221.311 344.094 221.121 344.094 220.929C344.094 220.738 344.132 220.548 344.205 220.371C344.279 220.193 344.386 220.033 344.522 219.897C344.658 219.761 344.819 219.654 344.996 219.58C345.173 219.507 345.364 219.469 345.555 219.469H349.129C349.321 219.469 349.511 219.507 349.688 219.58C349.865 219.654 350.026 219.761 350.162 219.897C350.298 220.033 350.405 220.193 350.479 220.371C350.552 220.548 350.59 220.738 350.59 220.929C350.59 221.121 350.552 221.311 350.479 221.488C350.405 221.665 350.298 221.826 350.162 221.962C350.026 222.097 349.865 222.205 349.688 222.278C349.511 222.352 349.321 222.389 349.129 222.389V222.389ZM349.129 214.595H345.555C345.361 214.6 345.167 214.565 344.985 214.494C344.804 214.422 344.639 214.315 344.5 214.179C344.36 214.043 344.25 213.88 344.174 213.701C344.098 213.521 344.059 213.328 344.059 213.134C344.059 212.939 344.098 212.746 344.174 212.567C344.25 212.387 344.36 212.225 344.5 212.088C344.639 211.952 344.804 211.845 344.985 211.774C345.167 211.702 345.361 211.668 345.555 211.672H349.129C349.324 211.668 349.517 211.702 349.699 211.774C349.88 211.845 350.045 211.952 350.185 212.088C350.324 212.225 350.435 212.387 350.51 212.567C350.586 212.746 350.625 212.939 350.625 213.134C350.625 213.328 350.586 213.521 350.51 213.701C350.435 213.88 350.324 214.043 350.185 214.179C350.045 214.315 349.88 214.422 349.699 214.494C349.517 214.565 349.324 214.6 349.129 214.595V214.595ZM349.129 206.805H345.555C345.361 206.809 345.167 206.775 344.985 206.703C344.804 206.632 344.639 206.525 344.5 206.389C344.36 206.252 344.25 206.09 344.174 205.91C344.098 205.731 344.059 205.538 344.059 205.343C344.059 205.149 344.098 204.956 344.174 204.776C344.25 204.597 344.36 204.434 344.5 204.298C344.639 204.162 344.804 204.055 344.985 203.983C345.167 203.912 345.361 203.877 345.555 203.882H349.129C349.324 203.877 349.517 203.912 349.699 203.983C349.88 204.055 350.045 204.162 350.185 204.298C350.324 204.434 350.435 204.597 350.51 204.776C350.586 204.956 350.625 205.149 350.625 205.343C350.625 205.538 350.586 205.731 350.51 205.91C350.435 206.09 350.324 206.252 350.185 206.389C350.045 206.525 349.88 206.632 349.699 206.703C349.517 206.775 349.324 206.809 349.129 206.805ZM362.005 245.759H358.431C358.043 245.759 357.67 245.605 357.396 245.331C357.121 245.057 356.967 244.685 356.967 244.297C356.967 243.91 357.121 243.538 357.396 243.263C357.67 242.989 358.043 242.835 358.431 242.835H362.005C362.197 242.835 362.387 242.873 362.565 242.946C362.742 243.02 362.904 243.128 363.04 243.263C363.175 243.399 363.283 243.56 363.357 243.738C363.43 243.915 363.468 244.105 363.468 244.297C363.468 244.489 363.43 244.679 363.357 244.857C363.283 245.034 363.175 245.195 363.04 245.331C362.904 245.467 362.742 245.575 362.565 245.648C362.387 245.722 362.197 245.759 362.005 245.759V245.759ZM362.005 237.969H358.431C358.043 237.969 357.671 237.815 357.397 237.542C357.123 237.268 356.969 236.896 356.969 236.509C356.969 236.122 357.123 235.751 357.397 235.477C357.671 235.203 358.043 235.049 358.431 235.049H362.005C362.392 235.049 362.764 235.203 363.038 235.477C363.312 235.751 363.466 236.122 363.466 236.509C363.466 236.896 363.312 237.268 363.038 237.542C362.764 237.815 362.392 237.969 362.005 237.969V237.969ZM362.005 230.179H358.431C358.049 230.17 357.685 230.013 357.418 229.74C357.151 229.467 357.002 229.101 357.002 228.719C357.002 228.338 357.151 227.971 357.418 227.698C357.685 227.426 358.049 227.268 358.431 227.26H362.005C362.199 227.255 362.393 227.29 362.574 227.361C362.755 227.433 362.92 227.54 363.059 227.676C363.198 227.811 363.309 227.974 363.384 228.153C363.46 228.332 363.498 228.525 363.498 228.719C363.498 228.914 363.46 229.106 363.384 229.285C363.309 229.465 363.198 229.627 363.059 229.763C362.92 229.899 362.755 230.006 362.574 230.077C362.393 230.149 362.199 230.183 362.005 230.179ZM362.005 222.389H358.431C358.043 222.389 357.671 222.235 357.397 221.962C357.123 221.688 356.969 221.317 356.969 220.929C356.969 220.542 357.123 220.171 357.397 219.897C357.671 219.623 358.043 219.469 358.431 219.469H362.005C362.197 219.469 362.387 219.507 362.564 219.58C362.741 219.654 362.902 219.761 363.038 219.897C363.174 220.033 363.281 220.193 363.355 220.371C363.428 220.548 363.466 220.738 363.466 220.929C363.466 221.121 363.428 221.311 363.355 221.488C363.281 221.665 363.174 221.826 363.038 221.962C362.902 222.097 362.741 222.205 362.564 222.278C362.387 222.352 362.197 222.389 362.005 222.389V222.389ZM362.005 214.595H358.431C358.048 214.587 357.684 214.429 357.417 214.156C357.149 213.883 357 213.516 357 213.134C357 212.751 357.149 212.385 357.417 212.111C357.684 211.838 358.048 211.68 358.431 211.672H362.005C362.2 211.668 362.393 211.702 362.575 211.774C362.756 211.845 362.921 211.952 363.06 212.088C363.2 212.225 363.311 212.387 363.386 212.567C363.462 212.746 363.501 212.939 363.501 213.134C363.501 213.328 363.462 213.521 363.386 213.701C363.311 213.88 363.2 214.043 363.06 214.179C362.921 214.315 362.756 214.422 362.575 214.494C362.393 214.565 362.2 214.6 362.005 214.595V214.595ZM362.005 206.805H358.431C358.048 206.797 357.684 206.639 357.417 206.366C357.149 206.093 357 205.726 357 205.343C357 204.961 357.149 204.594 357.417 204.321C357.684 204.048 358.048 203.89 358.431 203.882H362.005C362.2 203.877 362.393 203.912 362.575 203.983C362.756 204.055 362.921 204.162 363.06 204.298C363.2 204.434 363.311 204.597 363.386 204.776C363.462 204.956 363.501 205.149 363.501 205.343C363.501 205.538 363.462 205.731 363.386 205.91C363.311 206.09 363.2 206.252 363.06 206.389C362.921 206.525 362.756 206.632 362.575 206.703C362.393 206.775 362.2 206.809 362.005 206.805Z" fill="#FF6B70"/>
<path d="M395.244 241.574C395.218 241.573 395.192 241.575 395.166 241.578H395.238C395.289 241.578 395.343 241.578 395.39 241.578C395.341 241.573 395.292 241.571 395.244 241.574ZM395.236 248.068C395.139 248.067 395.043 248.058 394.949 248.041C395.045 248.064 395.145 248.076 395.244 248.076C395.343 248.076 395.441 248.064 395.537 248.041C395.438 248.058 395.337 248.067 395.236 248.068V248.068ZM393.783 246.608V243.034C393.782 242.985 393.784 242.935 393.79 242.886C393.781 242.935 393.777 242.984 393.779 243.034V246.612C393.779 246.71 393.79 246.808 393.809 246.905C393.793 246.807 393.784 246.707 393.783 246.608V246.608ZM395.236 235.178C395.189 235.178 395.139 235.178 395.092 235.174C395.139 235.178 395.193 235.186 395.244 235.186C395.292 235.187 395.34 235.184 395.387 235.174C395.341 235.178 395.284 235.178 395.236 235.178V235.178ZM393.779 230.152V233.722C393.778 233.746 393.779 233.77 393.783 233.794V230.154C393.782 230.104 393.784 230.055 393.79 230.005C393.78 230.054 393.775 230.103 393.776 230.152H393.779ZM310.278 231.402C309.891 231.403 309.52 231.557 309.246 231.831C308.972 232.104 308.818 232.475 308.816 232.862V236.439C308.815 236.465 308.815 236.491 308.816 236.517V232.869C308.816 232.482 308.97 232.111 309.243 231.837C309.516 231.563 309.887 231.408 310.274 231.406C310.42 231.406 310.565 231.427 310.705 231.468C310.567 231.423 310.423 231.4 310.278 231.402V231.402ZM272.602 245.592C272.494 245.591 272.385 245.597 272.278 245.611C272.069 245.627 271.862 245.669 271.663 245.736C271.565 245.771 271.471 245.802 271.376 245.841C271.28 245.881 271.193 245.927 271.107 245.978C270.925 246.069 270.755 246.181 270.6 246.312C270.445 246.44 270.303 246.582 270.175 246.736C270.125 246.799 270.082 246.857 270.039 246.916C269.997 246.974 269.949 247.04 269.914 247.106C269.872 247.171 269.833 247.239 269.797 247.308C269.766 247.375 269.735 247.445 269.7 247.515C269.54 247.902 269.456 248.316 269.454 248.734V261.873H255.457H269.998V248.741C269.998 248.58 270.01 248.418 270.033 248.259C270.049 248.181 270.061 248.103 270.08 248.029C270.096 247.953 270.115 247.877 270.139 247.803C270.169 247.706 270.204 247.61 270.244 247.516C270.287 247.42 270.33 247.326 270.377 247.237C270.423 247.147 270.481 247.061 270.536 246.979C270.54 246.979 270.536 246.979 270.536 246.979C270.598 246.898 270.657 246.819 270.72 246.742V246.738C270.786 246.666 270.852 246.59 270.922 246.523C271.066 246.382 271.221 246.253 271.386 246.137L271.514 246.056C271.689 245.95 271.873 245.862 272.064 245.791C272.114 245.775 272.161 245.756 272.212 245.74C272.251 245.729 272.284 245.721 272.325 245.709C272.35 245.699 272.376 245.691 272.403 245.686C272.415 245.685 272.427 245.682 272.438 245.678C272.51 245.663 272.59 245.647 272.668 245.636C272.827 245.612 272.987 245.6 273.147 245.6H277.167V245.596L272.602 245.592ZM310.278 231.402C309.891 231.403 309.52 231.557 309.246 231.831C308.972 232.104 308.818 232.475 308.816 232.862V236.439C308.815 236.465 308.815 236.491 308.816 236.517V232.869C308.816 232.482 308.97 232.111 309.243 231.837C309.516 231.563 309.887 231.408 310.274 231.406C310.42 231.406 310.565 231.427 310.705 231.468C310.567 231.423 310.423 231.4 310.278 231.402V231.402ZM311.139 261.877C311.139 261.885 311.144 261.885 311.144 261.885H311.914V261.877H311.139ZM321.349 264.941C321.349 264.943 321.35 264.945 321.352 264.946C321.353 264.948 321.355 264.948 321.357 264.948H322.129V264.941H321.349ZM393.776 230.153V233.723C393.775 233.747 393.776 233.771 393.78 233.795V230.155C393.779 230.105 393.781 230.055 393.787 230.006C393.778 230.054 393.774 230.103 393.776 230.152L393.776 230.153ZM393.78 246.609V243.034C393.779 242.985 393.781 242.935 393.787 242.886C393.778 242.935 393.774 242.984 393.776 243.034V246.612C393.776 246.71 393.787 246.808 393.807 246.905C393.791 246.807 393.783 246.707 393.783 246.608L393.78 246.609ZM393.992 221.156C393.201 221.155 392.417 221.31 391.686 221.612C390.955 221.914 390.291 222.357 389.731 222.916C389.172 223.475 388.728 224.138 388.425 224.868C388.123 225.598 387.967 226.381 387.967 227.171V261.877H367.817H388.513V227.171C388.514 225.575 389.149 224.045 390.279 222.917C391.409 221.789 392.941 221.156 394.539 221.156H393.992ZM318.528 261.877V228.317C318.527 228.02 318.498 227.722 318.442 227.43C318.425 227.335 318.403 227.242 318.376 227.149C318.345 227.025 318.304 226.904 318.263 226.784C318.208 226.647 318.154 226.518 318.095 226.386C318.056 226.305 318.014 226.223 317.971 226.149C317.928 226.075 317.877 225.989 317.827 225.915C317.781 225.841 317.73 225.769 317.675 225.7C317.639 225.645 317.599 225.593 317.554 225.545C317.511 225.49 317.469 225.436 317.426 225.385C317.383 225.334 317.34 225.287 317.289 225.237C317.239 225.187 317.195 225.139 317.146 225.094C317.081 225.031 317.014 224.971 316.943 224.915C316.877 224.86 316.811 224.806 316.741 224.751C316.737 224.751 316.737 224.751 316.733 224.751C316.652 224.688 316.567 224.63 316.48 224.576C316.394 224.521 316.308 224.467 316.215 224.416C316.207 224.416 316.203 224.416 316.199 224.408C316.112 224.359 316.022 224.315 315.93 224.276C315.841 224.233 315.747 224.194 315.65 224.155C315.587 224.136 315.529 224.113 315.47 224.097C315.447 224.087 315.423 224.08 315.399 224.073C315.34 224.054 315.274 224.039 315.215 224.023C315.204 224.015 315.19 224.011 315.176 224.011C315.11 223.993 315.042 223.979 314.974 223.968C314.959 223.961 314.943 223.957 314.927 223.957C314.77 223.923 314.611 223.9 314.451 223.89C314.356 223.879 314.26 223.874 314.164 223.875H313.724C314.872 223.907 315.96 224.393 316.75 225.225C317.54 226.058 317.967 227.17 317.937 228.317V261.882H338.704L318.528 261.877ZM395.244 241.574C395.218 241.573 395.192 241.575 395.166 241.578H395.238C395.289 241.578 395.343 241.578 395.39 241.578C395.341 241.573 395.292 241.571 395.244 241.574ZM395.236 235.178C395.189 235.178 395.139 235.178 395.092 235.174C395.139 235.178 395.193 235.186 395.244 235.186C395.292 235.187 395.34 235.184 395.387 235.174C395.341 235.178 395.284 235.178 395.236 235.178V235.178ZM395.236 248.068C395.139 248.067 395.043 248.058 394.949 248.041C395.045 248.064 395.145 248.076 395.244 248.076C395.343 248.076 395.441 248.064 395.537 248.041C395.438 248.058 395.337 248.067 395.236 248.068V248.068ZM397.024 247.39C397.096 247.286 397.149 247.17 397.181 247.048C397.145 247.169 397.092 247.284 397.024 247.39V247.39ZM397.162 242.536C397.218 242.696 397.246 242.864 397.247 243.034V246.612C397.247 246.76 397.225 246.907 397.181 247.049C397.231 246.908 397.255 246.758 397.253 246.609V243.034C397.252 242.864 397.221 242.695 397.162 242.536V242.536Z" fill="#CDD5DC"/>
<path d="M436.069 261.876H420.523V227.17C420.524 226.381 420.369 225.599 420.067 224.869C419.765 224.14 419.322 223.477 418.764 222.919C418.205 222.36 417.542 221.917 416.812 221.615C416.083 221.312 415.3 221.156 414.51 221.156H413.107V216.699C413.124 216.369 413.072 216.039 412.957 215.73C412.842 215.42 412.665 215.138 412.437 214.899C412.209 214.66 411.935 214.469 411.631 214.339C411.327 214.209 411 214.142 410.67 214.142C410.339 214.142 410.012 214.209 409.709 214.339C409.405 214.469 409.131 214.66 408.903 214.899C408.675 215.138 408.498 215.42 408.383 215.73C408.267 216.039 408.216 216.369 408.232 216.699V221.156H394.539C393.747 221.156 392.964 221.311 392.233 221.614C391.502 221.916 390.837 222.359 390.278 222.918C389.718 223.477 389.275 224.141 388.972 224.871C388.669 225.601 388.513 226.384 388.513 227.174V261.881H367.817H338.702H317.935V228.314C317.965 227.168 317.538 226.056 316.749 225.223C315.959 224.39 314.87 223.905 313.722 223.873H296.393C295.211 223.873 294.079 224.342 293.243 225.176C292.408 226.011 291.939 227.142 291.939 228.322V245.592H277.165V245.596H273.145C272.985 245.596 272.824 245.607 272.666 245.631C272.588 245.646 272.51 245.662 272.436 245.678C272.397 245.684 272.359 245.693 272.322 245.705C272.284 245.716 272.251 245.724 272.21 245.736C272.159 245.751 272.112 245.771 272.062 245.787C271.871 245.857 271.686 245.946 271.512 246.051L271.384 246.133C271.219 246.248 271.063 246.377 270.92 246.518C270.848 246.59 270.783 246.661 270.717 246.733V246.737C270.655 246.815 270.596 246.893 270.534 246.975C270.534 246.975 270.538 246.975 270.534 246.975C270.479 247.057 270.425 247.143 270.374 247.232C270.323 247.322 270.285 247.415 270.242 247.512C270.198 247.609 270.17 247.699 270.137 247.799C270.113 247.873 270.093 247.948 270.078 248.025C270.058 248.096 270.047 248.177 270.031 248.254C270.008 248.414 269.996 248.575 269.996 248.737V261.876H255.459H246.963C246.878 261.876 246.796 261.876 246.714 261.883C246.238 261.883 245.766 261.976 245.326 262.157C244.886 262.339 244.486 262.605 244.149 262.942C243.813 263.278 243.546 263.678 243.364 264.117C243.182 264.557 243.089 265.028 243.09 265.504V266.002C243.09 266.478 243.183 266.949 243.365 267.388C243.547 267.828 243.814 268.227 244.151 268.563C244.487 268.899 244.887 269.166 245.327 269.348C245.767 269.53 246.238 269.623 246.714 269.623H433.45C438.387 269.623 440.106 267.836 440.054 265.652C440.01 264.629 439.57 263.663 438.826 262.958C438.082 262.254 437.094 261.866 436.069 261.876V261.876ZM279.277 257.578C279.277 257.889 279.178 258.192 278.994 258.443C278.809 258.694 278.549 258.879 278.252 258.972C277.955 259.064 277.636 259.06 277.341 258.958C277.047 258.857 276.793 258.664 276.616 258.408C276.595 258.381 276.577 258.352 276.561 258.322C276.535 258.282 276.513 258.241 276.495 258.197C276.49 258.189 276.488 258.18 276.487 258.17C276.461 258.123 276.44 258.074 276.425 258.022C276.42 258.022 276.42 258.022 276.42 258.011C276.402 257.946 276.388 257.881 276.377 257.816C276.37 257.816 276.37 257.8 276.37 257.788C276.359 257.719 276.353 257.649 276.354 257.578V253.998C276.353 253.926 276.359 253.854 276.37 253.783C276.369 253.773 276.372 253.763 276.377 253.755C276.386 253.693 276.405 253.627 276.42 253.561C276.423 253.558 276.425 253.553 276.425 253.549C276.447 253.481 276.474 253.415 276.507 253.351C276.528 253.299 276.555 253.249 276.588 253.203C276.599 253.191 276.608 253.178 276.616 253.164C276.793 252.908 277.047 252.715 277.342 252.613C277.637 252.512 277.956 252.507 278.254 252.601C278.551 252.694 278.811 252.879 278.995 253.131C279.179 253.382 279.278 253.686 279.277 253.997V257.578ZM308.816 232.861C308.818 232.475 308.972 232.104 309.246 231.831C309.52 231.557 309.891 231.403 310.278 231.401C310.424 231.4 310.57 231.422 310.708 231.468L310.838 231.515C310.895 231.538 310.951 231.565 311.005 231.596C311.076 231.637 311.144 231.684 311.207 231.736C311.356 231.857 311.48 232.005 311.574 232.172C311.616 232.254 311.65 232.341 311.675 232.43C311.719 232.569 311.742 232.714 311.741 232.86V236.437C311.741 236.537 311.732 236.636 311.714 236.734C311.703 236.78 311.691 236.831 311.683 236.877H311.675C311.663 236.922 311.647 236.966 311.629 237.009C311.591 237.096 311.545 237.18 311.492 237.258C311.438 237.335 311.378 237.407 311.313 237.474C311.177 237.609 311.016 237.717 310.839 237.79C310.662 237.864 310.472 237.902 310.28 237.902C310.088 237.902 309.898 237.864 309.721 237.79C309.544 237.717 309.383 237.609 309.248 237.474C309.184 237.405 309.124 237.333 309.068 237.258C309.015 237.18 308.969 237.096 308.932 237.009C308.898 236.92 308.869 236.829 308.846 236.736C308.836 236.689 308.829 236.641 308.826 236.593C308.827 236.569 308.825 236.545 308.818 236.521C308.817 236.495 308.817 236.469 308.818 236.443L308.816 232.861ZM301.997 248.337C301.989 248.719 301.831 249.082 301.557 249.349C301.284 249.617 300.916 249.766 300.534 249.766C300.151 249.766 299.784 249.617 299.511 249.349C299.237 249.082 299.079 248.719 299.071 248.337V244.763C299.079 244.381 299.237 244.017 299.511 243.75C299.784 243.483 300.151 243.333 300.534 243.333C300.916 243.333 301.284 243.483 301.557 243.75C301.831 244.017 301.989 244.381 301.997 244.763V248.337ZM301.997 236.439C302.001 236.634 301.967 236.827 301.895 237.008C301.824 237.189 301.717 237.354 301.58 237.494C301.444 237.633 301.281 237.743 301.101 237.819C300.922 237.894 300.729 237.933 300.534 237.933C300.339 237.933 300.146 237.894 299.966 237.819C299.787 237.743 299.624 237.633 299.488 237.494C299.351 237.354 299.244 237.189 299.173 237.008C299.101 236.827 299.066 236.634 299.071 236.439V232.861C299.079 232.479 299.237 232.116 299.511 231.848C299.784 231.581 300.151 231.432 300.534 231.432C300.916 231.432 301.284 231.581 301.557 231.848C301.831 232.116 301.989 232.479 301.997 232.861V236.439ZM311.918 261.886H311.147C311.147 261.886 311.143 261.886 311.143 261.878H305.25V255.844C305.25 255.638 305.29 255.435 305.368 255.245C305.447 255.055 305.562 254.883 305.707 254.737C305.852 254.592 306.024 254.477 306.214 254.398C306.404 254.319 306.607 254.278 306.813 254.278H309.81C310.225 254.279 310.622 254.445 310.915 254.738C311.208 255.031 311.373 255.429 311.372 255.844V261.878H311.918V261.886ZM322.132 264.949H321.361C321.359 264.949 321.357 264.948 321.355 264.947C321.354 264.945 321.353 264.943 321.353 264.941H322.132V264.949ZM397.161 242.537C397.22 242.696 397.251 242.865 397.25 243.035V246.609C397.253 246.759 397.228 246.908 397.179 247.049C397.147 247.172 397.094 247.287 397.022 247.391C397.09 247.285 397.143 247.17 397.179 247.049C397.222 246.908 397.245 246.761 397.245 246.613V243.034C397.245 242.864 397.217 242.696 397.161 242.535V242.537ZM393.776 230.152C393.774 230.102 393.778 230.053 393.788 230.004C393.792 229.962 393.8 229.918 393.804 229.88C393.831 229.731 393.883 229.588 393.956 229.455C393.998 229.371 394.052 229.292 394.115 229.221C394.132 229.201 394.15 229.182 394.17 229.163C394.185 229.142 394.203 229.124 394.224 229.109C394.248 229.077 394.277 229.049 394.31 229.027C394.341 229.001 394.374 228.977 394.408 228.955C394.426 228.94 394.446 228.925 394.466 228.913C394.511 228.884 394.559 228.86 394.61 228.841C394.704 228.788 394.807 228.751 394.913 228.732C394.964 228.718 395.016 228.71 395.069 228.705C395.123 228.697 395.178 228.693 395.233 228.693H395.276C395.288 228.692 395.3 228.694 395.311 228.697C395.344 228.696 395.376 228.699 395.409 228.705C395.461 228.71 395.513 228.718 395.564 228.732C395.672 228.752 395.776 228.789 395.872 228.841C395.923 228.86 395.971 228.884 396.016 228.913C396.039 228.926 396.061 228.94 396.083 228.955C396.113 228.979 396.141 229.003 396.172 229.027C396.207 229.048 396.238 229.076 396.261 229.109C396.284 229.121 396.303 229.14 396.316 229.163C396.335 229.183 396.355 229.206 396.37 229.221C396.398 229.251 396.422 229.284 396.442 229.319C396.468 229.352 396.492 229.387 396.514 229.424C396.529 229.459 396.553 229.495 396.569 229.529C396.584 229.563 396.599 229.607 396.619 229.646C396.627 229.689 396.646 229.728 396.654 229.766C396.689 229.892 396.706 230.022 396.705 230.152V233.722C396.704 233.867 396.684 234.012 396.646 234.152C396.627 234.203 396.612 234.246 396.596 234.288C396.58 234.331 396.545 234.394 396.518 234.44C396.49 234.487 396.455 234.534 396.42 234.584C396.38 234.645 396.333 234.701 396.28 234.751C396.248 234.785 396.213 234.817 396.175 234.845C396.139 234.876 396.103 234.903 396.062 234.93C396.02 234.957 395.98 234.981 395.941 235.008C395.902 235.036 395.855 235.051 395.813 235.066L395.676 235.117C395.631 235.132 395.586 235.144 395.54 235.152C395.536 235.152 395.524 235.16 395.52 235.16C395.473 235.164 395.43 235.172 395.391 235.175C395.344 235.185 395.296 235.189 395.248 235.187C395.198 235.187 395.143 235.18 395.096 235.175C395.05 235.171 395.015 235.164 394.975 235.16C394.911 235.149 394.849 235.132 394.788 235.109C394.753 235.094 394.717 235.082 394.679 235.066C394.642 235.051 394.593 235.028 394.551 235.008C394.508 234.989 394.469 234.957 394.43 234.93C394.39 234.903 394.358 234.876 394.317 234.845C394.244 234.788 394.179 234.722 394.122 234.65C394.057 234.575 394.002 234.493 393.958 234.405C393.937 234.367 393.918 234.328 393.903 234.288C393.888 234.245 393.869 234.202 393.853 234.159C393.837 234.116 393.826 234.066 393.814 234.019C393.801 233.973 393.799 233.918 393.794 233.871C393.788 233.846 393.786 233.82 393.787 233.794C393.783 233.77 393.782 233.746 393.783 233.722L393.776 230.152ZM394.673 247.955C394.584 247.92 394.5 247.875 394.423 247.819C394.347 247.764 394.275 247.704 394.208 247.64C394.175 247.607 394.145 247.572 394.118 247.534C394.068 247.476 394.024 247.414 393.986 247.348C393.951 247.294 393.922 247.236 393.9 247.176C393.862 247.088 393.832 246.997 393.81 246.904C393.79 246.808 393.78 246.71 393.779 246.611V243.034C393.777 242.984 393.781 242.935 393.791 242.886C393.795 242.843 393.803 242.801 393.806 242.761C393.817 242.699 393.834 242.638 393.857 242.578C393.872 242.54 393.885 242.501 393.9 242.469C393.916 242.426 393.939 242.384 393.959 242.337C394.093 242.089 394.298 241.886 394.547 241.753C394.588 241.729 394.631 241.708 394.676 241.691C394.714 241.674 394.753 241.66 394.793 241.648C394.793 241.648 394.804 241.648 394.808 241.648C394.851 241.636 394.894 241.62 394.944 241.609C394.994 241.597 395.042 241.593 395.093 241.585C395.117 241.583 395.141 241.583 395.165 241.585C395.19 241.582 395.216 241.58 395.242 241.581C395.29 241.58 395.338 241.582 395.386 241.589C395.424 241.597 395.467 241.601 395.514 241.608C395.529 241.609 395.543 241.611 395.557 241.616C395.592 241.628 395.629 241.64 395.67 241.651C395.721 241.667 395.764 241.683 395.807 241.698C395.851 241.716 395.894 241.737 395.935 241.76C396.1 241.849 396.246 241.968 396.366 242.111C396.413 242.177 396.464 242.243 396.51 242.313C396.556 242.383 396.581 242.461 396.615 242.543C396.622 242.578 396.642 242.614 396.65 242.659C396.667 242.721 396.68 242.783 396.689 242.847C396.697 242.911 396.7 242.976 396.701 243.041V246.612C396.701 246.76 396.678 246.907 396.635 247.049C396.594 247.168 396.542 247.282 396.478 247.391C396.455 247.43 396.428 247.462 396.406 247.493C396.368 247.547 396.324 247.597 396.274 247.64C396.207 247.706 396.135 247.766 396.058 247.819C395.982 247.876 395.898 247.922 395.809 247.956C395.722 247.994 395.63 248.023 395.536 248.041C395.441 248.065 395.342 248.076 395.244 248.076C395.144 248.076 395.045 248.065 394.948 248.041C394.854 248.023 394.762 247.994 394.675 247.955H394.673ZM401.247 262.997H395.121V256.418C395.121 256.213 395.162 256.009 395.241 255.82C395.32 255.63 395.436 255.458 395.581 255.313C395.727 255.168 395.9 255.053 396.09 254.975C396.281 254.897 396.484 254.858 396.69 254.858H399.69C400.104 254.859 400.501 255.024 400.793 255.317C401.085 255.61 401.249 256.006 401.249 256.419L401.247 262.997ZM405.625 246.611C405.629 246.805 405.595 246.998 405.524 247.178C405.452 247.359 405.346 247.523 405.21 247.662C405.074 247.801 404.912 247.911 404.733 247.986C404.554 248.061 404.362 248.1 404.168 248.1C403.973 248.1 403.781 248.061 403.602 247.986C403.423 247.911 403.261 247.801 403.125 247.662C402.99 247.523 402.883 247.359 402.812 247.178C402.74 246.998 402.706 246.805 402.71 246.611V243.034C402.706 242.84 402.74 242.647 402.812 242.467C402.883 242.286 402.99 242.122 403.125 241.983C403.261 241.844 403.423 241.734 403.602 241.659C403.781 241.584 403.973 241.545 404.168 241.545C404.362 241.545 404.554 241.584 404.733 241.659C404.912 241.734 405.074 241.844 405.21 241.983C405.346 242.122 405.452 242.286 405.524 242.467C405.595 242.647 405.629 242.84 405.625 243.034V246.611ZM405.625 233.722C405.629 233.916 405.595 234.109 405.524 234.289C405.452 234.469 405.346 234.634 405.21 234.772C405.074 234.911 404.912 235.021 404.733 235.097C404.554 235.172 404.362 235.211 404.168 235.211C403.973 235.211 403.781 235.172 403.602 235.097C403.423 235.021 403.261 234.911 403.125 234.772C402.99 234.634 402.883 234.469 402.812 234.289C402.74 234.109 402.706 233.916 402.71 233.722V230.152C402.706 229.958 402.74 229.765 402.812 229.585C402.883 229.405 402.99 229.24 403.125 229.102C403.261 228.963 403.423 228.853 403.602 228.778C403.781 228.702 403.973 228.664 404.168 228.664C404.362 228.664 404.554 228.702 404.733 228.778C404.912 228.853 405.074 228.963 405.21 229.102C405.346 229.24 405.452 229.405 405.524 229.585C405.595 229.765 405.629 229.958 405.625 230.152V233.722ZM414.557 256.804C414.549 257.186 414.391 257.55 414.117 257.818C413.843 258.086 413.475 258.236 413.092 258.236C412.709 258.236 412.341 258.086 412.067 257.818C411.793 257.55 411.635 257.186 411.627 256.804V253.233C411.635 252.851 411.793 252.487 412.067 252.219C412.341 251.951 412.709 251.802 413.092 251.802C413.475 251.802 413.843 251.951 414.117 252.219C414.391 252.487 414.549 252.851 414.557 253.233V256.804ZM414.557 233.722C414.549 234.104 414.391 234.469 414.117 234.736C413.843 235.004 413.475 235.154 413.092 235.154C412.709 235.154 412.341 235.004 412.067 234.736C411.793 234.469 411.635 234.104 411.627 233.722V230.152C411.622 229.957 411.657 229.763 411.729 229.582C411.8 229.401 411.908 229.235 412.044 229.096C412.181 228.957 412.344 228.846 412.524 228.77C412.704 228.695 412.897 228.656 413.092 228.656C413.287 228.656 413.481 228.695 413.66 228.77C413.84 228.846 414.003 228.957 414.14 229.096C414.276 229.235 414.384 229.401 414.455 229.582C414.527 229.763 414.562 229.957 414.557 230.152V233.722Z" fill="#CDD5DC"/>
<path d="M338.703 261.877H328.94V261.88H338.703V261.877Z" fill="#CDD5DC"/>
<path d="M378.25 261.877H367.817V261.88H378.25V261.877Z" fill="#CDD5DC"/>
</g>
<defs>
<clipPath id="clip0_338_1971">
<rect width="399" height="294" fill="white" transform="translate(46 34)"/>
</clipPath>
</defs>
</svg>
