<svg xmlns="http://www.w3.org/2000/svg" viewBox="0 0 555.862 410">
  <defs>
    <style>
      .cls-1{fill:#b5bdc2}.cls-2{fill:#e3e9f1}.cls-3{fill:#f1f5fb}.cls-4{fill:#f9fbff}.cls-5{fill:#ff6b70}.cls-9{opacity:.1}.cls-10{fill:#494c4e}.cls-12{fill:#cdd5dc}.cls-13{fill:#868c8f}.cls-16{opacity:.4}
    </style>
  </defs>
  <g id="Layer_2" data-name="Layer 2">
    <g id="Layer_1-2" data-name="Layer 1">
      <path class="cls-1" d="M423.785 171.779h-2.714a.814.814 0 0 1 0-1.628h2.714a.814.814 0 1 1 0 1.628Zm-6.514 0h-2.715a.814.814 0 1 1 0-1.628h2.715a.814.814 0 0 1 0 1.628Zm-6.515 0h-2.715a.814.814 0 0 1 0-1.628h2.715a.814.814 0 1 1 0 1.628Zm-6.515 0h-2.715a.814.814 0 0 1 0-1.628h2.715a.814.814 0 1 1 0 1.628Zm-6.515 0h-2.714a.814.814 0 1 1 0-1.628h2.714a.814.814 0 1 1 0 1.628Zm-6.515 0H388.5a.814.814 0 1 1 0-1.628h2.714a.814.814 0 1 1 0 1.628Zm-6.515 0h-2.714a.814.814 0 1 1 0-1.628h2.718a.814.814 0 1 1 0 1.628Zm-6.515 0h-2.714a.814.814 0 1 1 0-1.628h2.714a.814.814 0 1 1 0 1.628Zm-6.514 0h-2.715a.814.814 0 0 1 0-1.628h2.715a.814.814 0 1 1 0 1.628Zm-6.515 0h-2.715a.814.814 0 0 1 0-1.628h2.715a.814.814 0 1 1 0 1.628Zm-6.515 0h-2.715a.814.814 0 0 1 0-1.628h2.715a.814.814 0 1 1 0 1.628Zm-6.515 0h-2.714a.814.814 0 1 1 0-1.628h2.714a.814.814 0 0 1 0 1.628Zm-6.515 0h-2.714a.814.814 0 1 1 0-1.628h2.714a.814.814 0 1 1 0 1.628Zm-6.515 0h-2.714a.814.814 0 1 1 0-1.628h2.714a.814.814 0 1 1 0 1.628Zm-6.514 0h-2.715a.814.814 0 1 1 0-1.628h2.715a.814.814 0 0 1 0 1.628Zm-6.515 0h-2.715a.814.814 0 1 1 0-1.628h2.715a.814.814 0 0 1 0 1.628Zm-6.515 0h-2.715a.814.814 0 1 1 0-1.628h2.715a.814.814 0 0 1 0 1.628Zm-6.515 0h-2.715a.814.814 0 0 1 0-1.628h2.715a.814.814 0 1 1 0 1.628Zm-6.515 0H303.8a.814.814 0 1 1 0-1.628h2.714a.814.814 0 0 1 0 1.628Zm-6.515 0h-2.714a.814.814 0 1 1 0-1.628H300a.814.814 0 1 1 0 1.628Zm-6.515 0h-2.714a.814.814 0 1 1 0-1.628h2.714a.814.814 0 1 1 0 1.628Zm-6.514 0h-2.715a.814.814 0 1 1 0-1.628h2.715a.814.814 0 0 1 0 1.628Zm-6.515 0h-2.715a.814.814 0 1 1 0-1.628h2.715a.814.814 0 0 1 0 1.628Zm-6.515 0h-2.715a.814.814 0 0 1 0-1.628h2.715a.814.814 0 1 1 0 1.628Zm-6.515 0h-2.715a.814.814 0 1 1 0-1.628h2.715a.814.814 0 0 1 0 1.628Zm-6.515 0H258.2a.814.814 0 1 1 0-1.628h2.714a.814.814 0 0 1 0 1.628Zm-6.515 0h-2.714a.814.814 0 1 1 0-1.628h2.715a.814.814 0 1 1 0 1.628Zm-6.515 0h-2.714a.814.814 0 0 1 0-1.628h2.714a.814.814 0 1 1 0 1.628Z"/>
      <path class="cls-2" d="M536.953 354.264h-87.934a2.42 2.42 0 0 1-2.42-2.421 2.42 2.42 0 0 1 2.42-2.421h9.771a5.325 5.325 0 0 0 5.373-4.666 5.176 5.176 0 0 0-5.15-5.683H269.91a5.325 5.325 0 0 0-5.373 4.666 5.176 5.176 0 0 0 5.15 5.683h132.144a2.421 2.421 0 0 1 2.421 2.421 2.421 2.421 0 0 1-2.421 2.421h-77.276a5.324 5.324 0 0 0-5.372 4.666 5.175 5.175 0 0 0 5.15 5.683h212.843a5.176 5.176 0 0 0 5.15-5.683 5.325 5.325 0 0 0-5.373-4.666Z"/>
      <rect class="cls-3" x="473.123" y="339.073" width="42.347" height="10.349" rx="5.175"/>
      <rect class="cls-2" x="374.89" y="371.512" width="106.831" height="10.349" rx="5.175"/>
      <path class="cls-3" d="M373.441 232.49h-23.754a2.185 2.185 0 0 1-2.185-2.185 2.185 2.185 0 0 1 2.185-2.185h13.142a4.278 4.278 0 0 0 4.331-3.763 4.134 4.134 0 0 0-4.117-4.5h-58.761a4.278 4.278 0 0 0-4.331 3.763 4.134 4.134 0 0 0 4.116 4.5h24.407a2.186 2.186 0 0 1 2.186 2.185 2.186 2.186 0 0 1-2.186 2.185h-13.581a4.277 4.277 0 0 0-4.33 3.763 4.134 4.134 0 0 0 4.116 4.5h7.667a2.164 2.164 0 0 1 2.164 2.164 2.206 2.206 0 0 1-2.206 2.206h-32.342a4.278 4.278 0 0 0-4.331 3.763 4.134 4.134 0 0 0 4.117 4.5h58.761a4.278 4.278 0 0 0 4.331-3.763 4.134 4.134 0 0 0-4.117-4.5H338.4a2.185 2.185 0 0 1-2.185-2.185 2.185 2.185 0 0 1 2.185-2.185h35.254a4.133 4.133 0 0 0 4.116-4.5 4.277 4.277 0 0 0-4.329-3.763ZM504.929 158.636h-21.521a1.979 1.979 0 0 1-1.979-1.98 1.979 1.979 0 0 1 1.979-1.979h11.907a3.875 3.875 0 0 0 3.923-3.409 3.745 3.745 0 0 0-3.729-4.08h-53.236a3.876 3.876 0 0 0-3.924 3.409 3.745 3.745 0 0 0 3.73 4.08h22.112a1.979 1.979 0 0 1 1.979 1.979 1.979 1.979 0 0 1-1.979 1.98h-12.3a3.876 3.876 0 0 0-3.924 3.409 3.744 3.744 0 0 0 3.729 4.079h6.946a1.961 1.961 0 0 1 1.961 1.961 2 2 0 0 1-2 2H429.3a3.876 3.876 0 0 0-3.924 3.409 3.745 3.745 0 0 0 3.73 4.079h53.236a3.875 3.875 0 0 0 3.923-3.409 3.744 3.744 0 0 0-3.729-4.079h-9.352a1.98 1.98 0 0 1-1.98-1.98 1.98 1.98 0 0 1 1.98-1.98h31.939a3.744 3.744 0 0 0 3.729-4.079 3.875 3.875 0 0 0-3.923-3.41Z"/>
      <rect class="cls-3" x="280.491" y="233.889" width="21.425" height="5.467" rx="2.734"/>
      <rect class="cls-4" x="533.308" y="179.395" width="22.554" height="5.755" rx="2.878"/>
      <rect class="cls-4" x="377.364" y="221.667" width="15.299" height="5.467" rx="2.734"/>
      <rect class="cls-4" x="349.474" y="202.634" width="15.299" height="5.467" rx="2.734"/>
      <rect class="cls-4" x="376.465" y="152.048" width="15.299" height="5.467" rx="2.734"/>
      <rect class="cls-4" x="444.824" y="188.521" width="15.299" height="5.467" rx="2.734"/>
      <rect class="cls-3" x="520.28" y="254.658" width="16.928" height="6.049" rx="3.025"/>
      <rect class="cls-3" x="513.988" y="175.985" width="16.928" height="6.049" rx="3.025"/>
      <rect class="cls-3" x="384.199" y="104.387" width="16.928" height="6.049" rx="3.025"/>
      <rect class="cls-4" x="415.321" y="37.035" width="16.928" height="6.049" rx="3.025"/>
      <rect class="cls-3" x="407.296" y="136.99" width="16.928" height="6.049" rx="3.025"/>
      <rect class="cls-4" x="475.009" y="192.085" width="25.966" height="6.049" rx="3.025"/>
      <rect class="cls-3" x="344.516" y="373.256" width="19.175" height="6.049" rx="3.025"/>
      <rect class="cls-3" x="442.092" y="403.951" width="25.966" height="6.049" rx="3.025"/>
      <rect class="cls-3" x="471.399" y="391.595" width="17.941" height="6.049" rx="3.025"/>
      <rect class="cls-3" x="403.756" y="391.595" width="54.98" height="6.049" rx="3.025"/>
      <rect class="cls-3" x="527.059" y="241.684" width="27.777" height="7.687" rx="3.843"/>
      <rect class="cls-3" x="465.277" y="98.876" width="16.928" height="6.049" rx="3.025"/>
      <rect class="cls-3" x="472.056" y="85.902" width="27.777" height="7.687" rx="3.843"/>
      <path class="cls-3" d="M537.33 220.973H506.1a2.758 2.758 0 0 1-2.759-2.758 2.759 2.759 0 0 1 2.759-2.759h9.058a5.191 5.191 0 0 0 5.237-4.549 5.046 5.046 0 0 0-5.021-5.54h-50.355a5.191 5.191 0 0 0-5.237 4.549 5.045 5.045 0 0 0 5.02 5.54h25.406a2.759 2.759 0 0 1 2.759 2.759 2.758 2.758 0 0 1-2.759 2.758h-3.015a5.191 5.191 0 0 0-5.237 4.549 5.045 5.045 0 0 0 5.02 5.54h50.57a5.045 5.045 0 0 0 5.021-5.54 5.191 5.191 0 0 0-5.237-4.549Z"/>
      <path class="cls-4" d="M449.772 73.707H418.54a2.758 2.758 0 0 1-2.759-2.758 2.759 2.759 0 0 1 2.759-2.759h9.06a5.191 5.191 0 0 0 5.238-4.549 5.046 5.046 0 0 0-5.021-5.54h-50.356a5.191 5.191 0 0 0-5.238 4.549 5.046 5.046 0 0 0 5.021 5.54h25.406a2.759 2.759 0 0 1 2.759 2.759 2.758 2.758 0 0 1-2.759 2.758h-3.015a5.19 5.19 0 0 0-5.237 4.549 5.045 5.045 0 0 0 5.02 5.54h50.57a5.045 5.045 0 0 0 5.021-5.54 5.191 5.191 0 0 0-5.237-4.549ZM344.61 134.1h29.775a2.63 2.63 0 0 0 2.63-2.63 2.63 2.63 0 0 0-2.63-2.629h-8.635a4.949 4.949 0 0 1-4.993-4.337 4.81 4.81 0 0 1 4.786-5.282h48a4.95 4.95 0 0 1 4.994 4.337 4.811 4.811 0 0 1-4.787 5.282h-24.217a2.63 2.63 0 0 0-2.63 2.629 2.63 2.63 0 0 0 2.63 2.63h2.875a4.95 4.95 0 0 1 4.993 4.337 4.81 4.81 0 0 1-4.787 5.281H344.4a4.81 4.81 0 0 1-4.786-5.281 4.949 4.949 0 0 1 4.996-4.337Z"/>
      <circle class="cls-5" cx="428.748" cy="169.035" r="14.254"/>
      <path d="m426.056 171.8 8.453-8.924a1.6 1.6 0 0 1 2.32 2.2l-9.582 10.114-.017.014-.015.016a1.6 1.6 0 0 1-2.242.016l-.021-.021-4.253-4.252a1.6 1.6 0 1 1 2.257-2.257l3.1 3.1Z" style="fill-rule:evenodd;fill:#fff"/>
      <path d="M48.377 29.219h191.915a23.587 23.587 0 0 1 23.587 23.587V286.73a25.715 25.715 0 0 1-25.715 25.715H48.377a23.587 23.587 0 0 1-23.587-23.587V52.806a23.587 23.587 0 0 1 23.587-23.587Z" transform="rotate(12.034 144.332 170.827)" style="fill:#deae6b"/>
      <path d="M283.176 76.868 234.352 305.9a23.5 23.5 0 0 1-27.885 18.1L18.6 283.948A23.5 23.5 0 0 1 .522 256.055L49.346 27.021A23.5 23.5 0 0 1 77.229 8.937l87.987 18.756a10.382 10.382 0 0 0 13.117 2.8l86.759 18.494a23.5 23.5 0 0 1 18.084 27.881Z" style="fill:#fad39e"/>
      <g class="cls-9">
        <rect class="cls-10" x="39.482" y="51.006" width="196.529" height="234.299" rx="6.945" transform="rotate(12.034 137.743 168.15)"/>
      </g>
      <rect x="44.159" y="46.611" width="196.529" height="234.299" rx="6.945" transform="rotate(12.034 142.421 163.758)" style="fill:#fff"/>
      <path class="cls-2" d="M189.136 102.99 89.255 81.7a3.925 3.925 0 1 1 1.637-7.677l99.881 21.291a3.925 3.925 0 0 1-1.637 7.678Z"/>
      <path class="cls-12" d="M191.719 161.459a5.784 5.784 0 0 0-6.855 4.445l-18.546 87a5.776 5.776 0 1 0 11.3 2.409l18.546-87a5.781 5.781 0 0 0-4.445-6.854ZM165.36 183.732a5.776 5.776 0 0 0-10.5 1.939l-13.212 61.978a5.776 5.776 0 1 0 11.3 2.409l13.212-61.978a5.737 5.737 0 0 0-.8-4.348ZM133.865 190.932a5.776 5.776 0 0 0-6.855 4.445l-10.022 47.015a5.775 5.775 0 0 0 4.445 6.854 5.844 5.844 0 0 0 1.216.129 5.783 5.783 0 0 0 5.638-4.575l10.022-47.014a5.781 5.781 0 0 0-4.444-6.854ZM107.1 195.5a5.776 5.776 0 0 0-6.854 4.445l-7.927 37.187a5.776 5.776 0 1 0 11.3 2.409l7.928-37.187a5.783 5.783 0 0 0-4.447-6.854ZM81.346 195.371a5.776 5.776 0 0 0-6.855 4.445l-6.834 32.059a5.776 5.776 0 1 0 11.3 2.409l6.834-32.059a5.782 5.782 0 0 0-4.445-6.854Z"/>
      <path class="cls-2" d="M185.252 121.212 85.371 99.92a3.925 3.925 0 0 1 1.636-7.677l99.881 21.292a3.925 3.925 0 0 1-1.636 7.677ZM135.314 132.07l-54.328-11.581a3.925 3.925 0 0 1 1.637-7.678l54.327 11.581a3.925 3.925 0 0 1-1.636 7.678Z"/>
      <path class="cls-13" d="M194.183 139.388a2.569 2.569 0 0 0-3.046 1.975 2.534 2.534 0 0 0 .075 1.306A140.334 140.334 0 0 1 164 161.341a2.529 2.529 0 0 0-.984-.448 2.568 2.568 0 0 0-3.046 1.975 2.6 2.6 0 0 0-.052.573 181.355 181.355 0 0 1-22.056 9.193c-.986.338-1.973.657-2.96.972a2.54 2.54 0 0 0-1.329-.751 2.569 2.569 0 0 0-3.046 1.975c-.007.031-.005.062-.01.093a134.871 134.871 0 0 1-21.444 4.209 2.541 2.541 0 0 0-4.294.419 163.88 163.88 0 0 1-23.605.18 2.574 2.574 0 1 0-.2 2.267 166.384 166.384 0 0 0 23.8-.163 2.549 2.549 0 0 0 4.76-.462 136.9 136.9 0 0 0 21.629-4.267 2.56 2.56 0 0 0 4.39-1.2c.009-.04.007-.078.013-.118 1.013-.322 2.026-.65 3.037-1a183.662 183.662 0 0 0 22.361-9.324 2.542 2.542 0 0 0 .986.451 2.57 2.57 0 0 0 3.046-1.976 2.447 2.447 0 0 0 .051-.575 142.573 142.573 0 0 0 27.751-19.057 2.4 2.4 0 0 0 .321.1 2.567 2.567 0 1 0 1.07-5.021Z"/>
      <path d="M188.535 259.426a2.592 2.592 0 0 0-1.645-1.132L59.543 231.147a2.609 2.609 0 1 0-1.088 5.1L185.8 263.4a2.608 2.608 0 0 0 3.095-2.007 2.591 2.591 0 0 0-.36-1.967Z" style="fill:#9ea5a9"/>
      <path class="cls-5" d="M231.947 101.413a2.942 2.942 0 0 0-4.08-.756l-10.146 6.977-1.962-3.026a3 3 0 0 0-4.055-.866 2.927 2.927 0 0 0-.866 4.057l3.626 5.589a2.883 2.883 0 0 0 1.81 1.227 3.025 3.025 0 0 0 2.293-.439l12.625-8.681a2.942 2.942 0 0 0 .755-4.082Z"/>
      <g class="cls-9">
        <path class="cls-10" d="M219 42.857a21.875 21.875 0 0 0-11.278-6.273l.437-2.049a7.715 7.715 0 0 0-5.946-9.145l-9.5-2.026a21.274 21.274 0 0 0-39.068-10.415 19.459 19.459 0 0 0-1.088 1.855l-9.5-2.026a7.707 7.707 0 0 0-8.7 4.49 8.172 8.172 0 0 0-.457 1.432l-.437 2.05c-.547-.117-1.1-.216-1.647-.287a21.92 21.92 0 0 0-11.216 1.418 21.93 21.93 0 0 0-13.27 15.824l-.855 4.01a4.987 4.987 0 0 0 3.843 5.926L217.9 70.574a4.985 4.985 0 0 0 5.917-3.845l.855-4.01A22.012 22.012 0 0 0 219 42.857Zm-39.084-12.2a10.432 10.432 0 0 1-1.719 1.869 10.535 10.535 0 1 1 1.719-1.869Z"/>
      </g>
      <path class="cls-13" d="M220.971 39.579a21.866 21.866 0 0 0-11.278-6.274l.437-2.049a7.715 7.715 0 0 0-5.946-9.145l-9.5-2.026A21.274 21.274 0 0 0 155.612 9.67a19.71 19.71 0 0 0-1.088 1.855L145.02 9.5a7.708 7.708 0 0 0-8.7 4.491 8.23 8.23 0 0 0-.454 1.436l-.437 2.049c-.547-.117-1.1-.216-1.647-.286a21.921 21.921 0 0 0-11.213 1.41A21.933 21.933 0 0 0 109.3 34.427l-.855 4.01a4.987 4.987 0 0 0 3.843 5.926L219.864 67.3a4.985 4.985 0 0 0 5.917-3.846l.855-4.01a22.01 22.01 0 0 0-5.665-19.865Zm-39.084-12.2a10.419 10.419 0 0 1-18.656-3.979 10.423 10.423 0 0 1 12.377-12.312 10.427 10.427 0 0 1 8.018 12.375 10.284 10.284 0 0 1-1.739 3.915Z"/>
      <path class="cls-1" d="M218.529 61.923 113.853 39.609a1.683 1.683 0 0 1 .7-3.291L219.23 58.632a1.682 1.682 0 0 1-.7 3.291Z" style="opacity:.75"/>
      <g class="cls-16">
        <path class="cls-1" d="m158.549 23.5-19-4.049a1.122 1.122 0 0 1 .467-2.194l19 4.05a1.121 1.121 0 1 1-.467 2.193Z"/>
      </g>
      <g class="cls-16">
        <path class="cls-1" d="m205.112 33.424-19-4.049a1.122 1.122 0 1 1 .468-2.194l19 4.05a1.121 1.121 0 1 1-.468 2.193Z"/>
      </g>
      <rect class="cls-3" x="349.474" y="187.596" width="54.71" height="7.316" rx="3.658"/>
      <rect class="cls-3" x="318.327" y="152.046" width="46.584" height="8.268" rx="4.134"/>
      <rect class="cls-3" x="384.114" y="201.907" width="42.742" height="7.316" rx="3.658"/>
      <rect class="cls-4" x="450.79" y="220.743" width="18.666" height="7.316" rx="3.658"/>
      <rect class="cls-4" x="308.089" y="120.868" width="32.865" height="7.316" rx="3.658"/>
      <rect class="cls-3" x="438.752" y="117.641" width="42.742" height="7.316" rx="3.658"/>
      <rect class="cls-4" x="494.023" y="131.129" width="52.514" height="7.316" rx="3.658"/>
      <rect class="cls-3" x="323.197" y="88.498" width="42.742" height="7.316" rx="3.658"/>
      <rect class="cls-4" x="447.55" y="57.574" width="42.742" height="7.316" rx="3.658"/>
      <path class="cls-4" d="M384.69 322.059v.011h-1.075a.011.011 0 0 1-.011-.011ZM370.46 317.787v.011h-1.074s-.006 0-.006-.011Z"/>
      <path class="cls-3" d="M407.774 248.578v69.214h-28.931v-46.809a6.039 6.039 0 0 0-5.869-6.194h-4.8v-7.922a8.074 8.074 0 0 1 7.845-8.289ZM322.044 282.938v12.145h-5.6a4.441 4.441 0 0 0-.668.049 6.06 6.06 0 0 0-.32.059v.006h-.049a.6.6 0 0 0-.109.033c-.054.016-.1.027-.157.043-.071.022-.136.049-.206.071a4.424 4.424 0 0 0-.766.369l-.179.114a4.058 4.058 0 0 0-.646.537 3.615 3.615 0 0 0-.282.3v.006a3.578 3.578 0 0 0-.256.331s.006 0 0 0c-.081.12-.151.234-.222.359s-.125.255-.185.39a4.226 4.226 0 0 0-.146.4 2.907 2.907 0 0 0-.082.315 3.02 3.02 0 0 0-.065.32 4.645 4.645 0 0 0-.049.673v18.323h-20.252v-34.843a8.292 8.292 0 0 1 8.29-8.29h13.659a8.285 8.285 0 0 1 8.29 8.29Z"/>
      <path class="cls-4" d="M322.04 312.952v.015a.664.664 0 0 1-.076-.136.707.707 0 0 0 .076.121Z"/>
      <path class="cls-3" d="M489.34 257.345V261h-3.778a8.392 8.392 0 0 0-8.394 8.393v48.4h-28.833l2.247-68.732h30.457a8.3 8.3 0 0 1 8.301 8.284Z"/>
      <path class="cls-4" d="M489.243 297.108a1.531 1.531 0 0 1-.218.477 1.874 1.874 0 0 0 .218-.477ZM489.34 291.51v4.984a1.769 1.769 0 0 1-.1.614 2.063 2.063 0 0 0 .092-.609v-4.989a2.126 2.126 0 0 0-.119-.695 2.007 2.007 0 0 1 .127.695Z"/>
      <path class="cls-5" d="M444.089 224.554h-31.135a7.053 7.053 0 0 0-7.053 7.058v86.18h18.356v-11.4a2.174 2.174 0 0 1 2.177-2.177h4.175a2.174 2.174 0 0 1 2.177 2.177v11.4h18.349v-86.18a7.049 7.049 0 0 0-7.046-7.058ZM422.3 295.311h-4.978a2.039 2.039 0 1 1 0-4.078h4.978a2.039 2.039 0 1 1 0 4.078Zm0-10.864h-4.978a2.036 2.036 0 1 1 0-4.072h4.978a2.036 2.036 0 1 1 0 4.072Zm0-10.864h-4.978a2.036 2.036 0 1 1 0-4.071h4.978a2.036 2.036 0 1 1 0 4.071Zm0-10.863h-4.978a2.036 2.036 0 1 1 0-4.072h4.978a2.036 2.036 0 1 1 0 4.072Zm0-10.869h-4.978a2.039 2.039 0 1 1 0-4.077h4.978a2.039 2.039 0 1 1 0 4.077Zm0-10.864h-4.978a2.039 2.039 0 1 1 0-4.077h4.978a2.039 2.039 0 1 1 0 4.077Zm17.938 54.324h-4.979a2.039 2.039 0 0 1 0-4.078h4.979a2.039 2.039 0 1 1 0 4.078Zm0-10.864h-4.979a2.036 2.036 0 0 1 0-4.072h4.979a2.036 2.036 0 1 1 0 4.072Zm0-10.864h-4.979a2.036 2.036 0 0 1 0-4.071h4.979a2.036 2.036 0 1 1 0 4.071Zm0-10.863h-4.979a2.036 2.036 0 0 1 0-4.072h4.979a2.036 2.036 0 1 1 0 4.072Zm0-10.869h-4.979a2.039 2.039 0 0 1 0-4.077h4.979a2.039 2.039 0 1 1 0 4.077Zm0-10.864h-4.979a2.039 2.039 0 0 1 0-4.077h4.979a2.039 2.039 0 1 1 0 4.077Z"/>
      <path class="cls-12" d="M486.544 289.474a.689.689 0 0 0-.108.006h.312a1.232 1.232 0 0 0-.204-.006Zm-.011 9.056a2.421 2.421 0 0 1-.4-.038 1.726 1.726 0 0 0 .412.049 1.694 1.694 0 0 0 .408-.049 2.58 2.58 0 0 1-.42.038Zm-2.024-2.036v-4.984a1.456 1.456 0 0 1 .01-.206.917.917 0 0 0-.016.206v4.99a2.094 2.094 0 0 0 .043.408 2.687 2.687 0 0 1-.037-.414Zm2.024-15.939c-.065 0-.135 0-.2-.006.065.006.141.016.211.016a.853.853 0 0 0 .2-.016c-.064.006-.144.006-.211.006Zm-2.03-7.009v4.978a.481.481 0 0 0 .006.1v-5.076a1.435 1.435 0 0 1 .01-.207.9.9 0 0 0-.019.205Zm-116.328 1.742a2.044 2.044 0 0 0-2.036 2.036v4.989a.788.788 0 0 0 0 .109v-5.087a2.04 2.04 0 0 1 2.031-2.041 2.152 2.152 0 0 1 .6.087 1.842 1.842 0 0 0-.595-.093Zm-52.488 19.789a3.2 3.2 0 0 0-.451.027 3.555 3.555 0 0 0-.857.174c-.136.049-.267.092-.4.147s-.255.119-.375.19a3.571 3.571 0 0 0-.706.467 4.407 4.407 0 0 0-.592.591c-.07.087-.13.169-.189.25s-.125.174-.174.266a2.943 2.943 0 0 0-.163.282c-.043.093-.087.19-.136.288a4.511 4.511 0 0 0-.342 1.7v18.323h-19.5 20.258v-18.313a4.645 4.645 0 0 1 .049-.673c.022-.108.038-.217.065-.32a2.907 2.907 0 0 1 .082-.315 4.226 4.226 0 0 1 .146-.4c.06-.135.12-.265.185-.39s.146-.245.222-.359c.006 0 0 0 0 0 .087-.114.169-.223.256-.331v-.006c.092-.1.184-.206.282-.3a5.069 5.069 0 0 1 .646-.537l.179-.114a4.424 4.424 0 0 1 .766-.369c.07-.022.135-.049.206-.071.054-.016.1-.027.157-.043a.6.6 0 0 1 .109-.033.145.145 0 0 0 .049-.011c.1-.021.212-.043.32-.059a4.441 4.441 0 0 1 .668-.049h5.6v-.006Zm52.488-19.789a2.044 2.044 0 0 0-2.036 2.036v4.989a.788.788 0 0 0 0 .109v-5.087a2.04 2.04 0 0 1 2.031-2.041 2.152 2.152 0 0 1 .6.087 1.842 1.842 0 0 0-.595-.093Zm1.2 42.5c0 .011.006.011.006.011h1.074v-.011Zm14.224 4.272a.011.011 0 0 0 .011.011h1.075v-.011Zm100.9-48.513v4.978a.481.481 0 0 0 .006.1v-5.076a1.435 1.435 0 0 1 .01-.207.9.9 0 0 0-.015.204Zm.006 22.948v-4.985a1.456 1.456 0 0 1 .01-.206.917.917 0 0 0-.016.206v4.99a2.094 2.094 0 0 0 .043.408 2.687 2.687 0 0 1-.033-.414ZM484.8 261a8.385 8.385 0 0 0-8.393 8.388v48.4h-28.072 28.833v-48.4a8.392 8.392 0 0 1 8.394-8.388Zm-105.132 56.787v-46.8a6.678 6.678 0 0 0-.119-1.238 4 4 0 0 0-.092-.391 6.275 6.275 0 0 0-.158-.51c-.076-.191-.152-.37-.233-.554-.055-.114-.114-.228-.174-.331s-.131-.223-.2-.326a2.992 2.992 0 0 0-.212-.3 1.63 1.63 0 0 0-.168-.217c-.06-.076-.119-.152-.179-.223s-.12-.136-.19-.206-.131-.136-.2-.2a3.7 3.7 0 0 0-.282-.249 18.515 18.515 0 0 0-.282-.229h-.011a4.014 4.014 0 0 0-.353-.244 6.217 6.217 0 0 0-.369-.223c-.011 0-.017 0-.022-.011a4.051 4.051 0 0 0-.375-.184 6.72 6.72 0 0 0-.39-.169c-.087-.027-.169-.059-.25-.081a.876.876 0 0 0-.1-.033c-.082-.027-.174-.048-.256-.07a.089.089 0 0 0-.054-.016 2.577 2.577 0 0 0-.282-.06.145.145 0 0 0-.065-.016 4.411 4.411 0 0 0-.663-.093 3.2 3.2 0 0 0-.4-.021h-.613a6.039 6.039 0 0 1 5.869 6.194v46.809h28.931Zm106.876-28.313a.689.689 0 0 0-.108.006h.312a1.232 1.232 0 0 0-.204-.006Zm-.011-8.919c-.065 0-.135 0-.2-.006.065.006.141.016.211.016a.853.853 0 0 0 .2-.016c-.064.006-.144.006-.211.006Zm0 17.975a2.421 2.421 0 0 1-.4-.038 1.726 1.726 0 0 0 .412.049 1.694 1.694 0 0 0 .408-.049 2.58 2.58 0 0 1-.42.038Zm2.492-.945a1.531 1.531 0 0 0 .218-.477 1.874 1.874 0 0 1-.218.477Zm.191-6.77a2.126 2.126 0 0 1 .119.695v4.99a2.063 2.063 0 0 1-.092.609 1.769 1.769 0 0 0 .1-.614v-4.985a2.007 2.007 0 0 0-.127-.695Z"/>
      <path class="cls-12" d="M543.419 317.787h-21.657v-48.4a8.381 8.381 0 0 0-8.377-8.387h-1.954v-6.216a3.4 3.4 0 1 0-6.792 0V261h-19.077a8.392 8.392 0 0 0-8.394 8.393v48.4h-98.325v-46.81a6.039 6.039 0 0 0-5.869-6.194h-24.143a6.206 6.206 0 0 0-6.205 6.205v24.083h-20.582v.006h-5.6a4.441 4.441 0 0 0-.668.049c-.108.021-.217.043-.32.065a1.073 1.073 0 0 0-.158.038c-.054.016-.1.027-.157.043-.071.022-.136.049-.206.071a4.424 4.424 0 0 0-.766.369l-.179.114a5.069 5.069 0 0 0-.646.537c-.1.1-.19.2-.282.3v.006c-.087.108-.169.217-.256.331 0 0 .006 0 0 0-.076.114-.151.234-.222.359s-.125.255-.185.39-.1.261-.146.4a2.907 2.907 0 0 0-.082.315c-.027.1-.043.212-.065.32a4.645 4.645 0 0 0-.049.673v18.323h-32.088c-.119 0-.233 0-.347.011a5.039 5.039 0 0 0-5.049 5.049v.695a5.046 5.046 0 0 0 5.049 5.049h260.149c6.878 0 9.272-2.492 9.2-5.538a5.5 5.5 0 0 0-5.552-5.265Zm-218.432-5.994a2.034 2.034 0 0 1-3.708 1.157.814.814 0 0 1-.076-.12 1.033 1.033 0 0 1-.092-.174.087.087 0 0 1-.011-.037 1.015 1.015 0 0 1-.087-.207c-.006 0-.006 0-.006-.016a2.567 2.567 0 0 1-.06-.272c-.01 0-.01-.021-.01-.038a1.693 1.693 0 0 1-.022-.293V306.8a1.77 1.77 0 0 1 .022-.3.055.055 0 0 1 .01-.038c.012-.087.039-.179.06-.271a.025.025 0 0 0 .006-.017 2 2 0 0 1 .114-.276 1.024 1.024 0 0 1 .114-.207.272.272 0 0 0 .038-.054 2.034 2.034 0 0 1 3.708 1.162Zm41.152-34.469a2.044 2.044 0 0 1 2.036-2.036 1.842 1.842 0 0 1 .6.093l.18.065a1.744 1.744 0 0 1 .233.114 1.94 1.94 0 0 1 .282.195 2.121 2.121 0 0 1 .511.608 1.929 1.929 0 0 1 .141.359 1.985 1.985 0 0 1 .092.6v4.989a2.446 2.446 0 0 1-.038.413 2.983 2.983 0 0 0-.043.2h-.011a1.516 1.516 0 0 1-.065.184 2.136 2.136 0 0 1-.19.348 2.368 2.368 0 0 1-.25.3 2.032 2.032 0 0 1-2.877 0 3.481 3.481 0 0 1-.25-.3 2.136 2.136 0 0 1-.19-.348 3.472 3.472 0 0 1-.12-.38 1.385 1.385 0 0 1-.027-.2.329.329 0 0 0-.011-.1.788.788 0 0 1 0-.109Zm-9.5 21.581a2.039 2.039 0 0 1-4.077 0v-4.984a2.039 2.039 0 0 1 4.077 0Zm0-16.592a2.039 2.039 0 1 1-4.077 0v-4.989a2.039 2.039 0 0 1 4.077 0ZM370.46 317.8h-1.074s-.006 0-.006-.011h-8.209v-8.415a2.179 2.179 0 0 1 2.177-2.183h4.175a2.182 2.182 0 0 1 2.177 2.183v8.415h.76Zm14.23 4.272h-1.075a.011.011 0 0 1-.011-.011h1.086Zm104.526-31.255a2.007 2.007 0 0 1 .124.695v4.984a1.769 1.769 0 0 1-.1.614 1.531 1.531 0 0 1-.218.477 1.874 1.874 0 0 0 .218-.477 2.063 2.063 0 0 0 .092-.609v-4.991a2.126 2.126 0 0 0-.116-.695Zm-4.716-17.271a.9.9 0 0 1 .016-.207c.006-.059.017-.119.022-.173a1.962 1.962 0 0 1 .212-.592 1.466 1.466 0 0 1 .222-.326 1.058 1.058 0 0 1 .076-.081.322.322 0 0 1 .076-.076.457.457 0 0 1 .12-.114 1.144 1.144 0 0 1 .136-.1.56.56 0 0 1 .081-.059.955.955 0 0 1 .2-.1 1.368 1.368 0 0 1 .423-.153 1.291 1.291 0 0 1 .217-.037 1.6 1.6 0 0 1 .228-.017h.06a.138.138 0 0 1 .049.006.572.572 0 0 1 .136.011 1.274 1.274 0 0 1 .217.037 1.453 1.453 0 0 1 .429.153.937.937 0 0 1 .2.1.958.958 0 0 1 .093.059c.043.033.081.066.125.1a.416.416 0 0 1 .124.114.19.19 0 0 1 .076.076c.027.027.055.059.076.081a.7.7 0 0 1 .1.136 1.487 1.487 0 0 1 .1.146c.021.049.054.1.076.147s.043.109.07.163c.011.06.038.114.049.168a1.972 1.972 0 0 1 .071.538v4.978a2.32 2.32 0 0 1-.082.6l-.07.19c-.022.059-.071.147-.109.212s-.087.13-.136.2a1.25 1.25 0 0 1-.195.233 1.088 1.088 0 0 1-.146.131c-.05.043-.1.081-.158.119s-.114.071-.168.109-.12.059-.179.081l-.191.071a1.191 1.191 0 0 1-.189.048c-.006 0-.022.011-.028.011-.065.006-.125.017-.179.022a.853.853 0 0 1-.2.016c-.07 0-.146-.01-.211-.016s-.114-.016-.169-.022a1.424 1.424 0 0 1-.26-.07c-.049-.022-.1-.038-.152-.06s-.12-.054-.179-.081-.114-.071-.169-.109-.1-.076-.157-.119a1.64 1.64 0 0 1-.272-.272 1.7 1.7 0 0 1-.228-.342 1.138 1.138 0 0 1-.076-.163c-.021-.059-.048-.119-.07-.179s-.038-.13-.055-.195-.021-.142-.027-.207a.375.375 0 0 1-.01-.108.481.481 0 0 1-.006-.1Zm1.249 24.827a1.577 1.577 0 0 1-.348-.19 2.673 2.673 0 0 1-.3-.25 1.137 1.137 0 0 1-.125-.147 1.644 1.644 0 0 1-.184-.26 1.188 1.188 0 0 1-.12-.239 2.316 2.316 0 0 1-.125-.38 2.094 2.094 0 0 1-.043-.408v-4.989a.917.917 0 0 1 .016-.206c.006-.06.017-.119.022-.174a1.373 1.373 0 0 1 .07-.255c.022-.054.039-.108.06-.152.022-.06.055-.119.082-.184a2 2 0 0 1 .82-.815 1.139 1.139 0 0 1 .179-.087 1.727 1.727 0 0 1 .163-.06s.016 0 .021 0c.06-.016.12-.038.19-.054s.136-.022.207-.033a.638.638 0 0 1 .1 0 .689.689 0 0 1 .108-.006 1.232 1.232 0 0 1 .2.011c.054.011.114.017.179.027a.207.207 0 0 1 .06.011c.049.017.1.033.157.049.071.022.131.044.191.065a1.544 1.544 0 0 1 .179.087 2.045 2.045 0 0 1 .6.489c.065.092.136.184.2.282s.1.206.146.32c.011.049.038.1.049.163a2.194 2.194 0 0 1 .055.261 2.463 2.463 0 0 1 .016.271v4.98a2.063 2.063 0 0 1-.092.609 2.542 2.542 0 0 1-.218.477c-.032.055-.07.1-.1.142a1.135 1.135 0 0 1-.185.206 2.3 2.3 0 0 1-.3.25 1.466 1.466 0 0 1-.347.19 1.843 1.843 0 0 1-.38.119 1.694 1.694 0 0 1-.408.049 1.726 1.726 0 0 1-.412-.049 1.806 1.806 0 0 1-.38-.12Zm9.158 20.977h-8.534v-9.175a2.178 2.178 0 0 1 2.186-2.175h4.18a2.176 2.176 0 0 1 2.171 2.177Zm6.1-22.851a2.031 2.031 0 1 1-4.061 0v-4.989a2.031 2.031 0 1 1 4.061 0Zm0-17.975a2.031 2.031 0 1 1-4.061 0v-4.978a2.031 2.031 0 1 1 4.061 0Zm12.444 32.189a2.042 2.042 0 0 1-4.083 0v-4.979a2.042 2.042 0 0 1 4.083 0Zm0-32.189a2.042 2.042 0 0 1-4.083 0v-4.978a2.042 2.042 0 1 1 4.083 0Z"/>
      <path class="cls-12" d="M394.175 317.787h13.6v.005h-13.6zM448.335 317.787h14.534v.005h-14.534z"/>
    </g>
  </g>
</svg>
