<svg width="500" height="330" viewBox="0 0 500 330" fill="none" xmlns="http://www.w3.org/2000/svg">
<g clip-path="url(#clip0_338_1971)">
<path d="M354.195 152.178H352.247C352.092 152.178 351.944 152.117 351.834 152.007C351.724 151.898 351.663 151.75 351.663 151.595C351.663 151.44 351.724 151.291 351.834 151.182C351.944 151.073 352.092 151.011 352.247 151.011H354.195C354.272 151.011 354.348 151.026 354.419 151.055C354.49 151.085 354.554 151.128 354.608 151.182C354.663 151.236 354.706 151.301 354.735 151.371C354.764 151.442 354.78 151.518 354.78 151.595C354.78 151.671 354.764 151.747 354.735 151.818C354.706 151.889 354.663 151.953 354.608 152.007C354.554 152.062 354.49 152.105 354.419 152.134C354.348 152.163 354.272 152.178 354.195 152.178V152.178ZM349.519 152.178H347.571C347.494 152.178 347.418 152.163 347.347 152.134C347.276 152.105 347.212 152.062 347.157 152.007C347.103 151.953 347.06 151.889 347.031 151.818C347.001 151.747 346.986 151.671 346.986 151.595C346.986 151.518 347.001 151.442 347.031 151.371C347.06 151.301 347.103 151.236 347.157 151.182C347.212 151.128 347.276 151.085 347.347 151.055C347.418 151.026 347.494 151.011 347.571 151.011H349.519C349.674 151.011 349.823 151.073 349.933 151.182C350.042 151.291 350.104 151.44 350.104 151.595C350.104 151.75 350.042 151.898 349.933 152.007C349.823 152.117 349.674 152.178 349.519 152.178ZM344.843 152.178H342.894C342.739 152.178 342.591 152.117 342.481 152.007C342.371 151.898 342.31 151.75 342.31 151.595C342.31 151.44 342.371 151.291 342.481 151.182C342.591 151.073 342.739 151.011 342.894 151.011H344.843C344.92 151.011 344.996 151.026 345.067 151.055C345.137 151.085 345.202 151.128 345.256 151.182C345.31 151.236 345.353 151.301 345.383 151.371C345.412 151.442 345.427 151.518 345.427 151.595C345.427 151.671 345.412 151.747 345.383 151.818C345.353 151.889 345.31 151.953 345.256 152.007C345.202 152.062 345.137 152.105 345.067 152.134C344.996 152.163 344.92 152.178 344.843 152.178ZM340.166 152.178H338.218C338.063 152.178 337.914 152.117 337.804 152.007C337.695 151.898 337.633 151.75 337.633 151.595C337.633 151.44 337.695 151.291 337.804 151.182C337.914 151.073 338.063 151.011 338.218 151.011H340.166C340.243 151.011 340.319 151.026 340.39 151.055C340.461 151.085 340.525 151.128 340.58 151.182C340.634 151.236 340.677 151.301 340.706 151.371C340.736 151.442 340.751 151.518 340.751 151.595C340.751 151.671 340.736 151.747 340.706 151.818C340.677 151.889 340.634 151.953 340.58 152.007C340.525 152.062 340.461 152.105 340.39 152.134C340.319 152.163 340.243 152.178 340.166 152.178V152.178ZM335.49 152.178H333.542C333.465 152.178 333.389 152.163 333.318 152.134C333.247 152.105 333.183 152.062 333.129 152.007C333.074 151.953 333.031 151.889 333.002 151.818C332.973 151.747 332.958 151.671 332.958 151.595C332.958 151.518 332.973 151.442 333.002 151.371C333.031 151.301 333.074 151.236 333.129 151.182C333.183 151.128 333.247 151.085 333.318 151.055C333.389 151.026 333.465 151.011 333.542 151.011H335.49C335.567 151.011 335.643 151.026 335.714 151.055C335.784 151.085 335.849 151.128 335.903 151.182C335.957 151.236 336 151.301 336.03 151.371C336.059 151.442 336.074 151.518 336.074 151.595C336.074 151.671 336.059 151.747 336.03 151.818C336 151.889 335.957 151.953 335.903 152.007C335.849 152.062 335.784 152.105 335.714 152.134C335.643 152.163 335.567 152.178 335.49 152.178ZM330.813 152.178H328.868C328.791 152.178 328.715 152.163 328.644 152.134C328.573 152.105 328.509 152.062 328.454 152.007C328.4 151.953 328.357 151.889 328.328 151.818C328.298 151.747 328.283 151.671 328.283 151.595C328.283 151.518 328.298 151.442 328.328 151.371C328.357 151.301 328.4 151.236 328.454 151.182C328.509 151.128 328.573 151.085 328.644 151.055C328.715 151.026 328.791 151.011 328.868 151.011H330.816C330.892 151.011 330.968 151.026 331.039 151.055C331.11 151.085 331.175 151.128 331.229 151.182C331.283 151.236 331.326 151.301 331.355 151.371C331.385 151.442 331.4 151.518 331.4 151.595C331.4 151.671 331.385 151.747 331.355 151.818C331.326 151.889 331.283 151.953 331.229 152.007C331.175 152.062 331.11 152.105 331.039 152.134C330.968 152.163 330.892 152.178 330.816 152.178H330.813ZM326.137 152.178H324.189C324.112 152.178 324.036 152.163 323.965 152.134C323.894 152.105 323.83 152.062 323.776 152.007C323.721 151.953 323.678 151.889 323.649 151.818C323.62 151.747 323.605 151.671 323.605 151.595C323.605 151.518 323.62 151.442 323.649 151.371C323.678 151.301 323.721 151.236 323.776 151.182C323.83 151.128 323.894 151.085 323.965 151.055C324.036 151.026 324.112 151.011 324.189 151.011H326.14C326.217 151.011 326.293 151.026 326.363 151.055C326.434 151.085 326.499 151.128 326.553 151.182C326.607 151.236 326.65 151.301 326.68 151.371C326.709 151.442 326.724 151.518 326.724 151.595C326.724 151.671 326.709 151.747 326.68 151.818C326.65 151.889 326.607 151.953 326.553 152.007C326.499 152.062 326.434 152.105 326.363 152.134C326.293 152.163 326.217 152.178 326.14 152.178H326.137ZM321.461 152.178H319.512C319.436 152.178 319.36 152.163 319.289 152.134C319.218 152.105 319.153 152.062 319.099 152.007C319.045 151.953 319.002 151.889 318.973 151.818C318.943 151.747 318.928 151.671 318.928 151.595C318.928 151.518 318.943 151.442 318.973 151.371C319.002 151.301 319.045 151.236 319.099 151.182C319.153 151.128 319.218 151.085 319.289 151.055C319.36 151.026 319.436 151.011 319.512 151.011H321.461C321.537 151.011 321.613 151.026 321.684 151.055C321.755 151.085 321.819 151.128 321.874 151.182C321.928 151.236 321.971 151.301 322 151.371C322.03 151.442 322.045 151.518 322.045 151.595C322.045 151.671 322.03 151.747 322 151.818C321.971 151.889 321.928 151.953 321.874 152.007C321.819 152.062 321.755 152.105 321.684 152.134C321.613 152.163 321.537 152.178 321.461 152.178V152.178ZM316.785 152.178H314.836C314.681 152.178 314.532 152.117 314.423 152.007C314.313 151.898 314.252 151.75 314.252 151.595C314.252 151.44 314.313 151.291 314.423 151.182C314.532 151.073 314.681 151.011 314.836 151.011H316.785C316.861 151.011 316.937 151.026 317.008 151.055C317.079 151.085 317.144 151.128 317.198 151.182C317.252 151.236 317.295 151.301 317.325 151.371C317.354 151.442 317.369 151.518 317.369 151.595C317.369 151.671 317.354 151.747 317.325 151.818C317.295 151.889 317.252 151.953 317.198 152.007C317.144 152.062 317.079 152.105 317.008 152.134C316.937 152.163 316.861 152.178 316.785 152.178V152.178ZM312.108 152.178H310.159C310.004 152.178 309.856 152.117 309.746 152.007C309.637 151.898 309.575 151.75 309.575 151.595C309.575 151.44 309.637 151.291 309.746 151.182C309.856 151.073 310.004 151.011 310.159 151.011H312.108C312.185 151.011 312.261 151.026 312.332 151.055C312.403 151.085 312.467 151.128 312.521 151.182C312.576 151.236 312.619 151.301 312.648 151.371C312.677 151.442 312.693 151.518 312.693 151.595C312.693 151.671 312.677 151.747 312.648 151.818C312.619 151.889 312.576 151.953 312.521 152.007C312.467 152.062 312.403 152.105 312.332 152.134C312.261 152.163 312.185 152.178 312.108 152.178V152.178ZM307.432 152.178H305.483C305.328 152.178 305.179 152.117 305.07 152.007C304.96 151.898 304.899 151.75 304.899 151.595C304.899 151.44 304.96 151.291 305.07 151.182C305.179 151.073 305.328 151.011 305.483 151.011H307.432C307.508 151.011 307.584 151.026 307.655 151.055C307.726 151.085 307.791 151.128 307.845 151.182C307.899 151.236 307.942 151.301 307.972 151.371C308.001 151.442 308.016 151.518 308.016 151.595C308.016 151.671 308.001 151.747 307.972 151.818C307.942 151.889 307.899 151.953 307.845 152.007C307.791 152.062 307.726 152.105 307.655 152.134C307.584 152.163 307.508 152.178 307.432 152.178V152.178ZM302.755 152.178H300.807C300.73 152.178 300.654 152.163 300.584 152.134C300.513 152.105 300.448 152.062 300.394 152.007C300.34 151.953 300.297 151.889 300.267 151.818C300.238 151.747 300.223 151.671 300.223 151.595C300.223 151.518 300.238 151.442 300.267 151.371C300.297 151.301 300.34 151.236 300.394 151.182C300.448 151.128 300.513 151.085 300.584 151.055C300.654 151.026 300.73 151.011 300.807 151.011H302.755C302.91 151.011 303.059 151.073 303.168 151.182C303.278 151.291 303.34 151.44 303.34 151.595C303.34 151.75 303.278 151.898 303.168 152.007C303.059 152.117 302.91 152.178 302.755 152.178V152.178ZM298.079 152.178H296.131C296.054 152.178 295.978 152.163 295.907 152.134C295.836 152.105 295.772 152.062 295.717 152.007C295.663 151.953 295.62 151.889 295.591 151.818C295.561 151.747 295.546 151.671 295.546 151.595C295.546 151.518 295.561 151.442 295.591 151.371C295.62 151.301 295.663 151.236 295.717 151.182C295.772 151.128 295.836 151.085 295.907 151.055C295.978 151.026 296.054 151.011 296.131 151.011H298.079C298.155 151.011 298.231 151.026 298.302 151.055C298.373 151.085 298.438 151.128 298.492 151.182C298.546 151.236 298.589 151.301 298.619 151.371C298.648 151.442 298.663 151.518 298.663 151.595C298.663 151.671 298.648 151.747 298.619 151.818C298.589 151.889 298.546 151.953 298.492 152.007C298.438 152.062 298.373 152.105 298.302 152.134C298.231 152.163 298.155 152.178 298.079 152.178V152.178ZM293.402 152.178H291.454C291.377 152.178 291.301 152.163 291.231 152.134C291.16 152.105 291.095 152.062 291.041 152.007C290.987 151.953 290.944 151.889 290.914 151.818C290.885 151.747 290.87 151.671 290.87 151.595C290.87 151.518 290.885 151.442 290.914 151.371C290.944 151.301 290.987 151.236 291.041 151.182C291.095 151.128 291.16 151.085 291.231 151.055C291.301 151.026 291.377 151.011 291.454 151.011H293.402C293.479 151.011 293.555 151.026 293.626 151.055C293.697 151.085 293.761 151.128 293.815 151.182C293.87 151.236 293.913 151.301 293.942 151.371C293.971 151.442 293.987 151.518 293.987 151.595C293.987 151.671 293.971 151.747 293.942 151.818C293.913 151.889 293.87 151.953 293.815 152.007C293.761 152.062 293.697 152.105 293.626 152.134C293.555 152.163 293.479 152.178 293.402 152.178V152.178ZM288.726 152.178H286.778C286.701 152.178 286.625 152.163 286.554 152.134C286.483 152.105 286.419 152.062 286.364 152.007C286.31 151.953 286.267 151.889 286.238 151.818C286.208 151.747 286.193 151.671 286.193 151.595C286.193 151.518 286.208 151.442 286.238 151.371C286.267 151.301 286.31 151.236 286.364 151.182C286.419 151.128 286.483 151.085 286.554 151.055C286.625 151.026 286.701 151.011 286.778 151.011H288.726C288.881 151.011 289.03 151.073 289.14 151.182C289.249 151.291 289.311 151.44 289.311 151.595C289.311 151.75 289.249 151.898 289.14 152.007C289.03 152.117 288.881 152.178 288.726 152.178V152.178ZM284.05 152.178H282.101C282.024 152.178 281.948 152.163 281.878 152.134C281.807 152.105 281.742 152.062 281.688 152.007C281.634 151.953 281.591 151.889 281.561 151.818C281.532 151.747 281.517 151.671 281.517 151.595C281.517 151.518 281.532 151.442 281.561 151.371C281.591 151.301 281.634 151.236 281.688 151.182C281.742 151.128 281.807 151.085 281.878 151.055C281.948 151.026 282.024 151.011 282.101 151.011H284.05C284.205 151.011 284.354 151.073 284.463 151.182C284.573 151.291 284.634 151.44 284.634 151.595C284.634 151.75 284.573 151.898 284.463 152.007C284.354 152.117 284.205 152.178 284.05 152.178V152.178ZM279.374 152.178H277.425C277.348 152.178 277.272 152.163 277.201 152.134C277.13 152.105 277.066 152.062 277.012 152.007C276.957 151.953 276.914 151.889 276.885 151.818C276.855 151.747 276.84 151.671 276.84 151.595C276.84 151.518 276.855 151.442 276.885 151.371C276.914 151.301 276.957 151.236 277.012 151.182C277.066 151.128 277.13 151.085 277.201 151.055C277.272 151.026 277.348 151.011 277.425 151.011H279.374C279.528 151.011 279.677 151.073 279.787 151.182C279.896 151.291 279.958 151.44 279.958 151.595C279.958 151.75 279.896 151.898 279.787 152.007C279.677 152.117 279.528 152.178 279.374 152.178V152.178ZM274.697 152.178H272.748C272.593 152.178 272.445 152.117 272.335 152.007C272.225 151.898 272.164 151.75 272.164 151.595C272.164 151.44 272.225 151.291 272.335 151.182C272.445 151.073 272.593 151.011 272.748 151.011H274.697C274.774 151.011 274.85 151.026 274.921 151.055C274.992 151.085 275.056 151.128 275.11 151.182C275.164 151.236 275.207 151.301 275.237 151.371C275.266 151.442 275.281 151.518 275.281 151.595C275.281 151.671 275.266 151.747 275.237 151.818C275.207 151.889 275.164 151.953 275.11 152.007C275.056 152.062 274.992 152.105 274.921 152.134C274.85 152.163 274.774 152.178 274.697 152.178ZM270.021 152.178H268.07C267.993 152.178 267.917 152.163 267.846 152.134C267.775 152.105 267.711 152.062 267.656 152.007C267.602 151.953 267.559 151.889 267.53 151.818C267.5 151.747 267.485 151.671 267.485 151.595C267.485 151.518 267.5 151.442 267.53 151.371C267.559 151.301 267.602 151.236 267.656 151.182C267.711 151.128 267.775 151.085 267.846 151.055C267.917 151.026 267.993 151.011 268.07 151.011H270.018C270.173 151.011 270.321 151.073 270.431 151.182C270.54 151.291 270.602 151.44 270.602 151.595C270.602 151.75 270.54 151.898 270.431 152.007C270.321 152.117 270.173 152.178 270.018 152.178H270.021ZM265.344 152.178H263.396C263.319 152.178 263.243 152.163 263.172 152.134C263.101 152.105 263.037 152.062 262.983 152.007C262.928 151.953 262.885 151.889 262.856 151.818C262.827 151.747 262.812 151.671 262.812 151.595C262.812 151.518 262.827 151.442 262.856 151.371C262.885 151.301 262.928 151.236 262.983 151.182C263.037 151.128 263.101 151.085 263.172 151.055C263.243 151.026 263.319 151.011 263.396 151.011H265.342C265.419 151.011 265.495 151.026 265.565 151.055C265.636 151.085 265.701 151.128 265.755 151.182C265.809 151.236 265.852 151.301 265.882 151.371C265.911 151.442 265.926 151.518 265.926 151.595C265.926 151.671 265.911 151.747 265.882 151.818C265.852 151.889 265.809 151.953 265.755 152.007C265.701 152.062 265.636 152.105 265.565 152.134C265.495 152.163 265.419 152.178 265.342 152.178H265.344ZM260.668 152.178H258.719C258.643 152.178 258.567 152.163 258.496 152.134C258.425 152.105 258.361 152.062 258.306 152.007C258.252 151.953 258.209 151.889 258.18 151.818C258.15 151.747 258.135 151.671 258.135 151.595C258.135 151.518 258.15 151.442 258.18 151.371C258.209 151.301 258.252 151.236 258.306 151.182C258.361 151.128 258.425 151.085 258.496 151.055C258.567 151.026 258.643 151.011 258.719 151.011H260.668C260.744 151.011 260.82 151.026 260.891 151.055C260.962 151.085 261.026 151.128 261.081 151.182C261.135 151.236 261.178 151.301 261.207 151.371C261.237 151.442 261.252 151.518 261.252 151.595C261.252 151.671 261.237 151.747 261.207 151.818C261.178 151.889 261.135 151.953 261.081 152.007C261.026 152.062 260.962 152.105 260.891 152.134C260.82 152.163 260.744 152.178 260.668 152.178V152.178ZM255.992 152.178H254.043C253.966 152.178 253.89 152.163 253.819 152.134C253.748 152.105 253.684 152.062 253.63 152.007C253.576 151.953 253.532 151.889 253.503 151.818C253.474 151.747 253.459 151.671 253.459 151.595C253.459 151.518 253.474 151.442 253.503 151.371C253.532 151.301 253.576 151.236 253.63 151.182C253.684 151.128 253.748 151.085 253.819 151.055C253.89 151.026 253.966 151.011 254.043 151.011H255.992C256.147 151.011 256.295 151.073 256.405 151.182C256.514 151.291 256.576 151.44 256.576 151.595C256.576 151.75 256.514 151.898 256.405 152.007C256.295 152.117 256.147 152.178 255.992 152.178V152.178ZM251.315 152.178H249.366C249.29 152.178 249.214 152.163 249.143 152.134C249.072 152.105 249.008 152.062 248.953 152.007C248.899 151.953 248.856 151.889 248.827 151.818C248.797 151.747 248.782 151.671 248.782 151.595C248.782 151.518 248.797 151.442 248.827 151.371C248.856 151.301 248.899 151.236 248.953 151.182C249.008 151.128 249.072 151.085 249.143 151.055C249.214 151.026 249.29 151.011 249.366 151.011H251.315C251.47 151.011 251.619 151.073 251.728 151.182C251.838 151.291 251.9 151.44 251.9 151.595C251.9 151.75 251.838 151.898 251.728 152.007C251.619 152.117 251.47 152.178 251.315 152.178V152.178ZM246.639 152.178H244.69C244.535 152.178 244.386 152.117 244.277 152.007C244.167 151.898 244.106 151.75 244.106 151.595C244.106 151.44 244.167 151.291 244.277 151.182C244.386 151.073 244.535 151.011 244.69 151.011H246.639C246.716 151.011 246.791 151.026 246.862 151.055C246.933 151.085 246.998 151.128 247.052 151.182C247.106 151.236 247.149 151.301 247.179 151.371C247.208 151.442 247.223 151.518 247.223 151.595C247.223 151.671 247.208 151.747 247.179 151.818C247.149 151.889 247.106 151.953 247.052 152.007C246.998 152.062 246.933 152.105 246.862 152.134C246.791 152.163 246.716 152.178 246.639 152.178ZM241.962 152.178H240.013C239.937 152.178 239.861 152.163 239.79 152.134C239.719 152.105 239.655 152.062 239.6 152.007C239.546 151.953 239.503 151.889 239.474 151.818C239.444 151.747 239.429 151.671 239.429 151.595C239.429 151.518 239.444 151.442 239.474 151.371C239.503 151.301 239.546 151.236 239.6 151.182C239.655 151.128 239.719 151.085 239.79 151.055C239.861 151.026 239.937 151.011 240.013 151.011H241.962C242.117 151.011 242.266 151.073 242.375 151.182C242.485 151.291 242.547 151.44 242.547 151.595C242.547 151.75 242.485 151.898 242.375 152.007C242.266 152.117 242.117 152.178 241.962 152.178V152.178ZM237.286 152.178H235.338C235.261 152.178 235.185 152.163 235.114 152.134C235.043 152.105 234.979 152.062 234.925 152.007C234.87 151.953 234.827 151.889 234.798 151.818C234.768 151.747 234.753 151.671 234.753 151.595C234.753 151.518 234.768 151.442 234.798 151.371C234.827 151.301 234.87 151.236 234.925 151.182C234.979 151.128 235.043 151.085 235.114 151.055C235.185 151.026 235.261 151.011 235.338 151.011H237.286C237.441 151.011 237.589 151.073 237.699 151.182C237.809 151.291 237.87 151.44 237.87 151.595C237.87 151.75 237.809 151.898 237.699 152.007C237.589 152.117 237.441 152.178 237.286 152.178V152.178ZM232.609 152.178H230.661C230.584 152.178 230.508 152.163 230.438 152.134C230.367 152.105 230.302 152.062 230.248 152.007C230.194 151.953 230.151 151.889 230.121 151.818C230.092 151.747 230.077 151.671 230.077 151.595C230.077 151.518 230.092 151.442 230.121 151.371C230.151 151.301 230.194 151.236 230.248 151.182C230.302 151.128 230.367 151.085 230.438 151.055C230.508 151.026 230.584 151.011 230.661 151.011H232.61C232.687 151.011 232.763 151.026 232.834 151.055C232.904 151.085 232.969 151.128 233.023 151.182C233.077 151.236 233.12 151.301 233.15 151.371C233.179 151.442 233.194 151.518 233.194 151.595C233.194 151.671 233.179 151.747 233.15 151.818C233.12 151.889 233.077 151.953 233.023 152.007C232.969 152.062 232.904 152.105 232.834 152.134C232.763 152.163 232.687 152.178 232.61 152.178H232.609ZM227.933 152.178H225.985C225.83 152.178 225.681 152.117 225.572 152.007C225.462 151.898 225.4 151.75 225.4 151.595C225.4 151.44 225.462 151.291 225.572 151.182C225.681 151.073 225.83 151.011 225.985 151.011H227.933C228.01 151.011 228.086 151.026 228.156 151.055C228.227 151.085 228.292 151.128 228.346 151.182C228.4 151.236 228.443 151.301 228.473 151.371C228.502 151.442 228.517 151.518 228.517 151.595C228.517 151.671 228.502 151.747 228.473 151.818C228.443 151.889 228.4 151.953 228.346 152.007C228.292 152.062 228.227 152.105 228.156 152.134C228.086 152.163 228.01 152.178 227.933 152.178V152.178Z" fill="#B5BDC2"/>
<path d="M435.427 283.033H372.308C372.08 283.033 371.854 282.988 371.643 282.901C371.432 282.814 371.241 282.686 371.079 282.525C370.918 282.363 370.79 282.172 370.703 281.961C370.616 281.751 370.571 281.525 370.571 281.297C370.571 281.069 370.616 280.843 370.703 280.633C370.79 280.422 370.918 280.231 371.079 280.07C371.241 279.908 371.432 279.781 371.643 279.693C371.854 279.606 372.08 279.561 372.308 279.561H379.322C380.264 279.577 381.18 279.244 381.892 278.626C382.604 278.009 383.062 277.15 383.178 276.215C383.229 275.7 383.171 275.179 383.009 274.687C382.846 274.196 382.582 273.743 382.234 273.359C381.886 272.976 381.461 272.669 380.987 272.459C380.513 272.249 380 272.14 379.482 272.14H243.743C242.8 272.124 241.885 272.457 241.173 273.075C240.461 273.693 240.003 274.551 239.886 275.486C239.835 276.002 239.893 276.522 240.056 277.014C240.218 277.506 240.482 277.958 240.83 278.342C241.179 278.726 241.603 279.033 242.077 279.243C242.551 279.452 243.064 279.561 243.583 279.561H338.436C338.897 279.561 339.339 279.744 339.665 280.07C339.991 280.395 340.174 280.837 340.174 281.297C340.174 281.758 339.991 282.199 339.665 282.525C339.339 282.85 338.897 283.033 338.436 283.033H282.967C282.025 283.018 281.109 283.35 280.397 283.968C279.686 284.586 279.228 285.444 279.111 286.379C279.06 286.895 279.118 287.415 279.281 287.907C279.443 288.399 279.707 288.851 280.055 289.235C280.404 289.619 280.828 289.926 281.302 290.136C281.776 290.346 282.289 290.454 282.808 290.454H435.587C436.106 290.454 436.619 290.346 437.093 290.136C437.567 289.926 437.992 289.619 438.34 289.235C438.688 288.851 438.952 288.399 439.114 287.907C439.277 287.415 439.335 286.895 439.284 286.379C439.168 285.444 438.709 284.586 437.997 283.968C437.285 283.35 436.37 283.017 435.427 283.033Z" fill="#E3E9F1"/>
<path d="M416.292 272.14H393.324C391.272 272.14 389.609 273.802 389.609 275.851C389.609 277.9 391.272 279.561 393.324 279.561H416.292C418.343 279.561 420.006 277.9 420.006 275.851C420.006 273.802 418.343 272.14 416.292 272.14Z" fill="#F1F5FB"/>
<path d="M392.067 295.401H322.812C320.761 295.401 319.098 297.063 319.098 299.112C319.098 301.161 320.761 302.822 322.812 302.822H392.067C394.118 302.822 395.781 301.161 395.781 299.112C395.781 297.063 394.118 295.401 392.067 295.401Z" fill="#E3E9F1"/>
<path d="M318.058 195.713H301.007C300.801 195.713 300.597 195.672 300.407 195.593C300.216 195.515 300.044 195.399 299.898 195.254C299.752 195.108 299.637 194.935 299.558 194.745C299.479 194.555 299.439 194.352 299.439 194.146V194.146C299.439 193.73 299.604 193.332 299.898 193.038C300.192 192.744 300.591 192.579 301.007 192.579H310.44C311.201 192.594 311.94 192.326 312.515 191.828C313.089 191.329 313.458 190.635 313.549 189.881C313.586 189.471 313.536 189.058 313.404 188.668C313.272 188.279 313.061 187.921 312.783 187.617C312.505 187.314 312.167 187.071 311.79 186.905C311.413 186.74 311.006 186.654 310.594 186.654H268.415C267.654 186.639 266.915 186.907 266.341 187.405C265.766 187.904 265.398 188.598 265.306 189.352C265.27 189.762 265.319 190.175 265.451 190.564C265.583 190.954 265.794 191.312 266.072 191.615C266.35 191.919 266.688 192.161 267.065 192.327C267.442 192.493 267.849 192.579 268.261 192.579H285.78C286.196 192.579 286.595 192.744 286.889 193.038C287.184 193.332 287.349 193.73 287.349 194.146V194.146C287.349 194.561 287.184 194.96 286.889 195.254C286.595 195.548 286.196 195.713 285.78 195.713H276.032C275.271 195.698 274.532 195.965 273.958 196.464C273.383 196.963 273.015 197.656 272.924 198.411C272.887 198.821 272.936 199.233 273.068 199.623C273.2 200.013 273.412 200.371 273.69 200.674C273.968 200.978 274.306 201.22 274.682 201.386C275.059 201.552 275.466 201.638 275.878 201.638H281.381C281.793 201.638 282.189 201.801 282.48 202.092C282.771 202.383 282.935 202.778 282.935 203.189V203.189C282.935 203.609 282.768 204.011 282.471 204.308C282.174 204.605 281.771 204.771 281.351 204.771H258.136C257.375 204.756 256.636 205.024 256.062 205.523C255.487 206.021 255.119 206.715 255.027 207.47C254.991 207.879 255.04 208.292 255.172 208.682C255.304 209.072 255.516 209.43 255.794 209.733C256.072 210.037 256.41 210.279 256.787 210.445C257.163 210.611 257.571 210.696 257.982 210.697H300.161C300.922 210.711 301.661 210.444 302.236 209.945C302.81 209.447 303.179 208.753 303.27 207.998C303.307 207.588 303.257 207.176 303.125 206.786C302.993 206.396 302.782 206.038 302.504 205.735C302.226 205.431 301.888 205.189 301.511 205.023C301.134 204.857 300.727 204.771 300.315 204.771H292.905C292.489 204.771 292.09 204.606 291.796 204.312C291.502 204.019 291.337 203.62 291.337 203.205V203.205C291.337 202.789 291.502 202.39 291.796 202.097C292.09 201.803 292.489 201.638 292.905 201.638H318.211C318.622 201.638 319.03 201.552 319.406 201.386C319.783 201.22 320.121 200.978 320.399 200.674C320.677 200.371 320.889 200.013 321.021 199.623C321.152 199.233 321.202 198.821 321.165 198.411C321.074 197.656 320.705 196.963 320.131 196.464C319.557 195.966 318.818 195.698 318.058 195.713V195.713Z" fill="#F1F5FB"/>
<path d="M412.44 142.754H396.992C396.806 142.754 396.621 142.717 396.449 142.646C396.276 142.574 396.12 142.47 395.988 142.338C395.856 142.206 395.751 142.05 395.68 141.877C395.609 141.705 395.572 141.52 395.572 141.334C395.572 141.148 395.609 140.963 395.68 140.791C395.751 140.619 395.856 140.462 395.988 140.331C396.12 140.199 396.277 140.094 396.449 140.023C396.621 139.952 396.806 139.915 396.992 139.915H405.539C406.229 139.928 406.898 139.686 407.418 139.234C407.939 138.783 408.273 138.154 408.355 137.47C408.389 137.099 408.344 136.725 408.225 136.372C408.106 136.018 407.914 135.694 407.662 135.419C407.41 135.143 407.104 134.923 406.762 134.773C406.421 134.623 406.052 134.545 405.679 134.545H367.466C366.776 134.531 366.107 134.774 365.586 135.225C365.066 135.677 364.732 136.306 364.649 136.989C364.616 137.361 364.66 137.735 364.779 138.088C364.899 138.442 365.09 138.766 365.342 139.041C365.594 139.317 365.901 139.537 366.242 139.687C366.584 139.837 366.953 139.915 367.326 139.915H383.198C383.575 139.915 383.937 140.064 384.203 140.331C384.469 140.597 384.619 140.958 384.619 141.334V141.334C384.619 141.52 384.582 141.705 384.511 141.877C384.44 142.05 384.335 142.206 384.203 142.338C384.071 142.47 383.915 142.574 383.742 142.646C383.57 142.717 383.385 142.754 383.198 142.754H374.369C373.68 142.74 373.011 142.983 372.49 143.435C371.97 143.886 371.636 144.515 371.553 145.198C371.519 145.57 371.564 145.944 371.683 146.297C371.802 146.65 371.994 146.975 372.246 147.25C372.498 147.525 372.804 147.745 373.146 147.895C373.487 148.046 373.856 148.123 374.229 148.123H379.215C379.589 148.123 379.947 148.271 380.211 148.535C380.475 148.799 380.623 149.157 380.623 149.529C380.623 149.91 380.472 150.275 380.202 150.544C379.933 150.813 379.568 150.964 379.187 150.964H358.154C357.464 150.95 356.795 151.193 356.274 151.644C355.754 152.096 355.42 152.724 355.337 153.408C355.304 153.779 355.348 154.154 355.468 154.507C355.587 154.86 355.779 155.185 356.031 155.46C356.282 155.735 356.589 155.955 356.93 156.105C357.272 156.255 357.641 156.333 358.014 156.333H396.227C396.916 156.347 397.586 156.104 398.106 155.652C398.627 155.201 398.961 154.572 399.043 153.889C399.077 153.517 399.032 153.143 398.913 152.79C398.794 152.437 398.602 152.112 398.35 151.837C398.098 151.562 397.792 151.342 397.45 151.192C397.109 151.041 396.74 150.964 396.367 150.964H389.654C389.277 150.964 388.915 150.814 388.649 150.548C388.382 150.281 388.232 149.92 388.232 149.544V149.544C388.232 149.167 388.382 148.806 388.649 148.54C388.915 148.274 389.277 148.124 389.654 148.124H412.58C412.953 148.124 413.322 148.046 413.663 147.896C414.005 147.746 414.311 147.526 414.563 147.251C414.815 146.976 415.007 146.651 415.126 146.298C415.245 145.945 415.29 145.57 415.256 145.199C415.174 144.515 414.84 143.887 414.32 143.435C413.799 142.983 413.13 142.74 412.44 142.754V142.754Z" fill="#F1F5FB"/>
<path d="M264.754 196.715H253.3C252.217 196.715 251.338 197.593 251.338 198.675C251.338 199.758 252.217 200.636 253.3 200.636H264.754C265.838 200.636 266.717 199.758 266.717 198.675C266.717 197.593 265.838 196.715 264.754 196.715Z" fill="#F1F5FB"/>
<path d="M446.934 157.639H434.876C433.735 157.639 432.811 158.563 432.811 159.702C432.811 160.842 433.735 161.766 434.876 161.766H446.934C448.075 161.766 449 160.842 449 159.702C449 158.563 448.075 157.639 446.934 157.639Z" fill="#F9FBFF"/>
<path d="M329.893 187.951H322.836C321.753 187.951 320.874 188.829 320.874 189.912C320.874 190.994 321.753 191.872 322.836 191.872H329.893C330.977 191.872 331.856 190.994 331.856 189.912C331.856 188.829 330.977 187.951 329.893 187.951Z" fill="#F9FBFF"/>
<path d="M309.874 174.303H302.817C301.733 174.303 300.854 175.181 300.854 176.264C300.854 177.346 301.733 178.224 302.817 178.224H309.874C310.958 178.224 311.836 177.346 311.836 176.264C311.836 175.181 310.958 174.303 309.874 174.303Z" fill="#F9FBFF"/>
<path d="M329.248 138.03H322.191C321.107 138.03 320.229 138.907 320.229 139.99C320.229 141.072 321.107 141.95 322.191 141.95H329.248C330.332 141.95 331.21 141.072 331.21 139.99C331.21 138.907 330.332 138.03 329.248 138.03Z" fill="#F9FBFF"/>
<path d="M378.316 164.183H371.259C370.176 164.183 369.297 165.061 369.297 166.143C369.297 167.226 370.176 168.103 371.259 168.103H378.316C379.4 168.103 380.279 167.226 380.279 166.143C380.279 165.061 379.4 164.183 378.316 164.183Z" fill="#F9FBFF"/>
<path d="M433.439 211.609H425.63C424.431 211.609 423.459 212.58 423.459 213.777C423.459 214.975 424.431 215.946 425.63 215.946H433.439C434.638 215.946 435.61 214.975 435.61 213.777C435.61 212.58 434.638 211.609 433.439 211.609Z" fill="#F1F5FB"/>
<path d="M428.923 155.194H421.115C419.916 155.194 418.943 156.165 418.943 157.363C418.943 158.561 419.916 159.532 421.115 159.532H428.923C430.122 159.532 431.094 158.561 431.094 157.363C431.094 156.165 430.122 155.194 428.923 155.194Z" fill="#F1F5FB"/>
<path d="M335.76 103.853H327.952C326.752 103.853 325.78 104.824 325.78 106.022C325.78 107.22 326.752 108.191 327.952 108.191H335.76C336.959 108.191 337.931 107.22 337.931 106.022C337.931 104.824 336.959 103.853 335.76 103.853Z" fill="#F1F5FB"/>
<path d="M358.099 55.5568H350.29C349.091 55.5568 348.119 56.5278 348.119 57.7256C348.119 58.9234 349.091 59.8944 350.29 59.8944H358.099C359.298 59.8944 360.27 58.9234 360.27 57.7256C360.27 56.5278 359.298 55.5568 358.099 55.5568Z" fill="#F9FBFF"/>
<path d="M352.339 127.232H344.531C343.332 127.232 342.359 128.203 342.359 129.401C342.359 130.599 343.332 131.57 344.531 131.57H352.339C353.538 131.57 354.51 130.599 354.51 129.401C354.51 128.203 353.538 127.232 352.339 127.232Z" fill="#F1F5FB"/>
<path d="M407.431 166.739H393.135C391.936 166.739 390.964 167.71 390.964 168.908C390.964 170.106 391.936 171.077 393.135 171.077H407.431C408.63 171.077 409.602 170.106 409.602 168.908C409.602 167.71 408.63 166.739 407.431 166.739Z" fill="#F9FBFF"/>
<path d="M308.887 296.652H299.466C298.267 296.652 297.295 297.623 297.295 298.821C297.295 300.018 298.267 300.989 299.466 300.989H308.887C310.087 300.989 311.059 300.018 311.059 298.821C311.059 297.623 310.087 296.652 308.887 296.652Z" fill="#F1F5FB"/>
<path d="M383.803 318.663H369.507C368.308 318.663 367.336 319.634 367.336 320.831C367.336 322.029 368.308 323 369.507 323H383.803C385.002 323 385.974 322.029 385.974 320.831C385.974 319.634 385.002 318.663 383.803 318.663Z" fill="#F1F5FB"/>
<path d="M399.079 309.802H390.543C389.344 309.802 388.372 310.773 388.372 311.971C388.372 313.169 389.344 314.14 390.543 314.14H399.079C400.278 314.14 401.25 313.169 401.25 311.971C401.25 310.773 400.278 309.802 399.079 309.802Z" fill="#F1F5FB"/>
<path d="M377.112 309.802H341.99C340.791 309.802 339.818 310.773 339.818 311.971C339.818 313.169 340.791 314.14 341.99 314.14H377.112C378.311 314.14 379.283 313.169 379.283 311.971C379.283 310.773 378.311 309.802 377.112 309.802Z" fill="#F1F5FB"/>
<path d="M445.505 202.305H431.084C429.56 202.305 428.325 203.539 428.325 205.061V205.061C428.325 206.583 429.56 207.817 431.084 207.817H445.505C447.029 207.817 448.264 206.583 448.264 205.061V205.061C448.264 203.539 447.029 202.305 445.505 202.305Z" fill="#F1F5FB"/>
<path d="M393.957 99.9013H386.149C384.95 99.9013 383.978 100.872 383.978 102.07C383.978 103.268 384.95 104.239 386.149 104.239H393.957C395.156 104.239 396.129 103.268 396.129 102.07C396.129 100.872 395.156 99.9013 393.957 99.9013Z" fill="#F1F5FB"/>
<path d="M406.024 90.5983H391.602C390.079 90.5983 388.844 91.8321 388.844 93.354V93.3547C388.844 94.8767 390.079 96.1104 391.602 96.1104H406.024C407.547 96.1104 408.782 94.8767 408.782 93.3547V93.354C408.782 91.8321 407.547 90.5983 406.024 90.5983Z" fill="#F1F5FB"/>
<path d="M435.698 187.454H413.281C413.021 187.454 412.764 187.403 412.523 187.303C412.283 187.204 412.065 187.058 411.881 186.875C411.697 186.691 411.551 186.473 411.452 186.233C411.352 185.993 411.301 185.736 411.301 185.476V185.476C411.301 184.951 411.51 184.448 411.881 184.077C412.252 183.706 412.756 183.498 413.281 183.498H419.783C420.702 183.513 421.594 183.188 422.288 182.586C422.982 181.984 423.429 181.147 423.542 180.236C423.592 179.733 423.535 179.226 423.377 178.746C423.218 178.267 422.961 177.826 422.621 177.452C422.282 177.077 421.868 176.778 421.406 176.574C420.944 176.369 420.444 176.263 419.938 176.263H383.793C382.874 176.248 381.982 176.573 381.288 177.175C380.594 177.777 380.148 178.614 380.034 179.525C379.984 180.028 380.041 180.535 380.199 181.015C380.358 181.494 380.615 181.935 380.954 182.309C381.294 182.683 381.708 182.982 382.17 183.187C382.632 183.392 383.132 183.498 383.637 183.498H401.874C402.399 183.498 402.903 183.706 403.274 184.077C403.646 184.448 403.854 184.951 403.854 185.476V185.476C403.854 185.736 403.803 185.993 403.704 186.233C403.604 186.473 403.458 186.691 403.274 186.875C403.09 187.058 402.872 187.204 402.632 187.303C402.392 187.403 402.134 187.454 401.874 187.454H399.71C398.791 187.439 397.899 187.763 397.205 188.365C396.511 188.968 396.064 189.805 395.951 190.716C395.901 191.218 395.957 191.726 396.116 192.205C396.274 192.685 396.532 193.126 396.871 193.5C397.21 193.874 397.624 194.173 398.087 194.378C398.549 194.583 399.049 194.688 399.554 194.688H435.853C436.359 194.688 436.859 194.583 437.321 194.378C437.783 194.173 438.197 193.874 438.537 193.5C438.876 193.126 439.134 192.685 439.292 192.205C439.451 191.726 439.507 191.218 439.457 190.716C439.344 189.805 438.897 188.968 438.203 188.365C437.509 187.763 436.617 187.439 435.698 187.454V187.454Z" fill="#F1F5FB"/>
<path d="M372.848 81.8536H350.43C350.17 81.8537 349.912 81.8026 349.672 81.7032C349.432 81.6039 349.214 81.4582 349.03 81.2746C348.846 81.0909 348.7 80.8729 348.6 80.6329C348.501 80.3929 348.45 80.1357 348.45 79.8759C348.45 79.3512 348.658 78.848 349.03 78.4769C349.401 78.1059 349.905 77.8975 350.43 77.8975H356.933C357.852 77.9128 358.745 77.5882 359.439 76.9861C360.133 76.384 360.58 75.5468 360.693 74.6355C360.743 74.1329 360.686 73.6256 360.528 73.1461C360.369 72.6666 360.112 72.2256 359.772 71.8514C359.433 71.4772 359.019 71.1781 358.557 70.9735C358.094 70.7688 357.595 70.663 357.089 70.6629H320.943C320.024 70.6476 319.132 70.9722 318.438 71.5743C317.744 72.1764 317.297 73.0136 317.183 73.9249C317.134 74.4275 317.19 74.9348 317.349 75.4143C317.507 75.8938 317.765 76.3348 318.104 76.709C318.444 77.0832 318.858 77.3823 319.32 77.5869C319.782 77.7916 320.282 77.8974 320.788 77.8975H339.024C339.549 77.8975 340.053 78.1059 340.424 78.4769C340.796 78.848 341.004 79.3512 341.004 79.8759V79.8759C341.004 80.1357 340.953 80.3929 340.854 80.6329C340.754 80.8729 340.608 81.0909 340.424 81.2746C340.24 81.4582 340.022 81.6039 339.782 81.7032C339.542 81.8026 339.284 81.8537 339.024 81.8536H336.86C335.941 81.8382 335.049 82.1629 334.355 82.765C333.661 83.3672 333.214 84.2043 333.101 85.1155C333.051 85.6181 333.107 86.1254 333.266 86.6049C333.424 87.0844 333.682 87.5254 334.021 87.8996C334.36 88.2738 334.775 88.5729 335.237 88.7776C335.699 88.9823 336.199 89.0881 336.704 89.0881H373.003C373.509 89.0882 374.009 88.9824 374.471 88.7778C374.933 88.5732 375.347 88.2741 375.687 87.8999C376.026 87.5257 376.284 87.0846 376.442 86.6051C376.601 86.1255 376.657 85.6181 376.608 85.1155C376.494 84.2044 376.047 83.3673 375.353 82.7652C374.66 82.1631 373.767 81.8384 372.848 81.8536V81.8536Z" fill="#F9FBFF"/>
<path d="M297.362 125.16H318.735C319.236 125.16 319.716 124.961 320.07 124.607C320.424 124.254 320.623 123.774 320.623 123.274V123.274C320.623 122.774 320.424 122.294 320.07 121.941C319.716 121.587 319.236 121.389 318.735 121.389H312.537C311.661 121.403 310.81 121.094 310.149 120.52C309.487 119.946 309.061 119.147 308.953 118.279C308.906 117.8 308.959 117.316 309.11 116.859C309.261 116.402 309.507 115.981 309.83 115.624C310.154 115.268 310.549 114.982 310.989 114.787C311.43 114.592 311.906 114.491 312.388 114.491H346.843C347.719 114.477 348.57 114.786 349.232 115.36C349.893 115.934 350.319 116.732 350.428 117.601C350.475 118.08 350.421 118.564 350.27 119.021C350.119 119.478 349.873 119.899 349.55 120.256C349.226 120.612 348.831 120.897 348.391 121.093C347.95 121.288 347.473 121.389 346.991 121.389H329.608C329.108 121.389 328.628 121.587 328.274 121.941C327.92 122.294 327.721 122.774 327.721 123.274V123.274C327.721 123.774 327.919 124.254 328.274 124.607C328.628 124.961 329.108 125.16 329.608 125.16H331.672C332.548 125.145 333.399 125.455 334.06 126.029C334.722 126.603 335.148 127.401 335.256 128.27C335.303 128.749 335.25 129.233 335.098 129.69C334.947 130.147 334.702 130.567 334.378 130.924C334.054 131.281 333.66 131.566 333.219 131.761C332.778 131.956 332.302 132.057 331.82 132.057H297.212C296.73 132.057 296.253 131.956 295.813 131.761C295.372 131.565 294.978 131.28 294.654 130.924C294.33 130.567 294.085 130.147 293.934 129.69C293.783 129.232 293.729 128.749 293.776 128.27C293.885 127.401 294.311 126.602 294.973 126.028C295.635 125.454 296.486 125.145 297.362 125.16V125.16Z" fill="#F9FBFF"/>
<path d="M357.757 160.432C363.408 160.432 367.989 155.856 367.989 150.211C367.989 144.566 363.408 139.99 357.757 139.99C352.106 139.99 347.525 144.566 347.525 150.211C347.525 155.856 352.106 160.432 357.757 160.432Z" fill="#FF6B70"/>
<path fill-rule="evenodd" clip-rule="evenodd" d="M355.825 152.193L361.892 145.794C362.105 145.588 362.389 145.472 362.685 145.47C362.982 145.468 363.267 145.581 363.482 145.785C363.697 145.988 363.825 146.267 363.839 146.563C363.853 146.859 363.752 147.148 363.557 147.371L356.679 154.624L356.667 154.634L356.656 154.645C356.443 154.858 356.155 154.978 355.854 154.98C355.553 154.982 355.263 154.866 355.047 154.657L355.032 154.642L351.979 151.593C351.86 151.49 351.763 151.363 351.695 151.221C351.627 151.079 351.589 150.924 351.584 150.767C351.578 150.609 351.605 150.452 351.663 150.306C351.721 150.159 351.808 150.026 351.919 149.915C352.031 149.803 352.164 149.716 352.311 149.658C352.458 149.6 352.615 149.574 352.772 149.579C352.93 149.585 353.085 149.623 353.227 149.691C353.369 149.759 353.496 149.855 353.599 149.974L355.825 152.197V152.193Z" fill="white"/>
<path d="M107.432 37.838L242.162 66.5301C244.336 66.9932 246.398 67.8796 248.23 69.1387C250.062 70.3979 251.627 72.0051 252.837 73.8686C254.047 75.7321 254.877 77.8154 255.281 79.9996C255.685 82.1838 255.654 84.426 255.191 86.5983L220.182 250.653C219.162 255.436 216.281 259.618 212.174 262.279C208.066 264.94 203.069 265.862 198.281 264.843L65.0452 236.469C60.6536 235.533 56.8137 232.894 54.3703 229.13C51.9269 225.367 51.0802 220.788 52.0164 216.4L87.3431 50.8536C88.2793 46.4664 90.9217 42.6304 94.6891 40.1895C98.4565 37.7486 103.04 36.9028 107.432 37.838V37.838Z" fill="#DEAE6B"/>
<path d="M253.265 84.1203L218.219 248.353C217.759 250.518 216.876 252.572 215.62 254.396C214.365 256.221 212.762 257.78 210.903 258.986C209.045 260.191 206.966 261.018 204.787 261.421C202.608 261.824 200.371 261.793 198.203 261.332L63.3517 232.612C61.1849 232.15 59.1303 231.266 57.3054 230.011C55.4805 228.756 53.921 227.154 52.716 225.296C51.5109 223.439 50.684 221.363 50.2824 219.186C49.8808 217.009 49.9123 214.775 50.3753 212.61L85.4213 48.3764C86.3541 44.0054 88.9868 40.1836 92.7402 37.7517C96.4937 35.3198 101.06 34.477 105.436 35.4088L168.593 48.8582C169.672 50.2512 171.209 51.2173 172.933 51.5849C174.657 51.9525 176.455 51.6978 178.009 50.866L240.285 64.1276C244.66 65.0594 248.485 67.6892 250.92 71.4385C253.354 75.1878 254.198 79.7495 253.265 84.1203V84.1203Z" fill="#FAD39E"/>
<g opacity="0.1">
<path d="M230.515 81.0742L102.297 53.769C99.6048 53.1955 96.9565 54.9113 96.3825 57.6013L63.3969 212.177C62.8229 214.867 64.5404 217.513 67.2331 218.086L195.451 245.392C198.144 245.965 200.792 244.249 201.366 241.559L234.352 86.9832C234.926 84.2932 233.208 81.6477 230.515 81.0742Z" fill="#494C4E"/>
</g>
<path d="M233.873 77.9225L105.655 50.6172C102.962 50.0438 100.314 51.7596 99.7399 54.4495L66.7543 209.026C66.1803 211.716 67.8978 214.361 70.5905 214.935L198.809 242.24C201.501 242.813 204.149 241.098 204.723 238.408L237.709 83.8314C238.283 81.1415 236.566 78.4959 233.873 77.9225Z" fill="white"/>
<path d="M185.763 102.851L114.068 87.5846C113.703 87.5107 113.356 87.3653 113.047 87.1567C112.739 86.9482 112.475 86.6806 112.271 86.3695C112.067 86.0584 111.926 85.71 111.858 85.3443C111.789 84.9786 111.794 84.603 111.872 84.2392C111.949 83.8753 112.098 83.5305 112.31 83.2246C112.522 82.9187 112.793 82.6577 113.106 82.4569C113.42 82.2561 113.77 82.1194 114.137 82.0546C114.503 81.9898 114.879 81.9983 115.243 82.0796L186.938 97.3468C187.668 97.5025 188.307 97.9418 188.714 98.5681C189.121 99.1945 189.262 99.9565 189.106 100.687C188.95 101.417 188.51 102.055 187.883 102.461C187.256 102.867 186.493 103.008 185.763 102.853V102.851Z" fill="#E3E9F1"/>
<path d="M187.617 144.778C186.542 144.55 185.42 144.758 184.497 145.355C183.575 145.953 182.927 146.891 182.697 147.965L169.384 210.351C169.155 211.425 169.362 212.547 169.961 213.468C170.559 214.39 171.5 215.037 172.575 215.266C173.651 215.495 174.773 215.288 175.696 214.69C176.619 214.092 177.266 213.153 177.495 212.078L190.808 149.693C191.036 148.618 190.828 147.497 190.23 146.576C189.632 145.654 188.692 145.008 187.617 144.778V144.778Z" fill="#CDD5DC"/>
<path d="M168.697 160.75C168.251 160.061 167.611 159.52 166.857 159.196C166.103 158.871 165.27 158.777 164.463 158.926C163.656 159.075 162.911 159.46 162.323 160.032C161.735 160.604 161.33 161.338 161.16 162.14L151.676 206.583C151.563 207.115 151.555 207.664 151.654 208.199C151.753 208.734 151.956 209.244 152.253 209.701C152.549 210.157 152.932 210.551 153.381 210.859C153.829 211.167 154.335 211.385 154.867 211.498C155.4 211.611 155.949 211.619 156.485 211.52C157.02 211.421 157.531 211.218 157.988 210.922C158.445 210.626 158.839 210.243 159.148 209.795C159.456 209.347 159.674 208.842 159.787 208.31L169.271 163.867C169.386 163.336 169.395 162.786 169.296 162.251C169.198 161.716 168.994 161.206 168.697 160.75Z" fill="#CDD5DC"/>
<path d="M146.09 165.912C145.557 165.799 145.007 165.791 144.472 165.89C143.936 165.988 143.425 166.192 142.968 166.488C142.511 166.784 142.117 167.167 141.809 167.615C141.5 168.063 141.282 168.568 141.169 169.1L133.975 202.813C133.861 203.345 133.854 203.894 133.953 204.429C134.051 204.964 134.255 205.474 134.551 205.931C134.847 206.387 135.231 206.781 135.679 207.089C136.128 207.397 136.633 207.614 137.166 207.728C137.453 207.789 137.745 207.82 138.039 207.82C138.987 207.817 139.905 207.49 140.642 206.893C141.378 206.297 141.888 205.466 142.086 204.54L149.279 170.827C149.508 169.753 149.3 168.632 148.702 167.71C148.104 166.789 147.164 166.142 146.09 165.912V165.912Z" fill="#CDD5DC"/>
<path d="M126.877 169.188C126.344 169.074 125.795 169.067 125.259 169.166C124.724 169.264 124.213 169.468 123.756 169.764C123.299 170.059 122.905 170.442 122.596 170.891C122.288 171.339 122.07 171.843 121.957 172.375L116.267 199.041C116.153 199.573 116.146 200.122 116.245 200.657C116.344 201.192 116.547 201.702 116.843 202.159C117.14 202.615 117.523 203.009 117.972 203.317C118.42 203.626 118.925 203.843 119.458 203.956C119.991 204.07 120.54 204.077 121.076 203.978C121.611 203.88 122.122 203.676 122.579 203.38C123.036 203.084 123.43 202.701 123.739 202.253C124.047 201.805 124.265 201.3 124.378 200.768L130.069 174.103C130.297 173.028 130.089 171.907 129.49 170.986C128.892 170.064 127.952 169.418 126.877 169.188V169.188Z" fill="#CDD5DC"/>
<path d="M108.391 169.096C107.858 168.982 107.308 168.974 106.773 169.073C106.237 169.172 105.726 169.375 105.27 169.671C104.813 169.967 104.419 170.35 104.11 170.798C103.801 171.246 103.584 171.751 103.47 172.283L98.5648 195.272C98.3355 196.346 98.5429 197.468 99.1413 198.389C99.7397 199.311 100.68 199.958 101.756 200.187C102.831 200.416 103.954 200.209 104.877 199.611C105.799 199.013 106.447 198.074 106.676 196.999L111.581 174.01C111.81 172.936 111.602 171.815 111.004 170.894C110.405 169.972 109.466 169.326 108.391 169.096V169.096Z" fill="#CDD5DC"/>
<path d="M182.975 115.918L111.28 100.65C110.557 100.487 109.928 100.046 109.528 99.4219C109.129 98.7982 108.991 98.0425 109.146 97.3184C109.3 96.5943 109.734 95.9602 110.353 95.5534C110.973 95.1467 111.727 95 112.454 95.1452L184.149 110.413C184.872 110.576 185.501 111.018 185.901 111.641C186.3 112.265 186.437 113.021 186.283 113.745C186.128 114.469 185.695 115.103 185.075 115.51C184.456 115.917 183.701 116.063 182.975 115.918V115.918Z" fill="#E3E9F1"/>
<path d="M147.129 123.704L108.132 115.399C107.402 115.244 106.763 114.804 106.356 114.178C105.949 113.552 105.808 112.79 105.964 112.06C106.12 111.33 106.56 110.691 107.187 110.285C107.814 109.879 108.577 109.738 109.307 109.894L148.304 118.198C149.034 118.354 149.673 118.793 150.08 119.419C150.487 120.045 150.628 120.807 150.472 121.538C150.316 122.268 149.877 122.906 149.25 123.312C148.623 123.719 147.86 123.859 147.129 123.704V123.704Z" fill="#E3E9F1"/>
<path d="M189.386 128.951C188.908 128.85 188.409 128.942 187.999 129.208C187.589 129.473 187.302 129.89 187.199 130.368C187.135 130.679 187.154 131.002 187.253 131.304C181.292 136.519 174.736 141.013 167.72 144.693C167.511 144.537 167.27 144.427 167.014 144.372C166.536 144.27 166.037 144.363 165.627 144.628C165.217 144.894 164.93 145.311 164.828 145.788C164.8 145.923 164.787 146.061 164.79 146.199C159.664 148.742 154.375 150.944 148.958 152.791C148.251 153.034 147.542 153.262 146.834 153.488C146.579 153.215 146.245 153.027 145.88 152.95C145.402 152.848 144.903 152.94 144.493 153.206C144.083 153.471 143.796 153.889 143.693 154.366C143.688 154.388 143.69 154.41 143.686 154.433C138.645 155.853 133.498 156.862 128.294 157.451C128.105 157.205 127.857 157.011 127.573 156.888C127.288 156.765 126.977 156.716 126.669 156.746C126.36 156.776 126.065 156.884 125.81 157.06C125.555 157.236 125.349 157.474 125.211 157.751C119.574 158.201 113.911 158.244 108.268 157.88C108.117 157.492 107.839 157.166 107.479 156.955C107.119 156.744 106.698 156.662 106.285 156.72C105.872 156.779 105.491 156.975 105.204 157.277C104.917 157.58 104.741 157.97 104.704 158.385C104.668 158.8 104.773 159.216 105.002 159.564C105.232 159.911 105.573 160.172 105.969 160.301C106.365 160.431 106.794 160.423 107.185 160.279C107.577 160.134 107.907 159.862 108.124 159.506C113.814 159.874 119.523 159.835 125.208 159.389C125.371 159.725 125.633 160.004 125.959 160.187C126.285 160.37 126.659 160.449 127.032 160.412C127.404 160.376 127.756 160.227 128.041 159.985C128.326 159.743 128.529 159.419 128.624 159.058C133.874 158.456 139.065 157.433 144.15 155.998C144.378 156.246 144.67 156.427 144.995 156.52C145.319 156.614 145.662 156.616 145.988 156.527C146.313 156.438 146.608 156.262 146.84 156.016C147.071 155.771 147.231 155.467 147.301 155.137C147.307 155.109 147.306 155.082 147.31 155.053C148.037 154.822 148.765 154.587 149.49 154.336C154.982 152.462 160.344 150.229 165.541 147.65C165.751 147.807 165.992 147.917 166.249 147.973C166.727 148.074 167.226 147.982 167.635 147.716C168.045 147.451 168.333 147.034 168.435 146.556C168.464 146.421 168.476 146.282 168.472 146.144C175.629 142.391 182.315 137.804 188.392 132.479C188.467 132.508 188.544 132.532 188.622 132.55C188.86 132.603 189.106 132.609 189.345 132.567C189.585 132.524 189.814 132.435 190.019 132.303C190.224 132.172 190.401 132.001 190.539 131.801C190.678 131.601 190.775 131.376 190.826 131.138C190.877 130.9 190.88 130.654 190.835 130.415C190.79 130.176 190.698 129.948 190.565 129.745C190.431 129.541 190.259 129.366 190.057 129.23C189.856 129.093 189.629 128.998 189.39 128.95L189.386 128.951Z" fill="#868C8F"/>
<path d="M185.332 215.027C185.199 214.821 185.025 214.642 184.823 214.503C184.62 214.364 184.392 214.266 184.151 214.215L92.7408 194.749C92.4969 194.688 92.2431 194.677 91.9947 194.716C91.7463 194.755 91.5083 194.843 91.2949 194.976C91.0815 195.109 90.8971 195.284 90.7527 195.489C90.6082 195.695 90.5068 195.928 90.4543 196.173C90.4018 196.419 90.3994 196.673 90.4473 196.92C90.4951 197.166 90.5921 197.401 90.7326 197.609C90.8732 197.817 91.0542 197.995 91.2651 198.132C91.4759 198.269 91.7122 198.362 91.9599 198.406L183.369 217.877C183.609 217.928 183.857 217.931 184.099 217.887C184.341 217.842 184.572 217.751 184.778 217.617C184.984 217.483 185.162 217.31 185.301 217.108C185.441 216.906 185.539 216.678 185.59 216.438C185.643 216.197 185.647 215.949 185.603 215.706C185.558 215.464 185.466 215.233 185.332 215.027V215.027Z" fill="#9EA5A9"/>
<path d="M216.493 101.72C216.175 101.262 215.689 100.947 215.14 100.846C214.591 100.744 214.025 100.864 213.564 101.178L206.281 106.181L204.873 104.011C204.561 103.553 204.084 103.233 203.542 103.118C203 103.002 202.434 103.1 201.962 103.39C201.73 103.54 201.529 103.734 201.372 103.962C201.215 104.189 201.104 104.446 201.046 104.716C200.989 104.986 200.985 105.265 201.035 105.537C201.086 105.809 201.189 106.068 201.34 106.3L203.943 110.307C204.244 110.76 204.711 111.076 205.242 111.187C205.524 111.246 205.814 111.249 206.097 111.195C206.38 111.141 206.649 111.031 206.888 110.872L215.951 104.647C216.41 104.33 216.725 103.844 216.827 103.296C216.928 102.747 216.808 102.181 216.493 101.72V101.72Z" fill="#FF6B70"/>
<g opacity="0.1">
<path d="M207.199 59.7313C205.015 57.4527 202.194 55.8851 199.104 55.2331L199.418 53.7638C199.722 52.3288 199.443 50.8319 198.643 49.6022C197.842 48.3725 196.586 47.5107 195.15 47.2061L188.33 45.7534C188.15 42.5434 186.959 39.4725 184.927 36.9791C182.895 34.4857 180.127 32.6973 177.017 31.8691C173.908 31.041 170.616 31.2155 167.611 32.3677C164.607 33.5199 162.043 35.5909 160.287 38.285C160.003 38.7137 159.742 39.1578 159.506 39.6152L152.687 38.1624C151.434 37.8933 150.126 38.0672 148.987 38.6544C147.848 39.2417 146.949 40.2058 146.442 41.3821C146.302 41.7136 146.192 42.0573 146.114 42.4089L145.801 43.8789C145.408 43.795 145.011 43.724 144.618 43.6731C141.892 43.303 139.116 43.6536 136.567 44.6899C134.169 45.6544 132.045 47.1942 130.384 49.1732C128.723 51.1522 127.575 53.5096 127.042 56.0369L126.428 58.9124C126.33 59.3724 126.322 59.8473 126.408 60.3101C126.493 60.7728 126.669 61.2142 126.925 61.609C127.181 62.0037 127.513 62.3441 127.901 62.6105C128.289 62.877 128.726 63.0643 129.187 63.1617L206.41 79.6064C206.87 79.7044 207.345 79.7108 207.807 79.6252C208.27 79.5397 208.711 79.3638 209.106 79.1077C209.5 78.8516 209.84 78.5203 210.106 78.1328C210.373 77.7453 210.56 77.3091 210.657 76.8492L211.271 73.9738C211.81 71.4482 211.721 68.829 211.011 66.3458C210.301 63.8627 208.992 61.5914 207.199 59.7313ZM179.145 50.983C178.79 51.4782 178.375 51.9283 177.911 52.3232C176.445 53.5724 174.558 54.2157 172.633 54.1218C170.709 54.0278 168.893 53.2037 167.557 51.8177C166.22 50.4317 165.463 48.5883 165.441 46.6639C165.419 44.7394 166.132 42.879 167.437 41.4624C168.741 40.0459 170.537 39.18 172.459 39.0416C174.38 38.9032 176.282 39.5026 177.776 40.7176C179.27 41.9326 180.244 43.6714 180.498 45.5792C180.753 47.4869 180.268 49.4197 179.145 50.983V50.983Z" fill="#494C4E"/>
</g>
<path d="M208.614 57.381C206.43 55.1019 203.609 53.534 200.519 52.8821L200.832 51.4128C201.137 49.9779 200.858 48.481 200.057 47.2513C199.257 46.0216 198.001 45.1597 196.564 44.8552L189.745 43.4024C189.565 40.1917 188.375 37.1198 186.343 34.6256C184.311 32.1313 181.542 30.3423 178.432 29.514C175.321 28.6858 172.028 28.8606 169.023 30.0136C166.018 31.1666 163.455 33.2387 161.699 35.9341C161.415 36.363 161.154 36.807 160.918 37.2643L154.096 35.8122C152.843 35.5432 151.535 35.7173 150.396 36.3047C149.257 36.892 148.358 37.8562 147.851 39.0326C147.711 39.3651 147.602 39.7098 147.525 40.0623L147.212 41.5316C146.819 41.4477 146.422 41.3767 146.029 41.3265C143.304 40.955 140.529 41.3036 137.981 42.3376C135.582 43.3025 133.459 44.8427 131.798 46.8221C130.136 48.8015 128.989 51.1591 128.456 53.6867L127.842 56.5621C127.744 57.0221 127.737 57.4971 127.822 57.9599C127.907 58.4226 128.083 58.864 128.339 59.2587C128.595 59.6535 128.927 59.9939 129.315 60.2603C129.703 60.5268 130.14 60.7141 130.601 60.8115L207.82 77.259C208.28 77.357 208.755 77.3634 209.217 77.2778C209.68 77.1922 210.121 77.0163 210.516 76.7601C210.91 76.5039 211.25 76.1726 211.516 75.7849C211.783 75.3973 211.97 74.9611 212.067 74.5012L212.68 71.6257C213.221 69.1002 213.133 66.4808 212.424 63.9972C211.715 61.5136 210.407 59.2418 208.614 57.381V57.381ZM180.559 48.6327C179.711 49.8094 178.538 50.7139 177.183 51.2358C175.829 51.7577 174.351 51.8745 172.932 51.572C171.512 51.2695 170.211 50.5607 169.187 49.5322C168.164 48.5036 167.462 47.1997 167.168 45.7795C166.915 44.5626 166.97 43.3018 167.328 42.1115C167.686 40.9211 168.335 39.8387 169.217 38.9621C170.099 38.0856 171.186 37.4426 172.38 37.0915C173.573 36.7403 174.836 36.692 176.052 36.9509C177.993 37.3653 179.69 38.533 180.77 40.1971C181.849 41.8612 182.222 43.8855 181.808 45.8247C181.594 46.8376 181.168 47.7942 180.559 48.632V48.6327Z" fill="#868C8F"/>
<g opacity="0.75">
<path d="M206.862 73.403L131.725 57.4022C131.419 57.3281 131.155 57.1379 130.987 56.8721C130.82 56.6062 130.763 56.2856 130.828 55.9784C130.894 55.6712 131.076 55.4015 131.338 55.2268C131.599 55.052 131.918 54.9858 132.227 55.0424L207.365 71.0431C207.678 71.1097 207.952 71.2978 208.126 71.5662C208.301 71.8345 208.361 72.1611 208.295 72.474C208.228 72.787 208.04 73.0607 207.771 73.2349C207.503 73.4091 207.176 73.4696 206.862 73.403H206.862Z" fill="#B5BDC2"/>
</g>
<g opacity="0.4">
<path d="M163.807 45.8512L150.169 42.9478C149.965 42.8985 149.788 42.7718 149.677 42.5944C149.565 42.4171 149.527 42.2032 149.57 41.9983C149.614 41.7933 149.736 41.6135 149.91 41.497C150.085 41.3805 150.298 41.3366 150.504 41.3745L164.142 44.2787C164.246 44.3007 164.344 44.3428 164.431 44.4026C164.518 44.4624 164.592 44.5388 164.65 44.6274C164.707 44.7159 164.747 44.8149 164.766 44.9187C164.785 45.0226 164.784 45.1291 164.762 45.2324C164.74 45.3356 164.698 45.4336 164.638 45.5205C164.578 45.6075 164.501 45.6819 164.413 45.7393C164.324 45.7968 164.225 45.8362 164.121 45.8554C164.017 45.8746 163.91 45.8732 163.807 45.8512V45.8512Z" fill="#B5BDC2"/>
</g>
<g opacity="0.4">
<path d="M197.23 52.9675L183.592 50.064C183.486 50.0442 183.386 50.0034 183.296 49.9442C183.207 49.885 183.13 49.8084 183.07 49.7191C183.011 49.6298 182.97 49.5295 182.95 49.4242C182.93 49.3188 182.931 49.2105 182.953 49.1055C182.976 49.0006 183.019 48.9012 183.08 48.8133C183.142 48.7253 183.22 48.6504 183.311 48.5931C183.402 48.5358 183.503 48.4973 183.609 48.4797C183.715 48.4621 183.823 48.4659 183.928 48.4908L197.566 51.3949C197.669 51.4169 197.767 51.4591 197.854 51.519C197.941 51.5788 198.016 51.6553 198.073 51.7439C198.131 51.8324 198.17 51.9315 198.189 52.0353C198.209 52.1391 198.207 52.2457 198.185 52.349C198.163 52.4522 198.121 52.5501 198.061 52.6371C198.001 52.7241 197.924 52.7984 197.836 52.8558C197.747 52.9132 197.648 52.9527 197.544 52.9718C197.44 52.991 197.333 52.9895 197.23 52.9675V52.9675Z" fill="#B5BDC2"/>
</g>
<path d="M337.5 163.52H303.48C302.03 163.52 300.854 164.694 300.854 166.143C300.854 167.592 302.03 168.766 303.48 168.766H337.5C338.95 168.766 340.126 167.592 340.126 166.143C340.126 164.694 338.95 163.52 337.5 163.52Z" fill="#F1F5FB"/>
<path d="M308.968 138.028H281.464C279.826 138.028 278.497 139.355 278.497 140.992C278.497 142.63 279.826 143.957 281.464 143.957H308.968C310.607 143.957 311.935 142.63 311.935 140.992C311.935 139.355 310.607 138.028 308.968 138.028Z" fill="#F1F5FB"/>
<path d="M353.773 173.782H328.344C326.894 173.782 325.719 174.957 325.719 176.405C325.719 177.854 326.894 179.028 328.344 179.028H353.773C355.224 179.028 356.399 177.854 356.399 176.405C356.399 174.957 355.224 173.782 353.773 173.782Z" fill="#F1F5FB"/>
<path d="M384.352 187.289H376.205C374.755 187.289 373.579 188.463 373.579 189.912C373.579 191.361 374.755 192.535 376.205 192.535H384.352C385.802 192.535 386.978 191.361 386.978 189.912C386.978 188.463 385.802 187.289 384.352 187.289Z" fill="#F9FBFF"/>
<path d="M292.112 115.671H273.773C272.323 115.671 271.147 116.846 271.147 118.294C271.147 119.743 272.323 120.917 273.773 120.917H292.112C293.563 120.917 294.738 119.743 294.738 118.294C294.738 116.846 293.563 115.671 292.112 115.671Z" fill="#F9FBFF"/>
<path d="M392.993 113.357H367.564C366.114 113.357 364.938 114.531 364.938 115.98C364.938 117.429 366.114 118.603 367.564 118.603H392.993C394.443 118.603 395.619 117.429 395.619 115.98C395.619 114.531 394.443 113.357 392.993 113.357Z" fill="#F1F5FB"/>
<path d="M439.681 123.029H407.238C405.788 123.029 404.612 124.203 404.612 125.652C404.612 127.101 405.788 128.275 407.238 128.275H439.681C441.132 128.275 442.307 127.101 442.307 125.652C442.307 124.203 441.132 123.029 439.681 123.029Z" fill="#F9FBFF"/>
<path d="M310.047 92.4595H284.618C283.168 92.4595 281.992 93.6339 281.992 95.0826C281.992 96.5313 283.168 97.7056 284.618 97.7056H310.047C311.497 97.7056 312.673 96.5313 312.673 95.0826C312.673 93.6339 311.497 92.4595 310.047 92.4595Z" fill="#F1F5FB"/>
<path d="M399.309 70.285H373.88C372.429 70.285 371.254 71.4593 371.254 72.908C371.254 74.3567 372.429 75.5311 373.88 75.5311H399.309C400.759 75.5311 401.934 74.3567 401.934 72.908C401.934 71.4593 400.759 70.285 399.309 70.285Z" fill="#F9FBFF"/>
<path d="M326.132 259.94V259.948H325.36C325.359 259.948 325.358 259.947 325.357 259.947C325.356 259.946 325.356 259.946 325.355 259.945C325.354 259.944 325.354 259.944 325.353 259.943C325.353 259.942 325.353 259.941 325.353 259.94H326.132Z" fill="#F9FBFF"/>
<path d="M315.918 256.877V256.884H315.147C315.147 256.884 315.143 256.884 315.143 256.877H315.918Z" fill="#F9FBFF"/>
<path d="M342.703 207.249V256.88H321.936V223.315C321.966 222.168 321.539 221.056 320.749 220.223C319.959 219.391 318.871 218.905 317.723 218.873H314.278V213.192C314.236 211.658 314.806 210.171 315.862 209.056C316.918 207.942 318.373 207.292 319.909 207.249H342.703Z" fill="#F1F5FB"/>
<path d="M281.165 231.888V240.596H277.145C276.984 240.596 276.824 240.608 276.665 240.632C276.588 240.643 276.51 240.659 276.436 240.674V240.678C276.424 240.678 276.412 240.678 276.401 240.678C276.374 240.684 276.348 240.692 276.322 240.702C276.284 240.713 276.251 240.721 276.21 240.733C276.159 240.748 276.112 240.768 276.062 240.784C275.87 240.854 275.686 240.943 275.512 241.048L275.383 241.13C275.216 241.242 275.061 241.371 274.92 241.515C274.848 241.583 274.781 241.655 274.717 241.73V241.734C274.652 241.81 274.59 241.889 274.534 241.972C274.534 241.972 274.538 241.972 274.534 241.972C274.475 242.058 274.425 242.14 274.374 242.229C274.323 242.319 274.285 242.412 274.241 242.509C274.202 242.603 274.167 242.698 274.137 242.796C274.113 242.87 274.093 242.945 274.078 243.022C274.058 243.097 274.043 243.174 274.031 243.251C274.008 243.411 273.996 243.572 273.996 243.734V256.873H259.459V231.888C259.459 230.311 260.086 228.799 261.202 227.685C262.318 226.57 263.832 225.943 265.41 225.943H275.214C275.996 225.943 276.77 226.096 277.492 226.395C278.214 226.693 278.87 227.131 279.423 227.683C279.975 228.235 280.414 228.891 280.713 229.612C281.012 230.334 281.165 231.107 281.165 231.888V231.888Z" fill="#F1F5FB"/>
<path d="M281.162 253.409V253.42C281.14 253.39 281.122 253.357 281.107 253.323C281.123 253.353 281.141 253.382 281.162 253.409V253.409Z" fill="#F9FBFF"/>
<path d="M401.25 213.535V216.156H398.538C397.747 216.156 396.963 216.311 396.232 216.614C395.501 216.916 394.837 217.359 394.277 217.918C393.718 218.477 393.274 219.141 392.971 219.871C392.669 220.601 392.513 221.384 392.513 222.174V256.881H371.816L373.429 207.595H395.291C396.87 207.594 398.384 208.22 399.501 209.334C400.618 210.447 401.247 211.958 401.25 213.535Z" fill="#F1F5FB"/>
<path d="M401.181 242.048C401.149 242.171 401.096 242.286 401.024 242.391C401.092 242.284 401.145 242.169 401.181 242.048V242.048Z" fill="#F9FBFF"/>
<path d="M401.25 238.034V241.608C401.253 241.757 401.228 241.906 401.179 242.048C401.222 241.906 401.245 241.759 401.245 241.611V238.034C401.244 237.864 401.215 237.695 401.159 237.535C401.219 237.695 401.25 237.863 401.25 238.034V238.034Z" fill="#F9FBFF"/>
<path d="M368.769 190.021H346.42C345.755 190.021 345.096 190.152 344.482 190.407C343.867 190.661 343.309 191.034 342.839 191.504C342.369 191.974 341.996 192.532 341.742 193.146C341.488 193.76 341.357 194.418 341.357 195.083V256.88H342.702H354.533V248.705C354.533 248.5 354.573 248.297 354.652 248.108C354.73 247.918 354.845 247.746 354.99 247.601C355.136 247.456 355.308 247.341 355.498 247.262C355.687 247.184 355.891 247.144 356.096 247.144H359.093C359.298 247.144 359.502 247.184 359.691 247.262C359.881 247.341 360.053 247.456 360.199 247.601C360.344 247.746 360.459 247.918 360.537 248.108C360.616 248.297 360.656 248.5 360.656 248.705V256.88H371.817H373.827V195.083C373.827 194.418 373.697 193.761 373.443 193.147C373.19 192.533 372.817 191.975 372.348 191.505C371.878 191.035 371.32 190.662 370.706 190.407C370.092 190.153 369.434 190.022 368.769 190.021V190.021ZM353.129 240.759H349.555C349.363 240.759 349.173 240.722 348.995 240.648C348.818 240.575 348.656 240.467 348.521 240.331C348.385 240.195 348.277 240.034 348.203 239.857C348.13 239.679 348.092 239.489 348.092 239.297C348.092 239.105 348.13 238.915 348.203 238.738C348.277 238.56 348.385 238.399 348.521 238.263C348.656 238.128 348.818 238.02 348.995 237.946C349.173 237.873 349.363 237.835 349.555 237.835H353.129C353.321 237.835 353.511 237.873 353.689 237.946C353.866 238.02 354.028 238.128 354.164 238.263C354.3 238.399 354.407 238.56 354.481 238.738C354.554 238.915 354.592 239.105 354.592 239.297C354.592 239.489 354.554 239.679 354.481 239.857C354.407 240.034 354.3 240.195 354.164 240.331C354.028 240.467 353.866 240.575 353.689 240.648C353.511 240.722 353.321 240.759 353.129 240.759V240.759ZM353.129 232.969H349.555C349.168 232.969 348.796 232.815 348.522 232.542C348.248 232.268 348.094 231.896 348.094 231.509C348.094 231.122 348.248 230.751 348.522 230.477C348.796 230.203 349.168 230.049 349.555 230.049H353.129C353.516 230.049 353.888 230.203 354.162 230.477C354.436 230.751 354.59 231.122 354.59 231.509C354.59 231.896 354.436 232.268 354.162 232.542C353.888 232.815 353.516 232.969 353.129 232.969V232.969ZM353.129 225.179H349.555C349.361 225.183 349.167 225.149 348.986 225.077C348.805 225.006 348.64 224.899 348.501 224.763C348.362 224.627 348.251 224.465 348.176 224.285C348.101 224.106 348.062 223.914 348.062 223.719C348.062 223.525 348.101 223.332 348.176 223.153C348.251 222.974 348.362 222.811 348.501 222.676C348.64 222.54 348.805 222.433 348.986 222.361C349.167 222.29 349.361 222.255 349.555 222.26H353.129C353.323 222.255 353.517 222.29 353.698 222.361C353.879 222.433 354.044 222.54 354.183 222.676C354.322 222.811 354.433 222.974 354.508 223.153C354.584 223.332 354.623 223.525 354.623 223.719C354.623 223.914 354.584 224.106 354.508 224.285C354.433 224.465 354.322 224.627 354.183 224.763C354.044 224.899 353.879 225.006 353.698 225.077C353.517 225.149 353.323 225.183 353.129 225.179ZM353.129 217.389H349.555C349.364 217.389 349.173 217.352 348.996 217.278C348.819 217.205 348.658 217.097 348.522 216.962C348.386 216.826 348.279 216.665 348.205 216.488C348.132 216.311 348.094 216.121 348.094 215.929C348.094 215.738 348.132 215.548 348.205 215.371C348.279 215.193 348.386 215.033 348.522 214.897C348.658 214.761 348.819 214.654 348.996 214.58C349.173 214.507 349.364 214.469 349.555 214.469H353.129C353.321 214.469 353.511 214.507 353.688 214.58C353.865 214.654 354.026 214.761 354.162 214.897C354.298 215.033 354.405 215.193 354.479 215.371C354.552 215.548 354.59 215.738 354.59 215.929C354.59 216.121 354.552 216.311 354.479 216.488C354.405 216.665 354.298 216.826 354.162 216.962C354.026 217.097 353.865 217.205 353.688 217.278C353.511 217.352 353.321 217.389 353.129 217.389V217.389ZM353.129 209.595H349.555C349.361 209.6 349.167 209.565 348.985 209.494C348.804 209.422 348.639 209.315 348.5 209.179C348.36 209.043 348.25 208.88 348.174 208.701C348.098 208.521 348.059 208.328 348.059 208.134C348.059 207.939 348.098 207.746 348.174 207.567C348.25 207.387 348.36 207.225 348.5 207.088C348.639 206.952 348.804 206.845 348.985 206.774C349.167 206.702 349.361 206.668 349.555 206.672H353.129C353.324 206.668 353.517 206.702 353.699 206.774C353.88 206.845 354.045 206.952 354.185 207.088C354.324 207.225 354.435 207.387 354.51 207.567C354.586 207.746 354.625 207.939 354.625 208.134C354.625 208.328 354.586 208.521 354.51 208.701C354.435 208.88 354.324 209.043 354.185 209.179C354.045 209.315 353.88 209.422 353.699 209.494C353.517 209.565 353.324 209.6 353.129 209.595V209.595ZM353.129 201.805H349.555C349.361 201.809 349.167 201.775 348.985 201.703C348.804 201.632 348.639 201.525 348.5 201.389C348.36 201.252 348.25 201.09 348.174 200.91C348.098 200.731 348.059 200.538 348.059 200.343C348.059 200.149 348.098 199.956 348.174 199.776C348.25 199.597 348.36 199.434 348.5 199.298C348.639 199.162 348.804 199.055 348.985 198.983C349.167 198.912 349.361 198.877 349.555 198.882H353.129C353.324 198.877 353.517 198.912 353.699 198.983C353.88 199.055 354.045 199.162 354.185 199.298C354.324 199.434 354.435 199.597 354.51 199.776C354.586 199.956 354.625 200.149 354.625 200.343C354.625 200.538 354.586 200.731 354.51 200.91C354.435 201.09 354.324 201.252 354.185 201.389C354.045 201.525 353.88 201.632 353.699 201.703C353.517 201.775 353.324 201.809 353.129 201.805ZM366.005 240.759H362.431C362.043 240.759 361.67 240.605 361.396 240.331C361.121 240.057 360.967 239.685 360.967 239.297C360.967 238.91 361.121 238.538 361.396 238.263C361.67 237.989 362.043 237.835 362.431 237.835H366.005C366.197 237.835 366.387 237.873 366.565 237.946C366.742 238.02 366.904 238.128 367.04 238.263C367.175 238.399 367.283 238.56 367.357 238.738C367.43 238.915 367.468 239.105 367.468 239.297C367.468 239.489 367.43 239.679 367.357 239.857C367.283 240.034 367.175 240.195 367.04 240.331C366.904 240.467 366.742 240.575 366.565 240.648C366.387 240.722 366.197 240.759 366.005 240.759V240.759ZM366.005 232.969H362.431C362.043 232.969 361.671 232.815 361.397 232.542C361.123 232.268 360.969 231.896 360.969 231.509C360.969 231.122 361.123 230.751 361.397 230.477C361.671 230.203 362.043 230.049 362.431 230.049H366.005C366.392 230.049 366.764 230.203 367.038 230.477C367.312 230.751 367.466 231.122 367.466 231.509C367.466 231.896 367.312 232.268 367.038 232.542C366.764 232.815 366.392 232.969 366.005 232.969V232.969ZM366.005 225.179H362.431C362.049 225.17 361.685 225.013 361.418 224.74C361.151 224.467 361.002 224.101 361.002 223.719C361.002 223.338 361.151 222.971 361.418 222.698C361.685 222.426 362.049 222.268 362.431 222.26H366.005C366.199 222.255 366.393 222.29 366.574 222.361C366.755 222.433 366.92 222.54 367.059 222.676C367.198 222.811 367.309 222.974 367.384 223.153C367.46 223.332 367.498 223.525 367.498 223.719C367.498 223.914 367.46 224.106 367.384 224.285C367.309 224.465 367.198 224.627 367.059 224.763C366.92 224.899 366.755 225.006 366.574 225.077C366.393 225.149 366.199 225.183 366.005 225.179ZM366.005 217.389H362.431C362.043 217.389 361.671 217.235 361.397 216.962C361.123 216.688 360.969 216.317 360.969 215.929C360.969 215.542 361.123 215.171 361.397 214.897C361.671 214.623 362.043 214.469 362.431 214.469H366.005C366.197 214.469 366.387 214.507 366.564 214.58C366.741 214.654 366.902 214.761 367.038 214.897C367.174 215.033 367.281 215.193 367.355 215.371C367.428 215.548 367.466 215.738 367.466 215.929C367.466 216.121 367.428 216.311 367.355 216.488C367.281 216.665 367.174 216.826 367.038 216.962C366.902 217.097 366.741 217.205 366.564 217.278C366.387 217.352 366.197 217.389 366.005 217.389V217.389ZM366.005 209.595H362.431C362.048 209.587 361.684 209.429 361.417 209.156C361.149 208.883 361 208.516 361 208.134C361 207.751 361.149 207.385 361.417 207.111C361.684 206.838 362.048 206.68 362.431 206.672H366.005C366.2 206.668 366.393 206.702 366.575 206.774C366.756 206.845 366.921 206.952 367.06 207.088C367.2 207.225 367.311 207.387 367.386 207.567C367.462 207.746 367.501 207.939 367.501 208.134C367.501 208.328 367.462 208.521 367.386 208.701C367.311 208.88 367.2 209.043 367.06 209.179C366.921 209.315 366.756 209.422 366.575 209.494C366.393 209.565 366.2 209.6 366.005 209.595V209.595ZM366.005 201.805H362.431C362.048 201.797 361.684 201.639 361.417 201.366C361.149 201.093 361 200.726 361 200.343C361 199.961 361.149 199.594 361.417 199.321C361.684 199.048 362.048 198.89 362.431 198.882H366.005C366.2 198.877 366.393 198.912 366.575 198.983C366.756 199.055 366.921 199.162 367.06 199.298C367.2 199.434 367.311 199.597 367.386 199.776C367.462 199.956 367.501 200.149 367.501 200.343C367.501 200.538 367.462 200.731 367.386 200.91C367.311 201.09 367.2 201.252 367.06 201.389C366.921 201.525 366.756 201.632 366.575 201.703C366.393 201.775 366.2 201.809 366.005 201.805Z" fill="#FF6B70"/>
<path d="M399.244 236.574C399.218 236.573 399.192 236.575 399.166 236.578H399.238C399.289 236.578 399.343 236.578 399.39 236.578C399.341 236.573 399.292 236.571 399.244 236.574ZM399.236 243.068C399.139 243.067 399.043 243.058 398.949 243.041C399.045 243.064 399.145 243.076 399.244 243.076C399.343 243.076 399.441 243.064 399.537 243.041C399.438 243.058 399.337 243.067 399.236 243.068V243.068ZM397.783 241.608V238.034C397.782 237.985 397.784 237.935 397.79 237.886C397.781 237.935 397.777 237.984 397.779 238.034V241.612C397.779 241.71 397.79 241.808 397.809 241.905C397.793 241.807 397.784 241.707 397.783 241.608V241.608ZM399.236 230.178C399.189 230.178 399.139 230.178 399.092 230.174C399.139 230.178 399.193 230.186 399.244 230.186C399.292 230.187 399.34 230.184 399.387 230.174C399.341 230.178 399.284 230.178 399.236 230.178V230.178ZM397.779 225.152V228.722C397.778 228.746 397.779 228.77 397.783 228.794V225.154C397.782 225.104 397.784 225.055 397.79 225.005C397.78 225.054 397.775 225.103 397.776 225.152H397.779ZM314.278 226.402C313.891 226.403 313.52 226.557 313.246 226.831C312.972 227.104 312.818 227.475 312.816 227.862V231.439C312.815 231.465 312.815 231.491 312.816 231.517V227.869C312.816 227.482 312.97 227.111 313.243 226.837C313.516 226.563 313.887 226.408 314.274 226.406C314.42 226.406 314.565 226.427 314.705 226.468C314.567 226.423 314.423 226.4 314.278 226.402V226.402ZM276.602 240.592C276.494 240.591 276.385 240.597 276.278 240.611C276.069 240.627 275.862 240.669 275.663 240.736C275.565 240.771 275.471 240.802 275.376 240.841C275.28 240.881 275.193 240.927 275.107 240.978C274.925 241.069 274.755 241.181 274.6 241.312C274.445 241.44 274.303 241.582 274.175 241.736C274.125 241.799 274.082 241.857 274.039 241.916C273.997 241.974 273.949 242.04 273.914 242.106C273.872 242.171 273.833 242.239 273.797 242.308C273.766 242.375 273.735 242.445 273.7 242.515C273.54 242.902 273.456 243.316 273.454 243.734V256.873H259.457H273.998V243.741C273.998 243.58 274.01 243.418 274.033 243.259C274.049 243.181 274.061 243.103 274.08 243.029C274.096 242.953 274.115 242.877 274.139 242.803C274.169 242.706 274.204 242.61 274.244 242.516C274.287 242.42 274.33 242.326 274.377 242.237C274.423 242.147 274.481 242.061 274.536 241.979C274.54 241.979 274.536 241.979 274.536 241.979C274.598 241.898 274.657 241.819 274.72 241.742V241.738C274.786 241.666 274.852 241.59 274.922 241.523C275.066 241.382 275.221 241.253 275.386 241.137L275.514 241.056C275.689 240.95 275.873 240.862 276.064 240.791C276.114 240.775 276.161 240.756 276.212 240.74C276.251 240.729 276.284 240.721 276.325 240.709C276.35 240.699 276.376 240.691 276.403 240.686C276.415 240.685 276.427 240.682 276.438 240.678C276.51 240.663 276.59 240.647 276.668 240.636C276.827 240.612 276.987 240.6 277.147 240.6H281.167V240.596L276.602 240.592ZM314.278 226.402C313.891 226.403 313.52 226.557 313.246 226.831C312.972 227.104 312.818 227.475 312.816 227.862V231.439C312.815 231.465 312.815 231.491 312.816 231.517V227.869C312.816 227.482 312.97 227.111 313.243 226.837C313.516 226.563 313.887 226.408 314.274 226.406C314.42 226.406 314.565 226.427 314.705 226.468C314.567 226.423 314.423 226.4 314.278 226.402V226.402ZM315.139 256.877C315.139 256.885 315.144 256.885 315.144 256.885H315.914V256.877H315.139ZM325.349 259.941C325.349 259.943 325.35 259.945 325.352 259.946C325.353 259.948 325.355 259.948 325.357 259.948H326.129V259.941H325.349ZM397.776 225.153V228.723C397.775 228.747 397.776 228.771 397.78 228.795V225.155C397.779 225.105 397.781 225.055 397.787 225.006C397.778 225.054 397.774 225.103 397.776 225.152L397.776 225.153ZM397.78 241.609V238.034C397.779 237.985 397.781 237.935 397.787 237.886C397.778 237.935 397.774 237.984 397.776 238.034V241.612C397.776 241.71 397.787 241.808 397.807 241.905C397.791 241.807 397.783 241.707 397.783 241.608L397.78 241.609ZM397.992 216.156C397.201 216.155 396.417 216.31 395.686 216.612C394.955 216.914 394.291 217.357 393.731 217.916C393.172 218.475 392.728 219.138 392.425 219.868C392.123 220.598 391.967 221.381 391.967 222.171V256.877H371.817H392.513V222.171C392.514 220.575 393.149 219.045 394.279 217.917C395.409 216.789 396.941 216.156 398.539 216.156H397.992ZM322.528 256.877V223.317C322.527 223.02 322.498 222.722 322.442 222.43C322.425 222.335 322.403 222.242 322.376 222.149C322.345 222.025 322.304 221.904 322.263 221.784C322.208 221.647 322.154 221.518 322.095 221.386C322.056 221.305 322.014 221.223 321.971 221.149C321.928 221.075 321.877 220.989 321.827 220.915C321.781 220.841 321.73 220.769 321.675 220.7C321.639 220.645 321.599 220.593 321.554 220.545C321.511 220.49 321.469 220.436 321.426 220.385C321.383 220.334 321.34 220.287 321.289 220.237C321.239 220.187 321.195 220.139 321.146 220.094C321.081 220.031 321.014 219.971 320.943 219.915C320.877 219.86 320.811 219.806 320.741 219.751C320.737 219.751 320.737 219.751 320.733 219.751C320.652 219.688 320.567 219.63 320.48 219.576C320.394 219.521 320.308 219.467 320.215 219.416C320.207 219.416 320.203 219.416 320.199 219.408C320.112 219.359 320.022 219.315 319.93 219.276C319.841 219.233 319.747 219.194 319.65 219.155C319.587 219.136 319.529 219.113 319.47 219.097C319.447 219.087 319.423 219.08 319.399 219.073C319.34 219.054 319.274 219.039 319.215 219.023C319.204 219.015 319.19 219.011 319.176 219.011C319.11 218.993 319.042 218.979 318.974 218.968C318.959 218.961 318.943 218.957 318.927 218.957C318.77 218.923 318.611 218.9 318.451 218.89C318.356 218.879 318.26 218.874 318.164 218.875H317.724C318.872 218.907 319.96 219.393 320.75 220.225C321.54 221.058 321.967 222.17 321.937 223.317V256.882H342.704L322.528 256.877ZM399.244 236.574C399.218 236.573 399.192 236.575 399.166 236.578H399.238C399.289 236.578 399.343 236.578 399.39 236.578C399.341 236.573 399.292 236.571 399.244 236.574ZM399.236 230.178C399.189 230.178 399.139 230.178 399.092 230.174C399.139 230.178 399.193 230.186 399.244 230.186C399.292 230.187 399.34 230.184 399.387 230.174C399.341 230.178 399.284 230.178 399.236 230.178V230.178ZM399.236 243.068C399.139 243.067 399.043 243.058 398.949 243.041C399.045 243.064 399.145 243.076 399.244 243.076C399.343 243.076 399.441 243.064 399.537 243.041C399.438 243.058 399.337 243.067 399.236 243.068V243.068ZM401.024 242.39C401.096 242.286 401.149 242.17 401.181 242.048C401.145 242.169 401.092 242.284 401.024 242.39V242.39ZM401.162 237.536C401.218 237.696 401.246 237.864 401.247 238.034V241.612C401.247 241.76 401.225 241.907 401.181 242.049C401.231 241.908 401.255 241.758 401.253 241.609V238.034C401.252 237.864 401.221 237.695 401.162 237.536V237.536Z" fill="#CDD5DC"/>
<path d="M440.069 256.876H424.523V222.17C424.524 221.381 424.369 220.599 424.067 219.869C423.765 219.14 423.322 218.477 422.764 217.919C422.205 217.36 421.542 216.917 420.812 216.615C420.083 216.312 419.3 216.156 418.51 216.156H417.107V211.699C417.124 211.369 417.072 211.039 416.957 210.73C416.842 210.42 416.665 210.138 416.437 209.899C416.209 209.66 415.935 209.469 415.631 209.339C415.327 209.209 415 209.142 414.67 209.142C414.339 209.142 414.012 209.209 413.709 209.339C413.405 209.469 413.131 209.66 412.903 209.899C412.675 210.138 412.498 210.42 412.383 210.73C412.267 211.039 412.216 211.369 412.232 211.699V216.156H398.539C397.747 216.156 396.964 216.311 396.233 216.614C395.502 216.916 394.837 217.359 394.278 217.918C393.718 218.477 393.275 219.141 392.972 219.871C392.669 220.601 392.513 221.384 392.513 222.174V256.881H371.817H342.702H321.935V223.314C321.965 222.168 321.538 221.056 320.749 220.223C319.959 219.39 318.87 218.905 317.722 218.873H300.393C299.211 218.873 298.079 219.342 297.243 220.176C296.408 221.011 295.939 222.142 295.939 223.322V240.592H281.165V240.596H277.145C276.985 240.596 276.824 240.607 276.666 240.631C276.588 240.646 276.51 240.662 276.436 240.678C276.397 240.684 276.359 240.693 276.322 240.705C276.284 240.716 276.251 240.724 276.21 240.736C276.159 240.751 276.112 240.771 276.062 240.787C275.871 240.857 275.686 240.946 275.512 241.051L275.384 241.133C275.219 241.248 275.063 241.377 274.92 241.518C274.848 241.59 274.783 241.661 274.717 241.733V241.737C274.655 241.815 274.596 241.893 274.534 241.975C274.534 241.975 274.538 241.975 274.534 241.975C274.479 242.057 274.425 242.143 274.374 242.232C274.323 242.322 274.285 242.415 274.242 242.512C274.198 242.609 274.17 242.699 274.137 242.799C274.113 242.873 274.093 242.948 274.078 243.025C274.058 243.096 274.047 243.177 274.031 243.254C274.008 243.414 273.996 243.575 273.996 243.737V256.876H259.459H250.963C250.878 256.876 250.796 256.876 250.714 256.883C250.238 256.883 249.766 256.976 249.326 257.157C248.886 257.339 248.486 257.605 248.149 257.942C247.813 258.278 247.546 258.678 247.364 259.117C247.182 259.557 247.089 260.028 247.09 260.504V261.002C247.09 261.478 247.183 261.949 247.365 262.388C247.547 262.828 247.814 263.227 248.151 263.563C248.487 263.899 248.887 264.166 249.327 264.348C249.767 264.53 250.238 264.623 250.714 264.623H437.45C442.387 264.623 444.106 262.836 444.054 260.652C444.01 259.629 443.57 258.663 442.826 257.958C442.082 257.254 441.094 256.866 440.069 256.876V256.876ZM283.277 252.578C283.277 252.889 283.178 253.192 282.994 253.443C282.809 253.694 282.549 253.879 282.252 253.972C281.955 254.064 281.636 254.06 281.341 253.958C281.047 253.857 280.793 253.664 280.616 253.408C280.595 253.381 280.577 253.352 280.561 253.322C280.535 253.282 280.513 253.241 280.495 253.197C280.49 253.189 280.488 253.18 280.487 253.17C280.461 253.123 280.44 253.074 280.425 253.022C280.42 253.022 280.42 253.022 280.42 253.011C280.402 252.946 280.388 252.881 280.377 252.816C280.37 252.816 280.37 252.8 280.37 252.788C280.359 252.719 280.353 252.649 280.354 252.578V248.998C280.353 248.926 280.359 248.854 280.37 248.783C280.369 248.773 280.372 248.763 280.377 248.755C280.386 248.693 280.405 248.627 280.42 248.561C280.423 248.558 280.425 248.553 280.425 248.549C280.447 248.481 280.474 248.415 280.507 248.351C280.528 248.299 280.555 248.249 280.588 248.203C280.599 248.191 280.608 248.178 280.616 248.164C280.793 247.908 281.047 247.715 281.342 247.613C281.637 247.512 281.956 247.507 282.254 247.601C282.551 247.694 282.811 247.879 282.995 248.131C283.179 248.382 283.278 248.686 283.277 248.997V252.578ZM312.816 227.861C312.818 227.475 312.972 227.104 313.246 226.831C313.52 226.557 313.891 226.403 314.278 226.401C314.424 226.4 314.57 226.422 314.708 226.468L314.838 226.515C314.895 226.538 314.951 226.565 315.005 226.596C315.076 226.637 315.144 226.684 315.207 226.736C315.356 226.857 315.48 227.005 315.574 227.172C315.616 227.254 315.65 227.341 315.675 227.43C315.719 227.569 315.742 227.714 315.741 227.86V231.437C315.741 231.537 315.732 231.636 315.714 231.734C315.703 231.78 315.691 231.831 315.683 231.877H315.675C315.663 231.922 315.647 231.966 315.629 232.009C315.591 232.096 315.545 232.18 315.492 232.258C315.438 232.335 315.378 232.407 315.313 232.474C315.177 232.609 315.016 232.717 314.839 232.79C314.662 232.864 314.472 232.902 314.28 232.902C314.088 232.902 313.898 232.864 313.721 232.79C313.544 232.717 313.383 232.609 313.248 232.474C313.184 232.405 313.124 232.333 313.068 232.258C313.015 232.18 312.969 232.096 312.932 232.009C312.898 231.92 312.869 231.829 312.846 231.736C312.836 231.689 312.829 231.641 312.826 231.593C312.827 231.569 312.825 231.545 312.818 231.521C312.817 231.495 312.817 231.469 312.818 231.443L312.816 227.861ZM305.997 243.337C305.989 243.719 305.831 244.082 305.557 244.349C305.284 244.617 304.916 244.766 304.534 244.766C304.151 244.766 303.784 244.617 303.511 244.349C303.237 244.082 303.079 243.719 303.071 243.337V239.763C303.079 239.381 303.237 239.017 303.511 238.75C303.784 238.483 304.151 238.333 304.534 238.333C304.916 238.333 305.284 238.483 305.557 238.75C305.831 239.017 305.989 239.381 305.997 239.763V243.337ZM305.997 231.439C306.001 231.634 305.967 231.827 305.895 232.008C305.824 232.189 305.717 232.354 305.58 232.494C305.444 232.633 305.281 232.743 305.101 232.819C304.922 232.894 304.729 232.933 304.534 232.933C304.339 232.933 304.146 232.894 303.966 232.819C303.787 232.743 303.624 232.633 303.488 232.494C303.351 232.354 303.244 232.189 303.173 232.008C303.101 231.827 303.066 231.634 303.071 231.439V227.861C303.079 227.479 303.237 227.116 303.511 226.848C303.784 226.581 304.151 226.432 304.534 226.432C304.916 226.432 305.284 226.581 305.557 226.848C305.831 227.116 305.989 227.479 305.997 227.861V231.439ZM315.918 256.886H315.147C315.147 256.886 315.143 256.886 315.143 256.878H309.25V250.844C309.25 250.638 309.29 250.435 309.368 250.245C309.447 250.055 309.562 249.883 309.707 249.737C309.852 249.592 310.024 249.477 310.214 249.398C310.404 249.319 310.607 249.278 310.813 249.278H313.81C314.225 249.279 314.622 249.445 314.915 249.738C315.208 250.031 315.373 250.429 315.372 250.844V256.878H315.918V256.886ZM326.132 259.949H325.361C325.359 259.949 325.357 259.948 325.355 259.947C325.354 259.945 325.353 259.943 325.353 259.941H326.132V259.949ZM401.161 237.537C401.22 237.696 401.251 237.865 401.25 238.035V241.609C401.253 241.759 401.228 241.908 401.179 242.049C401.147 242.172 401.094 242.287 401.022 242.391C401.09 242.285 401.143 242.17 401.179 242.049C401.222 241.908 401.245 241.761 401.245 241.613V238.034C401.245 237.864 401.217 237.696 401.161 237.535V237.537ZM397.776 225.152C397.774 225.102 397.778 225.053 397.788 225.004C397.792 224.962 397.8 224.918 397.804 224.88C397.831 224.731 397.883 224.588 397.956 224.455C397.998 224.371 398.052 224.292 398.115 224.221C398.132 224.201 398.15 224.182 398.17 224.163C398.185 224.142 398.203 224.124 398.224 224.109C398.248 224.077 398.277 224.049 398.31 224.027C398.341 224.001 398.374 223.977 398.408 223.955C398.426 223.94 398.446 223.925 398.466 223.913C398.511 223.884 398.559 223.86 398.61 223.841C398.704 223.788 398.807 223.751 398.913 223.732C398.964 223.718 399.016 223.71 399.069 223.705C399.123 223.697 399.178 223.693 399.233 223.693H399.276C399.288 223.692 399.3 223.694 399.311 223.697C399.344 223.696 399.376 223.699 399.409 223.705C399.461 223.71 399.513 223.718 399.564 223.732C399.672 223.752 399.776 223.789 399.872 223.841C399.923 223.86 399.971 223.884 400.016 223.913C400.039 223.926 400.061 223.94 400.083 223.955C400.113 223.979 400.141 224.003 400.172 224.027C400.207 224.048 400.238 224.076 400.261 224.109C400.284 224.121 400.303 224.14 400.316 224.163C400.335 224.183 400.355 224.206 400.37 224.221C400.398 224.251 400.422 224.284 400.442 224.319C400.468 224.352 400.492 224.387 400.514 224.424C400.529 224.459 400.553 224.495 400.569 224.529C400.584 224.563 400.599 224.607 400.619 224.646C400.627 224.689 400.646 224.728 400.654 224.766C400.689 224.892 400.706 225.022 400.705 225.152V228.722C400.704 228.867 400.684 229.012 400.646 229.152C400.627 229.203 400.612 229.246 400.596 229.288C400.58 229.331 400.545 229.394 400.518 229.44C400.49 229.487 400.455 229.534 400.42 229.584C400.38 229.645 400.333 229.701 400.28 229.751C400.248 229.785 400.213 229.817 400.175 229.845C400.139 229.876 400.103 229.903 400.062 229.93C400.02 229.957 399.98 229.981 399.941 230.008C399.902 230.036 399.855 230.051 399.813 230.066L399.676 230.117C399.631 230.132 399.586 230.144 399.54 230.152C399.536 230.152 399.524 230.16 399.52 230.16C399.473 230.164 399.43 230.172 399.391 230.175C399.344 230.185 399.296 230.189 399.248 230.187C399.198 230.187 399.143 230.18 399.096 230.175C399.05 230.171 399.015 230.164 398.975 230.16C398.911 230.149 398.849 230.132 398.788 230.109C398.753 230.094 398.717 230.082 398.679 230.066C398.642 230.051 398.593 230.028 398.551 230.008C398.508 229.989 398.469 229.957 398.43 229.93C398.39 229.903 398.358 229.876 398.317 229.845C398.244 229.788 398.179 229.722 398.122 229.65C398.057 229.575 398.002 229.493 397.958 229.405C397.937 229.367 397.918 229.328 397.903 229.288C397.888 229.245 397.869 229.202 397.853 229.159C397.837 229.116 397.826 229.066 397.814 229.019C397.801 228.973 397.799 228.918 397.794 228.871C397.788 228.846 397.786 228.82 397.787 228.794C397.783 228.77 397.782 228.746 397.783 228.722L397.776 225.152ZM398.673 242.955C398.584 242.92 398.5 242.875 398.423 242.819C398.347 242.764 398.275 242.704 398.208 242.64C398.175 242.607 398.145 242.572 398.118 242.534C398.068 242.476 398.024 242.414 397.986 242.348C397.951 242.294 397.922 242.236 397.9 242.176C397.862 242.088 397.832 241.997 397.81 241.904C397.79 241.808 397.78 241.71 397.779 241.611V238.034C397.777 237.984 397.781 237.935 397.791 237.886C397.795 237.843 397.803 237.801 397.806 237.761C397.817 237.699 397.834 237.638 397.857 237.578C397.872 237.54 397.885 237.501 397.9 237.469C397.916 237.426 397.939 237.384 397.959 237.337C398.093 237.089 398.298 236.886 398.547 236.753C398.588 236.729 398.631 236.708 398.676 236.691C398.714 236.674 398.753 236.66 398.793 236.648C398.793 236.648 398.804 236.648 398.808 236.648C398.851 236.636 398.894 236.62 398.944 236.609C398.994 236.597 399.042 236.593 399.093 236.585C399.117 236.583 399.141 236.583 399.165 236.585C399.19 236.582 399.216 236.58 399.242 236.581C399.29 236.58 399.338 236.582 399.386 236.589C399.424 236.597 399.467 236.601 399.514 236.608C399.529 236.609 399.543 236.611 399.557 236.616C399.592 236.628 399.629 236.64 399.67 236.651C399.721 236.667 399.764 236.683 399.807 236.698C399.851 236.716 399.894 236.737 399.935 236.76C400.1 236.849 400.246 236.968 400.366 237.111C400.413 237.177 400.464 237.243 400.51 237.313C400.556 237.383 400.581 237.461 400.615 237.543C400.622 237.578 400.642 237.614 400.65 237.659C400.667 237.721 400.68 237.783 400.689 237.847C400.697 237.911 400.7 237.976 400.701 238.041V241.612C400.701 241.76 400.678 241.907 400.635 242.049C400.594 242.168 400.542 242.282 400.478 242.391C400.455 242.43 400.428 242.462 400.406 242.493C400.368 242.547 400.324 242.597 400.274 242.64C400.207 242.706 400.135 242.766 400.058 242.819C399.982 242.876 399.898 242.922 399.809 242.956C399.722 242.994 399.63 243.023 399.536 243.041C399.441 243.065 399.342 243.076 399.244 243.076C399.144 243.076 399.045 243.065 398.948 243.041C398.854 243.023 398.762 242.994 398.675 242.955H398.673ZM405.247 257.997H399.121V251.418C399.121 251.213 399.162 251.009 399.241 250.82C399.32 250.63 399.436 250.458 399.581 250.313C399.727 250.168 399.9 250.053 400.09 249.975C400.281 249.897 400.484 249.858 400.69 249.858H403.69C404.104 249.859 404.501 250.024 404.793 250.317C405.085 250.61 405.249 251.006 405.249 251.419L405.247 257.997ZM409.625 241.611C409.629 241.805 409.595 241.998 409.524 242.178C409.452 242.359 409.346 242.523 409.21 242.662C409.074 242.801 408.912 242.911 408.733 242.986C408.554 243.061 408.362 243.1 408.168 243.1C407.973 243.1 407.781 243.061 407.602 242.986C407.423 242.911 407.261 242.801 407.125 242.662C406.99 242.523 406.883 242.359 406.812 242.178C406.74 241.998 406.706 241.805 406.71 241.611V238.034C406.706 237.84 406.74 237.647 406.812 237.467C406.883 237.286 406.99 237.122 407.125 236.983C407.261 236.844 407.423 236.734 407.602 236.659C407.781 236.584 407.973 236.545 408.168 236.545C408.362 236.545 408.554 236.584 408.733 236.659C408.912 236.734 409.074 236.844 409.21 236.983C409.346 237.122 409.452 237.286 409.524 237.467C409.595 237.647 409.629 237.84 409.625 238.034V241.611ZM409.625 228.722C409.629 228.916 409.595 229.109 409.524 229.289C409.452 229.469 409.346 229.634 409.21 229.772C409.074 229.911 408.912 230.021 408.733 230.097C408.554 230.172 408.362 230.211 408.168 230.211C407.973 230.211 407.781 230.172 407.602 230.097C407.423 230.021 407.261 229.911 407.125 229.772C406.99 229.634 406.883 229.469 406.812 229.289C406.74 229.109 406.706 228.916 406.71 228.722V225.152C406.706 224.958 406.74 224.765 406.812 224.585C406.883 224.405 406.99 224.24 407.125 224.102C407.261 223.963 407.423 223.853 407.602 223.778C407.781 223.702 407.973 223.664 408.168 223.664C408.362 223.664 408.554 223.702 408.733 223.778C408.912 223.853 409.074 223.963 409.21 224.102C409.346 224.24 409.452 224.405 409.524 224.585C409.595 224.765 409.629 224.958 409.625 225.152V228.722ZM418.557 251.804C418.549 252.186 418.391 252.55 418.117 252.818C417.843 253.086 417.475 253.236 417.092 253.236C416.709 253.236 416.341 253.086 416.067 252.818C415.793 252.55 415.635 252.186 415.627 251.804V248.233C415.635 247.851 415.793 247.487 416.067 247.219C416.341 246.951 416.709 246.802 417.092 246.802C417.475 246.802 417.843 246.951 418.117 247.219C418.391 247.487 418.549 247.851 418.557 248.233V251.804ZM418.557 228.722C418.549 229.104 418.391 229.469 418.117 229.736C417.843 230.004 417.475 230.154 417.092 230.154C416.709 230.154 416.341 230.004 416.067 229.736C415.793 229.469 415.635 229.104 415.627 228.722V225.152C415.622 224.957 415.657 224.763 415.729 224.582C415.8 224.401 415.908 224.235 416.044 224.096C416.181 223.957 416.344 223.846 416.524 223.77C416.704 223.695 416.897 223.656 417.092 223.656C417.287 223.656 417.481 223.695 417.66 223.77C417.84 223.846 418.003 223.957 418.14 224.096C418.276 224.235 418.384 224.401 418.455 224.582C418.527 224.763 418.562 224.957 418.557 225.152V228.722Z" fill="#CDD5DC"/>
<path d="M342.703 256.877H332.94V256.88H342.703V256.877Z" fill="#CDD5DC"/>
<path d="M382.25 256.877H371.817V256.88H382.25V256.877Z" fill="#CDD5DC"/>
</g>
<defs>
<clipPath id="clip0_338_1971">
<rect width="399" height="294" fill="white" transform="translate(50 29)"/>
</clipPath>
</defs>
</svg>
