<svg width="500" height="330" viewBox="0 0 500 330" fill="none" xmlns="http://www.w3.org/2000/svg">
<g clip-path="url(#clip0_337_1191)">
<path d="M312.49 127.197C266.55 127.197 231.016 164.401 231.016 210.297C231.016 256.193 395.668 256.193 395.668 210.297C395.668 164.401 358.43 127.197 312.49 127.197Z" fill="#FCE0D9"/>
<path d="M441.852 238.077H454.204C454.569 238.077 454.873 238.017 455.177 237.834H443.616C443.069 238.017 442.46 238.077 441.852 238.077Z" fill="#F0F5FA"/>
<path d="M106.765 208.655V211.634H103.419C99.4029 211.634 96.1172 214.917 96.1172 218.929V230.783C96.1172 234.795 99.4029 238.077 103.419 238.077H131.774C135.79 238.077 139.075 234.795 139.075 230.783V223.002H217.69V244.278H329.953V238.138H441.912C442.521 238.138 443.068 238.017 443.677 237.895H461.261C463.634 237.895 465.521 236.011 465.521 233.64V229.749C465.521 227.378 463.634 225.494 461.261 225.555H449.153V226.041H448.484V225.555H449.153V216.072C449.153 212.06 445.867 208.777 441.851 208.777H433.028V196.315C433.028 192.303 429.743 189.02 425.727 189.02H413.07V160.388C413.07 158.808 411.793 157.531 410.211 157.531H408.385V144.218C409.906 144.158 411.184 142.942 411.184 141.361V114.128C411.184 112.547 409.906 111.271 408.324 111.271H402.118C400.536 111.271 399.258 112.547 399.258 114.128V122.517H395.668C395.425 122.517 395.242 122.517 394.999 122.577V116.438C394.999 114.857 393.721 113.581 392.139 113.581H385.933C384.351 113.581 383.073 114.857 383.073 116.438V132.972H381.065C380.821 132.972 380.639 132.972 380.395 133.033V116.681C380.395 115.1 379.118 113.824 377.536 113.824H376.866C375.345 113.824 374.067 115.1 374.067 116.681V119.781C374.007 119.781 374.007 119.781 373.946 119.781H372.485V102.821C372.485 101.24 371.208 99.9637 369.625 99.9637H363.419C361.837 99.9637 360.559 101.24 360.559 102.821V148.535C359.099 148.656 358.004 149.872 358.004 151.331V189.02H344.009C339.993 189.02 336.707 192.303 336.707 196.315V208.777H335.247V208.655C335.247 206.284 333.361 204.4 330.987 204.4H308.717C309.022 203.792 309.204 203.123 309.204 202.455V192.364C309.204 189.993 307.318 188.108 304.945 188.108H279.572V185.251C279.572 182.881 277.685 180.996 275.312 180.996H266.55V157.227C266.55 155.89 265.455 154.796 264.116 154.796H263.265V139.112C263.265 136.741 261.378 134.857 259.005 134.857H254.32C253.955 134.857 253.59 134.857 253.225 134.978V122.152C253.225 120.815 252.129 119.72 250.791 119.72H244.402C243.063 119.72 241.968 120.815 241.968 122.152V131.331C240.69 131.878 239.838 133.155 239.838 134.553V168.777L234.971 168.899V143.915C234.971 141.908 233.328 140.328 231.381 140.328C231.076 140.328 230.711 140.328 230.407 140.45V139.842C230.407 138.991 230.103 138.2 229.616 137.592C228.399 136.073 226.148 135.83 224.627 137.045V134.431C224.627 133.398 224.14 132.365 223.349 131.696C222.558 130.845 221.402 130.358 220.246 130.358H215.925C213.552 130.358 211.666 132.243 211.666 134.614V138.991C211.484 139.416 211.362 139.902 211.362 140.389V142.152C210.814 141.848 210.267 141.726 209.658 141.726C209.171 141.726 208.624 141.848 208.137 142.091V140.206C208.137 138.2 206.494 136.62 204.547 136.62C202.539 136.62 200.957 138.261 200.957 140.206V143.124H199.01C196.637 143.124 194.751 145.009 194.751 147.38C194.69 147.562 194.69 147.805 194.69 148.048V170.723C193.108 170.966 191.891 172.242 191.708 173.884C191.526 173.823 191.404 173.823 191.221 173.823H187.997C187.753 173.823 187.51 173.823 187.327 173.884V160.692C187.327 158.686 185.684 157.106 183.737 157.106H183.676V150.297C183.676 148.717 182.642 147.319 181.121 146.893V143.915C181.121 141.908 179.478 140.328 177.531 140.328C175.523 140.328 173.941 141.969 173.941 143.915V151.088C171.994 151.148 170.472 152.729 170.472 154.674V180.996H168.465C166.092 180.996 164.205 182.881 164.205 185.251V188.108H136.216C133.842 188.108 131.956 189.993 131.956 192.364V202.455C131.956 203.123 132.139 203.792 132.443 204.4H111.025C108.652 204.4 106.765 206.284 106.765 208.655Z" fill="#F0F5FA"/>
<path d="M449.214 225.494H448.545V225.98H449.214V225.494Z" fill="#F0F5FA"/>
<path d="M449.214 225.494H448.545V225.98H449.214V225.494Z" fill="#F0F5FA"/>
<path d="M433.028 208.716C432.481 208.656 428.343 209.142 427.309 209.203C424.327 209.446 420.433 209.324 417.391 209.263C414.409 209.203 411.124 209.142 408.142 209.142C401.57 209.203 395.912 208.96 389.34 208.96C376.501 208.96 363.48 209.02 350.763 209.142C349.12 209.142 347.538 209.203 345.895 209.203C344.8 209.203 343.522 209.324 342.427 209.203C342.001 209.142 341.575 209.081 341.149 208.96C340.967 208.899 340.48 208.716 340.297 208.656C340.176 208.595 339.689 208.899 339.628 208.899C341.149 209.385 342.67 209.689 344.252 209.811C344.739 209.871 338.107 212.668 338.715 212.728C339.445 212.789 347.112 210.054 347.173 210.054C348.451 210.054 350.215 210.054 352.406 210.054C353.136 210.054 349.972 211.27 350.763 211.27C351.25 211.27 353.927 210.236 355.083 210.054C355.57 209.932 376.38 210.722 386.785 210.722C386.845 210.722 387.211 212.728 387.819 212.972C388.306 213.215 388.975 210.844 389.401 210.844C396.338 211.087 403.335 210.662 410.272 211.087C410.393 211.087 416.174 213.883 416.478 213.883C416.904 213.883 413.131 210.418 413.192 210.418C420.068 210.479 427.005 210.054 433.819 209.142C433.576 208.96 433.333 208.838 433.028 208.716Z" fill="#F8FAFD"/>
<path d="M431.568 197.409C428.709 199.537 394.512 198.26 379.848 197.652C372.242 197.348 364.697 197.348 357.091 197.409C353.197 197.409 350.946 197.592 347.052 197.592C343.34 197.531 342.671 195.464 341.575 196.072C341.454 196.133 341.332 196.193 341.332 196.376C341.149 196.558 342.001 197.592 343.097 198.807C343.462 199.172 337.438 203.671 337.924 203.974C338.655 204.461 344.739 200.023 345.835 200.023C347.234 200.023 348.634 200.084 350.033 200.084C350.398 200.084 347.903 201.908 348.269 201.968C348.634 202.029 351.372 200.084 351.737 200.084C361.472 200.084 375.102 198.382 384.838 200.266C385.203 200.327 384.899 203.792 385.264 203.914C385.568 204.035 386.907 200.266 387.272 200.266C394.817 200.266 407.047 202.029 413.436 201.847C413.558 201.847 416.235 204.035 417.33 204.826C417.391 204.886 417.513 204.947 417.574 204.947C417.939 204.947 415.748 201.908 415.87 201.908C417.574 201.968 432.846 199.051 433.394 198.503C433.394 198.503 431.812 197.227 431.568 197.409Z" fill="#F8FAFD"/>
<path d="M448.545 222.15C441.851 223.792 434.671 223.427 427.674 223.427C425.849 223.427 424.023 223.427 422.137 223.427C420.312 223.427 418.486 223.427 416.6 223.366C414.774 223.366 412.949 223.305 411.063 223.244C409.176 223.184 407.412 223.123 405.526 223.062C404.917 223.062 404.37 223.001 403.761 223.001C395.547 222.637 387.332 222.089 379.118 222.454C372.851 222.697 366.644 223.488 360.438 223.731C355.753 223.913 350.763 224.217 346.2 223.305C344.374 222.88 342.67 222.15 341.088 221.178C341.088 221.178 340.419 221.542 340.541 221.664C341.088 222.515 341.697 223.366 342.366 224.156C342.427 224.156 342.001 224.643 341.94 224.643C341.514 225.068 341.088 225.433 340.662 225.858C340.115 226.406 339.506 226.892 338.959 227.439C338.35 227.986 337.803 228.533 337.194 229.08C336.707 229.506 336.281 229.992 335.856 230.478C335.734 230.6 335.612 230.782 335.49 230.904C335.43 231.026 335.247 231.208 335.247 231.39C335.49 231.329 335.673 231.208 335.856 231.026C337.194 230.174 338.411 229.263 339.689 228.351C340.784 227.561 341.758 226.649 342.914 225.919C343.705 225.433 345.043 224.703 345.591 224.764C345.895 224.825 347.356 225.007 348.633 225.129C348.938 225.19 345.774 228.108 346.017 228.168C346.2 228.168 349.911 225.311 350.094 225.311C351.493 225.494 352.893 225.554 354.231 225.554C357.395 225.676 360.56 225.554 363.724 225.372C370.113 225.007 376.502 224.339 382.89 224.278C385.994 224.278 389.949 224.703 393.052 224.703C393.356 224.703 392.869 231.877 393.295 231.998C393.721 232.12 394.999 224.825 395.121 224.825C397.859 224.825 403.944 225.554 406.682 225.676C413.253 225.98 420.798 225.858 427.37 225.676C427.796 225.676 432.298 230.357 432.664 230.357C433.394 230.357 429.378 225.615 429.743 225.615C433.576 225.372 439.722 225.676 443.555 225.007C446.354 224.399 446.963 223.792 449.153 222.758C449.275 222.637 448.605 222.15 448.545 222.15Z" fill="#F8FAFD"/>
<path d="M309.753 206.102C309.388 205.798 308.962 205.616 308.536 205.494C307.745 205.433 301.417 206.041 299.835 206.163C295.21 206.467 289.369 206.284 284.744 206.223C280.242 206.163 275.313 206.041 270.75 206.041C260.831 206.041 252.252 205.737 242.273 205.737C222.802 205.737 203.087 205.859 183.738 205.98C181.304 205.98 178.809 206.041 176.375 206.041C174.672 206.041 172.785 206.163 171.082 206.041C170.412 205.98 169.804 205.859 169.195 205.737C168.891 205.676 168.222 205.433 167.918 205.372C167.735 205.372 166.944 205.737 166.883 205.737C169.195 206.406 171.508 206.771 173.881 206.953C174.672 207.014 164.51 210.843 165.484 210.904C166.579 210.965 178.201 207.318 178.323 207.318C180.209 207.318 182.947 207.318 186.233 207.318C187.267 207.318 182.46 208.959 183.677 208.959C184.407 208.959 188.484 207.561 190.249 207.318C191.04 207.196 222.558 208.229 238.318 208.229C238.44 208.229 238.987 210.843 239.9 211.208C240.691 211.451 241.665 208.29 242.334 208.29C252.86 208.655 263.509 208.047 274.035 208.655C274.218 208.655 282.98 212.424 283.406 212.424C284.075 212.424 278.416 207.804 278.477 207.804C294.784 207.926 309.813 206.163 309.753 206.102Z" fill="#F8FAFD"/>
<path d="M310.786 224.703C310.786 224.703 307.805 223.427 307.379 223.609C302.085 225.737 237.709 224.46 210.206 223.852C195.968 223.548 181.669 223.548 167.43 223.609C160.19 223.609 155.869 223.792 148.629 223.792C141.631 223.731 140.414 221.664 138.284 222.272C138.041 222.333 137.859 222.454 137.676 222.576C137.311 222.758 138.893 223.792 140.962 225.007C141.631 225.372 130.374 229.871 131.287 230.175C132.626 230.661 144.004 226.223 146.073 226.223C148.75 226.223 151.367 226.284 153.983 226.284C154.652 226.284 149.967 228.108 150.636 228.168C151.367 228.229 156.539 226.284 157.208 226.284C175.523 226.284 201.079 224.582 219.394 226.466C220.002 226.527 219.455 229.992 220.185 230.114C220.793 230.235 223.349 226.466 223.957 226.466C238.135 226.466 261.135 228.229 273.183 228.047C273.426 228.047 278.416 230.235 280.485 231.026C280.667 231.086 280.789 231.147 280.971 231.147C281.701 231.147 277.564 228.108 277.807 228.108C281.032 228.168 309.752 225.251 310.786 224.703Z" fill="#F8FAFD"/>
<path d="M279.815 189.81C279.511 189.567 279.207 189.324 278.842 189.202C278.233 189.081 273.122 189.75 271.783 189.871C268.011 190.175 263.204 189.993 259.431 189.932C255.72 189.871 251.704 189.75 247.992 189.75C239.839 189.75 232.841 189.446 224.688 189.446C208.806 189.446 192.682 189.506 176.862 189.689C174.854 189.689 172.846 189.75 170.838 189.75C169.377 189.81 167.978 189.81 166.518 189.75C166.031 189.689 165.483 189.567 164.936 189.506C164.692 189.385 164.145 189.202 163.901 189.081C163.779 189.02 163.11 189.446 163.049 189.446C164.936 190.114 166.822 190.54 168.769 190.722C169.377 190.783 161.102 194.734 161.893 194.795C162.745 194.856 172.237 191.026 172.359 191.026C173.88 191.026 176.131 191.026 178.809 191.026C179.721 191.026 175.766 192.728 176.74 192.728C177.348 192.728 180.634 191.33 182.094 191.026C182.764 190.905 208.502 191.999 221.402 191.999C221.523 191.999 221.949 194.734 222.74 195.099C223.41 195.342 224.201 192.06 224.748 192.06C233.389 192.424 242.029 191.816 250.669 192.424C250.791 192.424 257.971 196.376 258.336 196.376C258.823 196.376 254.198 191.573 254.259 191.573C267.585 191.756 279.876 189.871 279.815 189.81Z" fill="#F8FAFD"/>
<path d="M368.652 106.711V106.772C368.591 106.954 368.591 107.137 368.53 107.319C368.53 107.623 368.469 107.988 368.409 108.292C368.287 109.386 368.226 110.419 368.287 111.514C368.348 112 368.287 112.486 368.165 112.912C368.165 112.972 368.104 113.033 368.104 113.033H368.044C367.618 112.851 367.009 112.486 367.009 113.459C366.948 121.483 366.887 129.507 366.827 137.531V140.571V142.638C366.827 143.61 366.401 143.428 365.792 143.489C365.731 143.489 365.671 143.489 365.61 143.55C365.549 143.671 365.549 143.732 365.549 143.854C365.549 144.644 365.731 145.434 365.975 146.224C366.157 146.893 366.462 147.44 366.705 148.109C367.435 150.297 366.948 154.552 366.948 157.045C366.948 158.625 366.827 160.145 366.827 161.726C366.887 162.881 366.948 164.096 367.131 165.251C367.253 165.13 367.496 164.826 367.435 164.583C367.557 164.826 367.618 165.008 367.678 165.251C368.165 162.698 367.922 160.084 367.922 157.47C367.922 155.1 368.104 152.729 368.165 150.358C368.165 149.932 368.226 149.446 368.348 149.021C368.53 148.656 368.591 148.23 368.652 147.866C368.591 147.622 368.53 147.44 368.469 147.197C367.983 145.616 368.287 143.489 368.287 141.787L368.348 138.565L368.409 134.857L368.469 130.845L368.53 126.711L368.591 122.577L368.652 118.626L368.713 115.039C368.774 113.945 368.774 112.851 368.835 111.757C368.895 110.906 368.895 109.994 368.895 109.143C368.895 108.717 368.895 108.292 368.895 107.866C368.895 107.501 368.835 107.137 368.713 106.772C368.713 106.711 368.652 106.711 368.652 106.711Z" fill="#F8FAFD"/>
<path d="M378.814 121.665C378.996 120.693 378.935 119.72 378.874 118.747C378.874 118.626 378.814 118.504 378.692 118.443C378.083 118.079 378.144 121.179 378.083 121.726C377.231 141.726 377.84 161.847 378.266 181.847C378.266 182.394 378.327 182.941 378.509 183.488C379.483 178.99 379.483 173.64 379.544 168.899C379.605 163.792 379.483 158.625 379.361 153.519L378.814 121.665Z" fill="#F8FAFD"/>
<path d="M391.531 118.991C391.531 119.234 391.47 119.477 391.47 119.659C391.409 120.024 391.409 120.328 391.348 120.693C391.226 121.848 391.166 122.942 391.226 124.097C391.287 124.583 391.287 125.07 391.166 125.556C391.166 125.617 391.105 125.678 391.105 125.678H391.044C390.74 125.556 390.253 125.131 390.253 126.164C390.131 134.614 390.131 143.063 390.07 151.513V154.735V156.863C390.07 157.896 389.766 157.714 389.279 157.774C389.218 157.835 389.158 157.835 389.158 157.896C389.097 158.018 389.097 158.078 389.097 158.2C389.097 159.051 389.218 159.902 389.401 160.692C389.523 161.422 389.766 162.03 389.949 162.698C390.496 165.069 390.131 169.507 390.131 172.121C390.131 173.762 390.009 175.403 390.009 177.045C390.009 177.166 390.131 180.631 390.253 180.753C390.435 180.51 390.557 180.145 390.435 179.72C390.557 180.023 390.618 180.327 390.679 180.631C391.044 177.957 390.861 175.16 390.861 172.425C390.861 169.932 390.983 167.44 391.044 164.948C391.044 164.461 391.105 164.036 391.166 163.549C391.287 163.124 391.409 162.759 391.409 162.334C391.409 162.091 391.348 161.847 391.287 161.604C390.922 159.902 391.166 157.714 391.166 155.89L391.226 152.486L391.287 148.595L391.348 144.401L391.409 140.024L391.47 135.647L391.531 131.513L391.591 127.744C391.591 126.589 391.652 125.434 391.652 124.279C391.713 123.368 391.713 122.456 391.713 121.544C391.713 121.058 391.713 120.632 391.713 120.207C391.713 119.842 391.713 119.416 391.531 118.991C391.531 118.991 391.591 118.991 391.531 118.991Z" fill="#F8FAFD"/>
<path d="M398.407 134.674C398.467 133.945 398.407 133.215 398.346 132.547C398.346 132.486 398.285 132.364 398.224 132.303C397.737 131.999 397.798 134.309 397.737 134.735C397.068 149.568 397.555 164.461 397.92 179.294C397.92 179.719 397.981 180.084 398.102 180.509C398.893 177.166 398.893 173.215 398.954 169.689C399.015 165.859 398.893 162.09 398.833 158.261L398.407 134.674Z" fill="#F8FAFD"/>
<path d="M390.862 114.979C389.827 114.735 388.732 114.675 387.698 114.796C387.15 114.857 386.602 114.796 386.055 114.614C385.568 114.492 385.142 114.31 384.594 114.614C384.29 114.918 384.108 115.283 384.168 115.708C383.925 118.869 384.473 122.091 384.534 125.252C384.594 126.893 384.594 128.535 384.473 130.176C384.412 130.358 384.412 130.541 384.412 130.784C384.412 130.784 384.534 131.453 384.838 130.054C385.02 129.021 385.081 127.927 385.02 126.893C385.081 125.07 385.142 123.307 385.203 121.483C385.264 120.085 385.325 118.626 385.507 117.228C385.568 116.802 385.507 116.012 385.994 115.769C386.116 115.708 386.237 115.708 386.359 115.708C387.454 115.708 388.549 115.769 389.645 115.89C390.131 115.951 390.618 115.951 391.044 115.951C391.47 115.89 391.957 115.769 392.383 115.647C392.2 115.283 391.348 115.1 390.862 114.979Z" fill="#F8FAFD"/>
<path d="M403.396 112.729C402.909 112.729 402.423 112.729 401.936 112.608C401.51 112.486 401.084 112.486 400.658 112.608C400.415 112.729 400.232 113.033 400.232 113.276C400.05 115.222 400.536 117.228 400.597 119.234C400.658 120.267 400.597 121.301 400.536 122.334C400.476 122.456 400.475 122.577 400.475 122.699C400.475 122.699 400.536 123.124 400.841 122.273C400.962 121.604 401.023 120.936 401.023 120.328C401.084 119.234 401.084 118.079 401.206 116.984C401.267 116.073 401.327 115.222 401.51 114.31C401.571 114.067 401.51 113.519 401.936 113.398C402.058 113.398 402.179 113.337 402.301 113.337C403.274 113.337 404.248 113.337 405.222 113.459C405.647 113.519 406.073 113.519 406.499 113.519C406.925 113.459 407.29 113.398 407.655 113.337C407.29 113.033 406.804 112.851 406.256 112.851C405.343 112.729 404.37 112.668 403.396 112.729Z" fill="#F8FAFD"/>
<path d="M368.531 101.362C367.496 101.119 366.401 101.058 365.367 101.18C364.819 101.241 364.271 101.18 363.724 100.997C363.237 100.876 362.811 100.693 362.263 100.997C361.959 101.301 361.777 101.666 361.837 102.092C361.594 105.253 362.142 108.475 362.202 111.636C362.263 113.277 362.263 114.918 362.142 116.56C362.081 116.742 362.081 116.924 362.081 117.167C362.081 117.167 362.202 117.836 362.507 116.438C362.689 115.405 362.75 114.31 362.689 113.277C362.75 111.453 362.811 109.69 362.872 107.867C362.933 106.468 362.993 105.01 363.176 103.611C363.237 103.186 363.176 102.396 363.663 102.152C363.784 102.092 363.906 102.092 364.028 102.092C365.123 102.092 366.218 102.152 367.314 102.274C367.8 102.335 368.287 102.335 368.713 102.335C369.139 102.274 369.626 102.152 370.052 102.031C369.869 101.727 368.957 101.484 368.531 101.362Z" fill="#F8FAFD"/>
<path d="M406.317 160.206C405.769 160.145 405.404 160.328 405.404 159.294V157.167V153.945C405.343 145.495 405.282 137.045 405.222 128.596C405.222 127.562 404.674 127.988 404.309 128.109H404.248C404.248 128.109 404.187 128.048 404.187 127.988C404.066 127.501 404.066 127.015 404.066 126.529C404.126 125.374 404.065 124.279 403.944 123.124C403.883 122.76 403.883 122.456 403.822 122.091C403.822 121.909 403.761 121.666 403.7 121.483V121.422C403.7 121.422 403.64 121.422 403.64 121.483C403.518 121.848 403.457 122.273 403.457 122.638C403.457 123.064 403.457 123.489 403.457 123.976C403.457 124.887 403.457 125.799 403.518 126.711C403.579 127.866 403.579 129.021 403.64 130.176L403.7 133.945L403.761 138.079L403.822 142.456L403.883 146.832L403.944 151.027L404.005 154.917L404.066 158.322C404.066 160.145 404.37 162.334 403.883 164.036C403.822 164.279 403.761 164.522 403.761 164.765C403.822 165.191 403.883 165.556 404.066 165.981C404.187 166.467 404.187 166.893 404.187 167.379C404.248 169.872 404.37 172.364 404.431 174.856C404.431 177.592 404.248 180.388 404.674 183.063C404.735 182.881 404.796 182.637 404.857 182.455C404.857 182.759 405.039 183.124 405.161 183.184C405.282 183.063 405.465 179.598 405.465 179.476C405.465 177.835 405.343 176.194 405.343 174.552C405.343 171.938 404.917 167.501 405.526 165.13C405.708 164.461 406.013 163.793 406.195 163.124C406.439 162.334 406.56 161.483 406.56 160.632C406.56 160.51 406.56 160.449 406.499 160.328C406.439 160.267 406.378 160.206 406.317 160.206Z" fill="#F8FAFD"/>
<path d="M261.439 138.079C261.5 137.653 261.317 137.288 261.013 136.984C260.465 136.68 260.04 136.863 259.553 136.984C259.005 137.167 258.457 137.227 257.91 137.167C256.875 137.045 255.78 137.106 254.746 137.349C254.259 137.471 253.407 137.714 253.225 138.018C253.651 138.139 254.137 138.261 254.563 138.322C254.989 138.322 255.476 138.322 255.963 138.261C257.058 138.139 258.153 138.079 259.249 138.079C259.37 138.079 259.492 138.079 259.614 138.139C260.1 138.382 260.04 139.173 260.1 139.598C260.283 140.996 260.344 142.455 260.405 143.854C260.465 145.677 260.526 147.44 260.587 149.264C260.526 150.297 260.587 151.391 260.77 152.425C261.074 153.823 261.196 153.154 261.196 153.154C261.196 152.911 261.196 152.729 261.135 152.546C261.013 150.905 261.013 149.264 261.074 147.622C261.135 144.461 261.682 141.24 261.439 138.079Z" fill="#F8FAFD"/>
<path d="M252.19 121.665C252.19 121.301 252.069 120.875 251.764 120.571C251.339 120.267 250.913 120.45 250.426 120.571C249.939 120.754 249.452 120.814 248.905 120.754C247.87 120.632 246.836 120.693 245.862 120.936C245.436 121.057 244.585 121.24 244.28 121.605C244.706 121.726 245.132 121.848 245.558 121.909C245.984 121.969 246.471 121.909 246.897 121.848C247.931 121.726 249.026 121.665 250.061 121.665C250.182 121.665 250.304 121.665 250.426 121.726C250.913 121.969 250.852 122.76 250.913 123.185C251.095 124.583 251.156 126.042 251.217 127.44C251.278 129.264 251.339 131.027 251.399 132.851C251.399 133.884 251.46 134.978 251.582 136.012C251.886 137.41 251.947 136.741 251.947 136.741C251.947 136.498 251.947 136.316 251.886 136.133C251.764 134.492 251.764 132.851 251.825 131.209C251.886 128.048 252.373 124.826 252.19 121.665Z" fill="#F8FAFD"/>
<path d="M222.923 132.911C222.923 132.547 222.801 132.121 222.497 131.817C222.071 131.513 221.645 131.696 221.158 131.817C220.671 132 220.185 132.06 219.637 132C218.603 131.878 217.568 131.939 216.595 132.182C216.108 132.304 215.317 132.547 215.013 132.851C215.439 132.972 215.865 133.094 216.29 133.155C216.716 133.155 217.203 133.155 217.629 133.094C218.664 132.972 219.759 132.911 220.793 132.911C220.915 132.911 221.037 132.911 221.158 132.972C221.645 133.215 221.584 134.006 221.645 134.431C221.828 135.829 221.888 137.288 221.949 138.686C222.01 140.51 222.071 142.273 222.132 144.097C222.132 145.13 222.132 146.224 222.314 147.258C222.619 148.656 222.679 147.987 222.679 147.987C222.679 147.744 222.679 147.562 222.619 147.379C222.497 145.738 222.497 144.097 222.558 142.455C222.619 139.294 223.105 136.072 222.923 132.911Z" fill="#F8FAFD"/>
<path d="M264.481 156.255C263.934 156.255 263.325 156.437 262.778 156.68L260.709 157.592C260.648 157.592 260.526 157.714 260.344 157.774C259.918 157.957 259.431 158.139 258.944 158.443C259.249 158.443 259.492 158.382 259.796 158.321C260.77 158.139 261.804 157.896 262.778 157.653C264.299 157.349 264.238 162.516 264.603 163.124C264.968 163.732 265.09 163.428 265.09 163.428C265.09 163.428 264.542 161.847 265.394 158.017C265.516 157.592 265.516 157.166 265.394 156.802C265.333 156.559 265.151 156.255 264.481 156.255Z" fill="#F8FAFD"/>
<path d="M232.902 141.787C232.415 141.787 231.928 141.969 231.563 142.212L229.981 143.124C229.92 143.124 229.799 143.246 229.677 143.307C229.312 143.55 229.008 143.732 228.643 143.975C228.886 143.975 229.129 143.914 229.312 143.854C230.103 143.671 230.894 143.428 231.624 143.185C232.78 142.881 232.719 148.048 233.024 148.656C233.328 149.264 233.389 148.96 233.389 148.96C233.389 148.96 232.963 147.379 233.632 143.55C233.754 143.124 233.754 142.699 233.632 142.334C233.51 141.969 233.206 141.787 232.902 141.787Z" fill="#F8FAFD"/>
<path d="M182.034 148.656C181.669 148.656 181.304 148.838 180.999 149.081L179.782 149.993C179.722 149.993 179.661 150.115 179.539 150.176C179.296 150.358 179.052 150.54 178.748 150.844C178.931 150.844 179.052 150.784 179.235 150.723C179.843 150.54 180.391 150.297 180.999 150.054C181.912 149.75 181.851 154.917 182.095 155.525C182.338 156.133 182.399 155.829 182.399 155.829C182.399 155.829 182.095 154.249 182.581 150.419C182.642 149.993 182.642 149.568 182.581 149.203C182.581 148.899 182.338 148.656 182.034 148.656Z" fill="#F8FAFD"/>
<path d="M185.015 159.355C184.65 159.355 184.285 159.538 183.981 159.781L182.764 160.693C182.703 160.693 182.642 160.814 182.521 160.875C182.277 161.118 181.973 161.3 181.729 161.544C181.912 161.544 182.034 161.483 182.216 161.422C182.825 161.24 183.372 160.997 183.981 160.753C184.894 160.449 184.833 165.617 185.076 166.224C185.319 166.832 185.38 166.528 185.38 166.528C185.38 166.528 185.076 164.948 185.563 161.118C185.624 160.693 185.624 160.267 185.563 159.902C185.563 159.598 185.319 159.355 185.015 159.355Z" fill="#F8FAFD"/>
<path d="M199.801 144.218C199.436 144.218 199.071 144.401 198.767 144.644L197.55 145.556C197.489 145.556 197.428 145.677 197.307 145.738C197.063 145.921 196.82 146.164 196.516 146.407C196.698 146.407 196.82 146.346 197.002 146.285C197.611 146.103 198.158 145.86 198.767 145.617C199.68 145.313 199.619 150.48 199.862 151.088C200.106 151.696 200.166 151.392 200.166 151.392C200.166 151.392 199.862 149.811 200.349 145.981C200.41 145.556 200.41 145.13 200.349 144.766C200.349 144.462 200.106 144.218 199.801 144.218Z" fill="#F8FAFD"/>
<path d="M217.69 140.571C217.751 140.024 217.751 139.355 217.629 138.747C217.629 138.686 217.568 138.565 217.447 138.565C216.777 138.322 216.838 140.388 216.838 140.692C215.986 153.823 216.595 167.014 217.082 180.145C217.082 180.509 217.142 180.874 217.325 181.178C218.359 178.26 218.359 174.674 218.42 171.573C218.481 168.23 218.359 164.826 218.238 161.482L217.69 140.571Z" fill="#F8FAFD"/>
<path d="M228.825 149.386C228.825 149.446 228.825 149.446 228.825 149.386C228.764 149.568 228.764 149.69 228.703 149.811C228.703 150.054 228.642 150.237 228.581 150.48C228.46 151.209 228.399 151.939 228.46 152.668C228.521 152.972 228.46 153.276 228.338 153.58C228.338 153.641 228.277 153.641 228.216 153.641C227.79 153.519 227.182 153.276 227.182 153.945C227.121 159.416 227.06 164.826 226.999 170.297V172.364V173.762C226.939 174.492 226.574 174.309 225.965 174.37C225.904 174.37 225.843 174.37 225.783 174.431C225.722 174.492 225.722 174.552 225.722 174.613C225.722 175.221 225.904 175.768 226.148 176.255C226.33 176.68 226.634 177.106 226.878 177.531C227.608 179.051 227.121 181.908 227.121 183.61C227.121 184.643 226.999 185.738 226.999 186.771C227.06 187.622 227.121 188.412 227.304 189.203C227.425 189.081 227.669 188.899 227.608 188.656C227.73 188.838 227.851 189.081 227.851 189.142C228.338 187.44 228.095 185.616 228.095 183.853C228.095 182.273 228.277 180.631 228.338 179.051C228.338 178.747 228.399 178.443 228.521 178.139C228.642 177.835 228.825 177.653 228.825 177.349C228.764 177.166 228.703 176.984 228.642 176.862C228.156 175.768 228.46 174.309 228.46 173.154L228.521 170.966L228.581 168.473L228.642 165.738L228.703 162.942L228.764 160.145L228.825 157.471L228.886 155.039C228.947 154.249 228.947 153.519 229.007 152.79C229.068 152.182 229.068 151.635 229.068 151.027C229.068 150.723 229.068 150.48 229.068 150.176C229.068 149.933 229.007 149.69 228.825 149.386C228.825 149.386 228.886 149.386 228.825 149.386Z" fill="#F8FAFD"/>
<path d="M247.445 131.391C247.384 130.601 247.323 129.811 247.323 129.081C247.323 129.021 247.262 128.899 247.262 128.838C246.958 128.534 246.958 130.966 246.958 131.391C246.532 147.136 246.836 163.002 247.08 178.746C247.08 179.172 247.08 179.597 247.202 180.023C247.688 176.497 247.688 172.242 247.749 168.534C247.81 164.522 247.688 160.449 247.688 156.437L247.445 131.391Z" fill="#F8FAFD"/>
<path d="M254.625 143.914C254.564 143.367 254.564 142.759 254.503 142.091C254.503 142.03 254.442 141.908 254.381 141.908C253.895 141.665 253.956 143.732 253.956 144.036C253.347 157.166 253.773 170.358 254.138 183.488C254.138 183.853 254.199 184.218 254.321 184.522C255.051 181.604 255.051 178.017 255.112 174.917C255.172 171.573 255.051 168.169 254.99 164.826L254.625 143.914Z" fill="#F8FAFD"/>
<path d="M205.46 149.325C205.46 148.839 205.46 148.352 205.399 147.805C205.399 147.744 205.338 147.684 205.277 147.623C204.79 147.44 204.851 149.082 204.851 149.325C204.243 159.781 204.668 170.297 205.034 180.753C205.034 181.057 205.094 181.361 205.216 181.604C205.946 179.233 205.946 176.437 206.007 174.005C206.068 171.331 205.946 168.656 205.885 165.981L205.46 149.325Z" fill="#F8FAFD"/>
<path d="M205.825 137.714C205.46 137.714 205.095 137.896 204.79 138.139L203.573 139.051L203.33 139.234C203.087 139.416 202.782 139.659 202.539 139.902C202.722 139.902 202.843 139.841 203.026 139.781C203.634 139.598 204.182 139.355 204.79 139.112C205.703 138.808 205.642 143.975 205.886 144.583C206.129 145.191 206.19 144.887 206.19 144.887C206.19 144.887 205.886 143.306 206.372 139.477C206.433 139.051 206.433 138.626 206.372 138.261C206.372 137.957 206.129 137.714 205.825 137.714Z" fill="#F8FAFD"/>
<path d="M197.245 149.933C197.306 149.629 197.306 149.264 197.245 148.899C197.245 148.838 197.184 148.778 197.123 148.778C196.698 148.656 196.758 149.75 196.698 149.933C196.15 157.106 196.576 164.34 196.819 171.513C196.819 171.695 196.88 171.938 197.002 172.121C197.671 170.54 197.671 168.595 197.732 166.893C197.793 165.069 197.671 163.185 197.61 161.361L197.245 149.933Z" fill="#F8FAFD"/>
<path d="M178.626 156.923C178.809 156.437 178.809 155.89 178.687 155.343C178.687 155.282 178.626 155.221 178.566 155.161C178.14 154.978 178.2 156.68 178.2 156.984C177.653 168.23 178.079 179.476 178.322 190.722C178.322 191.026 178.383 191.33 178.444 191.634C179.113 189.142 179.113 186.102 179.113 183.428C179.174 180.571 179.052 177.653 178.991 174.796L178.626 156.923Z" fill="#F8FAFD"/>
<path d="M173.88 154.796C174.002 154.31 174.002 153.762 173.941 153.215C173.941 153.154 173.88 153.094 173.819 153.033C173.394 152.851 173.454 154.553 173.454 154.857C172.907 166.103 173.333 177.349 173.576 188.595C173.576 188.899 173.637 189.203 173.698 189.507C174.367 187.014 174.367 183.975 174.367 181.3C174.428 178.443 174.306 175.525 174.245 172.668L173.88 154.796Z" fill="#F8FAFD"/>
<path d="M228.035 138.383C227.548 138.383 227.122 138.444 226.696 138.565L225.114 138.991C225.053 138.991 224.931 138.991 224.81 139.052C224.445 139.112 223.836 139.295 223.775 139.416C224.019 139.416 224.201 139.416 224.445 139.355C225.236 139.234 226.027 139.173 226.757 139.052C227.913 138.869 227.852 141.24 228.156 141.483C228.461 141.726 228.521 141.605 228.521 141.605C228.521 141.605 228.096 140.875 228.765 139.173C228.887 138.991 228.887 138.808 228.765 138.626C228.704 138.504 228.582 138.383 228.035 138.383Z" fill="#F8FAFD"/>
<path d="M178.565 141.787C178.2 141.787 177.835 141.908 177.531 142.091L176.314 142.82C176.253 142.82 176.192 142.881 176.07 142.942C175.827 143.124 175.523 143.246 175.279 143.367C175.462 143.367 175.584 143.367 175.766 143.307C176.375 143.124 176.922 142.942 177.531 142.759C178.443 142.516 178.383 146.407 178.626 146.893C178.869 147.379 178.93 147.136 178.93 147.136C178.93 147.136 178.626 145.981 179.113 143.063C179.174 142.759 179.174 142.456 179.113 142.152C179.052 141.908 178.808 141.787 178.565 141.787Z" fill="#F8FAFD"/>
<path d="M377.719 116.559L376.441 115.647C376.137 115.404 375.771 115.222 375.346 115.222C375.041 115.222 374.798 115.465 374.737 115.769C374.676 116.134 374.676 116.559 374.737 116.985C375.285 120.814 374.92 122.395 374.92 122.395C374.92 122.395 374.98 122.699 375.224 122.091C375.467 121.483 375.406 116.316 376.319 116.62C376.928 116.863 377.536 117.106 378.205 117.289C378.388 117.349 378.57 117.41 378.753 117.41C378.449 117.167 378.205 116.985 377.962 116.741C377.84 116.681 377.779 116.559 377.719 116.559Z" fill="#F8FAFD"/>
<path d="M465.886 241.664H443.129V240.934C443.129 238.259 440.939 236.071 438.262 236.071H436.741V234.734C436.741 232.059 434.55 229.871 431.873 229.871H429.317C428.404 228.533 426.883 227.682 425.24 227.682H423.78C423.05 225.858 421.224 224.582 419.216 224.582H413.74C411.063 224.582 408.872 226.77 408.872 229.445V230.357C407.412 230.661 406.134 231.573 405.465 232.91C404.735 232.424 403.822 232.181 402.909 232.181H391.835V230.843C391.835 228.472 390.071 226.406 387.698 226.041V225.494C387.698 222.941 385.811 220.874 383.317 220.631C382.708 218.503 380.822 216.983 378.571 216.983H367.375C364.697 216.983 362.507 219.172 362.507 221.846V225.98H348.634C345.956 225.98 343.766 228.168 343.766 230.843V235.949H335.552C333.726 235.949 332.083 236.983 331.231 238.563H327.033C325.025 238.563 323.2 239.84 322.469 241.724C322.409 241.846 322.409 241.968 322.348 242.089H293.324C292.898 239.718 290.89 238.016 288.517 238.016H257.18V236.253C257.18 233.579 254.99 231.39 252.312 231.39H234.728V229.567C234.728 226.892 232.537 224.703 229.86 224.703H220.429V224.643C220.429 222.089 218.481 219.962 215.926 219.779C215.987 219.536 215.987 219.354 215.987 219.111C215.987 216.436 213.796 214.248 211.119 214.248H210.328C209.476 212.849 207.894 211.938 206.19 211.938H199.193C197.489 211.938 195.968 212.789 195.055 214.248H191.952C189.275 214.248 187.084 216.436 187.084 219.111C187.084 219.293 187.084 219.415 187.084 219.597C184.833 219.658 182.947 221.299 182.521 223.548C181.851 223.184 181.121 223.001 180.33 223.001H178.383V218.017C178.383 215.646 176.619 213.579 174.245 213.214V212.667C174.245 210.114 172.359 208.047 169.864 207.804C169.256 205.676 167.37 204.157 165.118 204.157H153.923C151.245 204.157 149.055 206.345 149.055 209.02V213.153H135.182C132.504 213.153 130.314 215.342 130.314 218.017V223.123H122.099C120.274 223.123 118.631 224.156 117.779 225.737H113.581C110.904 225.737 108.713 227.925 108.713 230.6V231.329H98.0647C95.3875 231.329 93.197 233.518 93.197 236.193V237.956H85.8344C84.3741 237.956 83.0355 238.563 82.1228 239.658H80.5407C78.7762 239.658 77.1941 240.569 76.3423 242.028H57.723C56.0193 242.028 54.6807 243.366 54.6807 245.068V252.97C54.6807 254.673 56.0193 256.01 57.723 256.01H95.3875V268.776C95.3875 270.478 96.7261 271.815 98.4298 271.815H425.666C427.37 271.815 428.709 270.478 428.709 268.776V255.706H465.947C466.373 255.706 466.86 255.645 467.286 255.524C469.355 254.916 470.815 253.031 470.815 250.843V246.588C470.815 243.852 468.624 241.724 465.886 241.664Z" fill="#E1E7F0"/>
<path d="M428.708 255.646V256.01H465.581C466.19 256.01 466.798 255.828 467.285 255.463C466.859 255.585 466.433 255.646 465.947 255.646H428.708V255.646Z" fill="#E1E7F0"/>
<path d="M309.752 242.09H322.408C322.469 241.968 322.469 241.846 322.53 241.725H311.517C310.908 241.725 310.3 241.846 309.752 242.09Z" fill="#E1E7F0"/>
<path d="M350.763 232.242L348.694 229.628C348.329 229.142 347.66 228.351 346.99 228.412C346.321 228.473 346.138 229.324 346.078 229.871C345.956 230.965 345.956 232.12 346.078 233.275C346.929 244.157 346.382 248.533 346.382 248.533C346.382 248.533 346.504 249.385 346.869 247.622C347.234 245.859 347.173 231.148 348.694 232.181C349.668 232.85 350.702 233.518 351.676 234.126C351.919 234.248 352.284 234.491 352.527 234.43C351.98 233.883 351.554 233.336 351.128 232.728C350.945 232.485 350.824 232.303 350.763 232.242Z" fill="#F0F5FA"/>
<path d="M440.513 240.509L438.444 239.597C437.896 239.354 437.288 239.172 436.74 239.172C436.071 239.172 435.888 239.476 435.828 239.719C435.706 240.083 435.706 240.509 435.828 240.934C436.679 244.764 436.132 246.345 436.132 246.345C436.132 246.345 436.254 246.649 436.619 246.041C436.984 245.433 436.923 240.266 438.444 240.57C439.418 240.813 440.452 241.056 441.426 241.238C441.73 241.299 441.973 241.36 442.277 241.36C441.791 241.117 441.304 240.934 440.878 240.691C440.695 240.631 440.574 240.509 440.513 240.509Z" fill="#F0F5FA"/>
<path d="M338.046 238.138C337.377 238.138 336.707 238.138 336.038 238.077C335.43 237.956 334.882 237.956 334.274 238.077C333.848 238.199 333.787 238.381 333.726 238.624C333.482 240.083 334.091 241.603 334.213 243.062C334.274 243.852 334.274 244.643 334.091 245.372C334.091 245.433 333.969 245.554 334.03 245.676C334.03 245.676 334.152 245.98 334.517 245.311C334.699 244.825 334.76 244.339 334.76 243.852C334.821 243.001 334.882 242.15 335.004 241.36C335.065 240.691 335.186 240.023 335.43 239.354C335.49 239.172 335.43 238.746 336.038 238.685C336.221 238.685 336.342 238.624 336.525 238.685C337.863 238.685 339.263 238.685 340.602 238.807C341.21 238.807 341.758 238.868 342.366 238.868C342.488 238.868 344.07 238.746 344.009 238.746C343.34 238.381 342.67 238.26 342.001 238.26C340.662 238.138 339.385 238.138 338.046 238.138Z" fill="#F0F5FA"/>
<path d="M396.155 233.822C395.486 233.822 394.817 233.822 394.147 233.762C393.539 233.64 392.991 233.64 392.383 233.762C391.957 233.883 391.896 234.065 391.835 234.309C391.592 235.768 392.2 237.287 392.322 238.746C392.383 239.537 392.383 240.327 392.2 241.056C392.2 241.117 392.079 241.239 392.139 241.36C392.139 241.36 392.261 241.664 392.626 240.995C392.809 240.509 392.87 240.023 392.87 239.537C392.93 238.685 392.991 237.834 393.113 237.044C393.174 236.375 393.296 235.707 393.539 235.038C393.6 234.856 393.539 234.43 394.147 234.369C394.33 234.369 394.452 234.369 394.634 234.369C395.973 234.369 397.372 234.369 398.711 234.491C399.319 234.491 399.867 234.552 400.476 234.552C400.597 234.552 402.179 234.43 402.118 234.43C401.449 234.065 400.78 233.944 400.11 233.944C398.772 233.822 397.494 233.822 396.155 233.822Z" fill="#F0F5FA"/>
<path d="M167.552 207.439C167.613 206.892 167.369 206.406 167.004 206.041C166.396 205.677 165.848 205.859 165.24 206.041C164.57 206.224 163.901 206.284 163.232 206.224C161.893 206.102 160.554 206.224 159.277 206.467C158.668 206.649 157.634 206.892 157.269 207.379C157.816 207.561 158.364 207.683 158.911 207.743C159.52 207.804 160.068 207.743 160.676 207.683C162.015 207.5 163.414 207.439 164.753 207.439C164.935 207.439 165.057 207.439 165.24 207.5C165.848 207.743 165.787 208.716 165.848 209.263C166.091 211.026 166.213 212.789 166.274 214.552C166.396 216.74 166.456 218.989 166.517 221.178C166.517 222.454 166.578 223.792 166.761 225.068C167.126 226.831 167.247 225.98 167.247 225.98C167.247 225.737 167.247 225.494 167.187 225.251C167.004 223.245 167.004 221.178 167.065 219.172C167.187 215.281 167.795 211.33 167.552 207.439Z" fill="#F0F5FA"/>
<path d="M214.344 216.74C213.796 216.68 213.37 217.47 213.066 217.956L211.545 220.57C211.545 220.631 211.423 220.813 211.302 221.057C210.997 221.604 210.632 222.212 210.328 222.759C210.511 222.819 210.754 222.576 210.937 222.455C211.667 221.847 212.397 221.178 213.127 220.509C214.222 219.476 214.162 234.187 214.466 235.95C214.77 237.713 214.831 236.862 214.831 236.862C214.831 236.862 214.405 232.485 215.013 221.604C215.074 220.449 215.074 219.354 215.013 218.199C214.953 217.652 214.831 216.801 214.344 216.74Z" fill="#F0F5FA"/>
<path d="M114.919 229.263C114.371 229.263 113.763 229.445 113.215 229.689L111.146 230.6C111.086 230.6 110.964 230.722 110.781 230.783C110.355 230.965 109.869 231.148 109.382 231.452C109.686 231.452 109.929 231.391 110.234 231.33C111.207 231.148 112.242 230.904 113.215 230.661C114.736 230.357 114.676 235.524 115.041 236.132C115.406 236.74 115.527 236.436 115.527 236.436C115.527 236.436 114.98 234.856 115.832 231.026C115.953 230.6 115.953 230.175 115.832 229.81C115.771 229.567 115.588 229.263 114.919 229.263Z" fill="#F0F5FA"/>
<path d="M146.681 216.132C146.681 215.889 146.56 215.707 146.134 215.585C145.525 215.464 144.978 215.464 144.369 215.585C143.7 215.646 143.031 215.646 142.361 215.646C141.023 215.646 139.745 215.646 138.406 215.768C137.737 215.768 137.068 215.889 136.398 216.254C136.337 216.254 137.919 216.376 138.041 216.376C138.65 216.376 139.197 216.315 139.806 216.315C141.144 216.193 142.544 216.193 143.882 216.193C144.065 216.132 144.187 216.193 144.369 216.193C144.978 216.254 144.917 216.68 144.978 216.862C145.221 217.531 145.343 218.199 145.404 218.868C145.525 219.658 145.586 220.509 145.647 221.36C145.647 221.847 145.708 222.333 145.89 222.819C146.255 223.488 146.377 223.184 146.377 223.184C146.438 223.062 146.316 222.941 146.316 222.88C146.134 222.151 146.134 221.36 146.195 220.57C146.316 219.111 146.925 217.591 146.681 216.132Z" fill="#F0F5FA"/>
<path d="M175.827 215.099C175.28 215.099 174.671 215.281 174.123 215.524L172.055 216.436C171.994 216.436 171.872 216.558 171.69 216.618C171.203 216.862 170.412 217.226 170.29 217.287C170.594 217.287 170.838 217.226 171.142 217.166C172.115 216.983 173.15 216.74 174.123 216.497C175.645 216.193 175.584 221.36 175.949 221.968C176.314 222.576 176.436 222.272 176.436 222.272C176.436 222.272 175.888 220.691 176.74 216.862C176.862 216.436 176.862 216.011 176.74 215.646C176.679 215.403 176.496 215.099 175.827 215.099Z" fill="#F0F5FA"/>
<path d="M194.203 215.524C193.838 215.524 193.412 215.585 193.108 215.767L191.83 216.315C191.769 216.315 191.709 216.375 191.587 216.436C191.344 216.558 191.039 216.679 190.796 216.801C190.978 216.801 191.161 216.801 191.344 216.74C192.013 216.619 192.621 216.436 193.23 216.315C194.142 216.132 194.082 219.354 194.325 219.719C194.568 220.084 194.629 219.901 194.629 219.901C194.629 219.901 194.264 218.929 194.812 216.558C194.873 216.315 194.873 216.071 194.812 215.828C194.751 215.707 194.629 215.524 194.203 215.524Z" fill="#F0F5FA"/>
<path d="M207.894 214.916C207.954 214.369 207.711 213.883 207.346 213.518C206.737 213.153 206.19 213.336 205.581 213.518C204.912 213.701 204.243 213.761 203.573 213.701C202.235 213.579 200.896 213.701 199.618 213.944C199.01 214.126 197.915 214.369 197.61 214.856C198.158 215.038 198.706 215.16 199.253 215.22C199.862 215.281 200.409 215.22 201.018 215.16C202.356 214.977 203.756 214.916 205.095 214.916C205.277 214.916 205.399 214.916 205.581 214.977C206.19 215.22 206.129 216.193 206.19 216.74C206.433 218.503 206.555 220.266 206.616 222.029C206.737 224.217 206.798 226.466 206.859 228.655C206.859 229.931 206.92 231.269 207.103 232.545C207.468 234.308 207.589 233.457 207.589 233.457C207.589 233.214 207.589 232.971 207.528 232.728C207.346 230.722 207.346 228.655 207.407 226.649C207.528 222.758 208.137 218.807 207.894 214.916Z" fill="#F0F5FA"/>
<path d="M232.902 227.074C232.902 226.71 232.72 226.406 232.355 226.223C231.807 226.041 231.138 226.041 230.59 226.223C229.921 226.345 229.251 226.345 228.582 226.345C227.244 226.284 225.905 226.345 224.627 226.527C224.079 226.588 222.984 226.77 222.619 227.135C223.775 227.378 224.87 227.439 226.027 227.317C227.365 227.196 228.765 227.135 230.103 227.135C230.286 227.135 230.408 227.135 230.59 227.196C231.199 227.378 231.138 227.986 231.199 228.351C231.442 229.445 231.564 230.6 231.625 231.694C231.746 233.092 231.807 234.491 231.868 235.889C231.868 236.74 231.929 237.591 232.111 238.381C232.476 239.475 232.598 238.928 232.598 238.928C232.659 238.746 232.537 238.564 232.537 238.442C232.355 237.165 232.355 235.828 232.416 234.551C232.537 232.059 233.146 229.567 232.902 227.074Z" fill="#F0F5FA"/>
<path d="M253.286 234.004C253.225 233.761 253.103 233.518 252.434 233.396C251.582 233.275 250.669 233.275 249.757 233.396C248.783 233.457 247.749 233.457 246.714 233.457C244.706 233.457 242.698 233.457 240.69 233.579C239.656 233.64 238.682 233.761 237.587 234.065C237.526 234.126 239.899 234.247 240.082 234.247C240.995 234.247 241.846 234.247 242.759 234.187C244.828 234.065 246.897 234.065 249.026 234.065C249.27 234.065 249.513 234.126 249.757 234.126C250.669 234.187 250.548 234.612 250.669 234.855C250.973 235.585 251.217 236.314 251.278 237.105C251.46 238.016 251.521 238.989 251.643 239.901C251.704 240.448 251.582 240.995 252.008 241.542C252.616 242.272 252.799 241.907 252.799 241.907C252.86 241.846 252.677 241.664 252.677 241.603C252.495 240.752 252.434 239.84 252.556 238.989C252.677 237.348 253.712 235.646 253.286 234.004Z" fill="#F0F5FA"/>
<path d="M433.211 233.214L431.142 232.302C430.595 232.059 429.986 231.877 429.439 231.877C428.769 231.877 428.587 232.181 428.526 232.424C428.404 232.789 428.404 233.214 428.526 233.64C429.378 237.469 428.83 239.05 428.83 239.05C428.83 239.05 428.952 239.354 429.317 238.746C429.682 238.138 429.621 232.971 431.142 233.275C432.116 233.518 433.15 233.761 434.185 233.944C434.489 234.004 434.732 234.065 435.036 234.065C434.489 233.822 434.002 233.579 433.576 233.397C433.394 233.336 433.272 233.214 433.211 233.214Z" fill="#F0F5FA"/>
<path d="M329.71 242.393L327.641 241.481C327.094 241.238 326.485 241.056 325.938 241.056C325.268 241.056 325.086 241.36 325.025 241.603C324.903 241.968 324.903 242.393 325.025 242.819C325.877 246.649 325.329 248.229 325.329 248.229C325.329 248.229 325.451 248.533 325.816 247.925C326.181 247.317 326.12 242.15 327.641 242.454C328.615 242.697 329.649 242.94 330.623 243.123C330.927 243.184 331.17 243.244 331.475 243.244C331.353 243.184 330.562 242.819 330.075 242.576C329.893 242.515 329.771 242.393 329.71 242.393Z" fill="#F0F5FA"/>
<path d="M420.737 227.196C419.46 226.953 418.121 226.832 416.782 226.953C416.113 227.014 415.444 226.953 414.774 226.771C414.166 226.588 413.618 226.406 413.01 226.771C412.645 227.136 412.401 227.622 412.462 228.169C412.219 232.059 412.827 236.011 412.949 239.901C413.01 241.907 413.01 243.974 412.827 245.98C412.766 246.223 412.766 246.467 412.766 246.71C412.766 246.71 412.888 247.561 413.253 245.798C413.436 244.521 413.497 243.184 413.497 241.907C413.557 239.719 413.618 237.47 413.74 235.281C413.801 233.518 413.923 231.756 414.166 229.993C414.227 229.446 414.166 228.473 414.774 228.23C414.957 228.169 415.079 228.169 415.261 228.169C416.6 228.169 417.999 228.23 419.338 228.412C419.946 228.473 420.494 228.534 421.103 228.473C421.65 228.412 422.198 228.291 422.745 228.108C422.38 227.622 421.285 227.318 420.737 227.196Z" fill="#F0F5FA"/>
<path d="M161.346 218.99C160.676 218.929 160.007 219.719 159.642 220.206L157.573 222.82C157.512 222.88 157.391 223.063 157.208 223.306C156.782 223.914 156.356 224.461 155.809 225.008C156.052 225.069 156.417 224.826 156.66 224.704C157.634 224.096 158.668 223.427 159.642 222.759C161.163 221.725 161.102 236.436 161.467 238.199C161.832 239.962 161.954 239.111 161.954 239.111C161.954 239.111 161.407 234.734 162.258 223.853C162.38 222.698 162.38 221.543 162.258 220.449C162.198 219.902 162.015 219.051 161.346 218.99Z" fill="#F0F5FA"/>
<path d="M198.036 223.67C197.367 223.609 196.698 224.4 196.333 224.886L194.264 227.5C194.203 227.561 194.081 227.743 193.899 227.986C193.473 228.594 193.047 229.141 192.438 229.688C192.682 229.749 193.047 229.506 193.29 229.384C194.325 228.776 195.359 228.108 196.333 227.439C197.854 226.406 197.793 241.117 198.158 242.88C198.523 244.642 198.645 243.791 198.645 243.791C198.645 243.791 198.097 239.415 198.949 228.533C199.071 227.378 199.071 226.223 198.949 225.129C198.888 224.582 198.706 223.731 198.036 223.67Z" fill="#F0F5FA"/>
<path d="M141.874 223.731C141.205 223.67 140.535 224.461 140.17 224.947L138.101 227.561C138.041 227.622 137.919 227.804 137.736 228.047C137.31 228.655 136.885 229.263 136.337 229.749C136.58 229.81 136.945 229.567 137.189 229.445C138.162 228.838 139.197 228.169 140.17 227.5C141.691 226.467 141.631 241.178 141.996 242.941C142.361 244.704 142.482 243.853 142.482 243.853C142.482 243.853 141.935 239.476 142.787 228.594C142.908 227.439 142.908 226.284 142.787 225.19C142.726 224.643 142.543 223.792 141.874 223.731Z" fill="#F0F5FA"/>
<path d="M134.816 251.694C134.025 251.694 133.295 251.816 132.565 252.12L129.888 253.031C129.827 253.031 129.644 253.153 129.401 253.214C128.793 253.457 127.758 253.822 127.697 253.882C128.062 253.882 128.427 253.822 128.793 253.761C130.131 253.579 131.409 253.335 132.687 253.092C134.634 252.727 134.451 257.955 134.999 258.563C135.547 259.171 135.668 258.867 135.668 258.867C135.668 258.867 134.938 257.287 136.033 253.457C136.216 253.031 136.216 252.606 136.033 252.241C135.912 251.998 135.729 251.694 134.816 251.694Z" fill="#F0F5FA"/>
<path d="M311.212 247.864C310.665 247.743 310.178 247.5 309.752 247.256C305.615 244.642 315.411 243.427 316.81 243.244H316.871C317.236 243.244 317.601 243.062 317.845 242.819C317.48 242.576 317.054 242.454 316.689 242.454C314.316 242.332 312.003 242.515 309.691 242.88C307.562 243.184 305.31 243.487 303.424 244.582C302.816 244.886 302.39 245.433 302.207 246.101C301.72 248.229 304.519 249.141 305.919 249.992C308.657 251.755 304.763 254.916 295.696 254.247C295.514 254.247 294.784 254.126 293.688 254.004V254.186C297.461 254.673 301.355 255.159 305.31 255.828C308.657 256.192 311.152 256.557 311.578 256.557C313.768 256.74 316.019 256.679 318.21 256.253C318.94 254.734 319.062 252.849 317.662 250.6C316.628 248.837 313.038 248.411 311.212 247.864Z" fill="#B4BBBF"/>
<path d="M381.248 251.633C322.834 251.633 277.686 263.244 277.686 277.651C277.686 292.058 486.939 292.058 486.939 277.651C486.939 263.305 439.661 251.633 381.248 251.633Z" fill="#F8FAFD"/>
<path d="M413.375 278.867C413.253 278.806 413.131 278.746 412.949 278.685H412.888C411.184 278.077 409.42 277.53 407.716 277.044C406.012 276.557 404.248 276.01 402.544 275.524C399.988 274.794 397.372 274.126 394.816 273.457C394.999 273.457 395.182 273.457 395.364 273.457C396.398 273.518 397.433 273.579 398.528 273.761C399.623 273.943 400.719 274.065 401.814 274.247C402.301 274.43 402.909 274.186 403.153 273.7L403.213 273.639C403.213 273.639 403.213 273.639 403.213 273.579C403.274 272.971 402.666 272.241 401.814 271.998C400.658 271.633 399.502 271.329 398.285 271.025C397.129 270.721 395.912 270.478 394.695 270.235C394.086 270.114 393.478 270.053 392.869 269.931C392.565 269.87 392.261 269.87 391.957 269.81C391.652 269.749 391.287 269.749 390.983 269.749C390.679 269.749 390.314 269.749 390.009 269.749C389.644 269.749 389.279 269.81 388.914 269.81C388.488 269.87 388.062 269.992 387.636 270.174C387.332 270.296 387.089 270.478 386.906 270.721C386.845 270.782 386.785 270.843 386.724 270.965C386.663 271.025 386.602 271.147 386.602 271.208C386.541 271.269 386.541 271.39 386.48 271.512C384.959 271.147 383.438 270.843 381.917 270.539C380.213 270.174 378.449 269.87 376.745 269.506C375.893 269.323 375.041 269.202 374.189 269.08C373.337 268.959 372.486 268.837 371.634 268.715C371.025 268.655 370.538 268.898 370.478 269.323C370.478 269.384 370.478 269.384 370.478 269.445V269.506C370.599 270.114 371.086 270.539 371.634 270.721C372.486 271.025 373.337 271.329 374.25 271.633C374.311 271.633 374.372 271.633 374.372 271.694C377.292 272.788 381.552 274.004 385.933 275.159C386.115 275.585 386.42 275.949 386.724 276.314C388.062 277.773 390.74 279.414 394.086 280.934C394.877 281.299 395.607 281.603 396.338 281.846C397.372 282.271 398.346 282.697 399.38 283.062C399.867 283.305 400.414 283.244 400.84 282.94C401.205 282.879 401.266 282.697 401.266 282.515C401.266 282.454 401.266 282.454 401.205 282.454C401.449 282.15 401.145 281.724 400.658 281.36C400.536 281.238 400.354 281.116 400.171 280.995C399.867 280.813 399.563 280.691 399.258 280.509C398.224 279.961 397.189 279.354 396.216 278.806C398.163 279.354 400.11 279.84 402.118 280.205C402.848 280.387 403.578 280.569 404.309 280.691C404.735 280.813 405.16 280.752 405.465 280.509C405.586 280.509 405.647 280.448 405.769 280.448C405.83 280.387 405.891 280.265 405.83 280.205C405.83 280.144 405.891 280.083 405.83 280.083L405.769 280.022C405.769 279.961 405.769 279.901 405.769 279.84C406.012 279.901 406.256 279.961 406.499 279.961C407.959 280.205 409.602 280.509 411.002 280.63C411.671 280.752 412.34 280.873 413.01 280.934C413.375 280.995 413.74 280.934 413.983 280.691C414.227 280.387 414.288 280.265 414.227 280.144C414.348 279.658 413.922 279.171 413.375 278.867Z" fill="#B4BBBF"/>
<path d="M373.215 208.108C373.033 204.279 372.789 200.51 372.485 196.68C372.181 192.85 371.877 189.081 371.329 185.252C371.086 183.549 369.565 182.394 367.861 182.577C366.644 182.759 365.549 183.853 365.366 185.252C364.879 189.081 364.514 192.85 364.21 196.68C363.906 200.51 363.662 204.279 363.48 208.108C363.115 215.707 362.932 223.367 362.871 230.965C362.811 238.564 362.932 246.223 363.297 253.822C363.48 257.652 363.723 261.421 364.027 265.251C364.21 267.135 364.393 269.08 364.575 270.965C364.758 272.849 365.001 274.794 365.305 276.679C365.549 278.381 367.131 279.536 368.834 279.232C370.173 279.05 371.207 277.956 371.39 276.679C371.694 274.794 371.938 272.849 372.12 270.965C372.303 269.08 372.485 267.135 372.668 265.251C372.972 261.421 373.215 257.652 373.398 253.822C373.763 246.223 373.885 238.564 373.824 230.965C373.763 223.367 373.581 215.707 373.215 208.108Z" fill="#87D72F"/>
<path d="M379.726 206.893C378.022 206.953 376.684 208.291 376.562 209.993C376.319 212.424 376.075 214.795 375.649 217.227C375.223 219.658 374.798 221.968 374.25 224.218C373.946 225.373 373.641 226.467 373.276 227.561C372.972 228.594 372.546 229.628 372.12 230.601C371.938 231.087 371.694 231.512 371.451 231.877C371.39 232.059 371.268 232.181 371.208 232.303C368.774 233.032 366.948 235.342 366.948 238.017C366.948 241.299 369.626 243.974 372.911 243.974C373.581 243.974 374.189 243.853 374.858 243.67C375.163 243.609 375.467 243.488 375.71 243.366C376.014 243.245 376.197 243.123 376.44 243.002C377.231 242.576 377.901 242.029 378.57 241.421C379.361 240.57 380.03 239.597 380.578 238.564C380.943 237.774 381.308 236.983 381.612 236.132C381.856 235.342 382.099 234.613 382.282 233.944C382.647 232.546 382.89 231.148 383.073 229.749C383.255 228.412 383.438 227.014 383.499 225.677C383.681 223.002 383.742 220.388 383.742 217.774C383.742 215.16 383.56 212.607 383.377 209.993C383.255 208.108 381.612 206.71 379.726 206.893ZM370.538 233.093C370.477 233.093 370.477 233.093 370.538 233.093C370.66 232.911 370.782 232.85 370.903 232.728C370.842 232.789 370.842 232.789 370.782 232.85C370.721 232.911 370.66 233.032 370.538 233.093Z" fill="#87D72F"/>
<path d="M379.727 206.893C377.962 207.075 385.507 224.035 371.938 238.078C371.451 238.564 371.147 245.129 374.859 243.609C375.163 243.549 375.467 243.427 375.711 243.306C376.015 243.184 376.198 243.062 376.441 242.941C377.232 242.515 377.901 241.968 378.571 241.36C379.362 240.509 380.031 239.537 380.578 238.503C380.944 237.713 381.309 236.923 381.613 236.072C381.856 235.281 382.1 234.552 382.282 233.883C382.647 232.485 382.891 231.087 383.073 229.689C383.256 228.351 383.438 226.953 383.499 225.677C383.682 223.002 383.743 220.388 383.743 217.774C383.743 215.16 383.56 212.546 383.377 209.993C383.195 208.108 381.552 206.71 379.727 206.893Z" fill="#4A8D00"/>
<path d="M379.422 206.832C379.3 206.832 379.178 206.953 379.178 207.075C379.361 221.239 376.866 227.439 372.485 233.275C372.424 233.397 372.424 233.518 372.546 233.579C372.546 233.64 372.607 233.64 372.668 233.64C372.729 233.64 372.79 233.579 372.85 233.579C378.753 225.737 379.848 217.895 379.665 207.075C379.665 206.953 379.544 206.832 379.422 206.832Z" fill="#CAF995"/>
<path d="M379.483 206.832C379.362 206.832 379.301 206.953 379.301 207.075C381.309 218.625 379.118 227.804 372.729 235.159C372.668 235.281 372.668 235.403 372.729 235.463C372.729 235.524 372.79 235.524 372.851 235.524C372.912 235.524 372.973 235.524 373.033 235.463C379.544 228.047 381.735 218.746 379.727 207.014C379.727 206.892 379.605 206.832 379.483 206.832Z" fill="#CAF995"/>
<path d="M379.544 206.771C379.423 206.71 379.301 206.771 379.24 206.893C378.449 208.412 378.206 210.601 377.962 213.336C377.476 218.078 376.745 224.643 372.486 231.816C372.425 231.938 372.486 232.06 372.547 232.12C372.547 232.181 372.608 232.181 372.669 232.181C372.73 232.181 372.851 232.12 372.851 232.06C377.171 224.826 377.841 218.2 378.388 213.397C378.693 210.722 378.875 208.595 379.666 207.075C379.727 206.953 379.666 206.832 379.544 206.771Z" fill="#CAF995"/>
<path d="M379.24 206.892C377.11 208.047 376.806 210.418 376.38 214.309C375.832 220.266 374.494 226.102 372.303 231.695C372.242 231.816 372.303 231.938 372.425 231.998C372.486 231.938 372.486 231.938 372.547 231.938C372.668 231.938 372.729 231.877 372.729 231.816C374.92 226.223 376.319 220.327 376.867 214.37C377.293 210.601 377.536 208.351 379.483 207.257C379.605 207.196 379.605 207.075 379.544 206.953C379.483 206.832 379.361 206.832 379.24 206.892Z" fill="#CAF995"/>
<path d="M373.338 208.23C373.155 204.4 372.912 200.631 372.607 196.801C372.303 192.972 371.938 189.203 371.451 185.373C371.208 183.61 369.93 181.969 368.044 182.455C367.861 182.516 367.983 183.306 367.983 183.488C374.007 246.831 367.253 279.597 368.957 279.353C370.295 279.171 371.33 278.077 371.512 276.8C371.816 274.916 372.06 272.971 372.242 271.086C372.425 269.202 372.607 267.256 372.79 265.372C373.094 261.542 373.338 257.773 373.52 253.943C373.885 246.345 374.007 238.746 373.946 231.087C373.885 223.427 373.703 215.889 373.338 208.23Z" fill="#4A8D00"/>
<path d="M367.983 182.455C367.861 182.455 367.739 182.577 367.739 182.698C368.348 193.944 369.2 221.421 368.287 278.989C368.348 279.171 368.409 279.293 368.53 279.293C368.652 279.293 368.774 279.171 368.774 279.05C369.686 221.421 368.835 193.944 368.226 182.698C368.226 182.577 368.104 182.455 367.983 182.455Z" fill="#CAF995"/>
<path d="M366.705 225.251C366.766 201.421 367.557 183.732 368.226 182.82C368.287 182.698 368.287 182.577 368.165 182.516C368.044 182.455 367.922 182.455 367.861 182.577C367.435 183.185 367.07 187.805 366.766 196.315C366.462 204.339 366.279 214.856 366.279 225.312C366.218 235.16 366.279 268.229 368.409 279.11C368.348 279.11 368.469 279.171 368.53 279.171C368.713 279.171 368.774 279.05 368.774 278.928C367.374 271.633 366.583 251.512 366.705 225.251Z" fill="#CAF995"/>
<path d="M368.591 278.989C366.218 276.193 364.636 258.868 364.515 233.822C364.393 210.905 365.549 190.054 367.253 184.34C367.618 183.063 367.922 182.881 367.983 182.881C368.105 182.82 368.165 182.698 368.105 182.577C368.044 182.455 367.922 182.395 367.8 182.455C367.374 182.577 367.07 183.124 366.766 184.218C365.306 189.142 363.906 207.805 364.028 233.822C364.089 243.366 364.515 274.977 368.166 279.293C368.287 279.354 368.348 279.354 368.409 279.354C368.531 279.354 368.652 279.232 368.652 279.111C368.652 279.05 368.652 278.989 368.591 278.989Z" fill="#CAF995"/>
<path d="M368.287 278.928C367.922 278.989 367.496 278.746 367.131 278.138C363.906 273.153 362.872 249.02 362.993 229.932C363.115 205.738 364.88 186.528 367.253 183.306C367.618 182.82 367.922 182.881 367.983 182.881C368.104 182.942 368.226 182.82 368.287 182.698C368.348 182.577 368.226 182.455 368.104 182.394C367.678 182.273 367.253 182.455 366.887 183.002C365.305 185.191 364.271 193.276 363.723 199.719C362.993 208.048 362.567 218.807 362.507 229.932C362.385 249.08 363.419 273.275 366.705 278.381C366.948 278.867 367.496 279.293 368.104 279.354C368.165 279.354 368.287 279.354 368.348 279.354C368.47 279.354 368.53 279.232 368.53 279.11C368.53 278.989 368.409 278.928 368.287 278.928Z" fill="#CAF995"/>
<path d="M371.512 233.032H368.165V242.758H371.512V233.032Z" fill="#4A8D00"/>
<path d="M366.462 233.883C366.34 233.761 366.279 233.7 366.158 233.579C365.854 233.275 365.549 232.91 365.184 232.485C364.515 231.634 363.906 230.722 363.298 229.81C362.689 228.837 362.081 227.865 361.533 226.831C360.438 224.764 359.404 222.637 358.43 220.387C357.457 218.138 356.605 215.889 355.814 213.64C355.205 211.877 353.258 210.904 351.494 211.512C349.851 212.12 348.877 213.701 349.181 215.342C349.607 217.895 350.094 220.448 350.763 222.941C351.433 225.433 352.102 227.986 352.954 230.539C353.38 231.816 353.867 233.092 354.353 234.369C354.901 235.706 355.509 236.983 356.179 238.199C356.544 238.867 356.909 239.536 357.335 240.205C357.822 240.934 358.308 241.603 358.917 242.272C359.647 243.123 360.56 243.913 361.533 244.521C362.264 245.007 363.115 245.311 363.967 245.554C364.211 245.615 364.515 245.676 364.819 245.737C365.123 245.797 365.428 245.797 365.732 245.797C366.401 245.797 367.01 245.737 367.679 245.615C370.904 244.825 372.79 241.542 371.999 238.381C371.33 235.706 369.018 234.004 366.462 233.883ZM367.314 234.551C367.192 234.491 367.131 234.43 367.01 234.369C366.949 234.308 366.888 234.247 366.827 234.187C367.01 234.247 367.131 234.369 367.314 234.551C367.375 234.612 367.375 234.551 367.314 234.551Z" fill="#87D72F"/>
<path d="M368.227 238.807C368.227 238.807 367.862 238.32 367.557 237.895C366.888 236.983 366.219 235.95 365.61 234.855C364.332 232.667 362.994 230.175 361.838 227.804C359.525 223.123 357.639 218.503 355.631 213.579C354.962 211.816 353.319 210.296 351.859 211.512C348.634 214.248 359.039 245.129 363.481 245.311C365.306 245.919 372.669 245.615 371.817 243.123C370.965 240.63 368.166 238.807 368.227 238.807Z" fill="#4A8D00"/>
<path d="M369.808 232.12C369.747 231.938 369.687 231.694 369.626 231.512C369.321 230.479 369.017 229.263 368.774 227.986C368.287 225.494 367.922 222.941 367.618 220.327C367.009 215.16 366.644 209.871 366.401 204.582C366.34 202.698 364.758 201.239 362.872 201.361C361.107 201.3 359.708 202.759 359.647 204.522C359.403 209.932 359.343 215.403 359.525 220.874C359.647 223.609 359.768 226.406 360.073 229.202C360.255 230.6 360.438 232.059 360.742 233.579C360.925 234.43 361.168 235.281 361.411 236.132C361.472 236.375 361.594 236.618 361.716 236.922C361.776 237.044 361.837 237.226 361.959 237.348L362.081 237.591L362.142 237.713L362.202 237.834C362.263 237.956 362.324 238.017 362.385 238.138C362.446 238.26 362.567 238.381 362.628 238.442L362.689 238.503L362.75 238.624L362.933 238.807C362.993 238.868 363.054 238.928 363.115 238.989C363.176 239.05 363.237 239.111 363.358 239.232C363.48 239.354 363.48 239.354 363.602 239.415C363.724 239.476 363.784 239.597 363.906 239.658C364.028 239.719 364.089 239.779 364.271 239.901C364.454 240.023 364.575 240.083 364.697 240.144C365.001 240.327 365.366 240.448 365.732 240.509C365.914 240.57 366.157 240.57 366.34 240.631C366.523 240.631 366.766 240.691 367.009 240.691C369.626 240.691 371.755 238.503 371.755 235.889C371.695 234.308 370.964 232.971 369.808 232.12ZM368.044 231.269C367.679 231.208 367.314 231.147 366.948 231.087C367.314 231.147 367.679 231.208 368.044 231.269ZM370.113 232.849C370.113 232.849 370.113 232.849 370.113 232.91C370.052 232.849 370.052 232.789 370.113 232.849C370.052 232.728 369.991 232.667 369.991 232.606C370.052 232.667 370.052 232.667 370.052 232.728C370.052 232.789 370.113 232.789 370.113 232.849Z" fill="#87D72F"/>
<path d="M368.835 227.865C368.348 225.372 367.983 222.819 367.679 220.205C367.07 215.038 366.705 209.749 366.462 204.461C366.401 202.576 364.819 201.117 362.932 201.239C361.046 201.3 361.776 227.561 367.192 241.117C367.679 242.332 370.964 238.746 371.208 238.32C372.06 236.497 371.877 234.369 370.66 232.728C369.565 231.147 369.2 229.688 368.835 227.865Z" fill="#4A8D00"/>
<path d="M372.79 236.436H369.261V244.035H372.79V236.436Z" fill="#4A8D00"/>
<path d="M367.01 240.57C364.393 237.53 362.446 229.931 361.777 219.719C361.229 211.391 361.716 203.245 362.811 201.603C362.872 201.482 362.872 201.36 362.75 201.3C362.629 201.239 362.507 201.239 362.446 201.36C361.229 203.123 360.742 211.208 361.351 219.78C361.655 224.703 362.872 236.557 366.705 240.934C366.766 240.934 366.827 240.934 366.888 240.934C366.949 240.934 367.01 240.934 367.01 240.873C367.131 240.813 367.131 240.63 367.01 240.57Z" fill="#CAF995"/>
<path d="M366.827 240.448C364.21 239.597 362.142 233.701 361.107 224.278C360.255 216.376 360.438 207.5 361.472 203.549C361.837 202.212 362.263 201.482 362.689 201.604C362.811 201.604 362.933 201.543 362.933 201.421C362.933 201.3 362.872 201.178 362.75 201.178C362.02 201.057 361.472 201.786 361.046 203.488C360.012 207.561 359.829 216.376 360.681 224.4C362.081 237.591 365.062 240.448 366.705 240.995C366.705 240.874 366.766 240.934 366.766 240.934C366.888 240.934 367.009 240.813 367.009 240.691C367.009 240.57 366.948 240.509 366.827 240.448Z" fill="#CAF995"/>
<path d="M367.801 244.217C365.245 245.676 362.75 245.312 360.256 243.062C357.091 240.205 354.11 234.309 352.102 226.953C350.398 220.57 349.851 214.552 350.885 212.364C351.128 211.756 351.493 211.513 351.98 211.573C352.102 211.573 352.224 211.513 352.224 211.391C352.224 211.269 352.163 211.148 352.041 211.148C351.554 211.087 350.946 211.209 350.52 212.181C349.486 214.431 349.972 220.57 351.737 227.075C353.745 234.491 356.787 240.448 360.012 243.427C361.472 244.886 363.115 245.555 364.758 245.555C365.914 245.555 367.07 245.19 368.044 244.582C368.166 244.521 368.166 244.4 368.105 244.278C368.044 244.157 367.922 244.157 367.801 244.217Z" fill="#CAF995"/>
<path d="M366.766 240.631C364.454 240.205 362.628 237.469 361.351 232.667C360.073 227.804 359.464 220.692 359.708 213.64C359.89 207.379 360.742 202.455 361.776 201.604C361.837 201.482 362.02 201.482 362.142 201.543C362.263 201.604 362.385 201.543 362.446 201.421C362.507 201.3 362.446 201.178 362.324 201.117C362.02 200.996 361.716 201.057 361.472 201.239C359.16 203.184 358.004 221.543 360.925 232.789C362.202 237.834 364.149 240.631 366.705 241.117C366.827 241.117 366.948 240.995 366.948 240.874C366.948 240.752 366.888 240.691 366.766 240.631Z" fill="#CAF995"/>
<path d="M368.713 243.67C366.644 245.007 363.967 244.886 362.019 243.366C354.657 238.138 350.398 218.077 351.493 212.789C351.615 212.181 351.797 211.755 352.041 211.695C352.162 211.695 352.223 211.573 352.223 211.451C352.223 211.33 352.101 211.269 351.98 211.269C351.554 211.391 351.25 211.877 351.067 212.667C349.972 218.077 354.292 238.442 361.776 243.731C362.871 244.521 364.21 245.007 365.549 245.007C366.766 245.007 367.922 244.642 368.956 244.035C369.078 243.974 369.078 243.852 369.017 243.731C368.956 243.609 368.834 243.609 368.713 243.67Z" fill="#CAF995"/>
<path d="M371.755 242.089L367.557 243.001L359.403 240.266C359.403 240.266 360.864 247.317 368.956 245.372C375.284 243.792 371.755 242.089 371.755 242.089Z" fill="#4A8D00"/>
<path d="M366.34 238.625L367.009 240.874C365.731 240.752 364.514 240.266 363.48 239.415C361.715 238.017 364.392 242.941 364.392 242.941C364.392 242.941 367.922 242.758 368.104 242.698C368.287 242.637 369.747 241.543 369.625 241.482C369.504 241.421 367.009 236.679 366.34 238.625Z" fill="#4A8D00"/>
<path d="M166.335 303.001C190.37 303.001 213.066 301.906 233.328 300.083C245.193 301.542 258.032 302.636 271.479 303.304C294.114 304.399 316.506 303.183 339.08 306.587C344.435 307.377 349.79 308.35 355.144 309.323C385.02 314.672 414.835 320.69 445.259 321.602C450.796 321.784 473.675 323.973 475.622 315.523C478.238 304.338 422.198 281.907 350.581 265.311C307.927 255.524 269.41 249.992 244.585 249.445C221.645 246.892 194.933 245.433 166.396 245.433C81.7575 245.433 13.1826 258.32 13.1826 274.186C13.1826 290.052 81.7575 302.94 166.335 303.001Z" fill="#F0F5FA"/>
<path d="M161.345 299.9C161.285 299.9 161.285 299.961 161.345 299.9V299.9Z" fill="#FFE8A2"/>
<path d="M164.753 296.435C164.206 296.982 163.597 297.53 163.05 298.077L162.198 298.928C161.954 299.232 161.65 299.536 161.346 299.9C160.19 301.238 160.433 303.183 161.711 304.216C162.989 305.311 164.936 305.067 165.97 303.791C166.153 303.608 166.396 303.305 166.64 303.061L167.37 302.271C167.857 301.724 168.343 301.238 168.891 300.691C169.986 299.596 170.047 297.773 168.952 296.618C167.857 295.402 165.97 295.341 164.753 296.435Z" fill="#FFE8A2"/>
<path d="M186.536 280.387C183.92 281.907 181.425 283.487 178.93 285.189C178.87 285.25 178.87 285.25 178.87 285.25C177.653 286.101 177.409 287.803 178.261 289.019C179.113 290.235 180.817 290.478 182.034 289.627C184.407 287.925 186.78 286.344 189.214 284.764C190.431 284.034 190.796 282.514 190.066 281.299C189.335 280.083 187.753 279.657 186.536 280.387Z" fill="#FFE8A2"/>
<path d="M210.571 268.655C207.833 269.749 205.095 270.904 202.356 272.12C202.356 272.12 202.356 272.181 202.296 272.181C201.139 272.728 200.714 274.065 201.261 275.22C201.809 276.375 203.147 276.801 204.304 276.253C206.92 274.977 209.536 273.761 212.214 272.606C213.309 272.181 213.796 270.965 213.37 269.871C212.944 268.776 211.666 268.229 210.571 268.655Z" fill="#FFE8A2"/>
<path d="M236.127 260.691C233.206 261.36 230.346 262.15 227.486 262.94C226.452 263.305 225.904 264.278 226.209 265.25C226.513 266.223 227.608 266.77 228.582 266.466C231.381 265.615 234.18 264.764 236.979 264.034C237.891 263.791 238.378 262.88 238.196 261.968C238.013 261.056 237.04 260.448 236.127 260.691Z" fill="#FFE8A2"/>
<path d="M262.413 256.314C259.431 256.618 256.511 256.983 253.59 257.408C252.738 257.53 252.251 258.32 252.373 259.232C252.495 260.022 253.286 260.509 254.077 260.387C256.937 259.84 259.796 259.414 262.717 258.989C263.447 258.867 263.934 258.259 263.873 257.53C263.812 256.801 263.143 256.253 262.413 256.314Z" fill="#FFE8A2"/>
<path d="M289.003 254.916C286.021 254.916 283.101 254.916 280.119 255.037C279.511 255.098 279.146 255.645 279.146 256.192C279.146 256.739 279.632 257.226 280.241 257.165C283.161 256.983 286.082 256.8 289.003 256.739C289.49 256.739 289.915 256.314 289.915 255.828C289.915 255.341 289.49 254.916 289.003 254.916Z" fill="#FFE8A2"/>
<path d="M131.044 258.259C131.044 258.199 131.044 258.199 131.044 258.259C130.983 258.138 130.922 258.138 130.922 258.077C130.192 257.226 129.097 256.861 128.002 257.044C126.298 257.226 124.655 257.469 123.012 257.712C122.951 257.712 122.83 257.712 122.769 257.773C117.049 258.442 109.017 259.901 100.864 261.603C100.194 261.056 99.4035 260.691 98.6125 260.387C95.2659 259.111 89.4245 258.563 82.6096 258.867C81.0276 258.928 79.5064 259.05 78.1069 259.171C76.099 259.293 74.091 259.475 72.0831 259.718C71.1095 259.779 70.1968 260.266 69.71 261.117C69.1624 261.542 69.2232 261.907 69.3449 262.089C69.3449 262.089 69.3449 262.089 69.4058 262.089C69.4058 262.15 69.4666 262.211 69.5883 262.211C69.4058 262.94 70.3793 263.427 71.5963 263.609C71.9005 263.67 72.2656 263.731 72.5698 263.731C73.1783 263.731 73.8476 263.731 74.4561 263.791C76.6466 263.852 78.7763 263.974 80.9668 264.095C77.3768 264.764 73.8476 265.554 70.3793 266.588C68.919 266.952 67.4587 267.317 65.9983 267.682C65.2682 267.803 64.5988 268.29 64.2338 268.958C64.0512 269.08 63.9295 269.202 63.8078 269.384C63.6861 269.566 63.747 269.749 63.9295 269.87H63.9904C63.9904 269.992 63.9904 270.053 64.1121 270.113C64.1729 270.174 64.2338 270.174 64.2946 270.174C64.3555 270.296 64.4163 270.417 64.4772 270.478C64.0512 270.6 63.6253 270.721 63.1385 270.843C60.5221 271.633 57.6014 272.545 55.1067 273.457C53.8897 273.822 52.7336 274.186 51.5167 274.612C50.9082 274.794 50.3606 275.22 50.0564 275.828C50.0564 275.828 50.0564 275.828 49.9955 275.888C49.6913 276.192 49.6304 276.436 49.8738 276.679H49.9347C50.0564 277.591 51.2733 278.016 52.4902 278.077C52.6728 278.077 52.8553 278.077 53.0379 278.077C53.0987 278.077 53.0987 278.077 53.1596 278.077H53.2813H53.3421C56.6887 277.651 59.9745 277.104 63.1994 276.496C66.4243 275.888 69.71 275.341 72.9349 274.673C77.8027 273.761 82.6096 272.727 87.3557 271.694C87.0515 271.816 86.7472 271.937 86.443 272.119C84.7393 272.91 82.9139 273.578 81.0276 274.247C79.1413 274.916 77.1942 275.524 75.2471 276.132C74.1519 276.496 73.4217 277.226 73.4825 278.077C73.4825 278.138 73.4217 278.198 73.4217 278.259C73.4217 278.259 73.4217 278.259 73.4217 278.32C73.4217 278.32 73.4217 278.381 73.4825 278.381C73.4825 278.381 73.4825 278.381 73.5434 278.381C73.6042 278.381 73.5434 278.381 73.6042 278.442C73.6042 278.442 73.6042 278.442 73.6042 278.502C74.0302 279.597 75.673 280.265 77.2551 279.961C79.4456 279.597 81.6969 279.171 83.8874 278.685C86.0779 278.198 88.2684 277.651 90.3981 277.043C91.4933 276.739 92.5886 276.375 93.623 276.01C94.1706 275.828 94.7182 275.645 95.2659 275.402C95.8135 275.159 96.3611 274.977 96.9696 274.733C97.5172 274.49 98.0648 274.247 98.6125 273.943C99.2209 273.639 99.7686 273.274 100.316 272.91C100.985 272.423 101.594 271.876 102.142 271.268C102.507 270.843 102.75 270.296 102.872 269.749C102.933 269.566 102.933 269.445 102.933 269.262C102.933 269.08 102.933 268.898 102.933 268.715C102.933 268.533 102.933 268.351 102.872 268.168C105.671 267.499 108.47 266.77 111.208 266.041C114.311 265.189 117.475 264.338 120.517 263.427C122.039 262.94 123.621 262.515 125.142 262.028C126.663 261.542 128.184 261.056 129.705 260.509C130.801 260.083 131.409 259.293 131.105 258.442C131.105 258.381 131.044 258.32 131.044 258.259Z" fill="#B4BBBF"/>
<path d="M131.104 258.442C131.165 258.502 131.165 258.442 131.104 258.442V258.442Z" fill="#B4BBBF"/>
<path d="M139.441 136.437C139.137 129.811 138.711 123.246 138.224 116.681C137.737 110.055 137.129 103.489 136.277 96.924C135.973 94.4925 134.086 92.608 131.713 92.3648C128.793 91.9393 126.115 94.0061 125.75 96.924C124.899 103.55 124.29 110.115 123.803 116.681C123.316 123.307 122.891 129.872 122.586 136.437C121.917 149.568 121.674 162.759 121.552 175.89C121.43 189.02 121.674 202.211 122.282 215.342C122.586 221.968 123.012 228.533 123.56 235.098C123.864 238.381 124.168 241.664 124.533 244.946C124.899 248.229 125.264 251.512 125.811 254.794C126.176 257.104 127.941 258.867 130.253 259.232C133.174 259.718 135.851 257.712 136.338 254.794C136.885 251.512 137.251 248.229 137.616 244.946C137.981 241.664 138.285 238.381 138.589 235.098C139.137 228.472 139.563 221.907 139.867 215.342C140.475 202.211 140.658 189.02 140.536 175.89C140.415 162.759 140.11 149.568 139.441 136.437Z" fill="#87D72F"/>
<path d="M126.237 177.896C126.115 177.714 125.994 177.471 125.872 177.288C125.446 176.619 125.081 175.829 124.716 175.039C123.925 173.337 123.256 171.574 122.708 169.811C122.099 167.987 121.552 166.042 121.065 164.097C120.031 160.206 119.24 156.194 118.57 152.061C117.901 147.927 117.414 143.793 117.049 139.599C116.745 136.681 114.494 134.432 111.573 134.31C108.348 134.006 105.488 136.438 105.245 139.659C104.88 144.097 104.636 148.596 104.575 153.094C104.515 157.592 104.636 162.091 105.001 166.711C105.184 169.021 105.427 171.331 105.792 173.702C106.158 176.133 106.583 178.565 107.192 180.936C107.557 182.212 107.861 183.428 108.348 184.765C108.835 186.163 109.443 187.562 110.113 188.899C111.025 190.662 112.181 192.303 113.581 193.762C114.676 194.856 115.893 195.768 117.232 196.498C117.658 196.741 118.084 196.923 118.57 197.106C119.057 197.288 119.544 197.47 120.031 197.592C121.126 197.896 122.221 198.078 123.377 198.078C128.975 198.017 133.539 193.458 133.6 187.866C133.66 183.124 130.496 179.173 126.237 177.896ZM127.393 179.294C127.211 179.233 127.089 179.051 126.967 178.929C126.846 178.747 126.663 178.565 126.541 178.382C126.906 178.565 127.15 178.808 127.454 179.173C127.515 179.294 127.515 179.355 127.393 179.294Z" fill="#87D72F"/>
<path d="M111.573 134.371C108.348 134.067 105.488 136.498 105.245 139.72C104.88 144.158 104.636 148.656 104.575 153.154C104.515 157.653 104.636 162.151 105.001 166.771C105.184 169.081 105.427 171.391 105.792 173.762C106.158 176.194 106.583 178.625 107.192 180.996C107.557 182.273 107.861 183.488 108.348 184.826C108.835 186.224 109.443 187.622 110.113 188.959C111.025 190.722 112.181 192.364 113.581 193.823C114.676 194.917 115.893 195.829 117.232 196.558C117.718 196.801 118.084 196.984 118.57 197.166C119.057 197.348 119.544 197.531 120.031 197.652C126.42 200.327 125.811 188.96 125.02 188.108C101.594 163.853 114.554 134.553 111.573 134.371Z" fill="#4A8D00"/>
<path d="M112.424 134.553C112.424 134.31 112.302 134.128 112.059 134.128C111.877 134.128 111.694 134.31 111.694 134.492C111.39 153.215 113.276 166.65 123.437 180.206C123.498 180.328 123.62 180.388 123.742 180.388C123.863 180.388 123.924 180.388 123.985 180.328C124.168 180.206 124.168 179.963 124.046 179.78C116.44 169.689 112.059 159.051 112.424 134.553Z" fill="#CAF995"/>
<path d="M112.303 134.614C112.364 134.431 112.181 134.249 111.998 134.188C111.816 134.127 111.573 134.249 111.573 134.492C108.104 154.674 111.877 170.723 123.073 183.549C123.134 183.61 123.255 183.671 123.377 183.671C123.499 183.671 123.559 183.671 123.559 183.61C123.742 183.488 123.742 183.245 123.62 183.063C112.607 170.419 108.895 154.553 112.303 134.614Z" fill="#CAF995"/>
<path d="M114.676 145.373C114.189 140.632 113.763 136.924 112.425 134.249C112.303 134.067 112.06 133.945 111.877 134.067C111.694 134.188 111.573 134.431 111.694 134.614C112.972 137.167 113.337 140.814 113.824 145.495C114.737 153.823 115.893 165.191 123.377 177.713C123.499 177.835 123.621 177.896 123.742 177.896C123.864 177.896 123.925 177.896 123.986 177.774C124.168 177.653 124.229 177.409 124.107 177.227C116.745 164.887 115.528 153.58 114.676 145.373Z" fill="#CAF995"/>
<path d="M117.292 146.893C116.501 140.146 116.075 136.073 112.363 134.067C112.181 134.006 111.877 134.067 111.816 134.249C111.755 134.431 111.816 134.674 111.998 134.796C115.345 136.62 115.771 140.571 116.501 147.076C117.292 154.127 118.387 163.853 123.62 177.227C123.681 177.349 123.803 177.47 123.985 177.47C123.985 177.47 124.046 177.47 124.107 177.349C124.35 177.288 124.411 177.045 124.35 176.862C119.178 163.549 118.083 153.945 117.292 146.893Z" fill="#CAF995"/>
<path d="M131.47 92.2437C128.245 91.4534 126.054 94.3105 125.628 97.2892C124.777 103.854 124.229 110.42 123.681 116.985C123.195 123.55 122.769 130.116 122.464 136.681C121.795 149.811 121.491 162.942 121.43 176.072C121.369 189.203 121.552 202.333 122.16 215.464C122.464 222.029 122.89 228.594 123.438 235.16C123.742 238.442 124.046 241.725 124.412 245.008C124.777 248.29 125.142 251.573 125.689 254.856C126.054 257.166 127.819 258.928 130.131 259.293C133.052 259.719 121.43 203.124 131.531 94.0674C131.592 93.7634 131.774 92.3045 131.47 92.2437Z" fill="#4A8D00"/>
<path d="M131.835 92.1828C131.592 92.1828 131.409 92.3044 131.409 92.5476C130.375 111.939 128.854 159.355 130.436 258.746C130.436 258.928 130.557 259.111 130.801 259.111C131.044 259.111 131.227 258.928 131.227 258.746C129.705 159.355 131.166 112 132.2 92.6084C132.2 92.3652 132.078 92.1828 131.835 92.1828Z" fill="#CAF995"/>
<path d="M134.694 165.86C134.633 147.866 134.329 129.629 133.842 115.83C133.355 101.18 132.747 93.2163 132.017 92.1828C131.895 92.0613 131.652 92.0005 131.469 92.1221C131.347 92.2436 131.287 92.4868 131.408 92.6692C132.564 94.2497 133.903 124.766 134.025 165.86C134.207 211.269 132.869 245.859 130.435 258.503C130.374 258.746 130.556 258.928 130.739 258.989H130.8C130.982 258.989 131.165 258.868 131.043 258.685C134.694 239.901 134.755 182.881 134.694 165.86Z" fill="#CAF995"/>
<path d="M132.139 92.0003C131.956 91.9395 131.713 92.0611 131.652 92.2434C131.591 92.4258 131.713 92.669 131.895 92.7298C132.017 92.7905 132.565 93.0945 133.173 95.2829C136.033 105.192 138.041 141.118 137.858 180.692C137.676 223.974 134.999 253.822 130.861 258.685C130.8 258.746 130.739 258.807 130.739 258.928C130.739 259.111 130.861 259.293 131.104 259.293C131.226 259.293 131.287 259.293 131.53 259.171C137.919 251.633 138.649 197.227 138.71 180.692C138.893 135.769 136.459 103.611 133.964 95.0398C133.417 93.1553 132.808 92.1826 132.139 92.0003Z" fill="#CAF995"/>
<path d="M139.198 121.787C138.224 110.723 136.52 96.7419 133.782 92.9729C133.174 92.0611 132.444 91.7571 131.713 91.9395C131.47 92.0003 131.348 92.1827 131.409 92.4258C131.47 92.669 131.713 92.7905 131.896 92.7298C132.078 92.669 132.504 92.5474 133.174 93.4592C137.251 98.9911 140.232 132.121 140.475 173.884C140.658 206.832 138.893 248.412 133.356 257.044C132.687 258.077 132.018 258.503 131.348 258.381C131.105 258.32 130.922 258.503 130.862 258.685C130.801 258.928 130.983 259.111 131.166 259.171C131.287 259.232 131.47 259.232 131.592 259.232C132.444 259.232 133.295 258.685 134.026 257.469C139.624 248.716 141.449 206.953 141.266 173.884C141.145 154.674 140.415 136.194 139.198 121.787Z" fill="#CAF995"/>
<path d="M160.251 142.273C157.208 141.179 153.862 142.82 152.767 145.86V145.921C151.367 149.872 149.846 153.823 148.203 157.592C146.56 161.361 144.796 165.13 142.849 168.656C141.875 170.479 140.841 172.182 139.806 173.823C138.833 175.403 137.737 176.923 136.581 178.382C136.034 179.051 135.486 179.719 134.938 180.267C134.817 180.449 134.634 180.571 134.512 180.753C130.01 180.874 125.994 183.914 124.838 188.473C123.438 194.005 126.724 199.598 132.261 200.996C133.356 201.3 134.452 201.361 135.608 201.361C136.155 201.361 136.642 201.3 137.19 201.239C137.677 201.178 138.102 201.117 138.589 200.996C140.05 200.631 141.51 200.023 142.788 199.233C144.491 198.199 146.013 196.862 147.351 195.342C148.386 194.187 149.298 193.032 150.089 191.756C150.88 190.601 151.55 189.507 152.158 188.352C153.314 186.224 154.41 183.975 155.322 181.726C156.235 179.537 157.087 177.349 157.817 175.16C159.277 170.783 160.555 166.407 161.589 162.03C162.624 157.653 163.537 153.276 164.267 148.899C164.754 146.042 163.111 143.307 160.251 142.273ZM132.991 181.908C132.87 181.908 132.87 181.847 132.991 181.726C133.296 181.482 133.661 181.3 134.026 181.178C133.843 181.361 133.661 181.482 133.478 181.604C133.356 181.726 133.174 181.847 132.991 181.908Z" fill="#87D72F"/>
<path d="M153.07 145.921C149.723 154.37 146.377 162.394 142.422 170.479C140.475 174.492 138.102 178.868 135.911 182.637C134.816 184.522 133.66 186.346 132.564 187.865C132.017 188.656 131.408 189.446 131.408 189.446C131.469 189.385 126.723 192.607 125.202 196.862C123.681 201.117 136.398 201.604 139.562 200.57C147.168 200.266 165.239 146.954 159.52 142.334C157.025 140.267 154.287 142.942 153.07 145.921Z" fill="#4A8D00"/>
<path d="M140.657 124.705C137.433 124.584 134.694 127.076 134.573 130.298C134.147 139.416 133.477 148.535 132.443 157.471C131.895 161.969 131.287 166.407 130.435 170.662C130.009 172.79 129.522 174.857 128.975 176.68C128.853 177.106 128.731 177.471 128.549 177.896C126.602 179.416 125.385 181.726 125.385 184.34C125.385 188.838 129.036 192.546 133.599 192.546C133.964 192.546 134.329 192.546 134.694 192.486C135.059 192.486 135.364 192.364 135.729 192.303C136.337 192.121 136.946 191.938 137.493 191.635C137.737 191.513 137.98 191.331 138.224 191.209C138.467 191.087 138.649 190.966 138.832 190.844C139.015 190.723 139.197 190.54 139.38 190.419C139.562 190.297 139.684 190.176 139.806 190.054C139.927 189.932 140.049 189.811 140.171 189.689C140.292 189.568 140.353 189.507 140.475 189.385L140.779 189.081L140.901 188.899L141.023 188.777C141.205 188.595 141.327 188.413 141.448 188.23C141.57 188.048 141.631 187.926 141.753 187.744L141.874 187.501L141.996 187.258L142.239 186.832C142.361 186.528 142.483 186.285 142.605 186.042C142.848 185.556 143.03 185.13 143.152 184.705C143.7 183.246 144.065 181.787 144.369 180.328C144.917 177.653 145.282 175.161 145.525 172.729C146.073 167.805 146.316 163.063 146.499 158.322C146.803 148.839 146.681 139.477 146.316 130.116C146.195 127.076 143.761 124.645 140.657 124.705ZM128.001 179.173L128.062 179.051C128.062 178.99 128.123 178.99 128.123 178.93C128.123 178.869 128.184 178.808 128.184 178.747C128.184 178.808 128.123 178.869 128.123 178.93C128.123 178.99 128.062 179.112 128.001 179.173Z" fill="#87D72F"/>
<path d="M140.779 124.522C137.494 124.401 134.755 126.893 134.634 130.115C134.208 139.234 133.539 148.352 132.504 157.288C131.957 161.786 131.348 166.224 130.496 170.479C129.827 173.64 129.218 176.194 127.332 178.868C125.263 181.665 124.837 185.312 126.359 188.473C126.663 189.202 132.382 195.464 133.234 193.336C142.483 169.993 143.761 124.644 140.779 124.522Z" fill="#4A8D00"/>
<path d="M129.523 185.191H123.499V198.26H129.523V185.191Z" fill="#4A8D00"/>
<path d="M130.314 178.868H124.351V195.16H130.314V178.868Z" fill="#4A8D00"/>
<path d="M140.719 124.523C140.536 124.644 140.475 124.887 140.597 125.07C142.544 127.927 143.396 141.969 142.422 156.316C141.266 174.005 137.98 187.136 133.417 192.364C133.295 192.546 133.295 192.789 133.478 192.911C133.539 192.972 133.599 193.032 133.721 193.032C133.843 193.032 133.904 192.972 133.964 192.85C140.597 185.312 142.666 164.826 143.213 156.376C144.187 141.605 143.335 127.684 141.266 124.644C141.144 124.462 140.901 124.401 140.719 124.523Z" fill="#CAF995"/>
<path d="M140.779 124.34C140.596 124.401 140.414 124.644 140.475 124.826C140.536 125.009 140.779 125.191 140.961 125.13C141.692 125.009 142.422 126.225 143.03 128.535C144.856 135.343 145.099 150.784 143.639 164.34C141.874 180.631 138.284 190.783 133.781 192.242C133.66 192.303 133.538 192.424 133.538 192.607C133.538 192.789 133.66 192.971 133.903 192.971C133.964 192.971 133.964 192.971 134.025 192.971C136.824 192.06 141.935 187.196 144.369 164.4C145.829 150.48 145.586 135.343 143.76 128.291C143.03 125.374 142.057 124.097 140.779 124.34Z" fill="#CAF995"/>
<path d="M159.459 141.605C159.216 141.605 159.094 141.787 159.094 142.03C159.094 142.273 159.277 142.395 159.52 142.395C160.311 142.334 160.92 142.759 161.406 143.793C163.11 147.562 162.258 157.896 159.277 168.96C155.809 181.665 150.697 191.756 145.221 196.741C140.962 200.57 136.581 201.239 132.2 198.686C132.017 198.564 131.774 198.625 131.652 198.807C131.53 198.99 131.591 199.233 131.774 199.355C133.478 200.388 135.425 200.935 137.433 200.996C140.232 200.996 142.97 199.78 145.769 197.288C151.428 192.242 156.6 181.969 160.068 169.142C163.049 157.896 163.901 147.38 162.137 143.428C161.346 141.726 160.25 141.483 159.459 141.605Z" fill="#CAF995"/>
<path d="M142.97 124.583C142.605 124.219 142.057 124.097 141.57 124.34C141.388 124.462 141.266 124.705 141.388 124.887C141.509 125.07 141.753 125.191 141.935 125.07C142.179 124.948 142.422 125.009 142.544 125.191C144.308 126.65 145.769 135.161 146.134 145.981C146.56 158.2 145.465 170.479 143.274 178.868C141.144 187.136 137.919 191.877 133.964 192.607C133.782 192.607 133.66 192.789 133.66 192.972C133.66 193.154 133.782 193.336 134.025 193.336C138.345 192.546 141.692 187.744 143.943 179.051C148.994 159.659 146.986 127.927 142.97 124.583Z" fill="#CAF995"/>
<path d="M159.399 141.604C159.155 141.544 158.973 141.726 158.912 141.908C158.851 142.152 159.034 142.334 159.216 142.395C159.642 142.456 159.946 143.124 160.19 144.218C162.076 153.458 154.713 188.048 142.057 197.044C138.285 199.719 134.451 199.902 130.496 197.592C130.314 197.531 130.07 197.592 129.949 197.774C129.888 197.956 129.949 198.199 130.131 198.321C131.896 199.415 133.904 199.962 135.972 200.023C138.346 199.962 140.597 199.172 142.544 197.652C155.383 188.473 162.867 153.398 160.981 144.036C160.676 142.577 160.129 141.787 159.399 141.604Z" fill="#CAF995"/>
<path d="M125.324 195.039C125.324 195.039 119.3 197.957 130.191 200.631C144.126 204.096 146.681 191.878 146.681 191.878L132.565 196.619L125.324 195.039Z" fill="#4A8D00"/>
<path d="M139.501 190.419C137.798 191.817 135.668 192.668 133.477 192.911L134.634 188.96C133.477 185.616 129.036 193.884 128.853 194.066C128.671 194.248 131.226 196.133 131.53 196.194C131.835 196.254 137.919 196.558 137.919 196.558C137.919 196.558 142.544 187.987 139.501 190.419Z" fill="#4A8D00"/>
</g>
<defs>
<clipPath id="clip0_337_1191">
<rect width="474" height="231" fill="white" transform="translate(13 92)"/>
</clipPath>
</defs>
</svg>
