<svg width="492" height="328" viewBox="0 0 492 328" fill="none" xmlns="http://www.w3.org/2000/svg">
<g clip-path="url(#clip0_337_1191)">
<path d="M308.49 132.197C262.55 132.197 227.016 169.401 227.016 215.297C227.016 261.193 391.668 261.193 391.668 215.297C391.668 169.401 354.43 132.197 308.49 132.197Z" fill="#FCE0D9"/>
<path d="M437.852 243.077H450.204C450.569 243.077 450.873 243.017 451.177 242.834H439.616C439.069 243.017 438.46 243.077 437.852 243.077Z" fill="#F0F5FA"/>
<path d="M102.765 213.655V216.634H99.4189C95.4029 216.634 92.1172 219.917 92.1172 223.929V235.783C92.1172 239.795 95.4029 243.077 99.4189 243.077H127.774C131.79 243.077 135.075 239.795 135.075 235.783V228.002H213.69V249.278H325.953V243.138H437.912C438.521 243.138 439.068 243.017 439.677 242.895H457.261C459.634 242.895 461.521 241.011 461.521 238.64V234.749C461.521 232.378 459.634 230.494 457.261 230.555H445.153V231.041H444.484V230.555H445.153V221.072C445.153 217.06 441.867 213.777 437.851 213.777H429.028V201.315C429.028 197.303 425.743 194.02 421.727 194.02H409.07V165.388C409.07 163.808 407.793 162.531 406.211 162.531H404.385V149.218C405.906 149.158 407.184 147.942 407.184 146.361V119.128C407.184 117.547 405.906 116.271 404.324 116.271H398.118C396.536 116.271 395.258 117.547 395.258 119.128V127.517H391.668C391.425 127.517 391.242 127.517 390.999 127.577V121.438C390.999 119.857 389.721 118.581 388.139 118.581H381.933C380.351 118.581 379.073 119.857 379.073 121.438V137.972H377.065C376.821 137.972 376.639 137.972 376.395 138.033V121.681C376.395 120.1 375.118 118.824 373.536 118.824H372.866C371.345 118.824 370.067 120.1 370.067 121.681V124.781C370.007 124.781 370.007 124.781 369.946 124.781H368.485V107.821C368.485 106.24 367.208 104.964 365.625 104.964H359.419C357.837 104.964 356.559 106.24 356.559 107.821V153.535C355.099 153.656 354.004 154.872 354.004 156.331V194.02H340.009C335.993 194.02 332.707 197.303 332.707 201.315V213.777H331.247V213.655C331.247 211.284 329.361 209.4 326.987 209.4H304.717C305.022 208.792 305.204 208.123 305.204 207.455V197.364C305.204 194.993 303.318 193.108 300.945 193.108H275.572V190.251C275.572 187.881 273.685 185.996 271.312 185.996H262.55V162.227C262.55 160.89 261.455 159.796 260.116 159.796H259.265V144.112C259.265 141.741 257.378 139.857 255.005 139.857H250.32C249.955 139.857 249.59 139.857 249.225 139.978V127.152C249.225 125.815 248.129 124.72 246.791 124.72H240.402C239.063 124.72 237.968 125.815 237.968 127.152V136.331C236.69 136.878 235.838 138.155 235.838 139.553V173.777L230.971 173.899V148.915C230.971 146.908 229.328 145.328 227.381 145.328C227.076 145.328 226.711 145.328 226.407 145.45V144.842C226.407 143.991 226.103 143.2 225.616 142.592C224.399 141.073 222.148 140.83 220.627 142.045V139.431C220.627 138.398 220.14 137.365 219.349 136.696C218.558 135.845 217.402 135.358 216.246 135.358H211.925C209.552 135.358 207.666 137.243 207.666 139.614V143.991C207.484 144.416 207.362 144.902 207.362 145.389V147.152C206.814 146.848 206.267 146.726 205.658 146.726C205.171 146.726 204.624 146.848 204.137 147.091V145.206C204.137 143.2 202.494 141.62 200.547 141.62C198.539 141.62 196.957 143.261 196.957 145.206V148.124H195.01C192.637 148.124 190.751 150.009 190.751 152.38C190.69 152.562 190.69 152.805 190.69 153.048V175.723C189.108 175.966 187.891 177.242 187.708 178.884C187.526 178.823 187.404 178.823 187.221 178.823H183.997C183.753 178.823 183.51 178.823 183.327 178.884V165.692C183.327 163.686 181.684 162.106 179.737 162.106H179.676V155.297C179.676 153.717 178.642 152.319 177.121 151.893V148.915C177.121 146.908 175.478 145.328 173.531 145.328C171.523 145.328 169.941 146.969 169.941 148.915V156.088C167.994 156.148 166.472 157.729 166.472 159.674V185.996H164.465C162.092 185.996 160.205 187.881 160.205 190.251V193.108H132.216C129.842 193.108 127.956 194.993 127.956 197.364V207.455C127.956 208.123 128.139 208.792 128.443 209.4H107.025C104.652 209.4 102.765 211.284 102.765 213.655Z" fill="#F0F5FA"/>
<path d="M445.214 230.494H444.545V230.98H445.214V230.494Z" fill="#F0F5FA"/>
<path d="M445.214 230.494H444.545V230.98H445.214V230.494Z" fill="#F0F5FA"/>
<path d="M429.028 213.716C428.481 213.656 424.343 214.142 423.309 214.203C420.327 214.446 416.433 214.324 413.391 214.263C410.409 214.203 407.124 214.142 404.142 214.142C397.57 214.203 391.912 213.96 385.34 213.96C372.501 213.96 359.48 214.02 346.763 214.142C345.12 214.142 343.538 214.203 341.895 214.203C340.8 214.203 339.522 214.324 338.427 214.203C338.001 214.142 337.575 214.081 337.149 213.96C336.967 213.899 336.48 213.716 336.297 213.656C336.176 213.595 335.689 213.899 335.628 213.899C337.149 214.385 338.67 214.689 340.252 214.811C340.739 214.871 334.107 217.668 334.715 217.728C335.445 217.789 343.112 215.054 343.173 215.054C344.451 215.054 346.215 215.054 348.406 215.054C349.136 215.054 345.972 216.27 346.763 216.27C347.25 216.27 349.927 215.236 351.083 215.054C351.57 214.932 372.38 215.722 382.785 215.722C382.845 215.722 383.211 217.728 383.819 217.972C384.306 218.215 384.975 215.844 385.401 215.844C392.338 216.087 399.335 215.662 406.272 216.087C406.393 216.087 412.174 218.883 412.478 218.883C412.904 218.883 409.131 215.418 409.192 215.418C416.068 215.479 423.005 215.054 429.819 214.142C429.576 213.96 429.333 213.838 429.028 213.716Z" fill="#F8FAFD"/>
<path d="M427.568 202.409C424.709 204.537 390.512 203.26 375.848 202.652C368.242 202.348 360.697 202.348 353.091 202.409C349.197 202.409 346.946 202.592 343.052 202.592C339.34 202.531 338.671 200.464 337.575 201.072C337.454 201.133 337.332 201.193 337.332 201.376C337.149 201.558 338.001 202.592 339.097 203.807C339.462 204.172 333.438 208.671 333.924 208.974C334.655 209.461 340.739 205.023 341.835 205.023C343.234 205.023 344.634 205.084 346.033 205.084C346.398 205.084 343.903 206.908 344.269 206.968C344.634 207.029 347.372 205.084 347.737 205.084C357.472 205.084 371.102 203.382 380.838 205.266C381.203 205.327 380.899 208.792 381.264 208.914C381.568 209.035 382.907 205.266 383.272 205.266C390.817 205.266 403.047 207.029 409.436 206.847C409.558 206.847 412.235 209.035 413.33 209.826C413.391 209.886 413.513 209.947 413.574 209.947C413.939 209.947 411.748 206.908 411.87 206.908C413.574 206.968 428.846 204.051 429.394 203.503C429.394 203.503 427.812 202.227 427.568 202.409Z" fill="#F8FAFD"/>
<path d="M444.545 227.15C437.851 228.792 430.671 228.427 423.674 228.427C421.849 228.427 420.023 228.427 418.137 228.427C416.312 228.427 414.486 228.427 412.6 228.366C410.774 228.366 408.949 228.305 407.063 228.244C405.176 228.184 403.412 228.123 401.526 228.062C400.917 228.062 400.37 228.001 399.761 228.001C391.547 227.637 383.332 227.089 375.118 227.454C368.851 227.697 362.644 228.488 356.438 228.731C351.753 228.913 346.763 229.217 342.2 228.305C340.374 227.88 338.67 227.15 337.088 226.178C337.088 226.178 336.419 226.542 336.541 226.664C337.088 227.515 337.697 228.366 338.366 229.156C338.427 229.156 338.001 229.643 337.94 229.643C337.514 230.068 337.088 230.433 336.662 230.858C336.115 231.406 335.506 231.892 334.959 232.439C334.35 232.986 333.803 233.533 333.194 234.08C332.707 234.506 332.281 234.992 331.856 235.478C331.734 235.6 331.612 235.782 331.49 235.904C331.43 236.026 331.247 236.208 331.247 236.39C331.49 236.329 331.673 236.208 331.856 236.026C333.194 235.174 334.411 234.263 335.689 233.351C336.784 232.561 337.758 231.649 338.914 230.919C339.705 230.433 341.043 229.703 341.591 229.764C341.895 229.825 343.356 230.007 344.633 230.129C344.938 230.19 341.774 233.108 342.017 233.168C342.2 233.168 345.911 230.311 346.094 230.311C347.493 230.494 348.893 230.554 350.231 230.554C353.395 230.676 356.56 230.554 359.724 230.372C366.113 230.007 372.502 229.339 378.89 229.278C381.994 229.278 385.949 229.703 389.052 229.703C389.356 229.703 388.869 236.877 389.295 236.998C389.721 237.12 390.999 229.825 391.121 229.825C393.859 229.825 399.944 230.554 402.682 230.676C409.253 230.98 416.798 230.858 423.37 230.676C423.796 230.676 428.298 235.357 428.664 235.357C429.394 235.357 425.378 230.615 425.743 230.615C429.576 230.372 435.722 230.676 439.555 230.007C442.354 229.399 442.963 228.792 445.153 227.758C445.275 227.637 444.605 227.15 444.545 227.15Z" fill="#F8FAFD"/>
<path d="M305.753 211.102C305.388 210.798 304.962 210.616 304.536 210.494C303.745 210.433 297.417 211.041 295.835 211.163C291.21 211.467 285.369 211.284 280.744 211.223C276.242 211.163 271.313 211.041 266.75 211.041C256.831 211.041 248.252 210.737 238.273 210.737C218.802 210.737 199.087 210.859 179.738 210.98C177.304 210.98 174.809 211.041 172.375 211.041C170.672 211.041 168.785 211.163 167.082 211.041C166.412 210.98 165.804 210.859 165.195 210.737C164.891 210.676 164.222 210.433 163.918 210.372C163.735 210.372 162.944 210.737 162.883 210.737C165.195 211.406 167.508 211.771 169.881 211.953C170.672 212.014 160.51 215.843 161.484 215.904C162.579 215.965 174.201 212.318 174.323 212.318C176.209 212.318 178.947 212.318 182.233 212.318C183.267 212.318 178.46 213.959 179.677 213.959C180.407 213.959 184.484 212.561 186.249 212.318C187.04 212.196 218.558 213.229 234.318 213.229C234.44 213.229 234.987 215.843 235.9 216.208C236.691 216.451 237.665 213.29 238.334 213.29C248.86 213.655 259.509 213.047 270.035 213.655C270.218 213.655 278.98 217.424 279.406 217.424C280.075 217.424 274.416 212.804 274.477 212.804C290.784 212.926 305.813 211.163 305.753 211.102Z" fill="#F8FAFD"/>
<path d="M306.786 229.703C306.786 229.703 303.805 228.427 303.379 228.609C298.085 230.737 233.709 229.46 206.206 228.852C191.968 228.548 177.669 228.548 163.43 228.609C156.19 228.609 151.869 228.792 144.629 228.792C137.631 228.731 136.414 226.664 134.284 227.272C134.041 227.333 133.859 227.454 133.676 227.576C133.311 227.758 134.893 228.792 136.962 230.007C137.631 230.372 126.374 234.871 127.287 235.175C128.626 235.661 140.004 231.223 142.073 231.223C144.75 231.223 147.367 231.284 149.983 231.284C150.652 231.284 145.967 233.108 146.636 233.168C147.367 233.229 152.539 231.284 153.208 231.284C171.523 231.284 197.079 229.582 215.394 231.466C216.002 231.527 215.455 234.992 216.185 235.114C216.793 235.235 219.349 231.466 219.957 231.466C234.135 231.466 257.135 233.229 269.183 233.047C269.426 233.047 274.416 235.235 276.485 236.026C276.667 236.086 276.789 236.147 276.971 236.147C277.701 236.147 273.564 233.108 273.807 233.108C277.032 233.168 305.752 230.251 306.786 229.703Z" fill="#F8FAFD"/>
<path d="M275.815 194.81C275.511 194.567 275.207 194.324 274.842 194.202C274.233 194.081 269.122 194.75 267.783 194.871C264.011 195.175 259.204 194.993 255.431 194.932C251.72 194.871 247.704 194.75 243.992 194.75C235.839 194.75 228.841 194.446 220.688 194.446C204.806 194.446 188.682 194.506 172.862 194.689C170.854 194.689 168.846 194.75 166.838 194.75C165.377 194.81 163.978 194.81 162.518 194.75C162.031 194.689 161.483 194.567 160.936 194.506C160.692 194.385 160.145 194.202 159.901 194.081C159.779 194.02 159.11 194.446 159.049 194.446C160.936 195.114 162.822 195.54 164.769 195.722C165.377 195.783 157.102 199.734 157.893 199.795C158.745 199.856 168.237 196.026 168.359 196.026C169.88 196.026 172.131 196.026 174.809 196.026C175.721 196.026 171.766 197.728 172.74 197.728C173.348 197.728 176.634 196.33 178.094 196.026C178.764 195.905 204.502 196.999 217.402 196.999C217.523 196.999 217.949 199.734 218.74 200.099C219.41 200.342 220.201 197.06 220.748 197.06C229.389 197.424 238.029 196.816 246.669 197.424C246.791 197.424 253.971 201.376 254.336 201.376C254.823 201.376 250.198 196.573 250.259 196.573C263.585 196.756 275.876 194.871 275.815 194.81Z" fill="#F8FAFD"/>
<path d="M364.652 111.711V111.772C364.591 111.954 364.591 112.137 364.53 112.319C364.53 112.623 364.469 112.988 364.409 113.292C364.287 114.386 364.226 115.419 364.287 116.514C364.348 117 364.287 117.486 364.165 117.912C364.165 117.972 364.104 118.033 364.104 118.033H364.044C363.618 117.851 363.009 117.486 363.009 118.459C362.948 126.483 362.887 134.507 362.827 142.531V145.571V147.638C362.827 148.61 362.401 148.428 361.792 148.489C361.731 148.489 361.671 148.489 361.61 148.55C361.549 148.671 361.549 148.732 361.549 148.854C361.549 149.644 361.731 150.434 361.975 151.224C362.157 151.893 362.462 152.44 362.705 153.109C363.435 155.297 362.948 159.552 362.948 162.045C362.948 163.625 362.827 165.145 362.827 166.726C362.887 167.881 362.948 169.096 363.131 170.251C363.253 170.13 363.496 169.826 363.435 169.583C363.557 169.826 363.618 170.008 363.678 170.251C364.165 167.698 363.922 165.084 363.922 162.47C363.922 160.1 364.104 157.729 364.165 155.358C364.165 154.932 364.226 154.446 364.348 154.021C364.53 153.656 364.591 153.23 364.652 152.866C364.591 152.622 364.53 152.44 364.469 152.197C363.983 150.616 364.287 148.489 364.287 146.787L364.348 143.565L364.409 139.857L364.469 135.845L364.53 131.711L364.591 127.577L364.652 123.626L364.713 120.039C364.774 118.945 364.774 117.851 364.835 116.757C364.895 115.906 364.895 114.994 364.895 114.143C364.895 113.717 364.895 113.292 364.895 112.866C364.895 112.501 364.835 112.137 364.713 111.772C364.713 111.711 364.652 111.711 364.652 111.711Z" fill="#F8FAFD"/>
<path d="M374.814 126.665C374.996 125.693 374.935 124.72 374.874 123.747C374.874 123.626 374.814 123.504 374.692 123.443C374.083 123.079 374.144 126.179 374.083 126.726C373.231 146.726 373.84 166.847 374.266 186.847C374.266 187.394 374.327 187.941 374.509 188.488C375.483 183.99 375.483 178.64 375.544 173.899C375.605 168.792 375.483 163.625 375.361 158.519L374.814 126.665Z" fill="#F8FAFD"/>
<path d="M387.531 123.991C387.531 124.234 387.47 124.477 387.47 124.659C387.409 125.024 387.409 125.328 387.348 125.693C387.226 126.848 387.166 127.942 387.226 129.097C387.287 129.583 387.287 130.07 387.166 130.556C387.166 130.617 387.105 130.678 387.105 130.678H387.044C386.74 130.556 386.253 130.131 386.253 131.164C386.131 139.614 386.131 148.063 386.07 156.513V159.735V161.863C386.07 162.896 385.766 162.714 385.279 162.774C385.218 162.835 385.158 162.835 385.158 162.896C385.097 163.018 385.097 163.078 385.097 163.2C385.097 164.051 385.218 164.902 385.401 165.692C385.523 166.422 385.766 167.03 385.949 167.698C386.496 170.069 386.131 174.507 386.131 177.121C386.131 178.762 386.009 180.403 386.009 182.045C386.009 182.166 386.131 185.631 386.253 185.753C386.435 185.51 386.557 185.145 386.435 184.72C386.557 185.023 386.618 185.327 386.679 185.631C387.044 182.957 386.861 180.16 386.861 177.425C386.861 174.932 386.983 172.44 387.044 169.948C387.044 169.461 387.105 169.036 387.166 168.549C387.287 168.124 387.409 167.759 387.409 167.334C387.409 167.091 387.348 166.847 387.287 166.604C386.922 164.902 387.166 162.714 387.166 160.89L387.226 157.486L387.287 153.595L387.348 149.401L387.409 145.024L387.47 140.647L387.531 136.513L387.591 132.744C387.591 131.589 387.652 130.434 387.652 129.279C387.713 128.368 387.713 127.456 387.713 126.544C387.713 126.058 387.713 125.632 387.713 125.207C387.713 124.842 387.713 124.416 387.531 123.991C387.531 123.991 387.591 123.991 387.531 123.991Z" fill="#F8FAFD"/>
<path d="M394.407 139.674C394.467 138.945 394.407 138.215 394.346 137.547C394.346 137.486 394.285 137.364 394.224 137.303C393.737 136.999 393.798 139.309 393.737 139.735C393.068 154.568 393.555 169.461 393.92 184.294C393.92 184.719 393.981 185.084 394.102 185.509C394.893 182.166 394.893 178.215 394.954 174.689C395.015 170.859 394.893 167.09 394.833 163.261L394.407 139.674Z" fill="#F8FAFD"/>
<path d="M386.862 119.979C385.827 119.735 384.732 119.675 383.698 119.796C383.15 119.857 382.602 119.796 382.055 119.614C381.568 119.492 381.142 119.31 380.594 119.614C380.29 119.918 380.108 120.283 380.168 120.708C379.925 123.869 380.473 127.091 380.534 130.252C380.594 131.893 380.594 133.535 380.473 135.176C380.412 135.358 380.412 135.541 380.412 135.784C380.412 135.784 380.534 136.453 380.838 135.054C381.02 134.021 381.081 132.927 381.02 131.893C381.081 130.07 381.142 128.307 381.203 126.483C381.264 125.085 381.325 123.626 381.507 122.228C381.568 121.802 381.507 121.012 381.994 120.769C382.116 120.708 382.237 120.708 382.359 120.708C383.454 120.708 384.549 120.769 385.645 120.89C386.131 120.951 386.618 120.951 387.044 120.951C387.47 120.89 387.957 120.769 388.383 120.647C388.2 120.283 387.348 120.1 386.862 119.979Z" fill="#F8FAFD"/>
<path d="M399.396 117.729C398.909 117.729 398.423 117.729 397.936 117.608C397.51 117.486 397.084 117.486 396.658 117.608C396.415 117.729 396.232 118.033 396.232 118.276C396.05 120.222 396.536 122.228 396.597 124.234C396.658 125.267 396.597 126.301 396.536 127.334C396.476 127.456 396.475 127.577 396.475 127.699C396.475 127.699 396.536 128.124 396.841 127.273C396.962 126.604 397.023 125.936 397.023 125.328C397.084 124.234 397.084 123.079 397.206 121.984C397.267 121.073 397.327 120.222 397.51 119.31C397.571 119.067 397.51 118.519 397.936 118.398C398.058 118.398 398.179 118.337 398.301 118.337C399.274 118.337 400.248 118.337 401.222 118.459C401.647 118.519 402.073 118.519 402.499 118.519C402.925 118.459 403.29 118.398 403.655 118.337C403.29 118.033 402.804 117.851 402.256 117.851C401.343 117.729 400.37 117.668 399.396 117.729Z" fill="#F8FAFD"/>
<path d="M364.531 106.362C363.496 106.119 362.401 106.058 361.367 106.18C360.819 106.241 360.271 106.18 359.724 105.997C359.237 105.876 358.811 105.693 358.263 105.997C357.959 106.301 357.777 106.666 357.837 107.092C357.594 110.253 358.142 113.475 358.202 116.636C358.263 118.277 358.263 119.918 358.142 121.56C358.081 121.742 358.081 121.924 358.081 122.167C358.081 122.167 358.202 122.836 358.507 121.438C358.689 120.405 358.75 119.31 358.689 118.277C358.75 116.453 358.811 114.69 358.872 112.867C358.933 111.468 358.993 110.01 359.176 108.611C359.237 108.186 359.176 107.396 359.663 107.152C359.784 107.092 359.906 107.092 360.028 107.092C361.123 107.092 362.218 107.152 363.314 107.274C363.8 107.335 364.287 107.335 364.713 107.335C365.139 107.274 365.626 107.152 366.052 107.031C365.869 106.727 364.957 106.484 364.531 106.362Z" fill="#F8FAFD"/>
<path d="M402.317 165.206C401.769 165.145 401.404 165.328 401.404 164.294V162.167V158.945C401.343 150.495 401.282 142.045 401.222 133.596C401.222 132.562 400.674 132.988 400.309 133.109H400.248C400.248 133.109 400.187 133.048 400.187 132.988C400.066 132.501 400.066 132.015 400.066 131.529C400.126 130.374 400.065 129.279 399.944 128.124C399.883 127.76 399.883 127.456 399.822 127.091C399.822 126.909 399.761 126.666 399.7 126.483V126.422C399.7 126.422 399.64 126.422 399.64 126.483C399.518 126.848 399.457 127.273 399.457 127.638C399.457 128.064 399.457 128.489 399.457 128.976C399.457 129.887 399.457 130.799 399.518 131.711C399.579 132.866 399.579 134.021 399.64 135.176L399.7 138.945L399.761 143.079L399.822 147.456L399.883 151.832L399.944 156.027L400.005 159.917L400.066 163.322C400.066 165.145 400.37 167.334 399.883 169.036C399.822 169.279 399.761 169.522 399.761 169.765C399.822 170.191 399.883 170.556 400.066 170.981C400.187 171.467 400.187 171.893 400.187 172.379C400.248 174.872 400.37 177.364 400.431 179.856C400.431 182.592 400.248 185.388 400.674 188.063C400.735 187.881 400.796 187.637 400.857 187.455C400.857 187.759 401.039 188.124 401.161 188.184C401.282 188.063 401.465 184.598 401.465 184.476C401.465 182.835 401.343 181.194 401.343 179.552C401.343 176.938 400.917 172.501 401.526 170.13C401.708 169.461 402.013 168.793 402.195 168.124C402.439 167.334 402.56 166.483 402.56 165.632C402.56 165.51 402.56 165.449 402.499 165.328C402.439 165.267 402.378 165.206 402.317 165.206Z" fill="#F8FAFD"/>
<path d="M257.439 143.079C257.5 142.653 257.317 142.288 257.013 141.984C256.465 141.68 256.04 141.863 255.553 141.984C255.005 142.167 254.457 142.227 253.91 142.167C252.875 142.045 251.78 142.106 250.746 142.349C250.259 142.471 249.407 142.714 249.225 143.018C249.651 143.139 250.137 143.261 250.563 143.322C250.989 143.322 251.476 143.322 251.963 143.261C253.058 143.139 254.153 143.079 255.249 143.079C255.37 143.079 255.492 143.079 255.614 143.139C256.1 143.382 256.04 144.173 256.1 144.598C256.283 145.996 256.344 147.455 256.405 148.854C256.465 150.677 256.526 152.44 256.587 154.264C256.526 155.297 256.587 156.391 256.77 157.425C257.074 158.823 257.196 158.154 257.196 158.154C257.196 157.911 257.196 157.729 257.135 157.546C257.013 155.905 257.013 154.264 257.074 152.622C257.135 149.461 257.682 146.24 257.439 143.079Z" fill="#F8FAFD"/>
<path d="M248.19 126.665C248.19 126.301 248.069 125.875 247.764 125.571C247.339 125.267 246.913 125.45 246.426 125.571C245.939 125.754 245.452 125.814 244.905 125.754C243.87 125.632 242.836 125.693 241.862 125.936C241.436 126.057 240.585 126.24 240.28 126.605C240.706 126.726 241.132 126.848 241.558 126.909C241.984 126.969 242.471 126.909 242.897 126.848C243.931 126.726 245.026 126.665 246.061 126.665C246.182 126.665 246.304 126.665 246.426 126.726C246.913 126.969 246.852 127.76 246.913 128.185C247.095 129.583 247.156 131.042 247.217 132.44C247.278 134.264 247.339 136.027 247.399 137.851C247.399 138.884 247.46 139.978 247.582 141.012C247.886 142.41 247.947 141.741 247.947 141.741C247.947 141.498 247.947 141.316 247.886 141.133C247.764 139.492 247.764 137.851 247.825 136.209C247.886 133.048 248.373 129.826 248.19 126.665Z" fill="#F8FAFD"/>
<path d="M218.923 137.911C218.923 137.547 218.801 137.121 218.497 136.817C218.071 136.513 217.645 136.696 217.158 136.817C216.671 137 216.185 137.06 215.637 137C214.603 136.878 213.568 136.939 212.595 137.182C212.108 137.304 211.317 137.547 211.013 137.851C211.439 137.972 211.865 138.094 212.29 138.155C212.716 138.155 213.203 138.155 213.629 138.094C214.664 137.972 215.759 137.911 216.793 137.911C216.915 137.911 217.037 137.911 217.158 137.972C217.645 138.215 217.584 139.006 217.645 139.431C217.828 140.829 217.888 142.288 217.949 143.686C218.01 145.51 218.071 147.273 218.132 149.097C218.132 150.13 218.132 151.224 218.314 152.258C218.619 153.656 218.679 152.987 218.679 152.987C218.679 152.744 218.679 152.562 218.619 152.379C218.497 150.738 218.497 149.097 218.558 147.455C218.619 144.294 219.105 141.072 218.923 137.911Z" fill="#F8FAFD"/>
<path d="M260.481 161.255C259.934 161.255 259.325 161.437 258.778 161.68L256.709 162.592C256.648 162.592 256.526 162.714 256.344 162.774C255.918 162.957 255.431 163.139 254.944 163.443C255.249 163.443 255.492 163.382 255.796 163.321C256.77 163.139 257.804 162.896 258.778 162.653C260.299 162.349 260.238 167.516 260.603 168.124C260.968 168.732 261.09 168.428 261.09 168.428C261.09 168.428 260.542 166.847 261.394 163.017C261.516 162.592 261.516 162.166 261.394 161.802C261.333 161.559 261.151 161.255 260.481 161.255Z" fill="#F8FAFD"/>
<path d="M228.902 146.787C228.415 146.787 227.928 146.969 227.563 147.212L225.981 148.124C225.92 148.124 225.799 148.246 225.677 148.307C225.312 148.55 225.008 148.732 224.643 148.975C224.886 148.975 225.129 148.914 225.312 148.854C226.103 148.671 226.894 148.428 227.624 148.185C228.78 147.881 228.719 153.048 229.024 153.656C229.328 154.264 229.389 153.96 229.389 153.96C229.389 153.96 228.963 152.379 229.632 148.55C229.754 148.124 229.754 147.699 229.632 147.334C229.51 146.969 229.206 146.787 228.902 146.787Z" fill="#F8FAFD"/>
<path d="M178.034 153.656C177.669 153.656 177.304 153.838 176.999 154.081L175.782 154.993C175.722 154.993 175.661 155.115 175.539 155.176C175.296 155.358 175.052 155.54 174.748 155.844C174.931 155.844 175.052 155.784 175.235 155.723C175.843 155.54 176.391 155.297 176.999 155.054C177.912 154.75 177.851 159.917 178.095 160.525C178.338 161.133 178.399 160.829 178.399 160.829C178.399 160.829 178.095 159.249 178.581 155.419C178.642 154.993 178.642 154.568 178.581 154.203C178.581 153.899 178.338 153.656 178.034 153.656Z" fill="#F8FAFD"/>
<path d="M181.015 164.355C180.65 164.355 180.285 164.538 179.981 164.781L178.764 165.693C178.703 165.693 178.642 165.814 178.521 165.875C178.277 166.118 177.973 166.3 177.729 166.544C177.912 166.544 178.034 166.483 178.216 166.422C178.825 166.24 179.372 165.997 179.981 165.753C180.894 165.449 180.833 170.617 181.076 171.224C181.319 171.832 181.38 171.528 181.38 171.528C181.38 171.528 181.076 169.948 181.563 166.118C181.624 165.693 181.624 165.267 181.563 164.902C181.563 164.598 181.319 164.355 181.015 164.355Z" fill="#F8FAFD"/>
<path d="M195.801 149.218C195.436 149.218 195.071 149.401 194.767 149.644L193.55 150.556C193.489 150.556 193.428 150.677 193.307 150.738C193.063 150.921 192.82 151.164 192.516 151.407C192.698 151.407 192.82 151.346 193.002 151.285C193.611 151.103 194.158 150.86 194.767 150.617C195.68 150.313 195.619 155.48 195.862 156.088C196.106 156.696 196.166 156.392 196.166 156.392C196.166 156.392 195.862 154.811 196.349 150.981C196.41 150.556 196.41 150.13 196.349 149.766C196.349 149.462 196.106 149.218 195.801 149.218Z" fill="#F8FAFD"/>
<path d="M213.69 145.571C213.751 145.024 213.751 144.355 213.629 143.747C213.629 143.686 213.568 143.565 213.447 143.565C212.777 143.322 212.838 145.388 212.838 145.692C211.986 158.823 212.595 172.014 213.082 185.145C213.082 185.509 213.142 185.874 213.325 186.178C214.359 183.26 214.359 179.674 214.42 176.573C214.481 173.23 214.359 169.826 214.238 166.482L213.69 145.571Z" fill="#F8FAFD"/>
<path d="M224.825 154.386C224.825 154.446 224.825 154.446 224.825 154.386C224.764 154.568 224.764 154.69 224.703 154.811C224.703 155.054 224.642 155.237 224.581 155.48C224.46 156.209 224.399 156.939 224.46 157.668C224.521 157.972 224.46 158.276 224.338 158.58C224.338 158.641 224.277 158.641 224.216 158.641C223.79 158.519 223.182 158.276 223.182 158.945C223.121 164.416 223.06 169.826 222.999 175.297V177.364V178.762C222.939 179.492 222.574 179.309 221.965 179.37C221.904 179.37 221.843 179.37 221.783 179.431C221.722 179.492 221.722 179.552 221.722 179.613C221.722 180.221 221.904 180.768 222.148 181.255C222.33 181.68 222.634 182.106 222.878 182.531C223.608 184.051 223.121 186.908 223.121 188.61C223.121 189.643 222.999 190.738 222.999 191.771C223.06 192.622 223.121 193.412 223.304 194.203C223.425 194.081 223.669 193.899 223.608 193.656C223.73 193.838 223.851 194.081 223.851 194.142C224.338 192.44 224.095 190.616 224.095 188.853C224.095 187.273 224.277 185.631 224.338 184.051C224.338 183.747 224.399 183.443 224.521 183.139C224.642 182.835 224.825 182.653 224.825 182.349C224.764 182.166 224.703 181.984 224.642 181.862C224.156 180.768 224.46 179.309 224.46 178.154L224.521 175.966L224.581 173.473L224.642 170.738L224.703 167.942L224.764 165.145L224.825 162.471L224.886 160.039C224.947 159.249 224.947 158.519 225.007 157.79C225.068 157.182 225.068 156.635 225.068 156.027C225.068 155.723 225.068 155.48 225.068 155.176C225.068 154.933 225.007 154.69 224.825 154.386C224.825 154.386 224.886 154.386 224.825 154.386Z" fill="#F8FAFD"/>
<path d="M243.445 136.391C243.384 135.601 243.323 134.811 243.323 134.081C243.323 134.021 243.262 133.899 243.262 133.838C242.958 133.534 242.958 135.966 242.958 136.391C242.532 152.136 242.836 168.002 243.08 183.746C243.08 184.172 243.08 184.597 243.202 185.023C243.688 181.497 243.688 177.242 243.749 173.534C243.81 169.522 243.688 165.449 243.688 161.437L243.445 136.391Z" fill="#F8FAFD"/>
<path d="M250.625 148.914C250.564 148.367 250.564 147.759 250.503 147.091C250.503 147.03 250.442 146.908 250.381 146.908C249.895 146.665 249.956 148.732 249.956 149.036C249.347 162.166 249.773 175.358 250.138 188.488C250.138 188.853 250.199 189.218 250.321 189.522C251.051 186.604 251.051 183.017 251.112 179.917C251.172 176.573 251.051 173.169 250.99 169.826L250.625 148.914Z" fill="#F8FAFD"/>
<path d="M201.46 154.325C201.46 153.839 201.46 153.352 201.399 152.805C201.399 152.744 201.338 152.684 201.277 152.623C200.79 152.44 200.851 154.082 200.851 154.325C200.243 164.781 200.668 175.297 201.034 185.753C201.034 186.057 201.094 186.361 201.216 186.604C201.946 184.233 201.946 181.437 202.007 179.005C202.068 176.331 201.946 173.656 201.885 170.981L201.46 154.325Z" fill="#F8FAFD"/>
<path d="M201.825 142.714C201.46 142.714 201.095 142.896 200.79 143.139L199.573 144.051L199.33 144.234C199.087 144.416 198.782 144.659 198.539 144.902C198.722 144.902 198.843 144.841 199.026 144.781C199.634 144.598 200.182 144.355 200.79 144.112C201.703 143.808 201.642 148.975 201.886 149.583C202.129 150.191 202.19 149.887 202.19 149.887C202.19 149.887 201.886 148.306 202.372 144.477C202.433 144.051 202.433 143.626 202.372 143.261C202.372 142.957 202.129 142.714 201.825 142.714Z" fill="#F8FAFD"/>
<path d="M193.245 154.933C193.306 154.629 193.306 154.264 193.245 153.899C193.245 153.838 193.184 153.778 193.123 153.778C192.698 153.656 192.758 154.75 192.698 154.933C192.15 162.106 192.576 169.34 192.819 176.513C192.819 176.695 192.88 176.938 193.002 177.121C193.671 175.54 193.671 173.595 193.732 171.893C193.793 170.069 193.671 168.185 193.61 166.361L193.245 154.933Z" fill="#F8FAFD"/>
<path d="M174.626 161.923C174.809 161.437 174.809 160.89 174.687 160.343C174.687 160.282 174.626 160.221 174.566 160.161C174.14 159.978 174.2 161.68 174.2 161.984C173.653 173.23 174.079 184.476 174.322 195.722C174.322 196.026 174.383 196.33 174.444 196.634C175.113 194.142 175.113 191.102 175.113 188.428C175.174 185.571 175.052 182.653 174.991 179.796L174.626 161.923Z" fill="#F8FAFD"/>
<path d="M169.88 159.796C170.002 159.31 170.002 158.762 169.941 158.215C169.941 158.154 169.88 158.094 169.819 158.033C169.394 157.851 169.454 159.553 169.454 159.857C168.907 171.103 169.333 182.349 169.576 193.595C169.576 193.899 169.637 194.203 169.698 194.507C170.367 192.014 170.367 188.975 170.367 186.3C170.428 183.443 170.306 180.525 170.245 177.668L169.88 159.796Z" fill="#F8FAFD"/>
<path d="M224.035 143.383C223.548 143.383 223.122 143.444 222.696 143.565L221.114 143.991C221.053 143.991 220.931 143.991 220.81 144.052C220.445 144.112 219.836 144.295 219.775 144.416C220.019 144.416 220.201 144.416 220.445 144.355C221.236 144.234 222.027 144.173 222.757 144.052C223.913 143.869 223.852 146.24 224.156 146.483C224.461 146.726 224.521 146.605 224.521 146.605C224.521 146.605 224.096 145.875 224.765 144.173C224.887 143.991 224.887 143.808 224.765 143.626C224.704 143.504 224.582 143.383 224.035 143.383Z" fill="#F8FAFD"/>
<path d="M174.565 146.787C174.2 146.787 173.835 146.908 173.531 147.091L172.314 147.82C172.253 147.82 172.192 147.881 172.07 147.942C171.827 148.124 171.523 148.246 171.279 148.367C171.462 148.367 171.584 148.367 171.766 148.307C172.375 148.124 172.922 147.942 173.531 147.759C174.443 147.516 174.383 151.407 174.626 151.893C174.869 152.379 174.93 152.136 174.93 152.136C174.93 152.136 174.626 150.981 175.113 148.063C175.174 147.759 175.174 147.456 175.113 147.152C175.052 146.908 174.808 146.787 174.565 146.787Z" fill="#F8FAFD"/>
<path d="M373.719 121.559L372.441 120.647C372.137 120.404 371.771 120.222 371.346 120.222C371.041 120.222 370.798 120.465 370.737 120.769C370.676 121.134 370.676 121.559 370.737 121.985C371.285 125.814 370.92 127.395 370.92 127.395C370.92 127.395 370.98 127.699 371.224 127.091C371.467 126.483 371.406 121.316 372.319 121.62C372.928 121.863 373.536 122.106 374.205 122.289C374.388 122.349 374.57 122.41 374.753 122.41C374.449 122.167 374.205 121.985 373.962 121.741C373.84 121.681 373.779 121.559 373.719 121.559Z" fill="#F8FAFD"/>
<path d="M461.886 246.664H439.129V245.934C439.129 243.259 436.939 241.071 434.262 241.071H432.741V239.734C432.741 237.059 430.55 234.871 427.873 234.871H425.317C424.404 233.533 422.883 232.682 421.24 232.682H419.78C419.05 230.858 417.224 229.582 415.216 229.582H409.74C407.063 229.582 404.872 231.77 404.872 234.445V235.357C403.412 235.661 402.134 236.573 401.465 237.91C400.735 237.424 399.822 237.181 398.909 237.181H387.835V235.843C387.835 233.472 386.071 231.406 383.698 231.041V230.494C383.698 227.941 381.811 225.874 379.317 225.631C378.708 223.503 376.822 221.983 374.571 221.983H363.375C360.697 221.983 358.507 224.172 358.507 226.846V230.98H344.634C341.956 230.98 339.766 233.168 339.766 235.843V240.949H331.552C329.726 240.949 328.083 241.983 327.231 243.563H323.033C321.025 243.563 319.2 244.84 318.469 246.724C318.409 246.846 318.409 246.968 318.348 247.089H289.324C288.898 244.718 286.89 243.016 284.517 243.016H253.18V241.253C253.18 238.579 250.99 236.39 248.312 236.39H230.728V234.567C230.728 231.892 228.537 229.703 225.86 229.703H216.429V229.643C216.429 227.089 214.481 224.962 211.926 224.779C211.987 224.536 211.987 224.354 211.987 224.111C211.987 221.436 209.796 219.248 207.119 219.248H206.328C205.476 217.849 203.894 216.938 202.19 216.938H195.193C193.489 216.938 191.968 217.789 191.055 219.248H187.952C185.275 219.248 183.084 221.436 183.084 224.111C183.084 224.293 183.084 224.415 183.084 224.597C180.833 224.658 178.947 226.299 178.521 228.548C177.851 228.184 177.121 228.001 176.33 228.001H174.383V223.017C174.383 220.646 172.619 218.579 170.245 218.214V217.667C170.245 215.114 168.359 213.047 165.864 212.804C165.256 210.676 163.37 209.157 161.118 209.157H149.923C147.245 209.157 145.055 211.345 145.055 214.02V218.153H131.182C128.504 218.153 126.314 220.342 126.314 223.017V228.123H118.099C116.274 228.123 114.631 229.156 113.779 230.737H109.581C106.904 230.737 104.713 232.925 104.713 235.6V236.329H94.0647C91.3875 236.329 89.197 238.518 89.197 241.193V242.956H81.8344C80.3741 242.956 79.0355 243.563 78.1228 244.658H76.5407C74.7762 244.658 73.1941 245.569 72.3423 247.028H53.723C52.0193 247.028 50.6807 248.366 50.6807 250.068V257.97C50.6807 259.673 52.0193 261.01 53.723 261.01H91.3875V273.776C91.3875 275.478 92.7261 276.815 94.4298 276.815H421.666C423.37 276.815 424.709 275.478 424.709 273.776V260.706H461.947C462.373 260.706 462.86 260.645 463.286 260.524C465.355 259.916 466.815 258.031 466.815 255.843V251.588C466.815 248.852 464.624 246.724 461.886 246.664Z" fill="#E1E7F0"/>
<path d="M424.708 260.646V261.01H461.581C462.19 261.01 462.798 260.828 463.285 260.463C462.859 260.585 462.433 260.646 461.947 260.646H424.708V260.646Z" fill="#E1E7F0"/>
<path d="M305.752 247.09H318.408C318.469 246.968 318.469 246.847 318.53 246.725H307.517C306.908 246.725 306.3 246.847 305.752 247.09Z" fill="#E1E7F0"/>
<path d="M346.763 237.242L344.694 234.628C344.329 234.142 343.66 233.351 342.99 233.412C342.321 233.473 342.138 234.324 342.078 234.871C341.956 235.965 341.956 237.12 342.078 238.275C342.929 249.157 342.382 253.533 342.382 253.533C342.382 253.533 342.504 254.385 342.869 252.622C343.234 250.859 343.173 236.148 344.694 237.181C345.668 237.85 346.702 238.518 347.676 239.126C347.919 239.248 348.284 239.491 348.527 239.43C347.98 238.883 347.554 238.336 347.128 237.728C346.945 237.485 346.824 237.303 346.763 237.242Z" fill="#F0F5FA"/>
<path d="M436.513 245.509L434.444 244.597C433.896 244.354 433.288 244.172 432.74 244.172C432.071 244.172 431.888 244.476 431.828 244.719C431.706 245.083 431.706 245.509 431.828 245.934C432.679 249.764 432.132 251.345 432.132 251.345C432.132 251.345 432.254 251.649 432.619 251.041C432.984 250.433 432.923 245.266 434.444 245.57C435.418 245.813 436.452 246.056 437.426 246.238C437.73 246.299 437.973 246.36 438.277 246.36C437.791 246.117 437.304 245.934 436.878 245.691C436.695 245.631 436.574 245.509 436.513 245.509Z" fill="#F0F5FA"/>
<path d="M334.046 243.138C333.377 243.138 332.707 243.138 332.038 243.077C331.43 242.956 330.882 242.956 330.274 243.077C329.848 243.199 329.787 243.381 329.726 243.624C329.482 245.083 330.091 246.603 330.213 248.062C330.274 248.852 330.274 249.643 330.091 250.372C330.091 250.433 329.969 250.554 330.03 250.676C330.03 250.676 330.152 250.98 330.517 250.311C330.699 249.825 330.76 249.339 330.76 248.852C330.821 248.001 330.882 247.15 331.004 246.36C331.065 245.691 331.186 245.023 331.43 244.354C331.49 244.172 331.43 243.746 332.038 243.685C332.221 243.685 332.342 243.624 332.525 243.685C333.863 243.685 335.263 243.685 336.602 243.807C337.21 243.807 337.758 243.868 338.366 243.868C338.488 243.868 340.07 243.746 340.009 243.746C339.34 243.381 338.67 243.26 338.001 243.26C336.662 243.138 335.385 243.138 334.046 243.138Z" fill="#F0F5FA"/>
<path d="M392.155 238.822C391.486 238.822 390.817 238.822 390.147 238.762C389.539 238.64 388.991 238.64 388.383 238.762C387.957 238.883 387.896 239.065 387.835 239.309C387.592 240.768 388.2 242.287 388.322 243.746C388.383 244.537 388.383 245.327 388.2 246.056C388.2 246.117 388.079 246.239 388.139 246.36C388.139 246.36 388.261 246.664 388.626 245.995C388.809 245.509 388.87 245.023 388.87 244.537C388.93 243.685 388.991 242.834 389.113 242.044C389.174 241.375 389.296 240.707 389.539 240.038C389.6 239.856 389.539 239.43 390.147 239.369C390.33 239.369 390.452 239.369 390.634 239.369C391.973 239.369 393.372 239.369 394.711 239.491C395.319 239.491 395.867 239.552 396.476 239.552C396.597 239.552 398.179 239.43 398.118 239.43C397.449 239.065 396.78 238.944 396.11 238.944C394.772 238.822 393.494 238.822 392.155 238.822Z" fill="#F0F5FA"/>
<path d="M163.552 212.439C163.613 211.892 163.369 211.406 163.004 211.041C162.396 210.677 161.848 210.859 161.24 211.041C160.57 211.224 159.901 211.284 159.232 211.224C157.893 211.102 156.554 211.224 155.277 211.467C154.668 211.649 153.634 211.892 153.269 212.379C153.816 212.561 154.364 212.683 154.911 212.743C155.52 212.804 156.068 212.743 156.676 212.683C158.015 212.5 159.414 212.439 160.753 212.439C160.935 212.439 161.057 212.439 161.24 212.5C161.848 212.743 161.787 213.716 161.848 214.263C162.091 216.026 162.213 217.789 162.274 219.552C162.396 221.74 162.456 223.989 162.517 226.178C162.517 227.454 162.578 228.792 162.761 230.068C163.126 231.831 163.247 230.98 163.247 230.98C163.247 230.737 163.247 230.494 163.187 230.251C163.004 228.245 163.004 226.178 163.065 224.172C163.187 220.281 163.795 216.33 163.552 212.439Z" fill="#F0F5FA"/>
<path d="M210.344 221.74C209.796 221.68 209.37 222.47 209.066 222.956L207.545 225.57C207.545 225.631 207.423 225.813 207.302 226.057C206.997 226.604 206.632 227.212 206.328 227.759C206.511 227.819 206.754 227.576 206.937 227.455C207.667 226.847 208.397 226.178 209.127 225.509C210.222 224.476 210.162 239.187 210.466 240.95C210.77 242.713 210.831 241.862 210.831 241.862C210.831 241.862 210.405 237.485 211.013 226.604C211.074 225.449 211.074 224.354 211.013 223.199C210.953 222.652 210.831 221.801 210.344 221.74Z" fill="#F0F5FA"/>
<path d="M110.919 234.263C110.371 234.263 109.763 234.445 109.215 234.689L107.146 235.6C107.086 235.6 106.964 235.722 106.781 235.783C106.355 235.965 105.869 236.148 105.382 236.452C105.686 236.452 105.929 236.391 106.234 236.33C107.207 236.148 108.242 235.904 109.215 235.661C110.736 235.357 110.676 240.524 111.041 241.132C111.406 241.74 111.527 241.436 111.527 241.436C111.527 241.436 110.98 239.856 111.832 236.026C111.953 235.6 111.953 235.175 111.832 234.81C111.771 234.567 111.588 234.263 110.919 234.263Z" fill="#F0F5FA"/>
<path d="M142.681 221.132C142.681 220.889 142.56 220.707 142.134 220.585C141.525 220.464 140.978 220.464 140.369 220.585C139.7 220.646 139.031 220.646 138.361 220.646C137.023 220.646 135.745 220.646 134.406 220.768C133.737 220.768 133.068 220.889 132.398 221.254C132.337 221.254 133.919 221.376 134.041 221.376C134.65 221.376 135.197 221.315 135.806 221.315C137.144 221.193 138.544 221.193 139.882 221.193C140.065 221.132 140.187 221.193 140.369 221.193C140.978 221.254 140.917 221.68 140.978 221.862C141.221 222.531 141.343 223.199 141.404 223.868C141.525 224.658 141.586 225.509 141.647 226.36C141.647 226.847 141.708 227.333 141.89 227.819C142.255 228.488 142.377 228.184 142.377 228.184C142.438 228.062 142.316 227.941 142.316 227.88C142.134 227.151 142.134 226.36 142.195 225.57C142.316 224.111 142.925 222.591 142.681 221.132Z" fill="#F0F5FA"/>
<path d="M171.827 220.099C171.28 220.099 170.671 220.281 170.123 220.524L168.055 221.436C167.994 221.436 167.872 221.558 167.69 221.618C167.203 221.862 166.412 222.226 166.29 222.287C166.594 222.287 166.838 222.226 167.142 222.166C168.115 221.983 169.15 221.74 170.123 221.497C171.645 221.193 171.584 226.36 171.949 226.968C172.314 227.576 172.436 227.272 172.436 227.272C172.436 227.272 171.888 225.691 172.74 221.862C172.862 221.436 172.862 221.011 172.74 220.646C172.679 220.403 172.496 220.099 171.827 220.099Z" fill="#F0F5FA"/>
<path d="M190.203 220.524C189.838 220.524 189.412 220.585 189.108 220.767L187.83 221.315C187.769 221.315 187.709 221.375 187.587 221.436C187.344 221.558 187.039 221.679 186.796 221.801C186.978 221.801 187.161 221.801 187.344 221.74C188.013 221.619 188.621 221.436 189.23 221.315C190.142 221.132 190.082 224.354 190.325 224.719C190.568 225.084 190.629 224.901 190.629 224.901C190.629 224.901 190.264 223.929 190.812 221.558C190.873 221.315 190.873 221.071 190.812 220.828C190.751 220.707 190.629 220.524 190.203 220.524Z" fill="#F0F5FA"/>
<path d="M203.894 219.916C203.954 219.369 203.711 218.883 203.346 218.518C202.737 218.153 202.19 218.336 201.581 218.518C200.912 218.701 200.243 218.761 199.573 218.701C198.235 218.579 196.896 218.701 195.618 218.944C195.01 219.126 193.915 219.369 193.61 219.856C194.158 220.038 194.706 220.16 195.253 220.22C195.862 220.281 196.409 220.22 197.018 220.16C198.356 219.977 199.756 219.916 201.095 219.916C201.277 219.916 201.399 219.916 201.581 219.977C202.19 220.22 202.129 221.193 202.19 221.74C202.433 223.503 202.555 225.266 202.616 227.029C202.737 229.217 202.798 231.466 202.859 233.655C202.859 234.931 202.92 236.269 203.103 237.545C203.468 239.308 203.589 238.457 203.589 238.457C203.589 238.214 203.589 237.971 203.528 237.728C203.346 235.722 203.346 233.655 203.407 231.649C203.528 227.758 204.137 223.807 203.894 219.916Z" fill="#F0F5FA"/>
<path d="M228.902 232.074C228.902 231.71 228.72 231.406 228.355 231.223C227.807 231.041 227.138 231.041 226.59 231.223C225.921 231.345 225.251 231.345 224.582 231.345C223.244 231.284 221.905 231.345 220.627 231.527C220.079 231.588 218.984 231.77 218.619 232.135C219.775 232.378 220.87 232.439 222.027 232.317C223.365 232.196 224.765 232.135 226.103 232.135C226.286 232.135 226.408 232.135 226.59 232.196C227.199 232.378 227.138 232.986 227.199 233.351C227.442 234.445 227.564 235.6 227.625 236.694C227.746 238.092 227.807 239.491 227.868 240.889C227.868 241.74 227.929 242.591 228.111 243.381C228.476 244.475 228.598 243.928 228.598 243.928C228.659 243.746 228.537 243.564 228.537 243.442C228.355 242.165 228.355 240.828 228.416 239.551C228.537 237.059 229.146 234.567 228.902 232.074Z" fill="#F0F5FA"/>
<path d="M249.286 239.004C249.225 238.761 249.103 238.518 248.434 238.396C247.582 238.275 246.669 238.275 245.757 238.396C244.783 238.457 243.749 238.457 242.714 238.457C240.706 238.457 238.698 238.457 236.69 238.579C235.656 238.64 234.682 238.761 233.587 239.065C233.526 239.126 235.899 239.247 236.082 239.247C236.995 239.247 237.846 239.247 238.759 239.187C240.828 239.065 242.897 239.065 245.026 239.065C245.27 239.065 245.513 239.126 245.757 239.126C246.669 239.187 246.548 239.612 246.669 239.855C246.973 240.585 247.217 241.314 247.278 242.105C247.46 243.016 247.521 243.989 247.643 244.901C247.704 245.448 247.582 245.995 248.008 246.542C248.616 247.272 248.799 246.907 248.799 246.907C248.86 246.846 248.677 246.664 248.677 246.603C248.495 245.752 248.434 244.84 248.556 243.989C248.677 242.348 249.712 240.646 249.286 239.004Z" fill="#F0F5FA"/>
<path d="M429.211 238.214L427.142 237.302C426.595 237.059 425.986 236.877 425.439 236.877C424.769 236.877 424.587 237.181 424.526 237.424C424.404 237.789 424.404 238.214 424.526 238.64C425.378 242.469 424.83 244.05 424.83 244.05C424.83 244.05 424.952 244.354 425.317 243.746C425.682 243.138 425.621 237.971 427.142 238.275C428.116 238.518 429.15 238.761 430.185 238.944C430.489 239.004 430.732 239.065 431.036 239.065C430.489 238.822 430.002 238.579 429.576 238.397C429.394 238.336 429.272 238.214 429.211 238.214Z" fill="#F0F5FA"/>
<path d="M325.71 247.393L323.641 246.481C323.094 246.238 322.485 246.056 321.938 246.056C321.268 246.056 321.086 246.36 321.025 246.603C320.903 246.968 320.903 247.393 321.025 247.819C321.877 251.649 321.329 253.229 321.329 253.229C321.329 253.229 321.451 253.533 321.816 252.925C322.181 252.317 322.12 247.15 323.641 247.454C324.615 247.697 325.649 247.94 326.623 248.123C326.927 248.184 327.17 248.244 327.475 248.244C327.353 248.184 326.562 247.819 326.075 247.576C325.893 247.515 325.771 247.393 325.71 247.393Z" fill="#F0F5FA"/>
<path d="M416.737 232.196C415.46 231.953 414.121 231.832 412.782 231.953C412.113 232.014 411.444 231.953 410.774 231.771C410.166 231.588 409.618 231.406 409.01 231.771C408.645 232.136 408.401 232.622 408.462 233.169C408.219 237.059 408.827 241.011 408.949 244.901C409.01 246.907 409.01 248.974 408.827 250.98C408.766 251.223 408.766 251.467 408.766 251.71C408.766 251.71 408.888 252.561 409.253 250.798C409.436 249.521 409.497 248.184 409.497 246.907C409.557 244.719 409.618 242.47 409.74 240.281C409.801 238.518 409.923 236.756 410.166 234.993C410.227 234.446 410.166 233.473 410.774 233.23C410.957 233.169 411.079 233.169 411.261 233.169C412.6 233.169 413.999 233.23 415.338 233.412C415.946 233.473 416.494 233.534 417.103 233.473C417.65 233.412 418.198 233.291 418.745 233.108C418.38 232.622 417.285 232.318 416.737 232.196Z" fill="#F0F5FA"/>
<path d="M157.346 223.99C156.676 223.929 156.007 224.719 155.642 225.206L153.573 227.82C153.512 227.88 153.391 228.063 153.208 228.306C152.782 228.914 152.356 229.461 151.809 230.008C152.052 230.069 152.417 229.826 152.66 229.704C153.634 229.096 154.668 228.427 155.642 227.759C157.163 226.725 157.102 241.436 157.467 243.199C157.832 244.962 157.954 244.111 157.954 244.111C157.954 244.111 157.407 239.734 158.258 228.853C158.38 227.698 158.38 226.543 158.258 225.449C158.198 224.902 158.015 224.051 157.346 223.99Z" fill="#F0F5FA"/>
<path d="M194.036 228.67C193.367 228.609 192.698 229.4 192.333 229.886L190.264 232.5C190.203 232.561 190.081 232.743 189.899 232.986C189.473 233.594 189.047 234.141 188.438 234.688C188.682 234.749 189.047 234.506 189.29 234.384C190.325 233.776 191.359 233.108 192.333 232.439C193.854 231.406 193.793 246.117 194.158 247.88C194.523 249.642 194.645 248.791 194.645 248.791C194.645 248.791 194.097 244.415 194.949 233.533C195.071 232.378 195.071 231.223 194.949 230.129C194.888 229.582 194.706 228.731 194.036 228.67Z" fill="#F0F5FA"/>
<path d="M137.874 228.731C137.205 228.67 136.535 229.461 136.17 229.947L134.101 232.561C134.041 232.622 133.919 232.804 133.736 233.047C133.31 233.655 132.885 234.263 132.337 234.749C132.58 234.81 132.945 234.567 133.189 234.445C134.162 233.838 135.197 233.169 136.17 232.5C137.691 231.467 137.631 246.178 137.996 247.941C138.361 249.704 138.482 248.853 138.482 248.853C138.482 248.853 137.935 244.476 138.787 233.594C138.908 232.439 138.908 231.284 138.787 230.19C138.726 229.643 138.543 228.792 137.874 228.731Z" fill="#F0F5FA"/>
<path d="M130.816 256.694C130.025 256.694 129.295 256.816 128.565 257.12L125.888 258.031C125.827 258.031 125.644 258.153 125.401 258.214C124.793 258.457 123.758 258.822 123.697 258.882C124.062 258.882 124.427 258.822 124.793 258.761C126.131 258.579 127.409 258.335 128.687 258.092C130.634 257.727 130.451 262.955 130.999 263.563C131.547 264.171 131.668 263.867 131.668 263.867C131.668 263.867 130.938 262.287 132.033 258.457C132.216 258.031 132.216 257.606 132.033 257.241C131.912 256.998 131.729 256.694 130.816 256.694Z" fill="#F0F5FA"/>
<path d="M307.212 252.864C306.665 252.743 306.178 252.5 305.752 252.256C301.615 249.642 311.411 248.427 312.81 248.244H312.871C313.236 248.244 313.601 248.062 313.845 247.819C313.48 247.576 313.054 247.454 312.689 247.454C310.316 247.332 308.003 247.515 305.691 247.88C303.562 248.184 301.31 248.487 299.424 249.582C298.816 249.886 298.39 250.433 298.207 251.101C297.72 253.229 300.519 254.141 301.919 254.992C304.657 256.755 300.763 259.916 291.696 259.247C291.514 259.247 290.784 259.126 289.688 259.004V259.186C293.461 259.673 297.355 260.159 301.31 260.828C304.657 261.192 307.152 261.557 307.578 261.557C309.768 261.74 312.019 261.679 314.21 261.253C314.94 259.734 315.062 257.849 313.662 255.6C312.628 253.837 309.038 253.411 307.212 252.864Z" fill="#B4BBBF"/>
<path d="M377.248 256.633C318.834 256.633 273.686 268.244 273.686 282.651C273.686 297.058 482.939 297.058 482.939 282.651C482.939 268.305 435.661 256.633 377.248 256.633Z" fill="#F8FAFD"/>
<path d="M409.375 283.867C409.253 283.806 409.131 283.746 408.949 283.685H408.888C407.184 283.077 405.42 282.53 403.716 282.044C402.012 281.557 400.248 281.01 398.544 280.524C395.988 279.794 393.372 279.126 390.816 278.457C390.999 278.457 391.182 278.457 391.364 278.457C392.398 278.518 393.433 278.579 394.528 278.761C395.623 278.943 396.719 279.065 397.814 279.247C398.301 279.43 398.909 279.186 399.153 278.7L399.213 278.639C399.213 278.639 399.213 278.639 399.213 278.579C399.274 277.971 398.666 277.241 397.814 276.998C396.658 276.633 395.502 276.329 394.285 276.025C393.129 275.721 391.912 275.478 390.695 275.235C390.086 275.114 389.478 275.053 388.869 274.931C388.565 274.87 388.261 274.87 387.957 274.81C387.652 274.749 387.287 274.749 386.983 274.749C386.679 274.749 386.314 274.749 386.009 274.749C385.644 274.749 385.279 274.81 384.914 274.81C384.488 274.87 384.062 274.992 383.636 275.174C383.332 275.296 383.089 275.478 382.906 275.721C382.845 275.782 382.785 275.843 382.724 275.965C382.663 276.025 382.602 276.147 382.602 276.208C382.541 276.269 382.541 276.39 382.48 276.512C380.959 276.147 379.438 275.843 377.917 275.539C376.213 275.174 374.449 274.87 372.745 274.506C371.893 274.323 371.041 274.202 370.189 274.08C369.337 273.959 368.486 273.837 367.634 273.715C367.025 273.655 366.538 273.898 366.478 274.323C366.478 274.384 366.478 274.384 366.478 274.445V274.506C366.599 275.114 367.086 275.539 367.634 275.721C368.486 276.025 369.337 276.329 370.25 276.633C370.311 276.633 370.372 276.633 370.372 276.694C373.292 277.788 377.552 279.004 381.933 280.159C382.115 280.585 382.42 280.949 382.724 281.314C384.062 282.773 386.74 284.414 390.086 285.934C390.877 286.299 391.607 286.603 392.338 286.846C393.372 287.271 394.346 287.697 395.38 288.062C395.867 288.305 396.414 288.244 396.84 287.94C397.205 287.879 397.266 287.697 397.266 287.515C397.266 287.454 397.266 287.454 397.205 287.454C397.449 287.15 397.145 286.724 396.658 286.36C396.536 286.238 396.354 286.116 396.171 285.995C395.867 285.813 395.563 285.691 395.258 285.509C394.224 284.961 393.189 284.354 392.216 283.806C394.163 284.354 396.11 284.84 398.118 285.205C398.848 285.387 399.578 285.569 400.309 285.691C400.735 285.813 401.16 285.752 401.465 285.509C401.586 285.509 401.647 285.448 401.769 285.448C401.83 285.387 401.891 285.265 401.83 285.205C401.83 285.144 401.891 285.083 401.83 285.083L401.769 285.022C401.769 284.961 401.769 284.901 401.769 284.84C402.012 284.901 402.256 284.961 402.499 284.961C403.959 285.205 405.602 285.509 407.002 285.63C407.671 285.752 408.34 285.873 409.01 285.934C409.375 285.995 409.74 285.934 409.983 285.691C410.227 285.387 410.288 285.265 410.227 285.144C410.348 284.658 409.922 284.171 409.375 283.867Z" fill="#B4BBBF"/>
<path d="M369.215 213.108C369.033 209.279 368.789 205.51 368.485 201.68C368.181 197.85 367.877 194.081 367.329 190.252C367.086 188.549 365.565 187.394 363.861 187.577C362.644 187.759 361.549 188.853 361.366 190.252C360.879 194.081 360.514 197.85 360.21 201.68C359.906 205.51 359.662 209.279 359.48 213.108C359.115 220.707 358.932 228.367 358.871 235.965C358.811 243.564 358.932 251.223 359.297 258.822C359.48 262.652 359.723 266.421 360.027 270.251C360.21 272.135 360.393 274.08 360.575 275.965C360.758 277.849 361.001 279.794 361.305 281.679C361.549 283.381 363.131 284.536 364.834 284.232C366.173 284.05 367.207 282.956 367.39 281.679C367.694 279.794 367.938 277.849 368.12 275.965C368.303 274.08 368.485 272.135 368.668 270.251C368.972 266.421 369.215 262.652 369.398 258.822C369.763 251.223 369.885 243.564 369.824 235.965C369.763 228.367 369.581 220.707 369.215 213.108Z" fill="#87D72F"/>
<path d="M375.726 211.893C374.022 211.953 372.684 213.291 372.562 214.993C372.319 217.424 372.075 219.795 371.649 222.227C371.223 224.658 370.798 226.968 370.25 229.218C369.946 230.373 369.641 231.467 369.276 232.561C368.972 233.594 368.546 234.628 368.12 235.601C367.938 236.087 367.694 236.512 367.451 236.877C367.39 237.059 367.268 237.181 367.208 237.303C364.774 238.032 362.948 240.342 362.948 243.017C362.948 246.299 365.626 248.974 368.911 248.974C369.581 248.974 370.189 248.853 370.858 248.67C371.163 248.609 371.467 248.488 371.71 248.366C372.014 248.245 372.197 248.123 372.44 248.002C373.231 247.576 373.901 247.029 374.57 246.421C375.361 245.57 376.03 244.597 376.578 243.564C376.943 242.774 377.308 241.983 377.612 241.132C377.856 240.342 378.099 239.613 378.282 238.944C378.647 237.546 378.89 236.148 379.073 234.749C379.255 233.412 379.438 232.014 379.499 230.677C379.681 228.002 379.742 225.388 379.742 222.774C379.742 220.16 379.56 217.607 379.377 214.993C379.255 213.108 377.612 211.71 375.726 211.893ZM366.538 238.093C366.477 238.093 366.477 238.093 366.538 238.093C366.66 237.911 366.782 237.85 366.903 237.728C366.842 237.789 366.842 237.789 366.782 237.85C366.721 237.911 366.66 238.032 366.538 238.093Z" fill="#87D72F"/>
<path d="M375.727 211.893C373.962 212.075 381.507 229.035 367.938 243.078C367.451 243.564 367.147 250.129 370.859 248.609C371.163 248.549 371.467 248.427 371.711 248.306C372.015 248.184 372.198 248.062 372.441 247.941C373.232 247.515 373.901 246.968 374.571 246.36C375.362 245.509 376.031 244.537 376.578 243.503C376.944 242.713 377.309 241.923 377.613 241.072C377.856 240.281 378.1 239.552 378.282 238.883C378.647 237.485 378.891 236.087 379.073 234.689C379.256 233.351 379.438 231.953 379.499 230.677C379.682 228.002 379.743 225.388 379.743 222.774C379.743 220.16 379.56 217.546 379.377 214.993C379.195 213.108 377.552 211.71 375.727 211.893Z" fill="#4A8D00"/>
<path d="M375.422 211.832C375.3 211.832 375.178 211.953 375.178 212.075C375.361 226.239 372.866 232.439 368.485 238.275C368.424 238.397 368.424 238.518 368.546 238.579C368.546 238.64 368.607 238.64 368.668 238.64C368.729 238.64 368.79 238.579 368.85 238.579C374.753 230.737 375.848 222.895 375.665 212.075C375.665 211.953 375.544 211.832 375.422 211.832Z" fill="#CAF995"/>
<path d="M375.483 211.832C375.362 211.832 375.301 211.953 375.301 212.075C377.309 223.625 375.118 232.804 368.729 240.159C368.668 240.281 368.668 240.403 368.729 240.463C368.729 240.524 368.79 240.524 368.851 240.524C368.912 240.524 368.973 240.524 369.033 240.463C375.544 233.047 377.735 223.746 375.727 212.014C375.727 211.892 375.605 211.832 375.483 211.832Z" fill="#CAF995"/>
<path d="M375.544 211.771C375.423 211.71 375.301 211.771 375.24 211.893C374.449 213.412 374.206 215.601 373.962 218.336C373.476 223.078 372.745 229.643 368.486 236.816C368.425 236.938 368.486 237.06 368.547 237.12C368.547 237.181 368.608 237.181 368.669 237.181C368.73 237.181 368.851 237.12 368.851 237.06C373.171 229.826 373.841 223.2 374.388 218.397C374.693 215.722 374.875 213.595 375.666 212.075C375.727 211.953 375.666 211.832 375.544 211.771Z" fill="#CAF995"/>
<path d="M375.24 211.892C373.11 213.047 372.806 215.418 372.38 219.309C371.832 225.266 370.494 231.102 368.303 236.695C368.242 236.816 368.303 236.938 368.425 236.998C368.486 236.938 368.486 236.938 368.547 236.938C368.668 236.938 368.729 236.877 368.729 236.816C370.92 231.223 372.319 225.327 372.867 219.37C373.293 215.601 373.536 213.351 375.483 212.257C375.605 212.196 375.605 212.075 375.544 211.953C375.483 211.832 375.361 211.832 375.24 211.892Z" fill="#CAF995"/>
<path d="M369.338 213.23C369.155 209.4 368.912 205.631 368.607 201.801C368.303 197.972 367.938 194.203 367.451 190.373C367.208 188.61 365.93 186.969 364.044 187.455C363.861 187.516 363.983 188.306 363.983 188.488C370.007 251.831 363.253 284.597 364.957 284.353C366.295 284.171 367.33 283.077 367.512 281.8C367.816 279.916 368.06 277.971 368.242 276.086C368.425 274.202 368.607 272.256 368.79 270.372C369.094 266.542 369.338 262.773 369.52 258.943C369.885 251.345 370.007 243.746 369.946 236.087C369.885 228.427 369.703 220.889 369.338 213.23Z" fill="#4A8D00"/>
<path d="M363.983 187.455C363.861 187.455 363.739 187.577 363.739 187.698C364.348 198.944 365.2 226.421 364.287 283.989C364.348 284.171 364.409 284.293 364.53 284.293C364.652 284.293 364.774 284.171 364.774 284.05C365.686 226.421 364.835 198.944 364.226 187.698C364.226 187.577 364.104 187.455 363.983 187.455Z" fill="#CAF995"/>
<path d="M362.705 230.251C362.766 206.421 363.557 188.732 364.226 187.82C364.287 187.698 364.287 187.577 364.165 187.516C364.044 187.455 363.922 187.455 363.861 187.577C363.435 188.185 363.07 192.805 362.766 201.315C362.462 209.339 362.279 219.856 362.279 230.312C362.218 240.16 362.279 273.229 364.409 284.11C364.348 284.11 364.469 284.171 364.53 284.171C364.713 284.171 364.774 284.05 364.774 283.928C363.374 276.633 362.583 256.512 362.705 230.251Z" fill="#CAF995"/>
<path d="M364.591 283.989C362.218 281.193 360.636 263.868 360.515 238.822C360.393 215.905 361.549 195.054 363.253 189.34C363.618 188.063 363.922 187.881 363.983 187.881C364.105 187.82 364.165 187.698 364.105 187.577C364.044 187.455 363.922 187.395 363.8 187.455C363.374 187.577 363.07 188.124 362.766 189.218C361.306 194.142 359.906 212.805 360.028 238.822C360.089 248.366 360.515 279.977 364.166 284.293C364.287 284.354 364.348 284.354 364.409 284.354C364.531 284.354 364.652 284.232 364.652 284.111C364.652 284.05 364.652 283.989 364.591 283.989Z" fill="#CAF995"/>
<path d="M364.287 283.928C363.922 283.989 363.496 283.746 363.131 283.138C359.906 278.153 358.872 254.02 358.993 234.932C359.115 210.738 360.88 191.528 363.253 188.306C363.618 187.82 363.922 187.881 363.983 187.881C364.104 187.942 364.226 187.82 364.287 187.698C364.348 187.577 364.226 187.455 364.104 187.394C363.678 187.273 363.253 187.455 362.887 188.002C361.305 190.191 360.271 198.276 359.723 204.719C358.993 213.048 358.567 223.807 358.507 234.932C358.385 254.08 359.419 278.275 362.705 283.381C362.948 283.867 363.496 284.293 364.104 284.354C364.165 284.354 364.287 284.354 364.348 284.354C364.47 284.354 364.53 284.232 364.53 284.11C364.53 283.989 364.409 283.928 364.287 283.928Z" fill="#CAF995"/>
<path d="M367.512 238.032H364.165V247.758H367.512V238.032Z" fill="#4A8D00"/>
<path d="M362.462 238.883C362.34 238.761 362.279 238.7 362.158 238.579C361.854 238.275 361.549 237.91 361.184 237.485C360.515 236.634 359.906 235.722 359.298 234.81C358.689 233.837 358.081 232.865 357.533 231.831C356.438 229.764 355.404 227.637 354.43 225.387C353.457 223.138 352.605 220.889 351.814 218.64C351.205 216.877 349.258 215.904 347.494 216.512C345.851 217.12 344.877 218.701 345.181 220.342C345.607 222.895 346.094 225.448 346.763 227.941C347.433 230.433 348.102 232.986 348.954 235.539C349.38 236.816 349.867 238.092 350.353 239.369C350.901 240.706 351.509 241.983 352.179 243.199C352.544 243.867 352.909 244.536 353.335 245.205C353.822 245.934 354.308 246.603 354.917 247.272C355.647 248.123 356.56 248.913 357.533 249.521C358.264 250.007 359.115 250.311 359.967 250.554C360.211 250.615 360.515 250.676 360.819 250.737C361.123 250.797 361.428 250.797 361.732 250.797C362.401 250.797 363.01 250.737 363.679 250.615C366.904 249.825 368.79 246.542 367.999 243.381C367.33 240.706 365.018 239.004 362.462 238.883ZM363.314 239.551C363.192 239.491 363.131 239.43 363.01 239.369C362.949 239.308 362.888 239.247 362.827 239.187C363.01 239.247 363.131 239.369 363.314 239.551C363.375 239.612 363.375 239.551 363.314 239.551Z" fill="#87D72F"/>
<path d="M364.227 243.807C364.227 243.807 363.862 243.32 363.557 242.895C362.888 241.983 362.219 240.95 361.61 239.855C360.332 237.667 358.994 235.175 357.838 232.804C355.525 228.123 353.639 223.503 351.631 218.579C350.962 216.816 349.319 215.296 347.859 216.512C344.634 219.248 355.039 250.129 359.481 250.311C361.306 250.919 368.669 250.615 367.817 248.123C366.965 245.63 364.166 243.807 364.227 243.807Z" fill="#4A8D00"/>
<path d="M365.808 237.12C365.747 236.938 365.687 236.694 365.626 236.512C365.321 235.479 365.017 234.263 364.774 232.986C364.287 230.494 363.922 227.941 363.618 225.327C363.009 220.16 362.644 214.871 362.401 209.582C362.34 207.698 360.758 206.239 358.872 206.361C357.107 206.3 355.708 207.759 355.647 209.522C355.403 214.932 355.343 220.403 355.525 225.874C355.647 228.609 355.768 231.406 356.073 234.202C356.255 235.6 356.438 237.059 356.742 238.579C356.925 239.43 357.168 240.281 357.411 241.132C357.472 241.375 357.594 241.618 357.716 241.922C357.776 242.044 357.837 242.226 357.959 242.348L358.081 242.591L358.142 242.713L358.202 242.834C358.263 242.956 358.324 243.017 358.385 243.138C358.446 243.26 358.567 243.381 358.628 243.442L358.689 243.503L358.75 243.624L358.933 243.807C358.993 243.868 359.054 243.928 359.115 243.989C359.176 244.05 359.237 244.111 359.358 244.232C359.48 244.354 359.48 244.354 359.602 244.415C359.724 244.476 359.784 244.597 359.906 244.658C360.028 244.719 360.089 244.779 360.271 244.901C360.454 245.023 360.575 245.083 360.697 245.144C361.001 245.327 361.366 245.448 361.732 245.509C361.914 245.57 362.157 245.57 362.34 245.631C362.523 245.631 362.766 245.691 363.009 245.691C365.626 245.691 367.755 243.503 367.755 240.889C367.695 239.308 366.964 237.971 365.808 237.12ZM364.044 236.269C363.679 236.208 363.314 236.147 362.948 236.087C363.314 236.147 363.679 236.208 364.044 236.269ZM366.113 237.849C366.113 237.849 366.113 237.849 366.113 237.91C366.052 237.849 366.052 237.789 366.113 237.849C366.052 237.728 365.991 237.667 365.991 237.606C366.052 237.667 366.052 237.667 366.052 237.728C366.052 237.789 366.113 237.789 366.113 237.849Z" fill="#87D72F"/>
<path d="M364.835 232.865C364.348 230.372 363.983 227.819 363.679 225.205C363.07 220.038 362.705 214.749 362.462 209.461C362.401 207.576 360.819 206.117 358.932 206.239C357.046 206.3 357.776 232.561 363.192 246.117C363.679 247.332 366.964 243.746 367.208 243.32C368.06 241.497 367.877 239.369 366.66 237.728C365.565 236.147 365.2 234.688 364.835 232.865Z" fill="#4A8D00"/>
<path d="M368.79 241.436H365.261V249.035H368.79V241.436Z" fill="#4A8D00"/>
<path d="M363.01 245.57C360.393 242.53 358.446 234.931 357.777 224.719C357.229 216.391 357.716 208.245 358.811 206.603C358.872 206.482 358.872 206.36 358.75 206.3C358.629 206.239 358.507 206.239 358.446 206.36C357.229 208.123 356.742 216.208 357.351 224.78C357.655 229.703 358.872 241.557 362.705 245.934C362.766 245.934 362.827 245.934 362.888 245.934C362.949 245.934 363.01 245.934 363.01 245.873C363.131 245.813 363.131 245.63 363.01 245.57Z" fill="#CAF995"/>
<path d="M362.827 245.448C360.21 244.597 358.142 238.701 357.107 229.278C356.255 221.376 356.438 212.5 357.472 208.549C357.837 207.212 358.263 206.482 358.689 206.604C358.811 206.604 358.933 206.543 358.933 206.421C358.933 206.3 358.872 206.178 358.75 206.178C358.02 206.057 357.472 206.786 357.046 208.488C356.012 212.561 355.829 221.376 356.681 229.4C358.081 242.591 361.062 245.448 362.705 245.995C362.705 245.874 362.766 245.934 362.766 245.934C362.888 245.934 363.009 245.813 363.009 245.691C363.009 245.57 362.948 245.509 362.827 245.448Z" fill="#CAF995"/>
<path d="M363.801 249.217C361.245 250.676 358.75 250.312 356.256 248.062C353.091 245.205 350.11 239.309 348.102 231.953C346.398 225.57 345.851 219.552 346.885 217.364C347.128 216.756 347.493 216.513 347.98 216.573C348.102 216.573 348.224 216.513 348.224 216.391C348.224 216.269 348.163 216.148 348.041 216.148C347.554 216.087 346.946 216.209 346.52 217.181C345.486 219.431 345.972 225.57 347.737 232.075C349.745 239.491 352.787 245.448 356.012 248.427C357.472 249.886 359.115 250.555 360.758 250.555C361.914 250.555 363.07 250.19 364.044 249.582C364.166 249.521 364.166 249.4 364.105 249.278C364.044 249.157 363.922 249.157 363.801 249.217Z" fill="#CAF995"/>
<path d="M362.766 245.631C360.454 245.205 358.628 242.469 357.351 237.667C356.073 232.804 355.464 225.692 355.708 218.64C355.89 212.379 356.742 207.455 357.776 206.604C357.837 206.482 358.02 206.482 358.142 206.543C358.263 206.604 358.385 206.543 358.446 206.421C358.507 206.3 358.446 206.178 358.324 206.117C358.02 205.996 357.716 206.057 357.472 206.239C355.16 208.184 354.004 226.543 356.925 237.789C358.202 242.834 360.149 245.631 362.705 246.117C362.827 246.117 362.948 245.995 362.948 245.874C362.948 245.752 362.888 245.691 362.766 245.631Z" fill="#CAF995"/>
<path d="M364.713 248.67C362.644 250.007 359.967 249.886 358.019 248.366C350.657 243.138 346.398 223.077 347.493 217.789C347.615 217.181 347.797 216.755 348.041 216.695C348.162 216.695 348.223 216.573 348.223 216.451C348.223 216.33 348.101 216.269 347.98 216.269C347.554 216.391 347.25 216.877 347.067 217.667C345.972 223.077 350.292 243.442 357.776 248.731C358.871 249.521 360.21 250.007 361.549 250.007C362.766 250.007 363.922 249.642 364.956 249.035C365.078 248.974 365.078 248.852 365.017 248.731C364.956 248.609 364.834 248.609 364.713 248.67Z" fill="#CAF995"/>
<path d="M367.755 247.089L363.557 248.001L355.403 245.266C355.403 245.266 356.864 252.317 364.956 250.372C371.284 248.792 367.755 247.089 367.755 247.089Z" fill="#4A8D00"/>
<path d="M362.34 243.625L363.009 245.874C361.731 245.752 360.514 245.266 359.48 244.415C357.715 243.017 360.392 247.941 360.392 247.941C360.392 247.941 363.922 247.758 364.104 247.698C364.287 247.637 365.747 246.543 365.625 246.482C365.504 246.421 363.009 241.679 362.34 243.625Z" fill="#4A8D00"/>
<path d="M162.335 308.001C186.37 308.001 209.066 306.906 229.328 305.083C241.193 306.542 254.032 307.636 267.479 308.304C290.114 309.399 312.506 308.183 335.08 311.587C340.435 312.377 345.79 313.35 351.144 314.323C381.02 319.672 410.835 325.69 441.259 326.602C446.796 326.784 469.675 328.973 471.622 320.523C474.238 309.338 418.198 286.907 346.581 270.311C303.927 260.524 265.41 254.992 240.585 254.445C217.645 251.892 190.933 250.433 162.396 250.433C77.7575 250.433 9.18262 263.32 9.18262 279.186C9.18262 295.052 77.7575 307.94 162.335 308.001Z" fill="#F0F5FA"/>
<path d="M157.345 304.9C157.285 304.9 157.285 304.961 157.345 304.9V304.9Z" fill="#FFE8A2"/>
<path d="M160.753 301.435C160.206 301.982 159.597 302.53 159.05 303.077L158.198 303.928C157.954 304.232 157.65 304.536 157.346 304.9C156.19 306.238 156.433 308.183 157.711 309.216C158.989 310.311 160.936 310.067 161.97 308.791C162.153 308.608 162.396 308.305 162.64 308.061L163.37 307.271C163.857 306.724 164.343 306.238 164.891 305.691C165.986 304.596 166.047 302.773 164.952 301.618C163.857 300.402 161.97 300.341 160.753 301.435Z" fill="#FFE8A2"/>
<path d="M182.536 285.387C179.92 286.907 177.425 288.487 174.93 290.189C174.87 290.25 174.87 290.25 174.87 290.25C173.653 291.101 173.409 292.803 174.261 294.019C175.113 295.235 176.817 295.478 178.034 294.627C180.407 292.925 182.78 291.344 185.214 289.764C186.431 289.034 186.796 287.514 186.066 286.299C185.335 285.083 183.753 284.657 182.536 285.387Z" fill="#FFE8A2"/>
<path d="M206.571 273.655C203.833 274.749 201.095 275.904 198.356 277.12C198.356 277.12 198.356 277.181 198.296 277.181C197.139 277.728 196.714 279.065 197.261 280.22C197.809 281.375 199.147 281.801 200.304 281.253C202.92 279.977 205.536 278.761 208.214 277.606C209.309 277.181 209.796 275.965 209.37 274.871C208.944 273.776 207.666 273.229 206.571 273.655Z" fill="#FFE8A2"/>
<path d="M232.127 265.691C229.206 266.36 226.346 267.15 223.486 267.94C222.452 268.305 221.904 269.278 222.209 270.25C222.513 271.223 223.608 271.77 224.582 271.466C227.381 270.615 230.18 269.764 232.979 269.034C233.891 268.791 234.378 267.88 234.196 266.968C234.013 266.056 233.04 265.448 232.127 265.691Z" fill="#FFE8A2"/>
<path d="M258.413 261.314C255.431 261.618 252.511 261.983 249.59 262.408C248.738 262.53 248.251 263.32 248.373 264.232C248.495 265.022 249.286 265.509 250.077 265.387C252.937 264.84 255.796 264.414 258.717 263.989C259.447 263.867 259.934 263.259 259.873 262.53C259.812 261.801 259.143 261.253 258.413 261.314Z" fill="#FFE8A2"/>
<path d="M285.003 259.916C282.021 259.916 279.101 259.916 276.119 260.037C275.511 260.098 275.146 260.645 275.146 261.192C275.146 261.739 275.632 262.226 276.241 262.165C279.161 261.983 282.082 261.8 285.003 261.739C285.49 261.739 285.915 261.314 285.915 260.828C285.915 260.341 285.49 259.916 285.003 259.916Z" fill="#FFE8A2"/>
<path d="M127.044 263.259C127.044 263.199 127.044 263.199 127.044 263.259C126.983 263.138 126.922 263.138 126.922 263.077C126.192 262.226 125.097 261.861 124.002 262.044C122.298 262.226 120.655 262.469 119.012 262.712C118.951 262.712 118.83 262.712 118.769 262.773C113.049 263.442 105.017 264.901 96.8638 266.603C96.1945 266.056 95.4035 265.691 94.6125 265.387C91.2659 264.111 85.4245 263.563 78.6096 263.867C77.0276 263.928 75.5064 264.05 74.1069 264.171C72.099 264.293 70.091 264.475 68.0831 264.718C67.1095 264.779 66.1968 265.266 65.71 266.117C65.1624 266.542 65.2232 266.907 65.3449 267.089C65.3449 267.089 65.3449 267.089 65.4058 267.089C65.4058 267.15 65.4666 267.211 65.5883 267.211C65.4058 267.94 66.3793 268.427 67.5963 268.609C67.9005 268.67 68.2656 268.731 68.5698 268.731C69.1783 268.731 69.8476 268.731 70.4561 268.791C72.6466 268.852 74.7763 268.974 76.9668 269.095C73.3768 269.764 69.8476 270.554 66.3793 271.588C64.919 271.952 63.4587 272.317 61.9983 272.682C61.2682 272.803 60.5988 273.29 60.2338 273.958C60.0512 274.08 59.9295 274.202 59.8078 274.384C59.6861 274.566 59.747 274.749 59.9295 274.87H59.9904C59.9904 274.992 59.9904 275.053 60.1121 275.113C60.1729 275.174 60.2338 275.174 60.2946 275.174C60.3555 275.296 60.4163 275.417 60.4772 275.478C60.0512 275.6 59.6253 275.721 59.1385 275.843C56.5221 276.633 53.6014 277.545 51.1067 278.457C49.8897 278.822 48.7336 279.186 47.5167 279.612C46.9082 279.794 46.3606 280.22 46.0564 280.828C46.0564 280.828 46.0564 280.828 45.9955 280.888C45.6913 281.192 45.6304 281.436 45.8738 281.679H45.9347C46.0564 282.591 47.2733 283.016 48.4902 283.077C48.6728 283.077 48.8553 283.077 49.0379 283.077C49.0987 283.077 49.0987 283.077 49.1596 283.077H49.2813H49.3421C52.6887 282.651 55.9745 282.104 59.1994 281.496C62.4243 280.888 65.71 280.341 68.9349 279.673C73.8027 278.761 78.6096 277.727 83.3557 276.694C83.0515 276.816 82.7472 276.937 82.443 277.119C80.7393 277.91 78.9139 278.578 77.0276 279.247C75.1413 279.916 73.1942 280.524 71.2471 281.132C70.1519 281.496 69.4217 282.226 69.4825 283.077C69.4825 283.138 69.4217 283.198 69.4217 283.259C69.4217 283.259 69.4217 283.259 69.4217 283.32C69.4217 283.32 69.4217 283.381 69.4825 283.381C69.4825 283.381 69.4825 283.381 69.5434 283.381C69.6042 283.381 69.5434 283.381 69.6042 283.442C69.6042 283.442 69.6042 283.442 69.6042 283.502C70.0302 284.597 71.673 285.265 73.2551 284.961C75.4456 284.597 77.6969 284.171 79.8874 283.685C82.0779 283.198 84.2684 282.651 86.3981 282.043C87.4933 281.739 88.5886 281.375 89.623 281.01C90.1706 280.828 90.7182 280.645 91.2659 280.402C91.8135 280.159 92.3611 279.977 92.9696 279.733C93.5172 279.49 94.0648 279.247 94.6125 278.943C95.2209 278.639 95.7686 278.274 96.3162 277.91C96.9855 277.423 97.594 276.876 98.1416 276.268C98.5067 275.843 98.7501 275.296 98.8718 274.749C98.9326 274.566 98.9326 274.445 98.9326 274.262C98.9326 274.08 98.9326 273.898 98.9326 273.715C98.9326 273.533 98.9326 273.351 98.8718 273.168C101.671 272.499 104.47 271.77 107.208 271.041C110.311 270.189 113.475 269.338 116.517 268.427C118.039 267.94 119.621 267.515 121.142 267.028C122.663 266.542 124.184 266.056 125.705 265.509C126.801 265.083 127.409 264.293 127.105 263.442C127.105 263.381 127.044 263.32 127.044 263.259Z" fill="#B4BBBF"/>
<path d="M127.104 263.442C127.165 263.502 127.165 263.442 127.104 263.442V263.442Z" fill="#B4BBBF"/>
<path d="M135.441 141.437C135.137 134.811 134.711 128.246 134.224 121.681C133.737 115.055 133.129 108.489 132.277 101.924C131.973 99.4925 130.086 97.608 127.713 97.3648C124.793 96.9393 122.115 99.0061 121.75 101.924C120.899 108.55 120.29 115.115 119.803 121.681C119.316 128.307 118.891 134.872 118.586 141.437C117.917 154.568 117.674 167.759 117.552 180.89C117.43 194.02 117.674 207.211 118.282 220.342C118.586 226.968 119.012 233.533 119.56 240.098C119.864 243.381 120.168 246.664 120.533 249.946C120.899 253.229 121.264 256.512 121.811 259.794C122.176 262.104 123.941 263.867 126.253 264.232C129.174 264.718 131.851 262.712 132.338 259.794C132.885 256.512 133.251 253.229 133.616 249.946C133.981 246.664 134.285 243.381 134.589 240.098C135.137 233.472 135.563 226.907 135.867 220.342C136.475 207.211 136.658 194.02 136.536 180.89C136.415 167.759 136.11 154.568 135.441 141.437Z" fill="#87D72F"/>
<path d="M122.237 182.896C122.115 182.714 121.994 182.471 121.872 182.288C121.446 181.619 121.081 180.829 120.716 180.039C119.925 178.337 119.256 176.574 118.708 174.811C118.099 172.987 117.552 171.042 117.065 169.097C116.031 165.206 115.24 161.194 114.57 157.061C113.901 152.927 113.414 148.793 113.049 144.599C112.745 141.681 110.494 139.432 107.573 139.31C104.348 139.006 101.488 141.438 101.245 144.659C100.88 149.097 100.636 153.596 100.575 158.094C100.515 162.592 100.636 167.091 101.001 171.711C101.184 174.021 101.427 176.331 101.792 178.702C102.158 181.133 102.583 183.565 103.192 185.936C103.557 187.212 103.861 188.428 104.348 189.765C104.835 191.163 105.443 192.562 106.113 193.899C107.025 195.662 108.181 197.303 109.581 198.762C110.676 199.856 111.893 200.768 113.232 201.498C113.658 201.741 114.084 201.923 114.57 202.106C115.057 202.288 115.544 202.47 116.031 202.592C117.126 202.896 118.221 203.078 119.377 203.078C124.975 203.017 129.539 198.458 129.6 192.866C129.66 188.124 126.496 184.173 122.237 182.896ZM123.393 184.294C123.211 184.233 123.089 184.051 122.967 183.929C122.846 183.747 122.663 183.565 122.541 183.382C122.906 183.565 123.15 183.808 123.454 184.173C123.515 184.294 123.515 184.355 123.393 184.294Z" fill="#87D72F"/>
<path d="M107.573 139.371C104.348 139.067 101.488 141.498 101.245 144.72C100.88 149.158 100.636 153.656 100.575 158.154C100.515 162.653 100.636 167.151 101.001 171.771C101.184 174.081 101.427 176.391 101.792 178.762C102.158 181.194 102.583 183.625 103.192 185.996C103.557 187.273 103.861 188.488 104.348 189.826C104.835 191.224 105.443 192.622 106.113 193.959C107.025 195.722 108.181 197.364 109.581 198.823C110.676 199.917 111.893 200.829 113.232 201.558C113.718 201.801 114.084 201.984 114.57 202.166C115.057 202.348 115.544 202.531 116.031 202.652C122.42 205.327 121.811 193.96 121.02 193.108C97.594 168.853 110.554 139.553 107.573 139.371Z" fill="#4A8D00"/>
<path d="M108.424 139.553C108.424 139.31 108.302 139.128 108.059 139.128C107.877 139.128 107.694 139.31 107.694 139.492C107.39 158.215 109.276 171.65 119.437 185.206C119.498 185.328 119.62 185.388 119.742 185.388C119.863 185.388 119.924 185.388 119.985 185.328C120.168 185.206 120.168 184.963 120.046 184.78C112.44 174.689 108.059 164.051 108.424 139.553Z" fill="#CAF995"/>
<path d="M108.303 139.614C108.364 139.431 108.181 139.249 107.998 139.188C107.816 139.127 107.573 139.249 107.573 139.492C104.104 159.674 107.877 175.723 119.073 188.549C119.134 188.61 119.255 188.671 119.377 188.671C119.499 188.671 119.559 188.671 119.559 188.61C119.742 188.488 119.742 188.245 119.62 188.063C108.607 175.419 104.895 159.553 108.303 139.614Z" fill="#CAF995"/>
<path d="M110.676 150.373C110.189 145.632 109.763 141.924 108.425 139.249C108.303 139.067 108.06 138.945 107.877 139.067C107.694 139.188 107.573 139.431 107.694 139.614C108.972 142.167 109.337 145.814 109.824 150.495C110.737 158.823 111.893 170.191 119.377 182.713C119.499 182.835 119.621 182.896 119.742 182.896C119.864 182.896 119.925 182.896 119.986 182.774C120.168 182.653 120.229 182.409 120.107 182.227C112.745 169.887 111.528 158.58 110.676 150.373Z" fill="#CAF995"/>
<path d="M113.292 151.893C112.501 145.146 112.075 141.073 108.363 139.067C108.181 139.006 107.877 139.067 107.816 139.249C107.755 139.431 107.816 139.674 107.998 139.796C111.345 141.62 111.771 145.571 112.501 152.076C113.292 159.127 114.387 168.853 119.62 182.227C119.681 182.349 119.803 182.47 119.985 182.47C119.985 182.47 120.046 182.47 120.107 182.349C120.35 182.288 120.411 182.045 120.35 181.862C115.178 168.549 114.083 158.945 113.292 151.893Z" fill="#CAF995"/>
<path d="M127.47 97.2437C124.245 96.4534 122.054 99.3105 121.628 102.289C120.777 108.854 120.229 115.42 119.681 121.985C119.195 128.55 118.769 135.116 118.464 141.681C117.795 154.811 117.491 167.942 117.43 181.072C117.369 194.203 117.552 207.333 118.16 220.464C118.464 227.029 118.89 233.594 119.438 240.16C119.742 243.442 120.046 246.725 120.412 250.008C120.777 253.29 121.142 256.573 121.689 259.856C122.054 262.166 123.819 263.928 126.131 264.293C129.052 264.719 117.43 208.124 127.531 99.0674C127.592 98.7634 127.774 97.3045 127.47 97.2437Z" fill="#4A8D00"/>
<path d="M127.835 97.1828C127.592 97.1828 127.409 97.3044 127.409 97.5476C126.375 116.939 124.854 164.355 126.436 263.746C126.436 263.928 126.557 264.111 126.801 264.111C127.044 264.111 127.227 263.928 127.227 263.746C125.705 164.355 127.166 117 128.2 97.6084C128.2 97.3652 128.078 97.1828 127.835 97.1828Z" fill="#CAF995"/>
<path d="M130.694 170.86C130.633 152.866 130.329 134.629 129.842 120.83C129.355 106.18 128.747 98.2163 128.017 97.1828C127.895 97.0613 127.652 97.0005 127.469 97.1221C127.347 97.2436 127.287 97.4868 127.408 97.6692C128.564 99.2497 129.903 129.766 130.025 170.86C130.207 216.269 128.869 250.859 126.435 263.503C126.374 263.746 126.556 263.928 126.739 263.989H126.8C126.982 263.989 127.165 263.868 127.043 263.685C130.694 244.901 130.755 187.881 130.694 170.86Z" fill="#CAF995"/>
<path d="M128.139 97.0003C127.956 96.9395 127.713 97.0611 127.652 97.2434C127.591 97.4258 127.713 97.669 127.895 97.7298C128.017 97.7905 128.565 98.0945 129.173 100.283C132.033 110.192 134.041 146.118 133.858 185.692C133.676 228.974 130.999 258.822 126.861 263.685C126.8 263.746 126.739 263.807 126.739 263.928C126.739 264.111 126.861 264.293 127.104 264.293C127.226 264.293 127.287 264.293 127.53 264.171C133.919 256.633 134.649 202.227 134.71 185.692C134.893 140.769 132.459 108.611 129.964 100.04C129.417 98.1553 128.808 97.1826 128.139 97.0003Z" fill="#CAF995"/>
<path d="M135.198 126.787C134.224 115.723 132.52 101.742 129.782 97.9729C129.174 97.0611 128.444 96.7571 127.713 96.9395C127.47 97.0003 127.348 97.1827 127.409 97.4258C127.47 97.669 127.713 97.7905 127.896 97.7298C128.078 97.669 128.504 97.5474 129.174 98.4592C133.251 103.991 136.232 137.121 136.475 178.884C136.658 211.832 134.893 253.412 129.356 262.044C128.687 263.077 128.018 263.503 127.348 263.381C127.105 263.32 126.922 263.503 126.862 263.685C126.801 263.928 126.983 264.111 127.166 264.171C127.287 264.232 127.47 264.232 127.592 264.232C128.444 264.232 129.295 263.685 130.026 262.469C135.624 253.716 137.449 211.953 137.266 178.884C137.145 159.674 136.415 141.194 135.198 126.787Z" fill="#CAF995"/>
<path d="M156.251 147.273C153.208 146.179 149.862 147.82 148.767 150.86V150.921C147.367 154.872 145.846 158.823 144.203 162.592C142.56 166.361 140.796 170.13 138.849 173.656C137.875 175.479 136.841 177.182 135.806 178.823C134.833 180.403 133.737 181.923 132.581 183.382C132.034 184.051 131.486 184.719 130.938 185.267C130.817 185.449 130.634 185.571 130.512 185.753C126.01 185.874 121.994 188.914 120.838 193.473C119.438 199.005 122.724 204.598 128.261 205.996C129.356 206.3 130.452 206.361 131.608 206.361C132.155 206.361 132.642 206.3 133.19 206.239C133.677 206.178 134.102 206.117 134.589 205.996C136.05 205.631 137.51 205.023 138.788 204.233C140.491 203.199 142.013 201.862 143.351 200.342C144.386 199.187 145.298 198.032 146.089 196.756C146.88 195.601 147.55 194.507 148.158 193.352C149.314 191.224 150.41 188.975 151.322 186.726C152.235 184.537 153.087 182.349 153.817 180.16C155.277 175.783 156.555 171.407 157.589 167.03C158.624 162.653 159.537 158.276 160.267 153.899C160.754 151.042 159.111 148.307 156.251 147.273ZM128.991 186.908C128.87 186.908 128.87 186.847 128.991 186.726C129.296 186.482 129.661 186.3 130.026 186.178C129.843 186.361 129.661 186.482 129.478 186.604C129.356 186.726 129.174 186.847 128.991 186.908Z" fill="#87D72F"/>
<path d="M149.07 150.921C145.723 159.37 142.377 167.394 138.422 175.479C136.475 179.492 134.102 183.868 131.911 187.637C130.816 189.522 129.66 191.346 128.564 192.865C128.017 193.656 127.408 194.446 127.408 194.446C127.469 194.385 122.723 197.607 121.202 201.862C119.681 206.117 132.398 206.604 135.562 205.57C143.168 205.266 161.239 151.954 155.52 147.334C153.025 145.267 150.287 147.942 149.07 150.921Z" fill="#4A8D00"/>
<path d="M136.657 129.705C133.433 129.584 130.694 132.076 130.573 135.298C130.147 144.416 129.477 153.535 128.443 162.471C127.895 166.969 127.287 171.407 126.435 175.662C126.009 177.79 125.522 179.857 124.975 181.68C124.853 182.106 124.731 182.471 124.549 182.896C122.602 184.416 121.385 186.726 121.385 189.34C121.385 193.838 125.036 197.546 129.599 197.546C129.964 197.546 130.329 197.546 130.694 197.486C131.059 197.486 131.364 197.364 131.729 197.303C132.337 197.121 132.946 196.938 133.493 196.635C133.737 196.513 133.98 196.331 134.224 196.209C134.467 196.087 134.649 195.966 134.832 195.844C135.015 195.723 135.197 195.54 135.38 195.419C135.562 195.297 135.684 195.176 135.806 195.054C135.927 194.932 136.049 194.811 136.171 194.689C136.292 194.568 136.353 194.507 136.475 194.385L136.779 194.081L136.901 193.899L137.023 193.777C137.205 193.595 137.327 193.413 137.448 193.23C137.57 193.048 137.631 192.926 137.753 192.744L137.874 192.501L137.996 192.258L138.239 191.832C138.361 191.528 138.483 191.285 138.605 191.042C138.848 190.556 139.03 190.13 139.152 189.705C139.7 188.246 140.065 186.787 140.369 185.328C140.917 182.653 141.282 180.161 141.525 177.729C142.073 172.805 142.316 168.063 142.499 163.322C142.803 153.839 142.681 144.477 142.316 135.116C142.195 132.076 139.761 129.645 136.657 129.705ZM124.001 184.173L124.062 184.051C124.062 183.99 124.123 183.99 124.123 183.93C124.123 183.869 124.184 183.808 124.184 183.747C124.184 183.808 124.123 183.869 124.123 183.93C124.123 183.99 124.062 184.112 124.001 184.173Z" fill="#87D72F"/>
<path d="M136.779 129.522C133.494 129.401 130.755 131.893 130.634 135.115C130.208 144.234 129.539 153.352 128.504 162.288C127.957 166.786 127.348 171.224 126.496 175.479C125.827 178.64 125.218 181.194 123.332 183.868C121.263 186.665 120.837 190.312 122.359 193.473C122.663 194.202 128.382 200.464 129.234 198.336C138.483 174.993 139.761 129.644 136.779 129.522Z" fill="#4A8D00"/>
<path d="M125.523 190.191H119.499V203.26H125.523V190.191Z" fill="#4A8D00"/>
<path d="M126.314 183.868H120.351V200.16H126.314V183.868Z" fill="#4A8D00"/>
<path d="M136.719 129.523C136.536 129.644 136.475 129.887 136.597 130.07C138.544 132.927 139.396 146.969 138.422 161.316C137.266 179.005 133.98 192.136 129.417 197.364C129.295 197.546 129.295 197.789 129.478 197.911C129.539 197.972 129.599 198.032 129.721 198.032C129.843 198.032 129.904 197.972 129.964 197.85C136.597 190.312 138.666 169.826 139.213 161.376C140.187 146.605 139.335 132.684 137.266 129.644C137.144 129.462 136.901 129.401 136.719 129.523Z" fill="#CAF995"/>
<path d="M136.779 129.34C136.596 129.401 136.414 129.644 136.475 129.826C136.536 130.009 136.779 130.191 136.961 130.13C137.692 130.009 138.422 131.225 139.03 133.535C140.856 140.343 141.099 155.784 139.639 169.34C137.874 185.631 134.284 195.783 129.781 197.242C129.66 197.303 129.538 197.424 129.538 197.607C129.538 197.789 129.66 197.971 129.903 197.971C129.964 197.971 129.964 197.971 130.025 197.971C132.824 197.06 137.935 192.196 140.369 169.4C141.829 155.48 141.586 140.343 139.76 133.291C139.03 130.374 138.057 129.097 136.779 129.34Z" fill="#CAF995"/>
<path d="M155.459 146.605C155.216 146.605 155.094 146.787 155.094 147.03C155.094 147.273 155.277 147.395 155.52 147.395C156.311 147.334 156.92 147.759 157.406 148.793C159.11 152.562 158.258 162.896 155.277 173.96C151.809 186.665 146.697 196.756 141.221 201.741C136.962 205.57 132.581 206.239 128.2 203.686C128.017 203.564 127.774 203.625 127.652 203.807C127.53 203.99 127.591 204.233 127.774 204.355C129.478 205.388 131.425 205.935 133.433 205.996C136.232 205.996 138.97 204.78 141.769 202.288C147.428 197.242 152.6 186.969 156.068 174.142C159.049 162.896 159.901 152.38 158.137 148.428C157.346 146.726 156.25 146.483 155.459 146.605Z" fill="#CAF995"/>
<path d="M138.97 129.583C138.605 129.219 138.057 129.097 137.57 129.34C137.388 129.462 137.266 129.705 137.388 129.887C137.509 130.07 137.753 130.191 137.935 130.07C138.179 129.948 138.422 130.009 138.544 130.191C140.308 131.65 141.769 140.161 142.134 150.981C142.56 163.2 141.465 175.479 139.274 183.868C137.144 192.136 133.919 196.877 129.964 197.607C129.782 197.607 129.66 197.789 129.66 197.972C129.66 198.154 129.782 198.336 130.025 198.336C134.345 197.546 137.692 192.744 139.943 184.051C144.994 164.659 142.986 132.927 138.97 129.583Z" fill="#CAF995"/>
<path d="M155.399 146.604C155.155 146.544 154.973 146.726 154.912 146.908C154.851 147.152 155.034 147.334 155.216 147.395C155.642 147.456 155.946 148.124 156.19 149.218C158.076 158.458 150.713 193.048 138.057 202.044C134.285 204.719 130.451 204.902 126.496 202.592C126.314 202.531 126.07 202.592 125.949 202.774C125.888 202.956 125.949 203.199 126.131 203.321C127.896 204.415 129.904 204.962 131.972 205.023C134.346 204.962 136.597 204.172 138.544 202.652C151.383 193.473 158.867 158.398 156.981 149.036C156.676 147.577 156.129 146.787 155.399 146.604Z" fill="#CAF995"/>
<path d="M121.324 200.039C121.324 200.039 115.3 202.957 126.191 205.631C140.126 209.096 142.681 196.878 142.681 196.878L128.565 201.619L121.324 200.039Z" fill="#4A8D00"/>
<path d="M135.501 195.419C133.798 196.817 131.668 197.668 129.477 197.911L130.634 193.96C129.477 190.616 125.036 198.884 124.853 199.066C124.671 199.248 127.226 201.133 127.53 201.194C127.835 201.254 133.919 201.558 133.919 201.558C133.919 201.558 138.544 192.987 135.501 195.419Z" fill="#4A8D00"/>
</g>
<defs>
<clipPath id="clip0_337_1191">
<rect width="474" height="231" fill="white" transform="translate(9 97)"/>
</clipPath>
</defs>
</svg>
