<svg version="1.1" id="Layer_1" xmlns="http://www.w3.org/2000/svg" xmlns:xlink="http://www.w3.org/1999/xlink" x="0" y="0" viewBox="0 0 820 792" style="enable-background:new 0 0 820 792" xml:space="preserve">
  <style>
    .st6{clip-path:url(#SVGID_14_);fill:#f0f5fa}
  </style>
  <defs>
    <path id="SVGID_1_" d="M20 206.1h779v380H20z"/>
  </defs>
  <defs>
    <path id="SVGID_2_" d="M648.6 401.8c0 75.5-270.6 75.5-270.6 0s58.4-136.7 133.9-136.7 136.7 61.2 136.7 136.7z"/>
  </defs>
  <clipPath id="SVGID_3_">
    <use xlink:href="#SVGID_1_" style="overflow:visible"/>
  </clipPath>
  <clipPath id="SVGID_4_" style="clip-path:url(#SVGID_3_)">
    <use xlink:href="#SVGID_2_" style="overflow:visible"/>
  </clipPath>
  <path style="clip-path:url(#SVGID_4_);fill:#fce0d9" d="M373 260.1h280.6v203.3H373z"/>
  <defs>
    <path id="SVGID_5_" d="M20 206.1h779v380H20z"/>
  </defs>
  <defs>
    <path id="SVGID_6_" d="M746.4 447.1c-.5.3-1 .4-1.6.4H540.6h183.9c1 0 2-.1 2.9-.4h19z"/>
  </defs>
  <clipPath id="SVGID_7_">
    <use xlink:href="#SVGID_5_" style="overflow:visible"/>
  </clipPath>
  <clipPath id="SVGID_8_" style="clip-path:url(#SVGID_7_)">
    <use xlink:href="#SVGID_6_" style="overflow:visible"/>
  </clipPath>
  <path style="clip-path:url(#SVGID_8_);fill:#f0f5fa" d="M535.6 442.1h215.8v10.4H535.6z"/>
  <defs>
    <path id="SVGID_9_" d="M20 206.1h779v380H20z"/>
  </defs>
  <defs>
    <path id="SVGID_10_" d="M763.4 433.8v6.4c0 3.9-3.1 7-7 7h-28.9c-1 .2-1.9.4-2.9.4h-184v10.1H356.1v-35H226.9v12.8c0 6.6-5.4 12-12 12h-46.6c-6.6 0-12-5.4-12-12V416c0-6.6 5.4-12 12-12h5.5v-4.9c0-3.9 3.1-7 7-7H216c-.5-1-.8-2.1-.8-3.2v-16.6c0-3.9 3.1-7 7-7h46v-4.7c0-3.9 3.1-7 7-7h3.3v-43.3c0-3.2 2.5-5.8 5.7-5.9v-11.8c0-3.2 2.6-5.9 5.9-5.9 3.2 0 5.9 2.6 5.9 5.9v4.9c2.5.7 4.2 3 4.2 5.6v11.2h.1c3.2 0 5.9 2.6 5.9 5.9v21.7c.3-.1.7-.1 1.1-.1h5.3c.3 0 .5 0 .8.1.3-2.7 2.3-4.8 4.9-5.2v-37.3c0-.4 0-.8.1-1.1 0-3.9 3.1-7 7-7h3.2v-4.8c0-3.2 2.6-5.9 5.9-5.9 3.2 0 5.9 2.6 5.9 5.9v3.1c.8-.4 1.7-.6 2.5-.6 1 0 1.9.2 2.8.7v-2.9c0-.8.2-1.6.5-2.3v-7.2c0-3.9 3.1-7 7-7h7.1c1.9 0 3.8.8 5.1 2.2 1.3 1.1 2.1 2.8 2.1 4.5v4.3c2.5-2 6.2-1.6 8.2.9.8 1 1.3 2.3 1.3 3.7v1c.5-.2 1.1-.2 1.6-.2 3.2 0 5.9 2.6 5.9 5.9v41.1l8-.2v-56.3c0-2.3 1.4-4.4 3.5-5.3v-15.1c0-2.2 1.8-4 4-4h10.5c2.2 0 4 1.8 4 4v21.1c.6-.2 1.2-.2 1.8-.2h7.7c3.9 0 7 3.1 7 7v25.8h1.4c2.2 0 4 1.8 4 4v39.1h14.4c3.9 0 7 3.1 7 7v4.7h41.7c3.9 0 7 3.1 7 7v16.6c0 1.1-.3 2.2-.8 3.2h36.6c3.9 0 7 3.1 7 7v.2h2.4v-20.5c0-6.6 5.4-12 12-12h23v-62c0-2.4 1.8-4.4 4.2-4.6V225c0-2.6 2.1-4.7 4.7-4.7h10.2c2.6 0 4.7 2.1 4.7 4.7v27.9h2.6v-5.1c0-2.6 2.1-4.7 4.6-4.7h1.1c2.6 0 4.7 2.1 4.7 4.7v26.9c.4-.1.7-.1 1.1-.1h3.3v-27.2c0-2.6 2.1-4.7 4.7-4.7h10.2c2.6 0 4.7 2.1 4.7 4.7v10.1c.4-.1.7-.1 1.1-.1h5.9v-13.8c0-2.6 2.1-4.7 4.7-4.7h10.2c2.6 0 4.7 2.1 4.7 4.7v44.8c0 2.6-2.1 4.6-4.6 4.7V315h3c2.6 0 4.7 2.1 4.7 4.7v47.1H698c6.6 0 12 5.4 12 12v20.5h14.5c6.6 0 12 5.4 12 12v15.6h-1.1v.8h1.1v-.8h19.9c3.9-.1 7 3 7 6.9z"/>
  </defs>
  <clipPath id="SVGID_11_">
    <use xlink:href="#SVGID_9_" style="overflow:visible"/>
  </clipPath>
  <clipPath id="SVGID_12_" style="clip-path:url(#SVGID_11_)">
    <use xlink:href="#SVGID_10_" style="overflow:visible"/>
  </clipPath>
  <path style="clip-path:url(#SVGID_12_);fill:#f0f5fa" d="M151.3 215.3h617.1v247.4H151.3z"/>
  <defs>
    <path id="SVGID_13_" d="M735.5 426.8h1.1v.8h-1.1z"/>
  </defs>
  <clipPath id="SVGID_14_">
    <use xlink:href="#SVGID_13_" style="overflow:visible"/>
  </clipPath>
  <path class="st6" d="M730.5 421.8h11.1v10.8h-11.1z"/>
  <path class="st6" d="M730.5 421.8h11.1v10.8h-11.1z"/>
  <defs>
    <path id="SVGID_15_" d="M20 206.1h779v380H20z"/>
  </defs>
  <defs>
    <path id="SVGID_16_" d="M561.1 400c1.8.2 3.9 0 5.7 0 2.7 0 5.3-.1 8-.1 20.9-.2 42.3-.3 63.4-.3 10.8 0 20.1.4 30.9.3 4.9 0 10.3.1 15.2.2 5 .1 11.4.3 16.3-.1 1.7-.1 8.5-.9 9.4-.8.5.2.9.4 1.3.7-11.2 1.5-22.6 2.2-33.9 2.1-.1 0 6.1 5.7 5.4 5.7-.5 0-10-4.6-10.2-4.6-11.4-.7-22.9 0-34.3-.4-.7 0-1.8 3.9-2.6 3.5-1-.4-1.6-3.7-1.7-3.7-17.1 0-51.3-1.3-52.1-1.1-1.9.3-6.3 2-7.1 2-1.3 0 3.9-2 2.7-2h-8.6c-.1 0-12.7 4.5-13.9 4.4-1-.1 9.9-4.7 9.1-4.8-2.6-.2-5.1-.7-7.6-1.5.1 0 .9-.5 1.1-.4.3.1 1.1.4 1.4.5.7.2 1.4.3 2.1.4z"/>
  </defs>
  <clipPath id="SVGID_17_">
    <use xlink:href="#SVGID_15_" style="overflow:visible"/>
  </clipPath>
  <clipPath id="SVGID_18_" style="clip-path:url(#SVGID_17_)">
    <use xlink:href="#SVGID_16_" style="overflow:visible"/>
  </clipPath>
  <path style="clip-path:url(#SVGID_18_);fill:#f8fafd" d="M549.9 394.1h166.4v18.6H549.9z"/>
  <defs>
    <path id="SVGID_19_" d="M20 206.1h779v380H20z"/>
  </defs>
  <defs>
    <path id="SVGID_20_" d="M559.7 378.4c1.8-1 2.9 2.4 9 2.5 6.4 0 10.1-.3 16.5-.3 12.5-.1 24.9-.1 37.4.4 24.1 1 80.3 3.1 85-.4.4-.3 3 1.8 3 1.8-.9.9-26 5.7-28.8 5.6-.2 0 3.4 5 2.8 5-.1 0-.3-.1-.4-.2-1.8-1.3-6.2-4.9-6.4-4.9-10.5.3-30.6-2.6-43-2.6-.6 0-2.8 6.2-3.3 6-.6-.2-.1-5.9-.7-6-16-3.1-38.4-.3-54.4-.3-.6 0-5.1 3.2-5.7 3.1-.6-.1 3.5-3.1 2.9-3.1-2.3 0-4.6-.1-6.9-.1-1.8 0-11.8 7.3-13 6.5-.8-.5 9.1-7.9 8.5-8.5-1.8-2-3.2-3.7-2.9-4 0-.3.2-.4.4-.5z"/>
  </defs>
  <clipPath id="SVGID_21_">
    <use xlink:href="#SVGID_19_" style="overflow:visible"/>
  </clipPath>
  <clipPath id="SVGID_22_" style="clip-path:url(#SVGID_21_)">
    <use xlink:href="#SVGID_20_" style="overflow:visible"/>
  </clipPath>
  <path style="clip-path:url(#SVGID_22_);fill:#f8fafd" d="M548.7 373.2h166.9V398H548.7z"/>
  <defs>
    <path id="SVGID_23_" d="M20 206.1h779v380H20z"/>
  </defs>
  <defs>
    <path id="SVGID_24_" d="M736.5 422.3c.2-.2-.9-1-1-1-11 2.7-22.8 2.1-34.3 2.1h-9.1c-3 0-6 0-9.1-.1-3 0-6-.1-9.1-.2-3.1-.1-6-.2-9.1-.3-1 0-1.9-.1-2.9-.1-13.5-.6-27-1.5-40.5-.9-10.3.4-20.5 1.7-30.7 2.1-7.7.3-15.9.8-23.4-.7-3-.7-5.8-1.9-8.4-3.5 0 0-1.1.6-.9.8.9 1.4 1.9 2.8 3 4.1.1 0-.6.8-.7.8-.7.7-1.4 1.3-2.1 2-.9.9-1.9 1.7-2.8 2.6-1 .9-1.9 1.8-2.9 2.7-.8.7-1.5 1.5-2.2 2.3-.2.2-.4.5-.6.7-.1.2-.4.5-.4.8.4-.1.7-.3 1-.6 2.2-1.4 4.2-2.9 6.3-4.4 1.8-1.3 3.4-2.8 5.3-4 1.3-.8 3.5-2 4.4-1.9.5.1 2.9.4 5 .6.5.1-4.7 4.9-4.3 5 .3 0 6.4-4.7 6.7-4.7 2.3.3 4.6.4 6.8.4 5.2.2 10.4 0 15.6-.3 10.5-.6 21-1.7 31.5-1.8 5.1 0 11.6.7 16.7.7.5 0-.3 11.8.4 12 .7.2 2.8-11.8 3-11.8 4.5 0 14.5 1.2 19 1.4 10.8.5 23.2.3 34 0 .7 0 8.1 7.7 8.7 7.7 1.2 0-5.4-7.8-4.8-7.8 6.3-.4 16.4.1 22.7-1 4.6-1 5.6-2 9.2-3.7z"/>
  </defs>
  <clipPath id="SVGID_25_">
    <use xlink:href="#SVGID_23_" style="overflow:visible"/>
  </clipPath>
  <clipPath id="SVGID_26_" style="clip-path:url(#SVGID_25_)">
    <use xlink:href="#SVGID_24_" style="overflow:visible"/>
  </clipPath>
  <path style="clip-path:url(#SVGID_26_);fill:#f8fafd" d="M544.3 414.7h197.2v27.8H544.3z"/>
  <defs>
    <path id="SVGID_27_" d="M20 206.1h779v380H20z"/>
  </defs>
  <defs>
    <path id="SVGID_28_" d="M279.5 394.8c2.8.2 5.9 0 8.7 0 4 0 8.1-.1 12.1-.1 31.8-.2 64.2-.4 96.2-.4 16.4 0 30.5.5 46.8.5 7.5 0 15.6.2 23 .3 7.6.1 17.2.4 24.8-.1 2.6-.2 13-1.2 14.3-1.1.7.2 1.4.5 2 1 .1.1-24.6 3-51.4 2.8-.1 0 9.2 7.6 8.1 7.6-.7 0-15.1-6.2-15.4-6.2-17.3-1-34.8 0-52.1-.6-1.1 0-2.7 5.2-4 4.8-1.5-.6-2.4-4.9-2.6-4.9-25.9 0-77.7-1.7-79-1.5-2.9.4-9.6 2.7-10.8 2.7-2 0 5.9-2.7 4.2-2.7h-13c-.2 0-19.3 6-21.1 5.9-1.6-.1 15.1-6.4 13.8-6.5-3.9-.3-7.7-.9-11.5-2 .1 0 1.4-.6 1.7-.6.5.1 1.6.5 2.1.6 1 .2 2 .4 3.1.5z"/>
  </defs>
  <clipPath id="SVGID_29_">
    <use xlink:href="#SVGID_27_" style="overflow:visible"/>
  </clipPath>
  <clipPath id="SVGID_30_" style="clip-path:url(#SVGID_29_)">
    <use xlink:href="#SVGID_28_" style="overflow:visible"/>
  </clipPath>
  <path style="clip-path:url(#SVGID_30_);fill:#f8fafd" d="M265.2 388.7h247.2v21.6H265.2z"/>
  <defs>
    <path id="SVGID_31_" d="M20 206.1h779v380H20z"/>
  </defs>
  <defs>
    <path id="SVGID_32_" d="M225.6 421.5c3.5-1 5.5 2.4 17 2.5 11.9 0 19-.3 30.9-.3 23.4-.1 46.9-.1 70.3.4 45.2 1 151 3.1 159.7-.4.7-.3 5.6 1.8 5.6 1.8-1.7.9-48.9 5.7-54.2 5.6-.4 0 6.4 5 5.2 5-.3 0-.5-.1-.8-.2-3.4-1.3-11.6-4.9-12-4.9-19.8.3-57.6-2.6-80.9-2.6-1 0-5.2 6.2-6.2 6-1.2-.2-.3-5.9-1.3-6-30.1-3.1-72.1-.3-102.2-.3-1.1 0-9.6 3.2-10.8 3.1-1.1-.1 6.6-3.1 5.5-3.1-4.3 0-8.6-.1-13-.1-3.4 0-22.1 7.3-24.3 6.5-1.5-.5 17-7.9 15.9-8.5-3.4-2-6-3.7-5.4-4 .3-.2.6-.4 1-.5z"/>
  </defs>
  <clipPath id="SVGID_33_">
    <use xlink:href="#SVGID_31_" style="overflow:visible"/>
  </clipPath>
  <clipPath id="SVGID_34_" style="clip-path:url(#SVGID_33_)">
    <use xlink:href="#SVGID_32_" style="overflow:visible"/>
  </clipPath>
  <path style="clip-path:url(#SVGID_34_);fill:#f8fafd" d="M209 416.3h305.1v24.8H209z"/>
  <defs>
    <path id="SVGID_35_" d="M20 206.1h779v380H20z"/>
  </defs>
  <defs>
    <path id="SVGID_36_" d="M272 368c2.4.1 4.7.1 7.1 0 3.3 0 6.6-.1 9.9-.1 26-.3 52.5-.4 78.6-.4 13.4 0 24.9.5 38.3.5 6.1 0 12.7.2 18.8.3 6.2.1 14.1.4 20.3-.1 2.2-.2 10.6-1.3 11.6-1.1.6.2 1.1.6 1.6 1 .1.1-20.1 3.2-42 2.9-.1 0 7.5 7.9 6.7 7.9-.6 0-12.4-6.5-12.6-6.5-14.2-1-28.4 0-42.6-.6-.9 0-2.2 5.4-3.3 5-1.3-.6-2-5.1-2.2-5.1-21.2 0-63.5-1.8-64.6-1.6-2.4.5-7.8 2.8-8.8 2.8-1.6 0 4.9-2.8 3.4-2.8h-10.6c-.2 0-15.8 6.3-17.2 6.2-1.3-.1 12.3-6.6 11.3-6.7-3.2-.3-6.3-1-9.4-2.1.1 0 1.2-.7 1.4-.6.4.2 1.3.5 1.7.7.9.1 1.8.3 2.6.4z"/>
  </defs>
  <clipPath id="SVGID_37_">
    <use xlink:href="#SVGID_35_" style="overflow:visible"/>
  </clipPath>
  <clipPath id="SVGID_38_" style="clip-path:url(#SVGID_37_)">
    <use xlink:href="#SVGID_36_" style="overflow:visible"/>
  </clipPath>
  <path style="clip-path:url(#SVGID_38_);fill:#f8fafd" d="M259.3 361.9h203.9v22H259.3z"/>
  <defs>
    <path id="SVGID_39_" d="M20 206.1h779v380H20z"/>
  </defs>
  <defs>
    <path id="SVGID_40_" d="M601.7 327.7c-.3-1.9-.4-3.9-.5-5.8 0-2.6.2-5.1.2-7.7 0-4.1.8-11.1-.4-14.7-.4-1.1-.9-2-1.2-3.1-.4-1.3-.7-2.6-.7-3.9 0-.2 0-.3.1-.5.1-.1.2-.1.3-.1 1-.1 1.7.2 1.7-1.4v-8.4l.3-39.6c0-1.6 1-1 1.7-.7h.1s.1-.1.1-.2c.2-.7.3-1.5.2-2.3-.1-1.8 0-3.5.2-5.3.1-.5.2-1.1.2-1.6.1-.3.1-.6.2-.9v-.1s.1 0 .1.1c.2.6.3 1.2.3 1.8v2.1c0 1.4 0 2.9-.1 4.3-.1 1.8-.1 3.6-.2 5.4l-.1 5.9-.1 6.5-.1 6.8-.1 6.8-.1 6.6-.1 6.1-.1 5.3c0 2.8-.5 6.3.3 8.9.1.4.2.7.3 1.1-.1.6-.2 1.3-.5 1.9-.2.7-.3 1.5-.3 2.2-.1 3.9-.4 7.8-.4 11.7 0 4.3.4 8.6-.4 12.8-.1-.5-.3-.9-.5-1.4.4.4-.2 1.2-.4 1.4z"/>
  </defs>
  <clipPath id="SVGID_41_">
    <use xlink:href="#SVGID_39_" style="overflow:visible"/>
  </clipPath>
  <clipPath id="SVGID_42_" style="clip-path:url(#SVGID_41_)">
    <use xlink:href="#SVGID_40_" style="overflow:visible"/>
  </clipPath>
  <path style="clip-path:url(#SVGID_42_);fill:#f8fafd" d="M594.1 226.4h15.5v106.3h-15.5z"/>
  <defs>
    <path id="SVGID_43_" d="M20 206.1h779v380H20z"/>
  </defs>
  <defs>
    <path id="SVGID_44_" d="M621 251.2c0-.2-.1-.4-.3-.5-1-.6-.9 4.5-1 5.4-1.4 32.9-.4 66 .3 98.9 0 .9.1 1.8.4 2.7 1.6-7.4 1.6-16.2 1.7-24 .1-8.4-.1-16.9-.3-25.3l-.9-52.4c.3-1.6.2-3.2.1-4.8z"/>
  </defs>
  <clipPath id="SVGID_45_">
    <use xlink:href="#SVGID_43_" style="overflow:visible"/>
  </clipPath>
  <clipPath id="SVGID_46_" style="clip-path:url(#SVGID_45_)">
    <use xlink:href="#SVGID_44_" style="overflow:visible"/>
  </clipPath>
  <path style="clip-path:url(#SVGID_46_);fill:#f8fafd" d="M614 245.6h13.1v117H614z"/>
  <defs>
    <path id="SVGID_47_" d="M20 206.1h779v380H20z"/>
  </defs>
  <defs>
    <path id="SVGID_48_" d="M639.7 353.2c-.2-.2-.4-5.9-.4-6.1 0-2.7.2-5.4.2-8.1 0-4.3.6-11.6-.3-15.5-.3-1.1-.7-2.1-.9-3.3-.3-1.3-.5-2.7-.5-4.1 0-.2 0-.3.1-.5 0-.1.1-.1.2-.2.8-.1 1.3.2 1.3-1.5v-8.8c.1-13.9.1-27.8.3-41.7 0-1.7.8-1 1.3-.8h.1s.1-.1.1-.2c.2-.8.2-1.6.1-2.4-.1-1.9 0-3.7.2-5.6.1-.6.1-1.1.2-1.7 0-.3.1-.7.1-1v-.1s.1 0 .1.1c.2.6.2 1.3.2 1.9v2.2c0 1.5 0 3-.1 4.5 0 1.9-.1 3.8-.1 5.7l-.1 6.2-.1 6.8-.1 7.2-.1 7.2-.1 6.9-.1 6.4-.1 5.6c0 3-.4 6.6.2 9.4.1.4.2.8.2 1.2 0 .7-.2 1.3-.4 2-.1.8-.2 1.5-.2 2.3-.1 4.1-.3 8.2-.3 12.3 0 4.5.3 9.1-.3 13.5-.1-.5-.2-1-.4-1.5.2.7 0 1.3-.3 1.7z"/>
  </defs>
  <clipPath id="SVGID_49_">
    <use xlink:href="#SVGID_47_" style="overflow:visible"/>
  </clipPath>
  <clipPath id="SVGID_50_" style="clip-path:url(#SVGID_49_)">
    <use xlink:href="#SVGID_48_" style="overflow:visible"/>
  </clipPath>
  <path style="clip-path:url(#SVGID_50_);fill:#f8fafd" d="M632.8 246.6h14.3v111.6h-14.3z"/>
  <defs>
    <path id="SVGID_51_" d="M20 206.1h779v380H20z"/>
  </defs>
  <defs>
    <path id="SVGID_52_" d="M653 273.9c0-.1-.1-.3-.2-.4-.8-.5-.7 3.3-.8 4-1.1 24.4-.3 48.9.3 73.3 0 .7.1 1.3.3 2 1.3-5.5 1.3-12 1.4-17.8.1-6.3-.1-12.5-.2-18.8l-.7-38.8c.1-1.2 0-2.4-.1-3.5z"/>
  </defs>
  <clipPath id="SVGID_53_">
    <use xlink:href="#SVGID_51_" style="overflow:visible"/>
  </clipPath>
  <clipPath id="SVGID_54_" style="clip-path:url(#SVGID_53_)">
    <use xlink:href="#SVGID_52_" style="overflow:visible"/>
  </clipPath>
  <path style="clip-path:url(#SVGID_54_);fill:#f8fafd" d="M646.5 268.4h12.6v89.3h-12.6z"/>
  <defs>
    <path id="SVGID_55_" d="M20 206.1h779v380H20z"/>
  </defs>
  <defs>
    <path id="SVGID_56_" d="M640.7 245c-1.7-.4-3.5-.5-5.2-.3-.9.1-1.8 0-2.7-.3-.8-.2-1.5-.5-2.4 0-.5.5-.8 1.1-.7 1.8-.4 5.2.5 10.5.6 15.7.1 2.7.1 5.4-.1 8.1-.1.3-.1.6-.1 1 0 0 .2 1.1.7-1.2.3-1.7.4-3.5.3-5.2.1-3 .2-5.9.3-8.9.1-2.3.2-4.7.5-7 .1-.7 0-2 .8-2.4.2-.1.4-.1.6-.1 1.8 0 3.6.1 5.4.3.8.1 1.6.1 2.3.1.7-.1 1.5-.3 2.2-.5-.3-.6-1.7-.9-2.5-1.1z"/>
  </defs>
  <clipPath id="SVGID_57_">
    <use xlink:href="#SVGID_55_" style="overflow:visible"/>
  </clipPath>
  <clipPath id="SVGID_58_" style="clip-path:url(#SVGID_57_)">
    <use xlink:href="#SVGID_56_" style="overflow:visible"/>
  </clipPath>
  <path style="clip-path:url(#SVGID_58_);fill:#f8fafd" d="M624.6 239.1h23.6v37.1h-23.6z"/>
  <defs>
    <path id="SVGID_59_" d="M20 206.1h779v380H20z"/>
  </defs>
  <defs>
    <path id="SVGID_60_" d="M666 241.5c-1.5-.2-3.1-.3-4.7-.2-.8 0-1.6 0-2.4-.2-.7-.2-1.4-.2-2.1 0-.4.2-.7.7-.7 1.1-.3 3.2.5 6.5.6 9.8.1 1.7 0 3.4-.1 5.1-.1.2-.1.4-.1.6 0 0 .1.7.6-.7.2-1.1.3-2.2.3-3.2.1-1.8.1-3.7.3-5.5.1-1.5.2-2.9.5-4.4.1-.4 0-1.3.7-1.5.2 0 .4-.1.6-.1 1.6 0 3.2 0 4.8.2.7.1 1.4.1 2.1.1.7-.1 1.3-.2 1.9-.3-.6-.5-1.4-.8-2.3-.8z"/>
  </defs>
  <clipPath id="SVGID_61_">
    <use xlink:href="#SVGID_59_" style="overflow:visible"/>
  </clipPath>
  <clipPath id="SVGID_62_" style="clip-path:url(#SVGID_61_)">
    <use xlink:href="#SVGID_60_" style="overflow:visible"/>
  </clipPath>
  <path style="clip-path:url(#SVGID_62_);fill:#f8fafd" d="M651 235.9h22.3v26.9H651z"/>
  <defs>
    <path id="SVGID_63_" d="M20 206.1h779v380H20z"/>
  </defs>
  <defs>
    <path id="SVGID_64_" d="M604 222.6c-1.7-.4-3.5-.5-5.2-.3-.9.1-1.8 0-2.7-.3-.8-.2-1.5-.5-2.4 0-.5.5-.8 1.1-.7 1.8-.4 5.2.5 10.5.6 15.7.1 2.7.1 5.4-.1 8.1-.1.3-.1.6-.1 1 0 0 .2 1.1.7-1.2.3-1.7.4-3.5.3-5.2.1-3 .2-5.9.3-8.9.1-2.3.2-4.7.5-7 .1-.7 0-2 .8-2.4.2-.1.4-.1.6-.1 1.8 0 3.6.1 5.4.3.8.1 1.6.1 2.3.1.7-.1 1.5-.3 2.2-.5-.3-.5-1.8-.9-2.5-1.1z"/>
  </defs>
  <clipPath id="SVGID_65_">
    <use xlink:href="#SVGID_63_" style="overflow:visible"/>
  </clipPath>
  <clipPath id="SVGID_66_" style="clip-path:url(#SVGID_65_)">
    <use xlink:href="#SVGID_64_" style="overflow:visible"/>
  </clipPath>
  <path style="clip-path:url(#SVGID_66_);fill:#f8fafd" d="M587.9 216.7h23.6v37.1h-23.6z"/>
  <defs>
    <path id="SVGID_67_" d="M20 206.1h779v380H20z"/>
  </defs>
  <defs>
    <path id="SVGID_68_" d="M664.2 357.2c.2-.2.5-5.9.5-6.1 0-2.7-.2-5.4-.2-8.1 0-4.3-.7-11.6.3-15.5.3-1.1.8-2.2 1.1-3.3.4-1.3.6-2.7.6-4.1 0-.2 0-.3-.1-.5-.1-.1-.2-.2-.3-.2-.9-.1-1.5.2-1.5-1.5v-8.8l-.3-41.7c0-1.7-.9-1-1.5-.8h-.1s-.1-.1-.1-.2c-.2-.8-.2-1.6-.2-2.4.1-1.9 0-3.7-.2-5.6-.1-.6-.1-1.1-.2-1.7 0-.3-.1-.7-.2-1v-.1s-.1 0-.1.1c-.2.6-.3 1.3-.3 1.9v2.2c0 1.5 0 3 .1 4.5.1 1.9.1 3.8.2 5.7l.1 6.2.1 6.8.1 7.2.1 7.2.1 6.9.1 6.4.1 5.6c0 3 .5 6.6-.3 9.4-.1.4-.2.8-.2 1.2.1.7.2 1.3.5 2 .2.8.2 1.5.2 2.3.1 4.1.3 8.2.4 12.3 0 4.5-.3 9.1.4 13.5.1-.5.3-1 .5-1.5-.5.6.1 1.5.3 1.7z"/>
  </defs>
  <clipPath id="SVGID_69_">
    <use xlink:href="#SVGID_67_" style="overflow:visible"/>
  </clipPath>
  <clipPath id="SVGID_70_" style="clip-path:url(#SVGID_69_)">
    <use xlink:href="#SVGID_68_" style="overflow:visible"/>
  </clipPath>
  <path style="clip-path:url(#SVGID_70_);fill:#f8fafd" d="M656.4 250.6h15.1v111.6h-15.1z"/>
  <defs>
    <path id="SVGID_71_" d="M20 206.1h779v380H20z"/>
  </defs>
  <defs>
    <path id="SVGID_72_" d="M417 281.8c1.7-.4 3.5-.5 5.2-.3.9.1 1.8 0 2.7-.3.8-.2 1.5-.5 2.4 0 .5.5.8 1.1.7 1.8.4 5.2-.5 10.5-.6 15.7-.1 2.7-.1 5.4.1 8.1.1.3.1.6.1 1 0 0-.2 1.1-.7-1.2-.3-1.7-.4-3.5-.3-5.2-.1-3-.2-5.9-.3-8.9-.1-2.3-.2-4.7-.5-7-.1-.7 0-2-.8-2.4-.2-.1-.4-.1-.6-.1-1.8 0-3.6.1-5.4.3-.8.1-1.6.1-2.3.1-.7-.1-1.5-.3-2.2-.5.3-.5 1.7-.9 2.5-1.1z"/>
  </defs>
  <clipPath id="SVGID_73_">
    <use xlink:href="#SVGID_71_" style="overflow:visible"/>
  </clipPath>
  <clipPath id="SVGID_74_" style="clip-path:url(#SVGID_73_)">
    <use xlink:href="#SVGID_72_" style="overflow:visible"/>
  </clipPath>
  <path style="clip-path:url(#SVGID_74_);fill:#f8fafd" d="M409.5 275.9h23.6V313h-23.6z"/>
  <defs>
    <path id="SVGID_75_" d="M20 206.1h779v380H20z"/>
  </defs>
  <defs>
    <path id="SVGID_76_" d="M402.4 254.8c1.6-.4 3.3-.5 5-.3.9.1 1.7 0 2.5-.3.8-.2 1.5-.5 2.2 0 .5.5.7 1.2.7 1.8.3 5.2-.5 10.5-.6 15.7-.1 2.7-.1 5.4.1 8.1.1.3.1.6.1 1 0 0-.1 1.1-.6-1.2-.2-1.7-.3-3.5-.3-5.2-.1-3-.2-5.9-.3-8.9-.1-2.3-.2-4.7-.5-7-.1-.7 0-2-.8-2.4-.2-.1-.4-.1-.6-.1-1.7 0-3.5.1-5.2.3-.7.1-1.5.2-2.2.1-.7-.1-1.4-.3-2.1-.5.5-.6 1.9-.9 2.6-1.1z"/>
  </defs>
  <clipPath id="SVGID_77_">
    <use xlink:href="#SVGID_75_" style="overflow:visible"/>
  </clipPath>
  <clipPath id="SVGID_78_" style="clip-path:url(#SVGID_77_)">
    <use xlink:href="#SVGID_76_" style="overflow:visible"/>
  </clipPath>
  <path style="clip-path:url(#SVGID_78_);fill:#f8fafd" d="M394.8 248.9h23.1V286h-23.1z"/>
  <defs>
    <path id="SVGID_79_" d="M20 206.1h779v380H20z"/>
  </defs>
  <defs>
    <path id="SVGID_80_" d="M354.3 273.3c1.6-.4 3.3-.5 5-.3.9.1 1.7 0 2.5-.3.8-.2 1.5-.5 2.2 0 .5.5.7 1.2.7 1.8.3 5.2-.5 10.5-.6 15.7-.1 2.7-.1 5.4.1 8.1.1.3.1.6.1 1 0 0-.1 1.1-.6-1.2-.3-1.7-.3-3.5-.3-5.2-.1-3-.2-5.9-.3-8.9-.1-2.3-.2-4.7-.5-7-.1-.7 0-2-.8-2.4-.2-.1-.4-.1-.6-.1-1.7 0-3.5.1-5.2.3-.7.1-1.5.1-2.2.1-.7-.1-1.4-.3-2.1-.5.5-.5 1.8-.9 2.6-1.1z"/>
  </defs>
  <clipPath id="SVGID_81_">
    <use xlink:href="#SVGID_79_" style="overflow:visible"/>
  </clipPath>
  <clipPath id="SVGID_82_" style="clip-path:url(#SVGID_81_)">
    <use xlink:href="#SVGID_80_" style="overflow:visible"/>
  </clipPath>
  <path style="clip-path:url(#SVGID_82_);fill:#f8fafd" d="M346.7 267.4h23.1v37.1h-23.1z"/>
  <defs>
    <path id="SVGID_83_" d="M20 206.1h779v380H20z"/>
  </defs>
  <defs>
    <path id="SVGID_84_" d="M426.2 315.4c.3-.1.5-.3.6-.3l3.4-1.5c.9-.4 1.9-.7 2.8-.7 1.1 0 1.4.5 1.5.9.2.6.2 1.3 0 2-1.4 6.3-.5 8.9-.5 8.9s-.2.5-.8-.5c-.6-1-.5-9.5-3-9-1.6.4-3.3.8-4.9 1.1-.5.1-.9.2-1.4.2.8-.5 1.6-.8 2.3-1.1z"/>
  </defs>
  <clipPath id="SVGID_85_">
    <use xlink:href="#SVGID_83_" style="overflow:visible"/>
  </clipPath>
  <clipPath id="SVGID_86_" style="clip-path:url(#SVGID_85_)">
    <use xlink:href="#SVGID_84_" style="overflow:visible"/>
  </clipPath>
  <path style="clip-path:url(#SVGID_86_);fill:#f8fafd" d="M418.9 307.9h20.8v21.9h-20.8z"/>
  <defs>
    <path id="SVGID_87_" d="M20 206.1h779v380H20z"/>
  </defs>
  <defs>
    <path id="SVGID_88_" d="M375.8 291.6c.2-.1.4-.3.5-.3l2.6-1.5c.6-.4 1.4-.7 2.2-.7.5 0 1 .3 1.2.9.2.6.2 1.3 0 2-1.1 6.3-.4 8.9-.4 8.9s-.1.5-.6-.5-.4-9.5-2.3-9c-1.2.4-2.5.8-3.8 1.1-.3.1-.7.2-1.1.2.6-.4 1.1-.7 1.7-1.1z"/>
  </defs>
  <clipPath id="SVGID_89_">
    <use xlink:href="#SVGID_87_" style="overflow:visible"/>
  </clipPath>
  <clipPath id="SVGID_90_" style="clip-path:url(#SVGID_89_)">
    <use xlink:href="#SVGID_88_" style="overflow:visible"/>
  </clipPath>
  <path style="clip-path:url(#SVGID_90_);fill:#f8fafd" d="M369.1 284.1h18.4V306h-18.4z"/>
  <defs>
    <path id="SVGID_91_" d="M20 206.1h779v380H20z"/>
  </defs>
  <defs>
    <path id="SVGID_92_" d="M293.4 302.9c.2-.1.3-.3.4-.3l2-1.5c.5-.4 1.1-.7 1.7-.7.5 0 .9.4.9.9.1.6.1 1.3 0 2-.8 6.3-.3 8.9-.3 8.9s-.1.5-.5-.5-.3-9.5-1.8-9c-1 .4-1.9.8-2.9 1.1-.3.1-.5.2-.8.2.5-.5.9-.8 1.3-1.1z"/>
  </defs>
  <clipPath id="SVGID_93_">
    <use xlink:href="#SVGID_91_" style="overflow:visible"/>
  </clipPath>
  <clipPath id="SVGID_94_" style="clip-path:url(#SVGID_93_)">
    <use xlink:href="#SVGID_92_" style="overflow:visible"/>
  </clipPath>
  <path style="clip-path:url(#SVGID_94_);fill:#f8fafd" d="M287.1 295.4h16.4v21.9h-16.4z"/>
  <defs>
    <path id="SVGID_95_" d="M20 206.1h779v380H20z"/>
  </defs>
  <defs>
    <path id="SVGID_96_" d="M298.3 320.5c.2-.1.3-.3.4-.3l2-1.5c.5-.4 1.1-.7 1.7-.7.5 0 .9.4.9.9.1.6.1 1.3 0 2-.8 6.3-.3 8.9-.3 8.9s-.1.5-.5-.5-.3-9.5-1.8-9c-1 .4-1.9.8-2.9 1.1-.3.1-.5.2-.8.2.4-.4.9-.7 1.3-1.1z"/>
  </defs>
  <clipPath id="SVGID_97_">
    <use xlink:href="#SVGID_95_" style="overflow:visible"/>
  </clipPath>
  <clipPath id="SVGID_98_" style="clip-path:url(#SVGID_97_)">
    <use xlink:href="#SVGID_96_" style="overflow:visible"/>
  </clipPath>
  <path style="clip-path:url(#SVGID_98_);fill:#f8fafd" d="M292 313h16.4v21.9H292z"/>
  <g>
    <defs>
      <path id="SVGID_99_" d="M20 206.1h779v380H20z"/>
    </defs>
    <defs>
      <path id="SVGID_100_" d="M322.6 295.6c.2-.1.3-.3.4-.3l2-1.5c.5-.4 1.1-.7 1.7-.7.5 0 .9.4.9.9.1.6.1 1.3 0 2-.8 6.3-.3 8.9-.3 8.9s-.1.5-.5-.5-.3-9.5-1.8-9c-1 .4-1.9.8-2.9 1.1-.3.1-.5.2-.8.2.5-.4.9-.8 1.3-1.1z"/>
    </defs>
    <clipPath id="SVGID_101_">
      <use xlink:href="#SVGID_99_" style="overflow:visible"/>
    </clipPath>
    <clipPath id="SVGID_102_" style="clip-path:url(#SVGID_101_)">
      <use xlink:href="#SVGID_100_" style="overflow:visible"/>
    </clipPath>
    <path style="clip-path:url(#SVGID_102_);fill:#f8fafd" d="M316.3 288.1h16.4V310h-16.4z"/>
  </g>
  <g>
    <defs>
      <path id="SVGID_103_" d="M20 206.1h779v380H20z"/>
    </defs>
    <defs>
      <path id="SVGID_104_" d="M356 284.1c0-.1-.1-.3-.3-.3-1.1-.4-1 3-1 3.5-1.4 21.6-.4 43.3.4 64.9 0 .6.1 1.2.4 1.7 1.7-4.8 1.7-10.7 1.8-15.8.1-5.5-.1-11.1-.3-16.6l-.9-34.4c.1-.9.1-2-.1-3z"/>
    </defs>
    <clipPath id="SVGID_105_">
      <use xlink:href="#SVGID_103_" style="overflow:visible"/>
    </clipPath>
    <clipPath id="SVGID_106_" style="clip-path:url(#SVGID_105_)">
      <use xlink:href="#SVGID_104_" style="overflow:visible"/>
    </clipPath>
    <path style="clip-path:url(#SVGID_106_);fill:#f8fafd" d="M349 278.8h13.3v80.1H349z"/>
  </g>
  <g>
    <defs>
      <path id="SVGID_107_" d="M20 206.1h779v380H20z"/>
    </defs>
    <defs>
      <path id="SVGID_108_" d="M371.9 367.1c-.3-1.3-.4-2.6-.5-4 0-1.7.2-3.5.2-5.2 0-2.8.8-7.5-.4-10-.4-.7-.9-1.4-1.2-2.1-.4-.8-.7-1.7-.7-2.7 0-.1 0-.2.1-.3.1-.1.2-.1.3-.1 1-.1 1.6.2 1.7-1V336l.3-26.9c0-1.1 1-.7 1.7-.5.1 0 .2 0 .2-.1.2-.5.3-1 .2-1.5-.1-1.2 0-2.4.2-3.6.1-.4.2-.7.2-1.1.1-.2.1-.4.2-.6v-.1s.1 0 .1.1c.2.4.3.8.3 1.2v1.4c0 1 0 1.9-.1 2.9-.1 1.2-.1 2.4-.2 3.7l-.1 4-.1 4.4-.1 4.6-.1 4.6-.1 4.5-.1 4.1-.1 3.6c0 1.9-.5 4.3.3 6.1.1.2.2.5.3.8 0 .5-.3.8-.5 1.3s-.3 1-.3 1.5c-.1 2.6-.4 5.3-.4 7.9 0 2.9.4 5.9-.4 8.7 0-.1-.4-.8-.5-1 .4.4-.2.9-.4 1.1z"/>
    </defs>
    <clipPath id="SVGID_109_">
      <use xlink:href="#SVGID_107_" style="overflow:visible"/>
    </clipPath>
    <clipPath id="SVGID_110_" style="clip-path:url(#SVGID_109_)">
      <use xlink:href="#SVGID_108_" style="overflow:visible"/>
    </clipPath>
    <path style="clip-path:url(#SVGID_110_);fill:#f8fafd" d="M364.3 296.6h15.5v75.5h-15.5z"/>
  </g>
  <g>
    <defs>
      <path id="SVGID_111_" d="M20 206.1h779v380H20z"/>
    </defs>
    <defs>
      <path id="SVGID_112_" d="M404.8 268.2c0-.1-.1-.3-.1-.4-.5-.5-.5 3.5-.5 4.2-.7 25.9-.2 52 .2 77.9 0 .7 0 1.4.2 2.1.8-5.8.8-12.8.9-18.9.1-6.6-.1-13.3-.1-19.9L405 272c-.1-1.3-.2-2.6-.2-3.8z"/>
    </defs>
    <clipPath id="SVGID_113_">
      <use xlink:href="#SVGID_111_" style="overflow:visible"/>
    </clipPath>
    <clipPath id="SVGID_114_" style="clip-path:url(#SVGID_113_)">
      <use xlink:href="#SVGID_112_" style="overflow:visible"/>
    </clipPath>
    <path style="clip-path:url(#SVGID_114_);fill:#f8fafd" d="M398.8 262.7h11.7v94.2h-11.7z"/>
  </g>
  <g>
    <defs>
      <path id="SVGID_115_" d="M20 206.1h779v380H20z"/>
    </defs>
    <defs>
      <path id="SVGID_116_" d="M416.6 289.6c0-.1-.1-.3-.2-.3-.8-.4-.7 3-.7 3.5-1 21.6-.3 43.3.3 64.9 0 .6.1 1.2.3 1.7 1.2-4.8 1.2-10.7 1.3-15.8.1-5.5-.1-11.1-.2-16.6l-.6-34.4c-.1-.9-.1-1.9-.2-3z"/>
    </defs>
    <clipPath id="SVGID_117_">
      <use xlink:href="#SVGID_115_" style="overflow:visible"/>
    </clipPath>
    <clipPath id="SVGID_118_" style="clip-path:url(#SVGID_117_)">
      <use xlink:href="#SVGID_116_" style="overflow:visible"/>
    </clipPath>
    <path style="clip-path:url(#SVGID_118_);fill:#f8fafd" d="M410.2 284.3h12.4v80.1h-12.4z"/>
  </g>
  <g>
    <defs>
      <path id="SVGID_119_" d="M20 206.1h779v380H20z"/>
    </defs>
    <defs>
      <path id="SVGID_120_" d="M335.9 299c0-.1-.1-.2-.2-.3-.8-.3-.7 2.4-.7 2.8-1 17.2-.3 34.5.3 51.7 0 .5.1 1 .3 1.4 1.2-3.9 1.2-8.5 1.3-12.5.1-4.4-.1-8.8-.2-13.2l-.7-27.4c0-.8 0-1.6-.1-2.5z"/>
    </defs>
    <clipPath id="SVGID_121_">
      <use xlink:href="#SVGID_119_" style="overflow:visible"/>
    </clipPath>
    <clipPath id="SVGID_122_" style="clip-path:url(#SVGID_121_)">
      <use xlink:href="#SVGID_120_" style="overflow:visible"/>
    </clipPath>
    <path style="clip-path:url(#SVGID_122_);fill:#f8fafd" d="M329.5 293.7h12.4v65.9h-12.4z"/>
  </g>
  <g>
    <defs>
      <path id="SVGID_123_" d="M20 206.1h779v380H20z"/>
    </defs>
    <defs>
      <path id="SVGID_124_" d="m332.5 284.9.4-.3 2-1.5c.5-.4 1.1-.7 1.7-.7.5 0 .9.4.9.9.1.6.1 1.3 0 2-.8 6.3-.3 8.9-.3 8.9s-.1.5-.5-.5-.3-9.5-1.8-9c-1 .4-1.9.8-2.9 1.1-.3.1-.5.2-.8.2.4-.4.9-.8 1.3-1.1z"/>
    </defs>
    <clipPath id="SVGID_125_">
      <use xlink:href="#SVGID_123_" style="overflow:visible"/>
    </clipPath>
    <clipPath id="SVGID_126_" style="clip-path:url(#SVGID_125_)">
      <use xlink:href="#SVGID_124_" style="overflow:visible"/>
    </clipPath>
    <path style="clip-path:url(#SVGID_126_);fill:#f8fafd" d="M326.2 277.4h16.4v21.9h-16.4z"/>
  </g>
  <g>
    <defs>
      <path id="SVGID_127_" d="M20 206.1h779v380H20z"/>
    </defs>
    <defs>
      <path id="SVGID_128_" d="M322.5 300.8c0-.1-.1-.2-.2-.2-.7-.2-.6 1.6-.7 1.9-.9 11.8-.2 23.7.2 35.5 0 .3.1.7.3 1 1.1-2.6 1.1-5.8 1.2-8.6.1-3-.1-6.1-.2-9.1l-.6-18.8c.1-.5.1-1.1 0-1.7z"/>
    </defs>
    <clipPath id="SVGID_129_">
      <use xlink:href="#SVGID_127_" style="overflow:visible"/>
    </clipPath>
    <clipPath id="SVGID_130_" style="clip-path:url(#SVGID_129_)">
      <use xlink:href="#SVGID_128_" style="overflow:visible"/>
    </clipPath>
    <path style="clip-path:url(#SVGID_130_);fill:#f8fafd" d="M316.2 295.6h12.2V344h-12.2z"/>
  </g>
  <g>
    <defs>
      <path id="SVGID_131_" d="M20 206.1h779v380H20z"/>
    </defs>
    <defs>
      <path id="SVGID_132_" d="M292 311.4c0-.1-.1-.2-.2-.3-.7-.3-.6 2.5-.6 3-.9 18.5-.2 37 .2 55.5 0 .5.1 1 .2 1.5 1.1-4.1 1.1-9.1 1.1-13.5.1-4.7-.1-9.5-.2-14.2l-.6-29.4c.3-.8.3-1.7.1-2.6z"/>
    </defs>
    <clipPath id="SVGID_133_">
      <use xlink:href="#SVGID_131_" style="overflow:visible"/>
    </clipPath>
    <clipPath id="SVGID_134_" style="clip-path:url(#SVGID_133_)">
      <use xlink:href="#SVGID_132_" style="overflow:visible"/>
    </clipPath>
    <path style="clip-path:url(#SVGID_134_);fill:#f8fafd" d="M285.8 306.1h12v70h-12z"/>
  </g>
  <g>
    <defs>
      <path id="SVGID_135_" d="M20 206.1h779v380H20z"/>
    </defs>
    <defs>
      <path id="SVGID_136_" d="M284.2 307.9c0-.1-.1-.2-.2-.3-.7-.3-.6 2.5-.6 3-.9 18.5-.2 37 .2 55.5 0 .5.1 1 .2 1.5 1.1-4.1 1.1-9.1 1.1-13.5.1-4.7-.1-9.5-.2-14.2l-.6-29.4c.2-.8.2-1.7.1-2.6z"/>
    </defs>
    <clipPath id="SVGID_137_">
      <use xlink:href="#SVGID_135_" style="overflow:visible"/>
    </clipPath>
    <clipPath id="SVGID_138_" style="clip-path:url(#SVGID_137_)">
      <use xlink:href="#SVGID_136_" style="overflow:visible"/>
    </clipPath>
    <path style="clip-path:url(#SVGID_138_);fill:#f8fafd" d="M278 302.6h12v70h-12z"/>
  </g>
  <g>
    <defs>
      <path id="SVGID_139_" d="M20 206.1h779v380H20z"/>
    </defs>
    <defs>
      <path id="SVGID_140_" d="M367.8 284.6c.2-.1.4-.1.5-.1l2.6-.7c.7-.2 1.4-.3 2.2-.3.9 0 1.1.2 1.2.4.2.3.2.6 0 .9-1.1 2.8-.4 4-.4 4s-.1.2-.6-.2-.4-4.3-2.3-4c-1.2.2-2.5.3-3.8.5-.4.1-.7.1-1.1.1.1-.2 1.1-.5 1.7-.6z"/>
    </defs>
    <clipPath id="SVGID_141_">
      <use xlink:href="#SVGID_139_" style="overflow:visible"/>
    </clipPath>
    <clipPath id="SVGID_142_" style="clip-path:url(#SVGID_141_)">
      <use xlink:href="#SVGID_140_" style="overflow:visible"/>
    </clipPath>
    <path style="clip-path:url(#SVGID_142_);fill:#f8fafd" d="M361.1 278.5h18.4v15.4h-18.4z"/>
  </g>
  <g>
    <defs>
      <path id="SVGID_143_" d="M20 206.1h779v380H20z"/>
    </defs>
    <defs>
      <path id="SVGID_144_" d="M287.7 291c.2-.1.3-.2.4-.2l2-1.2c.5-.3 1.1-.5 1.7-.5.4 0 .8.2.9.6.1.5.1 1 0 1.5-.8 4.8-.3 6.7-.3 6.7s-.1.4-.5-.4-.3-7.2-1.8-6.8c-1 .3-1.9.6-2.9.9-.3.1-.5.1-.8.1.4-.2.9-.4 1.3-.7z"/>
    </defs>
    <clipPath id="SVGID_145_">
      <use xlink:href="#SVGID_143_" style="overflow:visible"/>
    </clipPath>
    <clipPath id="SVGID_146_" style="clip-path:url(#SVGID_145_)">
      <use xlink:href="#SVGID_144_" style="overflow:visible"/>
    </clipPath>
    <path style="clip-path:url(#SVGID_146_);fill:#f8fafd" d="M281.4 284.1h16.4V303h-16.4z"/>
  </g>
  <g>
    <defs>
      <path id="SVGID_147_" d="M20 206.1h779v380H20z"/>
    </defs>
    <defs>
      <path id="SVGID_148_" d="M619.5 247.9c-.2-.1-.3-.3-.4-.3l-2.1-1.5c-.5-.4-1.1-.7-1.8-.7-.5 0-.9.4-1 .9-.1.6-.1 1.3 0 2 .9 6.3.3 8.9.3 8.9s.1.5.5-.5.3-9.5 1.8-9c1 .4 2 .8 3.1 1.1.3.1.6.2.9.2-.5-.4-.9-.7-1.3-1.1z"/>
    </defs>
    <clipPath id="SVGID_149_">
      <use xlink:href="#SVGID_147_" style="overflow:visible"/>
    </clipPath>
    <clipPath id="SVGID_150_" style="clip-path:url(#SVGID_149_)">
      <use xlink:href="#SVGID_148_" style="overflow:visible"/>
    </clipPath>
    <path style="clip-path:url(#SVGID_150_);fill:#f8fafd" d="M609.1 240.4h16.7v21.9h-16.7z"/>
  </g>
  <g>
    <defs>
      <path id="SVGID_151_" d="M20 206.1h779v380H20z"/>
    </defs>
    <defs>
      <path id="SVGID_152_" d="M772.1 461.5v7c0 3.6-2.4 6.7-5.8 7.7-.7.2-1.5.3-2.2.3h-61.2V498c0 2.8-2.2 5-5 5H160.1c-2.8 0-5-2.2-5-5v-21H93.2c-2.8 0-5-2.2-5-5v-13c0-2.8 2.2-5 5-5h30.6c1.4-2.4 4-3.9 6.9-3.9h2.6c1.5-1.8 3.7-2.8 6.1-2.8h12.1v-2.9c0-4.4 3.6-8 8-8H177v-1.2c0-4.4 3.6-8 8-8h6.9c1.4-2.6 4.1-4.3 7.1-4.3h13.5v-8.4c0-4.4 3.6-8 8-8h22.8v-6.8c0-4.4 3.6-8 8-8h18.4c3.7 0 6.8 2.5 7.8 6 4.1.4 7.2 3.8 7.2 8v.9c3.9.6 6.8 4 6.8 7.9v8.2h3.2c1.3 0 2.5.3 3.6.9.7-3.7 3.8-6.4 7.5-6.5v-.8c0-4.4 3.6-8 8-8h5.1c1.5-2.4 4-3.8 6.8-3.8h11.5c2.8 0 5.4 1.5 6.8 3.8h1.3c4.4 0 8 3.6 8 8 0 .4 0 .7-.1 1.1 4.2.3 7.4 3.8 7.4 8v.1h15.5c4.4 0 8 3.6 8 8v3H413c4.4 0 8 3.6 8 8v2.9h51.5c3.9 0 7.2 2.8 7.9 6.7h47.7c.1-.2.1-.4.2-.6 1.2-3.1 4.2-5.2 7.5-5.2h6.9c1.4-2.6 4.1-4.3 7.1-4.3h13.5v-8.4c0-4.4 3.6-8 8-8h22.8v-6.8c0-4.4 3.6-8 8-8h18.4c3.7 0 6.8 2.5 7.8 6 4.1.4 7.2 3.8 7.2 8v.9c3.9.6 6.8 4 6.8 7.9v2.2h18.2c1.5 0 3 .4 4.2 1.2 1.1-2.2 3.2-3.7 5.6-4.2v-1.5c0-4.4 3.6-8 8-8h9c3.3 0 6.3 2.1 7.5 5.1h2.4c2.7 0 5.2 1.4 6.7 3.6h4.2c4.4 0 8 3.6 8 8v2.2h2.5c4.4 0 8 3.6 8 8v1.2H764c4.5.1 8.1 3.6 8.1 8.1z"/>
    </defs>
    <clipPath id="SVGID_153_">
      <use xlink:href="#SVGID_151_" style="overflow:visible"/>
    </clipPath>
    <clipPath id="SVGID_154_" style="clip-path:url(#SVGID_153_)">
      <use xlink:href="#SVGID_152_" style="overflow:visible"/>
    </clipPath>
    <path style="clip-path:url(#SVGID_154_);fill:#e1e7f0" d="M83.2 386.7h693.9V508H83.2z"/>
  </g>
  <g>
    <defs>
      <path id="SVGID_155_" d="M20 206.1h779v380H20z"/>
    </defs>
    <defs>
      <path id="SVGID_156_" d="M766.3 476.1c-.8.6-1.8.9-2.8.9h-60.6v-.6h61.2c.8 0 1.5-.1 2.2-.3z"/>
    </defs>
    <clipPath id="SVGID_157_">
      <use xlink:href="#SVGID_155_" style="overflow:visible"/>
    </clipPath>
    <clipPath id="SVGID_158_" style="clip-path:url(#SVGID_157_)">
      <use xlink:href="#SVGID_156_" style="overflow:visible"/>
    </clipPath>
    <path style="clip-path:url(#SVGID_158_);fill:#e1e7f0" d="M697.9 471.1h73.4V482h-73.4z"/>
  </g>
  <g>
    <defs>
      <path id="SVGID_159_" d="M20 206.1h779v380H20z"/>
    </defs>
    <defs>
      <path id="SVGID_160_" d="M528.4 453.5c-.1.2-.1.4-.2.6h-20.8c.9-.4 1.9-.6 2.9-.6h18.1z"/>
    </defs>
    <clipPath id="SVGID_161_">
      <use xlink:href="#SVGID_159_" style="overflow:visible"/>
    </clipPath>
    <clipPath id="SVGID_162_" style="clip-path:url(#SVGID_161_)">
      <use xlink:href="#SVGID_160_" style="overflow:visible"/>
    </clipPath>
    <path style="clip-path:url(#SVGID_162_);fill:#e1e7f0" d="M502.4 448.5h31v10.6h-31z"/>
  </g>
  <g>
    <defs>
      <path id="SVGID_163_" d="M20 206.1h779v380H20z"/>
    </defs>
    <defs>
      <path id="SVGID_164_" d="M575.4 438.7c-.3-.4-.5-.7-.6-.8l-3.4-4.3c-.6-.8-1.7-2.1-2.8-2-1.1.1-1.4 1.5-1.5 2.4-.2 1.8-.2 3.7 0 5.6 1.4 17.9.5 25.1.5 25.1s.2 1.4.8-1.5c.6-2.9.5-27.1 3-25.4 1.6 1.1 3.3 2.2 4.9 3.2.4.2 1 .6 1.4.5-.9-.9-1.6-1.8-2.3-2.8z"/>
    </defs>
    <clipPath id="SVGID_165_">
      <use xlink:href="#SVGID_163_" style="overflow:visible"/>
    </clipPath>
    <clipPath id="SVGID_166_" style="clip-path:url(#SVGID_165_)">
      <use xlink:href="#SVGID_164_" style="overflow:visible"/>
    </clipPath>
    <path style="clip-path:url(#SVGID_166_);fill:#f0f5fa" d="M562 426.6h20.8V470H562z"/>
  </g>
  <g>
    <defs>
      <path id="SVGID_167_" d="M20 206.1h779v380H20z"/>
    </defs>
    <defs>
      <path id="SVGID_168_" d="M722.9 451.8c-.3-.1-.5-.3-.6-.3l-3.4-1.5c-.9-.4-1.9-.7-2.8-.7-1.1 0-1.4.5-1.5.9-.2.6-.2 1.3 0 2 1.4 6.3.5 8.9.5 8.9s.2.5.8-.5c.6-1 .5-9.5 3-9 1.6.4 3.3.8 4.9 1.1.5.1.9.2 1.4.2-.8-.4-1.6-.7-2.3-1.1z"/>
    </defs>
    <clipPath id="SVGID_169_">
      <use xlink:href="#SVGID_167_" style="overflow:visible"/>
    </clipPath>
    <clipPath id="SVGID_170_" style="clip-path:url(#SVGID_169_)">
      <use xlink:href="#SVGID_168_" style="overflow:visible"/>
    </clipPath>
    <path style="clip-path:url(#SVGID_170_);fill:#f0f5fa" d="M709.5 444.3h20.7v21.9h-20.7z"/>
  </g>
  <g>
    <defs>
      <path id="SVGID_171_" d="M20 206.1h779v380H20z"/>
    </defs>
    <defs>
      <path id="SVGID_172_" d="M560.4 447.8c-2.2-.2-4.3-.2-6.5-.2-1.1 0-2.2 0-3.3-.1-1-.2-1.9-.2-2.9 0-.7.2-.8.5-.9.9-.4 2.4.6 4.9.8 7.3.1 1.3.1 2.6-.2 3.8 0 .1-.2.3-.1.5 0 0 .2.5.8-.6.3-.8.4-1.6.4-2.4.1-1.4.2-2.8.4-4.1.1-1.1.3-2.2.7-3.3.1-.3 0-1 1-1.1.3 0 .5-.1.8 0 2.2 0 4.5 0 6.7.2 1 0 1.9.1 2.9.1.2 0 2.8-.2 2.7-.2-1.1-.6-2.2-.8-3.3-.8z"/>
    </defs>
    <clipPath id="SVGID_173_">
      <use xlink:href="#SVGID_171_" style="overflow:visible"/>
    </clipPath>
    <clipPath id="SVGID_174_" style="clip-path:url(#SVGID_173_)">
      <use xlink:href="#SVGID_172_" style="overflow:visible"/>
    </clipPath>
    <path style="clip-path:url(#SVGID_174_);fill:#f0f5fa" d="M541.7 442.3h27v22.8h-27z"/>
  </g>
  <g>
    <defs>
      <path id="SVGID_175_" d="M20 206.1h779v380H20z"/>
    </defs>
    <defs>
      <path id="SVGID_176_" d="M655.9 440.7c-2.2-.2-4.3-.2-6.5-.2-1.1 0-2.2 0-3.3-.1-1-.2-1.9-.2-2.9 0-.7.2-.8.5-.9.9-.4 2.4.6 4.9.8 7.3.1 1.3.1 2.6-.2 3.8 0 .1-.2.3-.1.5 0 0 .2.5.8-.6.3-.8.4-1.6.4-2.4.1-1.4.2-2.8.4-4.1.1-1.1.3-2.2.7-3.3.1-.3 0-1 1-1.1h.8c2.2 0 4.5 0 6.7.2 1 0 1.9.1 2.9.1.2 0 2.8-.2 2.7-.2-1.1-.6-2.2-.8-3.3-.8z"/>
    </defs>
    <clipPath id="SVGID_177_">
      <use xlink:href="#SVGID_175_" style="overflow:visible"/>
    </clipPath>
    <clipPath id="SVGID_178_" style="clip-path:url(#SVGID_177_)">
      <use xlink:href="#SVGID_176_" style="overflow:visible"/>
    </clipPath>
    <path style="clip-path:url(#SVGID_178_);fill:#f0f5fa" d="M637.2 435.2h27V458h-27z"/>
  </g>
  <g>
    <defs>
      <path id="SVGID_179_" d="M20 206.1h779v380H20z"/>
    </defs>
    <defs>
      <path id="SVGID_180_" d="M260.1 395.5c2.1-.4 4.3-.6 6.5-.4 1.1.1 2.2 0 3.3-.3 1-.3 1.9-.6 2.9 0 .6.6 1 1.4.9 2.3.4 6.4-.6 12.9-.8 19.3-.1 3.3-.1 6.7.2 10 .1.4.1.8.1 1.2 0 0-.2 1.4-.8-1.5-.3-2.1-.4-4.3-.4-6.4-.1-3.6-.2-7.3-.4-10.9-.1-2.9-.3-5.8-.7-8.7-.1-.9 0-2.5-1-2.9-.3-.1-.5-.1-.8-.1-2.2 0-4.5.1-6.7.4-1 .1-1.9.2-2.9.1-.9-.1-1.8-.3-2.7-.6.6-.8 2.3-1.2 3.3-1.5z"/>
    </defs>
    <clipPath id="SVGID_181_">
      <use xlink:href="#SVGID_179_" style="overflow:visible"/>
    </clipPath>
    <clipPath id="SVGID_182_" style="clip-path:url(#SVGID_181_)">
      <use xlink:href="#SVGID_180_" style="overflow:visible"/>
    </clipPath>
    <path style="clip-path:url(#SVGID_182_);fill:#f0f5fa" d="M251.8 389.4h27v43.5h-27z"/>
  </g>
  <g>
    <defs>
      <path id="SVGID_183_" d="M20 206.1h779v380H20z"/>
    </defs>
    <defs>
      <path id="SVGID_184_" d="M345.6 419.5c.2-.4.4-.7.4-.8l2.5-4.3c.5-.8 1.2-2.1 2.1-2 .8.1 1 1.5 1.1 2.4.1 1.9.1 3.7 0 5.6-1 17.9-.3 25.1-.3 25.1s-.1 1.4-.6-1.5-.4-27.1-2.2-25.4c-1.2 1.1-2.4 2.2-3.6 3.2-.3.2-.7.6-1 .5.5-.9 1.1-1.9 1.6-2.8z"/>
    </defs>
    <clipPath id="SVGID_185_">
      <use xlink:href="#SVGID_183_" style="overflow:visible"/>
    </clipPath>
    <clipPath id="SVGID_186_" style="clip-path:url(#SVGID_185_)">
      <use xlink:href="#SVGID_184_" style="overflow:visible"/>
    </clipPath>
    <path style="clip-path:url(#SVGID_186_);fill:#f0f5fa" d="M339 407.4h17.8v43.4H339z"/>
  </g>
  <g>
    <defs>
      <path id="SVGID_187_" d="M20 206.1h779v380H20z"/>
    </defs>
    <defs>
      <path id="SVGID_188_" d="M180.4 435.5c.3-.1.5-.3.6-.3l3.4-1.5c.9-.4 1.9-.7 2.8-.7 1.1 0 1.4.5 1.5.9.2.6.2 1.3 0 2-1.4 6.3-.5 8.9-.5 8.9s-.2.5-.8-.5c-.6-1-.5-9.5-3-9-1.6.4-3.3.8-4.9 1.1-.5.1-.9.2-1.4.2.8-.5 1.6-.8 2.3-1.1z"/>
    </defs>
    <clipPath id="SVGID_189_">
      <use xlink:href="#SVGID_187_" style="overflow:visible"/>
    </clipPath>
    <clipPath id="SVGID_190_" style="clip-path:url(#SVGID_189_)">
      <use xlink:href="#SVGID_188_" style="overflow:visible"/>
    </clipPath>
    <path style="clip-path:url(#SVGID_190_);fill:#f0f5fa" d="M173.1 428h20.7v21.9h-20.7z"/>
  </g>
  <g>
    <defs>
      <path id="SVGID_191_" d="M20 206.1h779v380H20z"/>
    </defs>
    <defs>
      <path id="SVGID_192_" d="M225.8 410.8c2.2-.2 4.3-.2 6.5-.2 1.1 0 2.2 0 3.3-.1 1-.2 1.9-.2 2.9 0 .7.2.9.5.9.9.4 2.4-.6 4.9-.8 7.3-.1 1.3-.1 2.6.2 3.8 0 .1.2.3.1.5 0 0-.2.5-.8-.6-.3-.8-.4-1.6-.4-2.4-.1-1.4-.2-2.8-.4-4.1-.1-1.1-.3-2.2-.7-3.3-.1-.3 0-1-1-1.1-.3 0-.5-.1-.8 0-2.2 0-4.5 0-6.7.2-1 0-1.9.1-2.9.1-.2 0-2.8-.2-2.7-.2 1.1-.6 2.2-.8 3.3-.8z"/>
    </defs>
    <clipPath id="SVGID_193_">
      <use xlink:href="#SVGID_191_" style="overflow:visible"/>
    </clipPath>
    <clipPath id="SVGID_194_" style="clip-path:url(#SVGID_193_)">
      <use xlink:href="#SVGID_192_" style="overflow:visible"/>
    </clipPath>
    <path style="clip-path:url(#SVGID_194_);fill:#f0f5fa" d="M217.5 405.3h27v22.8h-27z"/>
  </g>
  <g>
    <defs>
      <path id="SVGID_195_" d="M20 206.1h779v380H20z"/>
    </defs>
    <defs>
      <path id="SVGID_196_" d="M280.5 412.2c.3-.1.5-.3.6-.3l3.4-1.5c.9-.4 1.9-.7 2.8-.7 1.1 0 1.4.5 1.5.9.2.6.2 1.3 0 2-1.4 6.3-.5 8.9-.5 8.9s-.2.5-.8-.5c-.6-1-.5-9.5-3-9-1.6.4-3.3.8-4.9 1.1-.5.1-.9.2-1.4.2.2-.1 1.5-.7 2.3-1.1z"/>
    </defs>
    <clipPath id="SVGID_197_">
      <use xlink:href="#SVGID_195_" style="overflow:visible"/>
    </clipPath>
    <clipPath id="SVGID_198_" style="clip-path:url(#SVGID_197_)">
      <use xlink:href="#SVGID_196_" style="overflow:visible"/>
    </clipPath>
    <path style="clip-path:url(#SVGID_198_);fill:#f0f5fa" d="M273.2 404.7H294v21.9h-20.8z"/>
  </g>
  <g>
    <defs>
      <path id="SVGID_199_" d="M20 206.1h779v380H20z"/>
    </defs>
    <defs>
      <path id="SVGID_200_" d="M313.2 411.9c.2-.1.3-.2.4-.2l2.1-.9c.5-.3 1.2-.4 1.8-.4.7 0 .9.3 1 .5.1.4.1.8 0 1.2-.9 3.9-.3 5.5-.3 5.5s-.1.3-.5-.3-.3-5.9-1.8-5.6c-1 .2-2 .5-3.1.7-.3.1-.6.1-.9.1.4-.2.9-.4 1.3-.6z"/>
    </defs>
    <clipPath id="SVGID_201_">
      <use xlink:href="#SVGID_199_" style="overflow:visible"/>
    </clipPath>
    <clipPath id="SVGID_202_" style="clip-path:url(#SVGID_201_)">
      <use xlink:href="#SVGID_200_" style="overflow:visible"/>
    </clipPath>
    <path style="clip-path:url(#SVGID_202_);fill:#f0f5fa" d="M306.9 405.4h16.7v17.3h-16.7z"/>
  </g>
  <g>
    <defs>
      <path id="SVGID_203_" d="M20 206.1h779v380H20z"/>
    </defs>
    <defs>
      <path id="SVGID_204_" d="M326.4 407.8c2.1-.4 4.3-.6 6.5-.4 1.1.1 2.2 0 3.3-.3 1-.3 1.9-.6 2.9 0 .6.6 1 1.4.9 2.3.4 6.4-.6 12.9-.8 19.3-.1 3.3-.1 6.7.2 10 .1.4.1.8.1 1.2 0 0-.2 1.4-.8-1.5-.3-2.1-.4-4.3-.4-6.4-.1-3.6-.2-7.3-.4-10.9-.1-2.9-.3-5.8-.7-8.7-.1-.9 0-2.5-1-2.9-.3-.1-.5-.1-.8-.1-2.2 0-4.5.1-6.7.4-1 .1-1.9.2-2.9.1-.9-.1-1.8-.3-2.7-.6.5-.8 2.3-1.2 3.3-1.5z"/>
    </defs>
    <clipPath id="SVGID_205_">
      <use xlink:href="#SVGID_203_" style="overflow:visible"/>
    </clipPath>
    <clipPath id="SVGID_206_" style="clip-path:url(#SVGID_205_)">
      <use xlink:href="#SVGID_204_" style="overflow:visible"/>
    </clipPath>
    <path style="clip-path:url(#SVGID_206_);fill:#f0f5fa" d="M318.1 401.7h27v43.5h-27z"/>
  </g>
  <g>
    <defs>
      <path id="SVGID_207_" d="M20 206.1h779v380H20z"/>
    </defs>
    <defs>
      <path id="SVGID_208_" d="M367.5 428.5c2.1-.3 4.3-.4 6.5-.3 1.1 0 2.2 0 3.3-.2.9-.3 2-.3 2.9 0 .6.3.9.8.9 1.4.4 4.1-.6 8.2-.8 12.3-.1 2.1-.1 4.3.2 6.4 0 .2.2.5.1.8 0 0-.2.9-.8-.9-.3-1.3-.4-2.7-.4-4.1-.1-2.3-.2-4.6-.4-6.9-.1-1.8-.3-3.7-.7-5.5-.1-.6 0-1.6-1-1.9-.3-.1-.5-.1-.8-.1-2.2 0-4.5.1-6.7.3-1.9.2-3.7.1-5.6-.3.6-.6 2.4-.9 3.3-1z"/>
    </defs>
    <clipPath id="SVGID_209_">
      <use xlink:href="#SVGID_207_" style="overflow:visible"/>
    </clipPath>
    <clipPath id="SVGID_210_" style="clip-path:url(#SVGID_209_)">
      <use xlink:href="#SVGID_208_" style="overflow:visible"/>
    </clipPath>
    <path style="clip-path:url(#SVGID_210_);fill:#f0f5fa" d="M359.2 422.8h27v31.4h-27z"/>
  </g>
  <g>
    <defs>
      <path id="SVGID_211_" d="M20 206.1h779v380H20z"/>
    </defs>
    <defs>
      <path id="SVGID_212_" d="M393.9 440.1c3.3-.2 6.6-.2 9.9-.2 1.7 0 3.4 0 5-.1 1.5-.2 3-.2 4.4 0 1.1.2 1.3.6 1.4 1 .7 2.7-1 5.5-1.2 8.2-.2 1.4-.1 2.9.2 4.3 0 .1.3.4.2.5 0 0-.3.6-1.3-.6-.7-.9-.5-1.8-.6-2.7-.2-1.5-.3-3.1-.6-4.6-.1-1.3-.5-2.5-1-3.7-.2-.4 0-1.1-1.5-1.2-.4 0-.8-.1-1.2-.1-3.5 0-6.9 0-10.3.2-1.5.1-2.9.1-4.4.1-.3 0-4.2-.2-4.1-.3 1.8-.5 3.4-.7 5.1-.8z"/>
    </defs>
    <clipPath id="SVGID_213_">
      <use xlink:href="#SVGID_211_" style="overflow:visible"/>
    </clipPath>
    <clipPath id="SVGID_214_" style="clip-path:url(#SVGID_213_)">
      <use xlink:href="#SVGID_212_" style="overflow:visible"/>
    </clipPath>
    <path style="clip-path:url(#SVGID_214_);fill:#f0f5fa" d="M383.8 434.6h36v24.3h-36z"/>
  </g>
  <g>
    <defs>
      <path id="SVGID_215_" d="M20 206.1h779v380H20z"/>
    </defs>
    <defs>
      <path id="SVGID_216_" d="M710.9 439.8c-.3-.1-.5-.3-.6-.3l-3.4-1.5c-.9-.4-1.9-.7-2.8-.7-1.1 0-1.4.5-1.5.9-.2.6-.2 1.3 0 2 1.4 6.3.5 8.9.5 8.9s.2.5.8-.5c.6-1 .5-9.5 3-9 1.6.4 3.3.8 5 1.1.5.1.9.2 1.4.2-.9-.4-1.7-.8-2.4-1.1z"/>
    </defs>
    <clipPath id="SVGID_217_">
      <use xlink:href="#SVGID_215_" style="overflow:visible"/>
    </clipPath>
    <clipPath id="SVGID_218_" style="clip-path:url(#SVGID_217_)">
      <use xlink:href="#SVGID_216_" style="overflow:visible"/>
    </clipPath>
    <path style="clip-path:url(#SVGID_218_);fill:#f0f5fa" d="M697.5 432.3h20.9v21.9h-20.9z"/>
  </g>
  <g>
    <defs>
      <path id="SVGID_219_" d="M20 206.1h779v380H20z"/>
    </defs>
    <defs>
      <path id="SVGID_220_" d="M540.8 454.9c-.3-.1-.5-.3-.6-.3l-3.4-1.5c-.9-.4-1.9-.7-2.8-.7-1.1 0-1.4.5-1.5.9-.2.6-.2 1.3 0 2 1.4 6.3.5 8.9.5 8.9s.2.5.8-.5c.6-1 .5-9.5 3-9 1.6.4 3.3.8 4.9 1.1.5.1.9.2 1.4.2-.2-.1-1.5-.7-2.3-1.1z"/>
    </defs>
    <clipPath id="SVGID_221_">
      <use xlink:href="#SVGID_219_" style="overflow:visible"/>
    </clipPath>
    <clipPath id="SVGID_222_" style="clip-path:url(#SVGID_221_)">
      <use xlink:href="#SVGID_220_" style="overflow:visible"/>
    </clipPath>
    <path style="clip-path:url(#SVGID_222_);fill:#f0f5fa" d="M527.3 447.4H548v21.9h-20.7z"/>
  </g>
  <g>
    <defs>
      <path id="SVGID_223_" d="M20 206.1h779v380H20z"/>
    </defs>
    <defs>
      <path id="SVGID_224_" d="M689.8 429.6c-2.1-.4-4.3-.6-6.5-.4-1.1.1-2.2 0-3.3-.3-1-.3-1.9-.6-2.9 0-.6.6-1 1.4-.9 2.3-.4 6.4.6 12.9.8 19.3.1 3.3.1 6.7-.2 10-.1.4-.1.8-.1 1.2 0 0 .2 1.4.8-1.5.3-2.1.4-4.3.4-6.4.1-3.6.2-7.3.4-10.9.1-2.9.3-5.8.7-8.7.1-.9 0-2.5 1-2.9.3-.1.5-.1.8-.1 2.2 0 4.5.1 6.7.4 1 .1 1.9.2 2.9.1.9-.1 1.8-.3 2.7-.6-.6-.8-2.4-1.3-3.3-1.5z"/>
    </defs>
    <clipPath id="SVGID_225_">
      <use xlink:href="#SVGID_223_" style="overflow:visible"/>
    </clipPath>
    <clipPath id="SVGID_226_" style="clip-path:url(#SVGID_225_)">
      <use xlink:href="#SVGID_224_" style="overflow:visible"/>
    </clipPath>
    <path style="clip-path:url(#SVGID_226_);fill:#f0f5fa" d="M671.1 423.5h27V467h-27z"/>
  </g>
  <g>
    <defs>
      <path id="SVGID_227_" d="M20 206.1h779v380H20z"/>
    </defs>
    <defs>
      <path id="SVGID_228_" d="M256.7 423.2c.3-.4.5-.7.6-.8l3.4-4.3c.6-.8 1.7-2.1 2.8-2s1.4 1.5 1.5 2.4c.2 1.8.2 3.7 0 5.6-1.4 17.9-.5 25.1-.5 25.1s-.2 1.4-.8-1.5c-.6-2.9-.5-27.1-3-25.4-1.6 1.1-3.3 2.2-4.9 3.2-.4.2-1 .6-1.4.5.9-.9 1.6-1.8 2.3-2.8z"/>
    </defs>
    <clipPath id="SVGID_229_">
      <use xlink:href="#SVGID_227_" style="overflow:visible"/>
    </clipPath>
    <clipPath id="SVGID_230_" style="clip-path:url(#SVGID_229_)">
      <use xlink:href="#SVGID_228_" style="overflow:visible"/>
    </clipPath>
    <path style="clip-path:url(#SVGID_230_);fill:#f0f5fa" d="M249.4 411.1h20.8v43.4h-20.8z"/>
  </g>
  <g>
    <defs>
      <path id="SVGID_231_" d="M20 206.1h779v380H20z"/>
    </defs>
    <defs>
      <path id="SVGID_232_" d="M317 430.9c.3-.4.5-.7.6-.8l3.4-4.3c.6-.8 1.7-2.1 2.8-2 1.1.1 1.4 1.5 1.5 2.4.2 1.8.2 3.7 0 5.6-1.4 17.9-.5 25.1-.5 25.1s-.2 1.4-.8-1.5c-.6-2.9-.5-27.1-3-25.4-1.6 1.1-3.3 2.2-5 3.2-.4.2-1 .6-1.4.5 1-.9 1.7-1.8 2.4-2.8z"/>
    </defs>
    <clipPath id="SVGID_233_">
      <use xlink:href="#SVGID_231_" style="overflow:visible"/>
    </clipPath>
    <clipPath id="SVGID_234_" style="clip-path:url(#SVGID_233_)">
      <use xlink:href="#SVGID_232_" style="overflow:visible"/>
    </clipPath>
    <path style="clip-path:url(#SVGID_234_);fill:#f0f5fa" d="M309.6 418.8h20.9v43.4h-20.9z"/>
  </g>
  <g>
    <defs>
      <path id="SVGID_235_" d="M20 206.1h779v380H20z"/>
    </defs>
    <defs>
      <path id="SVGID_236_" d="M224.7 431c.3-.4.5-.7.6-.8l3.4-4.3c.6-.8 1.7-2.1 2.8-2 1.1.1 1.4 1.5 1.5 2.4.2 1.8.2 3.7 0 5.6-1.4 17.9-.5 25.1-.5 25.1s-.2 1.4-.8-1.5c-.6-2.9-.5-27.1-3-25.4-1.6 1.1-3.3 2.2-4.9 3.2-.4.2-1 .6-1.4.5.9-.8 1.6-1.8 2.3-2.8z"/>
    </defs>
    <clipPath id="SVGID_237_">
      <use xlink:href="#SVGID_235_" style="overflow:visible"/>
    </clipPath>
    <clipPath id="SVGID_238_" style="clip-path:url(#SVGID_237_)">
      <use xlink:href="#SVGID_236_" style="overflow:visible"/>
    </clipPath>
    <path style="clip-path:url(#SVGID_238_);fill:#f0f5fa" d="M217.4 418.9h20.8v43.4h-20.8z"/>
  </g>
  <g>
    <defs>
      <path id="SVGID_239_" d="M20 206.1h779v380H20z"/>
    </defs>
    <defs>
      <path id="SVGID_240_" d="M211 472.4c.4-.1.7-.3.8-.3l4.4-1.5c1.2-.5 2.4-.7 3.7-.7 1.5 0 1.8.5 2 .9.3.6.3 1.3 0 2-1.8 6.3-.6 8.9-.6 8.9s-.2.5-1.1-.5c-.9-1-.6-9.6-3.8-9-2.1.4-4.2.8-6.4 1.1-.6.1-1.2.2-1.8.2.1-.1 1.8-.7 2.8-1.1z"/>
    </defs>
    <clipPath id="SVGID_241_">
      <use xlink:href="#SVGID_239_" style="overflow:visible"/>
    </clipPath>
    <clipPath id="SVGID_242_" style="clip-path:url(#SVGID_241_)">
      <use xlink:href="#SVGID_240_" style="overflow:visible"/>
    </clipPath>
    <path style="clip-path:url(#SVGID_242_);fill:#f0f5fa" d="M203.2 464.9h23.9v21.9h-23.9z"/>
  </g>
  <g>
    <defs>
      <path id="SVGID_243_" d="M20 206.1h779v380H20z"/>
    </defs>
    <defs>
      <path id="SVGID_244_" d="M500.1 476.7c5.5.6 9.6 1.2 10.3 1.2 3.6.3 7.3.2 10.9-.5 1.2-2.5 1.4-5.6-.9-9.3-1.7-2.9-7.6-3.6-10.6-4.5-.9-.2-1.7-.6-2.4-1-6.8-4.3 9.3-6.3 11.6-6.6h.1c.6 0 1.2-.3 1.6-.7-.6-.4-1.3-.6-1.9-.6-3.9-.2-7.7.1-11.5.7-3.5.5-7.2 1-10.3 2.8-1 .5-1.7 1.4-2 2.5-.8 3.5 3.8 5 6.1 6.4 4.5 2.9-1.9 8.1-16.8 7-.3 0-1.5-.2-3.3-.4v.3c6.2.8 12.6 1.6 19.1 2.7z"/>
    </defs>
    <clipPath id="SVGID_245_">
      <use xlink:href="#SVGID_243_" style="overflow:visible"/>
    </clipPath>
    <clipPath id="SVGID_246_" style="clip-path:url(#SVGID_245_)">
      <use xlink:href="#SVGID_244_" style="overflow:visible"/>
    </clipPath>
    <path style="clip-path:url(#SVGID_246_);fill:#b4bbbf" d="M476 449.6h51.2V483H476z"/>
  </g>
  <g>
    <defs>
      <path id="SVGID_247_" d="M20 206.1h779v380H20z"/>
    </defs>
    <defs>
      <path id="SVGID_248_" d="M798.6 512.6c0 23.7-343.9 23.7-343.9 0s74.2-42.8 170.2-42.8 173.7 19.2 173.7 42.8z"/>
    </defs>
    <clipPath id="SVGID_249_">
      <use xlink:href="#SVGID_247_" style="overflow:visible"/>
    </clipPath>
    <clipPath id="SVGID_250_" style="clip-path:url(#SVGID_249_)">
      <use xlink:href="#SVGID_248_" style="overflow:visible"/>
    </clipPath>
    <path style="clip-path:url(#SVGID_250_);fill:#f8fafd" d="M449.7 464.8h353.9v70.6H449.7z"/>
  </g>
  <g>
    <defs>
      <path id="SVGID_251_" d="M20 206.1h779v380H20z"/>
    </defs>
    <defs>
      <path id="SVGID_252_" d="M679.1 516.7c0-.1 0-.1 0 0 0-.1 0-.1 0 0 0-.1 0-.1 0 0 .2-.8-.5-1.6-1.4-2.1-.2-.1-.4-.2-.7-.3h-.1c-2.8-1-5.7-1.9-8.5-2.7-2.8-.8-5.7-1.7-8.5-2.5-4.2-1.2-8.5-2.3-12.7-3.4h.9c1.7.1 3.4.2 5.2.5 1.8.3 3.6.5 5.4.8.8.3 1.8-.1 2.2-.9l.1-.1v-.1c.1-1-.9-2.2-2.3-2.6-1.9-.6-3.8-1.1-5.8-1.6-1.9-.5-3.9-.9-5.9-1.3-1-.2-2-.3-3-.5-.5-.1-1-.1-1.5-.2s-1.1-.1-1.6-.1h-1.6c-.6 0-1.2.1-1.8.1-.7.1-1.4.3-2.1.6-.5.2-.9.5-1.2.9-.1.1-.2.2-.3.4-.1.1-.2.3-.2.4-.1.1-.1.3-.2.5-2.5-.6-5-1.1-7.5-1.6-2.8-.6-5.7-1.1-8.5-1.7-1.4-.3-2.8-.5-4.2-.7l-4.2-.6c-1-.1-1.8.3-1.9 1V499.2c.2 1 1 1.7 1.9 2 1.4.5 2.8 1 4.3 1.5.1 0 .2 0 .2.1 4.8 1.8 11.8 3.8 19 5.7.3.7.8 1.3 1.3 1.9 2.2 2.4 6.6 5.1 12.1 7.6 1.3.6 2.5 1.1 3.7 1.5 1.7.7 3.3 1.4 5 2 .8.4 1.7.3 2.4-.2.6-.1.7-.4.7-.7 0-.1 0-.1-.1-.1.4-.5-.1-1.2-.9-1.8-.2-.2-.5-.4-.8-.6-.5-.3-1-.5-1.5-.8-1.7-.9-3.4-1.9-5-2.8 3.2.9 6.4 1.7 9.7 2.3 1.2.3 2.4.6 3.6.8.7.2 1.4.1 1.9-.3.2 0 .3-.1.5-.1.1-.1.2-.3.1-.4 0-.1.1-.2 0-.2l-.1-.1v-.3c.4.1.8.2 1.2.2 2.4.4 5.1.9 7.4 1.1 1.1.2 2.2.4 3.3.5.6.1 1.2 0 1.6-.4.4-.5.5-.7.4-.9z"/>
    </defs>
    <clipPath id="SVGID_253_">
      <use xlink:href="#SVGID_251_" style="overflow:visible"/>
    </clipPath>
    <clipPath id="SVGID_254_" style="clip-path:url(#SVGID_253_)">
      <use xlink:href="#SVGID_252_" style="overflow:visible"/>
    </clipPath>
    <path style="clip-path:url(#SVGID_254_);fill:#b4bbbf" d="M602.2 492.9h81.9v33.9h-81.9z"/>
  </g>
  <g>
    <defs>
      <path id="SVGID_255_" d="M20 206.1h779v380H20z"/>
    </defs>
    <defs>
      <path id="SVGID_256_" d="M598.8 360.6c-.8 6.3-1.4 12.5-1.9 18.8-.5 6.3-.9 12.5-1.2 18.8-.6 12.5-.9 25.1-1 37.6-.1 12.5.1 25.1.7 37.6.3 6.3.7 12.5 1.2 18.8.3 3.1.6 6.3.9 9.4s.7 6.3 1.2 9.4c.4 2.8 3 4.7 5.8 4.2 2.2-.3 3.9-2.1 4.2-4.2.5-3.1.9-6.3 1.2-9.4.3-3.1.6-6.3.9-9.4.5-6.3.9-12.5 1.2-18.8.6-12.5.8-25.1.7-37.6-.1-12.5-.4-25.1-1-37.6-.3-6.3-.7-12.5-1.2-18.8-.5-6.3-1-12.5-1.9-18.8-.4-2.8-2.9-4.7-5.7-4.4-2 .3-3.8 2.1-4.1 4.4z"/>
    </defs>
    <clipPath id="SVGID_257_">
      <use xlink:href="#SVGID_255_" style="overflow:visible"/>
    </clipPath>
    <clipPath id="SVGID_258_" style="clip-path:url(#SVGID_257_)">
      <use xlink:href="#SVGID_256_" style="overflow:visible"/>
    </clipPath>
    <path style="clip-path:url(#SVGID_258_);fill:#87d72f" d="M589.7 351.2h28v169.1h-28z"/>
  </g>
  <g>
    <defs>
      <path id="SVGID_259_" d="M20 206.1h779v380H20z"/>
    </defs>
    <defs>
      <path id="SVGID_260_" d="M617.2 401.3c-.4 4-.8 7.9-1.5 11.9s-1.4 7.8-2.3 11.5c-.5 1.9-1 3.7-1.6 5.5-.5 1.7-1.2 3.4-1.9 5-.3.8-.7 1.5-1.1 2.1-.3.6-.7 1.1-1.1 1.6-.1.1-.2.3-.4.4-.1 0-.1 0 0-.1.3-.3.6-.6 1-.8s.8-.4 1.2-.5c.5-.2 1.1-.3 1.7-.3-5.4 0-9.8 4.4-9.8 9.8s4.4 9.8 9.8 9.8c1.1 0 2.1-.2 3.2-.5.5-.1 1-.3 1.4-.5.5-.2.8-.4 1.2-.6 1.3-.7 2.4-1.6 3.5-2.6 1.3-1.4 2.4-3 3.3-4.7.6-1.3 1.2-2.6 1.7-4 .4-1.3.8-2.5 1.1-3.6.6-2.3 1-4.6 1.3-6.9.3-2.2.6-4.5.7-6.7.3-4.4.4-8.7.4-13 0-4.3-.3-8.5-.6-12.8-.2-3.1-2.9-5.4-6-5.1-2.8.1-5 2.3-5.2 5.1z"/>
    </defs>
    <clipPath id="SVGID_261_">
      <use xlink:href="#SVGID_259_" style="overflow:visible"/>
    </clipPath>
    <clipPath id="SVGID_262_" style="clip-path:url(#SVGID_261_)">
      <use xlink:href="#SVGID_260_" style="overflow:visible"/>
    </clipPath>
    <path style="clip-path:url(#SVGID_262_);fill:#87d72f" d="M596.4 391.2H634v71h-37.6z"/>
  </g>
  <g>
    <defs>
      <path id="SVGID_263_" d="M20 206.1h779v380H20z"/>
    </defs>
    <defs>
      <path id="SVGID_264_" d="M609.6 447.5c-.8.8-1.3 11.6 4.8 9.1.5-.1 1-.3 1.4-.5.5-.2.8-.4 1.2-.6 1.3-.7 2.4-1.6 3.5-2.6 1.3-1.4 2.4-3 3.3-4.7.6-1.3 1.2-2.6 1.7-4 .4-1.3.8-2.5 1.1-3.6.6-2.3 1-4.6 1.3-6.9.3-2.2.6-4.5.7-6.6.3-4.4.4-8.7.4-13 0-4.3-.3-8.6-.6-12.8-.3-3.1-3-5.4-6-5.1-2.9.3 9.5 28.2-12.8 51.3z"/>
    </defs>
    <clipPath id="SVGID_265_">
      <use xlink:href="#SVGID_263_" style="overflow:visible"/>
    </clipPath>
    <clipPath id="SVGID_266_" style="clip-path:url(#SVGID_265_)">
      <use xlink:href="#SVGID_264_" style="overflow:visible"/>
    </clipPath>
    <path style="clip-path:url(#SVGID_266_);fill:#4a8d00" d="M604.1 391.2H634V462h-29.9z"/>
  </g>
  <g>
    <defs>
      <path id="SVGID_267_" d="M20 206.1h779v380H20z"/>
    </defs>
    <defs>
      <path id="SVGID_268_" d="M610.8 440.2c.1 0 .2-.1.3-.1 9.7-12.9 11.5-25.8 11.2-43.6 0-.2-.2-.4-.4-.4s-.4.2-.4.4c.3 23.3-3.8 33.5-11 43.1-.1.2-.1.4.1.5 0 .1.1.1.2.1z"/>
    </defs>
    <clipPath id="SVGID_269_">
      <use xlink:href="#SVGID_267_" style="overflow:visible"/>
    </clipPath>
    <clipPath id="SVGID_270_" style="clip-path:url(#SVGID_269_)">
      <use xlink:href="#SVGID_268_" style="overflow:visible"/>
    </clipPath>
    <path style="clip-path:url(#SVGID_270_);fill:#caf995" d="M605.4 391.1h21.9v54.1h-21.9z"/>
  </g>
  <g>
    <defs>
      <path id="SVGID_271_" d="M20 206.1h779v380H20z"/>
    </defs>
    <defs>
      <path id="SVGID_272_" d="M611.1 443.3c.1 0 .2 0 .3-.1 10.7-12.2 14.3-27.5 11-46.8 0-.2-.2-.3-.4-.3s-.3.2-.3.4c3.3 19-.3 34.1-10.8 46.2-.1.2-.1.4 0 .5 0 .1.1.1.2.1z"/>
    </defs>
    <clipPath id="SVGID_273_">
      <use xlink:href="#SVGID_271_" style="overflow:visible"/>
    </clipPath>
    <clipPath id="SVGID_274_" style="clip-path:url(#SVGID_273_)">
      <use xlink:href="#SVGID_272_" style="overflow:visible"/>
    </clipPath>
    <path style="clip-path:url(#SVGID_274_);fill:#caf995" d="M605.8 391.1h22.8v57.2h-22.8z"/>
  </g>
  <g>
    <defs>
      <path id="SVGID_275_" d="M20 206.1h779v380H20z"/>
    </defs>
    <defs>
      <path id="SVGID_276_" d="M610.8 437.8c.1 0 .3-.1.3-.2 7.1-11.9 8.2-22.8 9.1-30.7.5-4.4.8-7.9 2.1-10.4.1-.2 0-.4-.2-.5-.2-.1-.4 0-.5.2-1.3 2.5-1.7 6.1-2.1 10.6-.8 7.8-2 18.6-9 30.4-.1.2 0 .4.1.5 0 .1.1.1.2.1z"/>
    </defs>
    <clipPath id="SVGID_277_">
      <use xlink:href="#SVGID_275_" style="overflow:visible"/>
    </clipPath>
    <clipPath id="SVGID_278_" style="clip-path:url(#SVGID_277_)">
      <use xlink:href="#SVGID_276_" style="overflow:visible"/>
    </clipPath>
    <path style="clip-path:url(#SVGID_278_);fill:#caf995" d="M605.5 390.9h21.9v51.8h-21.9z"/>
  </g>
  <g>
    <defs>
      <path id="SVGID_279_" d="M20 206.1h779v380H20z"/>
    </defs>
    <defs>
      <path id="SVGID_280_" d="M610.6 437.4c.2 0 .3-.1.3-.2 3.6-9.2 5.9-18.9 6.8-28.7.7-6.2 1.1-9.9 4.3-11.7.2-.1.2-.3.1-.5s-.3-.2-.5-.1c-3.5 1.9-4 5.8-4.7 12.2-.9 9.8-3.1 19.4-6.7 28.6-.1.2 0 .4.2.5.1-.1.1-.1.2-.1z"/>
    </defs>
    <clipPath id="SVGID_281_">
      <use xlink:href="#SVGID_279_" style="overflow:visible"/>
    </clipPath>
    <clipPath id="SVGID_282_" style="clip-path:url(#SVGID_281_)">
      <use xlink:href="#SVGID_280_" style="overflow:visible"/>
    </clipPath>
    <path style="clip-path:url(#SVGID_282_);fill:#caf995" d="M605.2 391.1h22v51.4h-22z"/>
  </g>
  <g>
    <defs>
      <path id="SVGID_283_" d="M20 206.1h779v380H20z"/>
    </defs>
    <defs>
      <path id="SVGID_284_" d="M604.7 515.4c2.2-.3 3.9-2.1 4.2-4.2.5-3.1.9-6.3 1.2-9.4.3-3.1.6-6.3.9-9.4.5-6.3.9-12.5 1.2-18.8.6-12.5.8-25 .7-37.6-.1-12.6-.4-25-1-37.6-.3-6.3-.7-12.5-1.2-18.8-.5-6.3-1.1-12.5-1.9-18.8-.4-2.9-2.5-5.6-5.6-4.8-.3.1-.1 1.4-.1 1.7 9.9 104.2-1.2 158.1 1.6 157.7z"/>
    </defs>
    <clipPath id="SVGID_285_">
      <use xlink:href="#SVGID_283_" style="overflow:visible"/>
    </clipPath>
    <clipPath id="SVGID_286_" style="clip-path:url(#SVGID_285_)">
      <use xlink:href="#SVGID_284_" style="overflow:visible"/>
    </clipPath>
    <path style="clip-path:url(#SVGID_286_);fill:#4a8d00" d="M598 350.8h19.9v169.5H598z"/>
  </g>
  <g>
    <defs>
      <path id="SVGID_287_" d="M20 206.1h779v380H20z"/>
    </defs>
    <defs>
      <path id="SVGID_288_" d="M604 515.3c.2 0 .4-.2.4-.4 1.5-94.8.1-140-.9-158.5 0-.2-.2-.4-.4-.4s-.4.2-.4.4c1 18.5 2.4 63.7.9 158.4.1.3.2.5.4.5z"/>
    </defs>
    <clipPath id="SVGID_289_">
      <use xlink:href="#SVGID_287_" style="overflow:visible"/>
    </clipPath>
    <clipPath id="SVGID_290_" style="clip-path:url(#SVGID_289_)">
      <use xlink:href="#SVGID_288_" style="overflow:visible"/>
    </clipPath>
    <path style="clip-path:url(#SVGID_290_);fill:#caf995" d="M597.7 351h12.4v169.3h-12.4z"/>
  </g>
  <g>
    <defs>
      <path id="SVGID_291_" d="M20 206.1h779v380H20z"/>
    </defs>
    <defs>
      <path id="SVGID_292_" d="M604 515.1c.1 0 .1 0 0 0 .3 0 .4-.2.4-.4-2.3-12-3.6-45.1-3.4-88.3.1-39.2 1.4-68.3 2.5-69.8.1-.2.1-.4-.1-.5-.2-.1-.4-.1-.5.1-.7 1-1.3 8.6-1.8 22.6-.5 13.2-.8 30.5-.8 47.7-.1 16.2 0 70.6 3.5 88.5-.1 0 .1.1.2.1z"/>
    </defs>
    <clipPath id="SVGID_293_">
      <use xlink:href="#SVGID_291_" style="overflow:visible"/>
    </clipPath>
    <clipPath id="SVGID_294_" style="clip-path:url(#SVGID_293_)">
      <use xlink:href="#SVGID_292_" style="overflow:visible"/>
    </clipPath>
    <path style="clip-path:url(#SVGID_294_);fill:#caf995" d="M595.3 351h14.1v169.1h-14.1z"/>
  </g>
  <g>
    <defs>
      <path id="SVGID_295_" d="M20 206.1h779v380H20z"/>
    </defs>
    <defs>
      <path id="SVGID_296_" d="M603.8 515.4c.2 0 .4-.2.4-.4 0-.1 0-.2-.1-.2-3.9-4.6-6.5-33.1-6.7-74.3-.2-37.7 1.7-72 4.5-81.4.6-2.1 1.1-2.4 1.2-2.4.2-.1.3-.3.2-.5-.1-.2-.3-.3-.5-.2-.7.2-1.2 1.1-1.7 2.9-2.4 8.1-4.7 38.8-4.5 81.6.1 15.7.8 67.7 6.8 74.8.2.1.3.1.4.1z"/>
    </defs>
    <clipPath id="SVGID_297_">
      <use xlink:href="#SVGID_295_" style="overflow:visible"/>
    </clipPath>
    <clipPath id="SVGID_298_" style="clip-path:url(#SVGID_297_)">
      <use xlink:href="#SVGID_296_" style="overflow:visible"/>
    </clipPath>
    <path style="clip-path:url(#SVGID_298_);fill:#caf995" d="M591.6 350.9h17.6v169.4h-17.6z"/>
  </g>
  <g>
    <defs>
      <path id="SVGID_299_" d="M20 206.1h779v380H20z"/>
    </defs>
    <defs>
      <path id="SVGID_300_" d="M603.3 515.4h.4c.2 0 .3-.2.3-.4s-.2-.3-.4-.3c-.6.1-1.3-.3-1.9-1.3-5.3-8.2-7-47.9-6.8-79.3.2-39.8 3.1-71.4 7-76.7.6-.8 1.1-.7 1.2-.7.2.1.4-.1.5-.3.1-.2-.1-.4-.3-.5-.7-.2-1.4.1-2 1-2.6 3.6-4.3 16.9-5.2 27.5-1.2 13.7-1.9 31.4-2 49.7-.2 31.5 1.5 71.3 6.9 79.7.4.8 1.3 1.5 2.3 1.6z"/>
    </defs>
    <clipPath id="SVGID_301_">
      <use xlink:href="#SVGID_299_" style="overflow:visible"/>
    </clipPath>
    <clipPath id="SVGID_302_" style="clip-path:url(#SVGID_301_)">
      <use xlink:href="#SVGID_300_" style="overflow:visible"/>
    </clipPath>
    <path style="clip-path:url(#SVGID_302_);fill:#caf995" d="M589.1 350.8H609v169.6h-19.9z"/>
  </g>
  <g>
    <defs>
      <path id="SVGID_303_" d="M603.4 439.2h5.5v16h-5.5z"/>
    </defs>
    <clipPath id="SVGID_304_">
      <use xlink:href="#SVGID_303_" style="overflow:visible"/>
    </clipPath>
    <path style="clip-path:url(#SVGID_304_);fill:#4a8d00" d="M598.4 434.2h15.5v26h-15.5z"/>
  </g>
  <g>
    <defs>
      <path id="SVGID_305_" d="M20 206.1h779v380H20z"/>
    </defs>
    <defs>
      <path id="SVGID_306_" d="M572.2 410.1c.7 4.2 1.5 8.4 2.6 12.5s2.2 8.3 3.6 12.5c.7 2.1 1.5 4.2 2.3 6.3.9 2.2 1.9 4.3 3 6.3.6 1.1 1.2 2.2 1.9 3.3.8 1.2 1.6 2.3 2.6 3.4 1.2 1.4 2.7 2.7 4.3 3.7 1.2.8 2.6 1.3 4 1.7.4.1.9.2 1.4.3.5.1 1 .1 1.5.1 1.1 0 2.1-.1 3.2-.3 5.3-1.3 8.4-6.7 7.1-11.9-1.3-5.3-6.7-8.4-11.9-7.1.5-.1 1.1-.2 1.7-.1.4 0 .9.1 1.3.2s.8.3 1.2.6c.1.1.1.2 0 .1-.2-.1-.3-.2-.5-.3-.5-.4-1-.8-1.4-1.3-.5-.5-1-1.1-1.6-1.8-1.1-1.4-2.1-2.9-3.1-4.4-1-1.6-2-3.2-2.9-4.9-1.8-3.4-3.5-6.9-5.1-10.6-1.6-3.7-3-7.4-4.3-11.1-1-2.9-4.2-4.5-7.1-3.5-2.7 1-4.3 3.6-3.8 6.3z"/>
    </defs>
    <clipPath id="SVGID_307_">
      <use xlink:href="#SVGID_305_" style="overflow:visible"/>
    </clipPath>
    <clipPath id="SVGID_308_" style="clip-path:url(#SVGID_307_)">
      <use xlink:href="#SVGID_306_" style="overflow:visible"/>
    </clipPath>
    <path style="clip-path:url(#SVGID_308_);fill:#87d72f" d="M567.1 398.5H615v66.7h-47.9z"/>
  </g>
  <g>
    <defs>
      <path id="SVGID_309_" d="M20 206.1h779v380H20z"/>
    </defs>
    <defs>
      <path id="SVGID_310_" d="M595.7 459.4c3 1 15.1.5 13.7-3.6-1.4-4.1-6-7.1-5.9-7.1 0 0-.6-.8-1.1-1.5-1.1-1.5-2.2-3.2-3.2-5-2.1-3.6-4.3-7.7-6.2-11.6-3.8-7.7-6.9-15.3-10.2-23.4-1.1-2.9-3.8-5.4-6.2-3.4-5.3 4.5 11.8 55.3 19.1 55.6z"/>
    </defs>
    <clipPath id="SVGID_311_">
      <use xlink:href="#SVGID_309_" style="overflow:visible"/>
    </clipPath>
    <clipPath id="SVGID_312_" style="clip-path:url(#SVGID_311_)">
      <use xlink:href="#SVGID_310_" style="overflow:visible"/>
    </clipPath>
    <path style="clip-path:url(#SVGID_312_);fill:#4a8d00" d="M570.6 398.1h43.9v66.8h-43.9z"/>
  </g>
  <g>
    <defs>
      <path id="SVGID_313_" d="M20 206.1h779v380H20z"/>
    </defs>
    <defs>
      <path id="SVGID_314_" d="M589.3 392.3c-.4 8.9-.5 17.9-.2 26.9.2 4.5.4 9.1.9 13.7.3 2.3.6 4.7 1.1 7.2.3 1.4.7 2.8 1.1 4.2.1.4.3.8.5 1.3.1.2.2.5.4.7l.2.4.1.2.1.2c.1.2.2.3.3.5.1.2.3.4.4.5l.1.1.1.2.3.3.3.3.4.4c.2.2.2.2.4.3.2.1.3.3.5.4.2.1.3.2.6.4s.5.3.7.4c.5.3 1.1.5 1.7.6.3.1.7.1 1 .2.3 0 .7.1 1.1.1 4.3 0 7.8-3.6 7.8-7.9 0-4.3-3.5-7.7-7.8-7.8 1 0 2 .2 3 .7.2.1.4.2.5.3.2.1.3.2.4.2.1 0 .2.2.3.3.1.1.2.1.2.2s.1.1.2.2l.2.2s.1.1.1.2l.1.1c.1.1.1.1.1.2s.1.1.1.1v.2c-.1-.1-.1-.2-.1-.2-.3-.7-.6-1.4-.8-2.1-.5-1.7-1-3.7-1.4-5.8-.8-4.1-1.4-8.3-1.9-12.6-1-8.5-1.6-17.2-2-25.9-.1-3.1-2.7-5.5-5.8-5.3-2.9-.1-5.2 2.3-5.3 5.2z"/>
    </defs>
    <clipPath id="SVGID_315_">
      <use xlink:href="#SVGID_313_" style="overflow:visible"/>
    </clipPath>
    <clipPath id="SVGID_316_" style="clip-path:url(#SVGID_315_)">
      <use xlink:href="#SVGID_314_" style="overflow:visible"/>
    </clipPath>
    <path style="clip-path:url(#SVGID_316_);fill:#87d72f" d="M583.9 382.1h30.3v74.7h-30.3z"/>
  </g>
  <g>
    <defs>
      <path id="SVGID_317_" d="M20 206.1h779v380H20z"/>
    </defs>
    <defs>
      <path id="SVGID_318_" d="M601.8 452.5c.8 2 6.2-3.9 6.6-4.6 1.4-3 1.1-6.5-.9-9.2-1.8-2.6-2.4-5-3-8-.8-4.1-1.4-8.3-1.9-12.6-1-8.5-1.6-17.2-2-25.9-.1-3.1-2.7-5.5-5.8-5.3-3.1.1-1.9 43.3 7 65.6z"/>
    </defs>
    <clipPath id="SVGID_319_">
      <use xlink:href="#SVGID_317_" style="overflow:visible"/>
    </clipPath>
    <clipPath id="SVGID_320_" style="clip-path:url(#SVGID_319_)">
      <use xlink:href="#SVGID_318_" style="overflow:visible"/>
    </clipPath>
    <path style="clip-path:url(#SVGID_320_);fill:#4a8d00" d="M588.3 381.9h26v76h-26z"/>
  </g>
  <g>
    <defs>
      <path id="SVGID_321_" d="M605.2 444.8h5.8v12.5h-5.8z"/>
    </defs>
    <clipPath id="SVGID_322_">
      <use xlink:href="#SVGID_321_" style="overflow:visible"/>
    </clipPath>
    <path style="clip-path:url(#SVGID_322_);fill:#4a8d00" d="M600.2 439.8H616v22.5h-15.8z"/>
  </g>
  <g>
    <defs>
      <path id="SVGID_323_" d="M604.5 438.7h5.7v15.5h-5.7z"/>
    </defs>
    <clipPath id="SVGID_324_">
      <use xlink:href="#SVGID_323_" style="overflow:visible"/>
    </clipPath>
    <path style="clip-path:url(#SVGID_324_);fill:#4a8d00" d="M599.5 433.7h15.7v25.5h-15.7z"/>
  </g>
  <g>
    <defs>
      <path id="SVGID_325_" d="M20 206.1h779v380H20z"/>
    </defs>
    <defs>
      <path id="SVGID_326_" d="M601.3 452.2c.1 0 .2 0 .2-.1.2-.1.2-.4 0-.5-4.3-5-7.5-17.5-8.6-34.3-.9-13.7-.1-27.1 1.7-29.8.1-.2.1-.4-.1-.5-.2-.1-.4-.1-.5.1-2 2.9-2.8 16.2-1.8 30.3.5 8.1 2.5 27.6 8.8 34.8h.3z"/>
    </defs>
    <clipPath id="SVGID_327_">
      <use xlink:href="#SVGID_325_" style="overflow:visible"/>
    </clipPath>
    <clipPath id="SVGID_328_" style="clip-path:url(#SVGID_327_)">
      <use xlink:href="#SVGID_326_" style="overflow:visible"/>
    </clipPath>
    <path style="clip-path:url(#SVGID_328_);fill:#caf995" d="M586.8 381.9h19.9v75.3h-19.9z"/>
  </g>
  <g>
    <defs>
      <path id="SVGID_329_" d="M20 206.1h779v380H20z"/>
    </defs>
    <defs>
      <path id="SVGID_330_" d="M601.1 452.2c.2 0 .4-.2.4-.4s-.1-.3-.3-.4c-4.3-1.4-7.7-11.1-9.4-26.6-1.4-13-1.1-27.6.6-34.1.6-2.2 1.3-3.4 2-3.2.2 0 .4-.1.4-.3s-.1-.4-.3-.4c-1.2-.2-2.1 1-2.8 3.8-1.7 6.7-2 21.2-.6 34.4 2.3 21.7 7.2 26.4 9.9 27.3 0-.2.1-.1.1-.1z"/>
    </defs>
    <clipPath id="SVGID_331_">
      <use xlink:href="#SVGID_329_" style="overflow:visible"/>
    </clipPath>
    <clipPath id="SVGID_332_" style="clip-path:url(#SVGID_331_)">
      <use xlink:href="#SVGID_330_" style="overflow:visible"/>
    </clipPath>
    <path style="clip-path:url(#SVGID_332_);fill:#caf995" d="M585.2 381.8h21.3v75.5h-21.3z"/>
  </g>
  <g>
    <defs>
      <path id="SVGID_333_" d="M20 206.1h779v380H20z"/>
    </defs>
    <defs>
      <path id="SVGID_334_" d="M597.8 459.8c1.9 0 3.8-.6 5.4-1.6.2-.1.2-.3.1-.5s-.3-.2-.5-.1c-4.2 2.4-8.3 1.8-12.4-1.9-5.2-4.7-10.1-14.4-13.4-26.5-2.8-10.5-3.7-20.4-2-24 .4-1 1-1.4 1.8-1.3.2 0 .4-.1.4-.3 0-.2-.1-.4-.3-.4-.8-.1-1.8.1-2.5 1.7-1.7 3.7-.9 13.8 2 24.5 3.3 12.2 8.3 22 13.6 26.9 2.4 2.4 5.1 3.5 7.8 3.5z"/>
    </defs>
    <clipPath id="SVGID_335_">
      <use xlink:href="#SVGID_333_" style="overflow:visible"/>
    </clipPath>
    <clipPath id="SVGID_336_" style="clip-path:url(#SVGID_335_)">
      <use xlink:href="#SVGID_334_" style="overflow:visible"/>
    </clipPath>
    <path style="clip-path:url(#SVGID_336_);fill:#caf995" d="M568.5 398.2h39.8v66.6h-39.8z"/>
  </g>
  <g>
    <defs>
      <path id="SVGID_337_" d="M20 206.1h779v380H20z"/>
    </defs>
    <defs>
      <path id="SVGID_338_" d="M601 452.5c.2 0 .4-.2.4-.4s-.1-.3-.3-.4c-3.8-.7-6.8-5.2-8.9-13.1-2.1-8-3.1-19.7-2.7-31.3.3-10.3 1.7-18.4 3.4-19.8.1-.2.4-.2.6-.1.2.1.4 0 .5-.2s0-.4-.2-.5c-.5-.2-1-.1-1.4.2-3.8 3.2-5.7 33.4-.9 51.9 2.1 8.3 5.3 12.9 9.5 13.7-.1 0 0 0 0 0z"/>
    </defs>
    <clipPath id="SVGID_339_">
      <use xlink:href="#SVGID_337_" style="overflow:visible"/>
    </clipPath>
    <clipPath id="SVGID_340_" style="clip-path:url(#SVGID_339_)">
      <use xlink:href="#SVGID_338_" style="overflow:visible"/>
    </clipPath>
    <path style="clip-path:url(#SVGID_340_);fill:#caf995" d="M583.6 381.6h22.8v75.9h-22.8z"/>
  </g>
  <g>
    <defs>
      <path id="SVGID_341_" d="M20 206.1h779v380H20z"/>
    </defs>
    <defs>
      <path id="SVGID_342_" d="M599.1 458.9c2 0 3.9-.6 5.6-1.6.2-.1.2-.3.1-.5s-.3-.2-.5-.1c-3.4 2.2-7.8 2-11-.5-12.1-8.6-19.1-41.6-17.3-50.3.2-1 .5-1.7.9-1.8.2 0 .3-.2.3-.4s-.2-.3-.4-.3c-.7.2-1.2 1-1.5 2.3-1.8 8.9 5.3 42.4 17.6 51.1 1.8 1.3 4 2.1 6.2 2.1z"/>
    </defs>
    <clipPath id="SVGID_343_">
      <use xlink:href="#SVGID_341_" style="overflow:visible"/>
    </clipPath>
    <clipPath id="SVGID_344_" style="clip-path:url(#SVGID_343_)">
      <use xlink:href="#SVGID_342_" style="overflow:visible"/>
    </clipPath>
    <path style="clip-path:url(#SVGID_344_);fill:#caf995" d="M570 398.4h39.8v65.5H570z"/>
  </g>
  <g>
    <defs>
      <path id="SVGID_345_" d="M20 206.1h779v380H20z"/>
    </defs>
    <defs>
      <path id="SVGID_346_" d="m602.4 455.6-13.4-4.5s2.4 11.6 15.7 8.4c10.4-2.6 4.6-5.4 4.6-5.4l-6.9 1.5z"/>
    </defs>
    <clipPath id="SVGID_347_">
      <use xlink:href="#SVGID_345_" style="overflow:visible"/>
    </clipPath>
    <clipPath id="SVGID_348_" style="clip-path:url(#SVGID_347_)">
      <use xlink:href="#SVGID_346_" style="overflow:visible"/>
    </clipPath>
    <path style="clip-path:url(#SVGID_348_);fill:#4a8d00" d="M584 446.1h31.9v19H584z"/>
  </g>
  <g>
    <defs>
      <path id="SVGID_349_" d="M20 206.1h779v380H20z"/>
    </defs>
    <defs>
      <path id="SVGID_350_" d="m600.4 448.4 1.1 3.7c-2.1-.2-4.1-1-5.8-2.4-2.9-2.3 1.5 5.8 1.5 5.8s5.8-.3 6.1-.4c.3-.1 2.7-1.9 2.5-2-.2-.1-4.3-7.9-5.4-4.7z"/>
    </defs>
    <clipPath id="SVGID_351_">
      <use xlink:href="#SVGID_349_" style="overflow:visible"/>
    </clipPath>
    <clipPath id="SVGID_352_" style="clip-path:url(#SVGID_351_)">
      <use xlink:href="#SVGID_350_" style="overflow:visible"/>
    </clipPath>
    <path style="clip-path:url(#SVGID_352_);fill:#4a8d00" d="M589.7 442.6h21.1v17.9h-21.1z"/>
  </g>
  <g>
    <defs>
      <path id="SVGID_353_" d="M20 206.1h779v380H20z"/>
    </defs>
    <defs>
      <path id="SVGID_354_" d="M780 574.9c-3.2 13.9-40.8 10.3-49.9 10-50-1.5-99-11.4-148.1-20.2-8.8-1.6-17.6-3.2-26.4-4.5-37.1-5.6-73.9-3.6-111.1-5.4-22.1-1.1-43.2-2.9-62.7-5.3-33.3 3-70.6 4.8-110.1 4.8C132.7 554.2 20 533 20 506.9c0-26.1 112.7-47.3 251.8-47.3 46.9 0 90.8 2.4 128.5 6.6 40.8.9 104.1 10 174.2 26.1 117.7 27.3 209.8 64.2 205.5 82.6z"/>
    </defs>
    <defs>
      <path id="SVGID_355_" d="M20-205.9h779v792H20z"/>
    </defs>
    <clipPath id="SVGID_356_">
      <use xlink:href="#SVGID_353_" style="overflow:visible"/>
    </clipPath>
    <clipPath id="SVGID_357_" style="clip-path:url(#SVGID_356_)">
      <use xlink:href="#SVGID_354_" style="overflow:visible"/>
    </clipPath>
    <clipPath id="SVGID_358_" style="clip-path:url(#SVGID_357_)">
      <use xlink:href="#SVGID_355_" style="overflow:visible"/>
    </clipPath>
    <path style="clip-path:url(#SVGID_358_);fill:#f0f5fa" d="M15 454.6h770.1v135.9H15z"/>
  </g>
  <g>
    <defs>
      <path id="SVGID_359_" d="M20 206.1h779v380H20z"/>
    </defs>
    <defs>
      <path id="SVGID_360_" d="M263.5 549.2c.5-.6 1-1.1 1.4-1.6l1.4-1.4c.9-.9 1.9-1.8 2.8-2.7 2-1.8 5.1-1.7 6.9.3 1.8 1.9 1.7 4.9-.1 6.7-.9.9-1.7 1.7-2.5 2.6l-1.2 1.3c-.4.4-.8.9-1.1 1.2-1.7 2.1-4.9 2.5-7 .7-2.1-1.7-2.5-4.9-.6-7.1-.1.1-.1 0 0 0z"/>
    </defs>
    <clipPath id="SVGID_361_">
      <use xlink:href="#SVGID_359_" style="overflow:visible"/>
    </clipPath>
    <clipPath id="SVGID_362_" style="clip-path:url(#SVGID_361_)">
      <use xlink:href="#SVGID_360_" style="overflow:visible"/>
    </clipPath>
    <path style="clip-path:url(#SVGID_362_);fill:#ffe8a2" d="M257.3 537.2h25v25.2h-25z"/>
  </g>
  <g>
    <defs>
      <path id="SVGID_363_" d="M20 206.1h779v380H20z"/>
    </defs>
    <defs>
      <path id="SVGID_364_" d="M292.4 525c4.1-2.8 8.2-5.4 12.5-7.9 2-1.2 4.6-.5 5.8 1.5 1.2 2 .6 4.5-1.4 5.7-4 2.6-7.9 5.2-11.8 8-2 1.4-4.8 1-6.2-1-1.4-2-1-4.8 1-6.2l.1-.1z"/>
    </defs>
    <clipPath id="SVGID_365_">
      <use xlink:href="#SVGID_363_" style="overflow:visible"/>
    </clipPath>
    <clipPath id="SVGID_366_" style="clip-path:url(#SVGID_365_)">
      <use xlink:href="#SVGID_364_" style="overflow:visible"/>
    </clipPath>
    <path style="clip-path:url(#SVGID_366_);fill:#ffe8a2" d="M285.5 511.5h30.8v26.6h-30.8z"/>
  </g>
  <g>
    <defs>
      <path id="SVGID_367_" d="M20 206.1h779v380H20z"/>
    </defs>
    <defs>
      <path id="SVGID_368_" d="M330.9 503.5c4.5-2 9-3.9 13.5-5.7 1.8-.7 3.9.2 4.6 2 .7 1.8-.1 3.8-1.9 4.5-4.4 1.9-8.7 3.9-13 6-1.9.9-4.1.2-5-1.7s-.2-4.1 1.7-5c.1 0 .1-.1.1-.1z"/>
    </defs>
    <clipPath id="SVGID_369_">
      <use xlink:href="#SVGID_367_" style="overflow:visible"/>
    </clipPath>
    <clipPath id="SVGID_370_" style="clip-path:url(#SVGID_369_)">
      <use xlink:href="#SVGID_368_" style="overflow:visible"/>
    </clipPath>
    <path style="clip-path:url(#SVGID_370_);fill:#ffe8a2" d="M323.7 492.5h30.5v23.1h-30.5z"/>
  </g>
  <g>
    <defs>
      <path id="SVGID_371_" d="M20 206.1h779v380H20z"/>
    </defs>
    <defs>
      <path id="SVGID_372_" d="M372.2 488.4c4.7-1.3 9.4-2.6 14.2-3.7 1.5-.4 3.1.6 3.4 2.1.3 1.5-.5 3-2 3.4-4.6 1.2-9.2 2.6-13.8 4-1.6.5-3.4-.4-3.9-2s.4-3.2 2.1-3.8z"/>
    </defs>
    <clipPath id="SVGID_373_">
      <use xlink:href="#SVGID_371_" style="overflow:visible"/>
    </clipPath>
    <clipPath id="SVGID_374_" style="clip-path:url(#SVGID_373_)">
      <use xlink:href="#SVGID_372_" style="overflow:visible"/>
    </clipPath>
    <path style="clip-path:url(#SVGID_374_);fill:#ffe8a2" d="M365 479.6h29.9v19.7H365z"/>
  </g>
  <g>
    <defs>
      <path id="SVGID_375_" d="M20 206.1h779v380H20z"/>
    </defs>
    <defs>
      <path id="SVGID_376_" d="M415.1 479.3c4.8-.7 9.6-1.3 14.5-1.8 1.2-.1 2.3.8 2.4 2 .1 1.2-.7 2.2-1.9 2.4-4.8.7-9.5 1.4-14.2 2.3-1.3.2-2.6-.6-2.8-1.9-.2-1.5.6-2.8 2-3z"/>
    </defs>
    <clipPath id="SVGID_377_">
      <use xlink:href="#SVGID_375_" style="overflow:visible"/>
    </clipPath>
    <clipPath id="SVGID_378_" style="clip-path:url(#SVGID_377_)">
      <use xlink:href="#SVGID_376_" style="overflow:visible"/>
    </clipPath>
    <path style="clip-path:url(#SVGID_378_);fill:#ffe8a2" d="M408.1 472.5H437v16.7h-28.9z"/>
  </g>
  <g>
    <defs>
      <path id="SVGID_379_" d="M20 206.1h779v380H20z"/>
    </defs>
    <defs>
      <path id="SVGID_380_" d="M458.7 475.4c4.9-.2 9.7-.2 14.6-.2.8 0 1.5.7 1.5 1.5s-.7 1.5-1.5 1.5c-4.8.1-9.6.4-14.4.7-1 .1-1.8-.7-1.8-1.6 0-.9.6-1.8 1.6-1.9z"/>
    </defs>
    <clipPath id="SVGID_381_">
      <use xlink:href="#SVGID_379_" style="overflow:visible"/>
    </clipPath>
    <clipPath id="SVGID_382_" style="clip-path:url(#SVGID_381_)">
      <use xlink:href="#SVGID_380_" style="overflow:visible"/>
    </clipPath>
    <path style="clip-path:url(#SVGID_382_);fill:#ffe8a2" d="M452.1 470.2h27.7v13.7h-27.7z"/>
  </g>
  <g>
    <defs>
      <path id="SVGID_383_" d="M20 206.1h779v380H20z"/>
    </defs>
    <defs>
      <path id="SVGID_384_" d="M213.8 481c0-.1-.1-.2-.1-.3v-.1h-.1c0-.1-.1-.1-.1-.2-1.2-1.4-3-2-4.8-1.7-2.8.3-5.5.7-8.2 1.1-.1 0-.3 0-.4.1-9.4 1.1-22.6 3.5-36 6.3-1.1-.9-2.4-1.5-3.7-2-5.5-2.1-15.1-3-26.3-2.5-2.6.1-5.1.3-7.4.5-3.3.2-6.6.5-9.9.9-1.6.1-3.1.9-3.9 2.3-.9.7-.8 1.3-.6 1.6h.1c0 .1.1.2.3.2-.3 1.2 1.3 2 3.3 2.3.5.1 1.1.2 1.6.2 1 0 2.1 0 3.1.1 3.6.1 7.1.3 10.7.5-5.9 1.1-11.7 2.4-17.4 4.1l-7.2 1.8c-1.2.2-2.3 1-2.9 2.1-.3.2-.5.4-.7.7-.2.3-.1.6.2.8h.1c0 .2 0 .3.2.4.1.1.2.1.3.1.1.2.2.4.3.5-.7.2-1.4.4-2.2.6-4.3 1.3-9.1 2.8-13.2 4.3-2 .6-3.9 1.2-5.9 1.9-1 .3-1.9 1-2.4 2l-.1.1c-.5.5-.6.9-.2 1.3h.1c.2 1.5 2.2 2.2 4.2 2.3H86c5.5-.7 10.9-1.6 16.2-2.6 5.3-1 10.7-1.9 16-3 8-1.5 15.9-3.2 23.7-4.9-.5.2-1 .4-1.5.7-2.8 1.3-5.8 2.4-8.9 3.5-3.1 1.1-6.3 2.1-9.5 3.1-1.8.6-3 1.8-2.9 3.2 0 .1-.1.2-.1.3v.1c0 .1 0 0 0 0s0 .1.1.1h.1c.1 0 0 0 .1.1v.1c.7 1.8 3.4 2.9 6 2.4 3.6-.6 7.3-1.3 10.9-2.1 3.6-.8 7.2-1.7 10.7-2.7 1.8-.5 3.6-1.1 5.3-1.7.9-.3 1.8-.6 2.7-1 .9-.4 1.8-.7 2.8-1.1.9-.4 1.8-.8 2.7-1.3 1-.5 1.9-1.1 2.8-1.7 1.1-.8 2.1-1.7 3-2.7.6-.7 1-1.6 1.2-2.5.1-.3.1-.5.1-.8v-.9c0-.3 0-.6-.1-.9 4.6-1.1 9.2-2.3 13.7-3.5 5.1-1.4 10.3-2.8 15.3-4.3 2.5-.8 5.1-1.5 7.6-2.3 2.5-.8 5-1.6 7.5-2.5 1.8-.7 2.8-2 2.3-3.4.1.1.1 0 0 0z"/>
    </defs>
    <clipPath id="SVGID_385_">
      <use xlink:href="#SVGID_383_" style="overflow:visible"/>
    </clipPath>
    <clipPath id="SVGID_386_" style="clip-path:url(#SVGID_385_)">
      <use xlink:href="#SVGID_384_" style="overflow:visible"/>
    </clipPath>
    <path style="clip-path:url(#SVGID_386_);fill:#b4bbbf" d="M75.1 473.6H219v47.9H75.1z"/>
  </g>
  <g>
    <defs>
      <path id="SVGID_387_" d="M20 206.1h779v380H20z"/>
    </defs>
    <defs>
      <path id="SVGID_388_" d="M222.3 215.3c1.4 10.8 2.4 21.6 3.2 32.5.8 10.8 1.5 21.6 2 32.5 1.1 21.6 1.6 43.3 1.8 64.9s-.1 43.3-1.1 64.9c-.5 10.8-1.2 21.6-2.1 32.5-.5 5.4-1 10.8-1.6 16.2-.6 5.4-1.2 10.8-2.1 16.2-.8 4.8-5.2 8.1-10 7.3-3.8-.6-6.7-3.5-7.3-7.3-.9-5.4-1.5-10.8-2.1-16.2-.6-5.4-1.1-10.8-1.6-16.2-.9-10.8-1.6-21.6-2.1-32.5-1-21.6-1.4-43.3-1.2-64.9.2-21.6.6-43.3 1.7-64.9.5-10.8 1.2-21.6 2-32.5.8-10.8 1.8-21.6 3.2-32.5.6-4.8 5-8.2 9.8-7.5 3.9.4 7 3.5 7.5 7.5z"/>
    </defs>
    <clipPath id="SVGID_389_">
      <use xlink:href="#SVGID_387_" style="overflow:visible"/>
    </clipPath>
    <clipPath id="SVGID_390_" style="clip-path:url(#SVGID_389_)">
      <use xlink:href="#SVGID_388_" style="overflow:visible"/>
    </clipPath>
    <path style="clip-path:url(#SVGID_390_);fill:#87d72f" d="M193.1 202.7h41.3v284.7h-41.3z"/>
  </g>
  <g>
    <defs>
      <path id="SVGID_391_" d="M20 206.1h779v380H20z"/>
    </defs>
    <defs>
      <path id="SVGID_392_" d="M190.7 285.5c.6 6.9 1.4 13.7 2.5 20.5 1.1 6.8 2.4 13.4 4.1 19.8.8 3.2 1.7 6.4 2.7 9.4.9 2.9 2 5.8 3.3 8.6.6 1.3 1.2 2.6 1.9 3.7.5 1 1.1 1.9 1.8 2.7.2.2.4.5.7.6.2.1.2 0 .1-.2-.5-.6-1-1.1-1.7-1.4-.7-.4-1.4-.7-2.1-.9-.9-.3-1.9-.4-2.9-.5 9.3.1 16.9 7.7 16.8 17.1-.1 9.2-7.6 16.7-16.8 16.8-1.9 0-3.7-.3-5.5-.8-.8-.2-1.6-.5-2.4-.8-.8-.3-1.5-.6-2.2-1-2.2-1.2-4.2-2.7-6-4.5-2.3-2.4-4.2-5.1-5.7-8-1.1-2.2-2.1-4.5-2.9-6.8-.8-2.2-1.3-4.2-1.9-6.3-1-3.9-1.7-7.9-2.3-11.9-.6-3.9-1-7.7-1.3-11.5-.6-7.6-.8-15-.7-22.4s.5-14.8 1.1-22.1c.4-5.3 5.1-9.3 10.4-8.8 4.8.2 8.5 3.9 9 8.7z"/>
    </defs>
    <clipPath id="SVGID_393_">
      <use xlink:href="#SVGID_391_" style="overflow:visible"/>
    </clipPath>
    <clipPath id="SVGID_394_" style="clip-path:url(#SVGID_393_)">
      <use xlink:href="#SVGID_392_" style="overflow:visible"/>
    </clipPath>
    <path style="clip-path:url(#SVGID_394_);fill:#87d72f" d="M165.2 271.7h57.7v114.9h-57.7z"/>
  </g>
  <g>
    <defs>
      <path id="SVGID_395_" d="M20 206.1h779v380H20z"/>
    </defs>
    <defs>
      <path id="SVGID_396_" d="M203.8 365.3c1.3 1.4 2.3 20.1-8.2 15.7-.8-.2-1.6-.5-2.4-.8-.8-.3-1.4-.6-2.2-1-2.2-1.2-4.2-2.7-6-4.5-2.3-2.4-4.2-5.1-5.7-8-1.1-2.2-2.1-4.5-2.9-6.8-.8-2.2-1.3-4.2-1.9-6.3-1-3.9-1.7-7.9-2.3-11.9-.6-3.9-1-7.7-1.3-11.5-.6-7.6-.8-15-.7-22.4.1-7.4.5-14.8 1.1-22.1.4-5.3 5.1-9.3 10.4-8.8 4.9.3-16.4 48.5 22.1 88.4z"/>
    </defs>
    <clipPath id="SVGID_397_">
      <use xlink:href="#SVGID_395_" style="overflow:visible"/>
    </clipPath>
    <clipPath id="SVGID_398_" style="clip-path:url(#SVGID_397_)">
      <use xlink:href="#SVGID_396_" style="overflow:visible"/>
    </clipPath>
    <path style="clip-path:url(#SVGID_398_);fill:#4a8d00" d="M165.2 271.8h44.4v114.8h-44.4z"/>
  </g>
  <g>
    <defs>
      <path id="SVGID_399_" d="M20 206.1h779v380H20z"/>
    </defs>
    <defs>
      <path id="SVGID_400_" d="M201.7 352.6c-.2 0-.4-.1-.5-.3-16.7-22.3-19.8-44.4-19.3-75.2 0-.3.3-.6.6-.6.4 0 .6.3.6.7-.6 40.3 6.6 57.8 19.1 74.4.2.3.2.7-.1.9-.1.1-.2.1-.4.1z"/>
    </defs>
    <clipPath id="SVGID_401_">
      <use xlink:href="#SVGID_399_" style="overflow:visible"/>
    </clipPath>
    <clipPath id="SVGID_402_" style="clip-path:url(#SVGID_401_)">
      <use xlink:href="#SVGID_400_" style="overflow:visible"/>
    </clipPath>
    <path style="clip-path:url(#SVGID_402_);fill:#caf995" d="M176.9 271.5h30.5v86.1h-30.5z"/>
  </g>
  <g>
    <defs>
      <path id="SVGID_403_" d="M20 206.1h779v380H20z"/>
    </defs>
    <defs>
      <path id="SVGID_404_" d="M201.1 358c-.2 0-.4-.1-.5-.2-18.4-21.1-24.6-47.5-18.9-80.7 0-.4.4-.6.7-.5.3.1.6.4.5.7-5.6 32.8.5 58.9 18.6 79.7.2.3.2.7-.1.9 0 .1-.1.1-.3.1z"/>
    </defs>
    <clipPath id="SVGID_405_">
      <use xlink:href="#SVGID_403_" style="overflow:visible"/>
    </clipPath>
    <clipPath id="SVGID_406_" style="clip-path:url(#SVGID_405_)">
      <use xlink:href="#SVGID_404_" style="overflow:visible"/>
    </clipPath>
    <path style="clip-path:url(#SVGID_406_);fill:#caf995" d="M174.7 271.6h32V363h-32z"/>
  </g>
  <g>
    <defs>
      <path id="SVGID_407_" d="M20 206.1h779v380H20z"/>
    </defs>
    <defs>
      <path id="SVGID_408_" d="M201.7 348.5c-.2 0-.4-.1-.6-.3-12.3-20.6-14.2-39.3-15.7-53-.8-7.7-1.4-13.7-3.5-17.9-.2-.3 0-.7.3-.9.3-.2.7 0 .9.3 2.2 4.4 2.9 10.5 3.7 18.3 1.4 13.5 3.4 32.1 15.5 52.4.2.3.1.7-.2.9-.1.2-.2.2-.4.2z"/>
    </defs>
    <clipPath id="SVGID_409_">
      <use xlink:href="#SVGID_407_" style="overflow:visible"/>
    </clipPath>
    <clipPath id="SVGID_410_" style="clip-path:url(#SVGID_409_)">
      <use xlink:href="#SVGID_408_" style="overflow:visible"/>
    </clipPath>
    <path style="clip-path:url(#SVGID_410_);fill:#caf995" d="M176.8 271.3h30.6v82.2h-30.6z"/>
  </g>
  <g>
    <defs>
      <path id="SVGID_411_" d="M20 206.1h779v380H20z"/>
    </defs>
    <defs>
      <path id="SVGID_412_" d="M202.1 347.8c-.3 0-.5-.2-.6-.4-8.6-22-10.4-38-11.7-49.6-1.2-10.7-1.9-17.2-7.4-20.2-.3-.2-.4-.6-.3-.9.1-.3.6-.4.9-.3 6.1 3.3 6.8 10 8.1 21.1 1.3 11.6 3.1 27.4 11.6 49.3.1.3 0 .7-.4.8-.1.2-.2.2-.2.2z"/>
    </defs>
    <clipPath id="SVGID_413_">
      <use xlink:href="#SVGID_411_" style="overflow:visible"/>
    </clipPath>
    <clipPath id="SVGID_414_" style="clip-path:url(#SVGID_413_)">
      <use xlink:href="#SVGID_412_" style="overflow:visible"/>
    </clipPath>
    <path style="clip-path:url(#SVGID_414_);fill:#caf995" d="M177.1 271.3h30.7v81.4h-30.7z"/>
  </g>
  <g>
    <defs>
      <path id="SVGID_415_" d="M20 206.1h779v380H20z"/>
    </defs>
    <defs>
      <path id="SVGID_416_" d="M212.2 482.4c-3.8-.6-6.7-3.5-7.3-7.3-.9-5.4-1.5-10.8-2.1-16.2s-1.1-10.8-1.6-16.2c-.9-10.8-1.6-21.6-2.1-32.4-1-21.6-1.3-43.2-1.2-64.8.1-21.6.6-43.2 1.7-64.8.5-10.8 1.2-21.6 2-32.4.9-10.8 1.8-21.6 3.2-32.4.7-4.9 4.3-9.6 9.6-8.3.5.1.2 2.5.1 3-16.6 179.4 2.5 272.5-2.3 271.8z"/>
    </defs>
    <clipPath id="SVGID_417_">
      <use xlink:href="#SVGID_415_" style="overflow:visible"/>
    </clipPath>
    <clipPath id="SVGID_418_" style="clip-path:url(#SVGID_417_)">
      <use xlink:href="#SVGID_416_" style="overflow:visible"/>
    </clipPath>
    <path style="clip-path:url(#SVGID_418_);fill:#4a8d00" d="M192.9 202.4h26.8v285h-26.8z"/>
  </g>
  <g>
    <defs>
      <path id="SVGID_419_" d="M20 206.1h779v380H20z"/>
    </defs>
    <defs>
      <path id="SVGID_420_" d="M213.3 482.1c-.4 0-.6-.3-.6-.6-2.6-163.5-.1-241.5 1.6-273.4 0-.4.3-.6.7-.6.4 0 .6.3.6.7-1.7 31.9-4.1 109.8-1.6 273.3 0 .3-.3.6-.7.6z"/>
    </defs>
    <clipPath id="SVGID_421_">
      <use xlink:href="#SVGID_419_" style="overflow:visible"/>
    </clipPath>
    <clipPath id="SVGID_422_" style="clip-path:url(#SVGID_421_)">
      <use xlink:href="#SVGID_420_" style="overflow:visible"/>
    </clipPath>
    <path style="clip-path:url(#SVGID_422_);fill:#caf995" d="M206.6 202.5h14v284.6h-14z"/>
  </g>
  <g>
    <defs>
      <path id="SVGID_423_" d="M20 206.1h779v380H20z"/>
    </defs>
    <defs>
      <path id="SVGID_424_" d="M213.3 481.9h-.1c-.3-.1-.6-.4-.5-.8 4-20.8 6.2-77.7 5.9-152.4-.2-67.6-2.4-117.8-4.3-120.4-.2-.3-.1-.7.1-.9.3-.2.7-.1.9.1 1.2 1.7 2.2 14.8 3 38.9.8 22.7 1.3 52.7 1.4 82.3.1 28 0 121.8-6 152.7.2.3-.1.5-.4.5z"/>
    </defs>
    <clipPath id="SVGID_425_">
      <use xlink:href="#SVGID_423_" style="overflow:visible"/>
    </clipPath>
    <clipPath id="SVGID_426_" style="clip-path:url(#SVGID_425_)">
      <use xlink:href="#SVGID_424_" style="overflow:visible"/>
    </clipPath>
    <path style="clip-path:url(#SVGID_426_);fill:#caf995" d="M207.7 202.3h17v284.6h-17z"/>
  </g>
  <g>
    <defs>
      <path id="SVGID_427_" d="M20 206.1h779v380H20z"/>
    </defs>
    <defs>
      <path id="SVGID_428_" d="M213.8 482.4c-.4 0-.6-.3-.6-.6 0-.2.1-.3.2-.4 6.8-8 11.2-57.1 11.5-128.3.3-65.1-3-124.2-7.7-140.5-1-3.6-1.9-4.1-2.1-4.2-.3-.1-.5-.5-.4-.8.1-.3.5-.5.8-.4 1.1.3 2.1 1.9 3 5 4.1 14.1 8.1 67 7.8 140.9-.1 27.2-1.3 116.7-11.8 129.1-.4.2-.5.2-.7.2z"/>
    </defs>
    <clipPath id="SVGID_429_">
      <use xlink:href="#SVGID_427_" style="overflow:visible"/>
    </clipPath>
    <clipPath id="SVGID_430_" style="clip-path:url(#SVGID_429_)">
      <use xlink:href="#SVGID_428_" style="overflow:visible"/>
    </clipPath>
    <path style="clip-path:url(#SVGID_430_);fill:#caf995" d="M208.2 202.2h23.1v285.2h-23.1z"/>
  </g>
  <g>
    <defs>
      <path id="SVGID_431_" d="M20 206.1h779v380H20z"/>
    </defs>
    <defs>
      <path id="SVGID_432_" d="M214.6 482.3c-.2 0-.5 0-.7-.1-.3-.1-.6-.4-.5-.8.1-.3.4-.6.8-.5 1.1.2 2.2-.5 3.3-2.2 9.1-14.2 12-82.6 11.7-136.8-.4-68.7-5.3-123.2-12-132.3-1.1-1.5-1.8-1.3-2.1-1.2-.3.1-.7-.1-.8-.5-.1-.4.1-.7.5-.8 1.2-.3 2.4.2 3.4 1.7 4.5 6.2 7.3 29.2 8.9 47.4 2 23.7 3.2 54.1 3.4 85.7.3 54.4-2.7 123.1-11.9 137.5-1.2 2-2.6 2.9-4 2.9z"/>
    </defs>
    <clipPath id="SVGID_433_">
      <use xlink:href="#SVGID_431_" style="overflow:visible"/>
    </clipPath>
    <clipPath id="SVGID_434_" style="clip-path:url(#SVGID_433_)">
      <use xlink:href="#SVGID_432_" style="overflow:visible"/>
    </clipPath>
    <path style="clip-path:url(#SVGID_434_);fill:#caf995" d="M208.4 202h27.1v285.3h-27.1z"/>
  </g>
  <g>
    <defs>
      <path id="SVGID_435_" d="M204.9 351h9.5v27.5h-9.5z"/>
    </defs>
    <clipPath id="SVGID_436_">
      <use xlink:href="#SVGID_435_" style="overflow:visible"/>
    </clipPath>
    <path style="clip-path:url(#SVGID_436_);fill:#4a8d00" d="M199.9 346h19.5v37.5h-19.5z"/>
  </g>
  <g>
    <defs>
      <path id="SVGID_437_" d="M20 206.1h779v380H20z"/>
    </defs>
    <defs>
      <path id="SVGID_438_" d="M268.3 300.8c-1.2 7.2-2.7 14.4-4.4 21.6-1.7 7.2-3.8 14.4-6.2 21.6-1.2 3.6-2.6 7.2-4.1 10.8-1.5 3.7-3.3 7.4-5.2 10.9-1 1.9-2.1 3.7-3.4 5.6-1.3 2.1-2.8 4-4.5 5.9-2.2 2.5-4.7 4.7-7.5 6.4-2.1 1.3-4.5 2.3-6.9 2.9-.8.2-1.5.3-2.3.4-.9.1-1.7.2-2.6.2-1.9 0-3.7-.1-5.5-.6-9.1-2.3-14.5-11.5-12.2-20.6 2.3-9.1 11.5-14.5 20.6-12.2-.9-.2-1.9-.3-2.9-.3-.8 0-1.5.2-2.3.4-.7.2-1.4.5-2 1-.2.2-.2.3 0 .3.3-.1.6-.3.8-.5.9-.6 1.7-1.4 2.4-2.2.9-.9 1.8-2 2.7-3.1 1.9-2.4 3.7-4.9 5.3-7.5 1.7-2.7 3.4-5.5 5-8.5 3.2-5.8 6.1-12 8.8-18.2 2.7-6.2 5.2-12.7 7.5-19.2v-.1c1.8-5 7.3-7.7 12.3-5.9 4.7 1.7 7.4 6.2 6.6 10.9z"/>
    </defs>
    <clipPath id="SVGID_439_">
      <use xlink:href="#SVGID_437_" style="overflow:visible"/>
    </clipPath>
    <clipPath id="SVGID_440_" style="clip-path:url(#SVGID_439_)">
      <use xlink:href="#SVGID_438_" style="overflow:visible"/>
    </clipPath>
    <path style="clip-path:url(#SVGID_440_);fill:#87d72f" d="M198 284.3h75.5v107.8H198z"/>
  </g>
  <g>
    <defs>
      <path id="SVGID_441_" d="M20 206.1h779v380H20z"/>
    </defs>
    <defs>
      <path id="SVGID_442_" d="M227.7 385.8c-5.2 1.7-26.1.9-23.6-6.1s10.3-12.3 10.2-12.2c0 0 1-1.3 1.9-2.6 1.8-2.5 3.7-5.5 5.5-8.6 3.6-6.2 7.5-13.4 10.7-20 6.5-13.3 12-26.5 17.5-40.4 2-4.9 6.5-9.3 10.6-5.9 9.4 7.6-20.3 95.3-32.8 95.8z"/>
    </defs>
    <clipPath id="SVGID_443_">
      <use xlink:href="#SVGID_441_" style="overflow:visible"/>
    </clipPath>
    <clipPath id="SVGID_444_" style="clip-path:url(#SVGID_443_)">
      <use xlink:href="#SVGID_442_" style="overflow:visible"/>
    </clipPath>
    <path style="clip-path:url(#SVGID_444_);fill:#4a8d00" d="M198.9 283.8h68.4v107.8h-68.4z"/>
  </g>
  <g>
    <defs>
      <path id="SVGID_445_" d="M20 206.1h779v380H20z"/>
    </defs>
    <defs>
      <path id="SVGID_446_" d="M238.8 269.9c.6 15.4.8 30.8.3 46.4-.3 7.8-.7 15.6-1.6 23.7-.4 4-1 8.1-1.9 12.5-.5 2.4-1.1 4.8-2 7.2-.2.7-.5 1.4-.9 2.2-.2.4-.4.8-.6 1.3l-.4.7-.2.4-.2.4c-.2.3-.3.5-.5.8-.2.3-.4.6-.7.9l-.2.2-.2.3-.5.5-.5.5-.6.6c-.2.2-.4.4-.7.6-.3.2-.6.5-.9.7-.3.2-.6.4-1 .6-.4.2-.8.5-1.2.7-.9.5-1.9.8-2.9 1.1-.6.1-1.1.3-1.7.3-.6.1-1.2.1-1.8.1-7.5 0-13.5-6.1-13.5-13.5 0-7.5 6.1-13.5 13.5-13.5-1.8 0-3.5.4-5.1 1.2-.3.1-.6.3-.9.5-.3.2-.4.3-.7.4-.3.1-.4.3-.6.5-.2.1-.3.2-.4.4-.1.2-.3.2-.4.4l-.3.3c-.1.1-.2.2-.2.3l-.2.2c-.1.1-.2.2-.2.4 0 .1-.1.1-.1.2l-.1.1v.1c.1-.1.2-.3.2-.4.5-1.2 1-2.4 1.4-3.7.9-3 1.7-6.4 2.4-9.9 1.4-7 2.4-14.3 3.3-21.7 1.7-14.7 2.8-29.7 3.5-44.7.2-5.3 4.7-9.4 10-9.2 5.1-.1 9.1 3.9 9.3 8.9z"/>
    </defs>
    <clipPath id="SVGID_447_">
      <use xlink:href="#SVGID_445_" style="overflow:visible"/>
    </clipPath>
    <clipPath id="SVGID_448_" style="clip-path:url(#SVGID_447_)">
      <use xlink:href="#SVGID_446_" style="overflow:visible"/>
    </clipPath>
    <path style="clip-path:url(#SVGID_448_);fill:#87d72f" d="M199.4 256h45v121.6h-45z"/>
  </g>
  <g>
    <defs>
      <path id="SVGID_449_" d="M20 206.1h779v380H20z"/>
    </defs>
    <defs>
      <path id="SVGID_450_" d="M217.3 373.9c-1.4 3.5-10.8-6.8-11.3-8-2.5-5.2-1.8-11.2 1.6-15.8 3.1-4.4 4.1-8.6 5.2-13.8 1.4-7 2.4-14.3 3.3-21.7 1.7-14.7 2.8-29.7 3.5-44.7.2-5.3 4.7-9.4 10.1-9.2 4.9.2 2.8 74.8-12.4 113.2z"/>
    </defs>
    <clipPath id="SVGID_451_">
      <use xlink:href="#SVGID_449_" style="overflow:visible"/>
    </clipPath>
    <clipPath id="SVGID_452_" style="clip-path:url(#SVGID_451_)">
      <use xlink:href="#SVGID_450_" style="overflow:visible"/>
    </clipPath>
    <path style="clip-path:url(#SVGID_452_);fill:#4a8d00" d="M199.5 255.7h37.6v123.9h-37.6z"/>
  </g>
  <g>
    <defs>
      <path id="SVGID_453_" d="M201.3 360.5h9.9V382h-9.9z"/>
    </defs>
    <clipPath id="SVGID_454_">
      <use xlink:href="#SVGID_453_" style="overflow:visible"/>
    </clipPath>
    <path style="clip-path:url(#SVGID_454_);fill:#4a8d00" d="M196.3 355.5h19.9V387h-19.9z"/>
  </g>
  <g>
    <defs>
      <path id="SVGID_455_" d="M202.7 350.1h9.8v26.8h-9.8z"/>
    </defs>
    <clipPath id="SVGID_456_">
      <use xlink:href="#SVGID_455_" style="overflow:visible"/>
    </clipPath>
    <path style="clip-path:url(#SVGID_456_);fill:#4a8d00" d="M197.7 345.1h19.8v36.8h-19.8z"/>
  </g>
  <g>
    <defs>
      <path id="SVGID_457_" d="M20 206.1h779v380H20z"/>
    </defs>
    <defs>
      <path id="SVGID_458_" d="M218.1 373.4c-.2 0-.3-.1-.4-.2-.3-.2-.3-.6-.1-.9 7.5-8.6 12.9-30.2 14.8-59.3 1.6-23.6.2-46.7-3-51.4-.2-.3-.1-.7.2-.9.3-.2.7-.1.9.2 3.4 5 4.8 27.9 3.2 52.2-.9 13.9-4.3 47.6-15.2 60-.1.2-.2.3-.4.3z"/>
    </defs>
    <clipPath id="SVGID_459_">
      <use xlink:href="#SVGID_457_" style="overflow:visible"/>
    </clipPath>
    <clipPath id="SVGID_460_" style="clip-path:url(#SVGID_459_)">
      <use xlink:href="#SVGID_458_" style="overflow:visible"/>
    </clipPath>
    <path style="clip-path:url(#SVGID_460_);fill:#caf995" d="M212.5 255.6h26.9v122.8h-26.9z"/>
  </g>
  <g>
    <defs>
      <path id="SVGID_461_" d="M20 206.1h779v380H20z"/>
    </defs>
    <defs>
      <path id="SVGID_462_" d="M218.4 373.3c-.4 0-.6-.3-.6-.6s.2-.5.4-.6c7.4-2.4 13.3-19.1 16.2-45.9 2.4-22.3 2-47.7-1-58.9-1-3.8-2.2-5.8-3.4-5.6-.3.1-.7-.2-.8-.5-.1-.3.2-.7.5-.8 2.1-.4 3.7 1.7 4.9 6.5 3 11.6 3.4 36.5 1 59.4-4 37.5-12.4 45.5-17 47h-.2z"/>
    </defs>
    <clipPath id="SVGID_463_">
      <use xlink:href="#SVGID_461_" style="overflow:visible"/>
    </clipPath>
    <clipPath id="SVGID_464_" style="clip-path:url(#SVGID_463_)">
      <use xlink:href="#SVGID_462_" style="overflow:visible"/>
    </clipPath>
    <path style="clip-path:url(#SVGID_464_);fill:#caf995" d="M212.8 255.3h29.4v122.9h-29.4z"/>
  </g>
  <g>
    <defs>
      <path id="SVGID_465_" d="M20 206.1h779v380H20z"/>
    </defs>
    <defs>
      <path id="SVGID_466_" d="M224.2 386.5c-3.3-.1-6.5-1-9.3-2.7-.3-.2-.4-.6-.2-.9.2-.3.6-.4.9-.2 7.2 4.2 14.4 3.1 21.4-3.2 9-8.2 17.4-24.8 23.1-45.7 4.9-18.2 6.3-35.2 3.5-41.4-.8-1.7-1.8-2.4-3.1-2.3-.4 0-.7-.2-.7-.6 0-.4.2-.7.6-.7 1.3-.2 3.1.2 4.4 3 2.9 6.5 1.5 23.8-3.4 42.3-5.7 21.1-14.2 38-23.5 46.3-4.6 4.1-9.1 6.1-13.7 6.1z"/>
    </defs>
    <clipPath id="SVGID_467_">
      <use xlink:href="#SVGID_465_" style="overflow:visible"/>
    </clipPath>
    <clipPath id="SVGID_468_" style="clip-path:url(#SVGID_467_)">
      <use xlink:href="#SVGID_466_" style="overflow:visible"/>
    </clipPath>
    <path style="clip-path:url(#SVGID_468_);fill:#caf995" d="M209.6 283.7h61.7v107.7h-61.7z"/>
  </g>
  <g>
    <defs>
      <path id="SVGID_469_" d="M20 206.1h779v380H20z"/>
    </defs>
    <defs>
      <path id="SVGID_470_" d="M218.6 373.9c-.4 0-.6-.3-.6-.6s.2-.6.5-.6c6.5-1.2 11.8-9 15.3-22.6 3.6-13.8 5.4-34 4.7-54.1-.6-17.8-3-31.8-5.9-34.2-.2-.3-.6-.4-1-.2-.3.2-.7 0-.9-.3-.2-.3 0-.7.3-.9.8-.4 1.7-.2 2.3.4 6.6 5.5 9.9 57.7 1.6 89.6-3.7 14.3-9.2 22.2-16.3 23.5.1 0 0 0 0 0z"/>
    </defs>
    <clipPath id="SVGID_471_">
      <use xlink:href="#SVGID_469_" style="overflow:visible"/>
    </clipPath>
    <clipPath id="SVGID_472_" style="clip-path:url(#SVGID_471_)">
      <use xlink:href="#SVGID_470_" style="overflow:visible"/>
    </clipPath>
    <path style="clip-path:url(#SVGID_472_);fill:#caf995" d="M213 255.2h31.8V379H213z"/>
  </g>
  <g>
    <defs>
      <path id="SVGID_473_" d="M20 206.1h779v380H20z"/>
    </defs>
    <defs>
      <path id="SVGID_474_" d="M221.8 384.9c-3.4-.1-6.7-1-9.6-2.8-.3-.2-.4-.6-.3-.9.2-.3.6-.4.9-.3 6.5 3.8 12.8 3.5 19-.9 20.8-14.8 32.9-71.7 29.8-86.9-.4-1.8-.9-2.9-1.6-3-.3-.1-.6-.4-.5-.8.1-.3.4-.6.8-.5 1.2.3 2.1 1.6 2.6 4 3.1 15.4-9.2 73.1-30.3 88.2-3.2 2.5-6.9 3.8-10.8 3.9z"/>
    </defs>
    <clipPath id="SVGID_475_">
      <use xlink:href="#SVGID_473_" style="overflow:visible"/>
    </clipPath>
    <clipPath id="SVGID_476_" style="clip-path:url(#SVGID_475_)">
      <use xlink:href="#SVGID_474_" style="overflow:visible"/>
    </clipPath>
    <path style="clip-path:url(#SVGID_476_);fill:#caf995" d="M206.9 283.8h61.5v106.1h-61.5z"/>
  </g>
  <g>
    <defs>
      <path id="SVGID_477_" d="M20 206.1h779v380H20z"/>
    </defs>
    <defs>
      <path id="SVGID_478_" d="m216.2 379.3 23.2-7.8s-4.2 20.1-27.1 14.4c-17.9-4.4-8-9.2-8-9.2l11.9 2.6z"/>
    </defs>
    <clipPath id="SVGID_479_">
      <use xlink:href="#SVGID_477_" style="overflow:visible"/>
    </clipPath>
    <clipPath id="SVGID_480_" style="clip-path:url(#SVGID_479_)">
      <use xlink:href="#SVGID_478_" style="overflow:visible"/>
    </clipPath>
    <path style="clip-path:url(#SVGID_480_);fill:#4a8d00" d="M196.6 366.5h47.8v25.4h-47.8z"/>
  </g>
  <g>
    <defs>
      <path id="SVGID_481_" d="M20 206.1h779v380H20z"/>
    </defs>
    <defs>
      <path id="SVGID_482_" d="m219.6 366.7-1.9 6.5c3.6-.4 7.1-1.8 9.9-4.1 5-4-2.6 10.1-2.6 10.1s-10-.5-10.5-.6-4.7-3.2-4.4-3.5c.3-.3 7.6-13.9 9.5-8.4z"/>
    </defs>
    <clipPath id="SVGID_483_">
      <use xlink:href="#SVGID_481_" style="overflow:visible"/>
    </clipPath>
    <clipPath id="SVGID_484_" style="clip-path:url(#SVGID_483_)">
      <use xlink:href="#SVGID_482_" style="overflow:visible"/>
    </clipPath>
    <path style="clip-path:url(#SVGID_484_);fill:#4a8d00" d="M205.1 360.4h29.2v23.8h-29.2z"/>
  </g>
</svg>
