<svg width="492" height="328" viewBox="0 0 492 328" fill="none" xmlns="http://www.w3.org/2000/svg">
<g clip-path="url(#clip0_337_1338)">
<path d="M281.381 243.254C280.488 243.375 279.798 244.225 279.555 245.116C279.027 247.018 279.92 249.042 280.082 250.945C280.204 252.605 279.879 254.264 279.879 255.964C279.839 256.572 279.96 257.179 280.245 257.705C281.219 259.405 283.654 258.92 285.278 259.405C287.186 259.972 289.012 260.741 290.717 261.753C292.706 262.927 297.414 265.316 295.994 268.271C295.182 269.971 293.68 270.821 293.883 272.966C293.964 273.978 294.411 274.95 294.289 275.962C294.167 276.933 293.518 277.784 293.071 278.674C292.503 279.889 292.3 281.265 292.544 282.56C293.274 282.196 294.208 281.832 294.938 282.236C295.304 282.479 295.588 282.803 295.791 283.208C296.927 284.746 302.569 288.228 303.868 285.394C303.868 285.353 303.868 285.273 303.909 285.232C304.031 284.787 304.112 284.341 304.112 283.896C304.355 281.346 305.248 275.962 308.414 275.355C310.16 274.99 311.784 276.488 312.717 278.026C313.651 279.565 314.26 281.346 315.68 282.479C317.141 283.613 319.171 283.775 320.957 283.248C322.743 282.722 326.761 280.82 325.625 280.334C324.407 279.929 323.108 280.334 321.85 280.536C320.592 280.739 319.13 280.739 318.278 279.808C320.186 280.253 322.053 278.917 323.189 277.379C324.042 276.205 326.315 274.95 326.477 273.371C326.721 270.942 323.23 270.254 321.85 271.914C320.754 273.29 319.78 274.788 319.009 276.407C316.573 274.99 313.935 273.655 311.743 271.954C312.961 269.566 314.665 266.894 317.344 265.963C320.957 264.708 325.99 266.489 329.765 266.813C331.673 266.975 334.514 267.704 336.3 266.692C337.802 265.842 338.33 264.02 338.857 262.401C339.507 260.336 344.297 248.84 340.643 247.868C338.046 247.18 337.031 254.224 336.625 255.722C336.016 258.069 335.083 260.458 333.094 261.875C332.607 261.106 333.256 260.134 333.824 259.405C334.798 258.231 334.514 256.086 332.607 256.572C330.09 257.179 331.714 260.66 330.415 262.077C329.887 262.644 329.075 262.806 328.344 262.887C326.518 263.13 317.75 264.587 316.736 262.482C316.289 261.591 319.374 259.081 319.942 258.393C321.282 256.734 322.418 254.872 322.905 252.807C323.474 250.5 323.352 247.747 325.178 246.249C326.518 245.156 328.466 245.156 329.887 244.185C331.835 242.849 332.201 240.217 332.404 237.87C332.607 235.724 332.769 233.457 331.754 231.555C331.186 230.462 329.846 229.652 328.832 230.826C327.533 232.405 327.695 236.25 327.817 238.153C327.898 238.963 327.898 239.772 327.736 240.541C327.289 242.08 324.001 244.832 322.256 244.225C321.16 243.82 321.241 242.606 321.403 241.675C321.891 238.801 322.094 235.846 321.972 232.931C321.891 231.15 321.322 228.964 319.577 228.64C318.278 228.397 317.06 229.409 316.33 230.462C314.665 232.85 314.138 235.886 314.909 238.72C315.802 241.918 318.278 244.589 318.846 247.868C319.212 250.054 318.643 252.2 317.791 254.183C317.426 254.952 314.95 261.065 313.529 259.608C313.367 259.365 313.285 259.081 313.326 258.798C313.488 256.855 316.898 252.24 314.422 250.702C313.57 250.176 312.474 250.662 311.784 251.35C309.389 253.617 309.673 257.746 311.256 260.377C312.352 262.199 312.271 263.737 310.931 265.477C308.942 268.068 305.776 272.521 302.123 272.683C301.92 272.723 301.676 272.683 301.474 272.562C301.027 272.278 301.108 271.59 301.271 271.104C302.651 266.975 306.304 263.899 308.658 260.336C310.16 258.029 307.075 260.013 306.426 260.62C306.223 260.822 303.909 263.211 303.99 263.372C302.691 260.903 303.3 257.867 305.492 256.086C306.223 255.519 307.116 255.114 307.765 254.426C308.78 253.333 309.023 251.714 308.942 250.257C308.861 248.395 308.374 245.359 306.913 244.104C306.101 245.561 305.695 247.221 305.736 248.88C305.736 249.973 305.898 251.107 305.533 252.2C305.289 253.009 304.68 253.657 303.868 253.9C301.189 254.548 301.027 249.002 300.865 247.423C300.662 245.44 300.865 242.646 303.259 242.08C303.828 241.958 304.437 241.958 304.964 241.675C307.278 240.46 306.71 234.186 306.547 232.081C306.466 231.19 306.263 230.138 305.289 229.854C302.894 229.166 302.123 232.971 302.123 234.55C302.123 235.967 302.488 240.501 300.093 240.541C299.282 240.541 298.713 239.772 298.429 239.003C297.496 236.574 298.023 233.862 298.226 231.231C298.348 229.531 297.617 227.426 297.009 225.887C296.278 224.025 294.045 221.718 293.924 225.483C293.802 229.369 294.817 233.376 293.924 237.222C293.599 238.639 292.219 240.015 290.798 239.651C289.783 239.408 289.134 238.396 288.931 237.384C288.728 236.372 288.931 235.319 289.012 234.267C289.093 233.376 289.215 231.109 288.322 230.583C285.4 228.883 284.994 236.169 285.318 237.384C285.927 239.529 287.429 241.31 289.459 242.201C291.245 242.97 293.396 243.092 294.776 244.508C295.344 245.116 295.75 245.844 296.034 246.613C297.09 249.042 300.946 259.446 297.293 260.944C296.684 261.186 296.034 261.025 295.385 260.822C293.152 260.174 290.92 259.527 288.728 258.879C288.119 258.758 287.551 258.474 287.145 258.029C286.293 256.896 287.064 255.033 287.389 253.859C287.754 252.524 287.997 251.147 288.119 249.811C288.16 249.123 288.241 246.897 287.632 246.492C286.008 245.44 286.13 249.366 286.09 250.054C286.008 251.593 286.171 254.952 284.101 255.195C282.68 255.357 282.355 253.738 282.437 252.645C282.558 251.107 284.994 242.727 281.381 243.254V243.254Z" fill="#F8FAFD"/>
<path d="M152.993 256.086C151.978 256.612 150.72 256.248 149.827 255.519C148.934 254.791 148.325 253.819 147.676 252.888C147.107 252.079 145.606 250.135 144.428 250.338C140.816 251.026 145.687 257.341 146.823 258.11C148.853 259.446 151.369 259.851 153.724 259.122C155.753 258.515 157.62 257.058 159.772 257.22C160.665 257.341 161.517 257.624 162.329 258.029C164.927 259.284 175.602 265.113 173.654 268.959C173.329 269.607 172.639 269.931 172.03 270.214C169.757 271.266 167.443 272.319 165.13 273.371C164.521 273.655 163.871 273.938 163.181 273.776C161.679 273.452 160.989 271.347 160.381 270.173C159.69 268.838 158.919 267.542 158.067 266.287C157.62 265.68 156.078 263.777 155.266 263.899C153.196 264.182 156.119 267.34 156.565 267.947C157.62 269.242 160.137 271.955 158.595 273.614C157.539 274.748 156.119 273.655 155.388 272.724C154.373 271.388 150.395 262.684 147.757 265.721C147.107 266.49 147.148 267.664 147.594 268.554C148.528 270.497 150.72 271.55 152.222 273.007C153.521 274.302 154.454 275.922 155.672 277.258C156.078 277.784 156.606 278.189 157.214 278.431C159.244 279.12 160.908 277.015 162.613 276.246C164.602 275.355 166.672 274.707 168.783 274.302C171.259 273.857 176.86 272.44 177.834 275.922C178.362 277.905 177.753 279.686 179.458 281.306C180.27 282.075 181.325 282.561 181.975 283.492C182.584 284.382 182.624 285.556 182.908 286.609C183.314 288.025 184.126 289.28 185.303 290.211C185.668 289.361 186.115 288.43 187.008 288.228C187.495 288.187 187.942 288.228 188.429 288.39C190.499 288.835 197.602 287.702 196.669 284.423C196.587 284.382 196.547 284.301 196.547 284.22C196.344 283.775 196.06 283.37 195.776 282.965C194.152 280.698 191.026 275.598 193.178 272.805C194.395 271.266 196.75 271.307 198.617 271.914C200.484 272.521 202.311 273.574 204.259 273.452C206.289 273.371 208.074 272.036 209.17 270.335C210.266 268.635 212.215 264.182 210.916 264.587C209.617 265.113 208.846 266.368 207.953 267.461C207.06 268.554 205.842 269.607 204.462 269.404C206.37 268.433 206.938 265.963 206.776 263.858C206.654 262.28 207.587 259.608 206.613 258.232C205.071 256.046 201.702 257.989 201.742 260.337C201.824 262.28 202.108 264.182 202.635 266.044C199.632 266.611 196.466 267.38 193.421 267.583C192.691 264.749 192.163 261.308 193.705 258.636C195.776 255.034 201.215 252.848 204.584 250.5C206.289 249.285 209.13 247.828 209.901 245.723C210.51 243.982 209.658 242.08 208.927 240.339C207.993 238.194 203.65 225.28 199.916 227.061C197.277 228.357 201.499 234.915 202.27 236.413C203.447 238.76 204.421 241.432 203.772 243.982C202.798 243.699 202.635 242.444 202.595 241.432C202.554 239.772 200.768 238.234 199.55 239.934C197.927 242.242 201.783 243.942 201.702 246.087C201.661 246.938 201.134 247.626 200.565 248.273C199.266 249.771 193.056 257.26 190.702 256.248C189.728 255.843 190.458 251.552 190.418 250.581C190.336 248.233 189.93 245.925 188.835 243.82C187.617 241.513 185.587 239.327 186.034 236.777C186.359 234.915 187.982 233.538 188.429 231.717C189.078 229.247 187.495 226.778 185.993 224.714C184.613 222.811 183.111 220.827 180.919 219.977C179.661 219.492 177.956 219.775 177.997 221.475C178.037 223.702 180.96 226.778 182.421 228.235C183.071 228.843 183.639 229.531 184.045 230.3C184.816 231.879 184.045 236.534 182.137 237.263C180.96 237.708 180.148 236.655 179.62 235.765C177.956 233.012 176.008 230.462 173.816 228.154C172.477 226.738 170.447 225.321 168.742 226.333C167.484 227.061 167.24 228.762 167.362 230.178C167.727 233.336 169.473 236.21 172.111 237.991C175.156 240.015 179.133 240.42 181.934 242.727C183.801 244.266 184.897 246.411 185.587 248.678C185.871 249.569 188.185 256.369 185.993 256.208C185.668 256.127 185.384 255.965 185.222 255.681C183.923 253.981 183.477 247.707 180.311 248.233C179.255 248.395 178.687 249.609 178.565 250.662C178.24 254.224 181.406 257.462 184.613 258.515C186.805 259.244 187.86 260.539 188.023 262.968C188.226 266.53 188.835 272.481 185.953 275.193C185.79 275.355 185.587 275.476 185.344 275.557C184.775 275.638 184.329 275.031 184.126 274.505C182.299 270.092 183.111 264.992 182.462 260.337C182.056 257.382 180.879 261.187 180.838 262.158C180.838 262.482 180.595 266.085 180.798 266.166C177.956 265.032 176.292 262.077 176.779 259.082C176.982 258.07 177.429 257.098 177.469 256.086C177.55 254.467 176.576 252.969 175.44 251.795C174.019 250.297 171.462 248.192 169.351 248.152C169.716 249.933 170.569 251.593 171.786 252.929C172.558 253.819 173.532 254.669 174.019 255.803C174.425 256.653 174.384 257.624 173.897 258.394C172.111 260.863 168.052 256.41 166.794 255.196C165.211 253.698 163.384 251.269 164.927 249.083C165.292 248.557 165.82 248.152 166.063 247.545C167.078 244.873 162.126 240.137 160.502 238.518C159.812 237.829 158.879 237.101 157.864 237.586C155.428 238.72 157.499 242.444 158.595 243.74C159.609 244.913 163.181 248.354 161.192 250.135C160.543 250.743 159.488 250.5 158.716 250.095C156.2 248.759 154.698 246.128 152.993 243.82C151.897 242.323 149.746 241.108 148.163 240.258C146.255 239.246 142.724 238.922 145.362 242.12C148.041 245.44 151.775 247.99 153.805 251.836C154.576 253.252 154.414 255.357 152.993 256.086V256.086Z" fill="#F8FAFD"/>
<path d="M231.454 231.433C223.701 239.408 225.162 250.297 229.871 259.446C235.391 270.133 245.904 277.136 245.661 290.211C245.579 293.45 245.336 300.858 242.9 303.448C260.923 284.301 241.358 259.77 241.358 259.77C230.317 245.44 231.332 235.886 232.753 231.676C233.321 230.016 232.225 230.624 231.454 231.433V231.433Z" fill="#F8FAFD"/>
<path d="M216.882 249.245C210.915 260.417 215.218 267.987 222.402 272.116C230.805 276.974 243.469 275.76 246.554 286.123C247.284 288.673 248.949 294.583 247.081 298.186C260.842 271.793 234.336 265.073 234.336 265.073C219.399 260.944 217.897 252.969 218.262 248.719C218.384 247.018 217.41 248.152 216.882 249.245V249.245Z" fill="#F8FAFD"/>
<path d="M250.491 223.135C250.207 209.898 246.189 196.215 235.432 190.71C234.296 190.184 232.997 190.022 234.336 191.722C237.665 196.013 243.185 206.821 240.425 229.409C240.425 229.409 232.835 269.323 258.204 282.803C254.753 280.982 253.13 271.469 251.506 267.704C244.89 252.321 250.816 238.639 250.491 223.135Z" fill="#F8FAFD"/>
<path d="M258.549 287.637C257.302 285.58 261.049 280.86 259.299 279.079C259.068 278.844 258.845 278.605 258.626 278.367C258.017 282.038 257.371 285.949 258.549 287.637Z" fill="#F8FAFD"/>
<path d="M258.626 278.367C259.105 275.492 259.559 272.768 259.097 271.388C254.429 257.665 262.668 246.614 264.576 233.417C266.24 222.163 264.008 210.14 253.495 204.392C252.48 203.866 251.181 203.623 252.318 205.242C255.2 209.29 259.299 218.965 253.089 237.789C253.089 237.789 244.35 262.761 258.626 278.367Z" fill="#F8FAFD"/>
<path d="M258.549 287.637C258.573 287.677 258.601 287.717 258.629 287.753C258.601 287.717 258.577 287.673 258.549 287.637Z" fill="#F8FAFD"/>
<path d="M258.63 287.754L258.642 287.766L258.63 287.754Z" fill="#F8FAFD"/>
<path d="M259.178 288.228C258.971 288.11 258.792 287.956 258.638 287.766C258.772 287.944 258.946 288.098 259.178 288.228Z" fill="#F8FAFD"/>
<path d="M250.369 291.264C251.79 294.624 250.369 298.591 253.82 301.627C251.1 299.238 257.96 292.964 257.676 289.726C256.62 276.65 267.661 268.514 272.735 257.381C277.078 247.868 277.93 236.858 269.325 229.531C268.513 228.802 267.296 228.276 267.986 229.895C269.731 234.024 271.355 243.456 260.761 258.677C260.761 258.677 243.469 275.071 250.369 291.264Z" fill="#F8FAFD"/>
<path d="M253.734 147.474C255.525 145.687 255.525 142.791 253.734 141.004C251.943 139.218 249.038 139.218 247.247 141.004C245.456 142.791 245.456 145.687 247.247 147.474C249.038 149.26 251.943 149.26 253.734 147.474Z" fill="#E1E7F0"/>
<path d="M246.27 128.491C247.951 128.491 249.314 127.131 249.314 125.455C249.314 123.778 247.951 122.419 246.27 122.419C244.589 122.419 243.226 123.778 243.226 125.455C243.226 127.131 244.589 128.491 246.27 128.491Z" fill="#E1E7F0"/>
<path d="M260.03 110.922C260.03 109.692 259.032 108.696 257.798 108.696C256.564 108.696 255.565 109.692 255.565 110.922C255.565 112.153 256.564 113.149 257.798 113.149C259.032 113.149 260.03 112.153 260.03 110.922Z" fill="#E1E7F0"/>
<path d="M248.462 112.784C248.462 111.914 247.752 111.206 246.879 111.206C246.006 111.206 245.296 111.914 245.296 112.784C245.296 113.655 246.006 114.363 246.879 114.363C247.752 114.363 248.462 113.655 248.462 112.784Z" fill="#E1E7F0"/>
<path d="M253.86 101.49C254.6 101.49 255.199 100.892 255.199 100.154C255.199 99.4166 254.6 98.8185 253.86 98.8185C253.12 98.8185 252.521 99.4166 252.521 100.154C252.521 100.892 253.12 101.49 253.86 101.49Z" fill="#E1E7F0"/>
<path d="M253.13 180.063C253.13 179.193 252.42 178.484 251.547 178.484C250.674 178.484 249.964 179.193 249.964 180.063C249.964 180.933 250.674 181.642 251.547 181.642C252.42 181.642 253.13 180.933 253.13 180.063Z" fill="#E1E7F0"/>
<path d="M254.063 173.627C254.063 173.044 253.592 172.574 253.007 172.574C252.423 172.574 251.952 173.044 251.952 173.627C251.952 174.21 252.423 174.679 253.007 174.679C253.592 174.679 254.063 174.21 254.063 173.627Z" fill="#E1E7F0"/>
<path d="M249.842 168.688C249.842 168.263 249.497 167.919 249.071 167.919C248.645 167.919 248.3 168.263 248.3 168.688C248.3 169.113 248.645 169.457 249.071 169.457C249.497 169.457 249.842 169.113 249.842 168.688Z" fill="#E1E7F0"/>
<path d="M253.333 169.295C253.333 169.004 253.097 168.769 252.805 168.769C252.513 168.769 252.277 169.004 252.277 169.295C252.277 169.587 252.513 169.821 252.805 169.821C253.097 169.821 253.333 169.587 253.333 169.295Z" fill="#E1E7F0"/>
<path d="M250.857 165.004C250.857 164.757 250.658 164.559 250.41 164.559C250.163 164.559 249.964 164.757 249.964 165.004C249.964 165.251 250.163 165.45 250.41 165.45C250.658 165.45 250.857 165.251 250.857 165.004Z" fill="#E1E7F0"/>
<path d="M205.436 209.25C206.893 209.25 208.075 208.072 208.075 206.618C208.075 205.165 206.893 203.987 205.436 203.987C203.979 203.987 202.798 205.165 202.798 206.618C202.798 208.072 203.979 209.25 205.436 209.25Z" fill="#E1E7F0"/>
<path d="M204.705 195.77C204.705 194.81 203.921 194.029 202.959 194.029C201.997 194.029 201.214 194.81 201.214 195.77C201.214 196.729 201.997 197.51 202.959 197.51C203.921 197.51 204.705 196.729 204.705 195.77Z" fill="#E1E7F0"/>
<path d="M210.915 187.35C210.915 186.633 210.335 186.054 209.616 186.054C208.898 186.054 208.317 186.633 208.317 187.35C208.317 188.066 208.898 188.645 209.616 188.645C210.335 188.645 210.915 188.066 210.915 187.35Z" fill="#E1E7F0"/>
<path d="M204.259 188.443C204.259 187.929 203.841 187.512 203.325 187.512C202.81 187.512 202.392 187.929 202.392 188.443C202.392 188.957 202.81 189.374 203.325 189.374C203.841 189.374 204.259 188.957 204.259 188.443Z" fill="#E1E7F0"/>
<path d="M208.156 181.156C208.156 180.731 207.811 180.387 207.385 180.387C206.958 180.387 206.613 180.731 206.613 181.156C206.613 181.581 206.958 181.925 207.385 181.925C207.811 181.925 208.156 181.581 208.156 181.156Z" fill="#E1E7F0"/>
<path d="M283.208 270.781C283.208 270.416 282.964 269.971 282.68 270.457C282.518 270.861 282.396 271.307 282.315 271.752C282.152 272.44 281.99 273.088 281.828 273.776C281.625 274.586 282.03 274.869 282.761 275.193C283.289 275.436 283.816 275.638 284.385 275.8C284.912 275.962 285.562 276.084 285.968 276.488C286.333 276.934 286.495 277.5 286.495 278.067V278.148C286.495 278.269 286.374 278.35 286.252 278.35C285.684 278.431 285.115 278.472 284.507 278.472C284.507 278.472 284.425 277.662 284.425 277.581C284.385 277.338 284.385 277.015 284.141 276.853C283.938 276.731 283.695 276.731 283.492 276.812L283.248 276.934C283.126 277.055 283.167 277.217 283.208 277.338C283.329 277.743 283.451 278.189 283.614 278.593C283.695 278.755 283.411 278.877 283.695 278.755C283.496 278.84 283.423 278.941 283.419 279.01C283.244 278.885 282.863 278.658 282.68 278.634C282.355 278.593 283.005 279.443 283.329 279.727C283.614 280.051 284.06 280.213 284.507 280.132C284.912 280.01 285.278 279.808 285.602 279.524C285.927 279.241 286.414 279.201 286.78 279.403C287.064 279.686 287.145 280.091 287.064 280.455C287.023 280.82 286.942 281.144 286.82 281.508C286.739 281.67 286.698 281.791 286.658 281.953C286.658 282.034 286.658 282.156 286.536 282.56C286.698 282.803 287.388 282.884 287.673 282.884C287.916 282.925 288.16 282.884 288.403 282.803C288.566 282.722 288.606 282.56 288.85 282.641C289.012 282.722 289.134 282.844 289.215 282.965C289.377 282.682 289.459 282.398 289.54 282.115C289.54 281.832 289.54 281.548 289.621 281.305C289.743 281.103 289.905 280.982 290.027 280.779C290.352 280.213 289.743 279.484 290.311 279.079C290.717 278.755 291.366 278.796 291.853 278.755C292.625 278.715 293.355 278.796 294.045 279.039C294.167 279.079 294.248 279.079 294.37 279.079C294.654 279.039 294.695 278.674 294.776 278.391C294.979 277.581 295.912 277.096 295.994 276.286C295.994 276.043 295.872 275.8 295.669 275.76C295.507 275.76 295.385 275.841 295.304 275.922C294.817 276.407 294.817 277.136 294.532 277.743C294.411 278.027 293.883 278.31 293.802 277.824C293.802 277.662 293.842 277.5 293.924 277.338C294.045 277.015 294.167 276.731 294.248 276.407C294.329 276.286 294.329 276.124 294.289 276.003C294.248 275.962 294.208 275.881 294.167 275.881C294.086 275.841 294.005 275.962 293.964 276.043C293.761 276.448 293.558 276.853 293.396 277.298C293.274 277.581 293.315 278.188 292.99 278.31C292.828 278.35 292.665 278.35 292.503 278.31L290.96 278.027C290.798 278.027 290.636 277.946 290.514 277.784C290.433 277.541 290.555 277.257 290.676 277.055C291.204 276.245 291.813 275.517 292.503 274.869C292.787 274.505 293.233 274.424 293.639 274.626C294.248 274.869 294.979 274.748 295.466 274.302C295.75 273.978 295.953 273.614 295.994 273.209C295.994 273.007 295.872 271.914 295.507 272.4C295.344 272.683 295.182 272.966 295.06 273.29C294.979 273.493 294.898 273.898 294.654 274.019C294.411 274.14 293.721 273.938 293.639 273.614C293.558 273.25 293.883 272.886 294.086 272.602C294.411 272.116 294.695 271.631 294.938 271.145C295.101 270.942 295.141 270.659 295.141 270.416C295.019 270.052 294.37 270.254 294.167 270.416C293.721 270.7 293.68 271.185 293.518 271.671C293.396 272.076 293.233 272.44 292.99 272.805C292.868 273.007 292.625 273.331 292.341 273.25C291.935 273.169 291.975 272.562 292.097 272.278C292.3 271.954 292.503 271.631 292.625 271.307C292.665 271.064 292.503 270.295 292.097 270.416C291.975 270.457 291.894 270.578 291.853 270.7L291.123 272.44C291.082 272.521 291.042 272.683 291.042 272.805C291.042 273.047 291.285 273.128 291.407 273.29C291.529 273.493 291.569 273.736 291.529 273.938C291.488 274.262 291.366 274.545 291.163 274.788C291.001 275.031 290.839 275.274 290.636 275.476C290.392 275.76 289.824 275.841 289.783 275.314C289.702 274.829 290.149 274.302 290.27 273.898C290.392 273.574 290.433 273.007 289.986 273.452C289.662 273.736 289.418 274.059 289.215 274.424C289.053 274.748 289.012 275.112 289.134 275.436C289.256 275.76 289.54 275.962 289.58 276.326C289.621 276.529 289.093 277.743 288.931 277.541C288.89 277.5 288.89 277.46 288.89 277.419C288.89 277.055 288.322 277.338 288.444 277.743C288.606 278.269 288.728 278.836 288.728 279.403C288.728 279.524 288.687 279.605 288.606 279.686C288.403 279.808 288.2 279.605 288.078 279.403C287.713 278.755 287.957 278.067 287.794 277.338C287.673 276.731 287.348 276.407 287.835 276.084C288.403 275.679 288.89 274.788 288.606 274.1C288.566 273.898 288.403 273.776 288.2 273.776C287.957 273.776 287.794 274.019 287.713 274.262C287.632 274.626 287.835 275.395 287.429 275.638C287.267 275.76 287.145 275.598 287.145 275.436C287.145 275.112 287.104 274.829 287.104 274.545C287.064 274.14 287.064 273.736 287.185 273.331C287.429 272.805 287.794 272.4 288.241 272.076C288.728 271.752 289.134 271.388 289.499 270.983C289.864 270.538 290.027 269.93 289.986 269.364C289.946 268.878 289.58 268.271 289.012 268.554C288.85 268.635 288.728 268.756 288.647 268.918C288.2 269.688 288.2 270.861 287.47 271.428C287.023 271.793 286.536 270.659 286.455 270.376C286.374 269.971 286.617 269.688 286.82 269.323C287.023 268.959 287.145 268.554 287.185 268.149C287.185 267.825 286.983 267.461 286.617 267.664C286.495 267.744 286.374 267.866 286.292 267.987C285.805 268.635 285.075 269.89 285.643 270.7C285.887 271.064 286.293 271.307 286.414 271.752C286.536 272.238 286.211 272.683 286.09 273.169C285.968 273.655 286.008 274.14 286.13 274.626C286.211 274.829 286.577 275.8 286.292 275.881C286.008 275.962 285.521 275.638 285.278 275.517C284.953 275.355 284.628 275.152 284.304 274.95C284.06 274.788 283.735 274.626 283.614 274.383C283.37 273.938 284.141 273.371 283.654 272.926L283.614 272.886C283.492 272.764 283.289 272.805 283.167 272.966C283.005 273.209 283.208 273.493 283.167 273.776C283.167 273.857 283.126 273.898 283.045 273.898C282.639 273.817 283.005 272.683 283.045 272.44C283.167 271.914 283.208 271.347 283.208 270.781V270.781Z" fill="#CBD3D9"/>
<path d="M189.646 258.151C189.646 257.341 189.078 256.451 188.51 257.463C188.063 258.272 187.941 259.244 187.698 260.134C187.332 261.551 186.967 262.927 186.683 264.344C186.277 266.085 187.129 266.692 188.631 267.34C189.768 267.826 190.904 268.271 192.041 268.635C193.137 268.959 194.517 269.283 195.329 270.093C196.141 270.902 196.344 272.238 196.425 273.371C196.465 273.452 196.465 273.493 196.465 273.574C196.425 273.857 196.222 274.019 195.938 274.019C194.72 274.181 193.462 274.303 192.244 274.303C192.284 274.303 192.082 272.602 192.082 272.44C192 271.914 192 271.266 191.513 270.943C191.107 270.7 190.62 270.7 190.174 270.862C190.011 270.902 189.849 270.983 189.687 271.105C189.443 271.307 189.484 271.631 189.565 271.914C189.768 272.805 190.052 273.695 190.377 274.545C190.498 274.91 189.89 275.112 190.498 274.869C190.084 275.047 189.93 275.266 189.938 275.404C189.581 275.14 188.786 274.639 188.388 274.586C187.779 274.545 189.118 276.286 189.768 276.893C190.417 277.541 191.31 277.824 192.244 277.703C193.096 277.541 193.746 276.853 194.517 276.408C195.288 275.962 196.303 275.679 196.993 276.205C197.602 276.691 197.642 277.622 197.561 278.391C197.48 279.16 197.318 279.889 197.074 280.618C196.952 280.941 196.831 281.225 196.749 281.549C196.749 281.71 196.749 281.913 196.912 281.872C197.277 282.48 198.657 282.561 199.266 282.601C199.794 282.642 200.281 282.601 200.768 282.439C201.133 282.318 201.214 281.953 201.701 282.156C201.986 282.318 202.229 282.561 202.432 282.844C202.716 282.237 202.919 281.63 203.082 281.022C203.122 280.456 202.919 279.889 203.203 279.363C203.406 278.958 203.772 278.674 204.015 278.31C204.705 277.177 203.487 275.679 204.624 274.788C205.517 274.1 206.816 274.181 207.871 274.1C209.414 273.979 210.956 274.222 212.417 274.707C212.62 274.788 212.864 274.829 213.067 274.829C213.635 274.707 213.757 273.938 213.919 273.371C214.366 271.712 216.355 270.659 216.476 268.959C216.517 268.473 216.274 267.907 215.827 267.866C215.543 267.866 215.259 267.988 215.096 268.19C214.082 269.161 214.122 270.74 213.513 271.995C213.229 272.602 212.133 273.21 211.971 272.157C211.971 271.793 212.052 271.428 212.214 271.105C212.499 270.497 212.742 269.85 212.945 269.202C213.026 268.919 213.067 268.635 212.986 268.352C212.945 268.23 212.864 268.149 212.742 268.109C212.539 268.068 212.377 268.271 212.296 268.473C211.809 269.364 211.403 270.214 211.078 271.145C210.875 271.752 210.916 273.007 210.266 273.29C209.941 273.371 209.617 273.371 209.292 273.29L206.045 272.683C205.679 272.683 205.314 272.481 205.07 272.198C204.786 271.752 205.111 271.105 205.355 270.7C206.369 269 207.668 267.461 209.13 266.125C209.901 265.397 210.55 265.235 211.524 265.64C212.823 266.166 214.285 265.923 215.34 264.992C215.949 264.425 216.355 263.616 216.476 262.766C216.558 262.32 216.274 260.013 215.502 261.025C215.096 261.592 214.772 262.199 214.528 262.846C214.325 263.332 214.203 264.142 213.676 264.385C213.148 264.668 211.727 264.182 211.565 263.535C211.403 262.766 212.093 261.956 212.458 261.389C213.107 260.458 213.716 259.446 214.203 258.394C214.406 257.989 214.731 257.301 214.609 256.855C214.406 256.086 213.067 256.572 212.62 256.896C211.687 257.503 211.606 258.556 211.281 259.527C211.037 260.377 210.631 261.187 210.144 261.915C209.86 262.32 209.373 262.927 208.764 262.806C207.952 262.604 208.034 261.308 208.277 260.741C208.602 260.053 209.211 259.446 209.373 258.717C209.495 258.151 209.17 256.572 208.277 256.855C208.034 256.936 207.912 257.22 207.79 257.463L206.288 261.146C206.166 261.389 206.085 261.673 206.085 261.956C206.126 262.442 206.613 262.563 206.856 262.927C207.1 263.292 207.222 263.778 207.141 264.223C207.059 264.83 206.775 265.437 206.41 265.963C206.085 266.449 205.72 266.935 205.314 267.38C204.746 267.988 203.65 268.109 203.528 267.056C203.406 266.125 204.299 265.032 204.583 264.142C204.786 263.494 204.908 262.32 203.975 263.251C203.325 263.858 202.757 264.547 202.351 265.316C201.986 266.004 201.945 266.733 202.148 267.461C202.432 268.109 203.041 268.595 203.082 269.323C203.122 269.769 202.026 272.278 201.701 271.874C201.661 271.793 201.62 271.712 201.62 271.631C201.539 270.821 200.443 271.388 200.646 272.278C200.93 273.452 201.255 274.586 201.214 275.8C201.255 276.043 201.174 276.246 201.011 276.408C200.646 276.731 200.159 276.246 199.915 275.841C199.144 274.464 199.631 273.088 199.307 271.55C199.063 270.295 198.373 269.647 199.388 268.919C200.606 268.109 201.661 266.247 201.011 264.79C200.89 264.425 200.565 264.182 200.159 264.142C199.631 264.142 199.266 264.668 199.144 265.194C198.901 266.004 199.307 267.583 198.495 268.109C198.13 268.352 197.927 268.028 197.886 267.704C197.845 267.097 197.805 266.49 197.764 265.883C197.683 265.032 197.724 264.142 197.967 263.332C198.332 262.239 199.225 261.47 200.159 260.741C201.093 260.013 202.067 259.406 202.757 258.475C203.487 257.544 203.853 256.329 203.772 255.115C203.65 254.143 202.879 252.848 201.742 253.455C201.417 253.657 201.133 253.941 200.971 254.265C200.037 255.884 200.078 258.313 198.535 259.527C197.642 260.256 196.628 257.908 196.465 257.301C196.262 256.451 196.831 255.843 197.237 255.115C197.683 254.346 197.967 253.495 198.048 252.645C198.089 251.957 197.683 251.188 196.912 251.633C196.668 251.795 196.425 252.038 196.262 252.281C195.207 253.698 193.705 256.248 194.882 257.989C195.41 258.758 196.262 259.284 196.506 260.175C196.749 261.146 196.141 262.118 195.856 263.089C195.613 264.101 195.653 265.154 195.938 266.166C196.059 266.611 196.871 268.595 196.262 268.757C195.653 268.919 194.598 268.271 194.111 268.028C193.38 267.704 192.69 267.299 192.041 266.854C191.594 266.571 190.864 266.206 190.62 265.68C190.133 264.709 191.716 263.494 190.701 262.604L190.62 262.523C190.296 262.32 189.849 262.401 189.646 262.725C189.321 263.292 189.768 263.899 189.646 264.466C189.605 264.587 189.484 264.668 189.362 264.668C188.51 264.506 189.2 262.118 189.321 261.632C189.565 260.499 189.646 259.325 189.646 258.151V258.151Z" fill="#E1E7F0"/>
<path d="M218.222 280.86C217.938 280.253 217.938 279.524 217.451 279.038C217.37 278.957 217.248 278.877 217.085 278.877C216.883 278.917 216.761 279.16 216.761 279.403C216.842 280.212 217.776 280.698 217.978 281.508C218.06 281.791 218.1 282.155 218.384 282.196C218.506 282.196 218.587 282.196 218.709 282.155C219.399 281.913 220.13 281.832 220.901 281.872C221.388 281.913 222.038 281.872 222.443 282.196C223.012 282.601 222.403 283.329 222.728 283.896C222.849 284.099 223.012 284.22 223.133 284.422C223.215 284.665 223.215 284.949 223.215 285.232C223.296 285.515 223.377 285.799 223.539 286.082C223.621 285.961 223.742 285.839 223.905 285.758C224.148 285.677 224.189 285.839 224.351 285.92C224.595 286.001 224.838 286.042 225.082 286.001C225.366 286.001 226.056 285.92 226.218 285.677C226.056 285.272 226.056 285.192 226.056 285.111C226.015 284.949 225.975 284.827 225.894 284.665C225.772 284.301 225.691 283.977 225.65 283.613C225.569 283.248 225.65 282.844 225.934 282.56C226.3 282.358 226.787 282.398 227.111 282.682C227.436 282.965 227.801 283.167 228.207 283.289C228.654 283.37 229.1 283.208 229.384 282.884C229.709 282.601 230.359 281.751 230.034 281.791C229.851 281.815 229.47 282.042 229.295 282.168C229.295 282.099 229.218 281.998 229.019 281.913C229.303 282.034 229.019 281.913 229.1 281.751C229.263 281.346 229.384 280.901 229.506 280.496C229.547 280.374 229.587 280.212 229.466 280.091L229.222 279.969C229.019 279.889 228.776 279.889 228.573 280.01C228.329 280.172 228.329 280.496 228.288 280.739C228.288 280.82 228.207 281.629 228.207 281.629C227.598 281.629 227.03 281.589 226.462 281.508C226.34 281.508 226.218 281.427 226.218 281.305V281.224C226.218 280.658 226.381 280.091 226.746 279.646C227.152 279.241 227.801 279.119 228.329 278.957C228.897 278.796 229.425 278.593 229.953 278.35C230.683 278.026 231.089 277.743 230.886 276.933C230.724 276.245 230.562 275.598 230.399 274.909C230.318 274.464 230.196 274.019 230.034 273.614C229.75 273.128 229.506 273.574 229.506 273.938C229.506 274.505 229.547 275.071 229.669 275.598C229.709 275.84 230.074 276.974 229.669 277.055C229.587 277.055 229.547 277.014 229.547 276.933C229.506 276.65 229.709 276.367 229.547 276.124C229.425 275.962 229.222 275.921 229.1 276.043L229.06 276.083C228.573 276.529 229.344 277.095 229.1 277.541C228.979 277.784 228.654 277.945 228.41 278.107C228.086 278.31 227.761 278.512 227.436 278.674C227.193 278.796 226.705 279.119 226.421 279.038C226.137 278.957 226.502 277.986 226.584 277.784C226.705 277.298 226.746 276.812 226.624 276.326C226.502 275.84 226.178 275.395 226.3 274.909C226.421 274.464 226.827 274.221 227.071 273.857C227.639 273.047 226.908 271.792 226.421 271.145C226.34 271.023 226.218 270.902 226.097 270.821C225.731 270.618 225.528 270.983 225.528 271.307C225.569 271.711 225.691 272.116 225.894 272.481C226.097 272.845 226.34 273.128 226.259 273.533C226.178 273.816 225.691 274.95 225.285 274.586C224.554 274.019 224.554 272.845 224.108 272.076C224.026 271.914 223.905 271.792 223.742 271.711C223.174 271.428 222.809 272.035 222.768 272.521C222.728 273.088 222.89 273.695 223.255 274.14C223.621 274.545 224.026 274.909 224.514 275.233C224.96 275.557 225.325 275.962 225.569 276.488C225.691 276.893 225.691 277.298 225.65 277.703C225.65 277.986 225.609 278.269 225.609 278.593C225.609 278.755 225.488 278.917 225.325 278.796C224.919 278.553 225.122 277.784 225.041 277.419C224.96 277.176 224.798 276.933 224.554 276.933C224.351 276.933 224.189 277.055 224.148 277.257C223.864 277.945 224.351 278.836 224.919 279.241C225.407 279.565 225.082 279.889 224.96 280.496C224.798 281.224 225.041 281.913 224.676 282.56C224.554 282.763 224.351 282.965 224.148 282.844C224.067 282.763 224.026 282.682 224.026 282.56C224.026 281.994 224.148 281.427 224.311 280.901C224.432 280.496 223.864 280.212 223.864 280.577C223.864 280.617 223.864 280.658 223.824 280.698C223.661 280.901 223.133 279.686 223.174 279.484C223.215 279.119 223.499 278.917 223.621 278.593C223.742 278.269 223.702 277.905 223.539 277.581C223.336 277.217 223.093 276.893 222.768 276.61C222.322 276.164 222.362 276.731 222.484 277.055C222.606 277.46 223.052 277.986 222.971 278.472C222.931 278.998 222.362 278.917 222.119 278.634C221.916 278.431 221.753 278.188 221.591 277.945C221.388 277.703 221.266 277.419 221.226 277.095C221.185 276.893 221.226 276.65 221.347 276.448C221.469 276.286 221.713 276.205 221.713 275.962C221.713 275.84 221.672 275.679 221.632 275.557L220.901 273.816C220.86 273.695 220.779 273.574 220.657 273.533C220.252 273.412 220.089 274.181 220.13 274.424C220.252 274.747 220.454 275.071 220.657 275.395C220.779 275.679 220.82 276.286 220.414 276.367C220.13 276.448 219.886 276.124 219.764 275.921C219.521 275.557 219.359 275.193 219.237 274.788C219.074 274.302 219.034 273.816 218.587 273.533C218.384 273.371 217.735 273.169 217.613 273.533C217.613 273.776 217.654 274.059 217.816 274.262C218.06 274.747 218.344 275.233 218.668 275.719C218.871 276.002 219.196 276.367 219.115 276.731C219.034 277.055 218.344 277.257 218.1 277.136C217.857 277.014 217.776 276.61 217.694 276.407C217.573 276.083 217.41 275.8 217.248 275.517C216.883 275.031 216.761 276.124 216.761 276.326C216.801 276.731 217.004 277.095 217.288 277.419C217.776 277.865 218.506 277.986 219.115 277.743C219.521 277.541 219.967 277.622 220.252 277.986C220.942 278.634 221.55 279.362 222.078 280.172C222.2 280.374 222.322 280.658 222.24 280.901C222.119 281.062 221.956 281.143 221.794 281.143L220.252 281.427C220.089 281.467 219.927 281.467 219.764 281.427C219.44 281.305 219.48 280.698 219.359 280.415C219.196 279.97 218.993 279.565 218.79 279.16C218.75 279.079 218.669 278.957 218.587 278.998C218.547 278.998 218.506 279.079 218.466 279.119C218.425 279.241 218.425 279.403 218.506 279.524C218.587 279.848 218.709 280.131 218.831 280.455C218.912 280.617 218.953 280.779 218.953 280.941C218.871 281.427 218.344 281.143 218.222 280.86V280.86Z" fill="#CBD3D9"/>
<path d="M162.937 272.885C162.572 272.683 162.45 272.116 162.288 271.752C162.126 271.266 161.882 270.821 161.598 270.416C161.03 269.687 160.827 271.347 160.867 271.671C160.948 272.278 161.233 272.885 161.72 273.29C162.491 273.978 163.546 274.14 164.48 273.776C165.17 273.493 165.657 273.574 166.225 274.14C167.281 275.112 168.214 276.245 168.985 277.46C169.148 277.743 169.391 278.229 169.188 278.553C169.026 278.755 168.742 278.917 168.498 278.917L166.144 279.362C165.901 279.443 165.657 279.443 165.413 279.362C164.926 279.16 164.967 278.229 164.805 277.784C164.561 277.136 164.277 276.488 163.912 275.841C163.83 275.719 163.749 275.557 163.587 275.598C163.506 275.638 163.425 275.719 163.425 275.8C163.384 276.002 163.384 276.205 163.465 276.407C163.627 276.893 163.79 277.338 163.993 277.824C164.115 278.067 164.196 278.31 164.155 278.593C164.033 279.362 163.222 278.917 163.019 278.472C162.572 277.581 162.572 276.407 161.882 275.719C161.76 275.557 161.557 275.476 161.354 275.476C161.03 275.517 160.867 275.921 160.867 276.286C160.948 277.541 162.41 278.269 162.734 279.484C162.856 279.889 162.937 280.455 163.343 280.536C163.506 280.536 163.668 280.536 163.83 280.455C164.886 280.091 166.022 279.929 167.159 280.01C167.93 280.051 168.864 280.01 169.513 280.496C170.366 281.143 169.473 282.236 169.96 283.046C170.122 283.329 170.406 283.532 170.568 283.815C170.771 284.22 170.65 284.625 170.65 285.03C170.771 285.475 170.934 285.92 171.096 286.365C171.218 286.163 171.421 286.001 171.624 285.88C171.989 285.718 172.03 286.001 172.314 286.082C172.679 286.204 173.044 286.244 173.41 286.204C173.856 286.163 174.871 286.123 175.115 285.677C175.236 285.758 175.277 285.637 175.236 285.515C175.155 285.273 175.074 285.07 174.993 284.827C174.83 284.301 174.709 283.734 174.668 283.208C174.587 282.641 174.628 281.953 175.074 281.629C175.561 281.224 176.332 281.427 176.86 281.791C177.388 282.156 177.915 282.601 178.524 282.722C179.174 282.803 179.864 282.601 180.351 282.115C180.838 281.67 181.812 280.415 181.366 280.415C181.077 280.467 180.509 280.82 180.245 281.01C180.245 280.913 180.128 280.755 179.823 280.617C180.27 280.779 179.823 280.658 179.904 280.374C180.148 279.727 180.351 279.079 180.513 278.431C180.554 278.229 180.594 277.986 180.432 277.824C180.31 277.743 180.188 277.703 180.067 277.662C179.742 277.541 179.377 277.541 179.092 277.703C178.768 277.946 178.727 278.431 178.687 278.796C178.687 278.917 178.565 280.172 178.565 280.172C177.672 280.172 176.779 280.091 175.886 279.97C175.683 279.97 175.521 279.848 175.521 279.646C175.521 279.605 175.521 279.565 175.561 279.484C175.642 278.674 175.764 277.703 176.373 277.095C176.982 276.488 177.997 276.286 178.768 276.002C179.62 275.719 180.432 275.436 181.244 275.071C182.34 274.586 182.949 274.14 182.664 272.885C182.462 271.873 182.177 270.821 181.934 269.809C181.812 269.121 181.609 268.473 181.366 267.866C180.96 267.137 180.554 267.785 180.554 268.352C180.554 269.202 180.635 270.052 180.797 270.902C180.878 271.266 181.406 273.007 180.757 273.128C180.676 273.128 180.554 273.088 180.554 272.966C180.473 272.562 180.797 272.116 180.554 271.711C180.391 271.469 180.067 271.428 179.864 271.59C179.823 271.59 179.823 271.631 179.783 271.631C179.052 272.278 180.188 273.169 179.823 273.857C179.661 274.221 179.133 274.505 178.808 274.707C178.321 275.031 177.834 275.314 177.307 275.557C176.941 275.719 176.17 276.205 175.764 276.083C175.318 275.962 175.926 274.505 176.008 274.181C176.211 273.452 176.251 272.683 176.089 271.954C175.886 271.226 175.439 270.538 175.642 269.809C175.845 269.161 176.454 268.756 176.819 268.23C177.672 266.975 176.576 265.113 175.805 264.061C175.683 263.858 175.521 263.696 175.318 263.575C174.749 263.251 174.465 263.818 174.465 264.304C174.546 264.951 174.709 265.558 175.033 266.085C175.318 266.611 175.764 267.056 175.602 267.704C175.48 268.149 174.749 269.849 174.1 269.323C172.963 268.433 173.004 266.651 172.314 265.477C172.192 265.235 171.989 265.032 171.746 264.911C170.893 264.465 170.325 265.437 170.284 266.125C170.244 267.016 170.487 267.866 171.015 268.594C171.583 269.242 172.192 269.768 172.923 270.214C173.613 270.659 174.181 271.347 174.506 272.116C174.668 272.724 174.709 273.371 174.628 273.978C174.587 274.424 174.587 274.869 174.546 275.314C174.546 275.557 174.343 275.8 174.1 275.598C173.491 275.193 173.775 274.059 173.653 273.493C173.572 273.128 173.288 272.724 172.923 272.724C172.639 272.764 172.395 272.926 172.273 273.209C171.827 274.262 172.598 275.598 173.45 276.205C174.181 276.731 173.694 277.217 173.491 278.148C173.247 279.281 173.613 280.293 173.044 281.305C172.882 281.589 172.517 281.953 172.233 281.71C172.111 281.589 172.07 281.427 172.07 281.265C172.07 280.415 172.233 279.524 172.476 278.715C172.639 278.067 171.827 277.662 171.786 278.229C171.786 278.31 171.786 278.35 171.746 278.391C171.502 278.674 170.69 276.853 170.731 276.529C170.771 276.002 171.218 275.638 171.421 275.152C171.583 274.626 171.543 274.059 171.299 273.614C170.974 273.047 170.609 272.562 170.122 272.116C169.432 271.428 169.513 272.278 169.675 272.764C169.878 273.412 170.528 274.181 170.447 274.909C170.366 275.679 169.554 275.598 169.148 275.152C168.864 274.829 168.58 274.505 168.336 274.14C168.052 273.776 167.889 273.331 167.808 272.845C167.768 272.521 167.849 272.157 168.011 271.873C168.214 271.59 168.539 271.509 168.58 271.145C168.58 270.942 168.539 270.74 168.417 270.578L167.321 267.906C167.24 267.704 167.159 267.501 166.956 267.461C166.306 267.259 166.063 268.433 166.144 268.837C166.266 269.364 166.712 269.809 166.956 270.295C167.159 270.699 167.199 271.671 166.591 271.792C166.144 271.914 165.779 271.428 165.576 271.145C165.211 270.619 164.926 270.011 164.723 269.404C164.48 268.675 164.439 267.947 163.749 267.461C163.425 267.218 162.45 266.894 162.288 267.421C162.207 267.744 162.45 268.23 162.572 268.514C162.937 269.283 163.343 270.011 163.83 270.699C164.115 271.104 164.602 271.711 164.48 272.278C164.358 272.764 163.343 273.088 162.937 272.885V272.885Z" fill="#CBD3D9"/>
<path d="M299.159 271.347C298.713 271.145 298.591 270.457 298.429 270.052C298.226 269.525 297.942 268.999 297.617 268.513C296.967 267.663 296.724 269.606 296.805 269.971C296.927 270.699 297.252 271.347 297.779 271.873C298.672 272.642 299.89 272.885 300.986 272.44C301.798 272.076 302.366 272.238 303.015 272.845C304.274 273.978 305.329 275.274 306.222 276.691C306.425 277.014 306.669 277.581 306.466 277.945C306.263 278.188 305.979 278.35 305.654 278.35L302.934 278.877C302.65 278.957 302.366 278.957 302.122 278.877C301.554 278.634 301.595 277.581 301.432 277.055C301.148 276.286 300.783 275.517 300.418 274.828C300.336 274.667 300.215 274.505 300.052 274.545C299.971 274.586 299.89 274.667 299.849 274.748C299.809 274.99 299.809 275.233 299.89 275.476C300.052 276.043 300.255 276.569 300.499 277.095C300.661 277.379 300.702 277.662 300.702 277.986C300.539 278.877 299.646 278.35 299.403 277.865C298.875 276.812 298.916 275.476 298.063 274.667C297.901 274.505 297.698 274.383 297.455 274.383C297.049 274.424 296.886 274.909 296.927 275.314C297.049 276.772 298.713 277.622 299.078 279.038C299.2 279.524 299.322 280.172 299.809 280.253C300.012 280.253 300.174 280.253 300.336 280.172C301.554 279.767 302.853 279.565 304.152 279.646C305.045 279.686 306.141 279.646 306.872 280.212C307.846 280.941 306.831 282.236 307.399 283.167C307.602 283.491 307.927 283.734 308.089 284.058C308.333 284.503 308.17 284.989 308.211 285.475C308.333 286.001 308.536 286.527 308.739 287.013C308.901 286.77 309.104 286.568 309.348 286.446C309.754 286.284 309.835 286.568 310.159 286.689C310.565 286.811 310.971 286.892 311.418 286.811C311.905 286.77 313.082 286.689 313.407 286.204C313.366 286.204 313.407 286.042 313.366 285.92C313.285 285.637 313.204 285.394 313.082 285.151C312.879 284.544 312.757 283.896 312.676 283.248C312.595 282.601 312.635 281.832 313.163 281.386C313.731 280.941 314.624 281.184 315.233 281.548C315.842 281.913 316.451 282.479 317.182 282.641C317.953 282.763 318.724 282.479 319.292 281.953C319.861 281.427 320.997 279.97 320.469 280.01C320.133 280.063 319.487 280.455 319.187 280.674C319.195 280.552 319.081 280.37 318.724 280.253C319.252 280.455 318.724 280.293 318.846 279.97C319.13 279.241 319.333 278.472 319.536 277.743C319.576 277.5 319.658 277.257 319.455 277.055C319.333 276.974 319.171 276.893 319.049 276.852C318.683 276.691 318.278 276.731 317.912 276.933C317.506 277.217 317.506 277.784 317.466 278.188C317.466 278.31 317.303 279.767 317.344 279.767C316.289 279.767 315.274 279.686 314.259 279.524C314.016 279.524 313.853 279.362 313.813 279.16C313.813 279.119 313.813 279.038 313.853 278.998C313.934 278.067 314.097 276.933 314.787 276.205C315.477 275.517 316.654 275.233 317.547 274.95C318.521 274.626 319.495 274.262 320.429 273.857C321.687 273.29 322.418 272.804 322.093 271.347C321.85 270.173 321.565 268.959 321.241 267.785C321.038 267.016 320.957 266.206 320.551 265.518C320.064 264.668 319.617 265.437 319.617 266.085C319.617 267.056 319.698 268.068 319.901 268.999C319.982 269.404 320.591 271.428 319.861 271.59C319.739 271.59 319.658 271.509 319.617 271.388C319.495 270.902 319.901 270.376 319.617 269.93C319.455 269.647 319.089 269.606 318.805 269.768C318.765 269.768 318.765 269.809 318.724 269.809C317.872 270.578 319.211 271.55 318.765 272.4C318.562 272.845 317.953 273.128 317.587 273.371C317.019 273.735 316.451 274.059 315.842 274.343C315.396 274.545 314.543 275.112 314.056 274.95C313.569 274.788 314.218 273.128 314.3 272.764C314.543 271.914 314.543 271.023 314.381 270.173C314.137 269.364 313.61 268.554 313.853 267.704C314.056 266.935 314.787 266.489 315.233 265.882C316.248 264.425 314.949 262.239 314.056 261.065C313.894 260.863 313.731 260.66 313.488 260.539C312.838 260.174 312.473 260.822 312.514 261.389C312.595 262.118 312.798 262.846 313.204 263.453C313.528 264.061 314.016 264.587 313.853 265.315C313.731 265.801 312.879 267.825 312.108 267.218C310.809 266.206 310.849 264.142 310.038 262.765C309.875 262.482 309.672 262.239 309.388 262.077C308.414 261.591 307.765 262.684 307.683 263.494C307.602 264.506 307.927 265.518 308.536 266.328C309.185 267.056 309.916 267.704 310.728 268.23C311.499 268.837 312.27 269.525 312.554 270.416C312.757 271.104 312.798 271.833 312.717 272.562C312.676 273.088 312.635 273.574 312.635 274.1C312.635 274.383 312.432 274.626 312.108 274.424C311.418 273.978 311.742 272.643 311.58 271.954C311.458 271.509 311.174 271.064 310.728 271.064C310.403 271.104 310.119 271.307 309.997 271.63C309.469 272.845 310.362 274.424 311.337 275.112C312.189 275.719 311.621 276.286 311.377 277.338C311.093 278.634 311.499 279.808 310.89 280.982C310.687 281.346 310.281 281.71 309.956 281.467C309.835 281.346 309.754 281.143 309.754 280.982C309.754 279.97 309.916 278.998 310.241 278.026C310.403 277.298 309.469 276.812 309.429 277.46C309.429 277.541 309.429 277.581 309.388 277.662C309.145 277.986 308.17 275.881 308.211 275.517C308.252 274.909 308.779 274.505 308.982 273.938C309.185 273.331 309.104 272.683 308.82 272.116C308.455 271.469 308.008 270.861 307.44 270.376C306.669 269.566 306.75 270.578 306.953 271.145C307.196 271.873 307.927 272.804 307.846 273.614C307.765 274.505 306.79 274.383 306.344 273.857C306.019 273.493 305.694 273.088 305.41 272.683C305.086 272.238 304.883 271.752 304.761 271.226C304.72 270.821 304.801 270.457 305.004 270.133C305.207 269.809 305.613 269.728 305.654 269.283C305.654 269.04 305.573 268.797 305.491 268.594L304.233 265.518C304.152 265.315 304.03 265.073 303.827 264.992C303.097 264.749 302.813 266.085 302.894 266.57C303.015 267.218 303.543 267.704 303.827 268.271C304.03 268.756 304.071 269.849 303.381 270.011C302.894 270.133 302.447 269.606 302.204 269.242C301.798 268.635 301.473 267.947 301.229 267.218C300.945 266.408 300.905 265.518 300.093 264.992C299.728 264.749 298.591 264.303 298.388 264.951C298.266 265.356 298.55 265.882 298.713 266.247C299.119 267.137 299.606 267.987 300.174 268.797C300.499 269.283 301.067 269.971 300.945 270.618C300.824 271.145 299.606 271.59 299.159 271.347V271.347Z" fill="#E1E7F0"/>
<path d="M257.717 228.276C260.193 228.276 262.182 226.292 262.182 223.823C262.182 221.354 260.193 219.37 257.717 219.37C244.038 219.37 232.956 208.319 232.956 194.677C232.956 192.207 230.967 190.224 228.491 190.224C226.015 190.224 224.026 192.207 224.026 194.677V236.858C224.067 255.398 239.126 270.376 257.717 270.376H267.458C286.049 270.376 301.108 255.357 301.149 236.858V152.496C313.245 150.027 321.038 138.287 318.562 126.224C316.451 115.861 307.318 108.412 296.684 108.412C284.344 108.412 274.359 118.371 274.359 130.677C274.359 141.283 281.827 150.391 292.219 152.496V236.817C292.178 250.419 281.097 261.47 267.458 261.429H257.717C244.078 261.429 232.997 250.419 232.956 236.817V217.427C239.329 224.349 248.3 228.276 257.717 228.276ZM283.289 130.677C283.289 123.309 289.296 117.318 296.684 117.318C304.071 117.318 310.078 123.309 310.078 130.677C310.078 138.044 304.112 143.995 296.684 144.035C289.296 144.035 283.289 138.044 283.289 130.677V130.677Z" fill="#B4BBBF"/>
<path d="M224.026 236.736V236.979C224.189 255.317 239.004 270.133 257.351 270.335C282.436 271.59 291.529 257.341 294.816 246.978C296.034 243.699 296.684 240.218 296.684 236.736V144.035C289.296 144.035 283.289 138.044 283.289 130.677C283.289 123.309 289.296 117.318 296.684 117.318V108.412C284.344 108.412 274.359 118.371 274.359 130.677C274.359 141.283 281.827 150.391 292.219 152.496V236.736C292.219 247.828 284.993 256.329 275.373 260.175C240.019 272.278 231.17 250.783 229.141 242.97C229.019 242.363 228.897 241.796 228.816 241.189C228.573 239.732 228.491 238.234 228.491 236.736V211.314C234.458 221.677 245.499 228.154 257.473 228.235H257.717C257.879 228.235 258.001 228.235 258.163 228.195C260.436 227.952 262.182 226.049 262.182 223.782H257.717C243.307 223.782 231.008 213.298 228.816 199.089C228.573 197.632 228.491 196.134 228.491 194.636V190.183C226.015 190.183 224.026 192.167 224.026 194.636V194.879C224.026 195.244 224.067 195.648 224.067 196.013H224.026V236.736V236.736Z" fill="#848B8F"/>
<path d="M292.259 44.4529V120.354C292.259 122.824 294.248 124.807 296.724 124.807C299.2 124.807 301.189 122.824 301.189 120.354V44.4529C301.189 41.9836 299.2 40 296.724 40C294.248 40 292.259 41.9836 292.259 44.4529Z" fill="#FFB959"/>
<path d="M292.219 56.9209V69.5104L301.189 60.6047V48.0152L292.219 56.9209Z" fill="#FDE7C6"/>
<path d="M292.219 79.9949V92.5844L301.189 83.6787V71.0892L292.219 79.9949Z" fill="#FDE7C6"/>
<path d="M292.219 102.664V115.254L301.189 106.348V93.7584L292.219 102.664Z" fill="#FDE7C6"/>
<path d="M269.482 320.203C269.494 317.028 255.257 314.4 237.682 314.333C220.106 314.266 205.849 316.785 205.837 319.959C205.824 323.134 220.062 325.762 237.637 325.829C255.213 325.897 269.47 323.378 269.482 320.203Z" fill="#F0F5FA"/>
<path d="M312.724 314.652C312.732 312.64 302.87 310.971 290.697 310.924C278.525 310.878 268.651 312.471 268.643 314.483C268.635 316.495 278.497 318.164 290.669 318.211C302.842 318.257 312.716 316.664 312.724 314.652Z" fill="#F0F5FA"/>
<path d="M193.854 313.418C193.863 311.316 183.729 309.574 171.22 309.526C158.711 309.478 148.564 311.143 148.556 313.244C148.548 315.346 158.681 317.088 171.19 317.136C183.699 317.184 193.846 315.519 193.854 313.418Z" fill="#F0F5FA"/>
<path d="M262.238 306.077C262.245 304.222 253.274 302.683 242.2 302.641C231.125 302.598 222.142 304.068 222.135 305.924C222.128 307.779 231.099 309.318 242.174 309.36C253.248 309.403 262.231 307.933 262.238 306.077Z" fill="#F0F5FA"/>
<path d="M203.433 295.031C203.442 292.639 189.783 290.648 172.925 290.583C156.068 290.519 142.394 292.406 142.385 294.798C142.376 297.19 156.034 299.181 172.892 299.246C189.75 299.311 203.423 297.424 203.433 295.031Z" fill="#F0F5FA"/>
<path d="M269.276 300.761C269.276 300.113 266.192 299.575 262.38 299.558C258.569 299.542 255.476 300.056 255.476 300.704C255.476 301.352 258.56 301.89 262.372 301.906C266.183 301.922 269.276 301.408 269.276 300.761Z" fill="#F0F5FA"/>
<path d="M263.022 312.447C263.022 311.82 260.01 311.302 256.288 311.29C252.566 311.273 249.55 311.771 249.546 312.399C249.546 313.026 252.558 313.544 256.28 313.557C260.002 313.573 263.018 313.075 263.022 312.447Z" fill="#F0F5FA"/>
<path d="M348.599 297.611C348.607 295.644 338.472 294.008 325.962 293.96C313.452 293.911 303.304 295.466 303.3 297.433C303.292 299.4 313.427 301.036 325.937 301.084C338.447 301.133 348.595 299.578 348.599 297.611Z" fill="#F0F5FA"/>
<path d="M192.33 303.38C192.334 302.218 186.667 301.254 179.673 301.226C172.68 301.198 167.005 302.121 167.001 303.282C166.997 304.444 172.663 305.408 179.657 305.436C186.651 305.464 192.325 304.541 192.33 303.38Z" fill="#F0F5FA"/>
<path d="M165.742 306.586C165.742 305.982 162.82 305.48 159.211 305.468C155.603 305.456 152.676 305.934 152.672 306.537C152.672 307.14 155.594 307.642 159.203 307.654C162.811 307.666 165.738 307.189 165.742 306.586Z" fill="#F0F5FA"/>
<path d="M224.392 301.866C224.396 300.704 218.73 299.74 211.736 299.712C204.742 299.684 199.068 300.607 199.063 301.768C199.059 302.93 204.726 303.894 211.72 303.922C218.713 303.95 224.388 303.027 224.392 301.866Z" fill="#F0F5FA"/>
<path d="M309.092 285.655C309.099 283.867 300.418 282.384 289.702 282.343C278.987 282.302 270.295 283.718 270.288 285.507C270.281 287.295 278.962 288.779 289.678 288.82C300.393 288.861 309.085 287.444 309.092 285.655Z" fill="#F0F5FA"/>
<path d="M227.521 284.933C227.525 283.39 220.064 282.111 210.85 282.075C201.636 282.038 194.163 283.261 194.155 284.803C194.151 286.345 201.612 287.625 210.826 287.661C220.04 287.697 227.513 286.475 227.521 284.933Z" fill="#F0F5FA"/>
<path d="M181.511 287.167C181.515 286.005 175.849 285.042 168.855 285.014C161.861 284.985 156.187 285.908 156.183 287.07C156.179 288.232 161.845 289.195 168.839 289.224C175.833 289.252 181.507 288.329 181.511 287.167Z" fill="#F0F5FA"/>
<path d="M165.016 301.028C165.016 300.4 162.004 299.882 158.282 299.87C154.56 299.854 151.544 300.352 151.54 300.979C151.54 301.607 154.552 302.125 158.274 302.137C161.996 302.153 165.012 301.655 165.016 301.028Z" fill="#F0F5FA"/>
<path d="M207.04 307.403C207.04 306.776 204.028 306.258 200.306 306.246C196.583 306.229 193.568 306.727 193.563 307.355C193.563 307.982 196.575 308.5 200.297 308.513C204.02 308.529 207.035 308.031 207.04 307.403Z" fill="#F0F5FA"/>
<path d="M218.315 297.441C218.315 296.814 215.303 296.295 211.581 296.283C207.859 296.267 204.843 296.765 204.839 297.392C204.835 298.02 207.851 298.538 211.573 298.55C215.295 298.566 218.311 298.068 218.315 297.441V297.441Z" fill="#F0F5FA"/>
<path d="M279.863 308.484C279.863 307.634 275.763 306.93 270.693 306.909C265.627 306.889 261.516 307.561 261.516 308.411C261.516 309.261 265.615 309.966 270.685 309.986C275.751 310.006 279.863 309.334 279.863 308.484Z" fill="#F0F5FA"/>
<path d="M314.47 306.202C314.476 304.793 307.665 303.625 299.259 303.593C290.852 303.561 284.033 304.677 284.027 306.085C284.022 307.494 290.832 308.662 299.239 308.694C307.645 308.726 314.465 307.61 314.47 306.202Z" fill="#F0F5FA"/>
<path d="M300.145 300.157C300.15 298.995 294.483 298.03 287.489 298.004C280.495 297.977 274.821 298.898 274.817 300.06C274.812 301.223 280.479 302.187 287.473 302.214C294.467 302.24 300.141 301.32 300.145 300.157Z" fill="#F0F5FA"/>
<path d="M253.89 291.419C253.897 289.697 245.525 288.27 235.19 288.23C224.856 288.191 216.473 289.554 216.466 291.275C216.459 292.997 224.832 294.425 235.166 294.464C245.501 294.504 253.884 293.14 253.89 291.419Z" fill="#F0F5FA"/>
<path d="M249.578 296.854C249.578 296.227 246.566 295.709 242.844 295.697C239.122 295.68 236.106 296.178 236.102 296.806C236.102 297.433 239.113 297.951 242.836 297.963C246.558 297.98 249.574 297.482 249.578 296.854Z" fill="#F0F5FA"/>
<path d="M197.877 289.329C197.877 288.701 194.866 288.183 191.143 288.171C187.421 288.155 184.405 288.653 184.401 289.28C184.401 289.907 187.413 290.426 191.135 290.438C194.858 290.454 197.873 289.956 197.877 289.329V289.329Z" fill="#F0F5FA"/>
<path d="M220.36 312.508C220.36 311.569 215.859 310.792 210.302 310.767C204.741 310.747 200.232 311.488 200.228 312.427C200.228 313.366 204.729 314.143 210.286 314.168C215.847 314.188 220.356 313.447 220.36 312.508Z" fill="#F0F5FA"/>
<path d="M246.12 284.763C246.12 284.135 243.108 283.617 239.386 283.605C235.663 283.589 232.648 284.087 232.644 284.714C232.644 285.342 235.655 285.86 239.378 285.872C243.1 285.888 246.116 285.39 246.12 284.763Z" fill="#F0F5FA"/>
<path d="M338.841 291.389C338.841 290.762 335.83 290.244 332.107 290.232C328.385 290.215 325.369 290.713 325.365 291.341C325.365 291.968 328.377 292.486 332.099 292.499C335.821 292.515 338.837 292.017 338.841 291.389Z" fill="#F0F5FA"/>
<path d="M243.883 300.331C243.883 299.684 240.798 299.145 236.986 299.129C233.175 299.113 230.082 299.627 230.082 300.275C230.082 300.922 233.167 301.461 236.978 301.477C240.79 301.493 243.883 300.979 243.883 300.331Z" fill="#F0F5FA"/>
<path d="M277.785 295.166C277.785 294.385 274.046 293.733 269.427 293.717C264.808 293.701 261.062 294.32 261.062 295.101C261.062 295.882 264.8 296.534 269.419 296.55C274.038 296.567 277.785 295.947 277.785 295.166Z" fill="#F0F5FA"/>
<path d="M301.871 293.591C301.875 292.539 297.682 291.673 292.503 291.652C287.323 291.632 283.122 292.47 283.118 293.519C283.114 294.571 287.307 295.437 292.486 295.458C297.666 295.478 301.867 294.64 301.871 293.591Z" fill="#F0F5FA"/>
<path d="M277.813 290.041C277.813 289.414 274.801 288.896 271.079 288.884C267.357 288.867 264.341 289.365 264.337 289.993C264.337 290.62 267.349 291.138 271.071 291.151C274.793 291.167 277.809 290.669 277.813 290.041Z" fill="#F0F5FA"/>
<path d="M263.711 286.264C263.711 285.637 260.7 285.119 256.977 285.107C253.255 285.091 250.239 285.588 250.235 286.216C250.235 286.843 253.247 287.362 256.969 287.374C260.691 287.39 263.707 286.892 263.711 286.264Z" fill="#F0F5FA"/>
<path d="M318.741 290.863C318.741 290.235 315.729 289.717 312.007 289.705C308.285 289.689 305.269 290.187 305.265 290.814C305.265 291.442 308.276 291.96 311.999 291.972C315.721 291.988 318.737 291.49 318.741 290.863Z" fill="#F0F5FA"/>
<path d="M328.043 286.904C328.043 286.277 325.032 285.758 321.309 285.746C317.587 285.73 314.571 286.228 314.567 286.856C314.567 287.483 317.579 288.001 321.301 288.013C325.024 288.029 328.039 287.532 328.043 286.904Z" fill="#F0F5FA"/>
<path d="M352.415 294.3C347.625 289.807 311.459 278.593 274.846 281.913C240.75 284.989 215.3 280.496 200.687 281.913C152.953 286.528 152.953 283.451 140.167 292.357C127.949 300.817 155.388 302.032 150.395 305.877C141.871 312.435 139.314 319.803 180.229 319.034C200.809 318.629 208.886 328.87 248.422 327.939C274.643 327.332 267.215 319.074 287.632 320.208C315.761 321.746 318.319 321.746 320.023 310.168C321.363 301.141 366.053 307.092 352.415 294.3V294.3Z" fill="#F0F5FA"/>
<path d="M239.288 325.592C256.886 325.592 271.152 323.09 271.152 320.005C271.152 316.92 256.886 314.419 239.288 314.419C221.691 314.419 207.425 316.92 207.425 320.005C207.425 323.09 221.691 325.592 239.288 325.592Z" fill="#E1E7F0"/>
<path d="M292.381 317.981C304.576 317.981 314.462 316.404 314.462 314.459C314.462 312.514 304.576 310.937 292.381 310.937C280.186 310.937 270.3 312.514 270.3 314.459C270.3 316.404 280.186 317.981 292.381 317.981Z" fill="#E1E7F0"/>
<path d="M172.679 317.374C185.211 317.374 195.37 315.725 195.37 313.69C195.37 311.656 185.211 310.006 172.679 310.006C160.148 310.006 149.989 311.656 149.989 313.69C149.989 315.725 160.148 317.374 172.679 317.374Z" fill="#E1E7F0"/>
<path d="M243.753 309.521C254.85 309.521 263.846 308.071 263.846 306.282C263.846 304.494 254.85 303.044 243.753 303.044C232.657 303.044 223.661 304.494 223.661 306.282C223.661 308.071 232.657 309.521 243.753 309.521Z" fill="#E1E7F0"/>
<path d="M174.303 300.008C191.183 300.008 204.868 298.123 204.868 295.798C204.868 293.472 191.183 291.588 174.303 291.588C157.423 291.588 143.738 293.472 143.738 295.798C143.738 298.123 157.423 300.008 174.303 300.008Z" fill="#E1E7F0"/>
<path d="M263.521 302.193C267.332 302.193 270.421 301.686 270.421 301.06C270.421 300.434 267.332 299.926 263.521 299.926C259.71 299.926 256.62 300.434 256.62 301.06C256.62 301.686 259.71 302.193 263.521 302.193Z" fill="#E1E7F0"/>
<path d="M257.473 313.569C261.195 313.569 264.211 313.079 264.211 312.476C264.211 311.872 261.195 311.383 257.473 311.383C253.752 311.383 250.735 311.872 250.735 312.476C250.735 313.079 253.752 313.569 257.473 313.569Z" fill="#E1E7F0"/>
<path d="M327.248 301.182C339.779 301.182 349.938 299.641 349.938 297.741C349.938 295.84 339.779 294.3 327.248 294.3C314.716 294.3 304.558 295.84 304.558 297.741C304.558 299.641 314.716 301.182 327.248 301.182Z" fill="#E1E7F0"/>
<path d="M181.082 305.999C188.099 305.999 193.787 305.075 193.787 303.934C193.787 302.794 188.099 301.87 181.082 301.87C174.065 301.87 168.377 302.794 168.377 303.934C168.377 305.075 174.065 305.999 181.082 305.999Z" fill="#E1E7F0"/>
<path d="M160.218 308.185C163.827 308.185 166.753 307.713 166.753 307.132C166.753 306.551 163.827 306.08 160.218 306.08C156.608 306.08 153.683 306.551 153.683 307.132C153.683 307.713 156.608 308.185 160.218 308.185Z" fill="#E1E7F0"/>
<path d="M213.229 304.38C220.246 304.38 225.934 303.455 225.934 302.315C225.934 301.175 220.246 300.251 213.229 300.251C206.213 300.251 200.524 301.175 200.524 302.315C200.524 303.455 206.213 304.38 213.229 304.38Z" fill="#E1E7F0"/>
<path d="M290.838 289.442C301.576 289.442 310.281 288.028 310.281 286.284C310.281 284.541 301.576 283.127 290.838 283.127C280.1 283.127 271.396 284.541 271.396 286.284C271.396 288.028 280.1 289.442 290.838 289.442Z" fill="#E1E7F0"/>
<path d="M212.255 288.592C221.491 288.592 228.978 287.378 228.978 285.88C228.978 284.382 221.491 283.168 212.255 283.168C203.019 283.168 195.531 284.382 195.531 285.88C195.531 287.378 203.019 288.592 212.255 288.592Z" fill="#E1E7F0"/>
<path d="M170.203 290.292C177.22 290.292 182.908 289.368 182.908 288.228C182.908 287.087 177.22 286.163 170.203 286.163C163.186 286.163 157.498 287.087 157.498 288.228C157.498 289.368 163.186 290.292 170.203 290.292Z" fill="#E1E7F0"/>
<path d="M159.203 302.841C162.924 302.841 165.941 302.352 165.941 301.748C165.941 301.145 162.924 300.655 159.203 300.655C155.482 300.655 152.465 301.145 152.465 301.748C152.465 302.352 155.482 302.841 159.203 302.841Z" fill="#E1E7F0"/>
<path d="M208.115 307.78C208.115 307.177 205.099 306.687 201.377 306.687C197.655 306.687 194.639 307.177 194.639 307.78C194.639 308.383 197.655 308.873 201.377 308.873C205.099 308.873 208.115 308.383 208.115 307.78Z" fill="#E1E7F0"/>
<path d="M219.805 298.065C219.805 297.461 216.789 296.972 213.067 296.972C209.345 296.972 206.329 297.461 206.329 298.065C206.329 298.668 209.345 299.157 213.067 299.157C216.789 299.157 219.805 298.668 219.805 298.065Z" fill="#E1E7F0"/>
<path d="M271.923 310.047C277.012 310.047 281.137 309.376 281.137 308.549C281.137 307.722 277.012 307.051 271.923 307.051C266.834 307.051 262.709 307.722 262.709 308.549C262.709 309.376 266.834 310.047 271.923 310.047Z" fill="#E1E7F0"/>
<path d="M300.539 308.67C308.968 308.67 315.801 307.565 315.801 306.201C315.801 304.837 308.968 303.732 300.539 303.732C292.11 303.732 285.277 304.837 285.277 306.201C285.277 307.565 292.11 308.67 300.539 308.67Z" fill="#E1E7F0"/>
<path d="M288.687 302.477C295.704 302.477 301.392 301.553 301.392 300.412C301.392 299.272 295.704 298.348 288.687 298.348C281.671 298.348 275.982 299.272 275.982 300.412C275.982 301.553 281.671 302.477 288.687 302.477Z" fill="#E1E7F0"/>
<path d="M236.244 295.109C246.601 295.109 254.997 293.75 254.997 292.073C254.997 290.397 246.601 289.037 236.244 289.037C225.887 289.037 217.491 290.397 217.491 292.073C217.491 293.75 225.887 295.109 236.244 295.109Z" fill="#E1E7F0"/>
<path d="M250.694 297.376C250.694 296.773 247.678 296.283 243.956 296.283C240.234 296.283 237.218 296.773 237.218 297.376C237.218 297.979 240.234 298.469 243.956 298.469C247.678 298.469 250.694 297.979 250.694 297.376Z" fill="#E1E7F0"/>
<path d="M198.86 290.252C198.86 289.649 195.844 289.159 192.122 289.159C188.4 289.159 185.384 289.649 185.384 290.252C185.384 290.855 188.4 291.345 192.122 291.345C195.844 291.345 198.86 290.855 198.86 290.252Z" fill="#E1E7F0"/>
<path d="M221.915 312.678C221.915 311.763 217.389 311.018 211.808 311.018C206.227 311.018 201.701 311.763 201.701 312.678C201.701 313.593 206.227 314.338 211.808 314.338C217.389 314.338 221.915 313.593 221.915 312.678Z" fill="#E1E7F0"/>
<path d="M240.425 286.73C244.146 286.73 247.163 286.24 247.163 285.637C247.163 285.033 244.146 284.544 240.425 284.544C236.703 284.544 233.687 285.033 233.687 285.637C233.687 286.24 236.703 286.73 240.425 286.73Z" fill="#E1E7F0"/>
<path d="M333.378 292.842C337.099 292.842 340.116 292.353 340.116 291.75C340.116 291.146 337.099 290.657 333.378 290.657C329.656 290.657 326.64 291.146 326.64 291.75C326.64 292.353 329.656 292.842 333.378 292.842Z" fill="#E1E7F0"/>
<path d="M244.971 300.777C244.971 300.149 241.882 299.643 238.07 299.643C234.259 299.643 231.17 300.149 231.17 300.777C231.17 301.404 234.259 301.91 238.07 301.91C241.882 301.91 244.971 301.404 244.971 300.777Z" fill="#E1E7F0"/>
<path d="M278.945 295.636C278.945 294.874 275.203 294.259 270.583 294.259C265.964 294.259 262.222 294.874 262.222 295.636C262.222 296.397 265.964 297.012 270.583 297.012C275.203 297.012 278.945 296.397 278.945 295.636Z" fill="#E1E7F0"/>
<path d="M293.68 295.838C298.881 295.838 303.097 295.023 303.097 294.016C303.097 293.01 298.881 292.195 293.68 292.195C288.479 292.195 284.263 293.01 284.263 294.016C284.263 295.023 288.479 295.838 293.68 295.838Z" fill="#E1E7F0"/>
<path d="M278.946 290.657C278.946 290.053 275.93 289.564 272.208 289.564C268.486 289.564 265.47 290.053 265.47 290.657C265.47 291.26 268.486 291.75 272.208 291.75C275.93 291.75 278.946 291.26 278.946 290.657Z" fill="#E1E7F0"/>
<path d="M264.779 287.013C264.779 286.41 261.763 285.92 258.041 285.92C254.319 285.92 251.303 286.41 251.303 287.013C251.303 287.616 254.319 288.106 258.041 288.106C261.763 288.106 264.779 287.616 264.779 287.013Z" fill="#E1E7F0"/>
<path d="M319.942 291.304C319.942 290.701 316.926 290.211 313.204 290.211C309.482 290.211 306.466 290.701 306.466 291.304C306.466 291.907 309.482 292.397 313.204 292.397C316.926 292.397 319.942 291.907 319.942 291.304Z" fill="#E1E7F0"/>
<path d="M322.499 288.511C326.22 288.511 329.237 288.022 329.237 287.418C329.237 286.814 326.22 286.325 322.499 286.325C318.777 286.325 315.761 286.814 315.761 287.418C315.761 288.022 318.777 288.511 322.499 288.511Z" fill="#E1E7F0"/>
<path d="M169.432 213.865C171.381 215.808 174.506 215.808 176.414 213.865C177.388 212.893 177.916 211.557 177.875 210.181C179.336 211.193 181.528 211.962 184.045 212.286C183.558 212.853 183.274 213.46 183.517 213.703C184.126 214.31 185.222 214.188 185.993 213.46C186.277 213.176 186.44 212.853 186.561 212.488H187.292C187.698 212.488 188.104 212.488 188.469 212.448C188.023 213.095 187.86 213.622 188.104 213.865C188.997 214.755 190.905 214.31 192.325 212.893C192.691 212.529 193.015 212.124 193.259 211.679C194.071 211.436 194.883 211.152 195.654 210.748C196.384 210.383 197.034 209.938 197.602 209.412L197.886 209.128C198.252 208.764 198.495 208.278 198.657 207.792C198.739 207.55 198.779 207.266 198.779 206.983C198.779 205.161 196.587 203.421 193.34 202.449C192.853 200.101 190.864 198.037 188.023 198.806C184.897 199.656 182.299 201.073 180.798 202.57C179.742 202.894 178.768 203.38 177.875 203.947C177.55 201.235 175.115 199.291 172.395 199.575C171.299 199.696 170.244 200.182 169.432 200.992C168.133 202.287 170.812 205.768 173.288 207.428C170.772 209.088 168.133 212.569 169.432 213.865V213.865Z" fill="#FDE7C6"/>
<path d="M197.764 158.163C200.768 161.159 205.598 161.159 208.602 158.163C210.104 156.665 210.916 154.601 210.834 152.455C213.108 153.994 216.477 155.168 220.373 155.734C219.643 156.625 219.156 157.556 219.521 157.92C220.454 158.851 222.159 158.689 223.336 157.516C223.742 157.111 224.067 156.584 224.229 156.018H225.366C225.975 156.018 226.584 156.018 227.192 155.977C226.543 156.989 226.218 157.799 226.584 158.204C227.964 159.58 230.886 158.892 233.119 156.665C233.687 156.099 234.174 155.491 234.539 154.803C235.798 154.439 237.056 153.953 238.233 153.386C239.329 152.86 240.344 152.132 241.237 151.322C241.399 151.16 241.521 151.039 241.643 150.877C242.17 150.269 242.617 149.581 242.86 148.812C242.982 148.407 243.063 148.003 243.063 147.557C243.104 144.602 239.776 141.93 234.742 140.433C234.012 136.83 230.927 133.632 226.543 134.806C221.713 136.101 217.654 138.287 215.34 140.635C213.716 141.121 212.215 141.849 210.794 142.781C210.307 138.571 206.532 135.575 202.31 136.061C200.565 136.263 198.982 137.032 197.764 138.247C195.775 140.23 199.875 145.655 203.731 148.205C199.875 150.755 195.775 156.18 197.764 158.163Z" fill="#FCE0D9"/>
<path d="M272.776 176.744C271.639 175.61 269.772 175.61 268.635 176.744C268.148 177.23 267.864 177.837 267.783 178.485C267.255 178.12 266.646 177.837 266.038 177.675C265.145 176.784 263.602 175.934 261.775 175.449C260.111 175.003 258.934 176.218 258.65 177.594C256.742 178.161 255.443 179.173 255.443 180.347C255.443 180.509 255.484 180.671 255.525 180.833C255.606 181.116 255.768 181.399 255.971 181.602L256.133 181.764C256.458 182.087 256.864 182.371 257.27 182.573C257.716 182.816 258.204 182.978 258.691 183.099C258.853 183.342 259.015 183.585 259.218 183.828C260.071 184.678 261.207 184.921 261.735 184.395C261.857 184.273 261.776 183.95 261.491 183.545H262.628C262.709 183.747 262.79 183.95 262.953 184.111C263.318 184.557 263.967 184.597 264.414 184.273C264.576 184.111 264.373 183.788 264.089 183.423C265.388 183.302 266.646 182.857 267.742 182.168C267.661 183.788 268.919 185.123 270.543 185.204C271.355 185.245 272.167 184.921 272.735 184.354C273.547 183.585 271.964 181.521 270.502 180.549C271.964 179.578 273.547 177.513 272.776 176.744V176.744Z" fill="#FDE7C6"/>
<path d="M352.131 236.129C352.243 236.129 352.334 236.038 352.334 235.927C352.334 235.815 352.243 235.724 352.131 235.724C352.019 235.724 351.928 235.815 351.928 235.927C351.928 236.038 352.019 236.129 352.131 236.129Z" fill="#E1E7F0"/>
<path d="M253.617 142.497C253.617 141.671 252.943 140.999 252.115 140.999C251.287 140.999 250.613 141.671 250.613 142.497C250.613 143.323 251.287 143.995 252.115 143.995C252.943 143.995 253.617 143.323 253.617 142.497Z" fill="#F8FAFD"/>
<path d="M247.812 123.836C247.812 123.253 247.341 122.783 246.757 122.783C246.172 122.783 245.701 123.253 245.701 123.836C245.701 124.418 246.172 124.888 246.757 124.888C247.341 124.888 247.812 124.418 247.812 123.836Z" fill="#F8FAFD"/>
<path d="M259.259 109.91C259.259 109.643 259.04 109.424 258.772 109.424C258.504 109.424 258.285 109.643 258.285 109.91C258.285 110.177 258.504 110.396 258.772 110.396C259.04 110.396 259.259 110.177 259.259 109.91Z" fill="#F8FAFD"/>
<path d="M247.934 112.38C247.934 112.088 247.699 111.853 247.407 111.853C247.114 111.853 246.879 112.088 246.879 112.38C246.879 112.671 247.114 112.906 247.407 112.906C247.699 112.906 247.934 112.671 247.934 112.38Z" fill="#F8FAFD"/>
<path d="M254.835 99.6279C254.835 99.47 254.709 99.3445 254.551 99.3445C254.392 99.3445 254.267 99.47 254.267 99.6279C254.267 99.7858 254.392 99.9113 254.551 99.9113C254.709 99.9113 254.835 99.7858 254.835 99.6279Z" fill="#F8FAFD"/>
<path d="M206.329 206.457C206.8 206.457 207.181 206.076 207.181 205.607C207.181 205.137 206.8 204.756 206.329 204.756C205.858 204.756 205.477 205.137 205.477 205.607C205.477 206.076 205.858 206.457 206.329 206.457Z" fill="#F8FAFD"/>
<path d="M203.244 195.446C203.58 195.446 203.852 195.174 203.852 194.839C203.852 194.503 203.58 194.232 203.244 194.232C202.907 194.232 202.635 194.503 202.635 194.839C202.635 195.174 202.907 195.446 203.244 195.446Z" fill="#F8FAFD"/>
<path d="M203.934 188.2C203.934 188.022 203.788 187.876 203.609 187.876C203.43 187.876 203.284 188.022 203.284 188.2C203.284 188.378 203.43 188.524 203.609 188.524C203.788 188.524 203.934 188.378 203.934 188.2Z" fill="#F8FAFD"/>
<path d="M207.749 180.994C207.839 180.994 207.912 180.922 207.912 180.832C207.912 180.743 207.839 180.67 207.749 180.67C207.66 180.67 207.587 180.743 207.587 180.832C207.587 180.922 207.66 180.994 207.749 180.994Z" fill="#F8FAFD"/>
<path d="M252.602 179.497C252.602 179.205 252.367 178.97 252.075 178.97C251.782 178.97 251.547 179.205 251.547 179.497C251.547 179.788 251.782 180.023 252.075 180.023C252.367 180.023 252.602 179.788 252.602 179.497Z" fill="#F8FAFD"/>
<path d="M253.616 173.303C253.616 173.101 253.454 172.939 253.251 172.939C253.048 172.939 252.886 173.101 252.886 173.303C252.886 173.506 253.048 173.667 253.251 173.667C253.454 173.667 253.616 173.506 253.616 173.303Z" fill="#F8FAFD"/>
<path d="M249.477 168.324C249.477 168.235 249.404 168.162 249.315 168.162C249.225 168.162 249.152 168.235 249.152 168.324C249.152 168.413 249.225 168.486 249.315 168.486C249.404 168.486 249.477 168.413 249.477 168.324Z" fill="#F8FAFD"/>
<path d="M253.171 169.133C253.171 169.02 253.081 168.931 252.968 168.931C252.854 168.931 252.765 169.02 252.765 169.133C252.765 169.247 252.854 169.336 252.968 169.336C253.081 169.336 253.171 169.247 253.171 169.133Z" fill="#F8FAFD"/>
<path d="M250.653 164.802C250.653 164.757 250.616 164.721 250.572 164.721C250.528 164.721 250.491 164.757 250.491 164.802C250.491 164.846 250.528 164.882 250.572 164.882C250.616 164.882 250.653 164.846 250.653 164.802Z" fill="#F8FAFD"/>
<path d="M215.34 140.595C223.661 138.166 231.17 139.178 234.62 140.392C234.823 139.178 232.997 135.737 230.155 134.725C226.779 133.522 221.695 136.015 218.181 138.368C216.967 139.181 216.152 139.785 215.34 140.595Z" fill="#ED7474"/>
<path d="M207.425 147.476C207.425 145.352 209.725 143.833 210.875 142.821C210.063 138.125 206.14 136.209 204.178 135.939C202.825 135.804 198.851 136.032 197.48 138.571C196.06 141.202 200.728 146.262 203.772 148.286C201.133 149.703 198.264 153.604 197.683 154.763C197.285 155.556 197.074 156.989 197.48 157.799C198.089 158.811 199.742 160.533 203.366 160.43C209.049 160.268 210.74 155.1 210.875 152.536C209.59 151.389 207.424 150.108 207.425 147.476Z" fill="#ED7474"/>
<path d="M234.513 150.6C235.266 151.351 235.33 153.212 234.417 154.965C234.074 155.625 233.563 156.222 232.997 156.787C231.989 157.912 230.522 158.644 229.196 158.875C228.272 159.035 227.241 159.017 226.822 158.6C226.681 158.458 226.467 158.19 226.408 157.996C226.38 157.904 226.381 157.757 226.395 157.603C226.49 156.528 228.109 154.751 229.673 153.191C231.744 151.126 233.902 149.99 234.513 150.6Z" fill="#ED7474"/>
<path d="M224.27 156.018C224.107 156.018 221.429 155.977 220.333 155.734C220.333 155.734 220.014 156.114 219.846 156.382C219.658 156.682 219.44 157.192 219.44 157.192C219.318 157.637 219.399 158.204 220.414 158.447C222.956 159.055 224.473 156.018 224.27 156.018Z" fill="#ED7474"/>
<path d="M180.838 202.571C186.264 200.821 191.161 201.55 193.411 202.425C193.543 201.55 192.352 199.072 190.499 198.343C188.297 197.477 184.982 199.272 182.691 200.967C181.899 201.552 181.367 201.987 180.838 202.571Z" fill="#F6BC6A"/>
<path d="M175.638 206.928C175.638 205.526 177.211 204.523 177.997 203.855C177.442 200.755 174.76 199.49 173.419 199.311C172.494 199.222 169.777 199.373 168.841 201.049C167.869 202.786 171.06 206.127 173.141 207.463C171.338 208.398 169.377 210.974 168.979 211.739C168.707 212.263 168.563 213.209 168.84 213.744C169.257 214.412 170.387 215.549 172.864 215.481C176.748 215.374 177.905 211.962 177.997 210.269C177.118 209.512 175.638 208.666 175.638 206.928Z" fill="#F6BC6A"/>
<path d="M193.457 208.779C193.965 209.297 194.009 210.583 193.392 211.795C193.16 212.25 192.814 212.663 192.432 213.053C191.751 213.83 190.759 214.336 189.863 214.496C189.239 214.606 188.542 214.594 188.26 214.306C188.164 214.208 188.02 214.023 187.98 213.889C187.961 213.825 187.962 213.723 187.971 213.617C188.035 212.874 189.129 211.646 190.186 210.569C191.585 209.142 193.043 208.357 193.457 208.779Z" fill="#F6BC6A"/>
<path d="M186.509 212.491C186.401 212.491 184.622 212.462 183.895 212.286C183.895 212.286 183.683 212.561 183.572 212.755C183.447 212.973 183.302 213.342 183.302 213.342C183.221 213.665 183.275 214.076 183.949 214.252C185.637 214.692 186.643 212.491 186.509 212.491Z" fill="#F6BC6A"/>
<path d="M265.997 177.634C262.846 176.68 260.003 177.078 258.697 177.555C258.62 177.078 259.311 175.726 260.387 175.328C261.666 174.856 263.591 175.835 264.921 176.76C265.381 177.079 265.69 177.316 265.997 177.634Z" fill="#F6BC6A"/>
<path d="M269.046 180.259C269.045 179.435 268.15 178.846 267.702 178.453C268.018 176.632 269.546 175.889 270.31 175.784C270.837 175.732 272.384 175.82 272.917 176.805C273.47 177.825 271.653 179.788 270.468 180.573C271.495 181.123 272.612 182.636 272.838 183.085C272.993 183.393 273.075 183.949 272.917 184.263C272.68 184.655 272.037 185.324 270.626 185.284C268.413 185.221 267.755 183.216 267.702 182.222C268.203 181.777 269.046 181.28 269.046 180.259Z" fill="#F6BC6A"/>
<path d="M258.457 181.15C258.156 181.456 258.143 182.23 258.528 182.967C258.672 183.244 258.885 183.496 259.119 183.735C259.537 184.211 260.14 184.527 260.681 184.632C261.058 184.706 261.478 184.706 261.645 184.536C261.702 184.478 261.787 184.368 261.809 184.288C261.82 184.25 261.819 184.188 261.812 184.124C261.765 183.676 261.093 182.924 260.445 182.264C259.588 181.389 258.701 180.901 258.457 181.15Z" fill="#F6BC6A"/>
<path d="M262.594 183.538C262.656 183.538 263.678 183.522 264.097 183.423C264.097 183.423 264.219 183.577 264.283 183.686C264.354 183.808 264.438 184.015 264.438 184.015C264.484 184.195 264.453 184.425 264.066 184.524C263.095 184.771 262.516 183.538 262.594 183.538Z" fill="#F6BC6A"/>
</g>
<defs>
<clipPath id="clip0_337_1338">
<rect width="218" height="288" fill="white" transform="translate(137 40)"/>
</clipPath>
</defs>
</svg>
