<svg width="500" height="330" viewBox="0 0 500 330" fill="none" xmlns="http://www.w3.org/2000/svg">
<g clip-path="url(#clip0_337_1338)">
<path d="M285.381 238.254C284.488 238.375 283.798 239.225 283.555 240.116C283.027 242.018 283.92 244.042 284.082 245.945C284.204 247.605 283.879 249.264 283.879 250.964C283.839 251.572 283.96 252.179 284.245 252.705C285.219 254.405 287.654 253.92 289.278 254.405C291.186 254.972 293.012 255.741 294.717 256.753C296.706 257.927 301.414 260.316 299.994 263.271C299.182 264.971 297.68 265.821 297.883 267.966C297.964 268.978 298.411 269.95 298.289 270.962C298.167 271.933 297.518 272.784 297.071 273.674C296.503 274.889 296.3 276.265 296.544 277.56C297.274 277.196 298.208 276.832 298.938 277.236C299.304 277.479 299.588 277.803 299.791 278.208C300.927 279.746 306.569 283.228 307.868 280.394C307.868 280.353 307.868 280.273 307.909 280.232C308.031 279.787 308.112 279.341 308.112 278.896C308.355 276.346 309.248 270.962 312.414 270.355C314.16 269.99 315.784 271.488 316.717 273.026C317.651 274.565 318.26 276.346 319.68 277.479C321.141 278.613 323.171 278.775 324.957 278.248C326.743 277.722 330.761 275.82 329.625 275.334C328.407 274.929 327.108 275.334 325.85 275.536C324.592 275.739 323.13 275.739 322.278 274.808C324.186 275.253 326.053 273.917 327.189 272.379C328.042 271.205 330.315 269.95 330.477 268.371C330.721 265.942 327.23 265.254 325.85 266.914C324.754 268.29 323.78 269.788 323.009 271.407C320.573 269.99 317.935 268.655 315.743 266.954C316.961 264.566 318.665 261.894 321.344 260.963C324.957 259.708 329.99 261.489 333.765 261.813C335.673 261.975 338.514 262.704 340.3 261.692C341.802 260.842 342.33 259.02 342.857 257.401C343.507 255.336 348.297 243.84 344.643 242.868C342.046 242.18 341.031 249.224 340.625 250.722C340.016 253.069 339.083 255.458 337.094 256.875C336.607 256.106 337.256 255.134 337.824 254.405C338.798 253.231 338.514 251.086 336.607 251.572C334.09 252.179 335.714 255.66 334.415 257.077C333.887 257.644 333.075 257.806 332.344 257.887C330.518 258.13 321.75 259.587 320.736 257.482C320.289 256.591 323.374 254.081 323.942 253.393C325.282 251.734 326.418 249.872 326.905 247.807C327.474 245.5 327.352 242.747 329.178 241.249C330.518 240.156 332.466 240.156 333.887 239.185C335.835 237.849 336.201 235.217 336.404 232.87C336.607 230.724 336.769 228.457 335.754 226.555C335.186 225.462 333.846 224.652 332.832 225.826C331.533 227.405 331.695 231.25 331.817 233.153C331.898 233.963 331.898 234.772 331.736 235.541C331.289 237.08 328.001 239.832 326.256 239.225C325.16 238.82 325.241 237.606 325.403 236.675C325.891 233.801 326.094 230.846 325.972 227.931C325.891 226.15 325.322 223.964 323.577 223.64C322.278 223.397 321.06 224.409 320.33 225.462C318.665 227.85 318.138 230.886 318.909 233.72C319.802 236.918 322.278 239.589 322.846 242.868C323.212 245.054 322.643 247.2 321.791 249.183C321.426 249.952 318.95 256.065 317.529 254.608C317.367 254.365 317.285 254.081 317.326 253.798C317.488 251.855 320.898 247.24 318.422 245.702C317.57 245.176 316.474 245.662 315.784 246.35C313.389 248.617 313.673 252.746 315.256 255.377C316.352 257.199 316.271 258.737 314.931 260.477C312.942 263.068 309.776 267.521 306.123 267.683C305.92 267.723 305.676 267.683 305.474 267.562C305.027 267.278 305.108 266.59 305.271 266.104C306.651 261.975 310.304 258.899 312.658 255.336C314.16 253.029 311.075 255.013 310.426 255.62C310.223 255.822 307.909 258.211 307.99 258.372C306.691 255.903 307.3 252.867 309.492 251.086C310.223 250.519 311.116 250.114 311.765 249.426C312.78 248.333 313.023 246.714 312.942 245.257C312.861 243.395 312.374 240.359 310.913 239.104C310.101 240.561 309.695 242.221 309.736 243.88C309.736 244.973 309.898 246.107 309.533 247.2C309.289 248.009 308.68 248.657 307.868 248.9C305.189 249.548 305.027 244.002 304.865 242.423C304.662 240.44 304.865 237.646 307.259 237.08C307.828 236.958 308.437 236.958 308.964 236.675C311.278 235.46 310.71 229.186 310.547 227.081C310.466 226.19 310.263 225.138 309.289 224.854C306.894 224.166 306.123 227.971 306.123 229.55C306.123 230.967 306.488 235.501 304.093 235.541C303.282 235.541 302.713 234.772 302.429 234.003C301.496 231.574 302.023 228.862 302.226 226.231C302.348 224.531 301.617 222.426 301.009 220.887C300.278 219.025 298.045 216.718 297.924 220.483C297.802 224.369 298.817 228.376 297.924 232.222C297.599 233.639 296.219 235.015 294.798 234.651C293.783 234.408 293.134 233.396 292.931 232.384C292.728 231.372 292.931 230.319 293.012 229.267C293.093 228.376 293.215 226.109 292.322 225.583C289.4 223.883 288.994 231.169 289.318 232.384C289.927 234.529 291.429 236.31 293.459 237.201C295.245 237.97 297.396 238.092 298.776 239.508C299.344 240.116 299.75 240.844 300.034 241.613C301.09 244.042 304.946 254.446 301.293 255.944C300.684 256.186 300.034 256.025 299.385 255.822C297.152 255.174 294.92 254.527 292.728 253.879C292.119 253.758 291.551 253.474 291.145 253.029C290.293 251.896 291.064 250.033 291.389 248.859C291.754 247.524 291.997 246.147 292.119 244.811C292.16 244.123 292.241 241.897 291.632 241.492C290.008 240.44 290.13 244.366 290.09 245.054C290.008 246.593 290.171 249.952 288.101 250.195C286.68 250.357 286.355 248.738 286.437 247.645C286.558 246.107 288.994 237.727 285.381 238.254V238.254Z" fill="#F8FAFD"/>
<path d="M156.993 251.086C155.978 251.612 154.72 251.248 153.827 250.519C152.934 249.791 152.325 248.819 151.676 247.888C151.107 247.079 149.606 245.135 148.428 245.338C144.816 246.026 149.687 252.341 150.823 253.11C152.853 254.446 155.369 254.851 157.724 254.122C159.753 253.515 161.62 252.058 163.772 252.22C164.665 252.341 165.517 252.624 166.329 253.029C168.927 254.284 179.602 260.113 177.654 263.959C177.329 264.607 176.639 264.931 176.03 265.214C173.757 266.266 171.443 267.319 169.13 268.371C168.521 268.655 167.871 268.938 167.181 268.776C165.679 268.452 164.989 266.347 164.381 265.173C163.69 263.838 162.919 262.542 162.067 261.287C161.62 260.68 160.078 258.777 159.266 258.899C157.196 259.182 160.119 262.34 160.565 262.947C161.62 264.242 164.137 266.955 162.595 268.614C161.539 269.748 160.119 268.655 159.388 267.724C158.373 266.388 154.395 257.684 151.757 260.721C151.107 261.49 151.148 262.664 151.594 263.554C152.528 265.497 154.72 266.55 156.222 268.007C157.521 269.302 158.454 270.922 159.672 272.258C160.078 272.784 160.606 273.189 161.214 273.431C163.244 274.12 164.908 272.015 166.613 271.246C168.602 270.355 170.672 269.707 172.783 269.302C175.259 268.857 180.86 267.44 181.834 270.922C182.362 272.905 181.753 274.686 183.458 276.306C184.27 277.075 185.325 277.561 185.975 278.492C186.584 279.382 186.624 280.556 186.908 281.609C187.314 283.025 188.126 284.28 189.303 285.211C189.668 284.361 190.115 283.43 191.008 283.228C191.495 283.187 191.942 283.228 192.429 283.39C194.499 283.835 201.602 282.702 200.669 279.423C200.587 279.382 200.547 279.301 200.547 279.22C200.344 278.775 200.06 278.37 199.776 277.965C198.152 275.698 195.026 270.598 197.178 267.805C198.395 266.266 200.75 266.307 202.617 266.914C204.484 267.521 206.311 268.574 208.259 268.452C210.289 268.371 212.074 267.036 213.17 265.335C214.266 263.635 216.215 259.182 214.916 259.587C213.617 260.113 212.846 261.368 211.953 262.461C211.06 263.554 209.842 264.607 208.462 264.404C210.37 263.433 210.938 260.963 210.776 258.858C210.654 257.28 211.587 254.608 210.613 253.232C209.071 251.046 205.702 252.989 205.742 255.337C205.824 257.28 206.108 259.182 206.635 261.044C203.632 261.611 200.466 262.38 197.421 262.583C196.691 259.749 196.163 256.308 197.705 253.636C199.776 250.034 205.215 247.848 208.584 245.5C210.289 244.285 213.13 242.828 213.901 240.723C214.51 238.982 213.658 237.08 212.927 235.339C211.993 233.194 207.65 220.28 203.916 222.061C201.277 223.357 205.499 229.915 206.27 231.413C207.447 233.76 208.421 236.432 207.772 238.982C206.798 238.699 206.635 237.444 206.595 236.432C206.554 234.772 204.768 233.234 203.55 234.934C201.927 237.242 205.783 238.942 205.702 241.087C205.661 241.938 205.134 242.626 204.565 243.273C203.266 244.771 197.056 252.26 194.702 251.248C193.728 250.843 194.458 246.552 194.418 245.581C194.336 243.233 193.93 240.925 192.835 238.82C191.617 236.513 189.587 234.327 190.034 231.777C190.359 229.915 191.982 228.538 192.429 226.717C193.078 224.247 191.495 221.778 189.993 219.714C188.613 217.811 187.111 215.827 184.919 214.977C183.661 214.492 181.956 214.775 181.997 216.475C182.037 218.702 184.96 221.778 186.421 223.235C187.071 223.843 187.639 224.531 188.045 225.3C188.816 226.879 188.045 231.534 186.137 232.263C184.96 232.708 184.148 231.655 183.62 230.765C181.956 228.012 180.008 225.462 177.816 223.154C176.477 221.738 174.447 220.321 172.742 221.333C171.484 222.061 171.24 223.762 171.362 225.178C171.727 228.336 173.473 231.21 176.111 232.991C179.156 235.015 183.133 235.42 185.934 237.727C187.801 239.266 188.897 241.411 189.587 243.678C189.871 244.569 192.185 251.369 189.993 251.208C189.668 251.127 189.384 250.965 189.222 250.681C187.923 248.981 187.477 242.707 184.311 243.233C183.255 243.395 182.687 244.609 182.565 245.662C182.24 249.224 185.406 252.462 188.613 253.515C190.805 254.244 191.86 255.539 192.023 257.968C192.226 261.53 192.835 267.481 189.953 270.193C189.79 270.355 189.587 270.476 189.344 270.557C188.775 270.638 188.329 270.031 188.126 269.505C186.299 265.092 187.111 259.992 186.462 255.337C186.056 252.382 184.879 256.187 184.838 257.158C184.838 257.482 184.595 261.085 184.798 261.166C181.956 260.032 180.292 257.077 180.779 254.082C180.982 253.07 181.429 252.098 181.469 251.086C181.55 249.467 180.576 247.969 179.44 246.795C178.019 245.297 175.462 243.192 173.351 243.152C173.716 244.933 174.569 246.593 175.786 247.929C176.558 248.819 177.532 249.669 178.019 250.803C178.425 251.653 178.384 252.624 177.897 253.394C176.111 255.863 172.052 251.41 170.794 250.196C169.211 248.698 167.384 246.269 168.927 244.083C169.292 243.557 169.82 243.152 170.063 242.545C171.078 239.873 166.126 235.137 164.502 233.518C163.812 232.829 162.879 232.101 161.864 232.586C159.428 233.72 161.499 237.444 162.595 238.74C163.609 239.913 167.181 243.354 165.192 245.135C164.543 245.743 163.488 245.5 162.716 245.095C160.2 243.759 158.698 241.128 156.993 238.82C155.897 237.323 153.746 236.108 152.163 235.258C150.255 234.246 146.724 233.922 149.362 237.12C152.041 240.44 155.775 242.99 157.805 246.836C158.576 248.252 158.414 250.357 156.993 251.086V251.086Z" fill="#F8FAFD"/>
<path d="M235.454 226.433C227.701 234.408 229.162 245.297 233.871 254.446C239.391 265.133 249.904 272.136 249.661 285.211C249.579 288.45 249.336 295.858 246.9 298.448C264.923 279.301 245.358 254.77 245.358 254.77C234.317 240.44 235.332 230.886 236.753 226.676C237.321 225.016 236.225 225.624 235.454 226.433V226.433Z" fill="#F8FAFD"/>
<path d="M220.882 244.245C214.915 255.417 219.218 262.987 226.402 267.116C234.805 271.974 247.469 270.76 250.554 281.123C251.284 283.673 252.949 289.583 251.081 293.186C264.842 266.793 238.336 260.073 238.336 260.073C223.399 255.944 221.897 247.969 222.262 243.718C222.384 242.018 221.41 243.152 220.882 244.245V244.245Z" fill="#F8FAFD"/>
<path d="M254.491 218.135C254.207 204.898 250.189 191.215 239.432 185.71C238.296 185.184 236.997 185.022 238.336 186.722C241.665 191.013 247.185 201.821 244.425 224.409C244.425 224.409 236.835 264.323 262.204 277.803C258.753 275.982 257.13 266.469 255.506 262.704C248.89 247.321 254.816 233.639 254.491 218.135Z" fill="#F8FAFD"/>
<path d="M262.549 282.637C261.302 280.58 265.049 275.86 263.299 274.079C263.068 273.844 262.845 273.605 262.626 273.367C262.017 277.038 261.371 280.949 262.549 282.637Z" fill="#F8FAFD"/>
<path d="M262.626 273.367C263.105 270.492 263.559 267.768 263.097 266.388C258.429 252.665 266.668 241.614 268.576 228.417C270.24 217.163 268.008 205.14 257.495 199.392C256.48 198.866 255.181 198.623 256.318 200.242C259.2 204.29 263.299 213.965 257.089 232.789C257.089 232.789 248.35 257.761 262.626 273.367Z" fill="#F8FAFD"/>
<path d="M262.549 282.637C262.573 282.677 262.601 282.717 262.629 282.753C262.601 282.717 262.577 282.673 262.549 282.637Z" fill="#F8FAFD"/>
<path d="M262.63 282.754L262.642 282.766L262.63 282.754Z" fill="#F8FAFD"/>
<path d="M263.178 283.228C262.971 283.11 262.792 282.956 262.638 282.766C262.772 282.944 262.946 283.098 263.178 283.228Z" fill="#F8FAFD"/>
<path d="M254.369 286.264C255.79 289.624 254.369 293.591 257.82 296.627C255.1 294.238 261.96 287.964 261.676 284.726C260.62 271.65 271.661 263.514 276.735 252.381C281.078 242.868 281.93 231.858 273.325 224.531C272.513 223.802 271.296 223.276 271.986 224.895C273.731 229.024 275.355 238.456 264.761 253.677C264.761 253.677 247.469 270.071 254.369 286.264Z" fill="#F8FAFD"/>
<path d="M257.734 142.474C259.525 140.687 259.525 137.791 257.734 136.004C255.943 134.218 253.038 134.218 251.247 136.004C249.456 137.791 249.456 140.687 251.247 142.474C253.038 144.26 255.943 144.26 257.734 142.474Z" fill="#E1E7F0"/>
<path d="M250.27 123.491C251.951 123.491 253.314 122.131 253.314 120.455C253.314 118.778 251.951 117.419 250.27 117.419C248.589 117.419 247.226 118.778 247.226 120.455C247.226 122.131 248.589 123.491 250.27 123.491Z" fill="#E1E7F0"/>
<path d="M264.03 105.922C264.03 104.692 263.032 103.696 261.798 103.696C260.564 103.696 259.565 104.692 259.565 105.922C259.565 107.153 260.564 108.149 261.798 108.149C263.032 108.149 264.03 107.153 264.03 105.922Z" fill="#E1E7F0"/>
<path d="M252.462 107.784C252.462 106.914 251.752 106.206 250.879 106.206C250.006 106.206 249.296 106.914 249.296 107.784C249.296 108.655 250.006 109.363 250.879 109.363C251.752 109.363 252.462 108.655 252.462 107.784Z" fill="#E1E7F0"/>
<path d="M257.86 96.4902C258.6 96.4902 259.199 95.8921 259.199 95.1543C259.199 94.4166 258.6 93.8185 257.86 93.8185C257.12 93.8185 256.521 94.4166 256.521 95.1543C256.521 95.8921 257.12 96.4902 257.86 96.4902Z" fill="#E1E7F0"/>
<path d="M257.13 175.063C257.13 174.193 256.42 173.484 255.547 173.484C254.674 173.484 253.964 174.193 253.964 175.063C253.964 175.933 254.674 176.642 255.547 176.642C256.42 176.642 257.13 175.933 257.13 175.063Z" fill="#E1E7F0"/>
<path d="M258.063 168.627C258.063 168.044 257.592 167.574 257.007 167.574C256.423 167.574 255.952 168.044 255.952 168.627C255.952 169.21 256.423 169.679 257.007 169.679C257.592 169.679 258.063 169.21 258.063 168.627Z" fill="#E1E7F0"/>
<path d="M253.842 163.688C253.842 163.263 253.497 162.919 253.071 162.919C252.645 162.919 252.3 163.263 252.3 163.688C252.3 164.113 252.645 164.457 253.071 164.457C253.497 164.457 253.842 164.113 253.842 163.688Z" fill="#E1E7F0"/>
<path d="M257.333 164.295C257.333 164.004 257.097 163.769 256.805 163.769C256.513 163.769 256.277 164.004 256.277 164.295C256.277 164.587 256.513 164.821 256.805 164.821C257.097 164.821 257.333 164.587 257.333 164.295Z" fill="#E1E7F0"/>
<path d="M254.857 160.004C254.857 159.757 254.658 159.559 254.41 159.559C254.163 159.559 253.964 159.757 253.964 160.004C253.964 160.251 254.163 160.45 254.41 160.45C254.658 160.45 254.857 160.251 254.857 160.004Z" fill="#E1E7F0"/>
<path d="M209.436 204.25C210.893 204.25 212.075 203.072 212.075 201.618C212.075 200.165 210.893 198.987 209.436 198.987C207.979 198.987 206.798 200.165 206.798 201.618C206.798 203.072 207.979 204.25 209.436 204.25Z" fill="#E1E7F0"/>
<path d="M208.705 190.77C208.705 189.81 207.921 189.029 206.959 189.029C205.997 189.029 205.214 189.81 205.214 190.77C205.214 191.729 205.997 192.51 206.959 192.51C207.921 192.51 208.705 191.729 208.705 190.77Z" fill="#E1E7F0"/>
<path d="M214.915 182.35C214.915 181.633 214.335 181.054 213.616 181.054C212.898 181.054 212.317 181.633 212.317 182.35C212.317 183.066 212.898 183.645 213.616 183.645C214.335 183.645 214.915 183.066 214.915 182.35Z" fill="#E1E7F0"/>
<path d="M208.259 183.443C208.259 182.929 207.841 182.512 207.325 182.512C206.81 182.512 206.392 182.929 206.392 183.443C206.392 183.957 206.81 184.374 207.325 184.374C207.841 184.374 208.259 183.957 208.259 183.443Z" fill="#E1E7F0"/>
<path d="M212.156 176.156C212.156 175.731 211.811 175.387 211.385 175.387C210.958 175.387 210.613 175.731 210.613 176.156C210.613 176.581 210.958 176.925 211.385 176.925C211.811 176.925 212.156 176.581 212.156 176.156Z" fill="#E1E7F0"/>
<path d="M287.208 265.781C287.208 265.416 286.964 264.971 286.68 265.457C286.518 265.861 286.396 266.307 286.315 266.752C286.152 267.44 285.99 268.088 285.828 268.776C285.625 269.586 286.03 269.869 286.761 270.193C287.289 270.436 287.816 270.638 288.385 270.8C288.912 270.962 289.562 271.084 289.968 271.488C290.333 271.934 290.495 272.5 290.495 273.067V273.148C290.495 273.269 290.374 273.35 290.252 273.35C289.684 273.431 289.115 273.472 288.507 273.472C288.507 273.472 288.425 272.662 288.425 272.581C288.385 272.338 288.385 272.015 288.141 271.853C287.938 271.731 287.695 271.731 287.492 271.812L287.248 271.934C287.126 272.055 287.167 272.217 287.208 272.338C287.329 272.743 287.451 273.189 287.614 273.593C287.695 273.755 287.411 273.877 287.695 273.755C287.496 273.84 287.423 273.941 287.419 274.01C287.244 273.885 286.863 273.658 286.68 273.634C286.355 273.593 287.005 274.443 287.329 274.727C287.614 275.051 288.06 275.213 288.507 275.132C288.912 275.01 289.278 274.808 289.602 274.524C289.927 274.241 290.414 274.201 290.78 274.403C291.064 274.686 291.145 275.091 291.064 275.455C291.023 275.82 290.942 276.144 290.82 276.508C290.739 276.67 290.698 276.791 290.658 276.953C290.658 277.034 290.658 277.156 290.536 277.56C290.698 277.803 291.388 277.884 291.673 277.884C291.916 277.925 292.16 277.884 292.403 277.803C292.566 277.722 292.606 277.56 292.85 277.641C293.012 277.722 293.134 277.844 293.215 277.965C293.377 277.682 293.459 277.398 293.54 277.115C293.54 276.832 293.54 276.548 293.621 276.305C293.743 276.103 293.905 275.982 294.027 275.779C294.352 275.213 293.743 274.484 294.311 274.079C294.717 273.755 295.366 273.796 295.853 273.755C296.625 273.715 297.355 273.796 298.045 274.039C298.167 274.079 298.248 274.079 298.37 274.079C298.654 274.039 298.695 273.674 298.776 273.391C298.979 272.581 299.912 272.096 299.994 271.286C299.994 271.043 299.872 270.8 299.669 270.76C299.507 270.76 299.385 270.841 299.304 270.922C298.817 271.407 298.817 272.136 298.532 272.743C298.411 273.027 297.883 273.31 297.802 272.824C297.802 272.662 297.842 272.5 297.924 272.338C298.045 272.015 298.167 271.731 298.248 271.407C298.329 271.286 298.329 271.124 298.289 271.003C298.248 270.962 298.208 270.881 298.167 270.881C298.086 270.841 298.005 270.962 297.964 271.043C297.761 271.448 297.558 271.853 297.396 272.298C297.274 272.581 297.315 273.188 296.99 273.31C296.828 273.35 296.665 273.35 296.503 273.31L294.96 273.027C294.798 273.027 294.636 272.946 294.514 272.784C294.433 272.541 294.555 272.257 294.676 272.055C295.204 271.245 295.813 270.517 296.503 269.869C296.787 269.505 297.233 269.424 297.639 269.626C298.248 269.869 298.979 269.748 299.466 269.302C299.75 268.978 299.953 268.614 299.994 268.209C299.994 268.007 299.872 266.914 299.507 267.4C299.344 267.683 299.182 267.966 299.06 268.29C298.979 268.493 298.898 268.898 298.654 269.019C298.411 269.14 297.721 268.938 297.639 268.614C297.558 268.25 297.883 267.886 298.086 267.602C298.411 267.116 298.695 266.631 298.938 266.145C299.101 265.942 299.141 265.659 299.141 265.416C299.019 265.052 298.37 265.254 298.167 265.416C297.721 265.7 297.68 266.185 297.518 266.671C297.396 267.076 297.233 267.44 296.99 267.805C296.868 268.007 296.625 268.331 296.341 268.25C295.935 268.169 295.975 267.562 296.097 267.278C296.3 266.954 296.503 266.631 296.625 266.307C296.665 266.064 296.503 265.295 296.097 265.416C295.975 265.457 295.894 265.578 295.853 265.7L295.123 267.44C295.082 267.521 295.042 267.683 295.042 267.805C295.042 268.047 295.285 268.128 295.407 268.29C295.529 268.493 295.569 268.736 295.529 268.938C295.488 269.262 295.366 269.545 295.163 269.788C295.001 270.031 294.839 270.274 294.636 270.476C294.392 270.76 293.824 270.841 293.783 270.314C293.702 269.829 294.149 269.302 294.27 268.898C294.392 268.574 294.433 268.007 293.986 268.452C293.662 268.736 293.418 269.059 293.215 269.424C293.053 269.748 293.012 270.112 293.134 270.436C293.256 270.76 293.54 270.962 293.58 271.326C293.621 271.529 293.093 272.743 292.931 272.541C292.89 272.5 292.89 272.46 292.89 272.419C292.89 272.055 292.322 272.338 292.444 272.743C292.606 273.269 292.728 273.836 292.728 274.403C292.728 274.524 292.687 274.605 292.606 274.686C292.403 274.808 292.2 274.605 292.078 274.403C291.713 273.755 291.957 273.067 291.794 272.338C291.673 271.731 291.348 271.407 291.835 271.084C292.403 270.679 292.89 269.788 292.606 269.1C292.566 268.898 292.403 268.776 292.2 268.776C291.957 268.776 291.794 269.019 291.713 269.262C291.632 269.626 291.835 270.395 291.429 270.638C291.267 270.76 291.145 270.598 291.145 270.436C291.145 270.112 291.104 269.829 291.104 269.545C291.064 269.14 291.064 268.736 291.185 268.331C291.429 267.805 291.794 267.4 292.241 267.076C292.728 266.752 293.134 266.388 293.499 265.983C293.864 265.538 294.027 264.93 293.986 264.364C293.946 263.878 293.58 263.271 293.012 263.554C292.85 263.635 292.728 263.756 292.647 263.918C292.2 264.688 292.2 265.861 291.47 266.428C291.023 266.793 290.536 265.659 290.455 265.376C290.374 264.971 290.617 264.688 290.82 264.323C291.023 263.959 291.145 263.554 291.185 263.149C291.185 262.825 290.983 262.461 290.617 262.664C290.495 262.744 290.374 262.866 290.292 262.987C289.805 263.635 289.075 264.89 289.643 265.7C289.887 266.064 290.293 266.307 290.414 266.752C290.536 267.238 290.211 267.683 290.09 268.169C289.968 268.655 290.008 269.14 290.13 269.626C290.211 269.829 290.577 270.8 290.292 270.881C290.008 270.962 289.521 270.638 289.278 270.517C288.953 270.355 288.628 270.152 288.304 269.95C288.06 269.788 287.735 269.626 287.614 269.383C287.37 268.938 288.141 268.371 287.654 267.926L287.614 267.886C287.492 267.764 287.289 267.805 287.167 267.966C287.005 268.209 287.208 268.493 287.167 268.776C287.167 268.857 287.126 268.898 287.045 268.898C286.639 268.817 287.005 267.683 287.045 267.44C287.167 266.914 287.208 266.347 287.208 265.781V265.781Z" fill="#CBD3D9"/>
<path d="M193.646 253.151C193.646 252.341 193.078 251.451 192.51 252.463C192.063 253.272 191.941 254.244 191.698 255.134C191.332 256.551 190.967 257.927 190.683 259.344C190.277 261.085 191.129 261.692 192.631 262.34C193.768 262.826 194.904 263.271 196.041 263.635C197.137 263.959 198.517 264.283 199.329 265.093C200.141 265.902 200.344 267.238 200.425 268.371C200.465 268.452 200.465 268.493 200.465 268.574C200.425 268.857 200.222 269.019 199.938 269.019C198.72 269.181 197.462 269.303 196.244 269.303C196.284 269.303 196.082 267.602 196.082 267.44C196 266.914 196 266.266 195.513 265.943C195.107 265.7 194.62 265.7 194.174 265.862C194.011 265.902 193.849 265.983 193.687 266.105C193.443 266.307 193.484 266.631 193.565 266.914C193.768 267.805 194.052 268.695 194.377 269.545C194.498 269.91 193.89 270.112 194.498 269.869C194.084 270.047 193.93 270.266 193.938 270.404C193.581 270.14 192.786 269.639 192.388 269.586C191.779 269.545 193.118 271.286 193.768 271.893C194.417 272.541 195.31 272.824 196.244 272.703C197.096 272.541 197.746 271.853 198.517 271.408C199.288 270.962 200.303 270.679 200.993 271.205C201.602 271.691 201.642 272.622 201.561 273.391C201.48 274.16 201.318 274.889 201.074 275.618C200.952 275.941 200.831 276.225 200.749 276.549C200.749 276.71 200.749 276.913 200.912 276.872C201.277 277.48 202.657 277.561 203.266 277.601C203.794 277.642 204.281 277.601 204.768 277.439C205.133 277.318 205.214 276.953 205.701 277.156C205.986 277.318 206.229 277.561 206.432 277.844C206.716 277.237 206.919 276.63 207.082 276.022C207.122 275.456 206.919 274.889 207.203 274.363C207.406 273.958 207.772 273.674 208.015 273.31C208.705 272.177 207.487 270.679 208.624 269.788C209.517 269.1 210.816 269.181 211.871 269.1C213.414 268.979 214.956 269.222 216.417 269.707C216.62 269.788 216.864 269.829 217.067 269.829C217.635 269.707 217.757 268.938 217.919 268.371C218.366 266.712 220.355 265.659 220.476 263.959C220.517 263.473 220.274 262.907 219.827 262.866C219.543 262.866 219.259 262.988 219.096 263.19C218.082 264.161 218.122 265.74 217.513 266.995C217.229 267.602 216.133 268.21 215.971 267.157C215.971 266.793 216.052 266.428 216.214 266.105C216.499 265.497 216.742 264.85 216.945 264.202C217.026 263.919 217.067 263.635 216.986 263.352C216.945 263.23 216.864 263.149 216.742 263.109C216.539 263.068 216.377 263.271 216.296 263.473C215.809 264.364 215.403 265.214 215.078 266.145C214.875 266.752 214.916 268.007 214.266 268.29C213.941 268.371 213.617 268.371 213.292 268.29L210.045 267.683C209.679 267.683 209.314 267.481 209.07 267.198C208.786 266.752 209.111 266.105 209.355 265.7C210.369 264 211.668 262.461 213.13 261.125C213.901 260.397 214.55 260.235 215.524 260.64C216.823 261.166 218.285 260.923 219.34 259.992C219.949 259.425 220.355 258.616 220.476 257.766C220.558 257.32 220.274 255.013 219.502 256.025C219.096 256.592 218.772 257.199 218.528 257.846C218.325 258.332 218.203 259.142 217.676 259.385C217.148 259.668 215.727 259.182 215.565 258.535C215.403 257.766 216.093 256.956 216.458 256.389C217.107 255.458 217.716 254.446 218.203 253.394C218.406 252.989 218.731 252.301 218.609 251.855C218.406 251.086 217.067 251.572 216.62 251.896C215.687 252.503 215.606 253.556 215.281 254.527C215.037 255.377 214.631 256.187 214.144 256.915C213.86 257.32 213.373 257.927 212.764 257.806C211.952 257.604 212.034 256.308 212.277 255.741C212.602 255.053 213.211 254.446 213.373 253.717C213.495 253.151 213.17 251.572 212.277 251.855C212.034 251.936 211.912 252.22 211.79 252.463L210.288 256.146C210.166 256.389 210.085 256.673 210.085 256.956C210.126 257.442 210.613 257.563 210.856 257.927C211.1 258.292 211.222 258.778 211.141 259.223C211.059 259.83 210.775 260.437 210.41 260.963C210.085 261.449 209.72 261.935 209.314 262.38C208.746 262.988 207.65 263.109 207.528 262.056C207.406 261.125 208.299 260.032 208.583 259.142C208.786 258.494 208.908 257.32 207.975 258.251C207.325 258.858 206.757 259.547 206.351 260.316C205.986 261.004 205.945 261.733 206.148 262.461C206.432 263.109 207.041 263.595 207.082 264.323C207.122 264.769 206.026 267.278 205.701 266.874C205.661 266.793 205.62 266.712 205.62 266.631C205.539 265.821 204.443 266.388 204.646 267.278C204.93 268.452 205.255 269.586 205.214 270.8C205.255 271.043 205.174 271.246 205.011 271.408C204.646 271.731 204.159 271.246 203.915 270.841C203.144 269.464 203.631 268.088 203.307 266.55C203.063 265.295 202.373 264.647 203.388 263.919C204.606 263.109 205.661 261.247 205.011 259.79C204.89 259.425 204.565 259.182 204.159 259.142C203.631 259.142 203.266 259.668 203.144 260.194C202.901 261.004 203.307 262.583 202.495 263.109C202.13 263.352 201.927 263.028 201.886 262.704C201.845 262.097 201.805 261.49 201.764 260.883C201.683 260.032 201.724 259.142 201.967 258.332C202.332 257.239 203.225 256.47 204.159 255.741C205.093 255.013 206.067 254.406 206.757 253.475C207.487 252.544 207.853 251.329 207.772 250.115C207.65 249.143 206.879 247.848 205.742 248.455C205.417 248.657 205.133 248.941 204.971 249.265C204.037 250.884 204.078 253.313 202.535 254.527C201.642 255.256 200.628 252.908 200.465 252.301C200.262 251.451 200.831 250.843 201.237 250.115C201.683 249.346 201.967 248.495 202.048 247.645C202.089 246.957 201.683 246.188 200.912 246.633C200.668 246.795 200.425 247.038 200.262 247.281C199.207 248.698 197.705 251.248 198.882 252.989C199.41 253.758 200.262 254.284 200.506 255.175C200.749 256.146 200.141 257.118 199.856 258.089C199.613 259.101 199.653 260.154 199.938 261.166C200.059 261.611 200.871 263.595 200.262 263.757C199.653 263.919 198.598 263.271 198.111 263.028C197.38 262.704 196.69 262.299 196.041 261.854C195.594 261.571 194.864 261.206 194.62 260.68C194.133 259.709 195.716 258.494 194.701 257.604L194.62 257.523C194.296 257.32 193.849 257.401 193.646 257.725C193.321 258.292 193.768 258.899 193.646 259.466C193.605 259.587 193.484 259.668 193.362 259.668C192.51 259.506 193.2 257.118 193.321 256.632C193.565 255.499 193.646 254.325 193.646 253.151V253.151Z" fill="#E1E7F0"/>
<path d="M222.222 275.86C221.938 275.253 221.938 274.524 221.451 274.038C221.37 273.957 221.248 273.877 221.085 273.877C220.883 273.917 220.761 274.16 220.761 274.403C220.842 275.212 221.776 275.698 221.978 276.508C222.06 276.791 222.1 277.155 222.384 277.196C222.506 277.196 222.587 277.196 222.709 277.155C223.399 276.913 224.13 276.832 224.901 276.872C225.388 276.913 226.038 276.872 226.443 277.196C227.012 277.601 226.403 278.329 226.728 278.896C226.849 279.099 227.012 279.22 227.133 279.422C227.215 279.665 227.215 279.949 227.215 280.232C227.296 280.515 227.377 280.799 227.539 281.082C227.621 280.961 227.742 280.839 227.905 280.758C228.148 280.677 228.189 280.839 228.351 280.92C228.595 281.001 228.838 281.042 229.082 281.001C229.366 281.001 230.056 280.92 230.218 280.677C230.056 280.272 230.056 280.192 230.056 280.111C230.015 279.949 229.975 279.827 229.894 279.665C229.772 279.301 229.691 278.977 229.65 278.613C229.569 278.248 229.65 277.844 229.934 277.56C230.3 277.358 230.787 277.398 231.111 277.682C231.436 277.965 231.801 278.167 232.207 278.289C232.654 278.37 233.1 278.208 233.384 277.884C233.709 277.601 234.359 276.751 234.034 276.791C233.851 276.815 233.47 277.042 233.295 277.168C233.295 277.099 233.218 276.998 233.019 276.913C233.303 277.034 233.019 276.913 233.1 276.751C233.263 276.346 233.384 275.901 233.506 275.496C233.547 275.374 233.587 275.212 233.466 275.091L233.222 274.969C233.019 274.889 232.776 274.889 232.573 275.01C232.329 275.172 232.329 275.496 232.288 275.739C232.288 275.82 232.207 276.629 232.207 276.629C231.598 276.629 231.03 276.589 230.462 276.508C230.34 276.508 230.218 276.427 230.218 276.305V276.224C230.218 275.658 230.381 275.091 230.746 274.646C231.152 274.241 231.801 274.119 232.329 273.957C232.897 273.796 233.425 273.593 233.953 273.35C234.683 273.026 235.089 272.743 234.886 271.933C234.724 271.245 234.562 270.598 234.399 269.909C234.318 269.464 234.196 269.019 234.034 268.614C233.75 268.128 233.506 268.574 233.506 268.938C233.506 269.505 233.547 270.071 233.669 270.598C233.709 270.84 234.074 271.974 233.669 272.055C233.587 272.055 233.547 272.014 233.547 271.933C233.506 271.65 233.709 271.367 233.547 271.124C233.425 270.962 233.222 270.921 233.1 271.043L233.06 271.083C232.573 271.529 233.344 272.095 233.1 272.541C232.979 272.784 232.654 272.945 232.41 273.107C232.086 273.31 231.761 273.512 231.436 273.674C231.193 273.796 230.705 274.119 230.421 274.038C230.137 273.957 230.502 272.986 230.584 272.784C230.705 272.298 230.746 271.812 230.624 271.326C230.502 270.84 230.178 270.395 230.3 269.909C230.421 269.464 230.827 269.221 231.071 268.857C231.639 268.047 230.908 266.792 230.421 266.145C230.34 266.023 230.218 265.902 230.097 265.821C229.731 265.618 229.528 265.983 229.528 266.307C229.569 266.711 229.691 267.116 229.894 267.481C230.097 267.845 230.34 268.128 230.259 268.533C230.178 268.816 229.691 269.95 229.285 269.586C228.554 269.019 228.554 267.845 228.108 267.076C228.026 266.914 227.905 266.792 227.742 266.711C227.174 266.428 226.809 267.035 226.768 267.521C226.728 268.088 226.89 268.695 227.255 269.14C227.621 269.545 228.026 269.909 228.514 270.233C228.96 270.557 229.325 270.962 229.569 271.488C229.691 271.893 229.691 272.298 229.65 272.703C229.65 272.986 229.609 273.269 229.609 273.593C229.609 273.755 229.488 273.917 229.325 273.796C228.919 273.553 229.122 272.784 229.041 272.419C228.96 272.176 228.798 271.933 228.554 271.933C228.351 271.933 228.189 272.055 228.148 272.257C227.864 272.945 228.351 273.836 228.919 274.241C229.407 274.565 229.082 274.889 228.96 275.496C228.798 276.224 229.041 276.913 228.676 277.56C228.554 277.763 228.351 277.965 228.148 277.844C228.067 277.763 228.026 277.682 228.026 277.56C228.026 276.994 228.148 276.427 228.311 275.901C228.432 275.496 227.864 275.212 227.864 275.577C227.864 275.617 227.864 275.658 227.824 275.698C227.661 275.901 227.133 274.686 227.174 274.484C227.215 274.119 227.499 273.917 227.621 273.593C227.742 273.269 227.702 272.905 227.539 272.581C227.336 272.217 227.093 271.893 226.768 271.61C226.322 271.164 226.362 271.731 226.484 272.055C226.606 272.46 227.052 272.986 226.971 273.472C226.931 273.998 226.362 273.917 226.119 273.634C225.916 273.431 225.753 273.188 225.591 272.945C225.388 272.703 225.266 272.419 225.226 272.095C225.185 271.893 225.226 271.65 225.347 271.448C225.469 271.286 225.713 271.205 225.713 270.962C225.713 270.84 225.672 270.679 225.632 270.557L224.901 268.816C224.86 268.695 224.779 268.574 224.657 268.533C224.252 268.412 224.089 269.181 224.13 269.424C224.252 269.747 224.454 270.071 224.657 270.395C224.779 270.679 224.82 271.286 224.414 271.367C224.13 271.448 223.886 271.124 223.764 270.921C223.521 270.557 223.359 270.193 223.237 269.788C223.074 269.302 223.034 268.816 222.587 268.533C222.384 268.371 221.735 268.169 221.613 268.533C221.613 268.776 221.654 269.059 221.816 269.262C222.06 269.747 222.344 270.233 222.668 270.719C222.871 271.002 223.196 271.367 223.115 271.731C223.034 272.055 222.344 272.257 222.1 272.136C221.857 272.014 221.776 271.61 221.694 271.407C221.573 271.083 221.41 270.8 221.248 270.517C220.883 270.031 220.761 271.124 220.761 271.326C220.801 271.731 221.004 272.095 221.288 272.419C221.776 272.865 222.506 272.986 223.115 272.743C223.521 272.541 223.967 272.622 224.252 272.986C224.942 273.634 225.55 274.362 226.078 275.172C226.2 275.374 226.322 275.658 226.24 275.901C226.119 276.062 225.956 276.143 225.794 276.143L224.252 276.427C224.089 276.467 223.927 276.467 223.764 276.427C223.44 276.305 223.48 275.698 223.359 275.415C223.196 274.97 222.993 274.565 222.79 274.16C222.75 274.079 222.669 273.957 222.587 273.998C222.547 273.998 222.506 274.079 222.466 274.119C222.425 274.241 222.425 274.403 222.506 274.524C222.587 274.848 222.709 275.131 222.831 275.455C222.912 275.617 222.953 275.779 222.953 275.941C222.871 276.427 222.344 276.143 222.222 275.86V275.86Z" fill="#CBD3D9"/>
<path d="M166.937 267.885C166.572 267.683 166.45 267.116 166.288 266.752C166.126 266.266 165.882 265.821 165.598 265.416C165.03 264.687 164.827 266.347 164.867 266.671C164.948 267.278 165.233 267.885 165.72 268.29C166.491 268.978 167.546 269.14 168.48 268.776C169.17 268.493 169.657 268.574 170.225 269.14C171.281 270.112 172.214 271.245 172.985 272.46C173.148 272.743 173.391 273.229 173.188 273.553C173.026 273.755 172.742 273.917 172.498 273.917L170.144 274.362C169.901 274.443 169.657 274.443 169.413 274.362C168.926 274.16 168.967 273.229 168.805 272.784C168.561 272.136 168.277 271.488 167.912 270.841C167.83 270.719 167.749 270.557 167.587 270.598C167.506 270.638 167.425 270.719 167.425 270.8C167.384 271.002 167.384 271.205 167.465 271.407C167.627 271.893 167.79 272.338 167.993 272.824C168.115 273.067 168.196 273.31 168.155 273.593C168.033 274.362 167.222 273.917 167.019 273.472C166.572 272.581 166.572 271.407 165.882 270.719C165.76 270.557 165.557 270.476 165.354 270.476C165.03 270.517 164.867 270.921 164.867 271.286C164.948 272.541 166.41 273.269 166.734 274.484C166.856 274.889 166.937 275.455 167.343 275.536C167.506 275.536 167.668 275.536 167.83 275.455C168.886 275.091 170.022 274.929 171.159 275.01C171.93 275.051 172.864 275.01 173.513 275.496C174.366 276.143 173.473 277.236 173.96 278.046C174.122 278.329 174.406 278.532 174.568 278.815C174.771 279.22 174.65 279.625 174.65 280.03C174.771 280.475 174.934 280.92 175.096 281.365C175.218 281.163 175.421 281.001 175.624 280.88C175.989 280.718 176.03 281.001 176.314 281.082C176.679 281.204 177.044 281.244 177.41 281.204C177.856 281.163 178.871 281.123 179.115 280.677C179.236 280.758 179.277 280.637 179.236 280.515C179.155 280.273 179.074 280.07 178.993 279.827C178.83 279.301 178.709 278.734 178.668 278.208C178.587 277.641 178.628 276.953 179.074 276.629C179.561 276.224 180.332 276.427 180.86 276.791C181.388 277.156 181.915 277.601 182.524 277.722C183.174 277.803 183.864 277.601 184.351 277.115C184.838 276.67 185.812 275.415 185.366 275.415C185.077 275.467 184.509 275.82 184.245 276.01C184.245 275.913 184.128 275.755 183.823 275.617C184.27 275.779 183.823 275.658 183.904 275.374C184.148 274.727 184.351 274.079 184.513 273.431C184.554 273.229 184.594 272.986 184.432 272.824C184.31 272.743 184.188 272.703 184.067 272.662C183.742 272.541 183.377 272.541 183.092 272.703C182.768 272.946 182.727 273.431 182.687 273.796C182.687 273.917 182.565 275.172 182.565 275.172C181.672 275.172 180.779 275.091 179.886 274.97C179.683 274.97 179.521 274.848 179.521 274.646C179.521 274.605 179.521 274.565 179.561 274.484C179.642 273.674 179.764 272.703 180.373 272.095C180.982 271.488 181.997 271.286 182.768 271.002C183.62 270.719 184.432 270.436 185.244 270.071C186.34 269.586 186.949 269.14 186.664 267.885C186.462 266.873 186.177 265.821 185.934 264.809C185.812 264.121 185.609 263.473 185.366 262.866C184.96 262.137 184.554 262.785 184.554 263.352C184.554 264.202 184.635 265.052 184.797 265.902C184.878 266.266 185.406 268.007 184.757 268.128C184.676 268.128 184.554 268.088 184.554 267.966C184.473 267.562 184.797 267.116 184.554 266.711C184.391 266.469 184.067 266.428 183.864 266.59C183.823 266.59 183.823 266.631 183.783 266.631C183.052 267.278 184.188 268.169 183.823 268.857C183.661 269.221 183.133 269.505 182.808 269.707C182.321 270.031 181.834 270.314 181.307 270.557C180.941 270.719 180.17 271.205 179.764 271.083C179.318 270.962 179.926 269.505 180.008 269.181C180.211 268.452 180.251 267.683 180.089 266.954C179.886 266.226 179.439 265.538 179.642 264.809C179.845 264.161 180.454 263.756 180.819 263.23C181.672 261.975 180.576 260.113 179.805 259.061C179.683 258.858 179.521 258.696 179.318 258.575C178.749 258.251 178.465 258.818 178.465 259.304C178.546 259.951 178.709 260.558 179.033 261.085C179.318 261.611 179.764 262.056 179.602 262.704C179.48 263.149 178.749 264.849 178.1 264.323C176.963 263.433 177.004 261.651 176.314 260.477C176.192 260.235 175.989 260.032 175.746 259.911C174.893 259.465 174.325 260.437 174.284 261.125C174.244 262.016 174.487 262.866 175.015 263.594C175.583 264.242 176.192 264.768 176.923 265.214C177.613 265.659 178.181 266.347 178.506 267.116C178.668 267.724 178.709 268.371 178.628 268.978C178.587 269.424 178.587 269.869 178.546 270.314C178.546 270.557 178.343 270.8 178.1 270.598C177.491 270.193 177.775 269.059 177.653 268.493C177.572 268.128 177.288 267.724 176.923 267.724C176.639 267.764 176.395 267.926 176.273 268.209C175.827 269.262 176.598 270.598 177.45 271.205C178.181 271.731 177.694 272.217 177.491 273.148C177.247 274.281 177.613 275.293 177.044 276.305C176.882 276.589 176.517 276.953 176.233 276.71C176.111 276.589 176.07 276.427 176.07 276.265C176.07 275.415 176.233 274.524 176.476 273.715C176.639 273.067 175.827 272.662 175.786 273.229C175.786 273.31 175.786 273.35 175.746 273.391C175.502 273.674 174.69 271.853 174.731 271.529C174.771 271.002 175.218 270.638 175.421 270.152C175.583 269.626 175.543 269.059 175.299 268.614C174.974 268.047 174.609 267.562 174.122 267.116C173.432 266.428 173.513 267.278 173.675 267.764C173.878 268.412 174.528 269.181 174.447 269.909C174.366 270.679 173.554 270.598 173.148 270.152C172.864 269.829 172.58 269.505 172.336 269.14C172.052 268.776 171.889 268.331 171.808 267.845C171.768 267.521 171.849 267.157 172.011 266.873C172.214 266.59 172.539 266.509 172.58 266.145C172.58 265.942 172.539 265.74 172.417 265.578L171.321 262.906C171.24 262.704 171.159 262.501 170.956 262.461C170.306 262.259 170.063 263.433 170.144 263.837C170.266 264.364 170.712 264.809 170.956 265.295C171.159 265.699 171.199 266.671 170.591 266.792C170.144 266.914 169.779 266.428 169.576 266.145C169.211 265.619 168.926 265.011 168.723 264.404C168.48 263.675 168.439 262.947 167.749 262.461C167.425 262.218 166.45 261.894 166.288 262.421C166.207 262.744 166.45 263.23 166.572 263.514C166.937 264.283 167.343 265.011 167.83 265.699C168.115 266.104 168.602 266.711 168.48 267.278C168.358 267.764 167.343 268.088 166.937 267.885V267.885Z" fill="#CBD3D9"/>
<path d="M303.159 266.347C302.713 266.145 302.591 265.457 302.429 265.052C302.226 264.525 301.942 263.999 301.617 263.513C300.967 262.663 300.724 264.606 300.805 264.971C300.927 265.699 301.252 266.347 301.779 266.873C302.672 267.642 303.89 267.885 304.986 267.44C305.798 267.076 306.366 267.238 307.015 267.845C308.274 268.978 309.329 270.274 310.222 271.691C310.425 272.014 310.669 272.581 310.466 272.945C310.263 273.188 309.979 273.35 309.654 273.35L306.934 273.877C306.65 273.957 306.366 273.957 306.122 273.877C305.554 273.634 305.595 272.581 305.432 272.055C305.148 271.286 304.783 270.517 304.418 269.828C304.336 269.667 304.215 269.505 304.052 269.545C303.971 269.586 303.89 269.667 303.849 269.748C303.809 269.99 303.809 270.233 303.89 270.476C304.052 271.043 304.255 271.569 304.499 272.095C304.661 272.379 304.702 272.662 304.702 272.986C304.539 273.877 303.646 273.35 303.403 272.865C302.875 271.812 302.916 270.476 302.063 269.667C301.901 269.505 301.698 269.383 301.455 269.383C301.049 269.424 300.886 269.909 300.927 270.314C301.049 271.772 302.713 272.622 303.078 274.038C303.2 274.524 303.322 275.172 303.809 275.253C304.012 275.253 304.174 275.253 304.336 275.172C305.554 274.767 306.853 274.565 308.152 274.646C309.045 274.686 310.141 274.646 310.872 275.212C311.846 275.941 310.831 277.236 311.399 278.167C311.602 278.491 311.927 278.734 312.089 279.058C312.333 279.503 312.17 279.989 312.211 280.475C312.333 281.001 312.536 281.527 312.739 282.013C312.901 281.77 313.104 281.568 313.348 281.446C313.754 281.284 313.835 281.568 314.159 281.689C314.565 281.811 314.971 281.892 315.418 281.811C315.905 281.77 317.082 281.689 317.407 281.204C317.366 281.204 317.407 281.042 317.366 280.92C317.285 280.637 317.204 280.394 317.082 280.151C316.879 279.544 316.757 278.896 316.676 278.248C316.595 277.601 316.635 276.832 317.163 276.386C317.731 275.941 318.624 276.184 319.233 276.548C319.842 276.913 320.451 277.479 321.182 277.641C321.953 277.763 322.724 277.479 323.292 276.953C323.861 276.427 324.997 274.97 324.469 275.01C324.133 275.063 323.487 275.455 323.187 275.674C323.195 275.552 323.081 275.37 322.724 275.253C323.252 275.455 322.724 275.293 322.846 274.97C323.13 274.241 323.333 273.472 323.536 272.743C323.576 272.5 323.658 272.257 323.455 272.055C323.333 271.974 323.171 271.893 323.049 271.852C322.683 271.691 322.278 271.731 321.912 271.933C321.506 272.217 321.506 272.784 321.466 273.188C321.466 273.31 321.303 274.767 321.344 274.767C320.289 274.767 319.274 274.686 318.259 274.524C318.016 274.524 317.853 274.362 317.813 274.16C317.813 274.119 317.813 274.038 317.853 273.998C317.934 273.067 318.097 271.933 318.787 271.205C319.477 270.517 320.654 270.233 321.547 269.95C322.521 269.626 323.495 269.262 324.429 268.857C325.687 268.29 326.418 267.804 326.093 266.347C325.85 265.173 325.565 263.959 325.241 262.785C325.038 262.016 324.957 261.206 324.551 260.518C324.064 259.668 323.617 260.437 323.617 261.085C323.617 262.056 323.698 263.068 323.901 263.999C323.982 264.404 324.591 266.428 323.861 266.59C323.739 266.59 323.658 266.509 323.617 266.388C323.495 265.902 323.901 265.376 323.617 264.93C323.455 264.647 323.089 264.606 322.805 264.768C322.765 264.768 322.765 264.809 322.724 264.809C321.872 265.578 323.211 266.55 322.765 267.4C322.562 267.845 321.953 268.128 321.587 268.371C321.019 268.735 320.451 269.059 319.842 269.343C319.396 269.545 318.543 270.112 318.056 269.95C317.569 269.788 318.218 268.128 318.3 267.764C318.543 266.914 318.543 266.023 318.381 265.173C318.137 264.364 317.61 263.554 317.853 262.704C318.056 261.935 318.787 261.489 319.233 260.882C320.248 259.425 318.949 257.239 318.056 256.065C317.894 255.863 317.731 255.66 317.488 255.539C316.838 255.174 316.473 255.822 316.514 256.389C316.595 257.118 316.798 257.846 317.204 258.453C317.528 259.061 318.016 259.587 317.853 260.315C317.731 260.801 316.879 262.825 316.108 262.218C314.809 261.206 314.849 259.142 314.038 257.765C313.875 257.482 313.672 257.239 313.388 257.077C312.414 256.591 311.765 257.684 311.683 258.494C311.602 259.506 311.927 260.518 312.536 261.328C313.185 262.056 313.916 262.704 314.728 263.23C315.499 263.837 316.27 264.525 316.554 265.416C316.757 266.104 316.798 266.833 316.717 267.562C316.676 268.088 316.635 268.574 316.635 269.1C316.635 269.383 316.432 269.626 316.108 269.424C315.418 268.978 315.742 267.643 315.58 266.954C315.458 266.509 315.174 266.064 314.728 266.064C314.403 266.104 314.119 266.307 313.997 266.63C313.469 267.845 314.362 269.424 315.337 270.112C316.189 270.719 315.621 271.286 315.377 272.338C315.093 273.634 315.499 274.808 314.89 275.982C314.687 276.346 314.281 276.71 313.956 276.467C313.835 276.346 313.754 276.143 313.754 275.982C313.754 274.97 313.916 273.998 314.241 273.026C314.403 272.298 313.469 271.812 313.429 272.46C313.429 272.541 313.429 272.581 313.388 272.662C313.145 272.986 312.17 270.881 312.211 270.517C312.252 269.909 312.779 269.505 312.982 268.938C313.185 268.331 313.104 267.683 312.82 267.116C312.455 266.469 312.008 265.861 311.44 265.376C310.669 264.566 310.75 265.578 310.953 266.145C311.196 266.873 311.927 267.804 311.846 268.614C311.765 269.505 310.79 269.383 310.344 268.857C310.019 268.493 309.694 268.088 309.41 267.683C309.086 267.238 308.883 266.752 308.761 266.226C308.72 265.821 308.801 265.457 309.004 265.133C309.207 264.809 309.613 264.728 309.654 264.283C309.654 264.04 309.573 263.797 309.491 263.594L308.233 260.518C308.152 260.315 308.03 260.073 307.827 259.992C307.097 259.749 306.813 261.085 306.894 261.57C307.015 262.218 307.543 262.704 307.827 263.271C308.03 263.756 308.071 264.849 307.381 265.011C306.894 265.133 306.447 264.606 306.204 264.242C305.798 263.635 305.473 262.947 305.229 262.218C304.945 261.408 304.905 260.518 304.093 259.992C303.728 259.749 302.591 259.303 302.388 259.951C302.266 260.356 302.55 260.882 302.713 261.247C303.119 262.137 303.606 262.987 304.174 263.797C304.499 264.283 305.067 264.971 304.945 265.618C304.824 266.145 303.606 266.59 303.159 266.347V266.347Z" fill="#E1E7F0"/>
<path d="M261.717 223.276C264.193 223.276 266.182 221.292 266.182 218.823C266.182 216.354 264.193 214.37 261.717 214.37C248.038 214.37 236.956 203.319 236.956 189.677C236.956 187.207 234.967 185.224 232.491 185.224C230.015 185.224 228.026 187.207 228.026 189.677V231.858C228.067 250.398 243.126 265.376 261.717 265.376H271.458C290.049 265.376 305.108 250.357 305.149 231.858V147.496C317.245 145.027 325.038 133.287 322.562 121.224C320.451 110.861 311.318 103.412 300.684 103.412C288.344 103.412 278.359 113.371 278.359 125.677C278.359 136.283 285.827 145.391 296.219 147.496V231.817C296.178 245.419 285.097 256.47 271.458 256.429H261.717C248.078 256.429 236.997 245.419 236.956 231.817V212.427C243.329 219.349 252.3 223.276 261.717 223.276ZM287.289 125.677C287.289 118.309 293.296 112.318 300.684 112.318C308.071 112.318 314.078 118.309 314.078 125.677C314.078 133.044 308.112 138.995 300.684 139.035C293.296 139.035 287.289 133.044 287.289 125.677V125.677Z" fill="#B4BBBF"/>
<path d="M228.026 231.736V231.979C228.189 250.317 243.004 265.133 261.351 265.335C286.436 266.59 295.529 252.341 298.816 241.978C300.034 238.699 300.684 235.218 300.684 231.736V139.035C293.296 139.035 287.289 133.044 287.289 125.677C287.289 118.309 293.296 112.318 300.684 112.318V103.412C288.344 103.412 278.359 113.371 278.359 125.677C278.359 136.283 285.827 145.391 296.219 147.496V231.736C296.219 242.828 288.993 251.329 279.373 255.175C244.019 267.278 235.17 245.783 233.141 237.97C233.019 237.363 232.897 236.796 232.816 236.189C232.573 234.732 232.491 233.234 232.491 231.736V206.314C238.458 216.677 249.499 223.154 261.473 223.235H261.717C261.879 223.235 262.001 223.235 262.163 223.195C264.436 222.952 266.182 221.049 266.182 218.782H261.717C247.307 218.782 235.008 208.298 232.816 194.089C232.573 192.632 232.491 191.134 232.491 189.636V185.183C230.015 185.183 228.026 187.167 228.026 189.636V189.879C228.026 190.244 228.067 190.648 228.067 191.013H228.026V231.736V231.736Z" fill="#848B8F"/>
<path d="M296.259 39.4529V115.354C296.259 117.824 298.248 119.807 300.724 119.807C303.2 119.807 305.189 117.824 305.189 115.354V39.4529C305.189 36.9836 303.2 35 300.724 35C298.248 35 296.259 36.9836 296.259 39.4529Z" fill="#FFB959"/>
<path d="M296.219 51.9209V64.5104L305.189 55.6047V43.0152L296.219 51.9209Z" fill="#FDE7C6"/>
<path d="M296.219 74.9949V87.5844L305.189 78.6787V66.0892L296.219 74.9949Z" fill="#FDE7C6"/>
<path d="M296.219 97.6641V110.254L305.189 101.348V88.7584L296.219 97.6641Z" fill="#FDE7C6"/>
<path d="M273.482 315.203C273.494 312.028 259.257 309.4 241.682 309.333C224.106 309.266 209.849 311.785 209.837 314.959C209.824 318.134 224.062 320.762 241.637 320.829C259.213 320.897 273.47 318.378 273.482 315.203Z" fill="#F0F5FA"/>
<path d="M316.724 309.652C316.732 307.64 306.87 305.971 294.697 305.924C282.525 305.878 272.651 307.471 272.643 309.483C272.635 311.495 282.497 313.164 294.669 313.211C306.842 313.257 316.716 311.664 316.724 309.652Z" fill="#F0F5FA"/>
<path d="M197.854 308.418C197.863 306.316 187.729 304.574 175.22 304.526C162.711 304.478 152.564 306.143 152.556 308.244C152.548 310.346 162.681 312.088 175.19 312.136C187.699 312.184 197.846 310.519 197.854 308.418Z" fill="#F0F5FA"/>
<path d="M266.238 301.077C266.245 299.222 257.274 297.683 246.2 297.641C235.125 297.598 226.142 299.068 226.135 300.924C226.128 302.779 235.099 304.318 246.174 304.36C257.248 304.403 266.231 302.933 266.238 301.077Z" fill="#F0F5FA"/>
<path d="M207.433 290.031C207.442 287.639 193.783 285.648 176.925 285.583C160.068 285.519 146.394 287.406 146.385 289.798C146.376 292.19 160.034 294.181 176.892 294.246C193.75 294.311 207.423 292.424 207.433 290.031Z" fill="#F0F5FA"/>
<path d="M273.276 295.761C273.276 295.113 270.192 294.575 266.38 294.558C262.569 294.542 259.476 295.056 259.476 295.704C259.476 296.352 262.56 296.89 266.372 296.906C270.183 296.922 273.276 296.408 273.276 295.761Z" fill="#F0F5FA"/>
<path d="M267.022 307.447C267.022 306.82 264.01 306.302 260.288 306.29C256.566 306.273 253.55 306.771 253.546 307.399C253.546 308.026 256.558 308.544 260.28 308.557C264.002 308.573 267.018 308.075 267.022 307.447Z" fill="#F0F5FA"/>
<path d="M352.599 292.611C352.607 290.644 342.472 289.008 329.962 288.96C317.452 288.911 307.304 290.466 307.3 292.433C307.292 294.4 317.427 296.036 329.937 296.084C342.447 296.133 352.595 294.578 352.599 292.611Z" fill="#F0F5FA"/>
<path d="M196.33 298.38C196.334 297.218 190.667 296.254 183.673 296.226C176.68 296.198 171.005 297.121 171.001 298.282C170.997 299.444 176.663 300.408 183.657 300.436C190.651 300.464 196.325 299.541 196.33 298.38Z" fill="#F0F5FA"/>
<path d="M169.742 301.586C169.742 300.982 166.82 300.48 163.211 300.468C159.603 300.456 156.676 300.934 156.672 301.537C156.672 302.14 159.594 302.642 163.203 302.654C166.811 302.666 169.738 302.189 169.742 301.586Z" fill="#F0F5FA"/>
<path d="M228.392 296.866C228.396 295.704 222.73 294.74 215.736 294.712C208.742 294.684 203.068 295.607 203.063 296.768C203.059 297.93 208.726 298.894 215.72 298.922C222.713 298.95 228.388 298.027 228.392 296.866Z" fill="#F0F5FA"/>
<path d="M313.092 280.655C313.099 278.867 304.418 277.384 293.702 277.343C282.987 277.302 274.295 278.718 274.288 280.507C274.281 282.295 282.962 283.779 293.678 283.82C304.393 283.861 313.085 282.444 313.092 280.655Z" fill="#F0F5FA"/>
<path d="M231.521 279.933C231.525 278.39 224.064 277.111 214.85 277.075C205.636 277.038 198.163 278.261 198.155 279.803C198.151 281.345 205.612 282.625 214.826 282.661C224.04 282.697 231.513 281.475 231.521 279.933Z" fill="#F0F5FA"/>
<path d="M185.511 282.167C185.515 281.005 179.849 280.042 172.855 280.014C165.861 279.985 160.187 280.908 160.183 282.07C160.179 283.232 165.845 284.195 172.839 284.224C179.833 284.252 185.507 283.329 185.511 282.167Z" fill="#F0F5FA"/>
<path d="M169.016 296.028C169.016 295.4 166.004 294.882 162.282 294.87C158.56 294.854 155.544 295.352 155.54 295.979C155.54 296.607 158.552 297.125 162.274 297.137C165.996 297.153 169.012 296.655 169.016 296.028Z" fill="#F0F5FA"/>
<path d="M211.04 302.403C211.04 301.776 208.028 301.258 204.306 301.246C200.583 301.229 197.568 301.727 197.563 302.355C197.563 302.982 200.575 303.5 204.297 303.513C208.02 303.529 211.035 303.031 211.04 302.403Z" fill="#F0F5FA"/>
<path d="M222.315 292.441C222.315 291.814 219.303 291.295 215.581 291.283C211.859 291.267 208.843 291.765 208.839 292.392C208.835 293.02 211.851 293.538 215.573 293.55C219.295 293.566 222.311 293.068 222.315 292.441V292.441Z" fill="#F0F5FA"/>
<path d="M283.863 303.484C283.863 302.634 279.763 301.93 274.693 301.909C269.627 301.889 265.516 302.561 265.516 303.411C265.516 304.261 269.615 304.966 274.685 304.986C279.751 305.006 283.863 304.334 283.863 303.484Z" fill="#F0F5FA"/>
<path d="M318.47 301.202C318.476 299.793 311.665 298.625 303.259 298.593C294.852 298.561 288.033 299.677 288.027 301.085C288.022 302.494 294.832 303.662 303.239 303.694C311.645 303.726 318.465 302.61 318.47 301.202Z" fill="#F0F5FA"/>
<path d="M304.145 295.157C304.15 293.995 298.483 293.03 291.489 293.004C284.495 292.977 278.821 293.898 278.817 295.06C278.812 296.223 284.479 297.187 291.473 297.214C298.467 297.24 304.141 296.32 304.145 295.157Z" fill="#F0F5FA"/>
<path d="M257.89 286.419C257.897 284.697 249.525 283.27 239.19 283.23C228.856 283.191 220.473 284.554 220.466 286.275C220.459 287.997 228.832 289.425 239.166 289.464C249.501 289.504 257.884 288.14 257.89 286.419Z" fill="#F0F5FA"/>
<path d="M253.578 291.854C253.578 291.227 250.566 290.709 246.844 290.697C243.122 290.68 240.106 291.178 240.102 291.806C240.102 292.433 243.113 292.951 246.836 292.963C250.558 292.98 253.574 292.482 253.578 291.854Z" fill="#F0F5FA"/>
<path d="M201.877 284.329C201.877 283.701 198.866 283.183 195.143 283.171C191.421 283.155 188.405 283.653 188.401 284.28C188.401 284.907 191.413 285.426 195.135 285.438C198.858 285.454 201.873 284.956 201.877 284.329V284.329Z" fill="#F0F5FA"/>
<path d="M224.36 307.508C224.36 306.569 219.859 305.792 214.302 305.767C208.741 305.747 204.232 306.488 204.228 307.427C204.228 308.366 208.729 309.143 214.286 309.168C219.847 309.188 224.356 308.447 224.36 307.508Z" fill="#F0F5FA"/>
<path d="M250.12 279.763C250.12 279.135 247.108 278.617 243.386 278.605C239.663 278.589 236.648 279.087 236.644 279.714C236.644 280.342 239.655 280.86 243.378 280.872C247.1 280.888 250.116 280.39 250.12 279.763Z" fill="#F0F5FA"/>
<path d="M342.841 286.389C342.841 285.762 339.83 285.244 336.107 285.232C332.385 285.215 329.369 285.713 329.365 286.341C329.365 286.968 332.377 287.486 336.099 287.499C339.821 287.515 342.837 287.017 342.841 286.389Z" fill="#F0F5FA"/>
<path d="M247.883 295.331C247.883 294.684 244.798 294.145 240.986 294.129C237.175 294.113 234.082 294.627 234.082 295.275C234.082 295.922 237.167 296.461 240.978 296.477C244.79 296.493 247.883 295.979 247.883 295.331Z" fill="#F0F5FA"/>
<path d="M281.785 290.166C281.785 289.385 278.046 288.733 273.427 288.717C268.808 288.701 265.062 289.32 265.062 290.101C265.062 290.882 268.8 291.534 273.419 291.55C278.038 291.567 281.785 290.947 281.785 290.166Z" fill="#F0F5FA"/>
<path d="M305.871 288.591C305.875 287.539 301.682 286.673 296.503 286.652C291.323 286.632 287.122 287.47 287.118 288.519C287.114 289.571 291.307 290.437 296.486 290.458C301.666 290.478 305.867 289.64 305.871 288.591Z" fill="#F0F5FA"/>
<path d="M281.813 285.041C281.813 284.414 278.801 283.896 275.079 283.884C271.357 283.867 268.341 284.365 268.337 284.993C268.337 285.62 271.349 286.138 275.071 286.151C278.793 286.167 281.809 285.669 281.813 285.041Z" fill="#F0F5FA"/>
<path d="M267.711 281.264C267.711 280.637 264.7 280.119 260.977 280.107C257.255 280.091 254.239 280.588 254.235 281.216C254.235 281.843 257.247 282.362 260.969 282.374C264.691 282.39 267.707 281.892 267.711 281.264Z" fill="#F0F5FA"/>
<path d="M322.741 285.863C322.741 285.235 319.729 284.717 316.007 284.705C312.285 284.689 309.269 285.187 309.265 285.814C309.265 286.442 312.276 286.96 315.999 286.972C319.721 286.988 322.737 286.49 322.741 285.863Z" fill="#F0F5FA"/>
<path d="M332.043 281.904C332.043 281.277 329.032 280.758 325.309 280.746C321.587 280.73 318.571 281.228 318.567 281.856C318.567 282.483 321.579 283.001 325.301 283.013C329.024 283.029 332.039 282.532 332.043 281.904Z" fill="#F0F5FA"/>
<path d="M356.415 289.3C351.625 284.807 315.459 273.593 278.846 276.913C244.75 279.989 219.3 275.496 204.687 276.913C156.953 281.528 156.953 278.451 144.167 287.357C131.949 295.817 159.388 297.032 154.395 300.877C145.871 307.435 143.314 314.803 184.229 314.034C204.809 313.629 212.886 323.87 252.422 322.939C278.643 322.332 271.215 314.074 291.632 315.208C319.761 316.746 322.319 316.746 324.023 305.168C325.363 296.141 370.053 302.092 356.415 289.3V289.3Z" fill="#F0F5FA"/>
<path d="M243.288 320.592C260.886 320.592 275.152 318.09 275.152 315.005C275.152 311.92 260.886 309.419 243.288 309.419C225.691 309.419 211.425 311.92 211.425 315.005C211.425 318.09 225.691 320.592 243.288 320.592Z" fill="#E1E7F0"/>
<path d="M296.381 312.981C308.576 312.981 318.462 311.404 318.462 309.459C318.462 307.514 308.576 305.937 296.381 305.937C284.186 305.937 274.3 307.514 274.3 309.459C274.3 311.404 284.186 312.981 296.381 312.981Z" fill="#E1E7F0"/>
<path d="M176.679 312.374C189.211 312.374 199.37 310.725 199.37 308.69C199.37 306.656 189.211 305.006 176.679 305.006C164.148 305.006 153.989 306.656 153.989 308.69C153.989 310.725 164.148 312.374 176.679 312.374Z" fill="#E1E7F0"/>
<path d="M247.753 304.521C258.85 304.521 267.846 303.071 267.846 301.282C267.846 299.494 258.85 298.044 247.753 298.044C236.657 298.044 227.661 299.494 227.661 301.282C227.661 303.071 236.657 304.521 247.753 304.521Z" fill="#E1E7F0"/>
<path d="M178.303 295.008C195.183 295.008 208.868 293.123 208.868 290.798C208.868 288.472 195.183 286.588 178.303 286.588C161.423 286.588 147.738 288.472 147.738 290.798C147.738 293.123 161.423 295.008 178.303 295.008Z" fill="#E1E7F0"/>
<path d="M267.521 297.193C271.332 297.193 274.421 296.686 274.421 296.06C274.421 295.434 271.332 294.926 267.521 294.926C263.71 294.926 260.62 295.434 260.62 296.06C260.62 296.686 263.71 297.193 267.521 297.193Z" fill="#E1E7F0"/>
<path d="M261.473 308.569C265.195 308.569 268.211 308.079 268.211 307.476C268.211 306.872 265.195 306.383 261.473 306.383C257.752 306.383 254.735 306.872 254.735 307.476C254.735 308.079 257.752 308.569 261.473 308.569Z" fill="#E1E7F0"/>
<path d="M331.248 296.182C343.779 296.182 353.938 294.641 353.938 292.741C353.938 290.84 343.779 289.3 331.248 289.3C318.716 289.3 308.558 290.84 308.558 292.741C308.558 294.641 318.716 296.182 331.248 296.182Z" fill="#E1E7F0"/>
<path d="M185.082 300.999C192.099 300.999 197.787 300.075 197.787 298.934C197.787 297.794 192.099 296.87 185.082 296.87C178.065 296.87 172.377 297.794 172.377 298.934C172.377 300.075 178.065 300.999 185.082 300.999Z" fill="#E1E7F0"/>
<path d="M164.218 303.185C167.827 303.185 170.753 302.713 170.753 302.132C170.753 301.551 167.827 301.08 164.218 301.08C160.608 301.08 157.683 301.551 157.683 302.132C157.683 302.713 160.608 303.185 164.218 303.185Z" fill="#E1E7F0"/>
<path d="M217.229 299.38C224.246 299.38 229.934 298.455 229.934 297.315C229.934 296.175 224.246 295.251 217.229 295.251C210.213 295.251 204.524 296.175 204.524 297.315C204.524 298.455 210.213 299.38 217.229 299.38Z" fill="#E1E7F0"/>
<path d="M294.838 284.442C305.576 284.442 314.281 283.028 314.281 281.284C314.281 279.541 305.576 278.127 294.838 278.127C284.1 278.127 275.396 279.541 275.396 281.284C275.396 283.028 284.1 284.442 294.838 284.442Z" fill="#E1E7F0"/>
<path d="M216.255 283.592C225.491 283.592 232.978 282.378 232.978 280.88C232.978 279.382 225.491 278.168 216.255 278.168C207.019 278.168 199.531 279.382 199.531 280.88C199.531 282.378 207.019 283.592 216.255 283.592Z" fill="#E1E7F0"/>
<path d="M174.203 285.292C181.22 285.292 186.908 284.368 186.908 283.228C186.908 282.087 181.22 281.163 174.203 281.163C167.186 281.163 161.498 282.087 161.498 283.228C161.498 284.368 167.186 285.292 174.203 285.292Z" fill="#E1E7F0"/>
<path d="M163.203 297.841C166.924 297.841 169.941 297.352 169.941 296.748C169.941 296.145 166.924 295.655 163.203 295.655C159.482 295.655 156.465 296.145 156.465 296.748C156.465 297.352 159.482 297.841 163.203 297.841Z" fill="#E1E7F0"/>
<path d="M212.115 302.78C212.115 302.177 209.099 301.687 205.377 301.687C201.655 301.687 198.639 302.177 198.639 302.78C198.639 303.383 201.655 303.873 205.377 303.873C209.099 303.873 212.115 303.383 212.115 302.78Z" fill="#E1E7F0"/>
<path d="M223.805 293.065C223.805 292.461 220.789 291.972 217.067 291.972C213.345 291.972 210.329 292.461 210.329 293.065C210.329 293.668 213.345 294.157 217.067 294.157C220.789 294.157 223.805 293.668 223.805 293.065Z" fill="#E1E7F0"/>
<path d="M275.923 305.047C281.012 305.047 285.137 304.376 285.137 303.549C285.137 302.722 281.012 302.051 275.923 302.051C270.834 302.051 266.709 302.722 266.709 303.549C266.709 304.376 270.834 305.047 275.923 305.047Z" fill="#E1E7F0"/>
<path d="M304.539 303.67C312.968 303.67 319.801 302.565 319.801 301.201C319.801 299.837 312.968 298.732 304.539 298.732C296.11 298.732 289.277 299.837 289.277 301.201C289.277 302.565 296.11 303.67 304.539 303.67Z" fill="#E1E7F0"/>
<path d="M292.687 297.477C299.704 297.477 305.392 296.553 305.392 295.412C305.392 294.272 299.704 293.348 292.687 293.348C285.671 293.348 279.982 294.272 279.982 295.412C279.982 296.553 285.671 297.477 292.687 297.477Z" fill="#E1E7F0"/>
<path d="M240.244 290.109C250.601 290.109 258.997 288.75 258.997 287.073C258.997 285.397 250.601 284.037 240.244 284.037C229.887 284.037 221.491 285.397 221.491 287.073C221.491 288.75 229.887 290.109 240.244 290.109Z" fill="#E1E7F0"/>
<path d="M254.694 292.376C254.694 291.773 251.678 291.283 247.956 291.283C244.234 291.283 241.218 291.773 241.218 292.376C241.218 292.979 244.234 293.469 247.956 293.469C251.678 293.469 254.694 292.979 254.694 292.376Z" fill="#E1E7F0"/>
<path d="M202.86 285.252C202.86 284.649 199.844 284.159 196.122 284.159C192.4 284.159 189.384 284.649 189.384 285.252C189.384 285.855 192.4 286.345 196.122 286.345C199.844 286.345 202.86 285.855 202.86 285.252Z" fill="#E1E7F0"/>
<path d="M225.915 307.678C225.915 306.763 221.389 306.018 215.808 306.018C210.227 306.018 205.701 306.763 205.701 307.678C205.701 308.593 210.227 309.338 215.808 309.338C221.389 309.338 225.915 308.593 225.915 307.678Z" fill="#E1E7F0"/>
<path d="M244.425 281.73C248.146 281.73 251.163 281.24 251.163 280.637C251.163 280.033 248.146 279.544 244.425 279.544C240.703 279.544 237.687 280.033 237.687 280.637C237.687 281.24 240.703 281.73 244.425 281.73Z" fill="#E1E7F0"/>
<path d="M337.378 287.842C341.099 287.842 344.116 287.353 344.116 286.75C344.116 286.146 341.099 285.657 337.378 285.657C333.656 285.657 330.64 286.146 330.64 286.75C330.64 287.353 333.656 287.842 337.378 287.842Z" fill="#E1E7F0"/>
<path d="M248.971 295.777C248.971 295.149 245.882 294.643 242.07 294.643C238.259 294.643 235.17 295.149 235.17 295.777C235.17 296.404 238.259 296.91 242.07 296.91C245.882 296.91 248.971 296.404 248.971 295.777Z" fill="#E1E7F0"/>
<path d="M282.945 290.636C282.945 289.874 279.203 289.259 274.583 289.259C269.964 289.259 266.222 289.874 266.222 290.636C266.222 291.397 269.964 292.012 274.583 292.012C279.203 292.012 282.945 291.397 282.945 290.636Z" fill="#E1E7F0"/>
<path d="M297.68 290.838C302.881 290.838 307.097 290.023 307.097 289.016C307.097 288.01 302.881 287.195 297.68 287.195C292.479 287.195 288.263 288.01 288.263 289.016C288.263 290.023 292.479 290.838 297.68 290.838Z" fill="#E1E7F0"/>
<path d="M282.946 285.657C282.946 285.053 279.93 284.564 276.208 284.564C272.486 284.564 269.47 285.053 269.47 285.657C269.47 286.26 272.486 286.75 276.208 286.75C279.93 286.75 282.946 286.26 282.946 285.657Z" fill="#E1E7F0"/>
<path d="M268.779 282.013C268.779 281.41 265.763 280.92 262.041 280.92C258.319 280.92 255.303 281.41 255.303 282.013C255.303 282.616 258.319 283.106 262.041 283.106C265.763 283.106 268.779 282.616 268.779 282.013Z" fill="#E1E7F0"/>
<path d="M323.942 286.304C323.942 285.701 320.926 285.211 317.204 285.211C313.482 285.211 310.466 285.701 310.466 286.304C310.466 286.907 313.482 287.397 317.204 287.397C320.926 287.397 323.942 286.907 323.942 286.304Z" fill="#E1E7F0"/>
<path d="M326.499 283.511C330.22 283.511 333.237 283.022 333.237 282.418C333.237 281.814 330.22 281.325 326.499 281.325C322.777 281.325 319.761 281.814 319.761 282.418C319.761 283.022 322.777 283.511 326.499 283.511Z" fill="#E1E7F0"/>
<path d="M173.432 208.865C175.381 210.808 178.506 210.808 180.414 208.865C181.388 207.893 181.916 206.557 181.875 205.181C183.336 206.193 185.528 206.962 188.045 207.286C187.558 207.853 187.274 208.46 187.517 208.703C188.126 209.31 189.222 209.188 189.993 208.46C190.277 208.176 190.44 207.853 190.561 207.488H191.292C191.698 207.488 192.104 207.488 192.469 207.448C192.023 208.095 191.86 208.622 192.104 208.865C192.997 209.755 194.905 209.31 196.325 207.893C196.691 207.529 197.015 207.124 197.259 206.679C198.071 206.436 198.883 206.152 199.654 205.748C200.384 205.383 201.034 204.938 201.602 204.412L201.886 204.128C202.252 203.764 202.495 203.278 202.657 202.792C202.739 202.55 202.779 202.266 202.779 201.983C202.779 200.161 200.587 198.421 197.34 197.449C196.853 195.101 194.864 193.037 192.023 193.806C188.897 194.656 186.299 196.073 184.798 197.57C183.742 197.894 182.768 198.38 181.875 198.947C181.55 196.235 179.115 194.291 176.395 194.575C175.299 194.696 174.244 195.182 173.432 195.992C172.133 197.287 174.812 200.768 177.288 202.428C174.772 204.088 172.133 207.569 173.432 208.865V208.865Z" fill="#FDE7C6"/>
<path d="M201.764 153.163C204.768 156.159 209.598 156.159 212.602 153.163C214.104 151.665 214.916 149.601 214.834 147.455C217.108 148.994 220.477 150.168 224.373 150.734C223.643 151.625 223.156 152.556 223.521 152.92C224.454 153.851 226.159 153.689 227.336 152.516C227.742 152.111 228.067 151.584 228.229 151.018H229.366C229.975 151.018 230.584 151.018 231.192 150.977C230.543 151.989 230.218 152.799 230.584 153.204C231.964 154.58 234.886 153.892 237.119 151.665C237.687 151.099 238.174 150.491 238.539 149.803C239.798 149.439 241.056 148.953 242.233 148.386C243.329 147.86 244.344 147.132 245.237 146.322C245.399 146.16 245.521 146.039 245.643 145.877C246.17 145.269 246.617 144.581 246.86 143.812C246.982 143.407 247.063 143.003 247.063 142.557C247.104 139.602 243.776 136.93 238.742 135.433C238.012 131.83 234.927 128.632 230.543 129.806C225.713 131.101 221.654 133.287 219.34 135.635C217.716 136.121 216.215 136.849 214.794 137.781C214.307 133.571 210.532 130.575 206.31 131.061C204.565 131.263 202.982 132.032 201.764 133.247C199.775 135.23 203.875 140.655 207.731 143.205C203.875 145.755 199.775 151.18 201.764 153.163Z" fill="#FCE0D9"/>
<path d="M276.776 171.744C275.639 170.61 273.772 170.61 272.635 171.744C272.148 172.23 271.864 172.837 271.783 173.485C271.255 173.12 270.646 172.837 270.038 172.675C269.145 171.784 267.602 170.934 265.775 170.449C264.111 170.003 262.934 171.218 262.65 172.594C260.742 173.161 259.443 174.173 259.443 175.347C259.443 175.509 259.484 175.671 259.525 175.833C259.606 176.116 259.768 176.399 259.971 176.602L260.133 176.764C260.458 177.087 260.864 177.371 261.27 177.573C261.716 177.816 262.204 177.978 262.691 178.099C262.853 178.342 263.015 178.585 263.218 178.828C264.071 179.678 265.207 179.921 265.735 179.395C265.857 179.273 265.776 178.95 265.491 178.545H266.628C266.709 178.747 266.79 178.95 266.953 179.111C267.318 179.557 267.967 179.597 268.414 179.273C268.576 179.111 268.373 178.788 268.089 178.423C269.388 178.302 270.646 177.857 271.742 177.168C271.661 178.788 272.919 180.123 274.543 180.204C275.355 180.245 276.167 179.921 276.735 179.354C277.547 178.585 275.964 176.521 274.502 175.549C275.964 174.578 277.547 172.513 276.776 171.744V171.744Z" fill="#FDE7C6"/>
<path d="M356.131 231.129C356.243 231.129 356.334 231.038 356.334 230.927C356.334 230.815 356.243 230.724 356.131 230.724C356.019 230.724 355.928 230.815 355.928 230.927C355.928 231.038 356.019 231.129 356.131 231.129Z" fill="#E1E7F0"/>
<path d="M257.617 137.497C257.617 136.671 256.943 135.999 256.115 135.999C255.287 135.999 254.613 136.671 254.613 137.497C254.613 138.323 255.287 138.995 256.115 138.995C256.943 138.995 257.617 138.323 257.617 137.497Z" fill="#F8FAFD"/>
<path d="M251.812 118.836C251.812 118.253 251.341 117.783 250.757 117.783C250.172 117.783 249.701 118.253 249.701 118.836C249.701 119.418 250.172 119.888 250.757 119.888C251.341 119.888 251.812 119.418 251.812 118.836Z" fill="#F8FAFD"/>
<path d="M263.259 104.91C263.259 104.643 263.04 104.424 262.772 104.424C262.504 104.424 262.285 104.643 262.285 104.91C262.285 105.177 262.504 105.396 262.772 105.396C263.04 105.396 263.259 105.177 263.259 104.91Z" fill="#F8FAFD"/>
<path d="M251.934 107.38C251.934 107.088 251.699 106.853 251.407 106.853C251.114 106.853 250.879 107.088 250.879 107.38C250.879 107.671 251.114 107.906 251.407 107.906C251.699 107.906 251.934 107.671 251.934 107.38Z" fill="#F8FAFD"/>
<path d="M258.835 94.6279C258.835 94.47 258.709 94.3445 258.551 94.3445C258.392 94.3445 258.267 94.47 258.267 94.6279C258.267 94.7858 258.392 94.9113 258.551 94.9113C258.709 94.9113 258.835 94.7858 258.835 94.6279Z" fill="#F8FAFD"/>
<path d="M210.329 201.457C210.8 201.457 211.181 201.076 211.181 200.607C211.181 200.137 210.8 199.756 210.329 199.756C209.858 199.756 209.477 200.137 209.477 200.607C209.477 201.076 209.858 201.457 210.329 201.457Z" fill="#F8FAFD"/>
<path d="M207.244 190.446C207.58 190.446 207.852 190.174 207.852 189.839C207.852 189.503 207.58 189.232 207.244 189.232C206.907 189.232 206.635 189.503 206.635 189.839C206.635 190.174 206.907 190.446 207.244 190.446Z" fill="#F8FAFD"/>
<path d="M207.934 183.2C207.934 183.022 207.788 182.876 207.609 182.876C207.43 182.876 207.284 183.022 207.284 183.2C207.284 183.378 207.43 183.524 207.609 183.524C207.788 183.524 207.934 183.378 207.934 183.2Z" fill="#F8FAFD"/>
<path d="M211.749 175.994C211.839 175.994 211.912 175.922 211.912 175.832C211.912 175.743 211.839 175.67 211.749 175.67C211.66 175.67 211.587 175.743 211.587 175.832C211.587 175.922 211.66 175.994 211.749 175.994Z" fill="#F8FAFD"/>
<path d="M256.602 174.497C256.602 174.205 256.367 173.97 256.075 173.97C255.782 173.97 255.547 174.205 255.547 174.497C255.547 174.788 255.782 175.023 256.075 175.023C256.367 175.023 256.602 174.788 256.602 174.497Z" fill="#F8FAFD"/>
<path d="M257.616 168.303C257.616 168.101 257.454 167.939 257.251 167.939C257.048 167.939 256.886 168.101 256.886 168.303C256.886 168.506 257.048 168.667 257.251 168.667C257.454 168.667 257.616 168.506 257.616 168.303Z" fill="#F8FAFD"/>
<path d="M253.477 163.324C253.477 163.235 253.404 163.162 253.315 163.162C253.225 163.162 253.152 163.235 253.152 163.324C253.152 163.413 253.225 163.486 253.315 163.486C253.404 163.486 253.477 163.413 253.477 163.324Z" fill="#F8FAFD"/>
<path d="M257.171 164.133C257.171 164.02 257.081 163.931 256.968 163.931C256.854 163.931 256.765 164.02 256.765 164.133C256.765 164.247 256.854 164.336 256.968 164.336C257.081 164.336 257.171 164.247 257.171 164.133Z" fill="#F8FAFD"/>
<path d="M254.653 159.802C254.653 159.757 254.616 159.721 254.572 159.721C254.528 159.721 254.491 159.757 254.491 159.802C254.491 159.846 254.528 159.882 254.572 159.882C254.616 159.882 254.653 159.846 254.653 159.802Z" fill="#F8FAFD"/>
<path d="M219.34 135.595C227.661 133.166 235.17 134.178 238.62 135.392C238.823 134.178 236.997 130.737 234.155 129.725C230.779 128.522 225.695 131.015 222.181 133.368C220.967 134.181 220.152 134.785 219.34 135.595Z" fill="#ED7474"/>
<path d="M211.425 142.476C211.425 140.352 213.725 138.833 214.875 137.821C214.063 133.125 210.14 131.209 208.178 130.939C206.825 130.804 202.851 131.032 201.48 133.571C200.06 136.202 204.728 141.262 207.772 143.286C205.133 144.703 202.264 148.604 201.683 149.763C201.285 150.556 201.074 151.989 201.48 152.799C202.089 153.811 203.742 155.533 207.366 155.43C213.049 155.268 214.74 150.1 214.875 147.536C213.59 146.389 211.424 145.108 211.425 142.476Z" fill="#ED7474"/>
<path d="M238.513 145.6C239.266 146.351 239.33 148.212 238.417 149.965C238.074 150.625 237.563 151.222 236.997 151.787C235.989 152.912 234.522 153.644 233.196 153.875C232.272 154.035 231.241 154.017 230.822 153.6C230.681 153.458 230.467 153.19 230.408 152.996C230.38 152.904 230.381 152.757 230.395 152.603C230.49 151.528 232.109 149.751 233.673 148.191C235.744 146.126 237.902 144.99 238.513 145.6Z" fill="#ED7474"/>
<path d="M228.27 151.018C228.107 151.018 225.429 150.977 224.333 150.734C224.333 150.734 224.014 151.114 223.846 151.382C223.658 151.682 223.44 152.192 223.44 152.192C223.318 152.637 223.399 153.204 224.414 153.447C226.956 154.055 228.473 151.018 228.27 151.018Z" fill="#ED7474"/>
<path d="M184.838 197.571C190.264 195.821 195.161 196.55 197.411 197.425C197.543 196.55 196.352 194.072 194.499 193.343C192.297 192.477 188.982 194.272 186.691 195.967C185.899 196.552 185.367 196.987 184.838 197.571Z" fill="#F6BC6A"/>
<path d="M179.638 201.928C179.638 200.526 181.211 199.523 181.997 198.855C181.442 195.755 178.76 194.49 177.419 194.311C176.494 194.222 173.777 194.373 172.841 196.049C171.869 197.786 175.06 201.127 177.141 202.463C175.338 203.398 173.377 205.974 172.979 206.739C172.707 207.263 172.563 208.209 172.84 208.744C173.257 209.412 174.387 210.549 176.864 210.481C180.748 210.374 181.905 206.962 181.997 205.269C181.118 204.512 179.638 203.666 179.638 201.928Z" fill="#F6BC6A"/>
<path d="M197.457 203.779C197.965 204.297 198.009 205.583 197.392 206.795C197.16 207.25 196.814 207.663 196.432 208.053C195.751 208.83 194.759 209.336 193.863 209.496C193.239 209.606 192.542 209.594 192.26 209.306C192.164 209.208 192.02 209.023 191.98 208.889C191.961 208.825 191.962 208.723 191.971 208.617C192.035 207.874 193.129 206.646 194.186 205.569C195.585 204.142 197.043 203.357 197.457 203.779Z" fill="#F6BC6A"/>
<path d="M190.509 207.491C190.401 207.491 188.622 207.462 187.895 207.286C187.895 207.286 187.683 207.561 187.572 207.755C187.447 207.973 187.302 208.342 187.302 208.342C187.221 208.665 187.275 209.076 187.949 209.252C189.637 209.692 190.643 207.491 190.509 207.491Z" fill="#F6BC6A"/>
<path d="M269.997 172.634C266.846 171.68 264.003 172.078 262.697 172.555C262.62 172.078 263.311 170.726 264.387 170.328C265.666 169.856 267.591 170.835 268.921 171.76C269.381 172.079 269.69 172.316 269.997 172.634Z" fill="#F6BC6A"/>
<path d="M273.046 175.259C273.045 174.435 272.15 173.846 271.702 173.453C272.018 171.632 273.546 170.889 274.31 170.784C274.837 170.732 276.384 170.82 276.917 171.805C277.47 172.825 275.653 174.788 274.468 175.573C275.495 176.123 276.612 177.636 276.838 178.085C276.993 178.393 277.075 178.949 276.917 179.263C276.68 179.655 276.037 180.324 274.626 180.284C272.413 180.221 271.755 178.216 271.702 177.222C272.203 176.777 273.046 176.28 273.046 175.259Z" fill="#F6BC6A"/>
<path d="M262.457 176.15C262.156 176.456 262.143 177.23 262.528 177.967C262.672 178.244 262.885 178.496 263.119 178.735C263.537 179.211 264.14 179.527 264.681 179.632C265.058 179.706 265.478 179.706 265.645 179.536C265.702 179.478 265.787 179.368 265.809 179.288C265.82 179.25 265.819 179.188 265.812 179.124C265.765 178.676 265.093 177.924 264.445 177.264C263.588 176.389 262.701 175.901 262.457 176.15Z" fill="#F6BC6A"/>
<path d="M266.594 178.538C266.656 178.538 267.678 178.522 268.097 178.423C268.097 178.423 268.219 178.577 268.283 178.686C268.354 178.808 268.438 179.015 268.438 179.015C268.484 179.195 268.453 179.425 268.066 179.524C267.095 179.771 266.516 178.538 266.594 178.538Z" fill="#F6BC6A"/>
</g>
<defs>
<clipPath id="clip0_337_1338">
<rect width="218" height="288" fill="white" transform="translate(141 35)"/>
</clipPath>
</defs>
</svg>
