<svg xmlns="http://www.w3.org/2000/svg" xml:space="preserve" viewBox="0 0 717.333 949.333">
  <defs>
    <clipPath clipPathUnits="userSpaceOnUse" id="a">
      <path d="M4112 1062c3 11 5 22 5 33 6 63 28 196 106 211 43 9 83-28 106-66s38-82 73-110c36-28 86-32 130-19s143 60 115 72c-30 10-62 0-93-5s-67-5-88 18c47-11 93 22 121 60 21 29 77 60 81 99 6 60-80 77-114 36-27-34-51-71-70-111-60 35-125 68-179 110 30 59 72 125 138 148 89 31 213-13 306-21 47-4 117-22 161 3 37 21 50 66 63 106 16 51 134 335 44 359-64 17-89-157-99-194-15-58-38-117-87-152-12 19 4 43 18 61 24 29 17 82-30 70-62-15-22-101-54-136-13-14-33-18-51-20-45-6-261-42-286 10-11 22 65 84 79 101 33 41 61 87 73 138 14 57 11 125 56 162 33 27 81 27 116 51 48 33 57 98 62 156 5 53 9 109-16 156-14 27-47 47-72 18-32-39-28-134-25-181 2-20 2-40-2-59-11-38-92-106-135-91-27 10-25 40-21 63 12 71 17 144 14 216-2 44-16 98-59 106-32 6-62-19-80-45-41-59-54-134-35-204 22-79 83-145 97-226 9-54-5-107-26-156-9-19-70-170-105-134-4 6-6 13-5 20 4 48 88 162 27 200-21 13-48 1-65-16-59-56-52-158-13-223 27-45 25-83-8-126-49-64-127-174-217-178-5-1-11 0-16 3-11 7-9 24-5 36 34 102 124 178 182 266 37 57-39 8-55-7-5-5-62-64-60-68-32 61-17 136 37 180 18 14 40 24 56 41 25 27 31 67 29 103-2 46-14 121-50 152-20-36-30-77-29-118 0-27 4-55-5-82-6-20-21-36-41-42-66-16-70 121-74 160-5 49 0 118 59 132 14 3 29 3 42 10 57 30 43 185 39 237-2 22-7 48-31 55-59 17-78-77-78-116 0-35 9-147-50-148-20 0-34 19-41 38-23 60-10 127-5 192 3 42-15 94-30 132-18 46-73 103-76 10-3-96 22-195 0-290-8-35-42-69-77-60-25 6-41 31-46 56s0 51 2 77c2 22 5 78-17 91-72 42-82-138-74-168 15-53 52-97 102-119 44-19 97-22 131-57 14-15 24-33 31-52 26-60 121-317 31-354-15-6-31-2-47 3-55 16-110 32-164 48-15 3-29 10-39 21-21 28-2 74 6 103 9 33 15 67 18 100 1 17 3 72-12 82-40 26-37-71-38-88-2-38 2-121-49-127-35-4-43 36-41 63 3 38 63 245-26 232-22-3-39-24-45-46-13-47 9-97 13-144 3-41-5-82-5-124-1-15 2-30 9-43 24-42 84-30 124-42 47-14 92-33 134-58 49-29 165-88 130-161-20-42-57-63-52-116 2-25 13-49 10-74-3-24-19-45-30-67-14-30-19-64-13-96 18 9 41 18 59 8 9-6 16-14 21-24 28-38 167-124 199-54 0 1 0 3 1 4z"/>
    </clipPath>
    <clipPath clipPathUnits="userSpaceOnUse" id="b">
      <path d="M0 0h5380v7120H0Z"/>
    </clipPath>
    <clipPath clipPathUnits="userSpaceOnUse" id="c">
      <path d="M1467 1087c-5 11-12 21-19 31-40 56-117 182-64 251 30 38 88 37 134 22s91-41 139-38c50 2 94 35 121 77s75 152 43 142c-32-13-51-44-73-71s-52-53-86-48c47 24 61 85 57 137-3 39 20 105-4 139-38 54-121 6-120-52 2-48 9-95 22-141-74-14-152-33-227-38-18 70-31 155 7 221 51 89 185 143 268 201 42 30 112 66 131 118 15 43-6 90-24 133-23 53-130 372-222 328-65-32 39-194 58-231 29-58 53-124 37-187-24 7-28 38-29 63-1 41-45 79-75 37-40-57 55-99 53-152-1-21-14-38-28-54-32-37-185-222-243-197-24 10-6 116-7 140-2 58-12 115-39 167-30 57-80 111-69 174 8 46 48 80 59 125 16 61-23 122-60 173-34 47-71 96-125 117-31 12-73 5-72-37 1-55 73-131 109-167 16-15 30-32 40-51 19-39 0-154-47-172-29-11-49 15-62 37-41 68-89 131-143 188-33 35-83 70-125 45-31-18-37-60-34-95 9-78 52-149 117-193 75-50 173-60 242-117 46-38 73-91 90-147 7-22 64-190 10-186-8 2-15 6-19 13-32 42-43 197-121 184-26-4-40-34-43-60-8-88 70-168 149-194 54-18 80-50 84-110 5-88 20-235-51-302-4-4-9-7-15-9-14-2-25 13-30 26-45 109-25 235-41 350-10 73-39-21-40-45 0-8-6-97-1-99-70 28-111 101-99 175 5 25 16 49 17 74 2 40-22 77-50 106-35 37-98 89-150 90 9-44 30-85 60-118 19-22 43-43 55-71 10-21 9-45-3-64-44-61-144 49-175 79-39 37-84 97-46 151 9 13 22 23 28 38 25 66-97 183-137 223-17 17-40 35-65 23-60-28-9-120 18-152 25-29 113-114 64-158-16-15-42-9-61 1-62 33-99 98-141 155-27 37-80 67-119 88-47 25-134 33-69-46 66-82 158-145 208-240 19-35 15-87-20-105-25-13-56-4-78 14s-37 42-53 65c-14 20-51 68-80 63-89-17 31-173 59-192 50-33 112-43 170-25 50 15 96 51 149 47 22-3 43-10 63-20 64-31 327-175 279-270-8-16-25-24-40-31-56-26-113-52-170-78-15-7-31-14-48-10-37 8-54 60-69 89-17 33-36 65-57 96-11 15-49 62-69 59-51-7 21-85 32-100 26-32 88-99 50-140-26-28-61-1-79 22-25 33-123 248-188 173-16-19-15-48-4-70 23-48 77-74 114-110 32-32 55-72 85-105 10-13 23-23 38-29 50-17 91 35 133 54 49 22 100 38 152 48 61 11 199 46 223-40 13-49-2-93 40-133 20-19 46-31 62-54 15-22 16-51 23-77 10-35 30-66 59-89 9 21 20 44 42 49 12 1 23 0 35-4 51-11 226 17 203 98-2 1-3 3-3 5z"/>
    </clipPath>
    <clipPath clipPathUnits="userSpaceOnUse" id="d">
      <path d="M0 0h5380v7120H0Z"/>
    </clipPath>
    <clipPath clipPathUnits="userSpaceOnUse" id="e">
      <path d="M2359 2385c-35-104-60-340 212-694 0 0 482-606 38-1079 60 64 66 247 68 327 6 323-253 496-389 760-116 226-152 495 39 692 19 20 46 35 32-6z"/>
    </clipPath>
    <clipPath clipPathUnits="userSpaceOnUse" id="f">
      <path d="M0 0h5380v7120H0Z"/>
    </clipPath>
    <clipPath clipPathUnits="userSpaceOnUse" id="g">
      <path d="M2002 1964c-9-105 28-302 396-404 0 0 653-166 314-818 46 89 5 235-13 298-76 256-388 226-595 346-177 102-283 289-136 565 13 27 37 55 34 13z"/>
    </clipPath>
    <clipPath clipPathUnits="userSpaceOnUse" id="h">
      <path d="M0 0h5380v7120H0Z"/>
    </clipPath>
    <clipPath clipPathUnits="userSpaceOnUse" id="i">
      <path d="M2398 3372c82-106 218-373 150-931 0 0-187-986 438-1319-85 45-125 280-165 373-163 380-17 718-25 1101-7 327-106 665-371 801-28 13-60 17-27-25z"/>
    </clipPath>
    <clipPath clipPathUnits="userSpaceOnUse" id="j">
      <path d="M0 0h5380v7120H0Z"/>
    </clipPath>
    <clipPath clipPathUnits="userSpaceOnUse" id="k">
      <path d="M2841 3038c71-100 172-339 19-804 0 0-222-636 153-1020 48-49-72-188-3-226-83 47 26 332-2 416-115 339 88 612 135 938 41 278-14 575-273 717-25 13-57 19-29-21z"/>
    </clipPath>
    <clipPath clipPathUnits="userSpaceOnUse" id="l">
      <path d="M0 0h5380v7120H0Z"/>
    </clipPath>
    <clipPath clipPathUnits="userSpaceOnUse" id="m">
      <path d="M3227 2429c43-102 83-335-178-711 0 0-426-405-256-805 35-83 0-181 85-256-67 59 102 214 95 294-26 323 246 524 371 799 107 235 128 507-84 688-20 18-50 31-33-9z"/>
    </clipPath>
    <clipPath clipPathUnits="userSpaceOnUse" id="n">
      <path d="M0 0h5380v7120H0Z"/>
    </clipPath>
    <clipPath clipPathUnits="userSpaceOnUse" id="o">
      <path d="M2796 4432c62.41 0 113 50.59 113 113s-50.59 113-113 113-113-50.59-113-113 50.59-113 113-113z"/>
    </clipPath>
    <clipPath clipPathUnits="userSpaceOnUse" id="p">
      <path d="M0 0h5380v7120H0Z"/>
    </clipPath>
    <clipPath clipPathUnits="userSpaceOnUse" id="q">
      <path d="M2692 4934c41.42 0 75 33.58 75 75s-33.58 75-75 75-75-33.58-75-75 33.58-75 75-75z"/>
    </clipPath>
    <clipPath clipPathUnits="userSpaceOnUse" id="r">
      <path d="M0 0h5380v7120H0Z"/>
    </clipPath>
    <clipPath clipPathUnits="userSpaceOnUse" id="s">
      <path d="M2976 5313c30.38 0 55 24.63 55 55 0 30.38-24.62 55-55 55-30.37 0-55-24.62-55-55 0-30.37 24.63-55 55-55z"/>
    </clipPath>
    <clipPath clipPathUnits="userSpaceOnUse" id="t">
      <path d="M0 0h5380v7120H0Z"/>
    </clipPath>
    <clipPath clipPathUnits="userSpaceOnUse" id="u">
      <path d="M2707 5283c21.54 0 39 17.46 39 39s-17.46 39-39 39-39-17.46-39-39 17.46-39 39-39z"/>
    </clipPath>
    <clipPath clipPathUnits="userSpaceOnUse" id="v">
      <path d="M0 0h5380v7120H0Z"/>
    </clipPath>
    <clipPath clipPathUnits="userSpaceOnUse" id="w">
      <path d="M2879 5601c18.23 0 33 14.77 33 33s-14.77 33-33 33-33-14.77-33-33 14.77-33 33-33z"/>
    </clipPath>
    <clipPath clipPathUnits="userSpaceOnUse" id="x">
      <path d="M0 0h5380v7120H0Z"/>
    </clipPath>
    <clipPath clipPathUnits="userSpaceOnUse" id="y">
      <path d="M2822 3621c21.54 0 39 17.46 39 39s-17.46 39-39 39-39-17.46-39-39 17.46-39 39-39z"/>
    </clipPath>
    <clipPath clipPathUnits="userSpaceOnUse" id="z">
      <path d="M0 0h5380v7120H0Z"/>
    </clipPath>
    <clipPath clipPathUnits="userSpaceOnUse" id="A">
      <path d="M2858 3793c14.36 0 26 11.64 26 26s-11.64 26-26 26-26-11.64-26-26 11.64-26 26-26z"/>
    </clipPath>
    <clipPath clipPathUnits="userSpaceOnUse" id="B">
      <path d="M0 0h5380v7120H0Z"/>
    </clipPath>
    <clipPath clipPathUnits="userSpaceOnUse" id="C">
      <path d="M2761 3922c10.49 0 19 8.51 19 19s-8.51 19-19 19-19-8.51-19-19 8.51-19 19-19z"/>
    </clipPath>
    <clipPath clipPathUnits="userSpaceOnUse" id="D">
      <path d="M0 0h5380v7120H0Z"/>
    </clipPath>
    <clipPath clipPathUnits="userSpaceOnUse" id="E">
      <path d="M2853 3913c7.18 0 13 5.82 13 13s-5.82 13-13 13-13-5.82-13-13 5.82-13 13-13z"/>
    </clipPath>
    <clipPath clipPathUnits="userSpaceOnUse" id="F">
      <path d="M0 0h5380v7120H0Z"/>
    </clipPath>
    <clipPath clipPathUnits="userSpaceOnUse" id="G">
      <path d="M2794 4021c6.07 0 11 4.93 11 11s-4.93 11-11 11-11-4.93-11-11 4.93-11 11-11z"/>
    </clipPath>
    <clipPath clipPathUnits="userSpaceOnUse" id="H">
      <path d="M0 0h5380v7120H0Z"/>
    </clipPath>
    <clipPath clipPathUnits="userSpaceOnUse" id="I">
      <path d="M1686 2939c35.9 0 65 29.1 65 65s-29.1 65-65 65-65-29.1-65-65 29.1-65 65-65z"/>
    </clipPath>
    <clipPath clipPathUnits="userSpaceOnUse" id="J">
      <path d="M0 0h5380v7120H0Z"/>
    </clipPath>
    <clipPath clipPathUnits="userSpaceOnUse" id="K">
      <path d="M1625 3229c23.75 0 43 19.25 43 43s-19.25 43-43 43-43-19.25-43-43 19.25-43 43-43z"/>
    </clipPath>
    <clipPath clipPathUnits="userSpaceOnUse" id="L">
      <path d="M0 0h5380v7120H0Z"/>
    </clipPath>
    <clipPath clipPathUnits="userSpaceOnUse" id="M">
      <path d="M1789 3448c17.67 0 32 14.33 32 32s-14.33 32-32 32-32-14.33-32-32 14.33-32 32-32z"/>
    </clipPath>
    <clipPath clipPathUnits="userSpaceOnUse" id="N">
      <path d="M0 0h5380v7120H0Z"/>
    </clipPath>
    <clipPath clipPathUnits="userSpaceOnUse" id="O">
      <path d="M1634 3430c12.7 0 23 10.3 23 23s-10.3 23-23 23-23-10.3-23-23 10.3-23 23-23z"/>
    </clipPath>
    <clipPath clipPathUnits="userSpaceOnUse" id="P">
      <path d="M0 0h5380v7120H0Z"/>
    </clipPath>
    <clipPath clipPathUnits="userSpaceOnUse" id="Q">
      <path d="M1734 3614c10.49 0 19 8.51 19 19s-8.51 19-19 19-19-8.51-19-19 8.51-19 19-19z"/>
    </clipPath>
    <clipPath clipPathUnits="userSpaceOnUse" id="R">
      <path d="M0 0h5380v7120H0Z"/>
    </clipPath>
    <clipPath clipPathUnits="userSpaceOnUse" id="S">
      <path d="M3687 1143c1 4 2 7 4 11 3 9 5 17 6 26 2 9 0 19-7 26-9 5-21 4-29-3s-17-12-27-15c-11-2-22 2-29 10-8 7-24 28-16 27 7-1 26-14 19-11-2 1-1 5 6 8-7-3 0 0-2 4-4 10-7 21-10 31-1 3-2 7 1 10l6 3c5 2 11 2 16-1 6-4 6-12 7-18 0-2 2-22 2-22 15 0 29 1 43 3 3 0 6 2 6 5v2c0 14-4 28-13 39-10 10-26 13-39 17-14 4-27 9-40 15-18 8-28 15-23 35 4 17 8 33 12 50 2 11 5 22 9 32 7 12 13 1 13-8 0-14-1-28-4-41-1-6-10-34 0-36 2 0 3 1 3 3 1 7-4 14 0 20 3 4 8 5 11 2l1-1c12-11-7-25-1-36 3-6 11-10 17-14 8-5 16-10 24-14 6-3 18-11 25-9s-2 26-4 31c-3 12-4 24-1 36s11 23 8 35c-3 11-13 17-19 26-14 20 4 51 16 67 2 3 5 6 8 8 9 5 14-4 14-12-1-10-4-20-9-29s-11-16-9-26c2-7 14-35 25-26 18 14 18 43 29 62 2 4 5 7 9 9 14 7 23-8 24-20 1-14-3-29-12-40-9-10-19-19-31-27-11-8-20-18-26-31-3-10-3-20-2-30 0-7 1-14 1-22 0-4 3-8 7-5 10 6 5 25 7 34 2 6 6 12 12 12 5 0 9-3 10-8 7-17-5-39-19-49-12-8-4-16-1-31 4-18-2-35 7-51 3-5 8-10 13-7 2 2 3 4 3 7 0 14-3 28-7 41-3 10 11 17 11 8 0-1 0-2 1-3 4-5 17 25 16 30-1 9-8 14-11 22s-2 17 2 25c5 9 11 17 19 24 11 11 10-3 7-11-3-10-14-23-12-35 1-13 15-11 21-4 5 5 9 11 13 17 5 6 8 13 9 21 1 5 0 11-3 16-3 4-9 6-9 12 0 3 1 7 2 9l18 43c1 3 3 6 6 7 10 3 14-16 13-22-3-8-8-16-13-24-3-7-4-22 6-24 7-2 13 6 16 11 6 9 10 18 13 28 4 12 5 24 16 31 5 4 21 9 24 0 0-6-1-13-5-18-6-12-13-24-21-36-5-7-13-16-11-25 2-8 19-13 25-10s8 13 10 18c3 8 7 15 11 22 9 12 12-15 12-20-1-10-6-19-13-27-12-11-30-14-45-8-10 5-21 3-28-6-17-16-32-34-45-54-3-5-6-12-4-18 3-4 7-6 11-6l38-7c4-1 8-1 12 0 8 3 7 18 10 25 4 11 9 21 14 31 1 2 3 5 5 4 1 0 2-2 3-3 1-3 1-7-1-10-2-8-5-15-8-23-2-4-3-8-3-12 2-12 15-5 18 2 7 15 7 33 19 45 2 2 5 4 9 4 5-1 8-7 8-13-2-20-25-32-30-52-2-7-3-16-10-17-3 0-5 0-8 1-17 6-35 8-54 7-12-1-28 0-38-8-14-10 1-28-7-42-3-5-7-8-10-13-2-6-2-13-2-20-2-7-4-14-8-21-2 3-5 6-9 8-6 2-7-2-11-4-6-2-12-3-18-2-7 0-24 2-28 8 3 10 3 13 3 15z"/>
    </clipPath>
    <clipPath clipPathUnits="userSpaceOnUse" id="T">
      <path d="M0 0h5380v7120H0Z"/>
    </clipPath>
    <clipPath clipPathUnits="userSpaceOnUse" id="U">
      <path d="M1472 1153c2 8 5 15 8 23 6 18 10 36 12 55s1 42-14 54c-17 13-42 6-61-5s-35-28-56-32c-23-3-45 4-61 20-16 15-49 58-34 57 15-2 53-30 40-23-4 2-2 10 12 16-15-6 0-1-3 8-8 21-15 43-20 65-2 7-3 15 3 20 4 3 8 5 12 6 11 4 23 4 33-2 12-8 12-24 14-37 0-4 5-46 4-46 30 0 61 3 91 7 7 0 12 4 13 11 0 2 0 3-1 5-2 28-7 61-27 81s-54 28-81 36c-28 9-56 20-84 32-37 16-58 31-48 74 7 35 16 69 25 104 6 22 9 46 20 66 14 25 28 3 28-17 0-29-2-58-8-86-3-12-20-71 1-75 3 0 6 2 7 5 3 14-8 29 0 43 5 8 16 10 24 5l2-2c25-22-14-52-2-76 6-13 24-22 35-29 16-11 33-21 51-29 12-6 38-22 53-18s-5 53-8 64c-7 25-8 51-2 76 7 24 22 48 16 72-6 22-27 35-40 54-29 43 8 106 34 141 4 6 10 12 16 16 19 11 29-8 28-25-2-21-9-42-20-61-10-18-24-33-19-54 4-15 29-73 51-55 38 30 37 90 60 130 4 8 11 15 19 20 28 15 47-17 50-41 2-30-7-60-25-83-17-23-41-38-64-56s-45-37-54-64c-6-20-7-42-5-63l3-45c1-8 6-16 15-10 20 13 10 52 16 72 3 13 12 26 25 26 10-1 18-7 21-16 16-36-10-82-40-102-25-18-8-34-2-65 8-38-4-72 15-106 6-10 18-22 27-14 4 4 6 9 5 15 1 30-7 58-14 87-5 22 22 36 24 16 0-2 1-4 2-6 8-10 35 52 34 63-1 18-16 30-23 46-5 18-4 36 5 53 10 19 24 36 40 51 23 23 20-6 15-22-7-22-29-49-26-72 3-26 30-23 44-8 10 11 19 23 27 35 9 13 16 28 18 43 2 11-1 23-7 32s-18 12-19 24c0 7 2 14 5 20l37 91c3 6 6 13 12 15 22 7 30-32 27-46-4-18-19-33-27-50-6-14-8-46 12-51 15-3 27 12 34 22 12 18 22 38 28 59 8 24 10 50 33 65 11 8 44 20 49 1 3-11-5-28-10-38-12-26-27-51-43-74-9-14-26-34-22-53 4-16 39-28 52-21 13 6 16 26 21 38 6 16 14 31 24 45 19 25 26-32 24-43-3-21-13-41-28-55-26-23-62-29-94-16-24 10-40 6-59-12-36-33-68-71-93-113-6-10-14-26-7-37 6-7 15-12 24-12l80-15c8-2 16-2 24 0 16 7 15 38 20 53 8 23 18 44 30 66 2 5 6 10 11 9 3-1 5-3 6-6 2-7 1-14-1-21-5-16-11-32-18-47-4-8-6-17-6-26 4-26 31-11 38 4 15 31 14 70 39 94 4 5 11 8 18 8 11-1 17-15 16-27-3-42-52-68-63-109-4-14-7-33-21-36-5 0-11 1-16 3-36 12-74 18-112 15-26-2-58 0-80-17-28-22 2-59-15-87-6-9-15-16-20-26-7-13-2-27-3-41-4-15-9-30-16-45-5 7-11 13-18 17-12 5-14-4-23-7-12-4-24-5-37-4-15 1-49 3-58 18-4-1-4 4-4 8z"/>
    </clipPath>
    <clipPath clipPathUnits="userSpaceOnUse" id="V">
      <path d="M0 0h5380v7120H0Z"/>
    </clipPath>
    <clipPath clipPathUnits="userSpaceOnUse" id="W">
      <path d="M2194 1065c-1 4-2 7-4 11-3 9-5 17-6 26-2 9 0 19 7 26 9 5 21 4 29-3s17-12 27-15c11-2 22 2 29 10 8 7 24 28 16 27-7-1-26-14-19-11 2 1 1 5-6 8 7-3 0 0 2 4 4 10 7 21 10 31 1 3 2 7-1 10l-6 3c-5 2-11 2-16-1-6-4-6-12-7-18 0-2-2-22-2-22-15 0-29 1-43 3-3 0-6 2-6 5v2c0 14 4 28 13 39 10 10 26 13 39 17 14 4 27 9 40 15 18 8 28 15 23 35-4 17-8 33-12 50-2 11-5 22-9 32-7 12-13 1-13-8 0-14 1-28 4-41 1-6 10-34 0-36-2 0-3 1-3 3-1 7 4 14 0 20-3 4-8 5-11 2l-1-1c-12-11 7-25 1-36-3-6-11-10-17-14-8-5-16-10-24-14-6-3-18-11-25-9s2 26 4 31c3 12 4 24 1 36s-11 23-8 35c3 11 13 17 19 26 14 20-4 51-16 67-2 3-5 6-8 8-9 5-14-4-14-12 1-10 4-20 9-29s11-16 9-26c-2-7-14-35-24-26-18 14-18 43-29 62-2 4-5 7-9 9-14 7-23-8-24-20-1-14 3-29 12-40 9-10 19-19 31-27 11-8 20-18 26-31 3-10 3-20 2-30 0-7-1-14-1-22 0-4-3-8-7-5-10 6-5 25-7 34-2 6-6 12-12 12-5 0-9-3-10-8-7-17 5-39 19-49 12-8 4-16 1-31-4-18 2-35-7-51-3-5-8-10-13-7-2 2-3 4-3 7 0 14 3 28 7 41 3 10-11 17-11 8 0-1 0-2-1-3-4-5-17 25-16 30 1 9 8 14 11 22s2 17-2 25c-5 9-11 17-19 24-11 11-10-3-7-11 3-10 14-23 12-35-1-13-15-11-21-4-5 5-9 11-13 17-5 6-8 13-9 21-1 5 0 11 3 16 3 4 9 6 9 12 0 3-1 7-2 10l-18 43c-1 3-3 6-6 7-10 3-14-16-13-22 3-8 8-16 13-24 3-7 4-22-6-24-7-2-13 6-16 11-6 9-10 18-13 28-4 12-5 24-16 31-5 4-21 9-24 0 0-6 1-13 5-18 6-12 13-24 21-36 5-7 13-16 11-25-2-8-19-13-25-10s-8 13-10 18c-3 8-7 15-11 22-9 12-12-15-12-20 1-10 6-19 13-27 12-11 30-14 45-8 10 5 21 3 28-6 17-16 32-34 45-54 3-5 6-12 4-18-3-4-7-6-11-6l-38-7c-4-1-8-1-12 0-8 3-7 18-10 25-4 11-9 21-14 31-1 2-3 5-5 4-1 0-2-2-3-3-1-3-1-7 1-10 2-8 5-15 8-23 2-4 3-8 3-12-2-12-15-5-18 2-7 15-7 33-19 45-2 2-5 4-9 4-5-1-8-7-8-13 2-20 25-32 30-52 2-7 3-16 10-17 3 0 5 0 8 1 17 6 35 8 54 7 12-1 28 0 38-8 14-10-1-28 7-42 3-5 7-8 10-13 2-6 2-13 2-20 2-7 4-14 8-21 2 3 5 6 9 8 6 2 7-2 11-4 6-2 12-3 18-2 7 0 24 2 28 8-4 10-4 12-4 14z"/>
    </clipPath>
    <clipPath clipPathUnits="userSpaceOnUse" id="X">
      <path d="M0 0h5380v7120H0Z"/>
    </clipPath>
    <clipPath clipPathUnits="userSpaceOnUse" id="Y">
      <path d="M942 1055c-2 6-4 11-6 17-4 13-7 27-8 40-2 14-1 31 10 39 12 10 31 5 44-4s26-20 41-23c16-2 33 3 45 15 12 11 36 42 25 42-11-2-39-22-29-17 3 1 2 7-9 12 11-4 0-1 2 6 6 16 11 32 15 48 1 5 2 11-2 15-3 2-6 3-9 4-8 3-17 3-24-1-8-6-9-18-10-27 0-3-3-34-3-34-22 0-44 2-66 5-5 0-9 3-9 8 0 1 0 2 1 4 2 20 5 44 20 59s40 20 59 27c21 7 41 14 61 23 27 12 42 23 35 54-5 25-12 51-18 76-3 17-8 33-14 48-10 18-20 2-20-12 0-21 2-42 6-63 2-9 15-52-1-55-2 0-5 1-5 4-2 10 6 21 0 31-4 6-12 7-17 3-1 0-1-1-2-1-18-16 10-38 1-55-4-9-17-16-25-21-12-8-24-15-37-21-9-4-28-16-38-13-11 3 4 39 6 47 5 18 6 37 2 55-5 18-16 35-11 53 5 16 20 26 29 39 21 31-6 77-25 103-3 5-7 9-12 12-14 8-21-6-21-18 2-16 6-31 14-44 7-13 18-24 14-40-3-11-21-53-37-40-28 22-27 66-44 95-3 6-8 11-14 14-21 11-35-13-36-30-1-22 5-43 18-61 14-16 29-29 47-40 17-11 31-28 39-47 4-15 5-31 3-46-1-11-1-22-2-33 0-6-5-12-11-7-15 10-8 38-11 52-2 9-9 19-18 19-7-1-13-5-16-12-11-26 8-59 29-74 18-13 6-25 1-48-6-28 3-53-11-78-4-7-13-16-20-10-3 3-4 7-4 11 0 21 4 43 10 63 4 16-16 26-17 12 0-2 0-3-1-4-6-7-26 38-25 46 1 13 12 22 17 34 4 13 3 27-3 38-8 14-17 26-29 37-17 17-15-4-11-16 5-16 21-35 19-53-2-19-22-17-32-6-7 8-14 16-20 25-7 9-11 20-13 32-1 8 1 17 5 24 5 7 13 9 14 18 0 5-1 10-4 14l-27 66c-2 5-4 10-9 11-16 5-22-24-20-34 3-13 14-24 20-36 5-10 6-34-9-37-11-3-20 9-25 16-9 13-16 28-21 43-6 18-7 36-24 48-8 6-32 14-36 1-2-8 4-20 7-27 9-19 19-37 31-54 7-10 19-25 16-39-3-12-28-20-38-15-9 5-12 19-16 28-4 12-10 23-17 33-14 18-19-23-18-31 2-15 9-30 21-40 19-17 45-21 68-12 17 7 29 5 43-9 26-24 49-52 68-82 4-7 10-19 5-27-4-5-11-9-17-9l-58-11c-6-2-12-2-18 0-12 5-11 28-15 39-6 16-13 32-22 48-2 3-4 7-8 6-2-1-4-3-4-5-1-5-1-10 1-15 4-12 8-23 13-35 3-6 5-12 4-19-3-19-23-8-28 3-11 22-11 51-28 68-3 4-8 6-13 6-8-1-12-11-12-20 2-31 38-49 46-79 3-10 5-24 15-26 4 0 8 0 12 2 26 9 54 13 82 11 19-1 42 0 58-12 21-16-1-43 11-63 4-7 11-12 15-19 5-10 2-20 2-30 3-11 7-22 11-33 3 5 8 9 13 12 9 4 10-3 17-5 9-3 18-4 27-3 11 1 36 2 42 13 3-2 4 1 3 4z"/>
    </clipPath>
    <clipPath clipPathUnits="userSpaceOnUse" id="Z">
      <path d="M0 0h5380v7120H0Z"/>
    </clipPath>
    <clipPath clipPathUnits="userSpaceOnUse" id="aa">
      <path d="M4345 1045c-2 7-4 13-7 19-5 15-8 31-10 47s-1 35 12 46c14 11 36 5 51-4s30-23 48-27c19-3 38 4 52 17s42 49 29 48c-13-2-45-25-33-19 3 2 2 9-10 13 13-5 0-1 3 7 7 18 12 37 17 55 1 6 3 12-2 17-3 2-7 4-10 5-9 4-19 3-28-2-10-7-10-21-11-31 0-3-4-39-3-39-26 0-51 2-76 6-6 0-10 4-11 9 0 1 0 3 1 4 2 23 6 51 23 69 17 17 46 24 68 31 24 8 48 17 71 27 31 14 49 26 41 62-6 29-13 59-21 88-5 19-7 39-17 56-12 21-23 2-23-14 0-24 2-49 7-72 2-10 17-60-1-64-3 0-5 2-6 5-3 12 7 25 0 36-4 7-13 8-20 4-1 0-1-1-2-1-21-19 12-43 1-64-5-11-20-18-29-24-14-9-28-17-43-24-11-5-32-19-44-15s4 45 6 54c6 21 6 43 2 64-6 20-19 40-13 61 5 19 23 30 34 45 25 36-7 90-29 119-4 5-8 10-14 13-16 9-25-7-24-21 2-18 7-36 17-51 8-15 20-28 16-46-3-12-24-62-43-47-32 25-31 76-51 110-4 7-9 13-16 17-24 12-40-15-42-35-2-25 6-50 21-70 16-18 34-34 54-47 19-15 38-32 45-54 5-17 6-35 4-53-1-13-2-25-2-38 0-7-5-13-13-8-17 11-9 44-13 61-3 11-10 22-21 22-8-1-15-6-18-14-13-30 9-69 33-86 21-15 7-29 1-55-7-32 3-61-12-90-5-9-15-18-23-12-3 3-5 8-5 12 0 25 4 49 12 73 4 18-19 30-20 14 0-2 0-3-1-5-6-8-30 44-29 53 1 15 14 25 19 39 5 15 3 31-4 45-9 16-20 31-34 43-19 20-17-5-12-19 6-18 24-41 22-61-2-22-26-19-37-6-8 9-16 19-23 29-8 11-13 23-16 36-1 10 1 19 6 27s15 10 16 21c0 6-2 12-4 17l-31 76c-2 5-5 11-10 13-18 6-25-27-23-39 3-16 16-28 23-42 5-12 6-39-11-43-12-3-23 10-29 19-10 15-18 32-24 50-7 20-8 42-28 55-9 6-37 17-42 1-3-10 4-23 8-32 10-22 22-43 36-63 8-12 22-29 19-45-3-13-33-24-44-18-11 5-14 22-18 32-5 13-12 26-20 38-16 21-22-27-20-36 3-18 11-34 24-47 22-19 52-25 79-14 20 9 34 5 50-10 31-28 57-60 79-95 5-8 11-22 6-31-5-6-12-10-20-10l-67-13c-7-2-14-2-20 0-14 6-13 32-17 45-7 19-16 38-25 55-2 4-5 8-9 7-2-1-4-3-5-5-1-6-1-12 1-18 4-14 9-27 15-40 4-7 5-14 5-22-4-22-26-9-32 3-13 26-12 59-33 79-4 4-9 7-15 7-10-1-14-13-13-23 3-36 44-57 53-92 3-12 6-28 18-30 5 0 9 0 13 2 30 10 62 15 94 13 22-1 49 0 67-14 24-18-1-50 13-73 5-8 13-14 17-22 6-11 2-23 3-35 3-13 8-26 13-38 4 6 9 11 15 14 10 4 12-3 20-6 10-3 20-5 31-3 12 1 41 3 49 15-1 0 0 4-1 7z"/>
    </clipPath>
    <clipPath clipPathUnits="userSpaceOnUse" id="ab">
      <path d="M0 0h5380v7120H0Z"/>
    </clipPath>
    <clipPath clipPathUnits="userSpaceOnUse" id="ac">
      <path d="M3934 5430c-304 0-550-246-550-550 0-262 184-487 440-539V2258c-1-336-274-609-610-608h-240c-336 0-609 272-610 608v479c157-171 378-268 610-268 61 0 110 49 110 110s-49 110-110 110c-337 0-610 273-610 610 0 61-49 110-110 110s-110-49-110-110V2257c1-458 372-828 830-828h240c458 0 829 371 830 828v2084c298 61 490 351 429 649-52 256-277 440-539 440zm0-880c-182 0-330 148-330 330s148 330 330 330 330-148 330-330-147-329-330-330z"/>
    </clipPath>
    <clipPath clipPathUnits="userSpaceOnUse" id="ad">
      <path d="M0 0h5380v7120H0Z"/>
    </clipPath>
    <clipPath clipPathUnits="userSpaceOnUse" id="ae">
      <path d="m3464 1469 9 3-9-3z"/>
    </clipPath>
    <clipPath clipPathUnits="userSpaceOnUse" id="af">
      <path d="M0 0h5380v7120H0Z"/>
    </clipPath>
    <clipPath clipPathUnits="userSpaceOnUse" id="ag">
      <path d="M3934 5210v220c-304 0-550-246-550-550 0-262 184-487 440-539V2260c0-274-178-484-415-579-871-299-1089 232-1139 425-3 15-6 29-8 44-6 36-8 73-8 110v628c147-256 419-416 714-418h6c4 0 7 0 11 1 56 6 99 53 99 109h-110c-355 0-658 259-712 610-6 36-8 73-8 110v110c-61 0-110-49-110-110v-6c0-9 1-19 1-28h-1V2254c4-453 369-819 821-824 618-31 842 321 923 577 30 81 46 167 46 253v2290c-182 0-330 148-330 330s148 330 330 330z"/>
    </clipPath>
    <clipPath clipPathUnits="userSpaceOnUse" id="ah">
      <path d="M0 0h5380v7120H0Z"/>
    </clipPath>
    <clipPath clipPathUnits="userSpaceOnUse" id="ai">
      <path d="M3935 5025c-61 0-110 49-110 110v1875c0 61 49 110 110 110s110-49 110-110V5135c0-61-50-110-110-110z"/>
    </clipPath>
    <clipPath clipPathUnits="userSpaceOnUse" id="aj">
      <path d="M0 0h5380v7120H0Z"/>
    </clipPath>
    <clipPath clipPathUnits="userSpaceOnUse" id="ak">
      <path d="m4045 6922-221-220v-311l221 220z"/>
    </clipPath>
    <clipPath clipPathUnits="userSpaceOnUse" id="al">
      <path d="M0 0h5380v7120H0Z"/>
    </clipPath>
    <clipPath clipPathUnits="userSpaceOnUse" id="am">
      <path d="m4045 6352-221-220v-311l221 220z"/>
    </clipPath>
    <clipPath clipPathUnits="userSpaceOnUse" id="an">
      <path d="M0 0h5380v7120H0Z"/>
    </clipPath>
    <clipPath clipPathUnits="userSpaceOnUse" id="ao">
      <path d="m4045 5792-221-220v-311l221 220z"/>
    </clipPath>
    <clipPath clipPathUnits="userSpaceOnUse" id="ap">
      <path d="M0 0h5380v7120H0Z"/>
    </clipPath>
    <clipPath clipPathUnits="userSpaceOnUse" id="aq">
      <path d="M3263.94 198.035c.3 78.426-350.46 143.352-783.45 145.024-432.99 1.671-784.25-60.551-784.55-138.977-.3-78.426 350.46-143.352 783.45-145.023 432.99-1.672 784.25 60.55 784.55 138.976z"/>
    </clipPath>
    <clipPath clipPathUnits="userSpaceOnUse" id="ar">
      <path d="M0 0h5380v7120H0Z"/>
    </clipPath>
    <clipPath clipPathUnits="userSpaceOnUse" id="as">
      <path d="M4329.18 335.047c.19 49.707-242.77 90.937-542.66 92.094-299.89 1.156-543.15-38.2-543.34-87.907-.2-49.703 242.76-90.937 542.65-92.093 299.89-1.157 543.15 38.199 543.35 87.906z"/>
    </clipPath>
    <clipPath clipPathUnits="userSpaceOnUse" id="at">
      <path d="M0 0h5380v7120H0Z"/>
    </clipPath>
    <clipPath clipPathUnits="userSpaceOnUse" id="au">
      <path d="M1400.72 365.621c.2 51.918-249.46 94.965-557.638 96.152-308.176 1.192-558.164-39.929-558.363-91.847-.199-51.914 249.465-94.961 557.636-96.153 308.175-1.187 558.165 39.934 558.365 91.848z"/>
    </clipPath>
    <clipPath clipPathUnits="userSpaceOnUse" id="av">
      <path d="M0 0h5380v7120H0Z"/>
    </clipPath>
    <clipPath clipPathUnits="userSpaceOnUse" id="aw">
      <path d="M3085.45 547.004c.18 45.84-220.85 83.851-493.68 84.902-272.83 1.055-494.14-35.254-494.32-81.093-.18-45.84 220.85-83.852 493.68-84.907 272.83-1.051 494.14 35.258 494.32 81.098z"/>
    </clipPath>
    <clipPath clipPathUnits="userSpaceOnUse" id="ax">
      <path d="M0 0h5380v7120H0Z"/>
    </clipPath>
    <clipPath clipPathUnits="userSpaceOnUse" id="ay">
      <path d="M1636.65 819.816c.23 59.094-336.27 108.297-751.591 109.899-415.317 1.601-752.184-45.004-752.411-104.098-.23-59.094 336.27-108.301 751.586-109.902 415.316-1.602 752.186 45.004 752.416 104.101z"/>
    </clipPath>
    <clipPath clipPathUnits="userSpaceOnUse" id="az">
      <path d="M0 0h5380v7120H0Z"/>
    </clipPath>
    <clipPath clipPathUnits="userSpaceOnUse" id="aA">
      <path d="M3258.79 678.438c.06 16.015-76 29.292-169.89 29.656-93.89.359-170.05-12.328-170.11-28.348-.07-16.016 76-29.293 169.89-29.652 93.88-.364 170.04 12.328 170.11 28.344z"/>
    </clipPath>
    <clipPath clipPathUnits="userSpaceOnUse" id="aB">
      <path d="M0 0h5380v7120H0Z"/>
    </clipPath>
    <clipPath clipPathUnits="userSpaceOnUse" id="aC">
      <path d="M3104.71 389.656c.06 15.465-74.21 28.289-165.89 28.641-91.68.355-166.05-11.895-166.11-27.359-.06-15.465 74.22-28.286 165.9-28.641 91.68-.352 166.04 11.898 166.1 27.359z"/>
    </clipPath>
    <clipPath clipPathUnits="userSpaceOnUse" id="aD">
      <path d="M0 0h5380v7120H0Z"/>
    </clipPath>
    <clipPath clipPathUnits="userSpaceOnUse" id="aE">
      <path d="M5212.99 756.215c.19 48.601-249.48 88.965-557.66 90.152-308.17 1.188-558.15-37.246-558.34-85.847-.19-48.602 249.49-88.965 557.66-90.153 308.18-1.187 558.15 37.246 558.34 85.848z"/>
    </clipPath>
    <clipPath clipPathUnits="userSpaceOnUse" id="aF">
      <path d="M0 0h5380v7120H0Z"/>
    </clipPath>
    <clipPath clipPathUnits="userSpaceOnUse" id="aG">
      <path d="M1363.14 613.711c.11 28.719-139.48 52.539-311.8 53.203-172.309.664-312.086-22.078-312.195-50.797-.11-28.719 139.488-52.539 311.805-53.203 172.31-.664 312.09 22.078 312.19 50.797z"/>
    </clipPath>
    <clipPath clipPathUnits="userSpaceOnUse" id="aH">
      <path d="M0 0h5380v7120H0Z"/>
    </clipPath>
    <clipPath clipPathUnits="userSpaceOnUse" id="aI">
      <path d="M708.148 534.52c.059 14.914-71.976 27.281-160.894 27.621-88.918.343-161.047-11.465-161.106-26.379-.058-14.91 71.977-27.278 160.895-27.621 88.918-.34 161.047 11.468 161.105 26.379z"/>
    </clipPath>
    <clipPath clipPathUnits="userSpaceOnUse" id="aJ">
      <path d="M0 0h5380v7120H0Z"/>
    </clipPath>
    <clipPath clipPathUnits="userSpaceOnUse" id="aK">
      <path d="M2152.99 651.105c.11 28.719-139.49 52.54-311.8 53.208-172.31.664-312.09-22.079-312.2-50.797-.11-28.719 139.49-52.539 311.8-53.203 172.32-.668 312.09 22.074 312.2 50.792z"/>
    </clipPath>
    <clipPath clipPathUnits="userSpaceOnUse" id="aL">
      <path d="M0 0h5380v7120H0Z"/>
    </clipPath>
    <clipPath clipPathUnits="userSpaceOnUse" id="aM">
      <path d="M4239.77 1051.42c.17 44.19-213.7 80.83-477.69 81.85-263.99 1.02-478.14-33.98-478.31-78.16-.17-44.18 213.7-80.825 477.69-81.844 263.99-1.02 478.14 33.974 478.31 78.154z"/>
    </clipPath>
    <clipPath clipPathUnits="userSpaceOnUse" id="aN">
      <path d="M0 0h5380v7120H0Z"/>
    </clipPath>
    <clipPath clipPathUnits="userSpaceOnUse" id="aO">
      <path d="M2230.07 1069.37c.14 38.11-183.75 69.71-410.73 70.59-226.99.87-411.13-29.31-411.27-67.42-.15-38.11 183.74-69.71 410.73-70.59 226.99-.87 411.12 29.31 411.27 67.42z"/>
    </clipPath>
    <clipPath clipPathUnits="userSpaceOnUse" id="aP">
      <path d="M0 0h5380v7120H0Z"/>
    </clipPath>
    <clipPath clipPathUnits="userSpaceOnUse" id="aQ">
      <path d="M1096.59 1014.19c.11 28.72-139.485 52.54-311.797 53.2-172.313.66-312.09-22.08-312.199-50.8-.11-28.715 139.488-52.535 311.801-53.199 172.312-.664 312.085 22.078 312.195 50.799z"/>
    </clipPath>
    <clipPath clipPathUnits="userSpaceOnUse" id="aR">
      <path d="M0 0h5380v7120H0Z"/>
    </clipPath>
    <clipPath clipPathUnits="userSpaceOnUse" id="aS">
      <path d="M690.168 671.758c.059 15.461-74.215 28.285-165.895 28.64-91.675.352-166.046-11.898-166.105-27.359-.059-15.465 74.211-28.289 165.891-28.641 91.679-.355 166.05 11.895 166.109 27.36z"/>
    </clipPath>
    <clipPath clipPathUnits="userSpaceOnUse" id="aT">
      <path d="M0 0h5380v7120H0Z"/>
    </clipPath>
    <clipPath clipPathUnits="userSpaceOnUse" id="aU">
      <path d="M1725.52 514.328c.05 15.465-74.22 28.285-165.89 28.641-91.68.351-166.06-11.895-166.11-27.36-.06-15.464 74.21-28.289 165.89-28.64 91.68-.356 166.05 11.894 166.11 27.359z"/>
    </clipPath>
    <clipPath clipPathUnits="userSpaceOnUse" id="aV">
      <path d="M0 0h5380v7120H0Z"/>
    </clipPath>
    <clipPath clipPathUnits="userSpaceOnUse" id="aW">
      <path d="M2003.29 760.363c.07 15.465-74.21 28.289-165.89 28.641-91.68.355-166.04-11.895-166.11-27.359-.06-15.465 74.22-28.286 165.9-28.641 91.68-.352 166.04 11.894 166.1 27.359z"/>
    </clipPath>
    <clipPath clipPathUnits="userSpaceOnUse" id="aX">
      <path d="M0 0h5380v7120H0Z"/>
    </clipPath>
    <clipPath clipPathUnits="userSpaceOnUse" id="aY">
      <path d="M3519.65 487.645c.08 20.988-101.03 38.39-225.85 38.871-124.82.48-226.07-16.141-226.15-37.129-.08-20.985 101.04-38.391 225.86-38.871 124.81-.481 226.06 16.14 226.14 37.129z"/>
    </clipPath>
    <clipPath clipPathUnits="userSpaceOnUse" id="aZ">
      <path d="M0 0h5380v7120H0Z"/>
    </clipPath>
    <clipPath clipPathUnits="userSpaceOnUse" id="ba">
      <path d="M4372.34 543.918c.14 34.793-167.65 63.648-374.76 64.445-207.1.801-375.11-26.758-375.24-61.554-.13-34.793 167.65-63.645 374.76-64.446 207.1-.797 375.11 26.762 375.24 61.555z"/>
    </clipPath>
    <clipPath clipPathUnits="userSpaceOnUse" id="bb">
      <path d="M0 0h5380v7120H0Z"/>
    </clipPath>
    <clipPath clipPathUnits="userSpaceOnUse" id="bc">
      <path d="M4019.43 693.16c.11 28.719-139.49 52.539-311.8 53.203-172.32.664-312.09-22.078-312.2-50.797-.11-28.718 139.48-52.539 311.8-53.203 172.31-.664 312.09 22.078 312.2 50.797z"/>
    </clipPath>
    <clipPath clipPathUnits="userSpaceOnUse" id="bd">
      <path d="M0 0h5380v7120H0Z"/>
    </clipPath>
    <clipPath clipPathUnits="userSpaceOnUse" id="be">
      <path d="M2879.77 909c.16 42.527-206.1 77.797-460.7 78.777-254.61.985-461.14-32.695-461.3-75.218-.16-42.528 206.1-77.797 460.7-78.782 254.61-.98 461.14 32.7 461.3 75.223z"/>
    </clipPath>
    <clipPath clipPathUnits="userSpaceOnUse" id="bf">
      <path d="M0 0h5380v7120H0Z"/>
    </clipPath>
    <clipPath clipPathUnits="userSpaceOnUse" id="bg">
      <path d="M2773.54 774.906c.06 15.465-74.22 28.289-165.89 28.641-91.68.355-166.05-11.895-166.11-27.359-.06-15.465 74.21-28.286 165.89-28.641 91.68-.352 166.05 11.894 166.11 27.359z"/>
    </clipPath>
    <clipPath clipPathUnits="userSpaceOnUse" id="bh">
      <path d="M0 0h5380v7120H0Z"/>
    </clipPath>
    <clipPath clipPathUnits="userSpaceOnUse" id="bi">
      <path d="M1499.79 960.816c.06 15.465-74.21 28.289-165.89 28.641-91.68.356-166.05-11.894-166.11-27.359-.06-15.465 74.21-28.285 165.89-28.641 91.68-.352 166.05 11.895 166.11 27.359z"/>
    </clipPath>
    <clipPath clipPathUnits="userSpaceOnUse" id="bj">
      <path d="M0 0h5380v7120H0Z"/>
    </clipPath>
    <clipPath clipPathUnits="userSpaceOnUse" id="bk">
      <path d="M2053.67 388.25c.09 23.195-110.87 42.426-247.84 42.957-136.97.527-248.07-17.848-248.16-41.047-.09-23.195 110.87-42.426 247.83-42.953 136.97-.531 248.08 17.848 248.17 41.043z"/>
    </clipPath>
    <clipPath clipPathUnits="userSpaceOnUse" id="bl">
      <path d="M0 0h5380v7120H0Z"/>
    </clipPath>
    <clipPath clipPathUnits="userSpaceOnUse" id="bm">
      <path d="M2688.36 1073.63c.06 15.46-74.21 28.28-165.89 28.64-91.68.35-166.05-11.9-166.11-27.36-.06-15.47 74.21-28.29 165.89-28.64 91.68-.36 166.05 11.89 166.11 27.36z"/>
    </clipPath>
    <clipPath clipPathUnits="userSpaceOnUse" id="bn">
      <path d="M0 0h5380v7120H0Z"/>
    </clipPath>
    <clipPath clipPathUnits="userSpaceOnUse" id="bo">
      <path d="M4972.59 909.883c.05 15.465-74.22 28.289-165.9 28.64-91.68.356-166.05-11.894-166.1-27.359-.07-15.465 74.21-28.285 165.89-28.641 91.68-.351 166.04 11.899 166.11 27.36z"/>
    </clipPath>
    <clipPath clipPathUnits="userSpaceOnUse" id="bp">
      <path d="M0 0h5380v7120H0Z"/>
    </clipPath>
    <clipPath clipPathUnits="userSpaceOnUse" id="bq">
      <path d="M2633.23 689.016c.06 16.015-76 29.293-169.89 29.656-93.89.363-170.05-12.328-170.11-28.344-.06-16.015 76-29.293 169.89-29.656 93.88-.363 170.05 12.328 170.11 28.344z"/>
    </clipPath>
    <clipPath clipPathUnits="userSpaceOnUse" id="br">
      <path d="M0 0h5380v7120H0Z"/>
    </clipPath>
    <clipPath clipPathUnits="userSpaceOnUse" id="bs">
      <path d="M3468.39 816.559c.07 19.328-92.09 35.355-205.87 35.793-113.77.437-206.06-14.875-206.13-34.207-.07-19.329 92.09-35.356 205.86-35.793 113.78-.438 206.07 14.875 206.14 34.207z"/>
    </clipPath>
    <clipPath clipPathUnits="userSpaceOnUse" id="bt">
      <path d="M0 0h5380v7120H0Z"/>
    </clipPath>
    <clipPath clipPathUnits="userSpaceOnUse" id="bu">
      <path d="M4061.85 855.539c.1 25.957-103.24 47.399-230.82 47.891-127.58.492-231.08-20.153-231.18-46.11-.1-25.957 103.24-47.398 230.82-47.89 127.58-.492 231.08 20.152 231.18 46.109z"/>
    </clipPath>
    <clipPath clipPathUnits="userSpaceOnUse" id="bv">
      <path d="M0 0h5380v7120H0Z"/>
    </clipPath>
    <clipPath clipPathUnits="userSpaceOnUse" id="bw">
      <path d="M3469.09 943.223c.06 15.465-74.21 28.285-165.89 28.64-91.68.352-166.05-11.894-166.11-27.359-.05-15.465 74.21-28.289 165.89-28.641 91.68-.355 166.06 11.895 166.11 27.36z"/>
    </clipPath>
    <clipPath clipPathUnits="userSpaceOnUse" id="bx">
      <path d="M0 0h5380v7120H0Z"/>
    </clipPath>
    <clipPath clipPathUnits="userSpaceOnUse" id="by">
      <path d="M3121.72 1036.54c.07 15.46-74.21 28.28-165.89 28.64-91.68.35-166.04-11.9-166.11-27.37-.06-15.46 74.22-28.28 165.9-28.64 91.68-.35 166.04 11.9 166.1 27.37z"/>
    </clipPath>
    <clipPath clipPathUnits="userSpaceOnUse" id="bz">
      <path d="M0 0h5380v7120H0Z"/>
    </clipPath>
    <clipPath clipPathUnits="userSpaceOnUse" id="bA">
      <path d="M4477.41 922.863c.05 15.465-74.22 28.289-165.9 28.641-91.68.355-166.05-11.895-166.1-27.359-.07-15.465 74.21-28.286 165.89-28.641 91.68-.352 166.04 11.894 166.11 27.359z"/>
    </clipPath>
    <clipPath clipPathUnits="userSpaceOnUse" id="bB">
      <path d="M0 0h5380v7120H0Z"/>
    </clipPath>
    <clipPath clipPathUnits="userSpaceOnUse" id="bC">
      <path d="M4706.61 1020.69c.07 15.46-74.21 28.29-165.89 28.64-91.68.35-166.04-11.9-166.11-27.36-.06-15.47 74.22-28.286 165.9-28.642 91.68-.351 166.04 11.902 166.1 27.362z"/>
    </clipPath>
    <clipPath clipPathUnits="userSpaceOnUse" id="bD">
      <path d="M0 0h5380v7120H0Z"/>
    </clipPath>
    <clipPath clipPathUnits="userSpaceOnUse" id="bE">
      <path d="M330 552C120 390 57 208 1065 227c507 10 706-243 1680-220 646 15 463 219 966 191 693-38 756-38 798 248 33 223 1134 76 798 392-118 111-1009 388-1911 306-840-76-1467 35-1827 0C393 1030 393 1106 78 886c-301-209 375-239 252-334Z"/>
    </clipPath>
    <clipPath clipPathUnits="userSpaceOnUse" id="bF">
      <path d="M0 0h5380v7120H0Z"/>
    </clipPath>
    <clipPath clipPathUnits="userSpaceOnUse" id="bG">
      <path d="M2520 65c433.54 0 785 61.785 785 138s-351.46 138-785 138-785-61.785-785-138 351.46-138 785-138z"/>
    </clipPath>
    <clipPath clipPathUnits="userSpaceOnUse" id="bH">
      <path d="M0 0h5380v7120H0Z"/>
    </clipPath>
    <clipPath clipPathUnits="userSpaceOnUse" id="bI">
      <path d="M3828 253c300.44 0 544 38.953 544 87s-243.56 87-544 87-544-38.953-544-87 243.56-87 544-87z"/>
    </clipPath>
    <clipPath clipPathUnits="userSpaceOnUse" id="bJ">
      <path d="M0 0h5380v7120H0Z"/>
    </clipPath>
    <clipPath clipPathUnits="userSpaceOnUse" id="bK">
      <path d="M879 268c308.73 0 559 40.742 559 91s-250.27 91-559 91c-308.727 0-559-40.742-559-91s250.273-91 559-91z"/>
    </clipPath>
    <clipPath clipPathUnits="userSpaceOnUse" id="bL">
      <path d="M0 0h5380v7120H0Z"/>
    </clipPath>
    <clipPath clipPathUnits="userSpaceOnUse" id="bM">
      <path d="M2630 462c273.38 0 495 35.816 495 80s-221.62 80-495 80-495-35.816-495-80 221.62-80 495-80z"/>
    </clipPath>
    <clipPath clipPathUnits="userSpaceOnUse" id="bN">
      <path d="M0 0h5380v7120H0Z"/>
    </clipPath>
    <clipPath clipPathUnits="userSpaceOnUse" id="bO">
      <path d="M919 697c415.87 0 753 46.563 753 104 0 57.438-337.13 104-753 104-415.871 0-753-46.562-753-104 0-57.437 337.129-104 753-104z"/>
    </clipPath>
    <clipPath clipPathUnits="userSpaceOnUse" id="bP">
      <path d="M0 0h5380v7120H0Z"/>
    </clipPath>
    <clipPath clipPathUnits="userSpaceOnUse" id="bQ">
      <path d="M3117 643c93.89 0 170 12.535 170 28s-76.11 28-170 28-170-12.535-170-28 76.11-28 170-28z"/>
    </clipPath>
    <clipPath clipPathUnits="userSpaceOnUse" id="bR">
      <path d="M0 0h5380v7120H0Z"/>
    </clipPath>
    <clipPath clipPathUnits="userSpaceOnUse" id="bS">
      <path d="M2968 362c91.68 0 166 12.09 166 27s-74.32 27-166 27-166-12.09-166-27 74.32-27 166-27z"/>
    </clipPath>
    <clipPath clipPathUnits="userSpaceOnUse" id="bT">
      <path d="M0 0h5380v7120H0Z"/>
    </clipPath>
    <clipPath clipPathUnits="userSpaceOnUse" id="bU">
      <path d="M4687 668c308.73 0 559 38.055 559 85s-250.27 85-559 85-559-38.055-559-85 250.27-85 559-85z"/>
    </clipPath>
    <clipPath clipPathUnits="userSpaceOnUse" id="bV">
      <path d="M0 0h5380v7120H0Z"/>
    </clipPath>
    <clipPath clipPathUnits="userSpaceOnUse" id="bW">
      <path d="M1086 549c172.86 0 313 22.832 313 51s-140.14 51-313 51c-172.863 0-313-22.832-313-51s140.137-51 313-51z"/>
    </clipPath>
    <clipPath clipPathUnits="userSpaceOnUse" id="bX">
      <path d="M0 0h5380v7120H0Z"/>
    </clipPath>
    <clipPath clipPathUnits="userSpaceOnUse" id="bY">
      <path d="M572 495c88.918 0 161 11.641 161 26s-72.082 26-161 26-161-11.641-161-26 72.082-26 161-26z"/>
    </clipPath>
    <clipPath clipPathUnits="userSpaceOnUse" id="bZ">
      <path d="M0 0h5380v7120H0Z"/>
    </clipPath>
    <clipPath clipPathUnits="userSpaceOnUse" id="ca">
      <path d="M1878 589c172.87 0 313 22.832 313 51s-140.13 51-313 51c-172.86 0-313-22.832-313-51s140.14-51 313-51z"/>
    </clipPath>
    <clipPath clipPathUnits="userSpaceOnUse" id="cb">
      <path d="M0 0h5380v7120H0Z"/>
    </clipPath>
    <clipPath clipPathUnits="userSpaceOnUse" id="cc">
      <path d="M3790 958c264.54 0 479 34.922 479 78 0 43.08-214.46 78-479 78-264.54 0-479-34.92-479-78 0-43.078 214.46-78 479-78z"/>
    </clipPath>
    <clipPath clipPathUnits="userSpaceOnUse" id="cd">
      <path d="M0 0h5380v7120H0Z"/>
    </clipPath>
    <clipPath clipPathUnits="userSpaceOnUse" id="ce">
      <path d="M1854 979c227.54 0 412 30 412 67s-184.46 67-412 67-412-30-412-67 184.46-67 412-67z"/>
    </clipPath>
    <clipPath clipPathUnits="userSpaceOnUse" id="cf">
      <path d="M0 0h5380v7120H0Z"/>
    </clipPath>
    <clipPath clipPathUnits="userSpaceOnUse" id="cg">
      <path d="M818 937c172.863 0 313 22.832 313 51 0 28.17-140.137 51-313 51s-313-22.83-313-51c0-28.168 140.137-51 313-51z"/>
    </clipPath>
    <clipPath clipPathUnits="userSpaceOnUse" id="ch">
      <path d="M0 0h5380v7120H0Z"/>
    </clipPath>
    <clipPath clipPathUnits="userSpaceOnUse" id="ci">
      <path d="M547 627c91.68 0 166 12.09 166 27s-74.32 27-166 27-166-12.09-166-27 74.32-27 166-27z"/>
    </clipPath>
    <clipPath clipPathUnits="userSpaceOnUse" id="cj">
      <path d="M0 0h5380v7120H0Z"/>
    </clipPath>
    <clipPath clipPathUnits="userSpaceOnUse" id="ck">
      <path d="M1586 478c91.68 0 166 12.09 166 27s-74.32 27-166 27-166-12.09-166-27 74.32-27 166-27z"/>
    </clipPath>
    <clipPath clipPathUnits="userSpaceOnUse" id="cl">
      <path d="M0 0h5380v7120H0Z"/>
    </clipPath>
    <clipPath clipPathUnits="userSpaceOnUse" id="cm">
      <path d="M1874 718c91.68 0 166 12.09 166 27s-74.32 27-166 27-166-12.09-166-27 74.32-27 166-27z"/>
    </clipPath>
    <clipPath clipPathUnits="userSpaceOnUse" id="cn">
      <path d="M0 0h5380v7120H0Z"/>
    </clipPath>
    <clipPath clipPathUnits="userSpaceOnUse" id="co">
      <path d="M3324 449c125.37 0 227 16.566 227 37s-101.63 37-227 37-227-16.566-227-37 101.63-37 227-37z"/>
    </clipPath>
    <clipPath clipPathUnits="userSpaceOnUse" id="cp">
      <path d="M0 0h5380v7120H0Z"/>
    </clipPath>
    <clipPath clipPathUnits="userSpaceOnUse" id="cq">
      <path d="M4029 483c207.66 0 376 27.313 376 61 0 33.688-168.34 61-376 61s-376-27.312-376-61c0-33.687 168.34-61 376-61z"/>
    </clipPath>
    <clipPath clipPathUnits="userSpaceOnUse" id="cr">
      <path d="M0 0h5380v7120H0Z"/>
    </clipPath>
    <clipPath clipPathUnits="userSpaceOnUse" id="cs">
      <path d="M3737 636c172.87 0 313 22.832 313 51s-140.13 51-313 51c-172.86 0-313-22.832-313-51s140.14-51 313-51z"/>
    </clipPath>
    <clipPath clipPathUnits="userSpaceOnUse" id="ct">
      <path d="M0 0h5380v7120H0Z"/>
    </clipPath>
    <clipPath clipPathUnits="userSpaceOnUse" id="cu">
      <path d="M2445 818c255.16 0 462 33.578 462 75s-206.84 75-462 75-462-33.578-462-75 206.84-75 462-75z"/>
    </clipPath>
    <clipPath clipPathUnits="userSpaceOnUse" id="cv">
      <path d="M0 0h5380v7120H0Z"/>
    </clipPath>
    <clipPath clipPathUnits="userSpaceOnUse" id="cw">
      <path d="M2635 735c91.68 0 166 12.09 166 27s-74.32 27-166 27-166-12.09-166-27 74.32-27 166-27z"/>
    </clipPath>
    <clipPath clipPathUnits="userSpaceOnUse" id="cx">
      <path d="M0 0h5380v7120H0Z"/>
    </clipPath>
    <clipPath clipPathUnits="userSpaceOnUse" id="cy">
      <path d="M1358 911c91.68 0 166 12.09 166 27s-74.32 27-166 27-166-12.09-166-27 74.32-27 166-27z"/>
    </clipPath>
    <clipPath clipPathUnits="userSpaceOnUse" id="cz">
      <path d="M0 0h5380v7120H0Z"/>
    </clipPath>
    <clipPath clipPathUnits="userSpaceOnUse" id="cA">
      <path d="M1843 343c137.52 0 249 18.355 249 41s-111.48 41-249 41c-137.52 0-249-18.355-249-41s111.48-41 249-41z"/>
    </clipPath>
    <clipPath clipPathUnits="userSpaceOnUse" id="cB">
      <path d="M0 0h5380v7120H0Z"/>
    </clipPath>
    <clipPath clipPathUnits="userSpaceOnUse" id="cC">
      <path d="M2548 1025c91.68 0 166 12.09 166 27s-74.32 27-166 27-166-12.09-166-27 74.32-27 166-27z"/>
    </clipPath>
    <clipPath clipPathUnits="userSpaceOnUse" id="cD">
      <path d="M0 0h5380v7120H0Z"/>
    </clipPath>
    <clipPath clipPathUnits="userSpaceOnUse" id="cE">
      <path d="M4838 874c91.68 0 166 12.09 166 27s-74.32 27-166 27-166-12.09-166-27 74.32-27 166-27z"/>
    </clipPath>
    <clipPath clipPathUnits="userSpaceOnUse" id="cF">
      <path d="M0 0h5380v7120H0Z"/>
    </clipPath>
    <clipPath clipPathUnits="userSpaceOnUse" id="cG">
      <path d="M2490 650c93.89 0 170 12.535 170 28s-76.11 28-170 28-170-12.535-170-28 76.11-28 170-28z"/>
    </clipPath>
    <clipPath clipPathUnits="userSpaceOnUse" id="cH">
      <path d="M0 0h5380v7120H0Z"/>
    </clipPath>
    <clipPath clipPathUnits="userSpaceOnUse" id="cI">
      <path d="M3291 771c113.77 0 206 15.223 206 34s-92.23 34-206 34-206-15.223-206-34 92.23-34 206-34z"/>
    </clipPath>
    <clipPath clipPathUnits="userSpaceOnUse" id="cJ">
      <path d="M0 0h5380v7120H0Z"/>
    </clipPath>
    <clipPath clipPathUnits="userSpaceOnUse" id="cK">
      <path d="M3860 800c128.13 0 232 20.148 232 45s-103.87 45-232 45-232-20.148-232-45 103.87-45 232-45z"/>
    </clipPath>
    <clipPath clipPathUnits="userSpaceOnUse" id="cL">
      <path d="M0 0h5380v7120H0Z"/>
    </clipPath>
    <clipPath clipPathUnits="userSpaceOnUse" id="cM">
      <path d="M3331 901c91.68 0 166 12.09 166 27s-74.32 27-166 27-166-12.09-166-27 74.32-27 166-27z"/>
    </clipPath>
    <clipPath clipPathUnits="userSpaceOnUse" id="cN">
      <path d="M0 0h5380v7120H0Z"/>
    </clipPath>
    <clipPath clipPathUnits="userSpaceOnUse" id="cO">
      <path d="M2982 991c91.68 0 166 12.09 166 27s-74.32 27-166 27-166-12.09-166-27 74.32-27 166-27z"/>
    </clipPath>
    <clipPath clipPathUnits="userSpaceOnUse" id="cP">
      <path d="M0 0h5380v7120H0Z"/>
    </clipPath>
    <clipPath clipPathUnits="userSpaceOnUse" id="cQ">
      <path d="M4341 885c91.68 0 166 12.09 166 27s-74.32 27-166 27-166-12.09-166-27 74.32-27 166-27z"/>
    </clipPath>
    <clipPath clipPathUnits="userSpaceOnUse" id="cR">
      <path d="M0 0h5380v7120H0Z"/>
    </clipPath>
    <clipPath clipPathUnits="userSpaceOnUse" id="cS">
      <path d="M4570 981c91.68 0 166 12.09 166 27s-74.32 27-166 27-166-12.09-166-27 74.32-27 166-27z"/>
    </clipPath>
    <clipPath clipPathUnits="userSpaceOnUse" id="cT">
      <path d="M0 0h5380v7120H0Z"/>
    </clipPath>
    <clipPath clipPathUnits="userSpaceOnUse" id="cU">
      <path d="M1388 3107c-12 58-61 109-131 90-77-21-141-56-178-93-26-8-50-20-72-34-8 67-68 115-135 108-27-3-53-15-73-35-32-32 34-118 95-159-62-41-127-127-95-159 48-48 125-48 172 0 24 24 37 57 36 91 36-25 90-44 152-52-12-14-19-29-13-35 15-15 42-12 61 6 7 7 11 15 14 24h18c10 0 20 0 29 1-11-16-15-29-9-35 22-22 69-11 104 24 9 9 17 19 23 30 20 6 40 13 59 23 18 9 34 20 48 33l7 7c9 9 15 21 19 33 2 6 3 13 3 20 0 45-54 88-134 112z"/>
    </clipPath>
    <clipPath clipPathUnits="userSpaceOnUse" id="cV">
      <path d="M0 0h5380v7120H0Z"/>
    </clipPath>
    <clipPath clipPathUnits="userSpaceOnUse" id="cW">
      <path d="M2408 4639c-18 89-94 168-202 139-119-32-219-86-276-144-40-12-77-30-112-53-12 104-105 178-209 166-43-5-82-24-112-54-49-49 52-183 147-246-95-63-196-197-147-246 74-74 193-74 267 0 37 37 57 88 55 141 56-38 139-67 235-81-18-22-30-45-21-54 23-23 65-19 94 10 10 10 18 23 22 37h28c15 0 30 0 45 1-16-25-24-45-15-55 34-34 106-17 161 38 14 14 26 29 35 46 31 9 62 21 91 35 27 13 52 31 74 51 4 4 7 7 10 11 13 15 24 32 30 51 3 10 5.01 20 5.01 31 .99 73-81.01 139-205.01 176z"/>
    </clipPath>
    <clipPath clipPathUnits="userSpaceOnUse" id="cX">
      <path d="M0 0h5380v7120H0Z"/>
    </clipPath>
    <clipPath clipPathUnits="userSpaceOnUse" id="cY">
      <path d="M3289 3648c36 24 75 75 56 94-28 28-74 28-102 0-12-12-19-27-21-43-13 9-28 16-43 20-22 22-60 43-105 55-41 11-70-19-77-53-47-14-79-39-79-68 0-4 1-8 2-12 2-7 6-14 11-19l4-4c8-8 18-15 28-20 11-6 23-10 35-13 4-6 8-12 13-18 21-21 49-27 62-14 3 3 1 11-6 21h28c2-5 4-10 8-14 9-11 25-12 36-4 4 4-1 12-8 21 32 3 63 14 90 31-2-40 29-73 69-75 20-1 40 7 54 21 20 19-19 70-55 94z"/>
    </clipPath>
    <clipPath clipPathUnits="userSpaceOnUse" id="cZ">
      <path d="M0 0h5380v7120H0Z"/>
    </clipPath>
    <clipPath clipPathUnits="userSpaceOnUse" id="da">
      <path d="M5300 2275c2.76 0 5 2.24 5 5s-2.24 5-5 5-5-2.24-5-5 2.24-5 5-5z"/>
    </clipPath>
    <clipPath clipPathUnits="userSpaceOnUse" id="db">
      <path d="M0 0h5380v7120H0Z"/>
    </clipPath>
    <clipPath clipPathUnits="userSpaceOnUse" id="dc">
      <path d="M2836 4551c20.43 0 37 16.57 37 37s-16.57 37-37 37-37-16.57-37-37 16.57-37 37-37z"/>
    </clipPath>
    <clipPath clipPathUnits="userSpaceOnUse" id="dd">
      <path d="M0 0h5380v7120H0Z"/>
    </clipPath>
    <clipPath clipPathUnits="userSpaceOnUse" id="de">
      <path d="M2704 5023c14.36 0 26 11.64 26 26s-11.64 26-26 26-26-11.64-26-26 11.64-26 26-26z"/>
    </clipPath>
    <clipPath clipPathUnits="userSpaceOnUse" id="df">
      <path d="M0 0h5380v7120H0Z"/>
    </clipPath>
    <clipPath clipPathUnits="userSpaceOnUse" id="dg">
      <path d="M3000 5381c6.63 0 12 5.37 12 12s-5.37 12-12 12-12-5.37-12-12 5.37-12 12-12z"/>
    </clipPath>
    <clipPath clipPathUnits="userSpaceOnUse" id="dh">
      <path d="M0 0h5380v7120H0Z"/>
    </clipPath>
    <clipPath clipPathUnits="userSpaceOnUse" id="di">
      <path d="M2720 5319c7.18 0 13 5.82 13 13s-5.82 13-13 13-13-5.82-13-13 5.82-13 13-13z"/>
    </clipPath>
    <clipPath clipPathUnits="userSpaceOnUse" id="dj">
      <path d="M0 0h5380v7120H0Z"/>
    </clipPath>
    <clipPath clipPathUnits="userSpaceOnUse" id="dk">
      <path d="M2896 5640c3.87 0 7 3.13 7 7s-3.13 7-7 7-7-3.13-7-7 3.13-7 7-7z"/>
    </clipPath>
    <clipPath clipPathUnits="userSpaceOnUse" id="dl">
      <path d="M0 0h5380v7120H0Z"/>
    </clipPath>
    <clipPath clipPathUnits="userSpaceOnUse" id="dm">
      <path d="M1708 3008c11.6 0 21 9.4 21 21s-9.4 21-21 21-21-9.4-21-21 9.4-21 21-21z"/>
    </clipPath>
    <clipPath clipPathUnits="userSpaceOnUse" id="dn">
      <path d="M0 0h5380v7120H0Z"/>
    </clipPath>
    <clipPath clipPathUnits="userSpaceOnUse" id="do">
      <path d="M1632 3280c8.29 0 15 6.71 15 15s-6.71 15-15 15-15-6.71-15-15 6.71-15 15-15z"/>
    </clipPath>
    <clipPath clipPathUnits="userSpaceOnUse" id="dp">
      <path d="M0 0h5380v7120H0Z"/>
    </clipPath>
    <clipPath clipPathUnits="userSpaceOnUse" id="dq">
      <path d="M1803 3487c3.87 0 7 3.13 7 7s-3.13 7-7 7-7-3.13-7-7 3.13-7 7-7z"/>
    </clipPath>
    <clipPath clipPathUnits="userSpaceOnUse" id="dr">
      <path d="M0 0h5380v7120H0Z"/>
    </clipPath>
    <clipPath clipPathUnits="userSpaceOnUse" id="ds">
      <path d="M1641 3451c4.42 0 8 3.58 8 8s-3.58 8-8 8-8-3.58-8-8 3.58-8 8-8z"/>
    </clipPath>
    <clipPath clipPathUnits="userSpaceOnUse" id="dt">
      <path d="M0 0h5380v7120H0Z"/>
    </clipPath>
    <clipPath clipPathUnits="userSpaceOnUse" id="du">
      <path d="M1743 3637c2.21 0 4 1.79 4 4s-1.79 4-4 4-4-1.79-4-4 1.79-4 4-4z"/>
    </clipPath>
    <clipPath clipPathUnits="userSpaceOnUse" id="dv">
      <path d="M0 0h5380v7120H0Z"/>
    </clipPath>
    <clipPath clipPathUnits="userSpaceOnUse" id="dw">
      <path d="M2835 3661c7.18 0 13 5.82 13 13s-5.82 13-13 13-13-5.82-13-13 5.82-13 13-13z"/>
    </clipPath>
    <clipPath clipPathUnits="userSpaceOnUse" id="dx">
      <path d="M0 0h5380v7120H0Z"/>
    </clipPath>
    <clipPath clipPathUnits="userSpaceOnUse" id="dy">
      <path d="M2864 3818a9 9 0 1 1-.001 18.001A9 9 0 0 1 2864 3818z"/>
    </clipPath>
    <clipPath clipPathUnits="userSpaceOnUse" id="dz">
      <path d="M0 0h5380v7120H0Z"/>
    </clipPath>
    <clipPath clipPathUnits="userSpaceOnUse" id="dA">
      <path d="M2767 3946c2.21 0 4 1.79 4 4s-1.79 4-4 4-4-1.79-4-4 1.79-4 4-4z"/>
    </clipPath>
    <clipPath clipPathUnits="userSpaceOnUse" id="dB">
      <path d="M0 0h5380v7120H0Z"/>
    </clipPath>
    <clipPath clipPathUnits="userSpaceOnUse" id="dC">
      <path d="M2857 3925c2.76 0 5 2.24 5 5s-2.24 5-5 5-5-2.24-5-5 2.24-5 5-5z"/>
    </clipPath>
    <clipPath clipPathUnits="userSpaceOnUse" id="dD">
      <path d="M0 0h5380v7120H0Z"/>
    </clipPath>
    <clipPath clipPathUnits="userSpaceOnUse" id="dE">
      <path d="M2798 4035c1.11 0 2 .89 2 2 0 1.11-.89 2-2 2-1.11 0-2-.89-2-2 0-1.11.89-2 2-2z"/>
    </clipPath>
  </defs>
  <g clip-path="url(#a)" transform="matrix(.13333 0 0 -.13333 0 949.333)">
    <g clip-path="url(#b)">
      <path d="M3457.94 981.398h1642.57v1656.52H3457.94Z" style="fill:#f9fbff;fill-opacity:1;fill-rule:nonzero;stroke:none"/>
    </g>
  </g>
  <g clip-path="url(#c)" transform="matrix(.13333 0 0 -.13333 0 949.333)">
    <g clip-path="url(#d)">
      <path d="M100.672 889h1780.95v1840.26H100.672Z" style="fill:#f9fbff;fill-opacity:1;fill-rule:nonzero;stroke:none"/>
    </g>
  </g>
  <g clip-path="url(#e)" transform="matrix(.13333 0 0 -.13333 0 949.333)">
    <g clip-path="url(#f)">
      <path d="M2142.37 562h704.57v1899h-704.57z" style="fill:#f9fbff;fill-opacity:1;fill-rule:nonzero;stroke:none"/>
    </g>
  </g>
  <g clip-path="url(#g)" transform="matrix(.13333 0 0 -.13333 0 949.333)">
    <g clip-path="url(#h)">
      <path d="M1848.59 692H2859.6v1343.47H1848.59Z" style="fill:#f9fbff;fill-opacity:1;fill-rule:nonzero;stroke:none"/>
    </g>
  </g>
  <g clip-path="url(#i)" transform="matrix(.13333 0 0 -.13333 0 949.333)">
    <g clip-path="url(#j)">
      <path d="M2333.99 1072h702.012v2383.91H2333.99Z" style="fill:#f9fbff;fill-opacity:1;fill-rule:nonzero;stroke:none"/>
    </g>
  </g>
  <g clip-path="url(#k)" transform="matrix(.13333 0 0 -.13333 0 949.333)">
    <g clip-path="url(#l)">
      <path d="M2744.75 938h460.48v2180.79h-460.48z" style="fill:#f9fbff;fill-opacity:1;fill-rule:nonzero;stroke:none"/>
    </g>
  </g>
  <g clip-path="url(#m)" transform="matrix(.13333 0 0 -.13333 0 949.333)">
    <g clip-path="url(#n)">
      <path d="M2702.93 607h769.875v1898.28H2702.93Z" style="fill:#f9fbff;fill-opacity:1;fill-rule:nonzero;stroke:none"/>
    </g>
  </g>
  <g clip-path="url(#o)" transform="matrix(.13333 0 0 -.13333 0 949.333)">
    <g clip-path="url(#p)">
      <path d="M2633 4382h326v326h-326z" style="fill:#e3e9f1;fill-opacity:1;fill-rule:nonzero;stroke:none"/>
    </g>
  </g>
  <g clip-path="url(#q)" transform="matrix(.13333 0 0 -.13333 0 949.333)">
    <g clip-path="url(#r)">
      <path d="M2567 4884h250v250h-250z" style="fill:#e3e9f1;fill-opacity:1;fill-rule:nonzero;stroke:none"/>
    </g>
  </g>
  <g clip-path="url(#s)" transform="matrix(.13333 0 0 -.13333 0 949.333)">
    <g clip-path="url(#t)">
      <path d="M2871 5263h210v210h-210z" style="fill:#e3e9f1;fill-opacity:1;fill-rule:nonzero;stroke:none"/>
    </g>
  </g>
  <g clip-path="url(#u)" transform="matrix(.13333 0 0 -.13333 0 949.333)">
    <g clip-path="url(#v)">
      <path d="M2618 5233h178v178h-178z" style="fill:#e3e9f1;fill-opacity:1;fill-rule:nonzero;stroke:none"/>
    </g>
  </g>
  <g clip-path="url(#w)" transform="matrix(.13333 0 0 -.13333 0 949.333)">
    <g clip-path="url(#x)">
      <path d="M2796 5551h166v166h-166z" style="fill:#e3e9f1;fill-opacity:1;fill-rule:nonzero;stroke:none"/>
    </g>
  </g>
  <g clip-path="url(#y)" transform="matrix(.13333 0 0 -.13333 0 949.333)">
    <g clip-path="url(#z)">
      <path d="M2733 3571h178v178h-178z" style="fill:#e3e9f1;fill-opacity:1;fill-rule:nonzero;stroke:none"/>
    </g>
  </g>
  <g clip-path="url(#A)" transform="matrix(.13333 0 0 -.13333 0 949.333)">
    <g clip-path="url(#B)">
      <path d="M2782 3743h152v152h-152z" style="fill:#e3e9f1;fill-opacity:1;fill-rule:nonzero;stroke:none"/>
    </g>
  </g>
  <g clip-path="url(#C)" transform="matrix(.13333 0 0 -.13333 0 949.333)">
    <g clip-path="url(#D)">
      <path d="M2692 3872h138v138h-138z" style="fill:#e3e9f1;fill-opacity:1;fill-rule:nonzero;stroke:none"/>
    </g>
  </g>
  <g clip-path="url(#E)" transform="matrix(.13333 0 0 -.13333 0 949.333)">
    <g clip-path="url(#F)">
      <path d="M2790 3863h126v126h-126z" style="fill:#e3e9f1;fill-opacity:1;fill-rule:nonzero;stroke:none"/>
    </g>
  </g>
  <g clip-path="url(#G)" transform="matrix(.13333 0 0 -.13333 0 949.333)">
    <g clip-path="url(#H)">
      <path d="M2733 3971h122v122h-122z" style="fill:#e3e9f1;fill-opacity:1;fill-rule:nonzero;stroke:none"/>
    </g>
  </g>
  <g clip-path="url(#I)" transform="matrix(.13333 0 0 -.13333 0 949.333)">
    <g clip-path="url(#J)">
      <path d="M1571 2889h230v230h-230z" style="fill:#e3e9f1;fill-opacity:1;fill-rule:nonzero;stroke:none"/>
    </g>
  </g>
  <g clip-path="url(#K)" transform="matrix(.13333 0 0 -.13333 0 949.333)">
    <g clip-path="url(#L)">
      <path d="M1532 3179h186v186h-186z" style="fill:#e3e9f1;fill-opacity:1;fill-rule:nonzero;stroke:none"/>
    </g>
  </g>
  <g clip-path="url(#M)" transform="matrix(.13333 0 0 -.13333 0 949.333)">
    <g clip-path="url(#N)">
      <path d="M1707 3398h164v164h-164z" style="fill:#e3e9f1;fill-opacity:1;fill-rule:nonzero;stroke:none"/>
    </g>
  </g>
  <g clip-path="url(#O)" transform="matrix(.13333 0 0 -.13333 0 949.333)">
    <g clip-path="url(#P)">
      <path d="M1561 3380h146v146h-146z" style="fill:#e3e9f1;fill-opacity:1;fill-rule:nonzero;stroke:none"/>
    </g>
  </g>
  <g clip-path="url(#Q)" transform="matrix(.13333 0 0 -.13333 0 949.333)">
    <g clip-path="url(#R)">
      <path d="M1665 3564h138v138h-138z" style="fill:#e3e9f1;fill-opacity:1;fill-rule:nonzero;stroke:none"/>
    </g>
  </g>
  <g clip-path="url(#S)" transform="matrix(.13333 0 0 -.13333 0 949.333)">
    <g clip-path="url(#T)">
      <path d="M3516.71 1068h450.285v479.441H3516.71Z" style="fill:#cdd5dc;fill-opacity:1;fill-rule:nonzero;stroke:none"/>
    </g>
  </g>
  <g clip-path="url(#U)" transform="matrix(.13333 0 0 -.13333 0 949.333)">
    <g clip-path="url(#V)">
      <path d="M1171.52 1071h836.813v874.258H1171.52Z" style="fill:#e3e9f1;fill-opacity:1;fill-rule:nonzero;stroke:none"/>
    </g>
  </g>
  <g clip-path="url(#W)" transform="matrix(.13333 0 0 -.13333 0 949.333)">
    <g clip-path="url(#X)">
      <path d="M1915 991h449.285v478.441H1915Z" style="fill:#cdd5dc;fill-opacity:1;fill-rule:nonzero;stroke:none"/>
    </g>
  </g>
  <g clip-path="url(#Y)" transform="matrix(.13333 0 0 -.13333 0 949.333)">
    <g clip-path="url(#Z)">
      <path d="M537.875 984h638.84v665.352h-638.84z" style="fill:#cdd5dc;fill-opacity:1;fill-rule:nonzero;stroke:none"/>
    </g>
  </g>
  <g clip-path="url(#aa)" transform="matrix(.13333 0 0 -.13333 0 949.333)">
    <g clip-path="url(#ab)">
      <path d="M3886.63 968h725.27v756.617h-725.27z" style="fill:#e3e9f1;fill-opacity:1;fill-rule:nonzero;stroke:none"/>
    </g>
  </g>
  <g clip-path="url(#ac)" transform="matrix(.13333 0 0 -.13333 0 949.333)">
    <g clip-path="url(#ad)">
      <path d="M2094 1379h2440.3v4101H2094Z" style="fill:#b5bdc2;fill-opacity:1;fill-rule:nonzero;stroke:none"/>
    </g>
  </g>
  <g clip-path="url(#ae)" transform="matrix(.13333 0 0 -.13333 0 949.333)">
    <g clip-path="url(#af)">
      <path d="M3414 1419h109v103h-109z" style="fill:#b5bdc2;fill-opacity:1;fill-rule:nonzero;stroke:none"/>
    </g>
  </g>
  <g clip-path="url(#ag)" transform="matrix(.13333 0 0 -.13333 0 949.333)">
    <g clip-path="url(#ah)">
      <path d="M2094 1378.09h1890V5480H2094Z" style="fill:#868c8f;fill-opacity:1;fill-rule:nonzero;stroke:none"/>
    </g>
  </g>
  <g clip-path="url(#ai)" transform="matrix(.13333 0 0 -.13333 0 949.333)">
    <g clip-path="url(#aj)">
      <path d="M3775 4975h320v2195h-320z" style="fill:#ffba55;fill-opacity:1;fill-rule:nonzero;stroke:none"/>
    </g>
  </g>
  <g clip-path="url(#ak)" transform="matrix(.13333 0 0 -.13333 0 949.333)">
    <g clip-path="url(#al)">
      <path d="M3774 6341h321v631h-321z" style="fill:#ffeac8;fill-opacity:1;fill-rule:nonzero;stroke:none"/>
    </g>
  </g>
  <g clip-path="url(#am)" transform="matrix(.13333 0 0 -.13333 0 949.333)">
    <g clip-path="url(#an)">
      <path d="M3774 5771h321v631h-321z" style="fill:#ffeac8;fill-opacity:1;fill-rule:nonzero;stroke:none"/>
    </g>
  </g>
  <g clip-path="url(#ao)" transform="matrix(.13333 0 0 -.13333 0 949.333)">
    <g clip-path="url(#ap)">
      <path d="M3774 5211h321v631h-321z" style="fill:#ffeac8;fill-opacity:1;fill-rule:nonzero;stroke:none"/>
    </g>
  </g>
  <g clip-path="url(#aq)" transform="matrix(.13333 0 0 -.13333 0 949.333)">
    <g clip-path="url(#ar)">
      <path d="m1645.2 12.277 1.48 383.996 1668-6.433-1.48-383.996z" style="fill:#f1f5fb;fill-opacity:1;fill-rule:nonzero;stroke:none"/>
    </g>
  </g>
  <g clip-path="url(#as)" transform="matrix(.13333 0 0 -.13333 0 949.333)">
    <g clip-path="url(#at)">
      <path d="m3192.63 199.43 1.08 280 1186-4.575-1.08-280z" style="fill:#f1f5fb;fill-opacity:1;fill-rule:nonzero;stroke:none"/>
    </g>
  </g>
  <g clip-path="url(#au)" transform="matrix(.13333 0 0 -.13333 0 949.333)">
    <g clip-path="url(#av)">
      <path d="m234.164 226.121 1.113 288 1215.993-4.691-1.11-288z" style="fill:#f1f5fb;fill-opacity:1;fill-rule:nonzero;stroke:none"/>
    </g>
  </g>
  <g clip-path="url(#aw)" transform="matrix(.13333 0 0 -.13333 0 949.333)">
    <g clip-path="url(#ax)">
      <path d="m2046.94 418.008 1.02 266 1088-4.199-1.02-266z" style="fill:#f1f5fb;fill-opacity:1;fill-rule:nonzero;stroke:none"/>
    </g>
  </g>
  <g clip-path="url(#ay)" transform="matrix(.13333 0 0 -.13333 0 949.333)">
    <g clip-path="url(#az)">
      <path d="m82.043 668.809 1.21 314 1603.997-6.188-1.21-314z" style="fill:#f1f5fb;fill-opacity:1;fill-rule:nonzero;stroke:none"/>
    </g>
  </g>
  <g clip-path="url(#aA)" transform="matrix(.13333 0 0 -.13333 0 949.333)">
    <g clip-path="url(#aB)">
      <path d="m2868.48 600.941.61 158 440-1.699-.61-158z" style="fill:#f1f5fb;fill-opacity:1;fill-rule:nonzero;stroke:none"/>
    </g>
  </g>
  <g clip-path="url(#aC)" transform="matrix(.13333 0 0 -.13333 0 949.333)">
    <g clip-path="url(#aD)">
      <path d="m2722.41 313.133.61 156 432-1.668-.61-156z" style="fill:#f1f5fb;fill-opacity:1;fill-rule:nonzero;stroke:none"/>
    </g>
  </g>
  <g clip-path="url(#aE)" transform="matrix(.13333 0 0 -.13333 0 949.333)">
    <g clip-path="url(#aF)">
      <path d="m4046.46 622.711 1.07 276 1216-4.691-1.07-275.997z" style="fill:#f1f5fb;fill-opacity:1;fill-rule:nonzero;stroke:none"/>
    </g>
  </g>
  <g clip-path="url(#aG)" transform="matrix(.13333 0 0 -.13333 0 949.333)">
    <g clip-path="url(#aH)">
      <path d="m688.75 514.313.789 203.996 724.001-2.793-.79-203.996z" style="fill:#f1f5fb;fill-opacity:1;fill-rule:nonzero;stroke:none"/>
    </g>
  </g>
  <g clip-path="url(#aI)" transform="matrix(.13333 0 0 -.13333 0 949.333)">
    <g clip-path="url(#aJ)">
      <path d="m335.852 458.957.593 154 422-1.629-.593-154z" style="fill:#f1f5fb;fill-opacity:1;fill-rule:nonzero;stroke:none"/>
    </g>
  </g>
  <g clip-path="url(#aK)" transform="matrix(.13333 0 0 -.13333 0 949.333)">
    <g clip-path="url(#aL)">
      <path d="m1478.6 551.707.79 204 724-2.793-.79-204z" style="fill:#f1f5fb;fill-opacity:1;fill-rule:nonzero;stroke:none"/>
    </g>
  </g>
  <g clip-path="url(#aM)" transform="matrix(.13333 0 0 -.13333 0 949.333)">
    <g clip-path="url(#aN)">
      <path d="m3233.27 925.301 1 259.999 1056-4.07-1-260z" style="fill:#f1f5fb;fill-opacity:1;fill-rule:nonzero;stroke:none"/>
    </g>
  </g>
  <g clip-path="url(#aO)" transform="matrix(.13333 0 0 -.13333 0 949.333)">
    <g clip-path="url(#aP)">
      <path d="m1357.61 953.734.92 237.996 922-3.55-.92-238.004z" style="fill:#f1f5fb;fill-opacity:1;fill-rule:nonzero;stroke:none"/>
    </g>
  </g>
  <g clip-path="url(#aQ)" transform="matrix(.13333 0 0 -.13333 0 949.333)">
    <g clip-path="url(#aR)">
      <path d="m422.199 914.789.789 204.001 724.002-2.79-.79-204.004z" style="fill:#f1f5fb;fill-opacity:1;fill-rule:nonzero;stroke:none"/>
    </g>
  </g>
  <g clip-path="url(#aS)" transform="matrix(.13333 0 0 -.13333 0 949.333)">
    <g clip-path="url(#aT)">
      <path d="m307.867 595.23.602 156 432-1.667-.602-156z" style="fill:#f1f5fb;fill-opacity:1;fill-rule:nonzero;stroke:none"/>
    </g>
  </g>
  <g clip-path="url(#aU)" transform="matrix(.13333 0 0 -.13333 0 949.333)">
    <g clip-path="url(#aV)">
      <path d="m1343.21 437.801.61 156 432-1.664-.61-156z" style="fill:#f1f5fb;fill-opacity:1;fill-rule:nonzero;stroke:none"/>
    </g>
  </g>
  <g clip-path="url(#aW)" transform="matrix(.13333 0 0 -.13333 0 949.333)">
    <g clip-path="url(#aX)">
      <path d="m1621 683.836.6 156 431.99-1.664-.6-156z" style="fill:#f1f5fb;fill-opacity:1;fill-rule:nonzero;stroke:none"/>
    </g>
  </g>
  <g clip-path="url(#aY)" transform="matrix(.13333 0 0 -.13333 0 949.333)">
    <g clip-path="url(#aZ)">
      <path d="m3017.31 401.582.68 176 552-2.133-.68-175.996z" style="fill:#f1f5fb;fill-opacity:1;fill-rule:nonzero;stroke:none"/>
    </g>
  </g>
  <g clip-path="url(#ba)" transform="matrix(.13333 0 0 -.13333 0 949.333)">
    <g clip-path="url(#bb)">
      <path d="m3571.91 434.004.87 226 850-3.281-.88-225.996z" style="fill:#f1f5fb;fill-opacity:1;fill-rule:nonzero;stroke:none"/>
    </g>
  </g>
  <g clip-path="url(#bc)" transform="matrix(.13333 0 0 -.13333 0 949.333)">
    <g clip-path="url(#bd)">
      <path d="m3345.03 593.758.79 204 724-2.793-.79-203.996z" style="fill:#f1f5fb;fill-opacity:1;fill-rule:nonzero;stroke:none"/>
    </g>
  </g>
  <g clip-path="url(#be)" transform="matrix(.13333 0 0 -.13333 0 949.333)">
    <g clip-path="url(#bf)">
      <path d="m1907.28 785.75.98 254 1022-3.94-.98-254.001z" style="fill:#f1f5fb;fill-opacity:1;fill-rule:nonzero;stroke:none"/>
    </g>
  </g>
  <g clip-path="url(#bg)" transform="matrix(.13333 0 0 -.13333 0 949.333)">
    <g clip-path="url(#bh)">
      <path d="m2391.24 698.379.6 156 432-1.664-.6-156z" style="fill:#f1f5fb;fill-opacity:1;fill-rule:nonzero;stroke:none"/>
    </g>
  </g>
  <g clip-path="url(#bi)" transform="matrix(.13333 0 0 -.13333 0 949.333)">
    <g clip-path="url(#bj)">
      <path d="m1117.49 884.293.6 155.997 432-1.66-.6-156.005z" style="fill:#f1f5fb;fill-opacity:1;fill-rule:nonzero;stroke:none"/>
    </g>
  </g>
  <g clip-path="url(#bk)" transform="matrix(.13333 0 0 -.13333 0 949.333)">
    <g clip-path="url(#bl)">
      <path d="m1507.31 298.355.71 184 596-2.3-.71-184z" style="fill:#f1f5fb;fill-opacity:1;fill-rule:nonzero;stroke:none"/>
    </g>
  </g>
  <g clip-path="url(#bm)" transform="matrix(.13333 0 0 -.13333 0 949.333)">
    <g clip-path="url(#bn)">
      <path d="m2306.06 997.102.6 155.998 432-1.67-.6-155.996z" style="fill:#f1f5fb;fill-opacity:1;fill-rule:nonzero;stroke:none"/>
    </g>
  </g>
  <g clip-path="url(#bo)" transform="matrix(.13333 0 0 -.13333 0 949.333)">
    <g clip-path="url(#bp)">
      <path d="m4590.29 833.359.6 156 432-1.668-.6-156z" style="fill:#f1f5fb;fill-opacity:1;fill-rule:nonzero;stroke:none"/>
    </g>
  </g>
  <g clip-path="url(#bq)" transform="matrix(.13333 0 0 -.13333 0 949.333)">
    <g clip-path="url(#br)">
      <path d="m2242.93 611.52.61 158 439.99-1.696-.61-158z" style="fill:#f1f5fb;fill-opacity:1;fill-rule:nonzero;stroke:none"/>
    </g>
  </g>
  <g clip-path="url(#bs)" transform="matrix(.13333 0 0 -.13333 0 949.333)">
    <g clip-path="url(#bt)">
      <path d="m3006.06 733.34.66 170 512-1.977-.66-170z" style="fill:#f1f5fb;fill-opacity:1;fill-rule:nonzero;stroke:none"/>
    </g>
  </g>
  <g clip-path="url(#bu)" transform="matrix(.13333 0 0 -.13333 0 949.333)">
    <g clip-path="url(#bv)">
      <path d="m3549.47 760.516.75 193.996 562-2.168-.75-193.996z" style="fill:#f1f5fb;fill-opacity:1;fill-rule:nonzero;stroke:none"/>
    </g>
  </g>
  <g clip-path="url(#bw)" transform="matrix(.13333 0 0 -.13333 0 949.333)">
    <g clip-path="url(#bx)">
      <path d="m3086.79 866.695.6 156.005 432-1.67-.6-155.999z" style="fill:#f1f5fb;fill-opacity:1;fill-rule:nonzero;stroke:none"/>
    </g>
  </g>
  <g clip-path="url(#by)" transform="matrix(.13333 0 0 -.13333 0 949.333)">
    <g clip-path="url(#bz)">
      <path d="m2739.42 960.008.61 156.002 431.99-1.67-.6-156z" style="fill:#f1f5fb;fill-opacity:1;fill-rule:nonzero;stroke:none"/>
    </g>
  </g>
  <g clip-path="url(#bA)" transform="matrix(.13333 0 0 -.13333 0 949.333)">
    <g clip-path="url(#bB)">
      <path d="m4095.11 846.336.6 156.004 431.99-1.67-.6-155.998z" style="fill:#f1f5fb;fill-opacity:1;fill-rule:nonzero;stroke:none"/>
    </g>
  </g>
  <g clip-path="url(#bC)" transform="matrix(.13333 0 0 -.13333 0 949.333)">
    <g clip-path="url(#bD)">
      <path d="m4324.31 944.164.61 155.996 431.99-1.66-.6-156.004z" style="fill:#f1f5fb;fill-opacity:1;fill-rule:nonzero;stroke:none"/>
    </g>
  </g>
  <g clip-path="url(#bE)" transform="matrix(.13333 0 0 -.13333 0 949.333)">
    <g clip-path="url(#bF)">
      <path d="M-49.988-44.48h5470.69v1253.43H-49.988z" style="fill:#f1f5fb;fill-opacity:1;fill-rule:nonzero;stroke:none"/>
    </g>
  </g>
  <g clip-path="url(#bG)" transform="matrix(.13333 0 0 -.13333 0 949.333)">
    <g clip-path="url(#bH)">
      <path d="M1685 15h1670v376H1685Z" style="fill:#e3e9f1;fill-opacity:1;fill-rule:nonzero;stroke:none"/>
    </g>
  </g>
  <g clip-path="url(#bI)" transform="matrix(.13333 0 0 -.13333 0 949.333)">
    <g clip-path="url(#bJ)">
      <path d="M3234 203h1188v274H3234Z" style="fill:#e3e9f1;fill-opacity:1;fill-rule:nonzero;stroke:none"/>
    </g>
  </g>
  <g clip-path="url(#bK)" transform="matrix(.13333 0 0 -.13333 0 949.333)">
    <g clip-path="url(#bL)">
      <path d="M270 218h1218v282H270Z" style="fill:#e3e9f1;fill-opacity:1;fill-rule:nonzero;stroke:none"/>
    </g>
  </g>
  <g clip-path="url(#bM)" transform="matrix(.13333 0 0 -.13333 0 949.333)">
    <g clip-path="url(#bN)">
      <path d="M2085 412h1090v260H2085Z" style="fill:#e3e9f1;fill-opacity:1;fill-rule:nonzero;stroke:none"/>
    </g>
  </g>
  <g clip-path="url(#bO)" transform="matrix(.13333 0 0 -.13333 0 949.333)">
    <g clip-path="url(#bP)">
      <path d="M116 647h1606v308H116Z" style="fill:#e3e9f1;fill-opacity:1;fill-rule:nonzero;stroke:none"/>
    </g>
  </g>
  <g clip-path="url(#bQ)" transform="matrix(.13333 0 0 -.13333 0 949.333)">
    <g clip-path="url(#bR)">
      <path d="M2897 593h440v156h-440z" style="fill:#e3e9f1;fill-opacity:1;fill-rule:nonzero;stroke:none"/>
    </g>
  </g>
  <g clip-path="url(#bS)" transform="matrix(.13333 0 0 -.13333 0 949.333)">
    <g clip-path="url(#bT)">
      <path d="M2752 312h432v154h-432z" style="fill:#e3e9f1;fill-opacity:1;fill-rule:nonzero;stroke:none"/>
    </g>
  </g>
  <g clip-path="url(#bU)" transform="matrix(.13333 0 0 -.13333 0 949.333)">
    <g clip-path="url(#bV)">
      <path d="M4078 618h1218v270H4078Z" style="fill:#e3e9f1;fill-opacity:1;fill-rule:nonzero;stroke:none"/>
    </g>
  </g>
  <g clip-path="url(#bW)" transform="matrix(.13333 0 0 -.13333 0 949.333)">
    <g clip-path="url(#bX)">
      <path d="M723 499h726v202H723Z" style="fill:#e3e9f1;fill-opacity:1;fill-rule:nonzero;stroke:none"/>
    </g>
  </g>
  <g clip-path="url(#bY)" transform="matrix(.13333 0 0 -.13333 0 949.333)">
    <g clip-path="url(#bZ)">
      <path d="M361 445h422v152H361Z" style="fill:#e3e9f1;fill-opacity:1;fill-rule:nonzero;stroke:none"/>
    </g>
  </g>
  <g clip-path="url(#ca)" transform="matrix(.13333 0 0 -.13333 0 949.333)">
    <g clip-path="url(#cb)">
      <path d="M1515 539h726v202h-726z" style="fill:#e3e9f1;fill-opacity:1;fill-rule:nonzero;stroke:none"/>
    </g>
  </g>
  <g clip-path="url(#cc)" transform="matrix(.13333 0 0 -.13333 0 949.333)">
    <g clip-path="url(#cd)">
      <path d="M3261 908h1058v256H3261Z" style="fill:#e3e9f1;fill-opacity:1;fill-rule:nonzero;stroke:none"/>
    </g>
  </g>
  <g clip-path="url(#ce)" transform="matrix(.13333 0 0 -.13333 0 949.333)">
    <g clip-path="url(#cf)">
      <path d="M1392 929h924v234h-924z" style="fill:#e3e9f1;fill-opacity:1;fill-rule:nonzero;stroke:none"/>
    </g>
  </g>
  <g clip-path="url(#cg)" transform="matrix(.13333 0 0 -.13333 0 949.333)">
    <g clip-path="url(#ch)">
      <path d="M455 887h726v202H455Z" style="fill:#e3e9f1;fill-opacity:1;fill-rule:nonzero;stroke:none"/>
    </g>
  </g>
  <g clip-path="url(#ci)" transform="matrix(.13333 0 0 -.13333 0 949.333)">
    <g clip-path="url(#cj)">
      <path d="M331 577h432v154H331Z" style="fill:#e3e9f1;fill-opacity:1;fill-rule:nonzero;stroke:none"/>
    </g>
  </g>
  <g clip-path="url(#ck)" transform="matrix(.13333 0 0 -.13333 0 949.333)">
    <g clip-path="url(#cl)">
      <path d="M1370 428h432v154h-432z" style="fill:#e3e9f1;fill-opacity:1;fill-rule:nonzero;stroke:none"/>
    </g>
  </g>
  <g clip-path="url(#cm)" transform="matrix(.13333 0 0 -.13333 0 949.333)">
    <g clip-path="url(#cn)">
      <path d="M1658 668h432v154h-432z" style="fill:#e3e9f1;fill-opacity:1;fill-rule:nonzero;stroke:none"/>
    </g>
  </g>
  <g clip-path="url(#co)" transform="matrix(.13333 0 0 -.13333 0 949.333)">
    <g clip-path="url(#cp)">
      <path d="M3047 399h554v174h-554z" style="fill:#e3e9f1;fill-opacity:1;fill-rule:nonzero;stroke:none"/>
    </g>
  </g>
  <g clip-path="url(#cq)" transform="matrix(.13333 0 0 -.13333 0 949.333)">
    <g clip-path="url(#cr)">
      <path d="M3603 433h852v222h-852z" style="fill:#e3e9f1;fill-opacity:1;fill-rule:nonzero;stroke:none"/>
    </g>
  </g>
  <g clip-path="url(#cs)" transform="matrix(.13333 0 0 -.13333 0 949.333)">
    <g clip-path="url(#ct)">
      <path d="M3374 586h726v202h-726z" style="fill:#e3e9f1;fill-opacity:1;fill-rule:nonzero;stroke:none"/>
    </g>
  </g>
  <g clip-path="url(#cu)" transform="matrix(.13333 0 0 -.13333 0 949.333)">
    <g clip-path="url(#cv)">
      <path d="M1933 768h1024v250H1933Z" style="fill:#e3e9f1;fill-opacity:1;fill-rule:nonzero;stroke:none"/>
    </g>
  </g>
  <g clip-path="url(#cw)" transform="matrix(.13333 0 0 -.13333 0 949.333)">
    <g clip-path="url(#cx)">
      <path d="M2419 685h432v154h-432z" style="fill:#e3e9f1;fill-opacity:1;fill-rule:nonzero;stroke:none"/>
    </g>
  </g>
  <g clip-path="url(#cy)" transform="matrix(.13333 0 0 -.13333 0 949.333)">
    <g clip-path="url(#cz)">
      <path d="M1142 861h432v154h-432z" style="fill:#e3e9f1;fill-opacity:1;fill-rule:nonzero;stroke:none"/>
    </g>
  </g>
  <g clip-path="url(#cA)" transform="matrix(.13333 0 0 -.13333 0 949.333)">
    <g clip-path="url(#cB)">
      <path d="M1544 293h598v182h-598z" style="fill:#e3e9f1;fill-opacity:1;fill-rule:nonzero;stroke:none"/>
    </g>
  </g>
  <g clip-path="url(#cC)" transform="matrix(.13333 0 0 -.13333 0 949.333)">
    <g clip-path="url(#cD)">
      <path d="M2332 975h432v154h-432z" style="fill:#e3e9f1;fill-opacity:1;fill-rule:nonzero;stroke:none"/>
    </g>
  </g>
  <g clip-path="url(#cE)" transform="matrix(.13333 0 0 -.13333 0 949.333)">
    <g clip-path="url(#cF)">
      <path d="M4622 824h432v154h-432z" style="fill:#e3e9f1;fill-opacity:1;fill-rule:nonzero;stroke:none"/>
    </g>
  </g>
  <g clip-path="url(#cG)" transform="matrix(.13333 0 0 -.13333 0 949.333)">
    <g clip-path="url(#cH)">
      <path d="M2270 600h440v156h-440z" style="fill:#e3e9f1;fill-opacity:1;fill-rule:nonzero;stroke:none"/>
    </g>
  </g>
  <g clip-path="url(#cI)" transform="matrix(.13333 0 0 -.13333 0 949.333)">
    <g clip-path="url(#cJ)">
      <path d="M3035 721h512v168h-512z" style="fill:#e3e9f1;fill-opacity:1;fill-rule:nonzero;stroke:none"/>
    </g>
  </g>
  <g clip-path="url(#cK)" transform="matrix(.13333 0 0 -.13333 0 949.333)">
    <g clip-path="url(#cL)">
      <path d="M3578 750h564v190h-564z" style="fill:#e3e9f1;fill-opacity:1;fill-rule:nonzero;stroke:none"/>
    </g>
  </g>
  <g clip-path="url(#cM)" transform="matrix(.13333 0 0 -.13333 0 949.333)">
    <g clip-path="url(#cN)">
      <path d="M3115 851h432v154h-432z" style="fill:#e3e9f1;fill-opacity:1;fill-rule:nonzero;stroke:none"/>
    </g>
  </g>
  <g clip-path="url(#cO)" transform="matrix(.13333 0 0 -.13333 0 949.333)">
    <g clip-path="url(#cP)">
      <path d="M2766 941h432v154h-432z" style="fill:#e3e9f1;fill-opacity:1;fill-rule:nonzero;stroke:none"/>
    </g>
  </g>
  <g clip-path="url(#cQ)" transform="matrix(.13333 0 0 -.13333 0 949.333)">
    <g clip-path="url(#cR)">
      <path d="M4125 835h432v154h-432z" style="fill:#e3e9f1;fill-opacity:1;fill-rule:nonzero;stroke:none"/>
    </g>
  </g>
  <g clip-path="url(#cS)" transform="matrix(.13333 0 0 -.13333 0 949.333)">
    <g clip-path="url(#cT)">
      <path d="M4354 931h432v154h-432z" style="fill:#e3e9f1;fill-opacity:1;fill-rule:nonzero;stroke:none"/>
    </g>
  </g>
  <g clip-path="url(#cU)" transform="matrix(.13333 0 0 -.13333 0 949.333)">
    <g clip-path="url(#cV)">
      <path d="M740.563 2739h831.438v512.043H740.563Z" style="fill:#ffeac8;fill-opacity:1;fill-rule:nonzero;stroke:none"/>
    </g>
  </g>
  <g clip-path="url(#cW)" transform="matrix(.13333 0 0 -.13333 0 949.333)">
    <g clip-path="url(#cX)">
      <path d="M1434.21 4095.5h1228.81v738.602H1434.21Z" style="fill:#ffe2db;fill-opacity:1;fill-rule:nonzero;stroke:none"/>
    </g>
  </g>
  <g clip-path="url(#cY)" transform="matrix(.13333 0 0 -.13333 0 949.333)">
    <g clip-path="url(#cZ)">
      <path d="M2868 3482.92h531.977v343.395H2868Z" style="fill:#ffeac8;fill-opacity:1;fill-rule:nonzero;stroke:none"/>
    </g>
  </g>
  <g clip-path="url(#da)" transform="matrix(.13333 0 0 -.13333 0 949.333)">
    <g clip-path="url(#db)">
      <path d="M5245 2225h110v110h-110z" style="fill:#e3e9f1;fill-opacity:1;fill-rule:nonzero;stroke:none"/>
    </g>
  </g>
  <g clip-path="url(#dc)" transform="matrix(.13333 0 0 -.13333 0 949.333)">
    <g clip-path="url(#dd)">
      <path d="M2749 4501h174v174h-174z" style="fill:#f9fbff;fill-opacity:1;fill-rule:nonzero;stroke:none"/>
    </g>
  </g>
  <g clip-path="url(#de)" transform="matrix(.13333 0 0 -.13333 0 949.333)">
    <g clip-path="url(#df)">
      <path d="M2628 4973h152v152h-152z" style="fill:#f9fbff;fill-opacity:1;fill-rule:nonzero;stroke:none"/>
    </g>
  </g>
  <g clip-path="url(#dg)" transform="matrix(.13333 0 0 -.13333 0 949.333)">
    <g clip-path="url(#dh)">
      <path d="M2938 5331h124v124h-124z" style="fill:#f9fbff;fill-opacity:1;fill-rule:nonzero;stroke:none"/>
    </g>
  </g>
  <g clip-path="url(#di)" transform="matrix(.13333 0 0 -.13333 0 949.333)">
    <g clip-path="url(#dj)">
      <path d="M2657 5269h126v126h-126z" style="fill:#f9fbff;fill-opacity:1;fill-rule:nonzero;stroke:none"/>
    </g>
  </g>
  <g clip-path="url(#dk)" transform="matrix(.13333 0 0 -.13333 0 949.333)">
    <g clip-path="url(#dl)">
      <path d="M2839 5590h114v114h-114z" style="fill:#f9fbff;fill-opacity:1;fill-rule:nonzero;stroke:none"/>
    </g>
  </g>
  <g clip-path="url(#dm)" transform="matrix(.13333 0 0 -.13333 0 949.333)">
    <g clip-path="url(#dn)">
      <path d="M1637 2958h142v142h-142z" style="fill:#f9fbff;fill-opacity:1;fill-rule:nonzero;stroke:none"/>
    </g>
  </g>
  <g clip-path="url(#do)" transform="matrix(.13333 0 0 -.13333 0 949.333)">
    <g clip-path="url(#dp)">
      <path d="M1567 3230h130v130h-130z" style="fill:#f9fbff;fill-opacity:1;fill-rule:nonzero;stroke:none"/>
    </g>
  </g>
  <g clip-path="url(#dq)" transform="matrix(.13333 0 0 -.13333 0 949.333)">
    <g clip-path="url(#dr)">
      <path d="M1746 3437h114v114h-114z" style="fill:#f9fbff;fill-opacity:1;fill-rule:nonzero;stroke:none"/>
    </g>
  </g>
  <g clip-path="url(#ds)" transform="matrix(.13333 0 0 -.13333 0 949.333)">
    <g clip-path="url(#dt)">
      <path d="M1583 3401h116v116h-116z" style="fill:#f9fbff;fill-opacity:1;fill-rule:nonzero;stroke:none"/>
    </g>
  </g>
  <g clip-path="url(#du)" transform="matrix(.13333 0 0 -.13333 0 949.333)">
    <g clip-path="url(#dv)">
      <path d="M1689 3587h108v108h-108z" style="fill:#f9fbff;fill-opacity:1;fill-rule:nonzero;stroke:none"/>
    </g>
  </g>
  <g clip-path="url(#dw)" transform="matrix(.13333 0 0 -.13333 0 949.333)">
    <g clip-path="url(#dx)">
      <path d="M2772 3611h126v126h-126z" style="fill:#f9fbff;fill-opacity:1;fill-rule:nonzero;stroke:none"/>
    </g>
  </g>
  <g clip-path="url(#dy)" transform="matrix(.13333 0 0 -.13333 0 949.333)">
    <g clip-path="url(#dz)">
      <path d="M2805 3768h118v118h-118z" style="fill:#f9fbff;fill-opacity:1;fill-rule:nonzero;stroke:none"/>
    </g>
  </g>
  <g clip-path="url(#dA)" transform="matrix(.13333 0 0 -.13333 0 949.333)">
    <g clip-path="url(#dB)">
      <path d="M2713 3896h108v108h-108z" style="fill:#f9fbff;fill-opacity:1;fill-rule:nonzero;stroke:none"/>
    </g>
  </g>
  <g clip-path="url(#dC)" transform="matrix(.13333 0 0 -.13333 0 949.333)">
    <g clip-path="url(#dD)">
      <path d="M2802 3875h110v110h-110z" style="fill:#f9fbff;fill-opacity:1;fill-rule:nonzero;stroke:none"/>
    </g>
  </g>
  <g clip-path="url(#dE)" transform="matrix(.13333 0 0 -.13333 0 949.333)">
    <path d="M2746 3985h104v104h-104z" style="fill:#f9fbff;fill-opacity:1;fill-rule:nonzero;stroke:none"/>
  </g>
</svg>
