<svg width="500" height="330" viewBox="0 0 500 330" fill="none" xmlns="http://www.w3.org/2000/svg">
<g clip-path="url(#clip0_338_2114)">
<path d="M323.493 92.7249V196.994C323.493 198.181 323.022 199.32 322.182 200.16C321.342 200.999 320.203 201.471 319.015 201.471C317.828 201.471 316.689 200.999 315.849 200.16C315.009 199.32 314.537 198.181 314.537 196.994V92.7249C314.535 90.4508 313.63 88.2706 312.021 86.6625C310.412 85.0545 308.232 84.1497 305.957 84.1467H278.279C276.004 84.1491 273.822 85.0536 272.213 86.6616C270.604 88.2697 269.698 90.4502 269.695 92.7249V188.832C269.689 193.683 267.759 198.333 264.328 201.763C260.896 205.193 256.245 207.123 251.392 207.128H193.718C188.866 207.123 184.213 205.194 180.782 201.764C177.35 198.334 175.419 193.683 175.413 188.832V46.2274C175.411 43.2694 174.234 40.4331 172.142 38.3411C170.05 36.2491 167.214 35.0722 164.255 35.0688H119.762C116.803 35.0724 113.966 36.2492 111.874 38.3412C109.781 40.4331 108.605 43.2692 108.601 46.2274V112.515C108.599 115.76 107.308 118.872 105.014 121.167C102.719 123.463 99.6073 124.755 96.3611 124.76H83.7367C82.5491 124.76 81.4101 124.288 80.5703 123.449C79.7306 122.609 79.2588 121.471 79.2588 120.283C79.2588 119.096 79.7306 117.958 80.5703 117.118C81.4101 116.279 82.5491 115.807 83.7367 115.807H96.3611C97.2324 115.805 98.0673 115.458 98.683 114.841C99.2987 114.225 99.6449 113.39 99.6457 112.519V46.2274C99.6518 40.8959 101.773 35.7844 105.544 32.0145C109.316 28.2446 114.429 26.124 119.762 26.118H164.255C169.588 26.1248 174.7 28.246 178.471 32.0164C182.242 35.7867 184.362 40.8982 184.368 46.2297V188.832C184.372 191.31 185.358 193.685 187.111 195.436C188.864 197.188 191.24 198.173 193.718 198.175H251.389C253.866 198.172 256.242 197.187 257.994 195.436C259.746 193.684 260.732 191.309 260.735 188.832V92.7249C260.741 88.0759 262.592 83.6193 265.881 80.3326C269.17 77.046 273.629 75.1979 278.279 75.1937H305.96C310.609 75.2001 315.066 77.0493 318.352 80.3357C321.639 83.6222 323.488 88.0777 323.493 92.7249V92.7249Z" fill="#F9FBFF"/>
<path d="M330.259 41.5934H249.752C245.906 41.5972 242.219 43.1258 239.5 45.8439C236.78 48.5619 235.25 52.2475 235.245 56.092V78.1891C235.243 80.1993 234.444 82.1267 233.022 83.5481C231.6 84.9696 229.672 85.7688 227.661 85.7704H153.712C149.57 85.7746 145.6 87.4209 142.671 90.3483C139.742 93.2756 138.094 97.2449 138.089 101.385V228.116C138.088 230.245 137.241 232.287 135.735 233.794C134.229 235.3 132.187 236.147 130.057 236.15H112.467C110.444 236.147 108.505 235.342 107.075 233.911C105.645 232.481 104.841 230.542 104.839 228.519V180.269C104.839 179.081 104.367 177.943 103.528 177.103C102.688 176.264 101.549 175.792 100.361 175.792C99.1737 175.792 98.0348 176.264 97.195 177.103C96.3552 177.943 95.8834 179.081 95.8834 180.269V213.219H90.4452C86.4611 213.223 82.6415 214.808 79.8247 217.625C77.0078 220.441 75.4237 224.26 75.4199 228.243V253.935C75.4249 257.917 77.0095 261.734 79.8263 264.55C82.643 267.366 86.4618 268.95 90.4452 268.955H195.86C200.505 268.949 204.958 267.102 208.241 263.818C211.525 260.535 213.372 256.083 213.377 251.44V126.351C213.378 124.741 214.018 123.198 215.157 122.06C216.296 120.921 217.84 120.281 219.45 120.28H234.716C240.194 120.28 240.784 127.939 240.784 131.235V259.372C240.79 263.791 242.549 268.026 245.675 271.15C248.801 274.274 253.038 276.032 257.458 276.036H290.748C295.168 276.032 299.406 274.275 302.531 271.151C305.657 268.027 307.416 263.791 307.422 259.372V207.334C307.424 205.779 308.043 204.29 309.143 203.191C310.243 202.093 311.733 201.475 313.288 201.474H328.285C332.654 201.468 336.843 199.73 339.932 196.641C343.021 193.552 344.759 189.364 344.763 184.996V56.092C344.759 52.2478 343.23 48.5622 340.51 45.844C337.791 43.1259 334.104 41.5972 330.259 41.5934V41.5934ZM335.808 184.997C335.806 186.991 335.013 188.903 333.602 190.314C332.192 191.725 330.28 192.519 328.285 192.522H313.288C309.359 192.525 305.592 194.087 302.813 196.864C300.035 199.641 298.471 203.406 298.466 207.334V259.372C298.464 261.417 297.649 263.377 296.203 264.823C294.756 266.269 292.795 267.082 290.749 267.084H257.46C255.414 267.082 253.452 266.269 252.005 264.824C250.558 263.378 249.743 261.417 249.74 259.372V131.235C249.74 125.155 248.397 120.3 245.743 116.8C244.468 115.082 242.804 113.69 240.887 112.739C238.97 111.788 236.856 111.304 234.716 111.327H219.45C215.465 111.331 211.645 112.915 208.827 115.732C206.01 118.549 204.425 122.368 204.421 126.351V251.435C204.419 253.704 203.516 255.88 201.911 257.486C200.307 259.091 198.131 259.995 195.86 259.999H90.4452C88.8361 259.997 87.2934 259.357 86.1556 258.219C85.0178 257.082 84.3777 255.54 84.3757 253.931V228.239C84.3777 226.631 85.0178 225.088 86.1556 223.951C87.2934 222.813 88.8361 222.174 90.4452 222.172H95.8834V228.52C95.8896 232.915 97.6388 237.128 100.748 240.236C103.856 243.344 108.071 245.093 112.467 245.099H130.057C134.561 245.093 138.879 243.301 142.064 240.117C145.248 236.933 147.04 232.616 147.045 228.113V101.385C147.047 99.6185 147.75 97.9249 149 96.676C150.25 95.427 151.945 94.7248 153.712 94.7234H227.661C232.046 94.7187 236.25 92.9751 239.351 89.8753C242.451 86.7756 244.195 82.5727 244.2 78.1891V56.092C244.202 54.6209 244.787 53.2106 245.828 52.1708C246.869 51.131 248.281 50.5465 249.752 50.5457H330.259C331.73 50.5465 333.141 51.1311 334.181 52.171C335.222 53.211 335.807 54.6212 335.808 56.092V184.997Z" fill="#F1F5FB"/>
<path d="M384.76 184.152L378.057 198.234L379.159 198.759L385.862 184.677L384.76 184.152Z" fill="#F1F5FB"/>
<path d="M397.669 184.155L396.566 184.679L403.269 198.762L404.372 198.237L397.669 184.155Z" fill="#F1F5FB"/>
<path d="M323.375 31.0892V133.607C323.363 137.651 321.761 141.528 318.915 144.401C316.069 147.274 312.207 148.914 308.163 148.965L298.92 149.051H293.864C292.015 149.054 290.242 149.79 288.934 151.097C287.626 152.405 286.89 154.177 286.887 156.026V224.881C286.883 229.01 285.241 232.968 282.321 235.887C279.401 238.807 275.442 240.45 271.312 240.455H173.332C169.302 240.455 166.9 244.227 166.9 250.547V279.965C166.896 283.574 165.46 287.034 162.907 289.586C160.355 292.138 156.894 293.573 153.284 293.578H131.445C124.192 293.578 117.829 287.787 117.829 281.183V101.65C117.829 92.6967 114.308 87.354 108.413 87.354H80.63C79.4424 87.354 78.3034 86.8824 77.4637 86.0429C76.6239 85.2034 76.1521 84.0648 76.1521 82.8775C76.1521 81.6903 76.6239 80.5517 77.4637 79.7121C78.3034 78.8726 79.4424 78.401 80.63 78.401H108.416C110.973 78.3747 113.501 78.9331 115.808 80.0334C118.115 81.1338 120.14 82.7469 121.728 84.7496C125.034 88.8595 126.788 94.707 126.788 101.652V281.187C126.788 282.395 128.709 284.625 131.447 284.625H153.283C154.518 284.623 155.701 284.131 156.574 283.258C157.448 282.385 157.939 281.202 157.942 279.967V250.55C157.942 237.393 165.667 231.505 173.328 231.505H271.315C273.07 231.502 274.753 230.804 275.994 229.563C277.235 228.321 277.932 226.638 277.933 224.884V156.026C277.939 151.804 279.619 147.757 282.606 144.771C285.592 141.786 289.641 140.106 293.864 140.1H298.855L308.075 140.015C309.761 139.993 311.372 139.31 312.559 138.111C313.745 136.913 314.413 135.296 314.417 133.61V31.0892C314.416 29.5923 313.821 28.157 312.762 27.0981C311.704 26.0392 310.269 25.4432 308.771 25.4408H217.581C216.083 25.443 214.648 26.0388 213.588 27.0976C212.529 28.1564 211.933 29.5918 211.931 31.0892V90.8374C211.926 95.4381 210.095 99.8489 206.841 103.102C203.587 106.355 199.175 108.185 194.573 108.191H173.625C169.023 108.185 164.611 106.355 161.357 103.102C158.103 99.8487 156.272 95.4381 156.267 90.8374V66.0014C156.265 64.4431 155.645 62.9491 154.543 61.8468C153.442 60.7445 151.948 60.1238 150.389 60.1208H73.1478C71.9602 60.1208 70.8212 59.6492 69.9815 58.8097C69.1417 57.9702 68.6699 56.8316 68.6699 55.6443C68.6699 54.4571 69.1417 53.3184 69.9815 52.4789C70.8212 51.6394 71.9602 51.1678 73.1478 51.1678H150.386C154.319 51.173 158.09 52.7376 160.871 55.5184C163.651 58.2993 165.215 62.0693 165.219 66.0014V90.8374C165.222 93.0652 166.109 95.201 167.684 96.7763C169.26 98.3516 171.397 99.2378 173.625 99.2406H194.573C196.801 99.2368 198.937 98.3501 200.512 96.775C202.087 95.1998 202.973 93.0646 202.975 90.8374V31.0892C202.98 27.2182 204.521 23.5071 207.259 20.7699C209.997 18.0327 213.709 16.4927 217.581 16.4877H308.774C312.645 16.4929 316.357 18.0331 319.094 20.7704C321.832 23.5077 323.371 27.2187 323.375 31.0892V31.0892Z" fill="#E3E9F1"/>
<path d="M317.389 123.674H309.361C309.166 123.686 308.971 123.659 308.787 123.593C308.603 123.527 308.435 123.424 308.292 123.291C308.15 123.157 308.036 122.996 307.959 122.817C307.881 122.638 307.841 122.445 307.841 122.249C307.841 122.054 307.881 121.861 307.959 121.682C308.036 121.503 308.15 121.341 308.292 121.208C308.435 121.074 308.603 120.972 308.787 120.906C308.971 120.84 309.166 120.812 309.361 120.825H317.389C317.584 120.812 317.779 120.84 317.963 120.906C318.147 120.972 318.315 121.074 318.458 121.208C318.6 121.341 318.714 121.503 318.792 121.682C318.869 121.861 318.909 122.054 318.909 122.249C318.909 122.445 318.869 122.638 318.792 122.817C318.714 122.996 318.6 123.157 318.458 123.291C318.315 123.424 318.147 123.527 317.963 123.593C317.779 123.659 317.584 123.686 317.389 123.674V123.674Z" fill="#CDD5DC"/>
<path d="M403.821 198.498H378.61L385.313 184.416H397.118L403.821 198.498Z" fill="#F1F5FB"/>
<path d="M401.969 197.302H380.462C379.214 197.302 378.203 198.313 378.203 199.56V221.545C378.203 222.792 379.214 223.803 380.462 223.803H401.969C403.217 223.803 404.228 222.792 404.228 221.545V199.56C404.228 198.313 403.217 197.302 401.969 197.302Z" fill="#FADAAF"/>
<path d="M181.084 234.512C180.705 234.512 180.342 234.361 180.074 234.094C179.807 233.826 179.656 233.463 179.656 233.085V225.062C179.68 224.7 179.84 224.361 180.105 224.113C180.369 223.865 180.718 223.728 181.081 223.728C181.444 223.728 181.793 223.865 182.057 224.113C182.322 224.361 182.482 224.7 182.506 225.062V233.088C182.505 233.465 182.355 233.826 182.089 234.093C181.822 234.36 181.461 234.51 181.084 234.512V234.512Z" fill="#CDD5DC"/>
<path d="M173.356 227.471C172.719 226.164 172.426 224.717 172.503 223.265C172.581 221.813 173.027 220.405 173.799 219.173C174.571 217.942 175.644 216.927 176.917 216.224C178.191 215.521 179.622 215.154 181.076 215.157C182.53 215.16 183.959 215.534 185.23 216.241C186.5 216.949 187.569 217.969 188.336 219.204C189.103 220.439 189.543 221.849 189.614 223.301C189.685 224.753 189.386 226.199 188.744 227.503L173.356 227.471Z" fill="#F9FBFF"/>
<path d="M188.743 228.722L173.356 228.69C173.127 228.689 172.904 228.625 172.711 228.504C172.517 228.382 172.362 228.21 172.262 228.005C171.55 226.544 171.213 224.929 171.281 223.306C171.349 221.683 171.821 220.102 172.653 218.707C173.484 217.311 174.651 216.145 176.046 215.312C177.442 214.479 179.023 214.007 180.646 213.938C182.344 213.867 184.031 214.238 185.541 215.016C187.052 215.794 188.333 216.952 189.261 218.375C190.188 219.798 190.729 221.438 190.83 223.134C190.932 224.83 190.59 226.522 189.839 228.046C189.737 228.249 189.581 228.42 189.387 228.54C189.194 228.659 188.971 228.722 188.743 228.722V228.722ZM174.165 226.25L187.947 226.279C188.369 225.143 188.504 223.92 188.338 222.719C188.173 221.518 187.714 220.377 187 219.397C186.287 218.417 185.342 217.628 184.25 217.102C183.158 216.575 181.952 216.327 180.741 216.379C179.586 216.429 178.458 216.751 177.451 217.318C176.443 217.886 175.584 218.683 174.942 219.645C174.301 220.607 173.896 221.707 173.76 222.855C173.624 224.003 173.761 225.167 174.16 226.252L174.165 226.25Z" fill="#FF6B70"/>
<path d="M275.95 55.4619C274.092 55.4619 272.275 54.9109 270.729 53.8786C269.184 52.8463 267.979 51.379 267.268 49.6623C266.557 47.9457 266.371 46.0567 266.733 44.2343C267.096 42.4119 267.991 40.7379 269.305 39.424C270.62 38.1102 272.294 37.2154 274.117 36.8529C275.94 36.4904 277.83 36.6764 279.547 37.3875C281.264 38.0986 282.732 39.3027 283.764 40.8477C284.797 42.3926 285.348 44.209 285.348 46.0671C285.345 48.5579 284.354 50.9459 282.592 52.7071C280.831 54.4684 278.442 55.4591 275.95 55.4619V55.4619ZM275.95 38.7097C274.494 38.7097 273.07 39.1415 271.859 39.9504C270.648 40.7593 269.704 41.9091 269.147 43.2543C268.589 44.5996 268.444 46.0798 268.728 47.5079C269.012 48.936 269.713 50.2477 270.743 51.2773C271.773 52.3069 273.085 53.0081 274.514 53.2921C275.942 53.5762 277.423 53.4304 278.769 52.8732C280.114 52.316 281.264 51.3724 282.074 50.1617C282.883 48.951 283.315 47.5277 283.315 46.0716C283.313 44.1193 282.537 42.2472 281.156 40.8665C279.776 39.4857 277.903 38.7092 275.95 38.7074V38.7097Z" fill="#FF6B70"/>
<path d="M284.331 46.8813H267.574C267.467 46.8813 267.361 46.8603 267.262 46.8194C267.163 46.7785 267.074 46.7186 266.998 46.643C266.923 46.5675 266.863 46.4778 266.822 46.3791C266.781 46.2804 266.76 46.1746 266.76 46.0677C266.76 45.9609 266.781 45.8551 266.822 45.7564C266.863 45.6577 266.923 45.568 266.998 45.4925C267.074 45.4169 267.163 45.357 267.262 45.3161C267.361 45.2752 267.467 45.2542 267.574 45.2542H284.331C284.547 45.2542 284.754 45.3399 284.906 45.4925C285.059 45.645 285.145 45.852 285.145 46.0677C285.145 46.2835 285.059 46.4905 284.906 46.643C284.754 46.7956 284.547 46.8813 284.331 46.8813V46.8813Z" fill="#FF6B70"/>
<path d="M280.142 54.1387C279.999 54.1389 279.858 54.1014 279.734 54.0299C279.61 53.9584 279.507 53.8555 279.435 53.7315L271.056 39.2195C270.953 39.0328 270.928 38.8134 270.985 38.6082C271.042 38.403 271.178 38.2284 271.362 38.1218C271.547 38.0153 271.766 37.9853 271.972 38.0383C272.179 38.0912 272.356 38.2229 272.466 38.4052L280.846 52.9157C280.899 53.0084 280.934 53.1107 280.948 53.2168C280.961 53.3229 280.954 53.4307 280.926 53.5339C280.898 53.6372 280.85 53.734 280.785 53.8186C280.72 53.9033 280.638 53.9743 280.545 54.0275C280.423 54.0995 280.284 54.1379 280.142 54.1387Z" fill="#FF6B70"/>
<path d="M271.76 54.1385C271.617 54.1385 271.476 54.1008 271.353 54.0293C271.229 53.9578 271.126 53.8551 271.055 53.7314C270.984 53.6076 270.946 53.4673 270.946 53.3245C270.946 53.1817 270.984 53.0414 271.056 52.9178L279.435 38.4072C279.545 38.225 279.723 38.0933 279.929 38.0403C280.136 37.9874 280.355 38.0174 280.539 38.1239C280.724 38.2305 280.859 38.4051 280.916 38.6103C280.974 38.8154 280.948 39.0349 280.845 39.2216L272.466 53.7291C272.395 53.8535 272.292 53.9568 272.168 54.0287C272.044 54.1006 271.903 54.1385 271.76 54.1385V54.1385Z" fill="#FF6B70"/>
<path d="M275.95 48.0875C275.55 48.0876 275.16 47.9693 274.827 47.7474C274.495 47.5255 274.236 47.2101 274.083 46.841C273.93 46.4719 273.89 46.0657 273.967 45.6738C274.045 45.2819 274.238 44.9219 274.52 44.6393C274.803 44.3567 275.163 44.1643 275.555 44.0863C275.947 44.0083 276.353 44.0482 276.722 44.2011C277.092 44.354 277.407 44.6129 277.629 44.9451C277.851 45.2773 277.97 45.6679 277.97 46.0674C277.969 46.6029 277.756 47.1162 277.378 47.4949C276.999 47.8736 276.486 48.0867 275.95 48.0875V48.0875ZM275.95 44.4546C275.631 44.4546 275.319 44.5492 275.054 44.7264C274.788 44.9036 274.582 45.1555 274.46 45.4502C274.337 45.7449 274.306 46.0692 274.368 46.3821C274.43 46.695 274.584 46.9823 274.809 47.2079C275.035 47.4335 275.322 47.5871 275.635 47.6493C275.948 47.7115 276.273 47.6796 276.568 47.5575C276.862 47.4355 277.114 47.2287 277.292 46.9635C277.469 46.6983 277.563 46.3864 277.563 46.0674C277.563 45.6398 277.393 45.2298 277.091 44.9274C276.788 44.625 276.378 44.455 275.95 44.4546Z" fill="#F1F5FB"/>
<path d="M336.027 142.991H344.546C345.489 142.991 346.254 142.227 346.254 141.284V138.793C346.254 137.85 345.489 137.086 344.546 137.086H336.027C335.084 137.086 334.319 137.85 334.319 138.793V141.284C334.319 142.227 335.084 142.991 336.027 142.991Z" fill="#E3E9F1"/>
<path d="M336.027 81.2869H344.546C345.489 81.2869 346.254 80.5224 346.254 79.5793V77.089C346.254 76.146 345.489 75.3815 344.546 75.3815H336.027C335.084 75.3815 334.319 76.146 334.319 77.089V79.5793C334.319 80.5224 335.084 81.2869 336.027 81.2869Z" fill="#E3E9F1"/>
<path d="M298.407 228.032H306.926C307.869 228.032 308.634 227.267 308.634 226.324V223.834C308.634 222.891 307.869 222.126 306.926 222.126H298.407C297.464 222.126 296.699 222.891 296.699 223.834V226.324C296.699 227.267 297.464 228.032 298.407 228.032Z" fill="#E3E9F1"/>
<path d="M75.6397 245.53H84.1582C85.1015 245.53 85.8662 244.766 85.8662 243.823V241.333C85.8662 240.39 85.1015 239.625 84.1582 239.625H75.6397C74.6964 239.625 73.9317 240.39 73.9317 241.333V243.823C73.9317 244.766 74.6964 245.53 75.6397 245.53Z" fill="#E3E9F1"/>
<path d="M138.513 183.42H147.031C147.975 183.42 148.739 182.655 148.739 181.712V179.222C148.739 178.279 147.975 177.515 147.031 177.515H138.513C137.569 177.515 136.805 178.279 136.805 179.222V181.712C136.805 182.655 137.569 183.42 138.513 183.42Z" fill="#E3E9F1"/>
<path d="M204.64 163.42H213.158C214.101 163.42 214.866 162.655 214.866 161.712V159.222C214.866 158.279 214.101 157.515 213.158 157.515H204.64C203.696 157.515 202.932 158.279 202.932 159.222V161.712C202.932 162.655 203.696 163.42 204.64 163.42Z" fill="#E3E9F1"/>
<path d="M276.249 267.301V275.817C276.249 276.76 277.014 277.524 277.957 277.524H280.448C281.391 277.524 282.156 276.76 282.156 275.817V267.301C282.156 266.358 281.391 265.593 280.448 265.593H277.957C277.014 265.593 276.249 266.358 276.249 267.301Z" fill="#E3E9F1"/>
<path d="M185.256 260.213V268.729C185.256 269.672 186.021 270.437 186.964 270.437H189.455C190.398 270.437 191.163 269.672 191.163 268.729V260.213C191.163 259.27 190.398 258.506 189.455 258.506H186.964C186.021 258.506 185.256 259.27 185.256 260.213Z" fill="#E3E9F1"/>
<path d="M293.606 41.8095V50.3253C293.606 51.2684 294.371 52.0329 295.314 52.0329H297.806C298.749 52.0329 299.514 51.2684 299.514 50.3253V41.8095C299.514 40.8665 298.749 40.102 297.806 40.102H295.314C294.371 40.102 293.606 40.8665 293.606 41.8095Z" fill="#E3E9F1"/>
<path d="M286.366 16.7068V25.2226C286.366 26.1656 287.131 26.9301 288.074 26.9301H290.565C291.509 26.9301 292.273 26.1656 292.273 25.2226V16.7068C292.273 15.7637 291.509 14.9992 290.565 14.9992H288.074C287.131 14.9992 286.366 15.7637 286.366 16.7068Z" fill="#CDD5DC"/>
<path d="M121.599 51.1615V59.6773C121.599 60.6203 122.363 61.3848 123.307 61.3848H125.798C126.741 61.3848 127.506 60.6203 127.506 59.6773V51.1615C127.506 50.2184 126.741 49.4539 125.798 49.4539H123.307C122.363 49.4539 121.599 50.2184 121.599 51.1615Z" fill="#CDD5DC"/>
<path d="M202.977 71.3605H211.495C212.438 71.3605 213.203 70.596 213.203 69.653V67.1627C213.203 66.2197 212.438 65.4552 211.495 65.4552H202.977C202.033 65.4552 201.269 66.2197 201.269 67.1627V69.653C201.269 70.596 202.033 71.3605 202.977 71.3605Z" fill="#CDD5DC"/>
<path d="M252.387 41.8095V50.3253C252.387 51.2684 253.151 52.0329 254.095 52.0329H256.586C257.529 52.0329 258.294 51.2684 258.294 50.3253V41.8095C258.294 40.8665 257.529 40.102 256.586 40.102H254.095C253.151 40.102 252.387 40.8665 252.387 41.8095Z" fill="#E3E9F1"/>
<path d="M180.976 221.855C180.646 221.484 180.329 221.096 180.011 220.707C179.975 220.658 179.923 220.622 179.863 220.606C179.804 220.59 179.741 220.595 179.685 220.621C179.628 220.646 179.582 220.689 179.555 220.744C179.527 220.799 179.518 220.862 179.531 220.922C179.606 221.418 179.688 221.912 179.745 222.406C179.717 223.115 179.876 223.818 180.205 224.447C180.346 224.67 180.563 224.835 180.816 224.912C181.07 224.988 181.342 224.971 181.583 224.863C181.824 224.755 182.018 224.564 182.13 224.324C182.242 224.085 182.263 223.813 182.191 223.559C181.942 222.894 181.523 222.307 180.976 221.855V221.855Z" fill="#B5BDC2"/>
<path d="M181.113 225C181.787 225 182.333 224.454 182.333 223.78C182.333 223.107 181.787 222.561 181.113 222.561C180.44 222.561 179.894 223.107 179.894 223.78C179.894 224.454 180.44 225 181.113 225Z" fill="#B5BDC2"/>
<path d="M181.117 225.406C180.803 225.406 180.495 225.316 180.231 225.145C179.967 224.974 179.758 224.731 179.629 224.445V224.445C179.485 224.124 179.449 223.765 179.525 223.423C179.602 223.08 179.788 222.771 180.054 222.542C180.321 222.313 180.654 222.176 181.005 222.153C181.356 222.129 181.705 222.219 182 222.41C182.295 222.6 182.521 222.882 182.643 223.211C182.765 223.54 182.778 223.901 182.678 224.238C182.579 224.575 182.373 224.871 182.092 225.081C181.811 225.292 181.469 225.406 181.117 225.406V225.406ZM180.373 224.112C180.439 224.258 180.546 224.382 180.682 224.468C180.819 224.553 180.977 224.596 181.137 224.592C181.298 224.587 181.454 224.535 181.585 224.442C181.716 224.349 181.816 224.22 181.874 224.07C181.931 223.92 181.942 223.756 181.907 223.599C181.871 223.443 181.789 223.3 181.673 223.19C181.556 223.08 181.409 223.006 181.251 222.98C181.092 222.953 180.929 222.973 180.783 223.039C180.586 223.127 180.433 223.29 180.356 223.491C180.279 223.692 180.285 223.915 180.373 224.112V224.112Z" fill="#FF6B70"/>
<path d="M175.62 223.743C175.567 223.74 175.515 223.726 175.468 223.703C175.42 223.68 175.377 223.648 175.342 223.608C175.308 223.568 175.281 223.522 175.264 223.472C175.247 223.422 175.24 223.369 175.244 223.316L175.249 223.272L175.256 223.189C175.265 223.082 175.316 222.984 175.398 222.915C175.48 222.845 175.585 222.811 175.692 222.819H175.697C175.75 222.824 175.802 222.839 175.849 222.864C175.897 222.888 175.939 222.922 175.973 222.963C176.008 223.004 176.033 223.051 176.049 223.102C176.065 223.153 176.071 223.207 176.066 223.26L176.058 223.357C176.05 223.465 176 223.567 175.918 223.639C175.836 223.711 175.729 223.749 175.62 223.743V223.743ZM186.052 223.764C185.954 223.757 185.863 223.715 185.794 223.646C185.725 223.578 185.683 223.486 185.676 223.389L185.668 223.292C185.662 223.238 185.666 223.183 185.681 223.131C185.696 223.079 185.722 223.03 185.756 222.988C185.79 222.945 185.833 222.91 185.88 222.885C185.928 222.859 185.981 222.843 186.035 222.838C186.089 222.833 186.144 222.839 186.196 222.856C186.248 222.872 186.296 222.899 186.337 222.934C186.378 222.969 186.412 223.012 186.437 223.061C186.461 223.11 186.476 223.163 186.479 223.217L186.487 223.323C186.492 223.377 186.485 223.43 186.468 223.481C186.452 223.532 186.425 223.579 186.39 223.62C186.355 223.66 186.313 223.694 186.265 223.718C186.217 223.742 186.165 223.756 186.112 223.76C186.092 223.763 186.072 223.764 186.052 223.764V223.764ZM176.033 222.061C175.987 222.058 175.943 222.047 175.902 222.029C175.803 221.986 175.725 221.905 175.685 221.805C175.646 221.705 175.648 221.593 175.691 221.493L175.717 221.435C175.761 221.334 175.842 221.255 175.943 221.213C176.045 221.171 176.159 221.169 176.261 221.21C176.31 221.228 176.354 221.257 176.392 221.294C176.429 221.33 176.459 221.374 176.48 221.422C176.5 221.471 176.51 221.522 176.51 221.575C176.51 221.627 176.499 221.679 176.478 221.727L176.461 221.765L176.438 221.819C176.404 221.896 176.346 221.961 176.274 222.005C176.201 222.048 176.117 222.068 176.033 222.061V222.061ZM185.651 222.092C185.577 222.087 185.505 222.061 185.444 222.017C185.384 221.974 185.336 221.914 185.307 221.846L185.269 221.761C185.247 221.712 185.235 221.66 185.234 221.606C185.232 221.553 185.241 221.499 185.26 221.449C185.279 221.399 185.308 221.354 185.344 221.315C185.381 221.276 185.425 221.244 185.474 221.222C185.523 221.2 185.575 221.188 185.629 221.187C185.682 221.185 185.735 221.194 185.785 221.213C185.835 221.232 185.881 221.261 185.92 221.297C185.959 221.334 185.991 221.378 186.013 221.427L186.056 221.527C186.098 221.627 186.099 221.739 186.059 221.839C186.019 221.939 185.94 222.019 185.841 222.061C185.781 222.087 185.716 222.097 185.651 222.092V222.092ZM176.966 220.616C176.891 220.61 176.819 220.582 176.758 220.537C176.697 220.492 176.65 220.431 176.622 220.361C176.594 220.291 176.586 220.215 176.599 220.14C176.612 220.066 176.646 219.996 176.696 219.94L176.771 219.858C176.846 219.783 176.948 219.741 177.054 219.74C177.16 219.739 177.262 219.779 177.339 219.853C177.416 219.926 177.461 220.026 177.465 220.132C177.469 220.238 177.431 220.341 177.36 220.42L177.299 220.487C177.257 220.532 177.205 220.568 177.147 220.59C177.09 220.612 177.027 220.621 176.966 220.616V220.616ZM184.726 220.642C184.621 220.634 184.522 220.585 184.453 220.506L184.391 220.438C184.322 220.358 184.287 220.255 184.292 220.15C184.298 220.044 184.344 219.945 184.421 219.874C184.499 219.802 184.601 219.763 184.706 219.765C184.812 219.766 184.912 219.809 184.987 219.884L185.062 219.966C185.116 220.027 185.151 220.102 185.162 220.183C185.173 220.263 185.159 220.345 185.123 220.418C185.087 220.491 185.03 220.551 184.959 220.591C184.888 220.631 184.807 220.649 184.726 220.642V220.642ZM178.318 219.552C178.23 219.545 178.148 219.51 178.082 219.453C178.016 219.395 177.97 219.318 177.951 219.233C177.932 219.147 177.942 219.058 177.978 218.978C178.014 218.898 178.074 218.832 178.151 218.79L178.247 218.738C178.294 218.71 178.347 218.692 178.402 218.685C178.456 218.678 178.511 218.683 178.564 218.698C178.617 218.713 178.666 218.738 178.709 218.773C178.752 218.807 178.787 218.85 178.813 218.899C178.839 218.947 178.854 219 178.859 219.055C178.863 219.11 178.857 219.165 178.84 219.217C178.822 219.269 178.795 219.318 178.758 219.359C178.722 219.4 178.678 219.433 178.628 219.457L178.546 219.501C178.477 219.54 178.397 219.558 178.318 219.552V219.552ZM183.382 219.567C183.324 219.562 183.267 219.545 183.216 219.516L183.134 219.472C183.085 219.448 183.041 219.414 183.005 219.373C182.97 219.332 182.943 219.284 182.926 219.232C182.909 219.18 182.903 219.125 182.908 219.071C182.912 219.017 182.928 218.964 182.954 218.916C182.979 218.867 183.014 218.825 183.057 218.791C183.099 218.756 183.148 218.731 183.2 218.715C183.253 218.7 183.307 218.696 183.362 218.702C183.416 218.709 183.468 218.726 183.515 218.753L183.612 218.806C183.693 218.851 183.756 218.923 183.791 219.009C183.825 219.094 183.83 219.19 183.803 219.278C183.776 219.367 183.72 219.444 183.643 219.496C183.567 219.549 183.475 219.574 183.382 219.567V219.567ZM179.941 218.982C179.842 218.974 179.75 218.93 179.681 218.859C179.612 218.788 179.572 218.694 179.567 218.595C179.562 218.496 179.594 218.399 179.656 218.322C179.718 218.245 179.806 218.193 179.903 218.175L180.008 218.158C180.114 218.143 180.221 218.171 180.306 218.234C180.392 218.297 180.449 218.392 180.466 218.497C180.483 218.602 180.458 218.709 180.397 218.796C180.335 218.883 180.242 218.943 180.138 218.962L180.041 218.978C180.008 218.984 179.974 218.985 179.941 218.982V218.982ZM181.762 218.988C181.749 218.987 181.736 218.986 181.723 218.984L181.628 218.968C181.574 218.96 181.522 218.942 181.476 218.915C181.429 218.887 181.388 218.85 181.356 218.807C181.324 218.763 181.301 218.714 181.288 218.661C181.275 218.608 181.273 218.553 181.281 218.5C181.29 218.446 181.309 218.395 181.338 218.349C181.367 218.303 181.404 218.263 181.449 218.232C181.493 218.201 181.543 218.179 181.596 218.167C181.649 218.155 181.704 218.154 181.757 218.164L181.862 218.182C181.966 218.199 182.06 218.255 182.123 218.34C182.186 218.424 182.214 218.529 182.201 218.634C182.188 218.738 182.135 218.834 182.053 218.9C181.971 218.966 181.867 218.998 181.762 218.988V218.988Z" fill="#CD2026"/>
<path d="M390.422 213.35C390.523 213.461 390.645 213.55 390.782 213.61C390.919 213.671 391.067 213.703 391.216 213.703H391.222H391.229C391.356 213.7 391.482 213.675 391.6 213.628C391.614 213.622 391.628 213.619 391.642 213.613C391.758 213.563 391.863 213.493 391.954 213.406C391.964 213.397 391.977 213.394 391.987 213.385L395.439 209.934C395.641 209.731 395.755 209.456 395.755 209.17C395.755 208.883 395.641 208.609 395.439 208.406C395.236 208.203 394.961 208.09 394.674 208.09C394.388 208.09 394.113 208.203 393.91 208.406L392.297 210.019V204.668C392.289 204.386 392.172 204.119 391.97 203.922C391.769 203.725 391.498 203.615 391.216 203.615C390.934 203.615 390.663 203.725 390.461 203.922C390.26 204.119 390.142 204.386 390.135 204.668V210.008L388.518 208.394C388.315 208.191 388.04 208.077 387.754 208.077C387.467 208.077 387.192 208.191 386.989 208.394C386.787 208.597 386.673 208.871 386.673 209.158C386.673 209.444 386.787 209.719 386.989 209.922L390.422 213.35Z" fill="#FF6B70"/>
<path d="M396.444 212.299C396.157 212.299 395.883 212.412 395.68 212.615C395.477 212.818 395.363 213.092 395.363 213.379V215.182H387.068V213.379C387.061 213.097 386.944 212.829 386.742 212.633C386.54 212.436 386.269 212.326 385.987 212.326C385.705 212.326 385.435 212.436 385.233 212.633C385.031 212.829 384.914 213.097 384.906 213.379V216.26C384.906 216.547 385.02 216.822 385.223 217.024C385.426 217.227 385.701 217.341 385.988 217.341H396.444C396.731 217.341 397.006 217.227 397.208 217.024C397.411 216.822 397.525 216.547 397.525 216.26V213.379C397.525 213.092 397.411 212.817 397.208 212.615C397.006 212.412 396.731 212.299 396.444 212.299V212.299Z" fill="#FF6B70"/>
<path d="M303.037 129.51C307.072 129.51 310.344 126.24 310.344 122.205C310.344 118.171 307.072 114.9 303.037 114.9C299.001 114.9 295.729 118.171 295.729 122.205C295.729 126.24 299.001 129.51 303.037 129.51Z" fill="#F9FBFF"/>
<path d="M303.036 130.528C301.389 130.528 299.78 130.04 298.411 129.126C297.041 128.211 295.974 126.911 295.344 125.391C294.714 123.87 294.549 122.196 294.87 120.582C295.191 118.967 295.984 117.484 297.148 116.32C298.312 115.156 299.796 114.363 301.411 114.042C303.026 113.721 304.7 113.886 306.221 114.516C307.742 115.146 309.043 116.212 309.957 117.581C310.872 118.95 311.361 120.559 311.361 122.205C311.358 124.412 310.48 126.527 308.92 128.087C307.359 129.648 305.243 130.525 303.036 130.528V130.528ZM303.036 115.918C301.792 115.918 300.576 116.287 299.541 116.977C298.507 117.668 297.701 118.65 297.225 119.799C296.748 120.948 296.624 122.213 296.866 123.432C297.109 124.652 297.708 125.772 298.588 126.652C299.468 127.531 300.588 128.13 301.808 128.373C303.029 128.615 304.293 128.491 305.443 128.015C306.592 127.539 307.574 126.733 308.265 125.699C308.956 124.664 309.325 123.449 309.325 122.205C309.323 120.538 308.66 118.94 307.481 117.762C306.302 116.583 304.703 115.92 303.036 115.918V115.918Z" fill="#FF6B70"/>
<path d="M303.658 127.077C303.577 127.072 303.5 127.037 303.442 126.978C303.385 126.92 303.352 126.842 303.348 126.76C303.345 126.678 303.373 126.598 303.426 126.535C303.478 126.472 303.552 126.431 303.634 126.42L303.679 126.413C303.764 126.404 303.849 126.428 303.917 126.48C303.984 126.532 304.029 126.608 304.042 126.692C304.055 126.776 304.035 126.862 303.986 126.932C303.937 127.002 303.863 127.05 303.779 127.067L303.727 127.074C303.704 127.078 303.681 127.079 303.658 127.077V127.077ZM301.034 126.681C300.993 126.678 300.952 126.667 300.914 126.649L300.864 126.625C300.826 126.606 300.791 126.579 300.762 126.547C300.734 126.514 300.712 126.476 300.698 126.435C300.684 126.394 300.678 126.35 300.681 126.307C300.684 126.264 300.695 126.221 300.715 126.182C300.734 126.143 300.761 126.109 300.793 126.08C300.826 126.052 300.864 126.03 300.905 126.016C300.946 126.002 300.99 125.996 301.033 125.999C301.076 126.002 301.119 126.013 301.158 126.032L301.197 126.052C301.267 126.085 301.323 126.141 301.356 126.211C301.388 126.28 301.396 126.359 301.376 126.434C301.357 126.508 301.312 126.574 301.25 126.619C301.187 126.664 301.111 126.686 301.034 126.681V126.681ZM306.099 125.918C306.056 125.915 306.014 125.904 305.976 125.886C305.937 125.867 305.902 125.841 305.874 125.809C305.815 125.744 305.784 125.658 305.789 125.571C305.793 125.483 305.832 125.401 305.897 125.342L305.929 125.313C305.959 125.28 305.997 125.253 306.038 125.235C306.08 125.217 306.125 125.208 306.17 125.208C306.215 125.208 306.26 125.217 306.302 125.235C306.343 125.253 306.381 125.279 306.412 125.312C306.443 125.346 306.466 125.385 306.482 125.427C306.497 125.47 306.503 125.515 306.5 125.56C306.497 125.606 306.485 125.65 306.464 125.69C306.443 125.73 306.414 125.766 306.379 125.794L306.337 125.833C306.272 125.891 306.187 125.922 306.099 125.918ZM299.046 124.851C298.992 124.847 298.94 124.831 298.894 124.803C298.848 124.775 298.81 124.736 298.782 124.689L298.755 124.642C298.712 124.566 298.7 124.475 298.724 124.391C298.747 124.306 298.803 124.234 298.879 124.191C298.955 124.147 299.045 124.136 299.13 124.159C299.215 124.182 299.287 124.238 299.33 124.314L299.352 124.353C299.396 124.428 299.408 124.518 299.386 124.602C299.365 124.687 299.31 124.759 299.235 124.804C299.179 124.838 299.112 124.855 299.046 124.851V124.851ZM307.462 123.585C307.445 123.584 307.427 123.581 307.41 123.578C307.368 123.568 307.328 123.55 307.292 123.525C307.257 123.5 307.227 123.468 307.204 123.431C307.18 123.395 307.165 123.354 307.157 123.311C307.15 123.268 307.151 123.224 307.161 123.182L307.171 123.134C307.191 123.048 307.243 122.974 307.317 122.927C307.392 122.88 307.481 122.864 307.567 122.884C307.653 122.903 307.727 122.956 307.774 123.03C307.821 123.104 307.836 123.194 307.817 123.279L307.806 123.327C307.788 123.404 307.744 123.472 307.681 123.519C307.619 123.567 307.541 123.59 307.462 123.585V123.585ZM298.433 122.249C298.345 122.243 298.264 122.202 298.206 122.136C298.148 122.071 298.119 121.984 298.125 121.897V121.841C298.132 121.755 298.173 121.675 298.239 121.619C298.305 121.563 298.389 121.535 298.476 121.54H298.482C298.526 121.544 298.568 121.556 298.606 121.576C298.645 121.596 298.679 121.623 298.707 121.657C298.735 121.69 298.756 121.728 298.769 121.77C298.782 121.811 298.787 121.855 298.783 121.898V121.941C298.777 122.028 298.737 122.109 298.671 122.167C298.606 122.225 298.52 122.254 298.433 122.249V122.249ZM307.029 120.276C306.966 120.281 306.902 120.268 306.846 120.238C306.79 120.208 306.743 120.163 306.712 120.107L306.691 120.071C306.647 119.995 306.635 119.905 306.657 119.82C306.679 119.735 306.734 119.663 306.81 119.619C306.886 119.574 306.976 119.562 307.061 119.584C307.146 119.607 307.218 119.662 307.262 119.737L307.291 119.786C307.318 119.834 307.332 119.889 307.332 119.944C307.333 119.999 307.319 120.053 307.293 120.102C307.267 120.151 307.23 120.192 307.184 120.223C307.137 120.253 307.084 120.271 307.029 120.276V120.276ZM299.396 119.725C299.33 119.721 299.266 119.697 299.214 119.655C299.18 119.629 299.151 119.595 299.13 119.558C299.109 119.52 299.095 119.478 299.089 119.435C299.084 119.392 299.087 119.348 299.099 119.306C299.111 119.265 299.13 119.225 299.157 119.191L299.193 119.147C299.22 119.112 299.254 119.083 299.293 119.062C299.331 119.04 299.373 119.027 299.417 119.022C299.461 119.017 299.505 119.021 299.547 119.033C299.59 119.046 299.629 119.067 299.663 119.094C299.697 119.122 299.725 119.157 299.746 119.196C299.767 119.235 299.779 119.277 299.783 119.321C299.787 119.365 299.782 119.409 299.769 119.451C299.755 119.493 299.734 119.532 299.705 119.565L299.679 119.598C299.645 119.641 299.602 119.675 299.553 119.697C299.503 119.719 299.449 119.728 299.395 119.725H299.396ZM301.615 118.183C301.538 118.177 301.466 118.145 301.411 118.092C301.355 118.038 301.32 117.967 301.311 117.891C301.302 117.815 301.32 117.737 301.362 117.673C301.404 117.608 301.467 117.56 301.54 117.537L301.588 117.522C301.672 117.496 301.763 117.504 301.84 117.545C301.918 117.586 301.976 117.656 302.002 117.74C302.028 117.824 302.02 117.914 301.979 117.992C301.938 118.069 301.868 118.128 301.784 118.154L301.738 118.169C301.698 118.181 301.657 118.186 301.615 118.183V118.183ZM304.696 118.306C304.67 118.302 304.645 118.295 304.621 118.285L304.58 118.269C304.499 118.237 304.433 118.173 304.398 118.093C304.363 118.012 304.361 117.921 304.393 117.84C304.425 117.758 304.489 117.692 304.569 117.657C304.65 117.622 304.741 117.621 304.822 117.653L304.874 117.674C304.949 117.704 305.01 117.761 305.045 117.834C305.081 117.907 305.089 117.99 305.067 118.068C305.046 118.145 304.996 118.213 304.928 118.257C304.861 118.301 304.779 118.318 304.699 118.306H304.696Z" fill="#A1191D"/>
<path d="M302.995 122.853C302.875 122.853 302.757 122.817 302.657 122.75C302.556 122.683 302.478 122.587 302.432 122.476C302.386 122.364 302.374 122.242 302.397 122.124C302.421 122.005 302.479 121.897 302.564 121.811L304.613 119.762C304.728 119.647 304.883 119.583 305.045 119.583C305.207 119.583 305.362 119.647 305.477 119.762C305.591 119.876 305.655 120.032 305.655 120.193C305.655 120.355 305.591 120.511 305.477 120.625L303.427 122.674C303.313 122.789 303.157 122.853 302.995 122.853V122.853Z" fill="#FF6B70"/>
<path d="M303.036 123.477C303.739 123.477 304.308 122.907 304.308 122.205C304.308 121.502 303.739 120.933 303.036 120.933C302.333 120.933 301.764 121.502 301.764 122.205C301.764 122.907 302.333 123.477 303.036 123.477Z" fill="#FF6B70"/>
<path d="M367.792 290.516V290.521H367.215C367.214 290.52 367.214 290.519 367.214 290.519C367.214 290.518 367.214 290.517 367.215 290.516H367.792Z" fill="#F9FBFF"/>
<path d="M450.507 307.539H401.228C400.868 307.539 400.523 307.396 400.269 307.142C400.014 306.887 399.871 306.542 399.871 306.183V306.183C399.871 305.823 400.014 305.478 400.269 305.224C400.523 304.97 400.868 304.827 401.228 304.827H406.702C407.438 304.839 408.153 304.579 408.709 304.096C409.265 303.613 409.623 302.942 409.713 302.212C409.753 301.809 409.708 301.402 409.581 301.018C409.454 300.634 409.248 300.28 408.976 299.98C408.704 299.68 408.373 299.441 408.002 299.277C407.632 299.113 407.232 299.028 406.827 299.028H300.851C300.115 299.016 299.401 299.276 298.845 299.759C298.289 300.241 297.931 300.912 297.84 301.642C297.8 302.045 297.845 302.452 297.972 302.836C298.099 303.221 298.305 303.574 298.577 303.874C298.849 304.174 299.181 304.414 299.551 304.578C299.921 304.742 300.322 304.827 300.726 304.827H374.783C374.961 304.827 375.137 304.862 375.301 304.93C375.466 304.998 375.615 305.098 375.741 305.224C375.866 305.35 375.966 305.5 376.034 305.664C376.101 305.829 376.136 306.005 376.135 306.183V306.183C376.136 306.361 376.101 306.537 376.034 306.701C375.966 306.866 375.866 307.015 375.741 307.141C375.615 307.267 375.466 307.367 375.301 307.435C375.137 307.504 374.961 307.539 374.783 307.539H331.476C330.74 307.526 330.025 307.787 329.469 308.269C328.914 308.752 328.556 309.423 328.465 310.153C328.425 310.556 328.47 310.962 328.597 311.347C328.724 311.731 328.93 312.085 329.202 312.385C329.474 312.685 329.806 312.924 330.176 313.088C330.546 313.253 330.946 313.337 331.351 313.337H450.632C451.037 313.337 451.437 313.252 451.807 313.088C452.177 312.924 452.508 312.685 452.78 312.385C453.052 312.085 453.258 311.732 453.385 311.348C453.512 310.964 453.557 310.557 453.518 310.154C453.427 309.424 453.07 308.753 452.514 308.27C451.958 307.787 451.244 307.527 450.507 307.539V307.539Z" fill="#F1F5FB"/>
<path d="M435.569 299.028H417.636C416.035 299.028 414.736 300.326 414.736 301.927C414.736 303.528 416.035 304.826 417.636 304.826H435.569C437.17 304.826 438.469 303.528 438.469 301.927C438.469 300.326 437.17 299.028 435.569 299.028Z" fill="#F9FBFF"/>
<path d="M416.655 317.202H362.584C360.983 317.202 359.685 318.5 359.685 320.101C359.685 321.702 360.983 323 362.584 323H416.655C418.257 323 419.555 321.702 419.555 320.101C419.555 318.5 418.257 317.202 416.655 317.202Z" fill="#F1F5FB"/>
<path d="M364.021 243.656H354.19C353.951 243.656 353.722 243.561 353.552 243.392C353.383 243.223 353.288 242.994 353.288 242.755V242.755C353.288 242.516 353.383 242.286 353.552 242.117C353.722 241.948 353.951 241.853 354.19 241.853H359.631C360.069 241.862 360.496 241.708 360.827 241.42C361.158 241.132 361.371 240.732 361.424 240.296C361.445 240.059 361.416 239.821 361.34 239.596C361.264 239.371 361.142 239.164 360.982 238.989C360.822 238.814 360.627 238.674 360.409 238.578C360.192 238.482 359.957 238.433 359.719 238.433H335.394C334.955 238.424 334.529 238.579 334.198 238.867C333.866 239.154 333.654 239.555 333.601 239.99C333.58 240.227 333.608 240.465 333.684 240.69C333.76 240.915 333.882 241.122 334.043 241.297C334.203 241.472 334.398 241.612 334.615 241.708C334.833 241.804 335.068 241.853 335.305 241.853H345.409C345.648 241.853 345.877 241.948 346.046 242.117C346.215 242.286 346.31 242.516 346.31 242.755V242.755C346.31 242.994 346.215 243.223 346.046 243.392C345.877 243.561 345.648 243.656 345.409 243.656H339.787C339.348 243.648 338.922 243.802 338.591 244.09C338.259 244.378 338.047 244.778 337.994 245.213C337.973 245.45 338.001 245.688 338.077 245.913C338.153 246.138 338.275 246.345 338.436 246.52C338.596 246.696 338.791 246.836 339.008 246.931C339.226 247.027 339.461 247.077 339.698 247.076H342.872C342.989 247.076 343.106 247.1 343.215 247.145C343.323 247.19 343.422 247.256 343.505 247.339C343.589 247.422 343.654 247.521 343.699 247.63C343.744 247.739 343.768 247.855 343.767 247.973V247.973C343.767 248.215 343.671 248.447 343.5 248.618C343.329 248.789 343.097 248.885 342.854 248.885H329.466C329.027 248.877 328.601 249.031 328.27 249.319C327.938 249.607 327.726 250.007 327.673 250.443C327.652 250.679 327.68 250.918 327.756 251.143C327.832 251.368 327.954 251.574 328.114 251.75C328.275 251.925 328.47 252.065 328.687 252.161C328.905 252.256 329.14 252.306 329.377 252.306H353.702C354.141 252.315 354.567 252.16 354.899 251.873C355.23 251.585 355.443 251.185 355.495 250.749C355.517 250.513 355.488 250.274 355.412 250.049C355.336 249.824 355.214 249.617 355.054 249.442C354.894 249.266 354.699 249.126 354.481 249.031C354.264 248.935 354.029 248.885 353.791 248.885H349.518C349.278 248.885 349.049 248.79 348.88 248.621C348.711 248.452 348.616 248.223 348.616 247.984V247.984C348.616 247.745 348.711 247.516 348.88 247.347C349.049 247.177 349.278 247.083 349.518 247.083H364.111C364.349 247.083 364.584 247.033 364.801 246.937C365.019 246.842 365.214 246.702 365.374 246.526C365.535 246.351 365.657 246.144 365.733 245.919C365.809 245.694 365.837 245.456 365.816 245.219C365.764 244.782 365.552 244.38 365.22 244.091C364.888 243.802 364.461 243.647 364.021 243.656Z" fill="#F9FBFF"/>
<path d="M333.282 244.236H326.676C326.051 244.236 325.544 244.742 325.544 245.367C325.544 245.992 326.051 246.498 326.676 246.498H333.282C333.907 246.498 334.413 245.992 334.413 245.367C334.413 244.742 333.907 244.236 333.282 244.236Z" fill="#F9FBFF"/>
<path d="M446.697 229.543H440.091C439.466 229.543 438.959 230.049 438.959 230.674C438.959 231.299 439.466 231.806 440.091 231.806H446.697C447.322 231.806 447.828 231.299 447.828 230.674C447.828 230.049 447.322 229.543 446.697 229.543Z" fill="#F9FBFF"/>
<path d="M370.849 239.177H366.779C366.154 239.177 365.647 239.684 365.647 240.309C365.647 240.934 366.154 241.44 366.779 241.44H370.849C371.474 241.44 371.981 240.934 371.981 240.309C371.981 239.684 371.474 239.177 370.849 239.177Z" fill="#F9FBFF"/>
<path d="M436.626 250.785H432.557C431.932 250.785 431.425 251.292 431.425 251.917C431.425 252.541 431.932 253.048 432.557 253.048H436.626C437.251 253.048 437.758 252.541 437.758 251.917C437.758 251.292 437.251 250.785 436.626 250.785Z" fill="#F9FBFF"/>
<path d="M422.258 227.382H414.806C414.181 227.382 413.675 227.889 413.675 228.514C413.675 229.138 414.181 229.645 414.806 229.645H422.258C422.883 229.645 423.39 229.138 423.39 228.514C423.39 227.889 422.883 227.382 422.258 227.382Z" fill="#F9FBFF"/>
<path d="M442.915 245.933H435.399C434.605 245.933 433.961 246.577 433.961 247.371C433.961 248.164 434.605 248.808 435.399 248.808H442.915C443.71 248.808 444.354 248.164 444.354 247.371C444.354 246.577 443.71 245.933 442.915 245.933Z" fill="#F9FBFF"/>
<path d="M436.99 238.188H425.306C425.17 238.188 425.036 238.161 424.911 238.109C424.786 238.057 424.672 237.981 424.576 237.885C424.48 237.789 424.404 237.676 424.352 237.55C424.3 237.425 424.273 237.291 424.273 237.155V237.155C424.274 236.882 424.383 236.619 424.576 236.426C424.77 236.233 425.032 236.124 425.306 236.124H428.694C429.173 236.132 429.638 235.963 430 235.649C430.362 235.334 430.595 234.898 430.654 234.422C430.68 234.16 430.65 233.896 430.568 233.646C430.485 233.396 430.351 233.165 430.174 232.97C429.997 232.775 429.781 232.619 429.54 232.512C429.3 232.406 429.039 232.351 428.775 232.351H409.937C409.458 232.343 408.993 232.513 408.631 232.828C408.27 233.143 408.038 233.58 407.98 234.056C407.954 234.318 407.983 234.583 408.066 234.833C408.149 235.083 408.283 235.313 408.46 235.508C408.637 235.703 408.853 235.859 409.093 235.966C409.334 236.073 409.595 236.128 409.858 236.128H419.364C419.637 236.128 419.9 236.236 420.093 236.43C420.287 236.623 420.395 236.886 420.395 237.159V237.159C420.395 237.433 420.287 237.695 420.093 237.889C419.9 238.082 419.637 238.191 419.364 238.191H418.236C417.757 238.183 417.292 238.353 416.931 238.667C416.569 238.981 416.336 239.418 416.277 239.893C416.251 240.155 416.281 240.42 416.364 240.67C416.446 240.92 416.58 241.15 416.757 241.345C416.934 241.54 417.15 241.696 417.391 241.803C417.632 241.91 417.892 241.965 418.156 241.965H437.075C437.339 241.965 437.599 241.91 437.84 241.803C438.081 241.696 438.297 241.54 438.474 241.345C438.651 241.15 438.785 240.92 438.868 240.67C438.95 240.42 438.98 240.155 438.954 239.893C438.895 239.416 438.662 238.978 438.3 238.663C437.937 238.348 437.471 238.179 436.99 238.188V238.188Z" fill="#F9FBFF"/>
<path d="M219.749 231.463V239.979C219.749 240.922 220.514 241.686 221.457 241.686H223.948C224.891 241.686 225.656 240.922 225.656 239.979V231.463C225.656 230.52 224.891 229.756 223.948 229.756H221.457C220.514 229.756 219.749 230.52 219.749 231.463Z" fill="#CDD5DC"/>
<path d="M118.012 111.412H126.53C127.474 111.412 128.238 110.647 128.238 109.704V107.214C128.238 106.271 127.474 105.506 126.53 105.506H118.012C117.068 105.506 116.304 106.271 116.304 107.214V109.704C116.304 110.647 117.068 111.412 118.012 111.412Z" fill="#CDD5DC"/>
<path d="M297.727 140.127V148.643C297.727 149.586 298.491 150.35 299.435 150.35H301.926C302.869 150.35 303.634 149.586 303.634 148.643V140.127C303.634 139.184 302.869 138.419 301.926 138.419H299.435C298.491 138.419 297.727 139.184 297.727 140.127Z" fill="#CDD5DC"/>
<path d="M314.64 106.737H323.158C324.101 106.737 324.866 105.972 324.866 105.029V102.539C324.866 101.596 324.101 100.831 323.158 100.831H314.64C313.696 100.831 312.932 101.596 312.932 102.539V105.029C312.932 105.972 313.696 106.737 314.64 106.737Z" fill="#CDD5DC"/>
<path d="M118.012 216.33H126.53C127.474 216.33 128.238 215.565 128.238 214.622V212.132C128.238 211.189 127.474 210.425 126.53 210.425H118.012C117.068 210.425 116.304 211.189 116.304 212.132V214.622C116.304 215.565 117.068 216.33 118.012 216.33Z" fill="#CDD5DC"/>
<path d="M142.331 284.624V293.14C142.331 294.083 143.096 294.848 144.039 294.848H146.53C147.473 294.848 148.238 294.083 148.238 293.14V284.624C148.238 283.681 147.473 282.917 146.53 282.917H144.039C143.096 282.917 142.331 283.681 142.331 284.624Z" fill="#CDD5DC"/>
<path d="M178.284 122.144H182.812C183.113 122.177 183.415 122.09 183.654 121.903C183.893 121.716 184.049 121.443 184.089 121.142V119.674C184.089 118.952 183.145 118.466 182.303 118.756L178.286 120.46L178.284 122.144Z" fill="#E85157"/>
<g opacity="0.25">
<path d="M183.569 120.162C183.529 120.162 183.491 120.146 183.463 120.118C183.435 120.09 183.419 120.051 183.419 120.011C183.415 119.922 183.391 119.836 183.346 119.758C183.302 119.681 183.239 119.616 183.164 119.568C183.031 119.48 182.88 119.424 182.722 119.404C182.565 119.384 182.404 119.401 182.254 119.453C182.216 119.466 182.174 119.463 182.137 119.445C182.101 119.428 182.073 119.396 182.06 119.358C182.047 119.32 182.049 119.278 182.067 119.241C182.085 119.205 182.116 119.177 182.155 119.164C182.351 119.095 182.56 119.074 182.767 119.101C182.973 119.128 183.169 119.203 183.341 119.32C183.457 119.395 183.552 119.497 183.619 119.618C183.686 119.739 183.722 119.874 183.725 120.011C183.725 120.032 183.72 120.052 183.713 120.07C183.705 120.089 183.693 120.106 183.679 120.12C183.664 120.134 183.647 120.145 183.628 120.152C183.609 120.159 183.589 120.162 183.569 120.162V120.162Z" fill="#FAE1E2"/>
</g>
<path d="M175.807 122.144H171.279C170.978 122.177 170.675 122.09 170.437 121.903C170.198 121.716 170.042 121.443 170.002 121.142V119.674C170.002 118.952 170.946 118.466 171.787 118.756L175.804 120.46L175.807 122.144Z" fill="#E85157"/>
<path d="M178.216 121.33C178.216 120.665 177.676 120.126 177.011 120.126C176.346 120.126 175.807 120.665 175.807 121.33V130.493C175.807 131.158 176.346 131.697 177.011 131.697C177.676 131.697 178.216 131.158 178.216 130.493V121.33Z" fill="#6E7376"/>
<path d="M178.658 124.051H175.366C174.444 124.051 173.697 124.798 173.697 125.719V133.953C173.697 134.875 174.444 135.622 175.366 135.622H178.658C179.579 135.622 180.327 134.875 180.327 133.953V125.719C180.327 124.798 179.579 124.051 178.658 124.051Z" fill="#868C8F"/>
<path d="M180.594 126.39H173.43C172.212 126.39 171.225 127.377 171.225 128.594V135.756C171.225 136.973 172.212 137.961 173.43 137.961H180.594C181.812 137.961 182.799 136.973 182.799 135.756V128.594C182.799 127.377 181.812 126.39 180.594 126.39Z" fill="#9EA5A9"/>
<path d="M180.594 127.504H173.43C172.212 127.504 171.225 128.491 171.225 129.709V136.87C171.225 138.088 172.212 139.075 173.43 139.075H180.594C181.812 139.075 182.799 138.088 182.799 136.87V129.709C182.799 128.491 181.812 127.504 180.594 127.504Z" fill="#B5BDC2"/>
<path d="M176.889 120.254H177.2C177.681 120.254 178.142 120.445 178.481 120.785C178.821 121.125 179.012 121.585 179.012 122.066V122.234C179.012 122.463 178.921 122.683 178.759 122.845C178.597 123.007 178.377 123.098 178.147 123.098H175.94C175.711 123.098 175.491 123.007 175.329 122.845C175.166 122.683 175.075 122.463 175.075 122.234V122.066C175.075 121.828 175.122 121.592 175.214 121.372C175.305 121.152 175.438 120.952 175.607 120.784C175.775 120.616 175.975 120.482 176.195 120.391C176.415 120.3 176.651 120.254 176.889 120.254Z" fill="#CD2026"/>
<path d="M176.683 119.078H177.41C178.036 119.078 178.637 119.326 179.08 119.769C179.523 120.212 179.771 120.812 179.771 121.438V121.438C179.771 121.737 179.653 122.024 179.441 122.235C179.23 122.446 178.943 122.565 178.644 122.565H175.447C175.149 122.565 174.862 122.446 174.65 122.235C174.439 122.024 174.32 121.737 174.32 121.438V121.438C174.32 120.812 174.569 120.212 175.012 119.769C175.455 119.326 176.055 119.078 176.681 119.078H176.683Z" fill="#FF6B70"/>
<g opacity="0.25">
<path d="M170.521 120.162C170.482 120.162 170.443 120.146 170.415 120.118C170.387 120.09 170.371 120.051 170.371 120.011C170.374 119.874 170.41 119.739 170.477 119.618C170.544 119.497 170.639 119.395 170.754 119.32C170.926 119.203 171.123 119.128 171.329 119.101C171.536 119.074 171.745 119.095 171.942 119.164C171.98 119.177 172.011 119.205 172.029 119.242C172.047 119.278 172.049 119.32 172.036 119.358C172.023 119.397 171.995 119.428 171.958 119.446C171.922 119.463 171.88 119.466 171.842 119.453C171.691 119.401 171.531 119.384 171.373 119.404C171.215 119.424 171.064 119.48 170.932 119.568C170.856 119.616 170.794 119.681 170.749 119.758C170.705 119.836 170.68 119.922 170.677 120.011C170.677 120.032 170.673 120.052 170.665 120.07C170.657 120.089 170.646 120.106 170.631 120.12C170.617 120.134 170.599 120.145 170.581 120.152C170.562 120.159 170.542 120.162 170.521 120.162V120.162Z" fill="#FAE1E2"/>
</g>
<g opacity="0.25">
<path d="M175.624 120.278C175.585 120.278 175.547 120.263 175.519 120.236C175.504 120.222 175.492 120.205 175.484 120.187C175.476 120.169 175.471 120.149 175.471 120.129C175.47 120.109 175.474 120.089 175.481 120.07C175.489 120.051 175.5 120.034 175.514 120.02C175.679 119.846 175.878 119.708 176.098 119.613C176.318 119.519 176.556 119.471 176.796 119.472H177.295C177.528 119.472 177.759 119.517 177.975 119.606C178.19 119.695 178.385 119.826 178.55 119.991C178.578 120.02 178.594 120.059 178.594 120.099C178.594 120.14 178.578 120.178 178.55 120.207C178.536 120.222 178.519 120.233 178.5 120.241C178.482 120.249 178.462 120.253 178.441 120.253C178.421 120.253 178.401 120.249 178.383 120.241C178.364 120.233 178.347 120.222 178.333 120.207C178.197 120.07 178.036 119.962 177.857 119.888C177.679 119.814 177.488 119.777 177.295 119.777H176.796C176.597 119.776 176.401 119.816 176.219 119.893C176.036 119.971 175.871 120.085 175.735 120.228C175.721 120.244 175.704 120.256 175.685 120.264C175.666 120.273 175.645 120.277 175.624 120.278Z" fill="#FAE1E2"/>
</g>
<path d="M374.42 144.209C374.42 143.544 373.881 143.005 373.215 143.005C372.55 143.005 372.011 143.544 372.011 144.209V153.372C372.011 154.037 372.55 154.576 373.215 154.576C373.881 154.576 374.42 154.037 374.42 153.372V144.209Z" fill="#6E7376"/>
<path d="M374.862 148.558H371.57C370.649 148.558 369.901 149.305 369.901 150.226V158.46C369.901 159.382 370.649 160.129 371.57 160.129H374.862C375.783 160.129 376.531 159.382 376.531 158.46V150.226C376.531 149.305 375.783 148.558 374.862 148.558Z" fill="#868C8F"/>
<path d="M388.242 148.965C387.99 148.965 387.744 148.886 387.538 148.74L385.223 147.103C385.007 146.949 384.749 146.867 384.484 146.868H365.835C365.512 146.868 365.201 146.739 364.972 146.51C364.743 146.281 364.614 145.971 364.614 145.647C364.614 145.323 364.743 145.013 364.972 144.784C365.201 144.555 365.512 144.426 365.835 144.426H384.484C385.254 144.425 386.005 144.664 386.633 145.109L388.949 146.747C389.16 146.896 389.319 147.11 389.401 147.355C389.484 147.601 389.486 147.867 389.407 148.114C389.329 148.361 389.173 148.577 388.964 148.729C388.754 148.882 388.502 148.965 388.242 148.964V148.965Z" fill="#FF6B70"/>
<path d="M376.798 152.524H369.634C368.416 152.524 367.429 153.512 367.429 154.729V161.891C367.429 163.108 368.416 164.096 369.634 164.096H376.798C378.016 164.096 379.003 163.108 379.003 161.891V154.729C379.003 153.512 378.016 152.524 376.798 152.524Z" fill="#9EA5A9"/>
<path d="M376.798 153.639H369.634C368.416 153.639 367.429 154.626 367.429 155.844V163.005C367.429 164.223 368.416 165.21 369.634 165.21H376.798C378.016 165.21 379.003 164.223 379.003 163.005V155.844C379.003 154.626 378.016 153.639 376.798 153.639Z" fill="#B5BDC2"/>
<path d="M90.2936 190.865C86.4371 190.861 82.7398 189.327 80.0127 186.601C77.2857 183.875 75.7516 180.179 75.747 176.324V66.8026C75.745 64.7555 74.9307 62.7929 73.4826 61.3455C72.0346 59.898 70.0713 59.0841 68.0236 59.0823H48.0613C47.4684 59.09 46.8799 58.9799 46.3299 58.7584C45.78 58.5369 45.2795 58.2084 44.8575 57.792C44.4355 57.3756 44.1005 56.8795 43.8718 56.3326C43.6431 55.7858 43.5254 55.1989 43.5254 54.6062C43.5254 54.0134 43.6431 53.4266 43.8718 52.8797C44.1005 52.3328 44.4355 51.8368 44.8575 51.4204C45.2795 51.0039 45.78 50.6755 46.3299 50.454C46.8799 50.2325 47.4684 50.1224 48.0613 50.13H68.0236C72.4461 50.1338 76.6864 51.8914 79.814 55.0172C82.9415 58.143 84.7009 62.3815 84.7058 66.8026V176.324C84.6973 177.063 84.8355 177.797 85.1126 178.482C85.3897 179.168 85.8001 179.792 86.3201 180.318C86.8401 180.843 87.4593 181.261 88.1418 181.546C88.8243 181.831 89.5566 181.978 90.2963 181.978C91.0359 181.978 91.7682 181.831 92.4507 181.546C93.1332 181.261 93.7524 180.843 94.2724 180.318C94.7924 179.792 95.2028 179.168 95.4799 178.482C95.757 177.797 95.8952 177.063 95.8867 176.324V145.223C95.891 141.416 97.4059 137.766 100.099 135.074C102.792 132.382 106.443 130.867 110.251 130.863H220.823C224.631 130.867 228.283 132.381 230.976 135.073C233.669 137.766 235.184 141.416 235.188 145.223V159.263C235.189 159.982 235.474 160.671 235.982 161.179C236.491 161.687 237.18 161.972 237.898 161.973H381.053C384.935 161.977 388.656 163.52 391.401 166.263C394.146 169.007 395.689 172.727 395.693 176.608V180.174C395.693 181.361 395.221 182.499 394.382 183.339C393.542 184.179 392.403 184.65 391.215 184.65C390.028 184.65 388.889 184.179 388.049 183.339C387.209 182.499 386.737 181.361 386.737 180.174V176.608C386.736 175.101 386.137 173.657 385.071 172.591C384.005 171.526 382.56 170.927 381.053 170.925H237.902C234.809 170.922 231.844 169.692 229.657 167.506C227.47 165.319 226.24 162.355 226.236 159.263V145.223C226.235 143.789 225.665 142.414 224.65 141.4C223.636 140.386 222.261 139.816 220.826 139.814H110.248C108.814 139.816 107.438 140.386 106.424 141.4C105.41 142.414 104.839 143.789 104.838 145.223V176.324C104.833 180.179 103.3 183.874 100.573 186.6C97.8465 189.326 94.1498 190.86 90.2936 190.865V190.865Z" fill="#CDD5DC"/>
<path d="M80.4748 132.904C78.6161 132.904 76.7992 132.353 75.2537 131.32C73.7083 130.288 72.5038 128.821 71.7925 127.104C71.0812 125.387 70.8951 123.498 71.2577 121.676C71.6203 119.854 72.5154 118.18 73.8297 116.866C75.1439 115.552 76.8184 114.657 78.6414 114.295C80.4644 113.932 82.3539 114.118 84.0711 114.829C85.7883 115.54 87.256 116.744 88.2887 118.289C89.3213 119.834 89.8725 121.651 89.8725 123.509C89.8697 126 88.8787 128.388 87.1169 130.149C85.3551 131.91 82.9664 132.901 80.4748 132.904V132.904ZM80.4748 116.151C79.0183 116.151 77.5945 116.583 76.3835 117.392C75.1724 118.201 74.2285 119.351 73.6711 120.696C73.1138 122.041 72.9679 123.521 73.2521 124.95C73.5362 126.378 74.2376 127.689 75.2675 128.719C76.2974 129.749 77.6096 130.45 79.0381 130.734C80.4666 131.018 81.9473 130.872 83.293 130.315C84.6386 129.758 85.7887 128.814 86.5979 127.603C87.4071 126.393 87.839 124.969 87.839 123.513C87.838 121.561 87.0619 119.689 85.6811 118.308C84.3004 116.927 82.4278 116.151 80.4748 116.149V116.151Z" fill="#FF6B70"/>
<path d="M88.8554 124.322H72.098C71.8822 124.322 71.6752 124.237 71.5225 124.084C71.3699 123.931 71.2842 123.724 71.2842 123.509C71.2842 123.293 71.3699 123.086 71.5225 122.933C71.6752 122.781 71.8822 122.695 72.098 122.695H88.8554C89.0712 122.695 89.2782 122.781 89.4308 122.933C89.5834 123.086 89.6692 123.293 89.6692 123.509C89.6692 123.724 89.5834 123.931 89.4308 124.084C89.2782 124.237 89.0712 124.322 88.8554 124.322V124.322Z" fill="#FF6B70"/>
<path d="M84.6653 131.578C84.5222 131.578 84.3815 131.54 84.2575 131.469C84.1334 131.397 84.0305 131.294 83.959 131.17L75.5795 116.661C75.5222 116.568 75.4842 116.465 75.4675 116.357C75.4509 116.249 75.4561 116.139 75.4828 116.033C75.5094 115.928 75.557 115.829 75.6228 115.742C75.6885 115.655 75.7711 115.582 75.8655 115.527C75.9599 115.473 76.0643 115.438 76.1725 115.425C76.2807 115.411 76.3905 115.42 76.4954 115.449C76.6002 115.479 76.698 115.53 76.783 115.598C76.868 115.666 76.9384 115.751 76.99 115.847L85.3694 130.357C85.4409 130.48 85.4786 130.621 85.4787 130.764C85.4788 130.906 85.4412 131.047 85.3699 131.17C85.2985 131.294 85.1958 131.397 85.0722 131.468C84.9485 131.54 84.8082 131.577 84.6653 131.578V131.578Z" fill="#FF6B70"/>
<path d="M76.2841 131.578C76.1412 131.577 76.0009 131.54 75.8772 131.468C75.7535 131.397 75.6509 131.294 75.5795 131.17C75.5082 131.047 75.4706 130.906 75.4707 130.764C75.4708 130.621 75.5085 130.48 75.58 130.357L83.9594 115.847C84.011 115.751 84.0814 115.666 84.1664 115.598C84.2513 115.53 84.3491 115.479 84.454 115.449C84.5589 115.42 84.6687 115.411 84.7769 115.425C84.8851 115.438 84.9895 115.473 85.0839 115.527C85.1783 115.582 85.2609 115.655 85.3266 115.742C85.3923 115.829 85.44 115.928 85.4666 116.033C85.4933 116.139 85.4985 116.249 85.4819 116.357C85.4652 116.465 85.4271 116.568 85.3699 116.661L76.9904 131.17C76.9189 131.294 76.8159 131.397 76.6919 131.469C76.5679 131.54 76.4272 131.578 76.2841 131.578V131.578Z" fill="#FF6B70"/>
<path d="M80.4748 125.528C80.0751 125.528 79.6844 125.409 79.3521 125.187C79.0198 124.965 78.7608 124.65 78.6078 124.281C78.4549 123.911 78.415 123.505 78.493 123.113C78.571 122.721 78.7635 122.361 79.0462 122.079C79.3289 121.797 79.689 121.604 80.081 121.526C80.473 121.448 80.8793 121.489 81.2485 121.642C81.6178 121.795 81.9333 122.054 82.1552 122.386C82.3772 122.718 82.4956 123.109 82.4954 123.508C82.4948 124.044 82.2817 124.557 81.9029 124.936C81.524 125.314 81.0104 125.527 80.4748 125.528V125.528ZM80.4748 121.896C80.1557 121.896 79.8437 121.99 79.5784 122.167C79.3131 122.345 79.1063 122.596 78.9842 122.891C78.8621 123.186 78.8301 123.51 78.8924 123.823C78.9546 124.136 79.1083 124.423 79.3339 124.649C79.5596 124.874 79.847 125.028 80.16 125.09C80.473 125.153 80.7974 125.121 81.0922 124.999C81.387 124.876 81.6389 124.67 81.8162 124.404C81.9935 124.139 82.0881 123.827 82.0881 123.508C82.0869 123.081 81.9165 122.672 81.6141 122.37C81.3117 122.069 80.902 121.899 80.4748 121.899V121.896Z" fill="#F1F5FB"/>
<path d="M396.608 178.666H385.822C384.609 178.666 383.626 179.649 383.626 180.862V184.151C383.626 185.363 384.609 186.346 385.822 186.346H396.608C397.821 186.346 398.805 185.363 398.805 184.151V180.862C398.805 179.649 397.821 178.666 396.608 178.666Z" fill="#B5BDC2"/>
<path d="M391.798 173.01C391.668 173.01 391.541 172.968 391.436 172.891C391.331 172.814 391.254 172.705 391.215 172.581C390.761 171.126 389.965 169.801 388.894 168.717C387.824 167.632 386.509 166.819 385.06 166.345C384.908 166.294 384.782 166.185 384.71 166.042C384.638 165.898 384.625 165.732 384.674 165.579C384.724 165.427 384.831 165.3 384.974 165.226C385.117 165.152 385.283 165.137 385.436 165.185C387.07 165.719 388.553 166.636 389.761 167.86C390.969 169.083 391.866 170.578 392.379 172.218C392.407 172.31 392.414 172.407 392.398 172.501C392.382 172.595 392.344 172.684 392.287 172.761C392.231 172.838 392.157 172.901 392.071 172.944C391.986 172.987 391.892 173.01 391.796 173.01L391.798 173.01Z" fill="#E3E9F1"/>
<path d="M80.4752 61.5495C80.3449 61.5495 80.2181 61.5079 80.1132 61.4307C80.0083 61.3535 79.9308 61.2449 79.892 61.1206C79.4375 59.6661 78.6417 58.3412 77.571 57.2566C76.5003 56.172 75.1857 55.359 73.7369 54.8855C73.5847 54.8343 73.4588 54.7251 73.3865 54.5817C73.3143 54.4383 73.3015 54.2723 73.3509 54.1195C73.4004 53.9667 73.5081 53.8396 73.6507 53.7657C73.7933 53.6919 73.9593 53.6772 74.1126 53.7248C75.7471 54.2588 77.2302 55.1759 78.438 56.3994C79.6459 57.623 80.5435 59.1176 81.056 60.7585C81.0844 60.8499 81.0909 60.9466 81.075 61.041C81.0591 61.1353 81.0213 61.2246 80.9645 61.3016C80.9078 61.3787 80.8338 61.4413 80.7484 61.4845C80.663 61.5277 80.5686 61.5502 80.4729 61.5503L80.4752 61.5495Z" fill="#E3E9F1"/>
<path d="M230.676 141.69C230.545 141.69 230.419 141.648 230.314 141.571C230.209 141.494 230.131 141.385 230.093 141.261C229.638 139.807 228.842 138.482 227.771 137.397C226.701 136.313 225.386 135.5 223.937 135.026C223.859 135.003 223.785 134.965 223.721 134.914C223.657 134.862 223.605 134.799 223.566 134.726C223.527 134.654 223.504 134.575 223.497 134.493C223.489 134.411 223.499 134.329 223.524 134.251C223.549 134.173 223.59 134.101 223.644 134.039C223.697 133.977 223.763 133.927 223.837 133.891C223.91 133.855 223.99 133.834 224.072 133.83C224.154 133.826 224.236 133.838 224.313 133.866C225.947 134.4 227.43 135.317 228.638 136.541C229.845 137.764 230.743 139.258 231.256 140.899C231.284 140.99 231.291 141.087 231.275 141.181C231.259 141.276 231.221 141.365 231.164 141.442C231.108 141.519 231.034 141.582 230.948 141.625C230.863 141.668 230.768 141.691 230.673 141.691L230.676 141.69Z" fill="#E3E9F1"/>
<path d="M100.052 141.69C99.9568 141.69 99.8624 141.667 99.7771 141.624C99.6917 141.581 99.6177 141.518 99.561 141.441C99.5043 141.364 99.4665 141.275 99.4507 141.181C99.435 141.086 99.4416 140.989 99.4701 140.898C99.9827 139.258 100.88 137.763 102.088 136.54C103.295 135.317 104.778 134.399 106.412 133.865C106.489 133.837 106.571 133.825 106.653 133.829C106.735 133.834 106.815 133.854 106.889 133.89C106.962 133.926 107.028 133.977 107.082 134.038C107.135 134.1 107.176 134.172 107.201 134.25C107.227 134.328 107.236 134.411 107.229 134.492C107.221 134.574 107.198 134.653 107.159 134.726C107.121 134.798 107.068 134.862 107.004 134.913C106.94 134.965 106.867 135.003 106.788 135.025C105.339 135.499 104.025 136.312 102.954 137.397C101.883 138.481 101.087 139.806 100.633 141.26C100.594 141.384 100.517 141.493 100.413 141.57C100.309 141.647 100.182 141.689 100.052 141.69Z" fill="#E3E9F1"/>
<path d="M398.804 180.869H383.625C383.623 180.29 383.85 179.733 384.258 179.32C384.665 178.907 385.219 178.673 385.799 178.667H396.633C397.212 178.673 397.766 178.908 398.173 179.321C398.579 179.733 398.807 180.29 398.804 180.869V180.869Z" fill="#9EA5A9"/>
<path d="M353.553 162.175V170.691C353.553 171.634 354.317 172.398 355.261 172.398H357.752C358.695 172.398 359.46 171.634 359.46 170.691V162.175C359.46 161.232 358.695 160.467 357.752 160.467H355.261C354.317 160.467 353.553 161.232 353.553 162.175Z" fill="#B5BDC2"/>
<path d="M355.248 160.467V172.398C354.797 172.395 354.366 172.213 354.048 171.893C353.731 171.573 353.554 171.14 353.555 170.689V162.176C353.554 161.725 353.731 161.292 354.048 160.972C354.366 160.652 354.797 160.47 355.248 160.467V160.467Z" fill="#9EA5A9"/>
<path d="M76.2149 107.134H84.7334C85.6767 107.134 86.4414 106.37 86.4414 105.427V102.937C86.4414 101.994 85.6767 101.229 84.7334 101.229H76.2149C75.2716 101.229 74.5069 101.994 74.5069 102.937V105.427C74.5069 106.37 75.2716 107.134 76.2149 107.134Z" fill="#B5BDC2"/>
<path d="M74.5068 105.439H86.4421C86.439 105.89 86.2573 106.321 85.937 106.638C85.6166 106.956 85.1836 107.133 84.7326 107.132H76.2141C75.7636 107.132 75.3313 106.955 75.0114 106.637C74.6916 106.32 74.5102 105.889 74.5068 105.439V105.439Z" fill="#9EA5A9"/>
<path d="M76.2149 145.788H84.7334C85.6767 145.788 86.4414 145.023 86.4414 144.08V141.59C86.4414 140.647 85.6767 139.882 84.7334 139.882H76.2149C75.2716 139.882 74.5069 140.647 74.5069 141.59V144.08C74.5069 145.023 75.2716 145.788 76.2149 145.788Z" fill="#B5BDC2"/>
<path d="M74.5068 144.094H86.4421C86.439 144.545 86.2573 144.976 85.9369 145.293C85.6165 145.61 85.1835 145.788 84.7326 145.786H76.2141C75.7637 145.787 75.3315 145.609 75.0117 145.292C74.6919 144.975 74.5104 144.544 74.5068 144.094V144.094Z" fill="#9EA5A9"/>
<path d="M341.915 165.094H280.063C279.981 165.097 279.899 165.083 279.823 165.054C279.746 165.024 279.676 164.98 279.617 164.923C279.558 164.866 279.511 164.798 279.479 164.722C279.447 164.647 279.431 164.566 279.431 164.484C279.431 164.401 279.447 164.32 279.479 164.245C279.511 164.169 279.558 164.101 279.617 164.044C279.676 163.987 279.746 163.943 279.823 163.913C279.899 163.884 279.981 163.87 280.063 163.873H341.915C341.997 163.87 342.079 163.884 342.155 163.913C342.232 163.943 342.302 163.987 342.361 164.044C342.42 164.101 342.467 164.169 342.499 164.245C342.531 164.32 342.547 164.401 342.547 164.484C342.547 164.566 342.531 164.647 342.499 164.722C342.467 164.798 342.42 164.866 342.361 164.923C342.302 164.98 342.232 165.024 342.155 165.054C342.079 165.083 341.997 165.097 341.915 165.094V165.094Z" fill="#E3E9F1"/>
<path d="M274.563 165.112H265.091C264.932 165.107 264.782 165.04 264.672 164.926C264.562 164.812 264.501 164.66 264.501 164.502C264.501 164.344 264.562 164.191 264.672 164.078C264.782 163.964 264.932 163.897 265.091 163.891H274.563C274.645 163.889 274.726 163.902 274.803 163.932C274.879 163.961 274.949 164.006 275.008 164.062C275.067 164.119 275.114 164.188 275.146 164.263C275.178 164.339 275.195 164.42 275.195 164.502C275.195 164.584 275.178 164.665 275.146 164.741C275.114 164.816 275.067 164.884 275.008 164.941C274.949 164.998 274.879 165.043 274.803 165.072C274.726 165.101 274.645 165.115 274.563 165.112V165.112Z" fill="#E3E9F1"/>
<path d="M43 50.0449V58.5608C43 59.5038 43.7647 60.2683 44.708 60.2683H47.1991C48.1424 60.2683 48.9072 59.5038 48.9072 58.5608V50.0449C48.9072 49.1019 48.1424 48.3374 47.1991 48.3374H44.708C43.7647 48.3374 43 49.1019 43 50.0449Z" fill="#B5BDC2"/>
<path d="M44.6953 48.3384V60.27C44.2441 60.267 43.8125 60.0855 43.4948 59.7653C43.1771 59.445 42.9992 59.012 43 58.561V50.0474C42.9992 49.5964 43.1771 49.1634 43.4948 48.8431C43.8125 48.5228 44.2441 48.3413 44.6953 48.3384V48.3384Z" fill="#9EA5A9"/>
<path d="M191.594 131.245V139.761C191.594 140.704 192.358 141.468 193.302 141.468H195.793C196.736 141.468 197.501 140.704 197.501 139.761V131.245C197.501 130.302 196.736 129.537 195.793 129.537H193.302C192.358 129.537 191.594 130.302 191.594 131.245Z" fill="#B5BDC2"/>
<path d="M193.291 129.537V141.469C192.84 141.466 192.409 141.284 192.091 140.964C191.774 140.644 191.597 140.211 191.598 139.76V131.247C191.597 130.796 191.774 130.363 192.091 130.043C192.409 129.723 192.84 129.541 193.291 129.537Z" fill="#9EA5A9"/>
<path d="M156.591 131.245V139.761C156.591 140.704 157.356 141.468 158.299 141.468H160.79C161.733 141.468 162.498 140.704 162.498 139.761V131.245C162.498 130.302 161.733 129.537 160.79 129.537H158.299C157.356 129.537 156.591 130.302 156.591 131.245Z" fill="#B5BDC2"/>
<path d="M158.286 129.537V141.469C157.835 141.466 157.404 141.284 157.087 140.964C156.769 140.644 156.592 140.211 156.593 139.76V131.247C156.592 130.796 156.769 130.363 157.087 130.043C157.404 129.723 157.835 129.541 158.286 129.537V129.537Z" fill="#9EA5A9"/>
<path d="M360.434 266.508V269.182C360.433 269.326 360.404 269.468 360.348 269.601C360.292 269.734 360.21 269.854 360.107 269.955C360.21 269.854 360.291 269.733 360.346 269.601C360.401 269.468 360.429 269.326 360.429 269.182V266.508C360.43 266.398 360.413 266.288 360.38 266.183C360.416 266.288 360.434 266.398 360.434 266.508Z" fill="#F9FBFF"/>
<path d="M380.188 288.225H364.667V263.1C364.69 262.241 364.371 261.409 363.779 260.785C363.188 260.162 362.374 259.799 361.515 259.775H358.925V255.521C358.895 254.373 359.321 253.259 360.111 252.425C360.901 251.59 361.989 251.103 363.138 251.071H380.187" fill="#F9FBFF"/>
<path d="M334.154 269.513V276.032H331.148C330.839 276.031 330.533 276.092 330.247 276.21C329.961 276.328 329.701 276.501 329.482 276.719C329.263 276.938 329.089 277.197 328.971 277.483C328.852 277.768 328.791 278.074 328.791 278.384V288.225H317.919V269.513C317.919 268.333 318.388 267.201 319.223 266.366C320.058 265.532 321.19 265.063 322.371 265.063H329.703C330.288 265.063 330.867 265.178 331.407 265.401C331.947 265.625 332.438 265.952 332.851 266.366C333.265 266.779 333.593 267.27 333.816 267.81C334.04 268.35 334.154 268.929 334.154 269.513V269.513Z" fill="#F9FBFF"/>
<path d="M334.153 285.628V285.635C334.136 285.612 334.122 285.587 334.111 285.56C334.123 285.584 334.137 285.607 334.153 285.628V285.628Z" fill="#F9FBFF"/>
<path d="M403.246 251.329H419.529C420.114 251.329 420.693 251.443 421.234 251.667C421.775 251.89 422.266 252.218 422.68 252.631C423.093 253.045 423.422 253.535 423.646 254.075C423.87 254.615 423.985 255.194 423.985 255.779V257.74H421.956C421.364 257.739 420.778 257.855 420.23 258.082C419.683 258.308 419.186 258.64 418.767 259.058C418.348 259.477 418.016 259.974 417.79 260.521C417.563 261.069 417.447 261.655 417.448 262.247V288.227H403.258" fill="#F9FBFF"/>
<path d="M423.986 264.474V267.148C423.987 267.257 423.97 267.365 423.938 267.469C423.967 267.365 423.983 267.256 423.983 267.148V264.474C423.982 264.377 423.97 264.28 423.946 264.186C423.974 264.279 423.987 264.376 423.986 264.474V264.474Z" fill="#F9FBFF"/>
<path d="M423.814 277.379C423.864 277.299 423.904 277.212 423.933 277.122C423.908 277.214 423.868 277.301 423.814 277.379Z" fill="#F9FBFF"/>
<path d="M423.986 274.119V276.792C423.988 276.904 423.97 277.016 423.934 277.122C423.966 277.016 423.983 276.906 423.982 276.796V274.119C423.982 273.991 423.96 273.864 423.917 273.743C423.963 273.863 423.986 273.99 423.986 274.119V274.119Z" fill="#F9FBFF"/>
<path d="M422.477 277.886C422.405 277.885 422.333 277.878 422.261 277.865C422.406 277.899 422.556 277.899 422.701 277.865C422.627 277.878 422.552 277.885 422.477 277.886V277.886ZM422.534 268.237H422.477C422.441 268.239 422.404 268.239 422.367 268.237C422.404 268.237 422.443 268.245 422.482 268.245C422.499 268.245 422.517 268.242 422.534 268.236V268.237ZM422.425 273.027H422.534C422.517 273.025 422.499 273.025 422.482 273.027C422.463 273.025 422.444 273.025 422.425 273.027V273.027ZM421.387 267.146C421.385 267.164 421.385 267.182 421.387 267.2V264.473C421.385 264.436 421.385 264.4 421.387 264.363C421.381 264.399 421.378 264.436 421.379 264.473L421.387 267.146ZM421.394 274.008C421.388 274.044 421.386 274.081 421.387 274.118V276.795C421.386 276.832 421.388 276.869 421.394 276.905C421.394 276.869 421.394 276.83 421.394 276.791V274.118C421.392 274.081 421.392 274.044 421.394 274.008V274.008ZM357.83 266.503V269.181C357.829 269.2 357.829 269.219 357.83 269.238V266.509C357.83 266.219 357.945 265.941 358.15 265.736C358.354 265.53 358.632 265.415 358.922 265.414C359.03 265.414 359.139 265.429 359.243 265.458C359.139 265.425 359.031 265.409 358.922 265.409C358.632 265.411 358.355 265.527 358.151 265.732C357.947 265.937 357.831 266.214 357.83 266.503V266.503ZM358.925 265.409C358.635 265.41 358.357 265.525 358.152 265.73C357.947 265.935 357.831 266.213 357.83 266.503V269.181C357.829 269.2 357.829 269.219 357.83 269.238V266.509C357.83 266.219 357.945 265.941 358.15 265.736C358.354 265.53 358.632 265.415 358.922 265.414C359.03 265.414 359.139 265.429 359.243 265.458C359.14 265.426 359.033 265.409 358.925 265.409V265.409ZM421.387 264.473V267.146C421.385 267.164 421.385 267.182 421.387 267.2V264.473C421.385 264.436 421.385 264.4 421.387 264.363C421.383 264.4 421.383 264.436 421.387 264.473V264.473ZM422.477 268.237C422.441 268.239 422.404 268.239 422.367 268.237C422.404 268.237 422.443 268.245 422.482 268.245C422.499 268.246 422.517 268.245 422.534 268.241L422.477 268.237ZM421.391 274.118C421.389 274.081 421.389 274.044 421.391 274.008C421.384 274.044 421.382 274.081 421.383 274.118V276.795C421.382 276.832 421.384 276.869 421.391 276.905C421.391 276.869 421.391 276.83 421.391 276.791V274.118ZM422.477 277.886C422.405 277.885 422.333 277.878 422.261 277.865C422.406 277.899 422.556 277.899 422.701 277.865C422.627 277.878 422.552 277.885 422.477 277.886ZM422.482 273.023C422.463 273.021 422.444 273.021 422.425 273.023H422.534C422.517 273.021 422.5 273.021 422.483 273.023H422.482Z" fill="#E3E9F1"/>
<path d="M453.098 288.222H441.394V262.243C441.395 261.652 441.28 261.066 441.054 260.519C440.828 259.973 440.497 259.476 440.08 259.057C439.662 258.639 439.166 258.307 438.619 258.08C438.073 257.853 437.488 257.736 436.896 257.736H435.844V254.399C435.844 253.915 435.652 253.451 435.31 253.109C434.968 252.767 434.504 252.575 434.02 252.575C433.537 252.575 433.073 252.767 432.731 253.109C432.389 253.451 432.197 253.915 432.197 254.399V257.736H421.546C420.953 257.735 420.367 257.851 419.819 258.077C419.272 258.303 418.775 258.635 418.356 259.054C417.937 259.473 417.605 259.97 417.379 260.517C417.152 261.064 417.036 261.651 417.037 262.243V288.222H365.097V263.102C365.096 262.879 365.074 262.657 365.032 262.438C365.019 262.367 365.003 262.296 364.983 262.226C364.958 262.133 364.93 262.043 364.897 261.954C364.857 261.852 364.816 261.755 364.771 261.653C364.743 261.592 364.71 261.531 364.677 261.474C364.644 261.417 364.608 261.356 364.571 261.299C364.534 261.241 364.496 261.189 364.458 261.136C364.43 261.095 364.4 261.056 364.368 261.018C364.335 260.978 364.303 260.936 364.271 260.9C364.238 260.864 364.205 260.825 364.169 260.79C364.132 260.755 364.099 260.715 364.063 260.684C364.014 260.636 363.961 260.591 363.912 260.55C363.863 260.51 363.815 260.468 363.762 260.428C363.762 260.428 363.762 260.428 363.754 260.428C363.693 260.383 363.632 260.339 363.567 260.297C363.501 260.256 363.437 260.216 363.367 260.179C363.367 260.179 363.359 260.179 363.355 260.171C363.29 260.135 363.221 260.102 363.156 260.073C363.09 260.045 363.017 260.012 362.944 259.984C362.899 259.968 362.854 259.952 362.81 259.94C362.793 259.932 362.775 259.927 362.757 259.923C362.712 259.907 362.663 259.895 362.618 259.883C362.61 259.877 362.6 259.874 362.59 259.874C362.541 259.862 362.488 259.849 362.439 259.842C362.428 259.837 362.415 259.834 362.403 259.834C362.286 259.809 362.168 259.793 362.049 259.785C361.977 259.776 361.905 259.772 361.833 259.772H348.541C348.103 259.772 347.67 259.858 347.266 260.025C346.862 260.193 346.495 260.438 346.186 260.747C345.876 261.056 345.631 261.423 345.464 261.827C345.297 262.231 345.211 262.664 345.211 263.102V276.03H330.739C330.659 276.029 330.579 276.035 330.5 276.047C330.343 276.059 330.189 276.09 330.04 276.14C329.965 276.164 329.897 276.189 329.824 276.215C329.751 276.241 329.686 276.28 329.621 276.317C329.486 276.387 329.36 276.472 329.245 276.569C329.129 276.665 329.023 276.771 328.927 276.886C328.891 276.931 328.858 276.976 328.826 277.021C328.793 277.066 328.76 277.114 328.732 277.163C328.699 277.211 328.671 277.261 328.647 277.313C328.622 277.362 328.598 277.414 328.572 277.468C328.451 277.758 328.388 278.069 328.388 278.384V288.219H311.562C311.181 288.219 310.804 288.294 310.452 288.44C310.1 288.586 309.781 288.8 309.511 289.069C309.242 289.338 309.029 289.658 308.883 290.01C308.738 290.362 308.663 290.74 308.664 291.12C308.664 292.72 309.959 294.018 309.527 294.018H451.062C454.701 294.018 456 292.72 456 291.12C456 290.351 455.694 289.614 455.149 289.07C454.605 288.527 453.867 288.222 453.098 288.222V288.222ZM335.734 285.003C335.735 285.236 335.661 285.463 335.523 285.651C335.385 285.839 335.191 285.978 334.969 286.048C334.746 286.118 334.507 286.114 334.287 286.038C334.066 285.962 333.876 285.818 333.744 285.626C333.728 285.606 333.714 285.584 333.703 285.561C333.683 285.532 333.666 285.5 333.654 285.467C333.654 285.459 333.646 285.455 333.646 285.447C333.628 285.412 333.613 285.375 333.602 285.337C333.597 285.337 333.597 285.337 333.597 285.329C333.585 285.28 333.573 285.231 333.565 285.182C333.565 285.182 333.565 285.17 333.565 285.162C333.557 285.109 333.552 285.056 333.552 285.003V282.326C333.552 282.273 333.557 282.219 333.565 282.167C333.565 282.158 333.565 282.15 333.565 282.146C333.573 282.098 333.585 282.049 333.597 282C333.6 281.998 333.601 281.995 333.602 281.992C333.618 281.94 333.638 281.89 333.663 281.841C333.678 281.802 333.699 281.765 333.723 281.731C333.732 281.719 333.74 281.711 333.744 281.703C333.876 281.511 334.066 281.367 334.287 281.291C334.507 281.215 334.746 281.212 334.969 281.281C335.191 281.351 335.385 281.49 335.523 281.678C335.661 281.866 335.735 282.093 335.734 282.326V285.003ZM352.73 278.085C352.73 278.376 352.615 278.654 352.409 278.859C352.204 279.065 351.925 279.18 351.635 279.18C351.345 279.18 351.066 279.065 350.861 278.859C350.656 278.654 350.54 278.376 350.54 278.085V275.412C350.54 275.121 350.656 274.843 350.861 274.638C351.066 274.433 351.345 274.317 351.635 274.317C351.925 274.317 352.204 274.433 352.409 274.638C352.615 274.843 352.73 275.121 352.73 275.412V278.085ZM352.73 269.181C352.73 269.471 352.615 269.75 352.409 269.955C352.204 270.16 351.925 270.276 351.635 270.276C351.345 270.276 351.066 270.16 350.861 269.955C350.656 269.75 350.54 269.471 350.54 269.181V266.503C350.54 266.213 350.656 265.934 350.861 265.729C351.066 265.524 351.345 265.408 351.635 265.408C351.925 265.408 352.204 265.524 352.409 265.729C352.615 265.934 352.73 266.213 352.73 266.503V269.181ZM359.744 288.222H355.16V283.705C355.16 283.551 355.19 283.399 355.248 283.257C355.307 283.115 355.393 282.986 355.501 282.877C355.61 282.768 355.739 282.682 355.881 282.623C356.023 282.564 356.175 282.533 356.329 282.533H358.572C358.882 282.534 359.179 282.658 359.398 282.878C359.617 283.098 359.74 283.395 359.74 283.705L359.744 288.222ZM360.021 269.181C360.02 269.255 360.013 269.329 360 269.401C359.992 269.437 359.984 269.476 359.975 269.507C359.967 269.541 359.954 269.573 359.939 269.604C359.884 269.735 359.804 269.854 359.703 269.954C359.602 270.056 359.482 270.137 359.349 270.192C359.217 270.247 359.075 270.276 358.931 270.276C358.788 270.276 358.646 270.247 358.513 270.192C358.381 270.137 358.261 270.056 358.16 269.954C358.111 269.904 358.066 269.849 358.025 269.792C357.985 269.733 357.951 269.67 357.924 269.604C357.896 269.539 357.874 269.471 357.859 269.401C357.851 269.366 357.846 269.331 357.842 269.295C357.844 269.276 357.844 269.257 357.842 269.238C357.84 269.219 357.84 269.2 357.842 269.181V266.503C357.843 266.213 357.958 265.935 358.164 265.73C358.369 265.525 358.647 265.409 358.937 265.408C359.046 265.408 359.155 265.424 359.259 265.457L359.356 265.494C359.399 265.512 359.442 265.532 359.482 265.555C359.535 265.587 359.585 265.622 359.633 265.661C359.744 265.751 359.836 265.861 359.906 265.986C359.937 266.047 359.962 266.112 359.981 266.178C360.014 266.283 360.03 266.393 360.03 266.503L360.021 269.181ZM421.387 264.472C421.386 264.436 421.388 264.399 421.395 264.363C421.399 264.33 421.403 264.297 421.407 264.27C421.428 264.158 421.466 264.051 421.521 263.952C421.553 263.889 421.593 263.831 421.639 263.777C421.652 263.765 421.664 263.748 421.68 263.732C421.693 263.718 421.706 263.704 421.721 263.691C421.739 263.668 421.761 263.648 421.785 263.63C421.808 263.61 421.834 263.592 421.86 263.578C421.873 263.564 421.889 263.553 421.906 263.545C421.938 263.522 421.974 263.503 422.011 263.488C422.082 263.45 422.158 263.423 422.236 263.406C422.275 263.397 422.314 263.39 422.354 263.386C422.395 263.386 422.435 263.378 422.476 263.378H422.509C422.517 263.377 422.526 263.379 422.533 263.382C422.558 263.381 422.583 263.381 422.608 263.382C422.648 263.387 422.687 263.393 422.726 263.403C422.805 263.419 422.881 263.447 422.952 263.485C422.989 263.499 423.025 263.518 423.058 263.541C423.075 263.55 423.091 263.561 423.106 263.574C423.13 263.59 423.154 263.608 423.175 263.627C423.2 263.644 423.222 263.664 423.241 263.687C423.257 263.698 423.271 263.712 423.281 263.728C423.298 263.745 423.31 263.761 423.322 263.773C423.343 263.796 423.361 263.821 423.375 263.848C423.394 263.872 423.411 263.897 423.428 263.923C423.44 263.952 423.457 263.977 423.469 264.005L423.505 264.091C423.514 264.123 423.526 264.152 423.534 264.18C423.558 264.275 423.57 264.371 423.57 264.469V267.142C423.57 267.251 423.555 267.359 423.526 267.464C423.514 267.501 423.501 267.533 423.489 267.566C423.477 267.599 423.452 267.641 423.432 267.679C423.411 267.718 423.383 267.749 423.357 267.785C423.326 267.831 423.29 267.874 423.251 267.912C423.228 267.937 423.203 267.96 423.175 267.981C423.147 268.005 423.118 268.026 423.09 268.046C423.061 268.066 423.029 268.083 423 268.103C422.972 268.123 422.935 268.135 422.903 268.148C422.87 268.161 422.837 268.172 422.801 268.184C422.768 268.196 422.734 268.205 422.699 268.213C422.699 268.213 422.687 268.217 422.683 268.217C422.65 268.217 422.618 268.225 422.589 268.229C422.573 268.229 422.553 268.229 422.532 268.229C422.515 268.233 422.497 268.235 422.48 268.234C422.443 268.234 422.405 268.229 422.365 268.226L422.276 268.214C422.229 268.205 422.183 268.193 422.138 268.177C422.109 268.165 422.081 268.156 422.056 268.144C422.031 268.132 421.991 268.115 421.958 268.099C421.925 268.084 421.897 268.063 421.869 268.042C421.84 268.022 421.812 268.002 421.783 267.977C421.756 267.956 421.731 267.933 421.708 267.908C421.682 267.885 421.659 267.86 421.638 267.833C421.59 267.777 421.549 267.716 421.516 267.65C421.501 267.622 421.487 267.594 421.476 267.564L421.439 267.467C421.427 267.43 421.419 267.398 421.41 267.361C421.402 267.324 421.398 267.286 421.394 267.251C421.392 267.232 421.392 267.213 421.394 267.194C421.392 267.176 421.392 267.159 421.394 267.141L421.387 264.472ZM422.058 277.801C421.992 277.774 421.929 277.74 421.871 277.698C421.813 277.658 421.759 277.613 421.709 277.564C421.683 277.541 421.66 277.516 421.639 277.489C421.601 277.445 421.569 277.397 421.541 277.347C421.516 277.307 421.494 277.265 421.476 277.221C421.449 277.155 421.427 277.087 421.411 277.017C421.403 276.98 421.399 276.942 421.395 276.907C421.388 276.871 421.386 276.834 421.387 276.797V274.12C421.386 274.083 421.388 274.046 421.395 274.01C421.399 273.977 421.403 273.945 421.407 273.916C421.415 273.869 421.427 273.823 421.443 273.778C421.456 273.749 421.464 273.721 421.476 273.697C421.49 273.663 421.504 273.631 421.521 273.599C421.555 273.537 421.595 273.479 421.639 273.424C421.685 273.371 421.735 273.322 421.789 273.278C421.844 273.233 421.902 273.194 421.964 273.16C421.996 273.142 422.028 273.127 422.062 273.115C422.09 273.101 422.118 273.091 422.148 273.082C422.148 273.082 422.156 273.078 422.16 273.078C422.193 273.07 422.225 273.057 422.262 273.049C422.298 273.042 422.335 273.036 422.371 273.033C422.39 273.029 422.409 273.028 422.429 273.029C422.448 273.027 422.467 273.027 422.486 273.029C422.522 273.031 422.559 273.034 422.595 273.037L422.689 273.049C422.701 273.049 422.712 273.052 422.722 273.057L422.807 273.081L422.909 273.118C422.942 273.131 422.975 273.146 423.006 273.163C423.13 273.23 423.239 273.32 423.328 273.428C423.365 273.477 423.403 273.525 423.434 273.578C423.465 273.631 423.487 273.688 423.509 273.749C423.517 273.777 423.529 273.806 423.538 273.839C423.55 273.883 423.558 273.928 423.566 273.977C423.575 274.026 423.574 274.075 423.574 274.123V276.801C423.575 276.911 423.558 277.021 423.526 277.127C423.497 277.217 423.457 277.303 423.407 277.383C423.391 277.409 423.373 277.434 423.354 277.458C423.326 277.498 423.293 277.535 423.257 277.568C423.206 277.617 423.152 277.662 423.094 277.702C423.036 277.744 422.973 277.778 422.906 277.804C422.841 277.832 422.772 277.853 422.703 277.869C422.558 277.902 422.408 277.902 422.263 277.869C422.193 277.853 422.124 277.83 422.058 277.801V277.801ZM426.976 289.061H422.392V284.136C422.392 283.983 422.422 283.831 422.481 283.689C422.54 283.547 422.627 283.418 422.736 283.309C422.844 283.201 422.974 283.115 423.116 283.056C423.258 282.998 423.41 282.968 423.564 282.968H425.806C426.116 282.968 426.413 283.091 426.633 283.31C426.852 283.529 426.975 283.827 426.975 284.136L426.976 289.061ZM430.249 276.795C430.257 276.943 430.234 277.09 430.183 277.229C430.132 277.368 430.053 277.495 429.951 277.603C429.849 277.71 429.726 277.796 429.59 277.854C429.454 277.913 429.307 277.943 429.159 277.943C429.011 277.943 428.865 277.913 428.729 277.854C428.592 277.796 428.47 277.71 428.368 277.603C428.266 277.495 428.187 277.368 428.136 277.229C428.084 277.09 428.062 276.943 428.07 276.795V274.117C428.062 273.97 428.084 273.822 428.136 273.683C428.187 273.544 428.266 273.417 428.368 273.309C428.47 273.202 428.592 273.116 428.729 273.058C428.865 273 429.011 272.969 429.159 272.969C429.307 272.969 429.454 273 429.59 273.058C429.726 273.116 429.849 273.202 429.951 273.309C430.053 273.417 430.132 273.544 430.183 273.683C430.234 273.822 430.257 273.97 430.249 274.117V276.795ZM430.249 267.146C430.257 267.294 430.234 267.442 430.183 267.581C430.132 267.72 430.053 267.847 429.951 267.954C429.849 268.061 429.726 268.147 429.59 268.205C429.454 268.264 429.307 268.294 429.159 268.294C429.011 268.294 428.865 268.264 428.729 268.205C428.592 268.147 428.47 268.061 428.368 267.954C428.266 267.847 428.187 267.72 428.136 267.581C428.084 267.442 428.062 267.294 428.07 267.146V264.472C428.062 264.325 428.084 264.177 428.136 264.038C428.187 263.899 428.266 263.772 428.368 263.664C428.47 263.557 428.592 263.472 428.729 263.413C428.865 263.355 429.011 263.324 429.159 263.324C429.307 263.324 429.454 263.355 429.59 263.413C429.726 263.472 429.849 263.557 429.951 263.664C430.053 263.772 430.132 263.899 430.183 264.038C430.234 264.177 430.257 264.325 430.249 264.472V267.146ZM436.929 284.424C436.929 284.714 436.813 284.993 436.608 285.198C436.403 285.403 436.124 285.519 435.834 285.519C435.543 285.519 435.265 285.403 435.059 285.198C434.854 284.993 434.739 284.714 434.739 284.424V281.751C434.739 281.607 434.767 281.464 434.822 281.332C434.877 281.199 434.958 281.078 435.059 280.977C435.161 280.875 435.282 280.794 435.415 280.739C435.548 280.684 435.69 280.656 435.834 280.656C435.977 280.656 436.12 280.684 436.253 280.739C436.386 280.794 436.506 280.875 436.608 280.977C436.71 281.078 436.79 281.199 436.845 281.332C436.9 281.464 436.929 281.607 436.929 281.751V284.424ZM436.929 267.146C436.929 267.29 436.9 267.432 436.845 267.565C436.79 267.698 436.71 267.818 436.608 267.92C436.506 268.022 436.386 268.102 436.253 268.157C436.12 268.212 435.977 268.241 435.834 268.241C435.69 268.241 435.548 268.212 435.415 268.157C435.282 268.102 435.161 268.022 435.059 267.92C434.958 267.818 434.877 267.698 434.822 267.565C434.767 267.432 434.739 267.29 434.739 267.146V264.472C434.739 264.182 434.854 263.904 435.059 263.699C435.265 263.493 435.543 263.378 435.834 263.378C436.124 263.378 436.403 263.493 436.608 263.699C436.813 263.904 436.929 264.182 436.929 264.472V267.146Z" fill="#E3E9F1"/>
<path d="M399.575 238.176H382.857C382.36 238.176 381.867 238.274 381.408 238.465C380.948 238.655 380.531 238.935 380.179 239.286C379.828 239.638 379.549 240.056 379.359 240.515C379.169 240.975 379.071 241.467 379.071 241.964V288.222H388.927V282.101C388.926 281.948 388.956 281.795 389.014 281.653C389.073 281.511 389.159 281.382 389.268 281.273C389.376 281.165 389.505 281.078 389.648 281.02C389.79 280.961 389.942 280.931 390.096 280.932H392.339C392.492 280.931 392.644 280.961 392.786 281.02C392.928 281.078 393.057 281.164 393.166 281.273C393.274 281.381 393.36 281.51 393.419 281.652C393.478 281.794 393.508 281.946 393.507 282.099V288.22H403.362V241.964C403.362 241.467 403.265 240.975 403.074 240.515C402.884 240.055 402.605 239.638 402.254 239.286C401.902 238.934 401.485 238.655 401.025 238.465C400.565 238.274 400.073 238.176 399.575 238.176V238.176ZM387.877 276.156H385.202C384.911 276.156 384.633 276.041 384.427 275.836C384.222 275.63 384.107 275.352 384.107 275.062C384.107 274.771 384.222 274.493 384.427 274.288C384.633 274.082 384.911 273.967 385.202 273.967H387.877C388.167 273.967 388.446 274.082 388.651 274.288C388.856 274.493 388.972 274.771 388.972 275.062C388.972 275.352 388.856 275.63 388.651 275.836C388.446 276.041 388.167 276.156 387.877 276.156V276.156ZM387.877 270.325H385.202C385.056 270.328 384.91 270.303 384.775 270.25C384.639 270.197 384.515 270.117 384.41 270.015C384.305 269.913 384.222 269.791 384.166 269.657C384.109 269.522 384.08 269.378 384.08 269.232C384.08 269.086 384.109 268.941 384.166 268.807C384.222 268.672 384.305 268.551 384.41 268.449C384.515 268.347 384.639 268.267 384.775 268.214C384.91 268.161 385.056 268.135 385.202 268.139H387.877C388.023 268.135 388.168 268.161 388.304 268.214C388.44 268.267 388.564 268.347 388.668 268.449C388.773 268.551 388.856 268.672 388.913 268.807C388.97 268.941 388.999 269.086 388.999 269.232C388.999 269.378 388.97 269.522 388.913 269.657C388.856 269.791 388.773 269.913 388.668 270.015C388.564 270.117 388.44 270.197 388.304 270.25C388.168 270.303 388.023 270.328 387.877 270.325V270.325ZM387.877 264.493H385.202C385.056 264.497 384.91 264.471 384.775 264.418C384.639 264.365 384.515 264.285 384.41 264.183C384.305 264.081 384.222 263.959 384.166 263.825C384.109 263.691 384.08 263.546 384.08 263.4C384.08 263.254 384.109 263.11 384.166 262.975C384.222 262.841 384.305 262.719 384.41 262.617C384.515 262.515 384.639 262.435 384.775 262.382C384.91 262.329 385.056 262.304 385.202 262.307H387.877C388.023 262.304 388.168 262.329 388.304 262.382C388.44 262.435 388.564 262.515 388.668 262.617C388.773 262.719 388.856 262.841 388.913 262.975C388.97 263.11 388.999 263.254 388.999 263.4C388.999 263.546 388.97 263.691 388.913 263.825C388.856 263.959 388.773 264.081 388.668 264.183C388.564 264.285 388.44 264.365 388.304 264.418C388.168 264.471 388.023 264.497 387.877 264.493V264.493ZM387.877 258.662H385.202C385.056 258.666 384.91 258.64 384.775 258.587C384.639 258.534 384.515 258.454 384.41 258.352C384.305 258.25 384.222 258.129 384.166 257.994C384.109 257.86 384.08 257.715 384.08 257.569C384.08 257.423 384.109 257.279 384.166 257.144C384.222 257.01 384.305 256.888 384.41 256.786C384.515 256.684 384.639 256.605 384.775 256.551C384.91 256.498 385.056 256.473 385.202 256.477H387.877C388.023 256.473 388.168 256.498 388.304 256.551C388.44 256.605 388.564 256.684 388.668 256.786C388.773 256.888 388.856 257.01 388.913 257.144C388.97 257.279 388.999 257.423 388.999 257.569C388.999 257.715 388.97 257.86 388.913 257.994C388.856 258.129 388.773 258.25 388.668 258.352C388.564 258.454 388.44 258.534 388.304 258.587C388.168 258.64 388.023 258.666 387.877 258.662V258.662ZM387.877 252.83H385.202C384.916 252.823 384.645 252.704 384.446 252.499C384.246 252.295 384.135 252.021 384.135 251.735C384.135 251.45 384.246 251.175 384.446 250.971C384.645 250.766 384.916 250.648 385.202 250.64H387.877C388.162 250.648 388.434 250.766 388.633 250.971C388.832 251.175 388.944 251.45 388.944 251.735C388.944 252.021 388.832 252.295 388.633 252.499C388.434 252.704 388.162 252.823 387.877 252.83V252.83ZM387.877 246.998H385.202C384.911 246.998 384.633 246.883 384.427 246.678C384.222 246.473 384.107 246.194 384.107 245.904C384.107 245.614 384.222 245.335 384.427 245.13C384.633 244.925 384.911 244.809 385.202 244.809H387.877C388.167 244.809 388.446 244.925 388.651 245.13C388.856 245.335 388.972 245.614 388.972 245.904C388.972 246.194 388.856 246.473 388.651 246.678C388.446 246.883 388.167 246.998 387.877 246.998ZM397.507 276.156H394.834C394.543 276.156 394.265 276.041 394.06 275.836C393.854 275.63 393.739 275.352 393.739 275.062C393.739 274.771 393.854 274.493 394.06 274.288C394.265 274.082 394.543 273.967 394.834 273.967H397.507C397.651 273.967 397.794 273.995 397.926 274.05C398.059 274.105 398.18 274.186 398.282 274.288C398.383 274.389 398.464 274.51 398.519 274.643C398.574 274.776 398.602 274.918 398.602 275.062C398.602 275.205 398.574 275.348 398.519 275.481C398.464 275.613 398.383 275.734 398.282 275.836C398.18 275.937 398.059 276.018 397.926 276.073C397.794 276.128 397.651 276.156 397.507 276.156V276.156ZM397.507 270.325H394.834C394.549 270.317 394.278 270.199 394.079 269.995C393.88 269.79 393.769 269.517 393.769 269.232C393.769 268.947 393.88 268.673 394.079 268.469C394.278 268.265 394.549 268.147 394.834 268.139H397.507C397.653 268.135 397.799 268.161 397.935 268.214C398.07 268.267 398.194 268.347 398.299 268.449C398.404 268.551 398.487 268.672 398.543 268.807C398.6 268.941 398.629 269.086 398.629 269.232C398.629 269.378 398.6 269.522 398.543 269.657C398.487 269.791 398.404 269.913 398.299 270.015C398.194 270.117 398.07 270.197 397.935 270.25C397.799 270.303 397.653 270.328 397.507 270.325V270.325ZM397.507 264.493H394.834C394.549 264.485 394.278 264.367 394.079 264.163C393.88 263.959 393.769 263.685 393.769 263.4C393.769 263.115 393.88 262.842 394.079 262.637C394.278 262.433 394.549 262.315 394.834 262.307H397.507C397.653 262.304 397.799 262.329 397.935 262.382C398.07 262.435 398.194 262.515 398.299 262.617C398.404 262.719 398.487 262.841 398.543 262.975C398.6 263.11 398.629 263.254 398.629 263.4C398.629 263.546 398.6 263.691 398.543 263.825C398.487 263.959 398.404 264.081 398.299 264.183C398.194 264.285 398.07 264.365 397.935 264.418C397.799 264.471 397.653 264.497 397.507 264.493V264.493ZM397.507 258.662H394.834C394.549 258.654 394.278 258.536 394.079 258.332C393.88 258.128 393.769 257.854 393.769 257.569C393.769 257.284 393.88 257.011 394.079 256.806C394.278 256.602 394.549 256.484 394.834 256.477H397.507C397.653 256.473 397.799 256.498 397.935 256.551C398.07 256.605 398.194 256.684 398.299 256.786C398.404 256.888 398.487 257.01 398.543 257.144C398.6 257.279 398.629 257.423 398.629 257.569C398.629 257.715 398.6 257.86 398.543 257.994C398.487 258.129 398.404 258.25 398.299 258.352C398.194 258.454 398.07 258.534 397.935 258.587C397.799 258.64 397.653 258.666 397.507 258.662V258.662ZM397.507 252.83H394.834C394.548 252.823 394.277 252.704 394.078 252.499C393.878 252.295 393.767 252.021 393.767 251.735C393.767 251.45 393.878 251.175 394.078 250.971C394.277 250.766 394.548 250.648 394.834 250.64H397.507C397.654 250.636 397.799 250.662 397.935 250.715C398.072 250.769 398.196 250.849 398.301 250.951C398.405 251.053 398.489 251.175 398.546 251.309C398.602 251.444 398.632 251.589 398.632 251.735C398.632 251.881 398.602 252.026 398.546 252.161C398.489 252.296 398.405 252.418 398.301 252.52C398.196 252.622 398.072 252.702 397.935 252.755C397.799 252.808 397.654 252.834 397.507 252.83ZM397.507 246.998H394.834C394.543 246.998 394.265 246.883 394.06 246.678C393.854 246.473 393.739 246.194 393.739 245.904C393.739 245.614 393.854 245.335 394.06 245.13C394.265 244.925 394.543 244.809 394.834 244.809H397.507C397.798 244.809 398.076 244.925 398.282 245.13C398.487 245.335 398.602 245.614 398.602 245.904C398.602 246.194 398.487 246.473 398.282 246.678C398.076 246.883 397.798 246.998 397.507 246.998V246.998Z" fill="#FF8083"/>
</g>
<defs>
<clipPath id="clip0_338_2114">
<rect width="413" height="308" fill="white" transform="translate(43 15)"/>
</clipPath>
</defs>
</svg>
