<svg width="492" height="328" viewBox="0 0 492 328" fill="none" xmlns="http://www.w3.org/2000/svg">
<g clip-path="url(#clip0_338_2114)">
<path d="M319.493 97.7249V201.994C319.493 203.181 319.022 204.32 318.182 205.16C317.342 205.999 316.203 206.471 315.015 206.471C313.828 206.471 312.689 205.999 311.849 205.16C311.009 204.32 310.537 203.181 310.537 201.994V97.7249C310.535 95.4508 309.63 93.2706 308.021 91.6625C306.412 90.0545 304.232 89.1497 301.957 89.1467H274.279C272.004 89.1491 269.822 90.0536 268.213 91.6616C266.604 93.2697 265.698 95.4502 265.695 97.7249V193.832C265.689 198.683 263.759 203.333 260.328 206.763C256.896 210.193 252.245 212.123 247.392 212.128H189.718C184.866 212.123 180.213 210.194 176.782 206.764C173.35 203.334 171.419 198.683 171.413 193.832V51.2274C171.411 48.2694 170.234 45.4331 168.142 43.3411C166.05 41.2491 163.214 40.0722 160.255 40.0688H115.762C112.803 40.0724 109.966 41.2492 107.874 43.3412C105.781 45.4331 104.605 48.2692 104.601 51.2274V117.515C104.599 120.76 103.308 123.872 101.014 126.167C98.7191 128.463 95.6073 129.755 92.3611 129.76H79.7367C78.5491 129.76 77.4101 129.288 76.5703 128.449C75.7306 127.609 75.2588 126.471 75.2588 125.283C75.2588 124.096 75.7306 122.958 76.5703 122.118C77.4101 121.279 78.5491 120.807 79.7367 120.807H92.3611C93.2324 120.805 94.0673 120.458 94.683 119.841C95.2987 119.225 95.6449 118.39 95.6457 117.519V51.2274C95.6518 45.8959 97.7732 40.7844 101.544 37.0145C105.316 33.2446 110.429 31.124 115.762 31.118H160.255C165.588 31.1248 170.7 33.246 174.471 37.0164C178.242 40.7867 180.362 45.8982 180.368 51.2297V193.832C180.372 196.31 181.358 198.685 183.111 200.436C184.864 202.188 187.24 203.173 189.718 203.175H247.389C249.866 203.172 252.242 202.187 253.994 200.436C255.746 198.684 256.732 196.309 256.735 193.832V97.7249C256.741 93.0759 258.592 88.6193 261.881 85.3326C265.17 82.046 269.629 80.1979 274.279 80.1937H301.96C306.609 80.2001 311.066 82.0493 314.352 85.3357C317.639 88.6222 319.488 93.0777 319.493 97.7249V97.7249Z" fill="#F9FBFF"/>
<path d="M326.259 46.5934H245.752C241.906 46.5972 238.219 48.1258 235.5 50.8439C232.78 53.5619 231.25 57.2475 231.245 61.092V83.1891C231.243 85.1993 230.444 87.1267 229.022 88.5481C227.6 89.9696 225.672 90.7688 223.661 90.7704H149.712C145.57 90.7746 141.6 92.4209 138.671 95.3483C135.742 98.2756 134.094 102.245 134.089 106.385V233.116C134.088 235.245 133.241 237.287 131.735 238.794C130.229 240.3 128.187 241.147 126.057 241.15H108.467C106.444 241.147 104.505 240.342 103.075 238.911C101.645 237.481 100.841 235.542 100.839 233.519V185.269C100.839 184.081 100.367 182.943 99.5277 182.103C98.6879 181.264 97.549 180.792 96.3613 180.792C95.1737 180.792 94.0348 181.264 93.195 182.103C92.3552 182.943 91.8834 184.081 91.8834 185.269V218.219H86.4452C82.4611 218.223 78.6415 219.808 75.8247 222.625C73.0078 225.441 71.4237 229.26 71.4199 233.243V258.935C71.4249 262.917 73.0095 266.734 75.8263 269.55C78.643 272.366 82.4618 273.95 86.4452 273.955H191.86C196.505 273.949 200.958 272.102 204.241 268.818C207.525 265.535 209.372 261.083 209.377 256.44V131.351C209.378 129.741 210.018 128.198 211.157 127.06C212.296 125.921 213.84 125.281 215.45 125.28H230.716C236.194 125.28 236.784 132.939 236.784 136.235V264.372C236.79 268.791 238.549 273.026 241.675 276.15C244.801 279.274 249.038 281.032 253.458 281.036H286.748C291.168 281.032 295.406 279.275 298.531 276.151C301.657 273.027 303.416 268.791 303.422 264.372V212.334C303.424 210.779 304.043 209.29 305.143 208.191C306.243 207.093 307.733 206.475 309.288 206.474H324.285C328.654 206.468 332.843 204.73 335.932 201.641C339.021 198.552 340.759 194.364 340.763 189.996V61.092C340.759 57.2478 339.23 53.5622 336.51 50.844C333.791 48.1259 330.104 46.5972 326.259 46.5934V46.5934ZM331.808 189.997C331.806 191.991 331.013 193.903 329.602 195.314C328.192 196.725 326.28 197.519 324.285 197.522H309.288C305.359 197.525 301.592 199.087 298.813 201.864C296.035 204.641 294.471 208.406 294.466 212.334V264.372C294.464 266.417 293.649 268.377 292.203 269.823C290.756 271.269 288.795 272.082 286.749 272.084H253.46C251.414 272.082 249.452 271.269 248.005 269.824C246.558 268.378 245.743 266.417 245.74 264.372V136.235C245.74 130.155 244.397 125.3 241.743 121.8C240.468 120.082 238.804 118.69 236.887 117.739C234.97 116.788 232.856 116.304 230.716 116.327H215.45C211.465 116.331 207.645 117.915 204.827 120.732C202.01 123.549 200.425 127.368 200.421 131.351V256.435C200.419 258.704 199.516 260.88 197.911 262.486C196.307 264.091 194.131 264.995 191.86 264.999H86.4452C84.8361 264.997 83.2934 264.357 82.1556 263.219C81.0178 262.082 80.3777 260.54 80.3757 258.931V233.239C80.3777 231.631 81.0178 230.088 82.1556 228.951C83.2934 227.813 84.8361 227.174 86.4452 227.172H91.8834V233.52C91.8896 237.915 93.6388 242.128 96.7475 245.236C99.8563 248.344 104.071 250.093 108.467 250.099H126.057C130.561 250.093 134.879 248.301 138.064 245.117C141.248 241.933 143.04 237.616 143.045 233.113V106.385C143.047 104.619 143.75 102.925 145 101.676C146.25 100.427 147.945 99.7248 149.712 99.7234H223.661C228.046 99.7187 232.25 97.9751 235.351 94.8753C238.451 91.7756 240.195 87.5727 240.2 83.1891V61.092C240.202 59.6209 240.787 58.2106 241.828 57.1708C242.869 56.131 244.281 55.5465 245.752 55.5457H326.259C327.73 55.5465 329.141 56.1311 330.181 57.171C331.222 58.211 331.807 59.6212 331.808 61.092V189.997Z" fill="#F1F5FB"/>
<path d="M380.76 189.152L374.057 203.234L375.159 203.759L381.862 189.677L380.76 189.152Z" fill="#F1F5FB"/>
<path d="M393.669 189.155L392.566 189.679L399.269 203.762L400.372 203.237L393.669 189.155Z" fill="#F1F5FB"/>
<path d="M319.375 36.0892V138.607C319.363 142.651 317.761 146.528 314.915 149.401C312.069 152.274 308.207 153.914 304.163 153.965L294.92 154.051H289.864C288.015 154.054 286.242 154.79 284.934 156.097C283.626 157.405 282.89 159.177 282.887 161.026V229.881C282.883 234.01 281.241 237.968 278.321 240.887C275.401 243.807 271.442 245.45 267.312 245.455H169.332C165.302 245.455 162.9 249.227 162.9 255.547V284.965C162.896 288.574 161.46 292.034 158.907 294.586C156.355 297.138 152.894 298.573 149.284 298.578H127.445C120.192 298.578 113.829 292.787 113.829 286.183V106.65C113.829 97.6967 110.308 92.354 104.413 92.354H76.63C75.4424 92.354 74.3034 91.8824 73.4637 91.0429C72.6239 90.2034 72.1521 89.0648 72.1521 87.8775C72.1521 86.6903 72.6239 85.5517 73.4637 84.7121C74.3034 83.8726 75.4424 83.401 76.63 83.401H104.416C106.973 83.3747 109.501 83.9331 111.808 85.0334C114.115 86.1338 116.14 87.7469 117.728 89.7496C121.034 93.8595 122.788 99.707 122.788 106.652V286.187C122.788 287.395 124.709 289.625 127.447 289.625H149.283C150.518 289.623 151.701 289.131 152.574 288.258C153.448 287.385 153.939 286.202 153.942 284.967V255.55C153.942 242.393 161.667 236.505 169.328 236.505H267.315C269.07 236.502 270.753 235.804 271.994 234.563C273.235 233.321 273.932 231.638 273.933 229.884V161.026C273.939 156.804 275.619 152.757 278.606 149.771C281.592 146.786 285.641 145.106 289.864 145.1H294.855L304.075 145.015C305.761 144.993 307.372 144.31 308.559 143.111C309.745 141.913 310.413 140.296 310.417 138.61V36.0892C310.416 34.5923 309.821 33.157 308.762 32.0981C307.704 31.0392 306.269 30.4432 304.771 30.4408H213.581C212.083 30.443 210.648 31.0388 209.588 32.0976C208.529 33.1564 207.933 34.5918 207.931 36.0892V95.8374C207.926 100.438 206.095 104.849 202.841 108.102C199.587 111.355 195.175 113.185 190.573 113.191H169.625C165.023 113.185 160.611 111.355 157.357 108.102C154.103 104.849 152.272 100.438 152.267 95.8374V71.0014C152.265 69.4431 151.645 67.9491 150.543 66.8468C149.442 65.7445 147.948 65.1238 146.389 65.1208H69.1478C67.9602 65.1208 66.8212 64.6492 65.9815 63.8097C65.1417 62.9702 64.6699 61.8316 64.6699 60.6443C64.6699 59.4571 65.1417 58.3184 65.9815 57.4789C66.8212 56.6394 67.9602 56.1678 69.1478 56.1678H146.386C150.319 56.173 154.09 57.7376 156.871 60.5184C159.651 63.2993 161.215 67.0693 161.219 71.0014V95.8374C161.222 98.0652 162.109 100.201 163.684 101.776C165.26 103.352 167.397 104.238 169.625 104.241H190.573C192.801 104.237 194.937 103.35 196.512 101.775C198.087 100.2 198.973 98.0646 198.975 95.8374V36.0892C198.98 32.2182 200.521 28.5071 203.259 25.7699C205.997 23.0327 209.709 21.4927 213.581 21.4877H304.774C308.645 21.4929 312.357 23.0331 315.094 25.7704C317.832 28.5077 319.371 32.2187 319.375 36.0892V36.0892Z" fill="#E3E9F1"/>
<path d="M313.389 128.674H305.361C305.166 128.686 304.971 128.659 304.787 128.593C304.603 128.527 304.435 128.424 304.292 128.291C304.15 128.157 304.036 127.996 303.959 127.817C303.881 127.638 303.841 127.445 303.841 127.249C303.841 127.054 303.881 126.861 303.959 126.682C304.036 126.503 304.15 126.341 304.292 126.208C304.435 126.074 304.603 125.972 304.787 125.906C304.971 125.84 305.166 125.812 305.361 125.825H313.389C313.584 125.812 313.779 125.84 313.963 125.906C314.147 125.972 314.315 126.074 314.458 126.208C314.6 126.341 314.714 126.503 314.792 126.682C314.869 126.861 314.909 127.054 314.909 127.249C314.909 127.445 314.869 127.638 314.792 127.817C314.714 127.996 314.6 128.157 314.458 128.291C314.315 128.424 314.147 128.527 313.963 128.593C313.779 128.659 313.584 128.686 313.389 128.674V128.674Z" fill="#CDD5DC"/>
<path d="M399.821 203.498H374.61L381.313 189.416H393.118L399.821 203.498Z" fill="#F1F5FB"/>
<path d="M397.969 202.302H376.462C375.214 202.302 374.203 203.313 374.203 204.56V226.545C374.203 227.792 375.214 228.803 376.462 228.803H397.969C399.217 228.803 400.228 227.792 400.228 226.545V204.56C400.228 203.313 399.217 202.302 397.969 202.302Z" fill="#FADAAF"/>
<path d="M177.084 239.512C176.705 239.512 176.342 239.361 176.074 239.094C175.807 238.826 175.656 238.463 175.656 238.085V230.062C175.68 229.7 175.84 229.361 176.105 229.113C176.369 228.865 176.718 228.728 177.081 228.728C177.444 228.728 177.793 228.865 178.057 229.113C178.322 229.361 178.482 229.7 178.506 230.062V238.088C178.505 238.465 178.355 238.826 178.089 239.093C177.822 239.36 177.461 239.51 177.084 239.512V239.512Z" fill="#CDD5DC"/>
<path d="M169.356 232.471C168.719 231.164 168.426 229.717 168.503 228.265C168.581 226.813 169.027 225.405 169.799 224.173C170.571 222.942 171.644 221.927 172.917 221.224C174.191 220.521 175.622 220.154 177.076 220.157C178.53 220.16 179.959 220.534 181.23 221.241C182.5 221.949 183.569 222.969 184.336 224.204C185.103 225.439 185.543 226.849 185.614 228.301C185.685 229.753 185.386 231.199 184.744 232.503L169.356 232.471Z" fill="#F9FBFF"/>
<path d="M184.743 233.722L169.356 233.69C169.127 233.689 168.904 233.625 168.711 233.504C168.517 233.382 168.362 233.21 168.262 233.005C167.55 231.544 167.213 229.929 167.281 228.306C167.349 226.683 167.821 225.102 168.653 223.707C169.484 222.311 170.651 221.145 172.046 220.312C173.442 219.479 175.023 219.007 176.646 218.938C178.344 218.867 180.031 219.238 181.541 220.016C183.052 220.794 184.333 221.952 185.261 223.375C186.188 224.798 186.729 226.438 186.83 228.134C186.932 229.83 186.59 231.522 185.839 233.046C185.737 233.249 185.581 233.42 185.387 233.54C185.194 233.659 184.971 233.722 184.743 233.722V233.722ZM170.165 231.25L183.947 231.279C184.369 230.143 184.504 228.92 184.338 227.719C184.173 226.518 183.714 225.377 183 224.397C182.287 223.417 181.342 222.628 180.25 222.102C179.158 221.575 177.952 221.327 176.741 221.379C175.586 221.429 174.458 221.751 173.451 222.318C172.443 222.886 171.584 223.683 170.942 224.645C170.301 225.607 169.896 226.707 169.76 227.855C169.624 229.003 169.761 230.167 170.16 231.252L170.165 231.25Z" fill="#FF6B70"/>
<path d="M271.95 60.4619C270.092 60.4619 268.275 59.9109 266.729 58.8786C265.184 57.8463 263.979 56.379 263.268 54.6623C262.557 52.9457 262.371 51.0567 262.733 49.2343C263.096 47.4119 263.991 45.7379 265.305 44.424C266.62 43.1102 268.294 42.2154 270.117 41.8529C271.94 41.4904 273.83 41.6764 275.547 42.3875C277.264 43.0986 278.732 44.3027 279.764 45.8477C280.797 47.3926 281.348 49.209 281.348 51.0671C281.345 53.5579 280.354 55.9459 278.592 57.7071C276.831 59.4684 274.442 60.4591 271.95 60.4619V60.4619ZM271.95 43.7097C270.494 43.7097 269.07 44.1415 267.859 44.9504C266.648 45.7593 265.704 46.9091 265.147 48.2543C264.589 49.5996 264.444 51.0798 264.728 52.5079C265.012 53.936 265.713 55.2477 266.743 56.2773C267.773 57.3069 269.085 58.0081 270.514 58.2921C271.942 58.5762 273.423 58.4304 274.769 57.8732C276.114 57.316 277.264 56.3724 278.074 55.1617C278.883 53.951 279.315 52.5277 279.315 51.0716C279.313 49.1193 278.537 47.2472 277.156 45.8665C275.776 44.4857 273.903 43.7092 271.95 43.7074V43.7097Z" fill="#FF6B70"/>
<path d="M280.331 51.8813H263.574C263.467 51.8813 263.361 51.8603 263.262 51.8194C263.163 51.7785 263.074 51.7186 262.998 51.643C262.923 51.5675 262.863 51.4778 262.822 51.3791C262.781 51.2804 262.76 51.1746 262.76 51.0677C262.76 50.9609 262.781 50.8551 262.822 50.7564C262.863 50.6577 262.923 50.568 262.998 50.4925C263.074 50.4169 263.163 50.357 263.262 50.3161C263.361 50.2752 263.467 50.2542 263.574 50.2542H280.331C280.547 50.2542 280.754 50.3399 280.906 50.4925C281.059 50.645 281.145 50.852 281.145 51.0677C281.145 51.2835 281.059 51.4905 280.906 51.643C280.754 51.7956 280.547 51.8813 280.331 51.8813V51.8813Z" fill="#FF6B70"/>
<path d="M276.142 59.1387C275.999 59.1389 275.858 59.1014 275.734 59.0299C275.61 58.9584 275.507 58.8555 275.435 58.7315L267.056 44.2195C266.953 44.0328 266.928 43.8134 266.985 43.6082C267.042 43.403 267.178 43.2284 267.362 43.1218C267.547 43.0153 267.766 42.9853 267.972 43.0383C268.179 43.0912 268.356 43.2229 268.466 43.4052L276.846 57.9157C276.899 58.0084 276.934 58.1107 276.948 58.2168C276.961 58.3229 276.954 58.4307 276.926 58.5339C276.898 58.6372 276.85 58.734 276.785 58.8186C276.72 58.9033 276.638 58.9743 276.545 59.0275C276.423 59.0995 276.284 59.1379 276.142 59.1387Z" fill="#FF6B70"/>
<path d="M267.76 59.1385C267.617 59.1385 267.476 59.1008 267.353 59.0293C267.229 58.9578 267.126 58.8551 267.055 58.7314C266.984 58.6076 266.946 58.4673 266.946 58.3245C266.946 58.1817 266.984 58.0414 267.056 57.9178L275.435 43.4072C275.545 43.225 275.723 43.0933 275.929 43.0403C276.136 42.9874 276.355 43.0174 276.539 43.1239C276.724 43.2305 276.859 43.4051 276.916 43.6103C276.974 43.8154 276.948 44.0349 276.845 44.2216L268.466 58.7291C268.395 58.8535 268.292 58.9568 268.168 59.0287C268.044 59.1006 267.903 59.1385 267.76 59.1385V59.1385Z" fill="#FF6B70"/>
<path d="M271.95 53.0875C271.55 53.0876 271.16 52.9693 270.827 52.7474C270.495 52.5255 270.236 52.2101 270.083 51.841C269.93 51.4719 269.89 51.0657 269.967 50.6738C270.045 50.2819 270.238 49.9219 270.52 49.6393C270.803 49.3567 271.163 49.1643 271.555 49.0863C271.947 49.0083 272.353 49.0482 272.722 49.2011C273.092 49.354 273.407 49.6129 273.629 49.9451C273.851 50.2773 273.97 50.6679 273.97 51.0674C273.969 51.6029 273.756 52.1162 273.378 52.4949C272.999 52.8736 272.486 53.0867 271.95 53.0875V53.0875ZM271.95 49.4546C271.631 49.4546 271.319 49.5492 271.054 49.7264C270.788 49.9036 270.582 50.1555 270.46 50.4502C270.337 50.7449 270.306 51.0692 270.368 51.3821C270.43 51.695 270.584 51.9823 270.809 52.2079C271.035 52.4335 271.322 52.5871 271.635 52.6493C271.948 52.7115 272.273 52.6796 272.568 52.5575C272.862 52.4355 273.114 52.2287 273.292 51.9635C273.469 51.6983 273.563 51.3864 273.563 51.0674C273.563 50.6398 273.393 50.2298 273.091 49.9274C272.788 49.625 272.378 49.455 271.95 49.4546Z" fill="#F1F5FB"/>
<path d="M332.027 147.991H340.546C341.489 147.991 342.254 147.227 342.254 146.284V143.793C342.254 142.85 341.489 142.086 340.546 142.086H332.027C331.084 142.086 330.319 142.85 330.319 143.793V146.284C330.319 147.227 331.084 147.991 332.027 147.991Z" fill="#E3E9F1"/>
<path d="M332.027 86.2869H340.546C341.489 86.2869 342.254 85.5224 342.254 84.5793V82.089C342.254 81.146 341.489 80.3815 340.546 80.3815H332.027C331.084 80.3815 330.319 81.146 330.319 82.089V84.5793C330.319 85.5224 331.084 86.2869 332.027 86.2869Z" fill="#E3E9F1"/>
<path d="M294.407 233.032H302.926C303.869 233.032 304.634 232.267 304.634 231.324V228.834C304.634 227.891 303.869 227.126 302.926 227.126H294.407C293.464 227.126 292.699 227.891 292.699 228.834V231.324C292.699 232.267 293.464 233.032 294.407 233.032Z" fill="#E3E9F1"/>
<path d="M71.6397 250.53H80.1582C81.1015 250.53 81.8662 249.766 81.8662 248.823V246.333C81.8662 245.39 81.1015 244.625 80.1582 244.625H71.6397C70.6964 244.625 69.9317 245.39 69.9317 246.333V248.823C69.9317 249.766 70.6964 250.53 71.6397 250.53Z" fill="#E3E9F1"/>
<path d="M134.513 188.42H143.031C143.975 188.42 144.739 187.655 144.739 186.712V184.222C144.739 183.279 143.975 182.515 143.031 182.515H134.513C133.569 182.515 132.805 183.279 132.805 184.222V186.712C132.805 187.655 133.569 188.42 134.513 188.42Z" fill="#E3E9F1"/>
<path d="M200.64 168.42H209.158C210.101 168.42 210.866 167.655 210.866 166.712V164.222C210.866 163.279 210.101 162.515 209.158 162.515H200.64C199.696 162.515 198.932 163.279 198.932 164.222V166.712C198.932 167.655 199.696 168.42 200.64 168.42Z" fill="#E3E9F1"/>
<path d="M272.249 272.301V280.817C272.249 281.76 273.014 282.524 273.957 282.524H276.448C277.391 282.524 278.156 281.76 278.156 280.817V272.301C278.156 271.358 277.391 270.593 276.448 270.593H273.957C273.014 270.593 272.249 271.358 272.249 272.301Z" fill="#E3E9F1"/>
<path d="M181.256 265.213V273.729C181.256 274.672 182.021 275.437 182.964 275.437H185.455C186.398 275.437 187.163 274.672 187.163 273.729V265.213C187.163 264.27 186.398 263.506 185.455 263.506H182.964C182.021 263.506 181.256 264.27 181.256 265.213Z" fill="#E3E9F1"/>
<path d="M289.606 46.8095V55.3253C289.606 56.2684 290.371 57.0329 291.314 57.0329H293.806C294.749 57.0329 295.514 56.2684 295.514 55.3253V46.8095C295.514 45.8665 294.749 45.102 293.806 45.102H291.314C290.371 45.102 289.606 45.8665 289.606 46.8095Z" fill="#E3E9F1"/>
<path d="M282.366 21.7068V30.2226C282.366 31.1656 283.131 31.9301 284.074 31.9301H286.565C287.509 31.9301 288.273 31.1656 288.273 30.2226V21.7068C288.273 20.7637 287.509 19.9992 286.565 19.9992H284.074C283.131 19.9992 282.366 20.7637 282.366 21.7068Z" fill="#CDD5DC"/>
<path d="M117.599 56.1615V64.6773C117.599 65.6203 118.363 66.3848 119.307 66.3848H121.798C122.741 66.3848 123.506 65.6203 123.506 64.6773V56.1615C123.506 55.2184 122.741 54.4539 121.798 54.4539H119.307C118.363 54.4539 117.599 55.2184 117.599 56.1615Z" fill="#CDD5DC"/>
<path d="M198.977 76.3605H207.495C208.438 76.3605 209.203 75.596 209.203 74.653V72.1627C209.203 71.2197 208.438 70.4552 207.495 70.4552H198.977C198.033 70.4552 197.269 71.2197 197.269 72.1627V74.653C197.269 75.596 198.033 76.3605 198.977 76.3605Z" fill="#CDD5DC"/>
<path d="M248.387 46.8095V55.3253C248.387 56.2684 249.151 57.0329 250.095 57.0329H252.586C253.529 57.0329 254.294 56.2684 254.294 55.3253V46.8095C254.294 45.8665 253.529 45.102 252.586 45.102H250.095C249.151 45.102 248.387 45.8665 248.387 46.8095Z" fill="#E3E9F1"/>
<path d="M176.976 226.855C176.646 226.484 176.329 226.096 176.011 225.707C175.975 225.658 175.923 225.622 175.863 225.606C175.804 225.59 175.741 225.595 175.685 225.621C175.628 225.646 175.582 225.689 175.555 225.744C175.527 225.799 175.518 225.862 175.531 225.922C175.606 226.418 175.688 226.912 175.745 227.406C175.717 228.115 175.876 228.818 176.205 229.447C176.346 229.67 176.563 229.835 176.816 229.912C177.07 229.988 177.342 229.971 177.583 229.863C177.824 229.755 178.018 229.564 178.13 229.324C178.242 229.085 178.263 228.813 178.191 228.559C177.942 227.894 177.523 227.307 176.976 226.855V226.855Z" fill="#B5BDC2"/>
<path d="M177.113 230C177.787 230 178.333 229.454 178.333 228.78C178.333 228.107 177.787 227.561 177.113 227.561C176.44 227.561 175.894 228.107 175.894 228.78C175.894 229.454 176.44 230 177.113 230Z" fill="#B5BDC2"/>
<path d="M177.117 230.406C176.803 230.406 176.495 230.316 176.231 230.145C175.967 229.974 175.758 229.731 175.629 229.445V229.445C175.485 229.124 175.449 228.765 175.525 228.423C175.602 228.08 175.788 227.771 176.054 227.542C176.321 227.313 176.654 227.176 177.005 227.153C177.356 227.129 177.705 227.219 178 227.41C178.295 227.6 178.521 227.882 178.643 228.211C178.765 228.54 178.778 228.901 178.678 229.238C178.579 229.575 178.373 229.871 178.092 230.081C177.811 230.292 177.469 230.406 177.117 230.406V230.406ZM176.373 229.112C176.439 229.258 176.546 229.382 176.682 229.468C176.819 229.553 176.977 229.596 177.137 229.592C177.298 229.587 177.454 229.535 177.585 229.442C177.716 229.349 177.816 229.22 177.874 229.07C177.931 228.92 177.942 228.756 177.907 228.599C177.871 228.443 177.789 228.3 177.673 228.19C177.556 228.08 177.409 228.006 177.251 227.98C177.092 227.953 176.929 227.973 176.783 228.039C176.586 228.127 176.433 228.29 176.356 228.491C176.279 228.692 176.285 228.915 176.373 229.112V229.112Z" fill="#FF6B70"/>
<path d="M171.62 228.743C171.567 228.74 171.515 228.726 171.468 228.703C171.42 228.68 171.377 228.648 171.342 228.608C171.308 228.568 171.281 228.522 171.264 228.472C171.247 228.422 171.24 228.369 171.244 228.316L171.249 228.272L171.256 228.189C171.265 228.082 171.316 227.984 171.398 227.915C171.48 227.845 171.585 227.811 171.692 227.819H171.697C171.75 227.824 171.802 227.839 171.849 227.864C171.897 227.888 171.939 227.922 171.973 227.963C172.008 228.004 172.033 228.051 172.049 228.102C172.065 228.153 172.071 228.207 172.066 228.26L172.058 228.357C172.05 228.465 172 228.567 171.918 228.639C171.836 228.711 171.729 228.749 171.62 228.743V228.743ZM182.052 228.764C181.954 228.757 181.863 228.715 181.794 228.646C181.725 228.578 181.683 228.486 181.676 228.389L181.668 228.292C181.662 228.238 181.666 228.183 181.681 228.131C181.696 228.079 181.722 228.03 181.756 227.988C181.79 227.945 181.833 227.91 181.88 227.885C181.928 227.859 181.981 227.843 182.035 227.838C182.089 227.833 182.144 227.839 182.196 227.856C182.248 227.872 182.296 227.899 182.337 227.934C182.378 227.969 182.412 228.012 182.437 228.061C182.461 228.11 182.476 228.163 182.479 228.217L182.487 228.323C182.492 228.377 182.485 228.43 182.468 228.481C182.452 228.532 182.425 228.579 182.39 228.62C182.355 228.66 182.313 228.694 182.265 228.718C182.217 228.742 182.165 228.756 182.112 228.76C182.092 228.763 182.072 228.764 182.052 228.764V228.764ZM172.033 227.061C171.987 227.058 171.943 227.047 171.902 227.029C171.803 226.986 171.725 226.905 171.685 226.805C171.646 226.705 171.648 226.593 171.691 226.493L171.717 226.435C171.761 226.334 171.842 226.255 171.943 226.213C172.045 226.171 172.159 226.169 172.261 226.21C172.31 226.228 172.354 226.257 172.392 226.294C172.429 226.33 172.459 226.374 172.48 226.422C172.5 226.471 172.51 226.522 172.51 226.575C172.51 226.627 172.499 226.679 172.478 226.727L172.461 226.765L172.438 226.819C172.404 226.896 172.346 226.961 172.274 227.005C172.201 227.048 172.117 227.068 172.033 227.061V227.061ZM181.651 227.092C181.577 227.087 181.505 227.061 181.444 227.017C181.384 226.974 181.336 226.914 181.307 226.846L181.269 226.761C181.247 226.712 181.235 226.66 181.234 226.606C181.232 226.553 181.241 226.499 181.26 226.449C181.279 226.399 181.308 226.354 181.344 226.315C181.381 226.276 181.425 226.244 181.474 226.222C181.523 226.2 181.575 226.188 181.629 226.187C181.682 226.185 181.735 226.194 181.785 226.213C181.835 226.232 181.881 226.261 181.92 226.297C181.959 226.334 181.991 226.378 182.013 226.427L182.056 226.527C182.098 226.627 182.099 226.739 182.059 226.839C182.019 226.939 181.94 227.019 181.841 227.061C181.781 227.087 181.716 227.097 181.651 227.092V227.092ZM172.966 225.616C172.891 225.61 172.819 225.582 172.758 225.537C172.697 225.492 172.65 225.431 172.622 225.361C172.594 225.291 172.586 225.215 172.599 225.14C172.612 225.066 172.646 224.996 172.696 224.94L172.771 224.858C172.846 224.783 172.948 224.741 173.054 224.74C173.16 224.739 173.262 224.779 173.339 224.853C173.416 224.926 173.461 225.026 173.465 225.132C173.469 225.238 173.431 225.341 173.36 225.42L173.299 225.487C173.257 225.532 173.205 225.568 173.147 225.59C173.09 225.612 173.027 225.621 172.966 225.616V225.616ZM180.726 225.642C180.621 225.634 180.522 225.585 180.453 225.506L180.391 225.438C180.322 225.358 180.287 225.255 180.292 225.15C180.298 225.044 180.344 224.945 180.421 224.874C180.499 224.802 180.601 224.763 180.706 224.765C180.812 224.766 180.912 224.809 180.987 224.884L181.062 224.966C181.116 225.027 181.151 225.102 181.162 225.183C181.173 225.263 181.159 225.345 181.123 225.418C181.087 225.491 181.03 225.551 180.959 225.591C180.888 225.631 180.807 225.649 180.726 225.642V225.642ZM174.318 224.552C174.23 224.545 174.148 224.51 174.082 224.453C174.016 224.395 173.97 224.318 173.951 224.233C173.932 224.147 173.942 224.058 173.978 223.978C174.014 223.898 174.074 223.832 174.151 223.79L174.247 223.738C174.294 223.71 174.347 223.692 174.402 223.685C174.456 223.678 174.511 223.683 174.564 223.698C174.617 223.713 174.666 223.738 174.709 223.773C174.752 223.807 174.787 223.85 174.813 223.899C174.839 223.947 174.854 224 174.859 224.055C174.863 224.11 174.857 224.165 174.84 224.217C174.822 224.269 174.795 224.318 174.758 224.359C174.722 224.4 174.678 224.433 174.628 224.457L174.546 224.501C174.477 224.54 174.397 224.558 174.318 224.552V224.552ZM179.382 224.567C179.324 224.562 179.267 224.545 179.216 224.516L179.134 224.472C179.085 224.448 179.041 224.414 179.005 224.373C178.97 224.332 178.943 224.284 178.926 224.232C178.909 224.18 178.903 224.125 178.908 224.071C178.912 224.017 178.928 223.964 178.954 223.916C178.979 223.867 179.014 223.825 179.057 223.791C179.099 223.756 179.148 223.731 179.2 223.715C179.253 223.7 179.307 223.696 179.362 223.702C179.416 223.709 179.468 223.726 179.515 223.753L179.612 223.806C179.693 223.851 179.756 223.923 179.791 224.009C179.825 224.094 179.83 224.19 179.803 224.278C179.776 224.367 179.72 224.444 179.643 224.496C179.567 224.549 179.475 224.574 179.382 224.567V224.567ZM175.941 223.982C175.842 223.974 175.75 223.93 175.681 223.859C175.612 223.788 175.572 223.694 175.567 223.595C175.562 223.496 175.594 223.399 175.656 223.322C175.718 223.245 175.806 223.193 175.903 223.175L176.008 223.158C176.114 223.143 176.221 223.171 176.306 223.234C176.392 223.297 176.449 223.392 176.466 223.497C176.483 223.602 176.458 223.709 176.397 223.796C176.335 223.883 176.242 223.943 176.138 223.962L176.041 223.978C176.008 223.984 175.974 223.985 175.941 223.982V223.982ZM177.762 223.988C177.749 223.987 177.736 223.986 177.723 223.984L177.628 223.968C177.574 223.96 177.522 223.942 177.476 223.915C177.429 223.887 177.388 223.85 177.356 223.807C177.324 223.763 177.301 223.714 177.288 223.661C177.275 223.608 177.273 223.553 177.281 223.5C177.29 223.446 177.309 223.395 177.338 223.349C177.367 223.303 177.404 223.263 177.449 223.232C177.493 223.201 177.543 223.179 177.596 223.167C177.649 223.155 177.704 223.154 177.757 223.164L177.862 223.182C177.966 223.199 178.06 223.255 178.123 223.34C178.186 223.424 178.214 223.529 178.201 223.634C178.188 223.738 178.135 223.834 178.053 223.9C177.971 223.966 177.867 223.998 177.762 223.988V223.988Z" fill="#CD2026"/>
<path d="M386.422 218.35C386.523 218.461 386.645 218.55 386.782 218.61C386.919 218.671 387.067 218.703 387.216 218.703H387.222H387.229C387.356 218.7 387.482 218.675 387.6 218.628C387.614 218.622 387.628 218.619 387.642 218.613C387.758 218.563 387.863 218.493 387.954 218.406C387.964 218.397 387.977 218.394 387.987 218.385L391.439 214.934C391.641 214.731 391.755 214.456 391.755 214.17C391.755 213.883 391.641 213.609 391.439 213.406C391.236 213.203 390.961 213.09 390.674 213.09C390.388 213.09 390.113 213.203 389.91 213.406L388.297 215.019V209.668C388.289 209.386 388.172 209.119 387.97 208.922C387.769 208.725 387.498 208.615 387.216 208.615C386.934 208.615 386.663 208.725 386.461 208.922C386.26 209.119 386.142 209.386 386.135 209.668V215.008L384.518 213.394C384.315 213.191 384.04 213.077 383.754 213.077C383.467 213.077 383.192 213.191 382.989 213.394C382.787 213.597 382.673 213.871 382.673 214.158C382.673 214.444 382.787 214.719 382.989 214.922L386.422 218.35Z" fill="#FF6B70"/>
<path d="M392.444 217.299C392.157 217.299 391.883 217.412 391.68 217.615C391.477 217.818 391.363 218.092 391.363 218.379V220.182H383.068V218.379C383.061 218.097 382.944 217.829 382.742 217.633C382.54 217.436 382.269 217.326 381.987 217.326C381.705 217.326 381.435 217.436 381.233 217.633C381.031 217.829 380.914 218.097 380.906 218.379V221.26C380.906 221.547 381.02 221.822 381.223 222.024C381.426 222.227 381.701 222.341 381.988 222.341H392.444C392.731 222.341 393.006 222.227 393.208 222.024C393.411 221.822 393.525 221.547 393.525 221.26V218.379C393.525 218.092 393.411 217.817 393.208 217.615C393.006 217.412 392.731 217.299 392.444 217.299V217.299Z" fill="#FF6B70"/>
<path d="M299.037 134.51C303.072 134.51 306.344 131.24 306.344 127.205C306.344 123.171 303.072 119.9 299.037 119.9C295.001 119.9 291.729 123.171 291.729 127.205C291.729 131.24 295.001 134.51 299.037 134.51Z" fill="#F9FBFF"/>
<path d="M299.036 135.528C297.389 135.528 295.78 135.04 294.411 134.126C293.041 133.211 291.974 131.911 291.344 130.391C290.714 128.87 290.549 127.196 290.87 125.582C291.191 123.967 291.984 122.484 293.148 121.32C294.312 120.156 295.796 119.363 297.411 119.042C299.026 118.721 300.7 118.886 302.221 119.516C303.742 120.146 305.043 121.212 305.957 122.581C306.872 123.95 307.361 125.559 307.361 127.205C307.358 129.412 306.48 131.527 304.92 133.087C303.359 134.648 301.243 135.525 299.036 135.528V135.528ZM299.036 120.918C297.792 120.918 296.576 121.287 295.541 121.977C294.507 122.668 293.701 123.65 293.225 124.799C292.748 125.948 292.624 127.213 292.866 128.432C293.109 129.652 293.708 130.772 294.588 131.652C295.468 132.531 296.588 133.13 297.808 133.373C299.029 133.615 300.293 133.491 301.443 133.015C302.592 132.539 303.574 131.733 304.265 130.699C304.956 129.664 305.325 128.449 305.325 127.205C305.323 125.538 304.66 123.94 303.481 122.762C302.302 121.583 300.703 120.92 299.036 120.918V120.918Z" fill="#FF6B70"/>
<path d="M299.658 132.077C299.577 132.072 299.5 132.037 299.442 131.978C299.385 131.92 299.352 131.842 299.348 131.76C299.345 131.678 299.373 131.598 299.426 131.535C299.478 131.472 299.552 131.431 299.634 131.42L299.679 131.413C299.764 131.404 299.849 131.428 299.917 131.48C299.984 131.532 300.029 131.608 300.042 131.692C300.055 131.776 300.035 131.862 299.986 131.932C299.937 132.002 299.863 132.05 299.779 132.067L299.727 132.074C299.704 132.078 299.681 132.079 299.658 132.077V132.077ZM297.034 131.681C296.993 131.678 296.952 131.667 296.914 131.649L296.864 131.625C296.826 131.606 296.791 131.579 296.762 131.547C296.734 131.514 296.712 131.476 296.698 131.435C296.684 131.394 296.678 131.35 296.681 131.307C296.684 131.264 296.695 131.221 296.715 131.182C296.734 131.143 296.761 131.109 296.793 131.08C296.826 131.052 296.864 131.03 296.905 131.016C296.946 131.002 296.99 130.996 297.033 130.999C297.076 131.002 297.119 131.013 297.158 131.032L297.197 131.052C297.267 131.085 297.323 131.141 297.356 131.211C297.388 131.28 297.396 131.359 297.376 131.434C297.357 131.508 297.312 131.574 297.25 131.619C297.187 131.664 297.111 131.686 297.034 131.681V131.681ZM302.099 130.918C302.056 130.915 302.014 130.904 301.976 130.886C301.937 130.867 301.902 130.841 301.874 130.809C301.815 130.744 301.784 130.658 301.789 130.571C301.793 130.483 301.832 130.401 301.897 130.342L301.929 130.313C301.959 130.28 301.997 130.253 302.038 130.235C302.08 130.217 302.125 130.208 302.17 130.208C302.215 130.208 302.26 130.217 302.302 130.235C302.343 130.253 302.381 130.279 302.412 130.312C302.443 130.346 302.466 130.385 302.482 130.427C302.497 130.47 302.503 130.515 302.5 130.56C302.497 130.606 302.485 130.65 302.464 130.69C302.443 130.73 302.414 130.766 302.379 130.794L302.337 130.833C302.272 130.891 302.187 130.922 302.099 130.918ZM295.046 129.851C294.992 129.847 294.94 129.831 294.894 129.803C294.848 129.775 294.81 129.736 294.782 129.689L294.755 129.642C294.712 129.566 294.7 129.475 294.724 129.391C294.747 129.306 294.803 129.234 294.879 129.191C294.955 129.147 295.045 129.136 295.13 129.159C295.215 129.182 295.287 129.238 295.33 129.314L295.352 129.353C295.396 129.428 295.408 129.518 295.386 129.602C295.365 129.687 295.31 129.759 295.235 129.804C295.179 129.838 295.112 129.855 295.046 129.851V129.851ZM303.462 128.585C303.445 128.584 303.427 128.581 303.41 128.578C303.368 128.568 303.328 128.55 303.292 128.525C303.257 128.5 303.227 128.468 303.204 128.431C303.18 128.395 303.165 128.354 303.157 128.311C303.15 128.268 303.151 128.224 303.161 128.182L303.171 128.134C303.191 128.048 303.243 127.974 303.317 127.927C303.392 127.88 303.481 127.864 303.567 127.884C303.653 127.903 303.727 127.956 303.774 128.03C303.821 128.104 303.836 128.194 303.817 128.279L303.806 128.327C303.788 128.404 303.744 128.472 303.681 128.519C303.619 128.567 303.541 128.59 303.462 128.585V128.585ZM294.433 127.249C294.345 127.243 294.264 127.202 294.206 127.136C294.148 127.071 294.119 126.984 294.125 126.897V126.841C294.132 126.755 294.173 126.675 294.239 126.619C294.305 126.563 294.389 126.535 294.476 126.54H294.482C294.526 126.544 294.568 126.556 294.606 126.576C294.645 126.596 294.679 126.623 294.707 126.657C294.735 126.69 294.756 126.728 294.769 126.77C294.782 126.811 294.787 126.855 294.783 126.898V126.941C294.777 127.028 294.737 127.109 294.671 127.167C294.606 127.225 294.52 127.254 294.433 127.249V127.249ZM303.029 125.276C302.966 125.281 302.902 125.268 302.846 125.238C302.79 125.208 302.743 125.163 302.712 125.107L302.691 125.071C302.647 124.995 302.635 124.905 302.657 124.82C302.679 124.735 302.734 124.663 302.81 124.619C302.886 124.574 302.976 124.562 303.061 124.584C303.146 124.607 303.218 124.662 303.262 124.737L303.291 124.786C303.318 124.834 303.332 124.889 303.332 124.944C303.333 124.999 303.319 125.053 303.293 125.102C303.267 125.151 303.23 125.192 303.184 125.223C303.137 125.253 303.084 125.271 303.029 125.276V125.276ZM295.396 124.725C295.33 124.721 295.266 124.697 295.214 124.655C295.18 124.629 295.151 124.595 295.13 124.558C295.109 124.52 295.095 124.478 295.089 124.435C295.084 124.392 295.087 124.348 295.099 124.306C295.111 124.265 295.13 124.225 295.157 124.191L295.193 124.147C295.22 124.112 295.254 124.083 295.293 124.062C295.331 124.04 295.373 124.027 295.417 124.022C295.461 124.017 295.505 124.021 295.547 124.033C295.59 124.046 295.629 124.067 295.663 124.094C295.697 124.122 295.725 124.157 295.746 124.196C295.767 124.235 295.779 124.277 295.783 124.321C295.787 124.365 295.782 124.409 295.769 124.451C295.755 124.493 295.734 124.532 295.705 124.565L295.679 124.598C295.645 124.641 295.602 124.675 295.553 124.697C295.503 124.719 295.449 124.728 295.395 124.725H295.396ZM297.615 123.183C297.538 123.177 297.466 123.145 297.411 123.092C297.355 123.038 297.32 122.967 297.311 122.891C297.302 122.815 297.32 122.737 297.362 122.673C297.404 122.608 297.467 122.56 297.54 122.537L297.588 122.522C297.672 122.496 297.763 122.504 297.84 122.545C297.918 122.586 297.976 122.656 298.002 122.74C298.028 122.824 298.02 122.914 297.979 122.992C297.938 123.069 297.868 123.128 297.784 123.154L297.738 123.169C297.698 123.181 297.657 123.186 297.615 123.183V123.183ZM300.696 123.306C300.67 123.302 300.645 123.295 300.621 123.285L300.58 123.269C300.499 123.237 300.433 123.173 300.398 123.093C300.363 123.012 300.361 122.921 300.393 122.84C300.425 122.758 300.489 122.692 300.569 122.657C300.65 122.622 300.741 122.621 300.822 122.653L300.874 122.674C300.949 122.704 301.01 122.761 301.045 122.834C301.081 122.907 301.089 122.99 301.067 123.068C301.046 123.145 300.996 123.213 300.928 123.257C300.861 123.301 300.779 123.318 300.699 123.306H300.696Z" fill="#A1191D"/>
<path d="M298.995 127.853C298.875 127.853 298.757 127.817 298.657 127.75C298.556 127.683 298.478 127.587 298.432 127.476C298.386 127.364 298.374 127.242 298.397 127.124C298.421 127.005 298.479 126.897 298.564 126.811L300.613 124.762C300.728 124.647 300.883 124.583 301.045 124.583C301.207 124.583 301.362 124.647 301.477 124.762C301.591 124.876 301.655 125.032 301.655 125.193C301.655 125.355 301.591 125.511 301.477 125.625L299.427 127.674C299.313 127.789 299.157 127.853 298.995 127.853V127.853Z" fill="#FF6B70"/>
<path d="M299.036 128.477C299.739 128.477 300.308 127.907 300.308 127.205C300.308 126.502 299.739 125.933 299.036 125.933C298.333 125.933 297.764 126.502 297.764 127.205C297.764 127.907 298.333 128.477 299.036 128.477Z" fill="#FF6B70"/>
<path d="M363.792 295.516V295.521H363.215C363.214 295.52 363.214 295.519 363.214 295.519C363.214 295.518 363.214 295.517 363.215 295.516H363.792Z" fill="#F9FBFF"/>
<path d="M446.507 312.539H397.228C396.868 312.539 396.523 312.396 396.269 312.142C396.014 311.887 395.871 311.542 395.871 311.183V311.183C395.871 310.823 396.014 310.478 396.269 310.224C396.523 309.97 396.868 309.827 397.228 309.827H402.702C403.438 309.839 404.153 309.579 404.709 309.096C405.265 308.613 405.623 307.942 405.713 307.212C405.753 306.809 405.708 306.402 405.581 306.018C405.454 305.634 405.248 305.28 404.976 304.98C404.704 304.68 404.373 304.441 404.002 304.277C403.632 304.113 403.232 304.028 402.827 304.028H296.851C296.115 304.016 295.401 304.276 294.845 304.759C294.289 305.241 293.931 305.912 293.84 306.642C293.8 307.045 293.845 307.452 293.972 307.836C294.099 308.221 294.305 308.574 294.577 308.874C294.849 309.174 295.181 309.414 295.551 309.578C295.921 309.742 296.322 309.827 296.726 309.827H370.783C370.961 309.827 371.137 309.862 371.301 309.93C371.466 309.998 371.615 310.098 371.741 310.224C371.866 310.35 371.966 310.5 372.034 310.664C372.101 310.829 372.136 311.005 372.135 311.183V311.183C372.136 311.361 372.101 311.537 372.034 311.701C371.966 311.866 371.866 312.015 371.741 312.141C371.615 312.267 371.466 312.367 371.301 312.435C371.137 312.504 370.961 312.539 370.783 312.539H327.476C326.74 312.526 326.025 312.787 325.469 313.269C324.914 313.752 324.556 314.423 324.465 315.153C324.425 315.556 324.47 315.962 324.597 316.347C324.724 316.731 324.93 317.085 325.202 317.385C325.474 317.685 325.806 317.924 326.176 318.088C326.546 318.253 326.946 318.337 327.351 318.337H446.632C447.037 318.337 447.437 318.252 447.807 318.088C448.177 317.924 448.508 317.685 448.78 317.385C449.052 317.085 449.258 316.732 449.385 316.348C449.512 315.964 449.557 315.557 449.518 315.154C449.427 314.424 449.07 313.753 448.514 313.27C447.958 312.787 447.244 312.527 446.507 312.539V312.539Z" fill="#F1F5FB"/>
<path d="M431.569 304.028H413.636C412.035 304.028 410.736 305.326 410.736 306.927C410.736 308.528 412.035 309.826 413.636 309.826H431.569C433.17 309.826 434.469 308.528 434.469 306.927C434.469 305.326 433.17 304.028 431.569 304.028Z" fill="#F9FBFF"/>
<path d="M412.655 322.202H358.584C356.983 322.202 355.685 323.5 355.685 325.101C355.685 326.702 356.983 328 358.584 328H412.655C414.257 328 415.555 326.702 415.555 325.101C415.555 323.5 414.257 322.202 412.655 322.202Z" fill="#F1F5FB"/>
<path d="M360.021 248.656H350.19C349.951 248.656 349.722 248.561 349.552 248.392C349.383 248.223 349.288 247.994 349.288 247.755V247.755C349.288 247.516 349.383 247.286 349.552 247.117C349.722 246.948 349.951 246.853 350.19 246.853H355.631C356.069 246.862 356.496 246.708 356.827 246.42C357.158 246.132 357.371 245.732 357.424 245.296C357.445 245.059 357.416 244.821 357.34 244.596C357.264 244.371 357.142 244.164 356.982 243.989C356.822 243.814 356.627 243.674 356.409 243.578C356.192 243.482 355.957 243.433 355.719 243.433H331.394C330.955 243.424 330.529 243.579 330.198 243.867C329.866 244.154 329.654 244.555 329.601 244.99C329.58 245.227 329.608 245.465 329.684 245.69C329.76 245.915 329.882 246.122 330.043 246.297C330.203 246.472 330.398 246.612 330.615 246.708C330.833 246.804 331.068 246.853 331.305 246.853H341.409C341.648 246.853 341.877 246.948 342.046 247.117C342.215 247.286 342.31 247.516 342.31 247.755V247.755C342.31 247.994 342.215 248.223 342.046 248.392C341.877 248.561 341.648 248.656 341.409 248.656H335.787C335.348 248.648 334.922 248.802 334.591 249.09C334.259 249.378 334.047 249.778 333.994 250.213C333.973 250.45 334.001 250.688 334.077 250.913C334.153 251.138 334.275 251.345 334.436 251.52C334.596 251.696 334.791 251.836 335.008 251.931C335.226 252.027 335.461 252.077 335.698 252.076H338.872C338.989 252.076 339.106 252.1 339.215 252.145C339.323 252.19 339.422 252.256 339.505 252.339C339.589 252.422 339.654 252.521 339.699 252.63C339.744 252.739 339.768 252.855 339.767 252.973V252.973C339.767 253.215 339.671 253.447 339.5 253.618C339.329 253.789 339.097 253.885 338.854 253.885H325.466C325.027 253.877 324.601 254.031 324.27 254.319C323.938 254.607 323.726 255.007 323.673 255.443C323.652 255.679 323.68 255.918 323.756 256.143C323.832 256.368 323.954 256.574 324.114 256.75C324.275 256.925 324.47 257.065 324.687 257.161C324.905 257.256 325.14 257.306 325.377 257.306H349.702C350.141 257.315 350.567 257.16 350.899 256.873C351.23 256.585 351.443 256.185 351.495 255.749C351.517 255.513 351.488 255.274 351.412 255.049C351.336 254.824 351.214 254.617 351.054 254.442C350.894 254.266 350.699 254.126 350.481 254.031C350.264 253.935 350.029 253.885 349.791 253.885H345.518C345.278 253.885 345.049 253.79 344.88 253.621C344.711 253.452 344.616 253.223 344.616 252.984V252.984C344.616 252.745 344.711 252.516 344.88 252.347C345.049 252.177 345.278 252.083 345.518 252.083H360.111C360.349 252.083 360.584 252.033 360.801 251.937C361.019 251.842 361.214 251.702 361.374 251.526C361.535 251.351 361.657 251.144 361.733 250.919C361.809 250.694 361.837 250.456 361.816 250.219C361.764 249.782 361.552 249.38 361.22 249.091C360.888 248.802 360.461 248.647 360.021 248.656Z" fill="#F9FBFF"/>
<path d="M329.282 249.236H322.676C322.051 249.236 321.544 249.742 321.544 250.367C321.544 250.992 322.051 251.498 322.676 251.498H329.282C329.907 251.498 330.413 250.992 330.413 250.367C330.413 249.742 329.907 249.236 329.282 249.236Z" fill="#F9FBFF"/>
<path d="M442.697 234.543H436.091C435.466 234.543 434.959 235.049 434.959 235.674C434.959 236.299 435.466 236.806 436.091 236.806H442.697C443.322 236.806 443.828 236.299 443.828 235.674C443.828 235.049 443.322 234.543 442.697 234.543Z" fill="#F9FBFF"/>
<path d="M366.849 244.177H362.779C362.154 244.177 361.647 244.684 361.647 245.309C361.647 245.934 362.154 246.44 362.779 246.44H366.849C367.474 246.44 367.981 245.934 367.981 245.309C367.981 244.684 367.474 244.177 366.849 244.177Z" fill="#F9FBFF"/>
<path d="M432.626 255.785H428.557C427.932 255.785 427.425 256.292 427.425 256.917C427.425 257.541 427.932 258.048 428.557 258.048H432.626C433.251 258.048 433.758 257.541 433.758 256.917C433.758 256.292 433.251 255.785 432.626 255.785Z" fill="#F9FBFF"/>
<path d="M418.258 232.382H410.806C410.181 232.382 409.675 232.889 409.675 233.514C409.675 234.138 410.181 234.645 410.806 234.645H418.258C418.883 234.645 419.39 234.138 419.39 233.514C419.39 232.889 418.883 232.382 418.258 232.382Z" fill="#F9FBFF"/>
<path d="M438.915 250.933H431.399C430.605 250.933 429.961 251.577 429.961 252.371C429.961 253.164 430.605 253.808 431.399 253.808H438.915C439.71 253.808 440.354 253.164 440.354 252.371C440.354 251.577 439.71 250.933 438.915 250.933Z" fill="#F9FBFF"/>
<path d="M432.99 243.188H421.306C421.17 243.188 421.036 243.161 420.911 243.109C420.786 243.057 420.672 242.981 420.576 242.885C420.48 242.789 420.404 242.676 420.352 242.55C420.3 242.425 420.273 242.291 420.273 242.155V242.155C420.274 241.882 420.383 241.619 420.576 241.426C420.77 241.233 421.032 241.124 421.306 241.124H424.694C425.173 241.132 425.638 240.963 426 240.649C426.362 240.334 426.595 239.898 426.654 239.422C426.68 239.16 426.65 238.896 426.568 238.646C426.485 238.396 426.351 238.165 426.174 237.97C425.997 237.775 425.781 237.619 425.54 237.512C425.3 237.406 425.039 237.351 424.775 237.351H405.937C405.458 237.343 404.993 237.513 404.631 237.828C404.27 238.143 404.038 238.58 403.98 239.056C403.954 239.318 403.983 239.583 404.066 239.833C404.149 240.083 404.283 240.313 404.46 240.508C404.637 240.703 404.853 240.859 405.093 240.966C405.334 241.073 405.595 241.128 405.858 241.128H415.364C415.637 241.128 415.9 241.236 416.093 241.43C416.287 241.623 416.395 241.886 416.395 242.159V242.159C416.395 242.433 416.287 242.695 416.093 242.889C415.9 243.082 415.637 243.191 415.364 243.191H414.236C413.757 243.183 413.292 243.353 412.931 243.667C412.569 243.981 412.336 244.418 412.277 244.893C412.251 245.155 412.281 245.42 412.364 245.67C412.446 245.92 412.58 246.15 412.757 246.345C412.934 246.54 413.15 246.696 413.391 246.803C413.632 246.91 413.892 246.965 414.156 246.965H433.075C433.339 246.965 433.599 246.91 433.84 246.803C434.081 246.696 434.297 246.54 434.474 246.345C434.651 246.15 434.785 245.92 434.868 245.67C434.95 245.42 434.98 245.155 434.954 244.893C434.895 244.416 434.662 243.978 434.3 243.663C433.937 243.348 433.471 243.179 432.99 243.188V243.188Z" fill="#F9FBFF"/>
<path d="M215.749 236.463V244.979C215.749 245.922 216.514 246.686 217.457 246.686H219.948C220.891 246.686 221.656 245.922 221.656 244.979V236.463C221.656 235.52 220.891 234.756 219.948 234.756H217.457C216.514 234.756 215.749 235.52 215.749 236.463Z" fill="#CDD5DC"/>
<path d="M114.012 116.412H122.53C123.474 116.412 124.238 115.647 124.238 114.704V112.214C124.238 111.271 123.474 110.506 122.53 110.506H114.012C113.068 110.506 112.304 111.271 112.304 112.214V114.704C112.304 115.647 113.068 116.412 114.012 116.412Z" fill="#CDD5DC"/>
<path d="M293.727 145.127V153.643C293.727 154.586 294.491 155.35 295.435 155.35H297.926C298.869 155.35 299.634 154.586 299.634 153.643V145.127C299.634 144.184 298.869 143.419 297.926 143.419H295.435C294.491 143.419 293.727 144.184 293.727 145.127Z" fill="#CDD5DC"/>
<path d="M310.64 111.737H319.158C320.101 111.737 320.866 110.972 320.866 110.029V107.539C320.866 106.596 320.101 105.831 319.158 105.831H310.64C309.696 105.831 308.932 106.596 308.932 107.539V110.029C308.932 110.972 309.696 111.737 310.64 111.737Z" fill="#CDD5DC"/>
<path d="M114.012 221.33H122.53C123.474 221.33 124.238 220.565 124.238 219.622V217.132C124.238 216.189 123.474 215.425 122.53 215.425H114.012C113.068 215.425 112.304 216.189 112.304 217.132V219.622C112.304 220.565 113.068 221.33 114.012 221.33Z" fill="#CDD5DC"/>
<path d="M138.331 289.624V298.14C138.331 299.083 139.096 299.848 140.039 299.848H142.53C143.473 299.848 144.238 299.083 144.238 298.14V289.624C144.238 288.681 143.473 287.917 142.53 287.917H140.039C139.096 287.917 138.331 288.681 138.331 289.624Z" fill="#CDD5DC"/>
<path d="M174.284 127.144H178.812C179.113 127.177 179.415 127.09 179.654 126.903C179.893 126.716 180.049 126.443 180.089 126.142V124.674C180.089 123.952 179.145 123.466 178.303 123.756L174.286 125.46L174.284 127.144Z" fill="#E85157"/>
<g opacity="0.25">
<path d="M179.569 125.162C179.529 125.162 179.491 125.146 179.463 125.118C179.435 125.09 179.419 125.051 179.419 125.011C179.415 124.922 179.391 124.836 179.346 124.758C179.302 124.681 179.239 124.616 179.164 124.568C179.031 124.48 178.88 124.424 178.722 124.404C178.565 124.384 178.404 124.401 178.254 124.453C178.216 124.466 178.174 124.463 178.137 124.445C178.101 124.428 178.073 124.396 178.06 124.358C178.047 124.32 178.049 124.278 178.067 124.241C178.085 124.205 178.116 124.177 178.155 124.164C178.351 124.095 178.56 124.074 178.767 124.101C178.973 124.128 179.169 124.203 179.341 124.32C179.457 124.395 179.552 124.497 179.619 124.618C179.686 124.739 179.722 124.874 179.725 125.011C179.725 125.032 179.72 125.052 179.713 125.07C179.705 125.089 179.693 125.106 179.679 125.12C179.664 125.134 179.647 125.145 179.628 125.152C179.609 125.159 179.589 125.162 179.569 125.162V125.162Z" fill="#FAE1E2"/>
</g>
<path d="M171.807 127.144H167.279C166.978 127.177 166.675 127.09 166.437 126.903C166.198 126.716 166.042 126.443 166.002 126.142V124.674C166.002 123.952 166.946 123.466 167.787 123.756L171.804 125.46L171.807 127.144Z" fill="#E85157"/>
<path d="M174.216 126.33C174.216 125.665 173.676 125.126 173.011 125.126C172.346 125.126 171.807 125.665 171.807 126.33V135.493C171.807 136.158 172.346 136.697 173.011 136.697C173.676 136.697 174.216 136.158 174.216 135.493V126.33Z" fill="#6E7376"/>
<path d="M174.658 129.051H171.366C170.444 129.051 169.697 129.798 169.697 130.719V138.953C169.697 139.875 170.444 140.622 171.366 140.622H174.658C175.579 140.622 176.327 139.875 176.327 138.953V130.719C176.327 129.798 175.579 129.051 174.658 129.051Z" fill="#868C8F"/>
<path d="M176.594 131.39H169.43C168.212 131.39 167.225 132.377 167.225 133.594V140.756C167.225 141.973 168.212 142.961 169.43 142.961H176.594C177.812 142.961 178.799 141.973 178.799 140.756V133.594C178.799 132.377 177.812 131.39 176.594 131.39Z" fill="#9EA5A9"/>
<path d="M176.594 132.504H169.43C168.212 132.504 167.225 133.491 167.225 134.709V141.87C167.225 143.088 168.212 144.075 169.43 144.075H176.594C177.812 144.075 178.799 143.088 178.799 141.87V134.709C178.799 133.491 177.812 132.504 176.594 132.504Z" fill="#B5BDC2"/>
<path d="M172.889 125.254H173.2C173.681 125.254 174.142 125.445 174.481 125.785C174.821 126.125 175.012 126.585 175.012 127.066V127.234C175.012 127.463 174.921 127.683 174.759 127.845C174.597 128.007 174.377 128.098 174.147 128.098H171.94C171.711 128.098 171.491 128.007 171.329 127.845C171.166 127.683 171.075 127.463 171.075 127.234V127.066C171.075 126.828 171.122 126.592 171.214 126.372C171.305 126.152 171.438 125.952 171.607 125.784C171.775 125.616 171.975 125.482 172.195 125.391C172.415 125.3 172.651 125.254 172.889 125.254Z" fill="#CD2026"/>
<path d="M172.683 124.078H173.41C174.036 124.078 174.637 124.326 175.08 124.769C175.523 125.212 175.771 125.812 175.771 126.438V126.438C175.771 126.737 175.653 127.024 175.441 127.235C175.23 127.446 174.943 127.565 174.644 127.565H171.447C171.149 127.565 170.862 127.446 170.65 127.235C170.439 127.024 170.32 126.737 170.32 126.438V126.438C170.32 125.812 170.569 125.212 171.012 124.769C171.455 124.326 172.055 124.078 172.681 124.078H172.683Z" fill="#FF6B70"/>
<g opacity="0.25">
<path d="M166.521 125.162C166.482 125.162 166.443 125.146 166.415 125.118C166.387 125.09 166.371 125.051 166.371 125.011C166.374 124.874 166.41 124.739 166.477 124.618C166.544 124.497 166.639 124.395 166.754 124.32C166.926 124.203 167.123 124.128 167.329 124.101C167.536 124.074 167.745 124.095 167.942 124.164C167.98 124.177 168.011 124.205 168.029 124.242C168.047 124.278 168.049 124.32 168.036 124.358C168.023 124.397 167.995 124.428 167.958 124.446C167.922 124.463 167.88 124.466 167.842 124.453C167.691 124.401 167.531 124.384 167.373 124.404C167.215 124.424 167.064 124.48 166.932 124.568C166.856 124.616 166.794 124.681 166.749 124.758C166.705 124.836 166.68 124.922 166.677 125.011C166.677 125.032 166.673 125.052 166.665 125.07C166.657 125.089 166.646 125.106 166.631 125.12C166.617 125.134 166.599 125.145 166.581 125.152C166.562 125.159 166.542 125.162 166.521 125.162V125.162Z" fill="#FAE1E2"/>
</g>
<g opacity="0.25">
<path d="M171.624 125.278C171.585 125.278 171.547 125.263 171.519 125.236C171.504 125.222 171.492 125.205 171.484 125.187C171.476 125.169 171.471 125.149 171.471 125.129C171.47 125.109 171.474 125.089 171.481 125.07C171.489 125.051 171.5 125.034 171.514 125.02C171.679 124.846 171.878 124.708 172.098 124.613C172.318 124.519 172.556 124.471 172.796 124.472H173.295C173.528 124.472 173.759 124.517 173.975 124.606C174.19 124.695 174.385 124.826 174.55 124.991C174.578 125.02 174.594 125.059 174.594 125.099C174.594 125.14 174.578 125.178 174.55 125.207C174.536 125.222 174.519 125.233 174.5 125.241C174.482 125.249 174.462 125.253 174.441 125.253C174.421 125.253 174.401 125.249 174.383 125.241C174.364 125.233 174.347 125.222 174.333 125.207C174.197 125.07 174.036 124.962 173.857 124.888C173.679 124.814 173.488 124.777 173.295 124.777H172.796C172.597 124.776 172.401 124.816 172.219 124.893C172.036 124.971 171.871 125.085 171.735 125.228C171.721 125.244 171.704 125.256 171.685 125.264C171.666 125.273 171.645 125.277 171.624 125.278Z" fill="#FAE1E2"/>
</g>
<path d="M370.42 149.209C370.42 148.544 369.881 148.005 369.215 148.005C368.55 148.005 368.011 148.544 368.011 149.209V158.372C368.011 159.037 368.55 159.576 369.215 159.576C369.881 159.576 370.42 159.037 370.42 158.372V149.209Z" fill="#6E7376"/>
<path d="M370.862 153.558H367.57C366.649 153.558 365.901 154.305 365.901 155.226V163.46C365.901 164.382 366.649 165.129 367.57 165.129H370.862C371.783 165.129 372.531 164.382 372.531 163.46V155.226C372.531 154.305 371.783 153.558 370.862 153.558Z" fill="#868C8F"/>
<path d="M384.242 153.965C383.99 153.965 383.744 153.886 383.538 153.74L381.223 152.103C381.007 151.949 380.749 151.867 380.484 151.868H361.835C361.512 151.868 361.201 151.739 360.972 151.51C360.743 151.281 360.614 150.971 360.614 150.647C360.614 150.323 360.743 150.013 360.972 149.784C361.201 149.555 361.512 149.426 361.835 149.426H380.484C381.254 149.425 382.005 149.664 382.633 150.109L384.949 151.747C385.16 151.896 385.319 152.11 385.401 152.355C385.484 152.601 385.486 152.867 385.407 153.114C385.329 153.361 385.173 153.577 384.964 153.729C384.754 153.882 384.502 153.965 384.242 153.964V153.965Z" fill="#FF6B70"/>
<path d="M372.798 157.524H365.634C364.416 157.524 363.429 158.512 363.429 159.729V166.891C363.429 168.108 364.416 169.096 365.634 169.096H372.798C374.016 169.096 375.003 168.108 375.003 166.891V159.729C375.003 158.512 374.016 157.524 372.798 157.524Z" fill="#9EA5A9"/>
<path d="M372.798 158.639H365.634C364.416 158.639 363.429 159.626 363.429 160.844V168.005C363.429 169.223 364.416 170.21 365.634 170.21H372.798C374.016 170.21 375.003 169.223 375.003 168.005V160.844C375.003 159.626 374.016 158.639 372.798 158.639Z" fill="#B5BDC2"/>
<path d="M86.2936 195.865C82.4371 195.861 78.7398 194.327 76.0127 191.601C73.2857 188.875 71.7516 185.179 71.747 181.324V71.8026C71.745 69.7555 70.9307 67.7929 69.4826 66.3455C68.0346 64.898 66.0713 64.0841 64.0236 64.0823H44.0613C43.4684 64.09 42.8799 63.9799 42.3299 63.7584C41.78 63.5369 41.2795 63.2084 40.8575 62.792C40.4355 62.3756 40.1005 61.8795 39.8718 61.3326C39.6431 60.7858 39.5254 60.1989 39.5254 59.6062C39.5254 59.0134 39.6431 58.4266 39.8718 57.8797C40.1005 57.3328 40.4355 56.8368 40.8575 56.4204C41.2795 56.0039 41.78 55.6755 42.3299 55.454C42.8799 55.2325 43.4684 55.1224 44.0613 55.13H64.0236C68.4461 55.1338 72.6864 56.8914 75.814 60.0172C78.9415 63.143 80.7009 67.3815 80.7058 71.8026V181.324C80.6973 182.063 80.8355 182.797 81.1126 183.482C81.3897 184.168 81.8001 184.792 82.3201 185.318C82.8401 185.843 83.4593 186.261 84.1418 186.546C84.8243 186.831 85.5566 186.978 86.2963 186.978C87.0359 186.978 87.7682 186.831 88.4507 186.546C89.1332 186.261 89.7524 185.843 90.2724 185.318C90.7924 184.792 91.2028 184.168 91.4799 183.482C91.757 182.797 91.8952 182.063 91.8867 181.324V150.223C91.891 146.416 93.4059 142.766 96.0988 140.074C98.7918 137.382 102.443 135.867 106.251 135.863H216.823C220.631 135.867 224.283 137.381 226.976 140.073C229.669 142.766 231.184 146.416 231.188 150.223V164.263C231.189 164.982 231.474 165.671 231.982 166.179C232.491 166.687 233.18 166.972 233.898 166.973H377.053C380.935 166.977 384.656 168.52 387.401 171.263C390.146 174.007 391.689 177.727 391.693 181.608V185.174C391.693 186.361 391.221 187.499 390.382 188.339C389.542 189.179 388.403 189.65 387.215 189.65C386.028 189.65 384.889 189.179 384.049 188.339C383.209 187.499 382.737 186.361 382.737 185.174V181.608C382.736 180.101 382.137 178.657 381.071 177.591C380.005 176.526 378.56 175.927 377.053 175.925H233.902C230.809 175.922 227.844 174.692 225.657 172.506C223.47 170.319 222.24 167.355 222.236 164.263V150.223C222.235 148.789 221.665 147.414 220.65 146.4C219.636 145.386 218.261 144.816 216.826 144.814H106.248C104.814 144.816 103.438 145.386 102.424 146.4C101.41 147.414 100.839 148.789 100.838 150.223V181.324C100.833 185.179 99.2996 188.874 96.5731 191.6C93.8465 194.326 90.1498 195.86 86.2936 195.865V195.865Z" fill="#CDD5DC"/>
<path d="M76.4748 137.904C74.6161 137.904 72.7992 137.353 71.2537 136.32C69.7083 135.288 68.5038 133.821 67.7925 132.104C67.0812 130.387 66.8951 128.498 67.2577 126.676C67.6203 124.854 68.5154 123.18 69.8297 121.866C71.1439 120.552 72.8184 119.657 74.6414 119.295C76.4644 118.932 78.3539 119.118 80.0711 119.829C81.7883 120.54 83.256 121.744 84.2887 123.289C85.3213 124.834 85.8725 126.651 85.8725 128.509C85.8697 131 84.8787 133.388 83.1169 135.149C81.3551 136.91 78.9664 137.901 76.4748 137.904V137.904ZM76.4748 121.151C75.0183 121.151 73.5945 121.583 72.3835 122.392C71.1724 123.201 70.2285 124.351 69.6711 125.696C69.1138 127.041 68.9679 128.521 69.2521 129.95C69.5362 131.378 70.2376 132.689 71.2675 133.719C72.2974 134.749 73.6096 135.45 75.0381 135.734C76.4666 136.018 77.9473 135.872 79.293 135.315C80.6386 134.758 81.7887 133.814 82.5979 132.603C83.4071 131.393 83.839 129.969 83.839 128.513C83.838 126.561 83.0619 124.689 81.6811 123.308C80.3004 121.927 78.4278 121.151 76.4748 121.149V121.151Z" fill="#FF6B70"/>
<path d="M84.8554 129.322H68.098C67.8822 129.322 67.6752 129.237 67.5225 129.084C67.3699 128.931 67.2842 128.724 67.2842 128.509C67.2842 128.293 67.3699 128.086 67.5225 127.933C67.6752 127.781 67.8822 127.695 68.098 127.695H84.8554C85.0712 127.695 85.2782 127.781 85.4308 127.933C85.5834 128.086 85.6692 128.293 85.6692 128.509C85.6692 128.724 85.5834 128.931 85.4308 129.084C85.2782 129.237 85.0712 129.322 84.8554 129.322V129.322Z" fill="#FF6B70"/>
<path d="M80.6653 136.578C80.5222 136.578 80.3815 136.54 80.2575 136.469C80.1334 136.397 80.0305 136.294 79.959 136.17L71.5795 121.661C71.5222 121.568 71.4842 121.465 71.4675 121.357C71.4509 121.249 71.4561 121.139 71.4828 121.033C71.5094 120.928 71.557 120.829 71.6228 120.742C71.6885 120.655 71.7711 120.582 71.8655 120.527C71.9599 120.473 72.0643 120.438 72.1725 120.425C72.2807 120.411 72.3905 120.42 72.4954 120.449C72.6002 120.479 72.698 120.53 72.783 120.598C72.868 120.666 72.9384 120.751 72.99 120.847L81.3694 135.357C81.4409 135.48 81.4786 135.621 81.4787 135.764C81.4788 135.906 81.4412 136.047 81.3699 136.17C81.2985 136.294 81.1958 136.397 81.0722 136.468C80.9485 136.54 80.8082 136.577 80.6653 136.578V136.578Z" fill="#FF6B70"/>
<path d="M72.2841 136.578C72.1412 136.577 72.0009 136.54 71.8772 136.468C71.7535 136.397 71.6509 136.294 71.5795 136.17C71.5082 136.047 71.4706 135.906 71.4707 135.764C71.4708 135.621 71.5085 135.48 71.58 135.357L79.9594 120.847C80.011 120.751 80.0814 120.666 80.1664 120.598C80.2513 120.53 80.3491 120.479 80.454 120.449C80.5589 120.42 80.6687 120.411 80.7769 120.425C80.8851 120.438 80.9895 120.473 81.0839 120.527C81.1783 120.582 81.2609 120.655 81.3266 120.742C81.3923 120.829 81.44 120.928 81.4666 121.033C81.4933 121.139 81.4985 121.249 81.4819 121.357C81.4652 121.465 81.4271 121.568 81.3699 121.661L72.9904 136.17C72.9189 136.294 72.8159 136.397 72.6919 136.469C72.5679 136.54 72.4272 136.578 72.2841 136.578V136.578Z" fill="#FF6B70"/>
<path d="M76.4748 130.528C76.0751 130.528 75.6844 130.409 75.3521 130.187C75.0198 129.965 74.7608 129.65 74.6078 129.281C74.4549 128.911 74.415 128.505 74.493 128.113C74.571 127.721 74.7635 127.361 75.0462 127.079C75.3289 126.797 75.689 126.604 76.081 126.526C76.473 126.448 76.8793 126.489 77.2485 126.642C77.6178 126.795 77.9333 127.054 78.1552 127.386C78.3772 127.718 78.4956 128.109 78.4954 128.508C78.4948 129.044 78.2817 129.557 77.9029 129.936C77.524 130.314 77.0104 130.527 76.4748 130.528V130.528ZM76.4748 126.896C76.1557 126.896 75.8437 126.99 75.5784 127.167C75.3131 127.345 75.1063 127.596 74.9842 127.891C74.8621 128.186 74.8301 128.51 74.8924 128.823C74.9546 129.136 75.1083 129.423 75.3339 129.649C75.5596 129.874 75.847 130.028 76.16 130.09C76.473 130.153 76.7974 130.121 77.0922 129.999C77.387 129.876 77.6389 129.67 77.8162 129.404C77.9935 129.139 78.0881 128.827 78.0881 128.508C78.0869 128.081 77.9165 127.672 77.6141 127.37C77.3117 127.069 76.902 126.899 76.4748 126.899V126.896Z" fill="#F1F5FB"/>
<path d="M392.608 183.666H381.822C380.609 183.666 379.626 184.649 379.626 185.862V189.151C379.626 190.363 380.609 191.346 381.822 191.346H392.608C393.821 191.346 394.805 190.363 394.805 189.151V185.862C394.805 184.649 393.821 183.666 392.608 183.666Z" fill="#B5BDC2"/>
<path d="M387.798 178.01C387.668 178.01 387.541 177.968 387.436 177.891C387.331 177.814 387.254 177.705 387.215 177.581C386.761 176.126 385.965 174.801 384.894 173.717C383.824 172.632 382.509 171.819 381.06 171.345C380.908 171.294 380.782 171.185 380.71 171.042C380.638 170.898 380.625 170.732 380.674 170.579C380.724 170.427 380.831 170.3 380.974 170.226C381.117 170.152 381.283 170.137 381.436 170.185C383.07 170.719 384.553 171.636 385.761 172.86C386.969 174.083 387.866 175.578 388.379 177.218C388.407 177.31 388.414 177.407 388.398 177.501C388.382 177.595 388.344 177.684 388.287 177.761C388.231 177.838 388.157 177.901 388.071 177.944C387.986 177.987 387.892 178.01 387.796 178.01L387.798 178.01Z" fill="#E3E9F1"/>
<path d="M76.4752 66.5495C76.3449 66.5495 76.2181 66.5079 76.1132 66.4307C76.0083 66.3535 75.9308 66.2449 75.892 66.1206C75.4375 64.6661 74.6417 63.3412 73.571 62.2566C72.5003 61.172 71.1857 60.359 69.7369 59.8855C69.5847 59.8343 69.4588 59.7251 69.3865 59.5817C69.3143 59.4383 69.3015 59.2723 69.3509 59.1195C69.4004 58.9667 69.5081 58.8396 69.6507 58.7657C69.7933 58.6919 69.9593 58.6772 70.1126 58.7248C71.7471 59.2588 73.2302 60.1759 74.438 61.3994C75.6459 62.623 76.5435 64.1176 77.056 65.7585C77.0844 65.8499 77.0909 65.9466 77.075 66.041C77.0591 66.1353 77.0213 66.2246 76.9645 66.3016C76.9078 66.3787 76.8338 66.4413 76.7484 66.4845C76.663 66.5277 76.5686 66.5502 76.4729 66.5503L76.4752 66.5495Z" fill="#E3E9F1"/>
<path d="M226.676 146.69C226.545 146.69 226.419 146.648 226.314 146.571C226.209 146.494 226.131 146.385 226.093 146.261C225.638 144.807 224.842 143.482 223.771 142.397C222.701 141.313 221.386 140.5 219.937 140.026C219.859 140.003 219.785 139.965 219.721 139.914C219.657 139.862 219.605 139.799 219.566 139.726C219.527 139.654 219.504 139.575 219.497 139.493C219.489 139.411 219.499 139.329 219.524 139.251C219.549 139.173 219.59 139.101 219.644 139.039C219.697 138.977 219.763 138.927 219.837 138.891C219.91 138.855 219.99 138.834 220.072 138.83C220.154 138.826 220.236 138.838 220.313 138.866C221.947 139.4 223.43 140.317 224.638 141.541C225.845 142.764 226.743 144.258 227.256 145.899C227.284 145.99 227.291 146.087 227.275 146.181C227.259 146.276 227.221 146.365 227.164 146.442C227.108 146.519 227.034 146.582 226.948 146.625C226.863 146.668 226.768 146.691 226.673 146.691L226.676 146.69Z" fill="#E3E9F1"/>
<path d="M96.0525 146.69C95.9568 146.69 95.8624 146.667 95.7771 146.624C95.6917 146.581 95.6177 146.518 95.561 146.441C95.5043 146.364 95.4665 146.275 95.4507 146.181C95.435 146.086 95.4416 145.989 95.4701 145.898C95.9827 144.258 96.8802 142.763 98.0878 141.54C99.2953 140.317 100.778 139.399 102.412 138.865C102.489 138.837 102.571 138.825 102.653 138.829C102.735 138.834 102.815 138.854 102.889 138.89C102.962 138.926 103.028 138.977 103.082 139.038C103.135 139.1 103.176 139.172 103.201 139.25C103.227 139.328 103.236 139.411 103.229 139.492C103.221 139.574 103.198 139.653 103.159 139.726C103.121 139.798 103.068 139.862 103.004 139.913C102.94 139.965 102.867 140.003 102.788 140.025C101.339 140.499 100.025 141.312 98.9539 142.397C97.8832 143.481 97.0873 144.806 96.6326 146.26C96.5942 146.384 96.5173 146.493 96.4129 146.57C96.3086 146.647 96.1823 146.689 96.0525 146.69Z" fill="#E3E9F1"/>
<path d="M394.804 185.869H379.625C379.623 185.29 379.85 184.733 380.258 184.32C380.665 183.907 381.219 183.673 381.799 183.667H392.633C393.212 183.673 393.766 183.908 394.173 184.321C394.579 184.733 394.807 185.29 394.804 185.869V185.869Z" fill="#9EA5A9"/>
<path d="M349.553 167.175V175.691C349.553 176.634 350.317 177.398 351.261 177.398H353.752C354.695 177.398 355.46 176.634 355.46 175.691V167.175C355.46 166.232 354.695 165.467 353.752 165.467H351.261C350.317 165.467 349.553 166.232 349.553 167.175Z" fill="#B5BDC2"/>
<path d="M351.248 165.467V177.398C350.797 177.395 350.366 177.213 350.048 176.893C349.731 176.573 349.554 176.14 349.555 175.689V167.176C349.554 166.725 349.731 166.292 350.048 165.972C350.366 165.652 350.797 165.47 351.248 165.467V165.467Z" fill="#9EA5A9"/>
<path d="M72.2149 112.134H80.7334C81.6767 112.134 82.4414 111.37 82.4414 110.427V107.937C82.4414 106.994 81.6767 106.229 80.7334 106.229H72.2149C71.2716 106.229 70.5069 106.994 70.5069 107.937V110.427C70.5069 111.37 71.2716 112.134 72.2149 112.134Z" fill="#B5BDC2"/>
<path d="M70.5068 110.439H82.4421C82.439 110.89 82.2573 111.321 81.937 111.638C81.6166 111.956 81.1836 112.133 80.7326 112.132H72.2141C71.7636 112.132 71.3313 111.955 71.0114 111.637C70.6916 111.32 70.5102 110.889 70.5068 110.439V110.439Z" fill="#9EA5A9"/>
<path d="M72.2149 150.788H80.7334C81.6767 150.788 82.4414 150.023 82.4414 149.08V146.59C82.4414 145.647 81.6767 144.882 80.7334 144.882H72.2149C71.2716 144.882 70.5069 145.647 70.5069 146.59V149.08C70.5069 150.023 71.2716 150.788 72.2149 150.788Z" fill="#B5BDC2"/>
<path d="M70.5068 149.094H82.4421C82.439 149.545 82.2573 149.976 81.9369 150.293C81.6165 150.61 81.1835 150.788 80.7326 150.786H72.2141C71.7637 150.787 71.3315 150.609 71.0117 150.292C70.6919 149.975 70.5104 149.544 70.5068 149.094V149.094Z" fill="#9EA5A9"/>
<path d="M337.915 170.094H276.063C275.981 170.097 275.899 170.083 275.823 170.054C275.746 170.024 275.676 169.98 275.617 169.923C275.558 169.866 275.511 169.798 275.479 169.722C275.447 169.647 275.431 169.566 275.431 169.484C275.431 169.401 275.447 169.32 275.479 169.245C275.511 169.169 275.558 169.101 275.617 169.044C275.676 168.987 275.746 168.943 275.823 168.913C275.899 168.884 275.981 168.87 276.063 168.873H337.915C337.997 168.87 338.079 168.884 338.155 168.913C338.232 168.943 338.302 168.987 338.361 169.044C338.42 169.101 338.467 169.169 338.499 169.245C338.531 169.32 338.547 169.401 338.547 169.484C338.547 169.566 338.531 169.647 338.499 169.722C338.467 169.798 338.42 169.866 338.361 169.923C338.302 169.98 338.232 170.024 338.155 170.054C338.079 170.083 337.997 170.097 337.915 170.094V170.094Z" fill="#E3E9F1"/>
<path d="M270.563 170.112H261.091C260.932 170.107 260.782 170.04 260.672 169.926C260.562 169.812 260.501 169.66 260.501 169.502C260.501 169.344 260.562 169.191 260.672 169.078C260.782 168.964 260.932 168.897 261.091 168.891H270.563C270.645 168.889 270.726 168.902 270.803 168.932C270.879 168.961 270.949 169.006 271.008 169.062C271.067 169.119 271.114 169.188 271.146 169.263C271.178 169.339 271.195 169.42 271.195 169.502C271.195 169.584 271.178 169.665 271.146 169.741C271.114 169.816 271.067 169.884 271.008 169.941C270.949 169.998 270.879 170.043 270.803 170.072C270.726 170.101 270.645 170.115 270.563 170.112V170.112Z" fill="#E3E9F1"/>
<path d="M39 55.0449V63.5608C39 64.5038 39.7647 65.2683 40.708 65.2683H43.1991C44.1424 65.2683 44.9072 64.5038 44.9072 63.5608V55.0449C44.9072 54.1019 44.1424 53.3374 43.1991 53.3374H40.708C39.7647 53.3374 39 54.1019 39 55.0449Z" fill="#B5BDC2"/>
<path d="M40.6953 53.3384V65.27C40.2441 65.267 39.8125 65.0855 39.4948 64.7653C39.1771 64.445 38.9992 64.012 39 63.561V55.0474C38.9992 54.5964 39.1771 54.1634 39.4948 53.8431C39.8125 53.5228 40.2441 53.3413 40.6953 53.3384V53.3384Z" fill="#9EA5A9"/>
<path d="M187.594 136.245V144.761C187.594 145.704 188.358 146.468 189.302 146.468H191.793C192.736 146.468 193.501 145.704 193.501 144.761V136.245C193.501 135.302 192.736 134.537 191.793 134.537H189.302C188.358 134.537 187.594 135.302 187.594 136.245Z" fill="#B5BDC2"/>
<path d="M189.291 134.537V146.469C188.84 146.466 188.409 146.284 188.091 145.964C187.774 145.644 187.597 145.211 187.598 144.76V136.247C187.597 135.796 187.774 135.363 188.091 135.043C188.409 134.723 188.84 134.541 189.291 134.537Z" fill="#9EA5A9"/>
<path d="M152.591 136.245V144.761C152.591 145.704 153.356 146.468 154.299 146.468H156.79C157.733 146.468 158.498 145.704 158.498 144.761V136.245C158.498 135.302 157.733 134.537 156.79 134.537H154.299C153.356 134.537 152.591 135.302 152.591 136.245Z" fill="#B5BDC2"/>
<path d="M154.286 134.537V146.469C153.835 146.466 153.404 146.284 153.087 145.964C152.769 145.644 152.592 145.211 152.593 144.76V136.247C152.592 135.796 152.769 135.363 153.087 135.043C153.404 134.723 153.835 134.541 154.286 134.537V134.537Z" fill="#9EA5A9"/>
<path d="M356.434 271.508V274.182C356.433 274.326 356.404 274.468 356.348 274.601C356.292 274.734 356.21 274.854 356.107 274.955C356.21 274.854 356.291 274.733 356.346 274.601C356.401 274.468 356.429 274.326 356.429 274.182V271.508C356.43 271.398 356.413 271.288 356.38 271.183C356.416 271.288 356.434 271.398 356.434 271.508Z" fill="#F9FBFF"/>
<path d="M376.188 293.225H360.667V268.1C360.69 267.241 360.371 266.409 359.779 265.785C359.188 265.162 358.374 264.799 357.515 264.775H354.925V260.521C354.895 259.373 355.321 258.259 356.111 257.425C356.901 256.59 357.989 256.103 359.138 256.071H376.187" fill="#F9FBFF"/>
<path d="M330.154 274.513V281.032H327.148C326.839 281.031 326.533 281.092 326.247 281.21C325.961 281.328 325.701 281.501 325.482 281.719C325.263 281.938 325.089 282.197 324.971 282.483C324.852 282.768 324.791 283.074 324.791 283.384V293.225H313.919V274.513C313.919 273.333 314.388 272.201 315.223 271.366C316.058 270.532 317.19 270.063 318.371 270.063H325.703C326.288 270.063 326.867 270.178 327.407 270.401C327.947 270.625 328.438 270.952 328.851 271.366C329.265 271.779 329.593 272.27 329.816 272.81C330.04 273.35 330.154 273.929 330.154 274.513V274.513Z" fill="#F9FBFF"/>
<path d="M330.153 290.628V290.635C330.136 290.612 330.122 290.587 330.111 290.56C330.123 290.584 330.137 290.607 330.153 290.628V290.628Z" fill="#F9FBFF"/>
<path d="M399.246 256.329H415.529C416.114 256.329 416.693 256.443 417.234 256.667C417.775 256.89 418.266 257.218 418.68 257.631C419.093 258.045 419.422 258.535 419.646 259.075C419.87 259.615 419.985 260.194 419.985 260.779V262.74H417.956C417.364 262.739 416.778 262.855 416.23 263.082C415.683 263.308 415.186 263.64 414.767 264.058C414.348 264.477 414.016 264.974 413.79 265.521C413.563 266.069 413.447 266.655 413.448 267.247V293.227H399.258" fill="#F9FBFF"/>
<path d="M419.986 269.474V272.148C419.987 272.257 419.97 272.365 419.938 272.469C419.967 272.365 419.983 272.256 419.983 272.148V269.474C419.982 269.377 419.97 269.28 419.946 269.186C419.974 269.279 419.987 269.376 419.986 269.474V269.474Z" fill="#F9FBFF"/>
<path d="M419.814 282.379C419.864 282.299 419.904 282.212 419.933 282.122C419.908 282.214 419.868 282.301 419.814 282.379Z" fill="#F9FBFF"/>
<path d="M419.986 279.119V281.792C419.988 281.904 419.97 282.016 419.934 282.122C419.966 282.016 419.983 281.906 419.982 281.796V279.119C419.982 278.991 419.96 278.864 419.917 278.743C419.963 278.863 419.986 278.99 419.986 279.119V279.119Z" fill="#F9FBFF"/>
<path d="M418.477 282.886C418.405 282.885 418.333 282.878 418.261 282.865C418.406 282.899 418.556 282.899 418.701 282.865C418.627 282.878 418.552 282.885 418.477 282.886V282.886ZM418.534 273.237H418.477C418.441 273.239 418.404 273.239 418.367 273.237C418.404 273.237 418.443 273.245 418.482 273.245C418.499 273.245 418.517 273.242 418.534 273.236V273.237ZM418.425 278.027H418.534C418.517 278.025 418.499 278.025 418.482 278.027C418.463 278.025 418.444 278.025 418.425 278.027V278.027ZM417.387 272.146C417.385 272.164 417.385 272.182 417.387 272.2V269.473C417.385 269.436 417.385 269.4 417.387 269.363C417.381 269.399 417.378 269.436 417.379 269.473L417.387 272.146ZM417.394 279.008C417.388 279.044 417.386 279.081 417.387 279.118V281.795C417.386 281.832 417.388 281.869 417.394 281.905C417.394 281.869 417.394 281.83 417.394 281.791V279.118C417.392 279.081 417.392 279.044 417.394 279.008V279.008ZM353.83 271.503V274.181C353.829 274.2 353.829 274.219 353.83 274.238V271.509C353.83 271.219 353.945 270.941 354.15 270.736C354.354 270.53 354.632 270.415 354.922 270.414C355.03 270.414 355.139 270.429 355.243 270.458C355.139 270.425 355.031 270.409 354.922 270.409C354.632 270.411 354.355 270.527 354.151 270.732C353.947 270.937 353.831 271.214 353.83 271.503V271.503ZM354.925 270.409C354.635 270.41 354.357 270.525 354.152 270.73C353.947 270.935 353.831 271.213 353.83 271.503V274.181C353.829 274.2 353.829 274.219 353.83 274.238V271.509C353.83 271.219 353.945 270.941 354.15 270.736C354.354 270.53 354.632 270.415 354.922 270.414C355.03 270.414 355.139 270.429 355.243 270.458C355.14 270.426 355.033 270.409 354.925 270.409V270.409ZM417.387 269.473V272.146C417.385 272.164 417.385 272.182 417.387 272.2V269.473C417.385 269.436 417.385 269.4 417.387 269.363C417.383 269.4 417.383 269.436 417.387 269.473V269.473ZM418.477 273.237C418.441 273.239 418.404 273.239 418.367 273.237C418.404 273.237 418.443 273.245 418.482 273.245C418.499 273.246 418.517 273.245 418.534 273.241L418.477 273.237ZM417.391 279.118C417.389 279.081 417.389 279.044 417.391 279.008C417.384 279.044 417.382 279.081 417.383 279.118V281.795C417.382 281.832 417.384 281.869 417.391 281.905C417.391 281.869 417.391 281.83 417.391 281.791V279.118ZM418.477 282.886C418.405 282.885 418.333 282.878 418.261 282.865C418.406 282.899 418.556 282.899 418.701 282.865C418.627 282.878 418.552 282.885 418.477 282.886ZM418.482 278.023C418.463 278.021 418.444 278.021 418.425 278.023H418.534C418.517 278.021 418.5 278.021 418.483 278.023H418.482Z" fill="#E3E9F1"/>
<path d="M449.098 293.222H437.394V267.243C437.395 266.652 437.28 266.066 437.054 265.519C436.828 264.973 436.497 264.476 436.08 264.057C435.662 263.639 435.166 263.307 434.619 263.08C434.073 262.853 433.488 262.736 432.896 262.736H431.844V259.399C431.844 258.915 431.652 258.451 431.31 258.109C430.968 257.767 430.504 257.575 430.02 257.575C429.537 257.575 429.073 257.767 428.731 258.109C428.389 258.451 428.197 258.915 428.197 259.399V262.736H417.546C416.953 262.735 416.367 262.851 415.819 263.077C415.272 263.303 414.775 263.635 414.356 264.054C413.937 264.473 413.605 264.97 413.379 265.517C413.152 266.064 413.036 266.651 413.037 267.243V293.222H361.097V268.102C361.096 267.879 361.074 267.657 361.032 267.438C361.019 267.367 361.003 267.296 360.983 267.226C360.958 267.133 360.93 267.043 360.897 266.954C360.857 266.852 360.816 266.755 360.771 266.653C360.743 266.592 360.71 266.531 360.677 266.474C360.644 266.417 360.608 266.356 360.571 266.299C360.534 266.241 360.496 266.189 360.458 266.136C360.43 266.095 360.4 266.056 360.368 266.018C360.335 265.978 360.303 265.936 360.271 265.9C360.238 265.864 360.205 265.825 360.169 265.79C360.132 265.755 360.099 265.715 360.063 265.684C360.014 265.636 359.961 265.591 359.912 265.55C359.863 265.51 359.815 265.468 359.762 265.428C359.762 265.428 359.762 265.428 359.754 265.428C359.693 265.383 359.632 265.339 359.567 265.297C359.501 265.256 359.437 265.216 359.367 265.179C359.367 265.179 359.359 265.179 359.355 265.171C359.29 265.135 359.221 265.102 359.156 265.073C359.09 265.045 359.017 265.012 358.944 264.984C358.899 264.968 358.854 264.952 358.81 264.94C358.793 264.932 358.775 264.927 358.757 264.923C358.712 264.907 358.663 264.895 358.618 264.883C358.61 264.877 358.6 264.874 358.59 264.874C358.541 264.862 358.488 264.849 358.439 264.842C358.428 264.837 358.415 264.834 358.403 264.834C358.286 264.809 358.168 264.793 358.049 264.785C357.977 264.776 357.905 264.772 357.833 264.772H344.541C344.103 264.772 343.67 264.858 343.266 265.025C342.862 265.193 342.495 265.438 342.186 265.747C341.876 266.056 341.631 266.423 341.464 266.827C341.297 267.231 341.211 267.664 341.211 268.102V281.03H326.739C326.659 281.029 326.579 281.035 326.5 281.047C326.343 281.059 326.189 281.09 326.04 281.14C325.965 281.164 325.897 281.189 325.824 281.215C325.751 281.241 325.686 281.28 325.621 281.317C325.486 281.387 325.36 281.472 325.245 281.569C325.129 281.665 325.023 281.771 324.927 281.886C324.891 281.931 324.858 281.976 324.826 282.021C324.793 282.066 324.76 282.114 324.732 282.163C324.699 282.211 324.671 282.261 324.647 282.313C324.622 282.362 324.598 282.414 324.572 282.468C324.451 282.758 324.388 283.069 324.388 283.384V293.219H307.562C307.181 293.219 306.804 293.294 306.452 293.44C306.1 293.586 305.781 293.8 305.511 294.069C305.242 294.338 305.029 294.658 304.883 295.01C304.738 295.362 304.663 295.74 304.664 296.12C304.664 297.72 305.959 299.018 305.527 299.018H447.062C450.701 299.018 452 297.72 452 296.12C452 295.351 451.694 294.614 451.149 294.07C450.605 293.527 449.867 293.222 449.098 293.222V293.222ZM331.734 290.003C331.735 290.236 331.661 290.463 331.523 290.651C331.385 290.839 331.191 290.978 330.969 291.048C330.746 291.118 330.507 291.114 330.287 291.038C330.066 290.962 329.876 290.818 329.744 290.626C329.728 290.606 329.714 290.584 329.703 290.561C329.683 290.532 329.666 290.5 329.654 290.467C329.654 290.459 329.646 290.455 329.646 290.447C329.628 290.412 329.613 290.375 329.602 290.337C329.597 290.337 329.597 290.337 329.597 290.329C329.585 290.28 329.573 290.231 329.565 290.182C329.565 290.182 329.565 290.17 329.565 290.162C329.557 290.109 329.552 290.056 329.552 290.003V287.326C329.552 287.273 329.557 287.219 329.565 287.167C329.565 287.158 329.565 287.15 329.565 287.146C329.573 287.098 329.585 287.049 329.597 287C329.6 286.998 329.601 286.995 329.602 286.992C329.618 286.94 329.638 286.89 329.663 286.841C329.678 286.802 329.699 286.765 329.723 286.731C329.732 286.719 329.74 286.711 329.744 286.703C329.876 286.511 330.066 286.367 330.287 286.291C330.507 286.215 330.746 286.212 330.969 286.281C331.191 286.351 331.385 286.49 331.523 286.678C331.661 286.866 331.735 287.093 331.734 287.326V290.003ZM348.73 283.085C348.73 283.376 348.615 283.654 348.409 283.859C348.204 284.065 347.925 284.18 347.635 284.18C347.345 284.18 347.066 284.065 346.861 283.859C346.656 283.654 346.54 283.376 346.54 283.085V280.412C346.54 280.121 346.656 279.843 346.861 279.638C347.066 279.433 347.345 279.317 347.635 279.317C347.925 279.317 348.204 279.433 348.409 279.638C348.615 279.843 348.73 280.121 348.73 280.412V283.085ZM348.73 274.181C348.73 274.471 348.615 274.75 348.409 274.955C348.204 275.16 347.925 275.276 347.635 275.276C347.345 275.276 347.066 275.16 346.861 274.955C346.656 274.75 346.54 274.471 346.54 274.181V271.503C346.54 271.213 346.656 270.934 346.861 270.729C347.066 270.524 347.345 270.408 347.635 270.408C347.925 270.408 348.204 270.524 348.409 270.729C348.615 270.934 348.73 271.213 348.73 271.503V274.181ZM355.744 293.222H351.16V288.705C351.16 288.551 351.19 288.399 351.248 288.257C351.307 288.115 351.393 287.986 351.501 287.877C351.61 287.768 351.739 287.682 351.881 287.623C352.023 287.564 352.175 287.533 352.329 287.533H354.572C354.882 287.534 355.179 287.658 355.398 287.878C355.617 288.098 355.74 288.395 355.74 288.705L355.744 293.222ZM356.021 274.181C356.02 274.255 356.013 274.329 356 274.401C355.992 274.437 355.984 274.476 355.975 274.507C355.967 274.541 355.954 274.573 355.939 274.604C355.884 274.735 355.804 274.854 355.703 274.954C355.602 275.056 355.482 275.137 355.349 275.192C355.217 275.247 355.075 275.276 354.931 275.276C354.788 275.276 354.646 275.247 354.513 275.192C354.381 275.137 354.261 275.056 354.16 274.954C354.111 274.904 354.066 274.849 354.025 274.792C353.985 274.733 353.951 274.67 353.924 274.604C353.896 274.539 353.874 274.471 353.859 274.401C353.851 274.366 353.846 274.331 353.842 274.295C353.844 274.276 353.844 274.257 353.842 274.238C353.84 274.219 353.84 274.2 353.842 274.181V271.503C353.843 271.213 353.958 270.935 354.164 270.73C354.369 270.525 354.647 270.409 354.937 270.408C355.046 270.408 355.155 270.424 355.259 270.457L355.356 270.494C355.399 270.512 355.442 270.532 355.482 270.555C355.535 270.587 355.585 270.622 355.633 270.661C355.744 270.751 355.836 270.861 355.906 270.986C355.937 271.047 355.962 271.112 355.981 271.178C356.014 271.283 356.03 271.393 356.03 271.503L356.021 274.181ZM417.387 269.472C417.386 269.436 417.388 269.399 417.395 269.363C417.399 269.33 417.403 269.297 417.407 269.27C417.428 269.158 417.466 269.051 417.521 268.952C417.553 268.889 417.593 268.831 417.639 268.777C417.652 268.765 417.664 268.748 417.68 268.732C417.693 268.718 417.706 268.704 417.721 268.691C417.739 268.668 417.761 268.648 417.785 268.63C417.808 268.61 417.834 268.592 417.86 268.578C417.873 268.564 417.889 268.553 417.906 268.545C417.938 268.522 417.974 268.503 418.011 268.488C418.082 268.45 418.158 268.423 418.236 268.406C418.275 268.397 418.314 268.39 418.354 268.386C418.395 268.386 418.435 268.378 418.476 268.378H418.509C418.517 268.377 418.526 268.379 418.533 268.382C418.558 268.381 418.583 268.381 418.608 268.382C418.648 268.387 418.687 268.393 418.726 268.403C418.805 268.419 418.881 268.447 418.952 268.485C418.989 268.499 419.025 268.518 419.058 268.541C419.075 268.55 419.091 268.561 419.106 268.574C419.13 268.59 419.154 268.608 419.175 268.627C419.2 268.644 419.222 268.664 419.241 268.687C419.257 268.698 419.271 268.712 419.281 268.728C419.298 268.745 419.31 268.761 419.322 268.773C419.343 268.796 419.361 268.821 419.375 268.848C419.394 268.872 419.411 268.897 419.428 268.923C419.44 268.952 419.457 268.977 419.469 269.005L419.505 269.091C419.514 269.123 419.526 269.152 419.534 269.18C419.558 269.275 419.57 269.371 419.57 269.469V272.142C419.57 272.251 419.555 272.359 419.526 272.464C419.514 272.501 419.501 272.533 419.489 272.566C419.477 272.599 419.452 272.641 419.432 272.679C419.411 272.718 419.383 272.749 419.357 272.785C419.326 272.831 419.29 272.874 419.251 272.912C419.228 272.937 419.203 272.96 419.175 272.981C419.147 273.005 419.118 273.026 419.09 273.046C419.061 273.066 419.029 273.083 419 273.103C418.972 273.123 418.935 273.135 418.903 273.148C418.87 273.161 418.837 273.172 418.801 273.184C418.768 273.196 418.734 273.205 418.699 273.213C418.699 273.213 418.687 273.217 418.683 273.217C418.65 273.217 418.618 273.225 418.589 273.229C418.573 273.229 418.553 273.229 418.532 273.229C418.515 273.233 418.497 273.235 418.48 273.234C418.443 273.234 418.405 273.229 418.365 273.226L418.276 273.214C418.229 273.205 418.183 273.193 418.138 273.177C418.109 273.165 418.081 273.156 418.056 273.144C418.031 273.132 417.991 273.115 417.958 273.099C417.925 273.084 417.897 273.063 417.869 273.042C417.84 273.022 417.812 273.002 417.783 272.977C417.756 272.956 417.731 272.933 417.708 272.908C417.682 272.885 417.659 272.86 417.638 272.833C417.59 272.777 417.549 272.716 417.516 272.65C417.501 272.622 417.487 272.594 417.476 272.564L417.439 272.467C417.427 272.43 417.419 272.398 417.41 272.361C417.402 272.324 417.398 272.286 417.394 272.251C417.392 272.232 417.392 272.213 417.394 272.194C417.392 272.176 417.392 272.159 417.394 272.141L417.387 269.472ZM418.058 282.801C417.992 282.774 417.929 282.74 417.871 282.698C417.813 282.658 417.759 282.613 417.709 282.564C417.683 282.541 417.66 282.516 417.639 282.489C417.601 282.445 417.569 282.397 417.541 282.347C417.516 282.307 417.494 282.265 417.476 282.221C417.449 282.155 417.427 282.087 417.411 282.017C417.403 281.98 417.399 281.942 417.395 281.907C417.388 281.871 417.386 281.834 417.387 281.797V279.12C417.386 279.083 417.388 279.046 417.395 279.01C417.399 278.977 417.403 278.945 417.407 278.916C417.415 278.869 417.427 278.823 417.443 278.778C417.456 278.749 417.464 278.721 417.476 278.697C417.49 278.663 417.504 278.631 417.521 278.599C417.555 278.537 417.595 278.479 417.639 278.424C417.685 278.371 417.735 278.322 417.789 278.278C417.844 278.233 417.902 278.194 417.964 278.16C417.996 278.142 418.028 278.127 418.062 278.115C418.09 278.101 418.118 278.091 418.148 278.082C418.148 278.082 418.156 278.078 418.16 278.078C418.193 278.07 418.225 278.057 418.262 278.049C418.298 278.042 418.335 278.036 418.371 278.033C418.39 278.029 418.409 278.028 418.429 278.029C418.448 278.027 418.467 278.027 418.486 278.029C418.522 278.031 418.559 278.034 418.595 278.037L418.689 278.049C418.701 278.049 418.712 278.052 418.722 278.057L418.807 278.081L418.909 278.118C418.942 278.131 418.975 278.146 419.006 278.163C419.13 278.23 419.239 278.32 419.328 278.428C419.365 278.477 419.403 278.525 419.434 278.578C419.465 278.631 419.487 278.688 419.509 278.749C419.517 278.777 419.529 278.806 419.538 278.839C419.55 278.883 419.558 278.928 419.566 278.977C419.575 279.026 419.574 279.075 419.574 279.123V281.801C419.575 281.911 419.558 282.021 419.526 282.127C419.497 282.217 419.457 282.303 419.407 282.383C419.391 282.409 419.373 282.434 419.354 282.458C419.326 282.498 419.293 282.535 419.257 282.568C419.206 282.617 419.152 282.662 419.094 282.702C419.036 282.744 418.973 282.778 418.906 282.804C418.841 282.832 418.772 282.853 418.703 282.869C418.558 282.902 418.408 282.902 418.263 282.869C418.193 282.853 418.124 282.83 418.058 282.801V282.801ZM422.976 294.061H418.392V289.136C418.392 288.983 418.422 288.831 418.481 288.689C418.54 288.547 418.627 288.418 418.736 288.309C418.844 288.201 418.974 288.115 419.116 288.056C419.258 287.998 419.41 287.968 419.564 287.968H421.806C422.116 287.968 422.413 288.091 422.633 288.31C422.852 288.529 422.975 288.827 422.975 289.136L422.976 294.061ZM426.249 281.795C426.257 281.943 426.234 282.09 426.183 282.229C426.132 282.368 426.053 282.495 425.951 282.603C425.849 282.71 425.726 282.796 425.59 282.854C425.454 282.913 425.307 282.943 425.159 282.943C425.011 282.943 424.865 282.913 424.729 282.854C424.592 282.796 424.47 282.71 424.368 282.603C424.266 282.495 424.187 282.368 424.136 282.229C424.084 282.09 424.062 281.943 424.07 281.795V279.117C424.062 278.97 424.084 278.822 424.136 278.683C424.187 278.544 424.266 278.417 424.368 278.309C424.47 278.202 424.592 278.116 424.729 278.058C424.865 278 425.011 277.969 425.159 277.969C425.307 277.969 425.454 278 425.59 278.058C425.726 278.116 425.849 278.202 425.951 278.309C426.053 278.417 426.132 278.544 426.183 278.683C426.234 278.822 426.257 278.97 426.249 279.117V281.795ZM426.249 272.146C426.257 272.294 426.234 272.442 426.183 272.581C426.132 272.72 426.053 272.847 425.951 272.954C425.849 273.061 425.726 273.147 425.59 273.205C425.454 273.264 425.307 273.294 425.159 273.294C425.011 273.294 424.865 273.264 424.729 273.205C424.592 273.147 424.47 273.061 424.368 272.954C424.266 272.847 424.187 272.72 424.136 272.581C424.084 272.442 424.062 272.294 424.07 272.146V269.472C424.062 269.325 424.084 269.177 424.136 269.038C424.187 268.899 424.266 268.772 424.368 268.664C424.47 268.557 424.592 268.472 424.729 268.413C424.865 268.355 425.011 268.324 425.159 268.324C425.307 268.324 425.454 268.355 425.59 268.413C425.726 268.472 425.849 268.557 425.951 268.664C426.053 268.772 426.132 268.899 426.183 269.038C426.234 269.177 426.257 269.325 426.249 269.472V272.146ZM432.929 289.424C432.929 289.714 432.813 289.993 432.608 290.198C432.403 290.403 432.124 290.519 431.834 290.519C431.543 290.519 431.265 290.403 431.059 290.198C430.854 289.993 430.739 289.714 430.739 289.424V286.751C430.739 286.607 430.767 286.464 430.822 286.332C430.877 286.199 430.958 286.078 431.059 285.977C431.161 285.875 431.282 285.794 431.415 285.739C431.548 285.684 431.69 285.656 431.834 285.656C431.977 285.656 432.12 285.684 432.253 285.739C432.386 285.794 432.506 285.875 432.608 285.977C432.71 286.078 432.79 286.199 432.845 286.332C432.9 286.464 432.929 286.607 432.929 286.751V289.424ZM432.929 272.146C432.929 272.29 432.9 272.432 432.845 272.565C432.79 272.698 432.71 272.818 432.608 272.92C432.506 273.022 432.386 273.102 432.253 273.157C432.12 273.212 431.977 273.241 431.834 273.241C431.69 273.241 431.548 273.212 431.415 273.157C431.282 273.102 431.161 273.022 431.059 272.92C430.958 272.818 430.877 272.698 430.822 272.565C430.767 272.432 430.739 272.29 430.739 272.146V269.472C430.739 269.182 430.854 268.904 431.059 268.699C431.265 268.493 431.543 268.378 431.834 268.378C432.124 268.378 432.403 268.493 432.608 268.699C432.813 268.904 432.929 269.182 432.929 269.472V272.146Z" fill="#E3E9F1"/>
<path d="M395.575 243.176H378.857C378.36 243.176 377.867 243.274 377.408 243.465C376.948 243.655 376.531 243.935 376.179 244.286C375.828 244.638 375.549 245.056 375.359 245.515C375.169 245.975 375.071 246.467 375.071 246.964V293.222H384.927V287.101C384.926 286.948 384.956 286.795 385.014 286.653C385.073 286.511 385.159 286.382 385.268 286.273C385.376 286.165 385.505 286.078 385.648 286.02C385.79 285.961 385.942 285.931 386.096 285.932H388.339C388.492 285.931 388.644 285.961 388.786 286.02C388.928 286.078 389.057 286.164 389.166 286.273C389.274 286.381 389.36 286.51 389.419 286.652C389.478 286.794 389.508 286.946 389.507 287.099V293.22H399.362V246.964C399.362 246.467 399.265 245.975 399.074 245.515C398.884 245.055 398.605 244.638 398.254 244.286C397.902 243.934 397.485 243.655 397.025 243.465C396.565 243.274 396.073 243.176 395.575 243.176V243.176ZM383.877 281.156H381.202C380.911 281.156 380.633 281.041 380.427 280.836C380.222 280.63 380.107 280.352 380.107 280.062C380.107 279.771 380.222 279.493 380.427 279.288C380.633 279.082 380.911 278.967 381.202 278.967H383.877C384.167 278.967 384.446 279.082 384.651 279.288C384.856 279.493 384.972 279.771 384.972 280.062C384.972 280.352 384.856 280.63 384.651 280.836C384.446 281.041 384.167 281.156 383.877 281.156V281.156ZM383.877 275.325H381.202C381.056 275.328 380.91 275.303 380.775 275.25C380.639 275.197 380.515 275.117 380.41 275.015C380.305 274.913 380.222 274.791 380.166 274.657C380.109 274.522 380.08 274.378 380.08 274.232C380.08 274.086 380.109 273.941 380.166 273.807C380.222 273.672 380.305 273.551 380.41 273.449C380.515 273.347 380.639 273.267 380.775 273.214C380.91 273.161 381.056 273.135 381.202 273.139H383.877C384.023 273.135 384.168 273.161 384.304 273.214C384.44 273.267 384.564 273.347 384.668 273.449C384.773 273.551 384.856 273.672 384.913 273.807C384.97 273.941 384.999 274.086 384.999 274.232C384.999 274.378 384.97 274.522 384.913 274.657C384.856 274.791 384.773 274.913 384.668 275.015C384.564 275.117 384.44 275.197 384.304 275.25C384.168 275.303 384.023 275.328 383.877 275.325V275.325ZM383.877 269.493H381.202C381.056 269.497 380.91 269.471 380.775 269.418C380.639 269.365 380.515 269.285 380.41 269.183C380.305 269.081 380.222 268.959 380.166 268.825C380.109 268.691 380.08 268.546 380.08 268.4C380.08 268.254 380.109 268.11 380.166 267.975C380.222 267.841 380.305 267.719 380.41 267.617C380.515 267.515 380.639 267.435 380.775 267.382C380.91 267.329 381.056 267.304 381.202 267.307H383.877C384.023 267.304 384.168 267.329 384.304 267.382C384.44 267.435 384.564 267.515 384.668 267.617C384.773 267.719 384.856 267.841 384.913 267.975C384.97 268.11 384.999 268.254 384.999 268.4C384.999 268.546 384.97 268.691 384.913 268.825C384.856 268.959 384.773 269.081 384.668 269.183C384.564 269.285 384.44 269.365 384.304 269.418C384.168 269.471 384.023 269.497 383.877 269.493V269.493ZM383.877 263.662H381.202C381.056 263.666 380.91 263.64 380.775 263.587C380.639 263.534 380.515 263.454 380.41 263.352C380.305 263.25 380.222 263.129 380.166 262.994C380.109 262.86 380.08 262.715 380.08 262.569C380.08 262.423 380.109 262.279 380.166 262.144C380.222 262.01 380.305 261.888 380.41 261.786C380.515 261.684 380.639 261.605 380.775 261.551C380.91 261.498 381.056 261.473 381.202 261.477H383.877C384.023 261.473 384.168 261.498 384.304 261.551C384.44 261.605 384.564 261.684 384.668 261.786C384.773 261.888 384.856 262.01 384.913 262.144C384.97 262.279 384.999 262.423 384.999 262.569C384.999 262.715 384.97 262.86 384.913 262.994C384.856 263.129 384.773 263.25 384.668 263.352C384.564 263.454 384.44 263.534 384.304 263.587C384.168 263.64 384.023 263.666 383.877 263.662V263.662ZM383.877 257.83H381.202C380.916 257.823 380.645 257.704 380.446 257.499C380.246 257.295 380.135 257.021 380.135 256.735C380.135 256.45 380.246 256.175 380.446 255.971C380.645 255.766 380.916 255.648 381.202 255.64H383.877C384.162 255.648 384.434 255.766 384.633 255.971C384.832 256.175 384.944 256.45 384.944 256.735C384.944 257.021 384.832 257.295 384.633 257.499C384.434 257.704 384.162 257.823 383.877 257.83V257.83ZM383.877 251.998H381.202C380.911 251.998 380.633 251.883 380.427 251.678C380.222 251.473 380.107 251.194 380.107 250.904C380.107 250.614 380.222 250.335 380.427 250.13C380.633 249.925 380.911 249.809 381.202 249.809H383.877C384.167 249.809 384.446 249.925 384.651 250.13C384.856 250.335 384.972 250.614 384.972 250.904C384.972 251.194 384.856 251.473 384.651 251.678C384.446 251.883 384.167 251.998 383.877 251.998ZM393.507 281.156H390.834C390.543 281.156 390.265 281.041 390.06 280.836C389.854 280.63 389.739 280.352 389.739 280.062C389.739 279.771 389.854 279.493 390.06 279.288C390.265 279.082 390.543 278.967 390.834 278.967H393.507C393.651 278.967 393.794 278.995 393.926 279.05C394.059 279.105 394.18 279.186 394.282 279.288C394.383 279.389 394.464 279.51 394.519 279.643C394.574 279.776 394.602 279.918 394.602 280.062C394.602 280.205 394.574 280.348 394.519 280.481C394.464 280.613 394.383 280.734 394.282 280.836C394.18 280.937 394.059 281.018 393.926 281.073C393.794 281.128 393.651 281.156 393.507 281.156V281.156ZM393.507 275.325H390.834C390.549 275.317 390.278 275.199 390.079 274.995C389.88 274.79 389.769 274.517 389.769 274.232C389.769 273.947 389.88 273.673 390.079 273.469C390.278 273.265 390.549 273.147 390.834 273.139H393.507C393.653 273.135 393.799 273.161 393.935 273.214C394.07 273.267 394.194 273.347 394.299 273.449C394.404 273.551 394.487 273.672 394.543 273.807C394.6 273.941 394.629 274.086 394.629 274.232C394.629 274.378 394.6 274.522 394.543 274.657C394.487 274.791 394.404 274.913 394.299 275.015C394.194 275.117 394.07 275.197 393.935 275.25C393.799 275.303 393.653 275.328 393.507 275.325V275.325ZM393.507 269.493H390.834C390.549 269.485 390.278 269.367 390.079 269.163C389.88 268.959 389.769 268.685 389.769 268.4C389.769 268.115 389.88 267.842 390.079 267.637C390.278 267.433 390.549 267.315 390.834 267.307H393.507C393.653 267.304 393.799 267.329 393.935 267.382C394.07 267.435 394.194 267.515 394.299 267.617C394.404 267.719 394.487 267.841 394.543 267.975C394.6 268.11 394.629 268.254 394.629 268.4C394.629 268.546 394.6 268.691 394.543 268.825C394.487 268.959 394.404 269.081 394.299 269.183C394.194 269.285 394.07 269.365 393.935 269.418C393.799 269.471 393.653 269.497 393.507 269.493V269.493ZM393.507 263.662H390.834C390.549 263.654 390.278 263.536 390.079 263.332C389.88 263.128 389.769 262.854 389.769 262.569C389.769 262.284 389.88 262.011 390.079 261.806C390.278 261.602 390.549 261.484 390.834 261.477H393.507C393.653 261.473 393.799 261.498 393.935 261.551C394.07 261.605 394.194 261.684 394.299 261.786C394.404 261.888 394.487 262.01 394.543 262.144C394.6 262.279 394.629 262.423 394.629 262.569C394.629 262.715 394.6 262.86 394.543 262.994C394.487 263.129 394.404 263.25 394.299 263.352C394.194 263.454 394.07 263.534 393.935 263.587C393.799 263.64 393.653 263.666 393.507 263.662V263.662ZM393.507 257.83H390.834C390.548 257.823 390.277 257.704 390.078 257.499C389.878 257.295 389.767 257.021 389.767 256.735C389.767 256.45 389.878 256.175 390.078 255.971C390.277 255.766 390.548 255.648 390.834 255.64H393.507C393.654 255.636 393.799 255.662 393.935 255.715C394.072 255.769 394.196 255.849 394.301 255.951C394.405 256.053 394.489 256.175 394.546 256.309C394.602 256.444 394.632 256.589 394.632 256.735C394.632 256.881 394.602 257.026 394.546 257.161C394.489 257.296 394.405 257.418 394.301 257.52C394.196 257.622 394.072 257.702 393.935 257.755C393.799 257.808 393.654 257.834 393.507 257.83ZM393.507 251.998H390.834C390.543 251.998 390.265 251.883 390.06 251.678C389.854 251.473 389.739 251.194 389.739 250.904C389.739 250.614 389.854 250.335 390.06 250.13C390.265 249.925 390.543 249.809 390.834 249.809H393.507C393.798 249.809 394.076 249.925 394.282 250.13C394.487 250.335 394.602 250.614 394.602 250.904C394.602 251.194 394.487 251.473 394.282 251.678C394.076 251.883 393.798 251.998 393.507 251.998V251.998Z" fill="#FF8083"/>
</g>
<defs>
<clipPath id="clip0_338_2114">
<rect width="413" height="308" fill="white" transform="translate(39 20)"/>
</clipPath>
</defs>
</svg>
