<svg xmlns="http://www.w3.org/2000/svg" viewBox="0 0 549.603 410">
  <defs>
    <style>
      .cls-1{fill:#f9fbff}.cls-2{fill:#f1f5fb}.cls-3{fill:#e3e9f1}.cls-4{fill:#cdd5dc}.cls-6{fill:#ff6b70}.cls-7{fill:#b5bdc2}.cls-8{fill:#cd2026}.cls-10{fill:#e85157}.cls-11{opacity:.25}.cls-12{fill:#fae1e2}.cls-13{fill:#6e7376}.cls-14{fill:#868c8f}.cls-15{fill:#9ea5a9}
    </style>
  </defs>
  <g id="Layer_2" data-name="Layer 2">
    <g id="Layer_1-2" data-name="Layer 1">
      <path class="cls-1" d="M373.269 103.465v138.8a5.959 5.959 0 1 1-11.918 0v-138.8a11.434 11.434 0 0 0-11.419-11.419H313.1a11.436 11.436 0 0 0-11.424 11.419V231.4a24.384 24.384 0 0 1-24.356 24.355h-76.75a24.387 24.387 0 0 1-24.36-24.355V41.569a14.866 14.866 0 0 0-14.849-14.854h-59.209A14.87 14.87 0 0 0 87.3 41.569v88.24a16.314 16.314 0 0 1-16.289 16.3h-16.8a5.959 5.959 0 1 1 0-11.918h16.8a4.381 4.381 0 0 0 4.371-4.377V41.569a26.8 26.8 0 0 1 26.77-26.769h59.209a26.8 26.8 0 0 1 26.766 26.772V231.4a12.456 12.456 0 0 0 12.443 12.437h76.745a12.452 12.452 0 0 0 12.438-12.437V103.465A23.368 23.368 0 0 1 313.1 80.128h36.837a23.364 23.364 0 0 1 23.332 23.337Z"/>
      <path class="cls-2" d="M382.272 35.4H275.137a19.325 19.325 0 0 0-19.306 19.3v29.415a10.1 10.1 0 0 1-10.092 10.092h-98.408a20.812 20.812 0 0 0-20.791 20.786v168.7a10.7 10.7 0 0 1-10.688 10.694H92.444a10.165 10.165 0 0 1-10.151-10.157V220a5.959 5.959 0 1 0-11.918 0v43.862h-7.237a20.019 20.019 0 0 0-19.995 20v34.2a20.019 20.019 0 0 0 19.995 19.994H203.42a23.338 23.338 0 0 0 23.31-23.315V148.227a8.089 8.089 0 0 1 8.082-8.082h20.315c7.291 0 8.076 10.195 8.076 14.583V325.3a22.213 22.213 0 0 0 22.189 22.183h44.3a22.213 22.213 0 0 0 22.19-22.183v-69.272a7.811 7.811 0 0 1 7.806-7.8h19.957a21.959 21.959 0 0 0 21.929-21.935V54.7a19.321 19.321 0 0 0-19.302-19.3Zm7.384 190.894a10.027 10.027 0 0 1-10.011 10.017h-19.957a19.743 19.743 0 0 0-19.724 19.718V325.3a10.281 10.281 0 0 1-10.27 10.266h-44.3a10.282 10.282 0 0 1-10.273-10.266V154.728c0-8.094-1.787-14.556-5.319-19.215a18.029 18.029 0 0 0-14.675-7.286h-20.315a20.021 20.021 0 0 0-20 20v166.507a11.411 11.411 0 0 1-11.392 11.4H63.138a8.087 8.087 0 0 1-8.077-8.077v-34.2a8.087 8.087 0 0 1 8.077-8.077h7.237v8.451A22.1 22.1 0 0 0 92.444 306.3h23.408a22.636 22.636 0 0 0 22.606-22.611V114.993a8.88 8.88 0 0 1 8.873-8.868h98.408a22.033 22.033 0 0 0 22.009-22.01V54.7a7.393 7.393 0 0 1 7.389-7.383h107.135a7.388 7.388 0 0 1 7.384 7.383Z"/>
      <path class="cls-2" transform="rotate(-64.553 451.073 234.894)" d="M440.695 234.081h20.76v1.625h-20.76z"/>
      <path class="cls-2" transform="rotate(-25.447 475.708 234.895)" d="M474.892 224.514h1.625v20.76h-1.625z"/>
      <path class="cls-3" d="M373.112 21.417v136.469a20.506 20.506 0 0 1-20.244 20.444l-12.3.114h-6.728a9.3 9.3 0 0 0-9.285 9.285v91.658a20.752 20.752 0 0 1-20.726 20.731H173.441c-5.363 0-8.559 5.022-8.559 13.435v39.16a18.144 18.144 0 0 1-18.12 18.121H117.7c-9.653 0-18.12-7.709-18.12-16.5V115.345c0-11.918-4.686-19.03-12.53-19.03H50.077a5.959 5.959 0 0 1 0-11.918h36.977a22.311 22.311 0 0 1 17.714 8.451c4.4 5.471 6.734 13.255 6.734 22.5v238.991c0 1.609 2.557 4.577 6.2 4.577h29.058a6.212 6.212 0 0 0 6.2-6.2v-39.16c0-17.514 10.281-25.352 20.476-25.352h130.396a8.82 8.82 0 0 0 8.808-8.814v-91.661a21.229 21.229 0 0 1 21.2-21.2h6.641l12.27-.114a8.548 8.548 0 0 0 8.44-8.526V21.417a7.525 7.525 0 0 0-7.513-7.519H232.326a7.53 7.53 0 0 0-7.519 7.519v79.535a23.127 23.127 0 0 1-23.1 23.1h-27.876a23.128 23.128 0 0 1-23.1-23.1V67.891a7.837 7.837 0 0 0-7.822-7.828H40.12a5.959 5.959 0 1 1 0-11.918h102.785a19.766 19.766 0 0 1 19.74 19.746v33.061a11.2 11.2 0 0 0 11.186 11.186h27.877a11.2 11.2 0 0 0 11.181-11.186V21.417A19.462 19.462 0 0 1 232.326 1.98h121.355a19.457 19.457 0 0 1 19.431 19.437Z"/>
      <path class="cls-4" d="M365.145 144.663h-10.683a1.9 1.9 0 1 1 0-3.792h10.683a1.9 1.9 0 1 1 0 3.792Z"/>
      <path class="cls-2" d="M480.165 244.267h-33.549l8.92-18.746h15.709l8.92 18.746z"/>
      <rect x="446.074" y="242.675" width="34.633" height="35.277" rx="3.006" style="fill:#fadaaf"/>
      <path class="cls-4" d="M183.757 292.207a1.9 1.9 0 0 1-1.9-1.9v-10.679a1.9 1.9 0 0 1 3.792 0v10.683a1.9 1.9 0 0 1-1.892 1.896Z"/>
      <path class="cls-1" d="M173.472 282.835a11.4 11.4 0 1 1 20.477.043Z"/>
      <path class="cls-6" d="m193.949 284.5-20.477-.043a1.624 1.624 0 0 1-1.456-.912 13.03 13.03 0 0 1 11.158-18.725 13.03 13.03 0 0 1 12.233 18.78 1.626 1.626 0 0 1-1.458.9Zm-19.4-3.291 18.34.039a9.78 9.78 0 0 0-9.589-13.178 9.779 9.779 0 0 0-8.758 13.142ZM310 53.862a12.506 12.506 0 1 1 12.506-12.506A12.52 12.52 0 0 1 310 53.862Zm0-22.3a9.8 9.8 0 1 0 9.8 9.8 9.809 9.809 0 0 0-9.8-9.803Z"/>
      <path class="cls-6" d="M321.153 42.439h-22.3a1.083 1.083 0 1 1 0-2.166h22.3a1.083 1.083 0 0 1 0 2.166Z"/>
      <path class="cls-6" d="M315.578 52.1a1.083 1.083 0 0 1-.94-.542L303.487 32.24a1.084 1.084 0 0 1 1.877-1.084l11.151 19.316a1.083 1.083 0 0 1-.4 1.48 1.071 1.071 0 0 1-.537.148Z"/>
      <path class="cls-6" d="M304.424 52.1a1.083 1.083 0 0 1-.937-1.625l11.151-19.316a1.084 1.084 0 0 1 1.877 1.084l-11.151 19.312a1.084 1.084 0 0 1-.94.545Z"/>
      <path class="cls-2" d="M310 44.045a2.689 2.689 0 1 1 2.688-2.689A2.692 2.692 0 0 1 310 44.045Zm0-4.836a2.147 2.147 0 1 0 2.147 2.147A2.149 2.149 0 0 0 310 39.209Z"/>
      <rect class="cls-3" x="387.676" y="162.517" width="15.882" height="7.861" rx="2.273" transform="rotate(180 395.617 166.448)"/>
      <rect class="cls-3" x="387.676" y="80.378" width="15.882" height="7.861" rx="2.273" transform="rotate(180 395.617 84.309)"/>
      <rect class="cls-3" x="337.612" y="275.72" width="15.882" height="7.861" rx="2.273" transform="rotate(180 345.553 279.65)"/>
      <rect class="cls-3" x="41.163" y="299.014" width="15.882" height="7.861" rx="2.273" transform="rotate(180 49.103 302.945)"/>
      <rect class="cls-3" x="124.831" y="216.333" width="15.882" height="7.861" rx="2.273" transform="rotate(180 132.772 220.264)"/>
      <rect class="cls-3" x="212.829" y="189.711" width="15.882" height="7.861" rx="2.273" transform="rotate(180 220.77 193.642)"/>
      <rect class="cls-3" x="306.388" y="337.592" width="15.882" height="7.861" rx="2.273" transform="rotate(-90 314.329 341.523)"/>
      <rect class="cls-3" x="185.297" y="328.158" width="15.882" height="7.861" rx="2.273" transform="rotate(-90 193.238 332.088)"/>
      <rect class="cls-3" x="329.486" y="37.425" width="15.882" height="7.861" rx="2.273" transform="rotate(-90 337.427 41.356)"/>
      <rect class="cls-4" x="319.851" y="4.01" width="15.882" height="7.861" rx="2.273" transform="rotate(-90 327.792 7.94)"/>
      <rect class="cls-4" x="100.585" y="49.875" width="15.882" height="7.861" rx="2.273" transform="rotate(-90 108.526 53.805)"/>
      <rect class="cls-4" x="210.618" y="67.165" width="15.882" height="7.861" rx="2.273" transform="rotate(180 218.559 71.095)"/>
      <rect class="cls-3" x="274.633" y="37.425" width="15.882" height="7.861" rx="2.273" transform="rotate(-90 282.574 41.356)"/>
      <path class="cls-7" d="M183.612 275.359a46.643 46.643 0 0 1-1.283-1.528.358.358 0 0 0-.639.286c.1.66.208 1.318.284 1.975a5.4 5.4 0 0 0 .613 2.717 1.462 1.462 0 0 0 2.642-1.182 5.4 5.4 0 0 0-1.617-2.268Z"/>
      <circle class="cls-7" cx="183.795" cy="277.922" r="1.623"/>
      <path class="cls-6" d="M183.8 280.086a2.17 2.17 0 0 1-1.98-1.28 2.168 2.168 0 1 1 1.98 1.28Zm-.99-1.723a1.081 1.081 0 1 0 .545-1.428 1.082 1.082 0 0 0-.545 1.428Z"/>
      <path class="cls-8" d="M176.485 277.872a.53.53 0 0 1-.5-.568l.006-.058.009-.111a.542.542 0 0 1 .581-.492h.006a.54.54 0 0 1 .492.587l-.011.128a.554.554 0 0 1-.583.514Zm13.882.029a.541.541 0 0 1-.5-.5l-.01-.129a.542.542 0 1 1 1.079-.1l.011.142a.541.541 0 0 1-.5.581.575.575 0 0 1-.08.005Zm-13.333-2.267a.523.523 0 0 1-.174-.043.542.542 0 0 1-.281-.713l.035-.078a.565.565 0 0 1 .724-.3.519.519 0 0 1 .289.689l-.023.05-.031.072a.541.541 0 0 1-.539.323Zm12.8.041a.542.542 0 0 1-.458-.328l-.05-.113a.542.542 0 1 1 .989-.445l.058.134a.543.543 0 0 1-.286.711.548.548 0 0 1-.253.041Zm-11.558-1.965a.542.542 0 0 1-.359-.9l.1-.109a.542.542 0 0 1 .784.748l-.082.089a.541.541 0 0 1-.443.172Zm10.327.034a.537.537 0 0 1-.364-.181l-.082-.09a.542.542 0 0 1 .793-.738l.1.11a.541.541 0 0 1-.447.9Zm-8.528-1.451a.542.542 0 0 1-.222-1.014l.128-.069a.542.542 0 1 1 .507.957l-.109.059a.534.534 0 0 1-.304.067Zm6.74.02a.529.529 0 0 1-.222-.067l-.109-.059a.542.542 0 1 1 .508-.957l.129.07a.542.542 0 0 1-.306 1.013Zm-4.58-.778a.542.542 0 0 1-.05-1.074l.14-.023a.542.542 0 0 1 .172 1.07l-.128.021a.506.506 0 0 1-.134.006Zm2.423.008a.443.443 0 0 1-.051-.006l-.127-.021a.542.542 0 1 1 .172-1.07l.14.024a.541.541 0 0 1-.134 1.073Z"/>
      <path class="cls-6" d="M462.334 264.038a1.432 1.432 0 0 0 1.057.469h.017a1.418 1.418 0 0 0 .493-.1c.019-.007.038-.011.057-.019a1.439 1.439 0 0 0 .415-.276c.013-.012.03-.016.043-.028l4.594-4.594a1.438 1.438 0 0 0-2.034-2.034l-2.147 2.147v-7.123a1.439 1.439 0 0 0-2.877 0v7.108l-2.152-2.148a1.438 1.438 0 0 0-2.034 2.034Z"/>
      <path class="cls-6" d="M470.348 262.638a1.438 1.438 0 0 0-1.438 1.438v2.4h-11.039v-2.4a1.439 1.439 0 0 0-2.877 0v3.836a1.439 1.439 0 0 0 1.439 1.438h13.915a1.439 1.439 0 0 0 1.439-1.438v-3.836a1.439 1.439 0 0 0-1.439-1.438Z"/>
      <circle class="cls-1" cx="346.045" cy="142.708" r="9.724"/>
      <path class="cls-6" d="M346.045 153.787a11.079 11.079 0 1 1 11.078-11.079 11.091 11.091 0 0 1-11.078 11.079Zm0-19.448a8.37 8.37 0 1 0 8.369 8.369 8.379 8.379 0 0 0-8.369-8.369Z"/>
      <path d="M346.873 149.194a.44.44 0 0 1-.033-.875l.061-.01a.441.441 0 0 1 .133.871l-.07.01a.463.463 0 0 1-.091.004Zm-3.492-.528a.442.442 0 0 1-.16-.042l-.066-.032a.44.44 0 1 1 .39-.789l.053.026a.44.44 0 0 1-.217.837Zm6.74-1.016a.434.434 0 0 1-.3-.145.44.44 0 0 1 .031-.621l.042-.039a.44.44 0 1 1 .6.641l-.056.051a.44.44 0 0 1-.317.113Zm-9.386-1.42a.44.44 0 0 1-.351-.215l-.036-.063a.44.44 0 1 1 .765-.436l.029.051a.44.44 0 0 1-.155.6.432.432 0 0 1-.252.063Zm11.2-1.685a.546.546 0 0 1-.069-.01.44.44 0 0 1-.332-.527l.014-.064a.44.44 0 0 1 .859.194l-.015.064a.44.44 0 0 1-.457.343Zm-12.016-1.779a.441.441 0 0 1-.41-.468v-.075a.44.44 0 0 1 .467-.4h.009a.439.439 0 0 1 .4.476v.057a.44.44 0 0 1-.466.41Zm11.44-2.626a.44.44 0 0 1-.422-.225l-.028-.048a.44.44 0 1 1 .76-.444l.038.065a.44.44 0 0 1-.348.652Zm-10.158-.734a.427.427 0 0 1-.242-.092.44.44 0 0 1-.076-.618l.048-.059a.44.44 0 1 1 .681.557l-.035.044a.438.438 0 0 1-.377.168Zm2.953-2.052a.441.441 0 0 1-.1-.86l.064-.02a.44.44 0 0 1 .261.841l-.062.02a.465.465 0 0 1-.163.019Zm4.1.164a.434.434 0 0 1-.1-.028l-.054-.022a.44.44 0 0 1 .322-.82l.069.028a.44.44 0 0 1-.233.842Z" style="fill:#a1191d"/>
      <path class="cls-1" d="m348.719 140.03-2.728 2.728"/>
      <path class="cls-6" d="M345.991 143.571a.813.813 0 0 1-.574-1.387l2.727-2.728a.812.812 0 0 1 1.149 1.149l-2.727 2.728a.814.814 0 0 1-.575.238Z"/>
      <circle class="cls-6" cx="346.045" cy="142.708" r="1.693"/>
      <path class="cls-1" d="M432.22 366.759v.006h-.769a.005.005 0 0 1 0-.006Z"/>
      <path class="cls-2" d="M542.294 389.418h-65.579a1.806 1.806 0 0 1-1.806-1.805 1.806 1.806 0 0 1 1.806-1.805H484a3.971 3.971 0 0 0 4.007-3.481 3.859 3.859 0 0 0-3.841-4.238H343.138a3.971 3.971 0 0 0-4.007 3.48 3.86 3.86 0 0 0 3.841 4.239h98.551a1.8 1.8 0 0 1 1.8 1.805 1.8 1.8 0 0 1-1.8 1.805h-57.631a3.971 3.971 0 0 0-4.007 3.48 3.86 3.86 0 0 0 3.841 4.239H542.46a3.86 3.86 0 0 0 3.84-4.237 3.971 3.971 0 0 0-4.006-3.482Z"/>
      <rect class="cls-1" x="494.691" y="378.089" width="31.582" height="7.718" rx="3.859"/>
      <rect class="cls-2" x="421.43" y="402.282" width="79.673" height="7.718" rx="3.859"/>
      <path class="cls-1" d="M427.2 304.38h-13.082a1.2 1.2 0 0 1-1.2-1.2 1.2 1.2 0 0 1 1.2-1.2h7.24a2.356 2.356 0 0 0 2.386-2.073 2.277 2.277 0 0 0-2.268-2.48h-32.371a2.357 2.357 0 0 0-2.386 2.073 2.277 2.277 0 0 0 2.268 2.48h13.445a1.2 1.2 0 0 1 1.2 1.2 1.2 1.2 0 0 1-1.2 1.2h-7.481a2.357 2.357 0 0 0-2.386 2.073 2.277 2.277 0 0 0 2.268 2.48h4.223a1.192 1.192 0 0 1 1.192 1.193 1.215 1.215 0 0 1-1.215 1.215h-17.817a2.357 2.357 0 0 0-2.386 2.073 2.277 2.277 0 0 0 2.268 2.48h32.371a2.356 2.356 0 0 0 2.386-2.072 2.277 2.277 0 0 0-2.268-2.481H407.9a1.2 1.2 0 0 1-1.2-1.2 1.2 1.2 0 0 1 1.2-1.2h19.421a2.277 2.277 0 0 0 2.268-2.48 2.357 2.357 0 0 0-2.389-2.081Z"/>
      <rect class="cls-1" x="375.998" y="305.151" width="11.803" height="3.012" rx="1.506"/>
      <rect class="cls-1" x="526.926" y="285.593" width="11.803" height="3.012" rx="1.506"/>
      <rect class="cls-1" x="429.365" y="298.418" width="8.428" height="3.012" rx="1.506"/>
      <rect class="cls-1" x="516.899" y="313.87" width="8.428" height="3.012" rx="1.506"/>
      <rect class="cls-1" x="493.278" y="282.717" width="12.928" height="3.012" rx="1.506"/>
      <rect class="cls-1" x="520.274" y="307.411" width="13.83" height="3.827" rx="1.914"/>
      <path class="cls-1" d="M524.306 297.1h-15.549a1.374 1.374 0 0 1-1.374-1.374 1.374 1.374 0 0 1 1.374-1.373h4.509a2.585 2.585 0 0 0 2.608-2.265 2.512 2.512 0 0 0-2.5-2.758h-25.069a2.584 2.584 0 0 0-2.605 2.27 2.512 2.512 0 0 0 2.5 2.758h12.649a1.373 1.373 0 0 1 1.373 1.373 1.374 1.374 0 0 1-1.373 1.374h-1.5a2.584 2.584 0 0 0-2.607 2.265 2.512 2.512 0 0 0 2.5 2.758h25.177a2.512 2.512 0 0 0 2.5-2.758 2.585 2.585 0 0 0-2.613-2.27Z"/>
      <rect class="cls-4" x="231.2" y="289.887" width="15.882" height="7.861" rx="2.273" transform="rotate(-90 239.14 293.817)"/>
      <rect class="cls-4" x="97.549" y="120.479" width="15.882" height="7.861" rx="2.273" transform="rotate(180 105.49 124.41)"/>
      <rect class="cls-4" x="334.969" y="168.303" width="15.882" height="7.861" rx="2.273" transform="rotate(-90 342.91 172.233)"/>
      <rect class="cls-4" x="359.215" y="114.256" width="15.882" height="7.861" rx="2.273" transform="rotate(180 367.156 118.187)"/>
      <rect class="cls-4" x="97.549" y="260.143" width="15.882" height="7.861" rx="2.273" transform="rotate(180 105.49 264.074)"/>
      <rect class="cls-4" x="128.175" y="360.653" width="15.882" height="7.861" rx="2.273" transform="rotate(-90 136.116 364.584)"/>
      <path class="cls-10" d="M180.03 142.627h6.025a1.549 1.549 0 0 0 1.7-1.334v-1.954c0-.962-1.256-1.608-2.377-1.222l-5.345 2.268Z"/>
      <g class="cls-11">
        <path class="cls-12" d="M187.063 139.988a.2.2 0 0 1-.2-.2.73.73 0 0 0-.339-.59 1.377 1.377 0 0 0-1.211-.154.2.2 0 0 1-.132-.384 1.767 1.767 0 0 1 1.579.207 1.125 1.125 0 0 1 .51.921.2.2 0 0 1-.207.2Z"/>
      </g>
      <path class="cls-10" d="M176.734 142.627h-6.025a1.548 1.548 0 0 1-1.7-1.334v-1.954c0-.962 1.256-1.608 2.376-1.222l5.345 2.268Z"/>
      <rect class="cls-13" x="176.734" y="139.94" width="3.206" height="15.403" rx="1.603"/>
      <rect class="cls-14" x="173.927" y="145.165" width="8.822" height="15.403" rx="2.221"/>
      <rect class="cls-15" x="170.636" y="148.278" width="15.403" height="15.403" rx="2.935"/>
      <rect class="cls-7" x="170.636" y="149.762" width="15.403" height="15.403" rx="2.935"/>
      <path class="cls-8" d="M178.175 140.11h.414a2.413 2.413 0 0 1 2.411 2.412v.224a1.151 1.151 0 0 1-1.151 1.151h-2.937a1.151 1.151 0 0 1-1.151-1.151v-.224a2.413 2.413 0 0 1 2.414-2.412Z"/>
      <path class="cls-6" d="M177.9 138.545h.968a3.142 3.142 0 0 1 3.142 3.142 1.5 1.5 0 0 1-1.5 1.5h-4.254a1.5 1.5 0 0 1-1.5-1.5 3.142 3.142 0 0 1 3.142-3.142Z"/>
      <g class="cls-11">
        <path class="cls-12" d="M169.7 139.988a.2.2 0 0 1-.2-.2 1.125 1.125 0 0 1 .51-.921 1.769 1.769 0 0 1 1.58-.207.2.2 0 0 1-.133.384 1.377 1.377 0 0 0-1.211.154.73.73 0 0 0-.339.59.2.2 0 0 1-.207.2Z"/>
      </g>
      <g class="cls-11">
        <path class="cls-12" d="M176.491 140.142a.2.2 0 0 1-.14-.056.2.2 0 0 1-.007-.287 2.336 2.336 0 0 1 1.706-.729h.665a2.345 2.345 0 0 1 1.669.691.205.205 0 0 1 0 .287.2.2 0 0 1-.288 0 1.939 1.939 0 0 0-1.381-.572h-.665a1.936 1.936 0 0 0-1.412.6.2.2 0 0 1-.147.066Z"/>
      </g>
      <rect class="cls-13" x="437.834" y="170.396" width="3.206" height="15.403" rx="1.603"/>
      <rect class="cls-14" x="435.026" y="177.788" width="8.822" height="15.403" rx="2.221"/>
      <path class="cls-6" d="M459.433 178.33a1.616 1.616 0 0 1-.937-.3l-3.081-2.179a1.692 1.692 0 0 0-.983-.313h-24.817a1.625 1.625 0 0 1 0-3.25h24.817a4.928 4.928 0 0 1 2.86.909l3.081 2.18a1.625 1.625 0 0 1-.94 2.952Z"/>
      <rect class="cls-15" x="431.736" y="183.068" width="15.403" height="15.403" rx="2.935"/>
      <rect class="cls-7" x="431.736" y="184.552" width="15.403" height="15.403" rx="2.935"/>
      <path class="cls-4" d="M62.936 234.106a19.38 19.38 0 0 1-19.358-19.357V68.958A10.287 10.287 0 0 0 33.3 58.681H6.735a5.959 5.959 0 1 1 0-11.917H33.3a22.219 22.219 0 0 1 22.2 22.194v145.791a7.44 7.44 0 1 0 14.879 0v-41.4a19.138 19.138 0 0 1 19.116-19.116h147.144a19.137 19.137 0 0 1 19.116 19.116v18.69a3.611 3.611 0 0 0 3.607 3.607h190.505a19.5 19.5 0 0 1 19.482 19.481v4.747a5.959 5.959 0 0 1-11.918 0v-4.747a7.572 7.572 0 0 0-7.564-7.564h-190.5a15.542 15.542 0 0 1-15.524-15.524v-18.69a7.206 7.206 0 0 0-7.2-7.2H89.491a7.206 7.206 0 0 0-7.2 7.2v41.4a19.38 19.38 0 0 1-19.355 19.357Z"/>
      <path class="cls-6" d="M49.87 156.949a12.506 12.506 0 1 1 12.506-12.506 12.52 12.52 0 0 1-12.506 12.506Zm0-22.3a9.8 9.8 0 1 0 9.8 9.8 9.808 9.808 0 0 0-9.8-9.803Z"/>
      <path class="cls-6" d="M61.022 145.526h-22.3a1.083 1.083 0 0 1 0-2.166h22.3a1.083 1.083 0 0 1 0 2.166Z"/>
      <path class="cls-6" d="M55.447 155.184a1.083 1.083 0 0 1-.94-.542l-11.151-19.315a1.084 1.084 0 1 1 1.877-1.083l11.151 19.315a1.083 1.083 0 0 1-.937 1.625Z"/>
      <path class="cls-6" d="M44.293 155.184a1.083 1.083 0 0 1-.937-1.625l11.151-19.315a1.084 1.084 0 1 1 1.877 1.083l-11.151 19.315a1.083 1.083 0 0 1-.94.542Z"/>
      <path class="cls-2" d="M49.87 147.131a2.689 2.689 0 1 1 2.689-2.688 2.691 2.691 0 0 1-2.689 2.688Zm0-4.835a2.147 2.147 0 1 0 2.147 2.147 2.149 2.149 0 0 0-2.147-2.143Z"/>
      <rect class="cls-7" x="453.291" y="217.867" width="20.199" height="10.224" rx="2.923"/>
      <path class="cls-3" d="M464.166 210.337a.812.812 0 0 1-.776-.571 12.724 12.724 0 0 0-8.191-8.3.812.812 0 0 1 .5-1.545 14.355 14.355 0 0 1 9.24 9.363.814.814 0 0 1-.776 1.054ZM49.87 61.965a.813.813 0 0 1-.776-.571 12.724 12.724 0 0 0-8.191-8.3.812.812 0 0 1 .5-1.545 14.35 14.35 0 0 1 9.24 9.363.813.813 0 0 1-.776 1.054ZM249.75 168.646a.812.812 0 0 1-.776-.571 12.728 12.728 0 0 0-8.191-8.3.812.812 0 1 1 .5-1.544 14.356 14.356 0 0 1 9.239 9.362.813.813 0 0 1-.776 1.054ZM75.923 168.646a.812.812 0 0 1-.775-1.054 14.352 14.352 0 0 1 9.238-9.362.812.812 0 1 1 .5 1.544 12.728 12.728 0 0 0-8.191 8.3.812.812 0 0 1-.772.572Z"/>
      <path class="cls-15" d="M473.49 220.8h-20.2a2.92 2.92 0 0 1 2.893-2.931H470.6a2.92 2.92 0 0 1 2.89 2.931Z"/>
      <rect class="cls-7" x="409.261" y="197.652" width="15.882" height="7.861" rx="2.273" transform="rotate(-90 417.202 201.582)"/>
      <path class="cls-15" d="M415.526 193.641v15.883a2.27 2.27 0 0 1-2.253-2.275v-11.333a2.27 2.27 0 0 1 2.253-2.275Z"/>
      <rect class="cls-7" x="41.929" y="114.784" width="15.882" height="7.861" rx="2.273" transform="rotate(180 49.87 118.715)"/>
      <path class="cls-15" d="M41.928 120.39h15.883a2.27 2.27 0 0 1-2.275 2.254H44.2a2.271 2.271 0 0 1-2.272-2.254Z"/>
      <rect class="cls-7" x="41.929" y="166.24" width="15.882" height="7.861" rx="2.273" transform="rotate(180 49.87 170.17)"/>
      <path class="cls-15" d="M41.928 171.846h15.883a2.269 2.269 0 0 1-2.275 2.253H44.2a2.271 2.271 0 0 1-2.272-2.253Z"/>
      <path class="cls-3" d="M397.784 199.8h-82.31a.813.813 0 1 1 0-1.625h82.31a.813.813 0 1 1 0 1.625ZM308.154 199.825h-12.605a.813.813 0 0 1 0-1.625h12.605a.813.813 0 1 1 0 1.625Z"/>
      <rect class="cls-7" x="-4.01" y="48.389" width="15.882" height="7.861" rx="2.273" transform="rotate(-90 3.93 52.32)"/>
      <path class="cls-15" d="M2.256 44.379v15.883A2.271 2.271 0 0 1 0 57.987V46.654a2.271 2.271 0 0 1 2.256-2.275Z"/>
      <rect class="cls-7" x="193.731" y="156.48" width="15.882" height="7.861" rx="2.273" transform="rotate(-90 201.672 160.41)"/>
      <path class="cls-15" d="M200 152.469v15.883a2.27 2.27 0 0 1-2.253-2.275v-11.333a2.27 2.27 0 0 1 2.253-2.275Z"/>
      <rect class="cls-7" x="147.151" y="156.48" width="15.882" height="7.861" rx="2.273" transform="rotate(-90 155.092 160.41)"/>
      <path class="cls-15" d="M153.417 152.469v15.883a2.27 2.27 0 0 1-2.253-2.275v-11.333a2.27 2.27 0 0 1 2.253-2.275Z"/>
      <path class="cls-1" d="M422.053 363.707h-.775ZM422.427 334.8v3.559a1.442 1.442 0 0 1-.434 1.029 1.446 1.446 0 0 0 .428-1.029V334.8a1.4 1.4 0 0 0-.065-.433 1.324 1.324 0 0 1 .071.433Z"/>
      <path class="cls-1" d="M448.715 363.708h-20.654v-33.445a4.314 4.314 0 0 0-4.195-4.426h-3.446v-5.663a5.772 5.772 0 0 1 5.606-5.924h22.688M387.455 338.8v8.677h-4a3.133 3.133 0 0 0-3.137 3.131v13.1H365.85V338.8a5.924 5.924 0 0 1 5.924-5.924h9.758a5.92 5.92 0 0 1 5.923 5.924ZM387.454 360.251v.01a.434.434 0 0 1-.055-.1.556.556 0 0 0 .055.09ZM479.4 314.594h21.669a5.926 5.926 0 0 1 5.93 5.924v2.61h-2.7a5.993 5.993 0 0 0-6 6v34.584h-18.883M507 332.092v3.559a1.418 1.418 0 0 1-.065.428 1.564 1.564 0 0 0 .06-.428v-3.559a1.543 1.543 0 0 0-.049-.384 1.287 1.287 0 0 1 .054.384ZM506.772 349.27a1.511 1.511 0 0 0 .157-.341 1.116 1.116 0 0 1-.157.341ZM507 344.931v3.559a1.308 1.308 0 0 1-.07.439 1.438 1.438 0 0 0 .065-.434v-3.564a1.505 1.505 0 0 0-.087-.5 1.392 1.392 0 0 1 .092.5Z"/>
      <path class="cls-3" d="M504.992 349.945a1.692 1.692 0 0 1-.287-.027 1.313 1.313 0 0 0 .585 0 1.814 1.814 0 0 1-.298.027Zm.076-12.844h-.076a1.425 1.425 0 0 1-.146 0c.049 0 .1.011.152.011a.254.254 0 0 0 .07-.012Zm-.146 6.376h.146a.3.3 0 0 0-.07 0 .415.415 0 0 0-.076 0Zm-1.381-7.828a.312.312 0 0 0 0 .071v-3.63a1.434 1.434 0 0 1 0-.146.722.722 0 0 0-.01.146Zm.01 9.134a.717.717 0 0 0-.01.146v3.564a.727.727 0 0 0 .01.147V344.929a1.425 1.425 0 0 1 0-.146Zm-84.588-9.99v3.565a.389.389 0 0 0 0 .076V334.8a1.456 1.456 0 0 1 1.452-1.457 1.575 1.575 0 0 1 .428.059 1.4 1.4 0 0 0-.428-.065 1.461 1.461 0 0 0-1.452 1.456Zm1.457-1.457a1.461 1.461 0 0 0-1.457 1.457v3.565a.389.389 0 0 0 0 .076V334.8a1.456 1.456 0 0 1 1.452-1.457 1.575 1.575 0 0 1 .428.059 1.4 1.4 0 0 0-.423-.066Zm83.121-1.246v3.559a.312.312 0 0 0 0 .071v-3.63a1.434 1.434 0 0 1 0-.146.722.722 0 0 0 0 .146Zm1.451 5.011a1.425 1.425 0 0 1-.146 0c.049 0 .1.011.152.011a.254.254 0 0 0 .07-.006Zm-1.446 7.828a1.425 1.425 0 0 1 0-.146.717.717 0 0 0-.01.146v3.564a.727.727 0 0 0 .01.147v-.152Zm1.446 5.016a1.692 1.692 0 0 1-.287-.027 1.313 1.313 0 0 0 .585 0 1.814 1.814 0 0 1-.298.027Zm.006-6.473a.415.415 0 0 0-.076 0h.146a.3.3 0 0 0-.068 0Z"/>
      <path class="cls-3" d="M545.74 363.705h-15.574v-34.583a5.991 5.991 0 0 0-5.986-6h-1.4v-4.442a2.427 2.427 0 0 0-4.854 0v4.442h-14.174a5.993 5.993 0 0 0-6 6v34.583h-69.12v-33.44a4.8 4.8 0 0 0-.086-.883 2.867 2.867 0 0 0-.065-.282 4.373 4.373 0 0 0-.114-.363 13.61 13.61 0 0 0-.168-.4c-.038-.082-.081-.163-.125-.239s-.092-.157-.141-.233-.1-.146-.151-.216a1.7 1.7 0 0 0-.119-.157c-.044-.054-.087-.109-.13-.157s-.087-.1-.136-.147-.092-.1-.141-.141c-.065-.064-.135-.124-.2-.178s-.13-.109-.2-.163h-.01a4.444 4.444 0 0 0-.515-.331s-.011 0-.016-.011c-.087-.048-.179-.092-.266-.13s-.184-.081-.281-.119c-.06-.021-.12-.043-.179-.059a.386.386 0 0 0-.071-.022c-.059-.022-.124-.038-.184-.054a.074.074 0 0 0-.038-.011 2.38 2.38 0 0 0-.2-.043.145.145 0 0 0-.049-.011 3.258 3.258 0 0 0-.471-.065 2.445 2.445 0 0 0-.287-.017H406.6a4.43 4.43 0 0 0-4.431 4.432v17.21h-19.258a1.973 1.973 0 0 0-.319.022 2.548 2.548 0 0 0-.612.124c-.1.033-.19.065-.287.1s-.184.087-.271.136a2.747 2.747 0 0 0-.5.336 3.123 3.123 0 0 0-.423.422 4.198 4.198 0 0 0-.26.368 1.474 1.474 0 0 0-.113.2c-.033.065-.065.135-.1.206a3.18 3.18 0 0 0-.244 1.219v13.093h-22.391a3.856 3.856 0 0 0-3.857 3.862c0 2.129 1.723 3.857 1.149 3.857h188.348c4.843 0 6.572-1.728 6.572-3.857a3.861 3.861 0 0 0-3.863-3.858Zm-156.182-4.285a1.453 1.453 0 0 1-2.649.829.473.473 0 0 1-.054-.087.531.531 0 0 1-.065-.125c0-.01-.011-.016-.011-.027a.784.784 0 0 1-.059-.146c-.006 0-.006 0-.006-.011a2.723 2.723 0 0 1-.043-.195v-.027a1.364 1.364 0 0 1-.017-.211v-3.564a1.377 1.377 0 0 1 .017-.212v-.027c.011-.065.027-.13.043-.195a.017.017 0 0 0 .006-.011 1.288 1.288 0 0 1 .081-.2.694.694 0 0 1 .081-.147c.011-.016.022-.027.027-.037a1.453 1.453 0 0 1 2.649.829Zm22.617-9.209a1.457 1.457 0 0 1-2.914 0v-3.559a1.457 1.457 0 1 1 2.914 0Zm0-11.853a1.457 1.457 0 0 1-2.914 0v-3.565a1.457 1.457 0 0 1 2.914 0Zm9.334 25.347h-6.1v-6.013a1.556 1.556 0 0 1 1.555-1.56h2.985a1.56 1.56 0 0 1 1.555 1.56Zm.368-25.347a1.715 1.715 0 0 1-.027.293c-.011.048-.022.1-.033.141a.619.619 0 0 1-.049.129 1.436 1.436 0 0 1-.314.466 1.445 1.445 0 0 1-2.053 0 1.769 1.769 0 0 1-.179-.216 1.4 1.4 0 0 1-.135-.25 1.575 1.575 0 0 1-.087-.27 1.419 1.419 0 0 1-.022-.141.389.389 0 0 0 0-.076.389.389 0 0 1 0-.076v-3.565a1.461 1.461 0 0 1 1.457-1.457 1.4 1.4 0 0 1 .428.065l.13.049a1.738 1.738 0 0 1 .168.081 1.808 1.808 0 0 1 .2.141 1.487 1.487 0 0 1 .363.433 1.36 1.36 0 0 1 .1.255 1.436 1.436 0 0 1 .065.433Zm81.664-6.268a.722.722 0 0 1 .01-.146l.017-.124a1.413 1.413 0 0 1 .151-.423 1.234 1.234 0 0 1 .157-.233c.017-.016.033-.038.055-.06a.687.687 0 0 1 .054-.054.436.436 0 0 1 .086-.081.541.541 0 0 1 .1-.07.209.209 0 0 1 .06-.044.7.7 0 0 1 .14-.075 1.122 1.122 0 0 1 .3-.109 1.221 1.221 0 0 1 .157-.027c.054 0 .108-.011.162-.011h.044a.061.061 0 0 1 .032.006.644.644 0 0 1 .1 0 1.252 1.252 0 0 1 .157.027 1.127 1.127 0 0 1 .3.109.681.681 0 0 1 .141.075.414.414 0 0 1 .065.044.933.933 0 0 1 .092.07.415.415 0 0 1 .087.081.185.185 0 0 1 .054.054c.022.022.038.044.054.06a.447.447 0 0 1 .07.1 1.193 1.193 0 0 1 .071.1c.016.038.038.071.054.109l.049.114c.011.043.027.081.038.119a1.542 1.542 0 0 1 .048.384v3.559a1.564 1.564 0 0 1-.059.428c-.016.049-.033.092-.049.136s-.049.1-.076.151-.065.093-.1.141a1 1 0 0 1-.141.168.752.752 0 0 1-.1.092c-.038.033-.076.06-.114.087s-.081.049-.119.076-.087.043-.13.06-.087.032-.135.048a1.381 1.381 0 0 1-.136.038s-.016.006-.021.006c-.044 0-.087.01-.125.016h-.076a.254.254 0 0 1-.07.006c-.049 0-.1-.006-.152-.011l-.119-.016a1.08 1.08 0 0 1-.184-.049c-.038-.016-.076-.027-.109-.043l-.13-.06c-.044-.021-.081-.049-.119-.076s-.076-.054-.114-.087a.744.744 0 0 1-.1-.092.759.759 0 0 1-.093-.1 1.169 1.169 0 0 1-.162-.243.979.979 0 0 1-.054-.114l-.049-.13c-.016-.049-.027-.092-.038-.141s-.016-.1-.022-.146a.364.364 0 0 1 0-.076.312.312 0 0 1 0-.071Zm.893 17.742a1.16 1.16 0 0 1-.249-.136 1.63 1.63 0 0 1-.216-.179.759.759 0 0 1-.093-.1 1.116 1.116 0 0 1-.13-.189.986.986 0 0 1-.086-.168 1.614 1.614 0 0 1-.087-.271c-.011-.049-.016-.1-.022-.146a.727.727 0 0 1-.01-.147v-3.564a.717.717 0 0 1 .01-.146l.017-.125a.994.994 0 0 1 .048-.184c.017-.038.027-.076.044-.108a1.369 1.369 0 0 1 .059-.13 1.669 1.669 0 0 1 .157-.233 1.632 1.632 0 0 1 .2-.195 1.561 1.561 0 0 1 .233-.157.961.961 0 0 1 .13-.06.769.769 0 0 1 .114-.043s.011-.006.016-.006c.044-.01.087-.027.136-.038a1.222 1.222 0 0 1 .146-.021.3.3 0 0 1 .076-.006.415.415 0 0 1 .076 0 9.792 9.792 0 0 1 .146.011l.125.016a.094.094 0 0 1 .043.011l.114.032.135.049a1.255 1.255 0 0 1 .13.06 1.449 1.449 0 0 1 .428.352c.049.065.1.13.141.2s.07.146.1.228c.011.037.027.076.038.119.016.059.027.119.038.184s.01.13.01.195v3.564a1.433 1.433 0 0 1-.064.434 1.514 1.514 0 0 1-.158.341 1.231 1.231 0 0 1-.07.1.823.823 0 0 1-.13.146 1.706 1.706 0 0 1-.217.179 1.136 1.136 0 0 1-.249.136 1.611 1.611 0 0 1-.271.086 1.313 1.313 0 0 1-.585 0 1.478 1.478 0 0 1-.273-.091Zm6.544 14.989h-6.1v-6.555a1.556 1.556 0 0 1 1.56-1.555h2.984a1.555 1.555 0 0 1 1.555 1.555Zm4.356-16.328a1.452 1.452 0 1 1-2.9 0v-3.564a1.452 1.452 0 1 1 2.9 0Zm0-12.844a1.452 1.452 0 1 1-2.9 0v-3.559a1.452 1.452 0 1 1 2.9 0Zm8.889 23a1.457 1.457 0 0 1-2.914 0v-3.559a1.457 1.457 0 1 1 2.914 0Zm0-23a1.457 1.457 0 1 1-2.914 0v-3.559a1.457 1.457 0 0 1 2.914 0Z"/>
      <path d="M474.515 297.085h-22.248a5.04 5.04 0 0 0-5.038 5.043v61.577h13.115v-8.148A1.551 1.551 0 0 1 461.9 354h2.985a1.551 1.551 0 0 1 1.555 1.554v8.148h13.114v-61.574a5.04 5.04 0 0 0-5.039-5.043Zm-15.568 50.558h-3.56a1.457 1.457 0 0 1 0-2.914h3.56a1.457 1.457 0 0 1 0 2.914Zm0-7.763h-3.56a1.455 1.455 0 1 1 0-2.909h3.56a1.455 1.455 0 1 1 0 2.909Zm0-7.763h-3.56a1.455 1.455 0 1 1 0-2.909h3.56a1.455 1.455 0 1 1 0 2.909Zm0-7.762h-3.56a1.455 1.455 0 1 1 0-2.909h3.56a1.455 1.455 0 1 1 0 2.909Zm0-7.763h-3.56a1.458 1.458 0 0 1 0-2.915h3.56a1.458 1.458 0 0 1 0 2.915Zm0-7.763h-3.56a1.457 1.457 0 0 1 0-2.914h3.56a1.457 1.457 0 0 1 0 2.914Zm12.816 38.814h-3.558a1.457 1.457 0 0 1 0-2.914h3.558a1.457 1.457 0 1 1 0 2.914Zm0-7.763h-3.558a1.455 1.455 0 0 1 0-2.909h3.558a1.455 1.455 0 1 1 0 2.909Zm0-7.763h-3.558a1.455 1.455 0 0 1 0-2.909h3.558a1.455 1.455 0 1 1 0 2.909Zm0-7.762h-3.558a1.455 1.455 0 0 1 0-2.909h3.558a1.455 1.455 0 1 1 0 2.909Zm0-7.763h-3.558a1.458 1.458 0 0 1 0-2.915h3.558a1.458 1.458 0 1 1 0 2.915Zm0-7.763h-3.558a1.457 1.457 0 0 1 0-2.914h3.558a1.457 1.457 0 1 1 0 2.914Z" style="fill:#ff8083"/>
    </g>
  </g>
</svg>
