<svg id="Layer_1" data-name="Layer 1" xmlns="http://www.w3.org/2000/svg" viewBox="0 0 693.9 460.97">
  <defs>
    <clipPath id="clip-path" transform="translate(-122.2 -150.2)">
      <path class="cls-1" d="M687.6 348.71c0 59.49-270.6 59.49-270.6 0S475.4 241 550.9 241s136.7 48.22 136.7 107.71Z"/>
    </clipPath>
    <clipPath id="clip-path-2" transform="translate(-122.2 -150.2)">
      <path class="cls-1" d="M785.4 382a2.93 2.93 0 0 1-1.6.4h-20.3a9.25 9.25 0 0 0 2.9-.4Z"/>
    </clipPath>
    <clipPath id="clip-path-3" transform="translate(-122.2 -150.2)">
      <path class="cls-1" d="M802.4 368.7v6.4a7 7 0 0 1-7 7h-28.9a14.46 14.46 0 0 1-2.9.4h-184v10.1H395.1v-35H265.9v12.8a12 12 0 0 1-12 12h-46.6a12 12 0 0 1-12-12v-19.5a12 12 0 0 1 12-12h5.5V334a7 7 0 0 1 7-7H255a7.22 7.22 0 0 1-.8-3.2v-16.6a7 7 0 0 1 7-7h46v-4.7a7 7 0 0 1 7-7h3.3v-43.3a5.87 5.87 0 0 1 5.7-5.9v-11.8a5.9 5.9 0 1 1 11.8 0v4.9a5.79 5.79 0 0 1 4.2 5.6v11.2h.1a5.91 5.91 0 0 1 5.9 5.9v21.7a3.75 3.75 0 0 1 1.1-.1h5.3a2.2 2.2 0 0 1 .8.1 5.84 5.84 0 0 1 4.9-5.2v-37.3a3.75 3.75 0 0 1 .1-1.1 7 7 0 0 1 7-7h3.2v-4.8a5.9 5.9 0 1 1 11.8 0v3.1a5.73 5.73 0 0 1 2.5-.6 5.55 5.55 0 0 1 2.8.7v-2.9a5.93 5.93 0 0 1 .5-2.3v-7.2a7 7 0 0 1 7-7h7.1a7 7 0 0 1 5.1 2.2 6 6 0 0 1 2.1 4.5v4.3a5.86 5.86 0 0 1 8.2.9 5.94 5.94 0 0 1 1.3 3.7v1a4.4 4.4 0 0 1 1.6-.2 5.91 5.91 0 0 1 5.9 5.9v41.1l8-.2v-56.3a5.8 5.8 0 0 1 3.5-5.3v-15.1a4 4 0 0 1 4-4h10.5a4 4 0 0 1 4 4v21.1a5.54 5.54 0 0 1 1.8-.2h7.7a7 7 0 0 1 7 7v25.8h1.4a4 4 0 0 1 4 4v39.1h14.4a7 7 0 0 1 7 7v4.7h41.7a7 7 0 0 1 7 7v16.6a7.22 7.22 0 0 1-.8 3.2h36.6a7 7 0 0 1 7 7v.2h2.4v-20.5a12 12 0 0 1 12-12h23v-62a4.58 4.58 0 0 1 4.2-4.6v-75.2a4.69 4.69 0 0 1 4.7-4.7h10.2a4.69 4.69 0 0 1 4.7 4.7v27.9h2.6v-5.1a4.67 4.67 0 0 1 4.6-4.7h1.1a4.69 4.69 0 0 1 4.7 4.7v26.9a4.1 4.1 0 0 1 1.1-.1h3.3v-27.2a4.69 4.69 0 0 1 4.7-4.7h10.2a4.69 4.69 0 0 1 4.7 4.7v10.1a4.1 4.1 0 0 1 1.1-.1h5.9v-13.8a4.69 4.69 0 0 1 4.7-4.7h10.2a4.69 4.69 0 0 1 4.7 4.7v44.8a4.74 4.74 0 0 1-4.6 4.7v21.9h3a4.69 4.69 0 0 1 4.7 4.7v47.1H737a12 12 0 0 1 12 12v20.5h14.5a12 12 0 0 1 12 12v15.6h-1.1v.8h1.1v-.8h19.9a6.81 6.81 0 0 1 7 6.9Z"/>
    </clipPath>
    <clipPath id="clip-path-4" transform="translate(-122.2 -150.2)">
      <path class="cls-1" d="M774.5 361.7h1.1v.8h-1.1z"/>
    </clipPath>
    <clipPath id="clip-path-6" transform="translate(-122.2 -150.2)">
      <path class="cls-1" d="M600.1 334.9a54.19 54.19 0 0 0 5.7 0c2.7 0 5.3-.1 8-.1 20.9-.2 42.3-.3 63.4-.3 10.8 0 20.1.4 30.9.3 4.9 0 10.3.1 15.2.2s11.4.3 16.3-.1c1.7-.1 8.5-.9 9.4-.8a5.39 5.39 0 0 1 1.3.7 240.17 240.17 0 0 1-33.9 2.1c-.1 0 6.1 5.7 5.4 5.7-.5 0-10-4.6-10.2-4.6-11.4-.7-22.9 0-34.3-.4-.7 0-1.8 3.9-2.6 3.5-1-.4-1.6-3.7-1.7-3.7-17.1 0-51.3-1.3-52.1-1.1-1.9.3-6.3 2-7.1 2-1.3 0 3.9-2 2.7-2h-8.6c-.1 0-12.7 4.5-13.9 4.4-1-.1 9.9-4.7 9.1-4.8a33 33 0 0 1-7.6-1.5c.1 0 .9-.5 1.1-.4l1.4.5a15.52 15.52 0 0 0 2.1.4Z"/>
    </clipPath>
    <clipPath id="clip-path-7" transform="translate(-122.2 -150.2)">
      <path class="cls-1" d="M598.7 313.3c1.8-1 2.9 2.4 9 2.5 6.4 0 10.1-.3 16.5-.3 12.5-.1 24.9-.1 37.4.4 24.1 1 80.3 3.1 85-.4.4-.3 3 1.8 3 1.8-.9.9-26 5.7-28.8 5.6-.2 0 3.4 5 2.8 5a.76.76 0 0 1-.4-.2c-1.8-1.3-6.2-4.9-6.4-4.9-10.5.3-30.6-2.6-43-2.6-.6 0-2.8 6.2-3.3 6s-.1-5.9-.7-6c-16-3.1-38.4-.3-54.4-.3-.6 0-5.1 3.2-5.7 3.1s3.5-3.1 2.9-3.1c-2.3 0-4.6-.1-6.9-.1-1.8 0-11.8 7.3-13 6.5-.8-.5 9.1-7.9 8.5-8.5-1.8-2-3.2-3.7-2.9-4 0-.3.2-.4.4-.5Z"/>
    </clipPath>
    <clipPath id="clip-path-8" transform="translate(-122.2 -150.2)">
      <path class="cls-1" d="M775.5 357.2c.2-.2-.9-1-1-1-11 2.7-22.8 2.1-34.3 2.1h-9.1c-3 0-6 0-9.1-.1s-6-.1-9.1-.2l-9.1-.3c-1 0-1.9-.1-2.9-.1-13.5-.6-27-1.5-40.5-.9-10.3.4-20.5 1.7-30.7 2.1-7.7.3-15.9.8-23.4-.7a28.22 28.22 0 0 1-8.4-3.5s-1.1.6-.9.8a39.07 39.07 0 0 0 3 4.1c.1 0-.6.8-.7.8-.7.7-1.4 1.3-2.1 2-.9.9-1.9 1.7-2.8 2.6s-1.9 1.8-2.9 2.7a23.91 23.91 0 0 0-2.2 2.3c-.2.2-.4.5-.6.7s-.4.5-.4.8a2.07 2.07 0 0 0 1-.6c2.2-1.4 4.2-2.9 6.3-4.4 1.8-1.3 3.4-2.8 5.3-4 1.3-.8 3.5-2 4.4-1.9.5.1 2.9.4 5 .6.5.1-4.7 4.9-4.3 5s6.4-4.7 6.7-4.7a52.72 52.72 0 0 0 6.8.4c5.2.2 10.4 0 15.6-.3 10.5-.6 21-1.7 31.5-1.8 5.1 0 11.6.7 16.7.7.5 0-.3 11.8.4 12s2.8-11.8 3-11.8c4.5 0 14.5 1.2 19 1.4 10.8.5 23.2.3 34 0 .7 0 8.1 7.7 8.7 7.7 1.2 0-5.4-7.8-4.8-7.8 6.3-.4 16.4.1 22.7-1 4.6-1 5.6-2 9.2-3.7Z"/>
    </clipPath>
    <clipPath id="clip-path-9" transform="translate(-122.2 -150.2)">
      <path class="cls-1" d="M318.5 329.7c2.8.2 5.9 0 8.7 0 4 0 8.1-.1 12.1-.1 31.8-.2 64.2-.4 96.2-.4 16.4 0 30.5.5 46.8.5 7.5 0 15.6.2 23 .3 7.6.1 17.2.4 24.8-.1 2.6-.2 13-1.2 14.3-1.1a5.38 5.38 0 0 1 2 1 424.87 424.87 0 0 1-51.4 2.8c-.1 0 9.2 7.6 8.1 7.6-.7 0-15.1-6.2-15.4-6.2-17.3-1-34.8 0-52.1-.6-1.1 0-2.7 5.2-4 4.8-1.5-.6-2.4-4.9-2.6-4.9-25.9 0-77.7-1.7-79-1.5-2.9.4-9.6 2.7-10.8 2.7-2 0 5.9-2.7 4.2-2.7h-13c-.2 0-19.3 6-21.1 5.9-1.6-.1 15.1-6.4 13.8-6.5a56.55 56.55 0 0 1-11.5-2 16.19 16.19 0 0 1 1.7-.6c.5.1 1.6.5 2.1.6a28.68 28.68 0 0 0 3.1.5Z"/>
    </clipPath>
    <clipPath id="clip-path-10" transform="translate(-122.2 -150.2)">
      <path class="cls-1" d="M264.6 356.4c3.5-1 5.5 2.4 17 2.5 11.9 0 19-.3 30.9-.3 23.4-.1 46.9-.1 70.3.4 45.2 1 151 3.1 159.7-.4.7-.3 5.6 1.8 5.6 1.8-1.7.9-48.9 5.7-54.2 5.6-.4 0 6.4 5 5.2 5a2.35 2.35 0 0 1-.8-.2c-3.4-1.3-11.6-4.9-12-4.9-19.8.3-57.6-2.6-80.9-2.6-1 0-5.2 6.2-6.2 6-1.2-.2-.3-5.9-1.3-6-30.1-3.1-72.1-.3-102.2-.3-1.1 0-9.6 3.2-10.8 3.1s6.6-3.1 5.5-3.1c-4.3 0-8.6-.1-13-.1-3.4 0-22.1 7.3-24.3 6.5-1.5-.5 17-7.9 15.9-8.5-3.4-2-6-3.7-5.4-4a3.13 3.13 0 0 1 1-.5Z"/>
    </clipPath>
    <clipPath id="clip-path-11" transform="translate(-122.2 -150.2)">
      <path class="cls-1" d="M311 302.9c2.4.1 4.7.1 7.1 0 3.3 0 6.6-.1 9.9-.1 26-.3 52.5-.4 78.6-.4 13.4 0 24.9.5 38.3.5 6.1 0 12.7.2 18.8.3s14.1.4 20.3-.1c2.2-.2 10.6-1.3 11.6-1.1a5.37 5.37 0 0 1 1.6 1 262 262 0 0 1-42 2.9c-.1 0 7.5 7.9 6.7 7.9-.6 0-12.4-6.5-12.6-6.5-14.2-1-28.4 0-42.6-.6-.9 0-2.2 5.4-3.3 5-1.3-.6-2-5.1-2.2-5.1-21.2 0-63.5-1.8-64.6-1.6-2.4.5-7.8 2.8-8.8 2.8-1.6 0 4.9-2.8 3.4-2.8h-10.6c-.2 0-15.8 6.3-17.2 6.2s12.3-6.6 11.3-6.7a38.68 38.68 0 0 1-9.4-2.1c.1 0 1.2-.7 1.4-.6.4.2 1.3.5 1.7.7.9.1 1.8.3 2.6.4Z"/>
    </clipPath>
    <clipPath id="clip-path-12" transform="translate(-122.2 -150.2)">
      <path class="cls-1" d="M640.7 262.6a56.73 56.73 0 0 1-.5-5.8c0-2.6.2-5.1.2-7.7 0-4.1.8-11.1-.4-14.7-.4-1.1-.9-2-1.2-3.1a13.36 13.36 0 0 1-.7-3.9.9.9 0 0 1 .1-.5.37.37 0 0 1 .3-.1c1-.1 1.7.2 1.7-1.4V217l.3-39.6c0-1.6 1-1 1.7-.7h.1a.35.35 0 0 0 .1-.2 5.83 5.83 0 0 0 .2-2.3 31.33 31.33 0 0 1 .2-5.3 8.75 8.75 0 0 0 .2-1.6c.1-.3.1-.6.2-.9v-.1a.1.1 0 0 1 .1.1 5.66 5.66 0 0 1 .3 1.8v2.1c0 1.4 0 2.9-.1 4.3-.1 1.8-.1 3.6-.2 5.4l-.1 5.9-.1 6.5-.1 6.8-.1 6.8-.1 6.6-.1 6.1-.1 5.3c0 2.8-.5 6.3.3 8.9.1.4.2.7.3 1.1a6.69 6.69 0 0 1-.5 1.9 8.33 8.33 0 0 0-.3 2.2c-.1 3.9-.4 7.8-.4 11.7 0 4.3.4 8.6-.4 12.8a7.84 7.84 0 0 0-.5-1.4c.4.4-.2 1.2-.4 1.4Z"/>
    </clipPath>
    <clipPath id="clip-path-13" transform="translate(-122.2 -150.2)">
      <path class="cls-1" d="M660 186.1a.55.55 0 0 0-.3-.5c-1-.6-.9 4.5-1 5.4-1.4 32.9-.4 66 .3 98.9a8.42 8.42 0 0 0 .4 2.7c1.6-7.4 1.6-16.2 1.7-24 .1-8.4-.1-16.9-.3-25.3l-.9-52.4a19.29 19.29 0 0 0 .1-4.8Z"/>
    </clipPath>
    <clipPath id="clip-path-14" transform="translate(-122.2 -150.2)">
      <path class="cls-1" d="M678.7 288.1c-.2-.2-.4-5.9-.4-6.1 0-2.7.2-5.4.2-8.1 0-4.3.6-11.6-.3-15.5a31.78 31.78 0 0 1-.9-3.3 18.41 18.41 0 0 1-.5-4.1.9.9 0 0 1 .1-.5c0-.1.1-.1.2-.2.8-.1 1.3.2 1.3-1.5V240c.1-13.9.1-27.8.3-41.7 0-1.7.8-1 1.3-.8h.1a.35.35 0 0 0 .1-.2 6.47 6.47 0 0 0 .1-2.4 35 35 0 0 1 .2-5.6c.1-.6.1-1.1.2-1.7 0-.3.1-.7.1-1v-.1a.1.1 0 0 1 .1.1 6.15 6.15 0 0 1 .2 1.9v2.2c0 1.5 0 3-.1 4.5 0 1.9-.1 3.8-.1 5.7l-.1 6.2-.1 6.8-.1 7.2-.1 7.2-.1 6.9-.1 6.4-.1 5.6c0 3-.4 6.6.2 9.4a5 5 0 0 1 .2 1.2 7.11 7.11 0 0 1-.4 2 17.85 17.85 0 0 0-.2 2.3c-.1 4.1-.3 8.2-.3 12.3 0 4.5.3 9.1-.3 13.5a8.33 8.33 0 0 0-.4-1.5 1.91 1.91 0 0 1-.3 1.7Z"/>
    </clipPath>
    <clipPath id="clip-path-15" transform="translate(-122.2 -150.2)">
      <path class="cls-1" d="M692 208.8a.76.76 0 0 0-.2-.4c-.8-.5-.7 3.3-.8 4-1.1 24.4-.3 48.9.3 73.3a6.93 6.93 0 0 0 .3 2c1.3-5.5 1.3-12 1.4-17.8.1-6.3-.1-12.5-.2-18.8l-.7-38.8a20.18 20.18 0 0 0-.1-3.5Z"/>
    </clipPath>
    <clipPath id="clip-path-16" transform="translate(-122.2 -150.2)">
      <path class="cls-1" d="M679.7 179.9a15.21 15.21 0 0 0-5.2-.3 6.26 6.26 0 0 1-2.7-.3 2.87 2.87 0 0 0-2.4 0 2.09 2.09 0 0 0-.7 1.8c-.4 5.2.5 10.5.6 15.7a73 73 0 0 1-.1 8.1 3.08 3.08 0 0 0-.1 1s.2 1.1.7-1.2a22.72 22.72 0 0 0 .3-5.2c.1-3 .2-5.9.3-8.9.1-2.3.2-4.7.5-7 .1-.7 0-2 .8-2.4a1.27 1.27 0 0 1 .6-.1 48.86 48.86 0 0 1 5.4.3 18.48 18.48 0 0 0 2.3.1 17.42 17.42 0 0 0 2.2-.5c-.3-.6-1.7-.9-2.5-1.1Z"/>
    </clipPath>
    <clipPath id="clip-path-17" transform="translate(-122.2 -150.2)">
      <path class="cls-1" d="M705 176.4a24.32 24.32 0 0 0-4.7-.2 9.74 9.74 0 0 1-2.4-.2 3.75 3.75 0 0 0-2.1 0 1.36 1.36 0 0 0-.7 1.1c-.3 3.2.5 6.5.6 9.8a43.41 43.41 0 0 1-.1 5.1 1.27 1.27 0 0 0-.1.6s.1.7.6-.7a18.16 18.16 0 0 0 .3-3.2c.1-1.8.1-3.7.3-5.5a32.93 32.93 0 0 1 .5-4.4c.1-.4 0-1.3.7-1.5.2 0 .4-.1.6-.1a38.54 38.54 0 0 1 4.8.2 14.77 14.77 0 0 0 2.1.1c.7-.1 1.3-.2 1.9-.3a3.57 3.57 0 0 0-2.3-.8Z"/>
    </clipPath>
    <clipPath id="clip-path-18" transform="translate(-122.2 -150.2)">
      <path class="cls-1" d="M643 157.5a15.21 15.21 0 0 0-5.2-.3 6.26 6.26 0 0 1-2.7-.3 2.87 2.87 0 0 0-2.4 0 2.09 2.09 0 0 0-.7 1.8c-.4 5.2.5 10.5.6 15.7a73 73 0 0 1-.1 8.1 3.08 3.08 0 0 0-.1 1s.2 1.1.7-1.2a22.72 22.72 0 0 0 .3-5.2c.1-3 .2-5.9.3-8.9.1-2.3.2-4.7.5-7 .1-.7 0-2 .8-2.4a1.27 1.27 0 0 1 .6-.1 48.86 48.86 0 0 1 5.4.3 18.48 18.48 0 0 0 2.3.1 17.42 17.42 0 0 0 2.2-.5c-.3-.5-1.8-.9-2.5-1.1Z"/>
    </clipPath>
    <clipPath id="clip-path-19" transform="translate(-122.2 -150.2)">
      <path class="cls-1" d="M703.2 292.1c.2-.2.5-5.9.5-6.1 0-2.7-.2-5.4-.2-8.1 0-4.3-.7-11.6.3-15.5.3-1.1.8-2.2 1.1-3.3a14 14 0 0 0 .6-4.1.9.9 0 0 0-.1-.5c-.1-.1-.2-.2-.3-.2-.9-.1-1.5.2-1.5-1.5V244l-.3-41.7c0-1.7-.9-1-1.5-.8h-.1a.35.35 0 0 1-.1-.2 9.74 9.74 0 0 1-.2-2.4 35 35 0 0 0-.2-5.6c-.1-.6-.1-1.1-.2-1.7a3.55 3.55 0 0 0-.2-1v-.1a.1.1 0 0 0-.1.1 6.28 6.28 0 0 0-.3 1.9v2.2c0 1.5 0 3 .1 4.5.1 1.9.1 3.8.2 5.7l.1 6.2.1 6.8.1 7.2.1 7.2.1 6.9.1 6.4.1 5.6c0 3 .5 6.6-.3 9.4a5 5 0 0 0-.2 1.2 7.34 7.34 0 0 0 .5 2 9 9 0 0 1 .2 2.3c.1 4.1.3 8.2.4 12.3 0 4.5-.3 9.1.4 13.5a8.8 8.8 0 0 1 .5-1.5c-.5.6.1 1.5.3 1.7Z"/>
    </clipPath>
    <clipPath id="clip-path-20" transform="translate(-122.2 -150.2)">
      <path class="cls-1" d="M456 216.7a15.21 15.21 0 0 1 5.2-.3 6.26 6.26 0 0 0 2.7-.3 2.87 2.87 0 0 1 2.4 0 2.09 2.09 0 0 1 .7 1.8c.4 5.2-.5 10.5-.6 15.7a73 73 0 0 0 .1 8.1 3.08 3.08 0 0 1 .1 1s-.2 1.1-.7-1.2a22.72 22.72 0 0 1-.3-5.2c-.1-3-.2-5.9-.3-8.9-.1-2.3-.2-4.7-.5-7-.1-.7 0-2-.8-2.4a1.27 1.27 0 0 0-.6-.1 48.86 48.86 0 0 0-5.4.3 18.48 18.48 0 0 1-2.3.1 17.42 17.42 0 0 1-2.2-.5c.3-.5 1.7-.9 2.5-1.1Z"/>
    </clipPath>
    <clipPath id="clip-path-21" transform="translate(-122.2 -150.2)">
      <path class="cls-1" d="M441.4 189.7a13.94 13.94 0 0 1 5-.3 5.24 5.24 0 0 0 2.5-.3c.8-.2 1.5-.5 2.2 0a2.57 2.57 0 0 1 .7 1.8c.3 5.2-.5 10.5-.6 15.7a73 73 0 0 0 .1 8.1 3.08 3.08 0 0 1 .1 1s-.1 1.1-.6-1.2a45.33 45.33 0 0 1-.3-5.2c-.1-3-.2-5.9-.3-8.9-.1-2.3-.2-4.7-.5-7-.1-.7 0-2-.8-2.4a1.27 1.27 0 0 0-.6-.1 45.33 45.33 0 0 0-5.2.3 8.13 8.13 0 0 1-2.2.1 16 16 0 0 1-2.1-.5 6 6 0 0 1 2.6-1.1Z"/>
    </clipPath>
    <clipPath id="clip-path-22" transform="translate(-122.2 -150.2)">
      <path class="cls-1" d="M393.3 208.2a13.94 13.94 0 0 1 5-.3 5.24 5.24 0 0 0 2.5-.3c.8-.2 1.5-.5 2.2 0a2.57 2.57 0 0 1 .7 1.8c.3 5.2-.5 10.5-.6 15.7a73 73 0 0 0 .1 8.1 3.08 3.08 0 0 1 .1 1s-.1 1.1-.6-1.2a30.25 30.25 0 0 1-.3-5.2c-.1-3-.2-5.9-.3-8.9-.1-2.3-.2-4.7-.5-7-.1-.7 0-2-.8-2.4a1.27 1.27 0 0 0-.6-.1 45.33 45.33 0 0 0-5.2.3 16.2 16.2 0 0 1-2.2.1 16 16 0 0 1-2.1-.5 6.82 6.82 0 0 1 2.6-1.1Z"/>
    </clipPath>
    <clipPath id="clip-path-23" transform="translate(-122.2 -150.2)">
      <path class="cls-1" d="M465.2 250.3c.3-.1.5-.3.6-.3l3.4-1.5a7.22 7.22 0 0 1 2.8-.7c1.1 0 1.4.5 1.5.9a3.4 3.4 0 0 1 0 2c-1.4 6.3-.5 8.9-.5 8.9s-.2.5-.8-.5-.5-9.5-3-9c-1.6.4-3.3.8-4.9 1.1a6.75 6.75 0 0 1-1.4.2 15.77 15.77 0 0 1 2.3-1.1Z"/>
    </clipPath>
    <clipPath id="clip-path-24" transform="translate(-122.2 -150.2)">
      <path class="cls-1" d="M414.8 226.5c.2-.1.4-.3.5-.3l2.6-1.5a4.1 4.1 0 0 1 2.2-.7 1.26 1.26 0 0 1 1.2.9 3.4 3.4 0 0 1 0 2c-1.1 6.3-.4 8.9-.4 8.9s-.1.5-.6-.5-.4-9.5-2.3-9c-1.2.4-2.5.8-3.8 1.1a3.59 3.59 0 0 1-1.1.2c.6-.4 1.1-.7 1.7-1.1Z"/>
    </clipPath>
    <clipPath id="clip-path-25" transform="translate(-122.2 -150.2)">
      <path class="cls-1" d="M332.4 237.8c.2-.1.3-.3.4-.3l2-1.5a2.84 2.84 0 0 1 1.7-.7.9.9 0 0 1 .9.9 6.69 6.69 0 0 1 0 2c-.8 6.3-.3 8.9-.3 8.9s-.1.5-.5-.5-.3-9.5-1.8-9c-1 .4-1.9.8-2.9 1.1a2.35 2.35 0 0 1-.8.2 10.9 10.9 0 0 1 1.3-1.1Z"/>
    </clipPath>
    <clipPath id="clip-path-26" transform="translate(-122.2 -150.2)">
      <path class="cls-1" d="M337.3 255.4c.2-.1.3-.3.4-.3l2-1.5a2.84 2.84 0 0 1 1.7-.7.9.9 0 0 1 .9.9 6.69 6.69 0 0 1 0 2c-.8 6.3-.3 8.9-.3 8.9s-.1.5-.5-.5-.3-9.5-1.8-9c-1 .4-1.9.8-2.9 1.1a2.35 2.35 0 0 1-.8.2c.4-.4.9-.7 1.3-1.1Z"/>
    </clipPath>
    <clipPath id="clip-path-27" transform="translate(-122.2 -150.2)">
      <path class="cls-1" d="M361.6 230.5c.2-.1.3-.3.4-.3l2-1.5a2.84 2.84 0 0 1 1.7-.7.9.9 0 0 1 .9.9 6.69 6.69 0 0 1 0 2c-.8 6.3-.3 8.9-.3 8.9s-.1.5-.5-.5-.3-9.5-1.8-9c-1 .4-1.9.8-2.9 1.1a2.35 2.35 0 0 1-.8.2c.5-.4.9-.8 1.3-1.1Z"/>
    </clipPath>
    <clipPath id="clip-path-28" transform="translate(-122.2 -150.2)">
      <path class="cls-1" d="M395 219a.32.32 0 0 0-.3-.3c-1.1-.4-1 3-1 3.5-1.4 21.6-.4 43.3.4 64.9a3.29 3.29 0 0 0 .4 1.7c1.7-4.8 1.7-10.7 1.8-15.8.1-5.5-.1-11.1-.3-16.6l-.9-34.4a10.18 10.18 0 0 0-.1-3Z"/>
    </clipPath>
    <clipPath id="clip-path-29" transform="translate(-122.2 -150.2)">
      <path class="cls-1" d="M410.9 302a25.72 25.72 0 0 1-.5-4c0-1.7.2-3.5.2-5.2 0-2.8.8-7.5-.4-10a22.47 22.47 0 0 1-1.2-2.1 6 6 0 0 1-.7-2.7.35.35 0 0 1 .4-.4c1-.1 1.6.2 1.7-1v-5.7l.3-26.9c0-1.1 1-.7 1.7-.5.1 0 .2 0 .2-.1a2.62 2.62 0 0 0 .2-1.5 14.52 14.52 0 0 1 .2-3.6 4.25 4.25 0 0 0 .2-1.1c.1-.2.1-.4.2-.6v-.1a.1.1 0 0 1 .1.1 2.66 2.66 0 0 1 .3 1.2v1.4a28.1 28.1 0 0 1-.1 2.9c-.1 1.2-.1 2.4-.2 3.7l-.1 4-.1 4.4-.1 4.6-.1 4.6-.1 4.5-.1 4.1-.1 3.6c0 1.9-.5 4.3.3 6.1a6.89 6.89 0 0 1 .3.8c0 .5-.3.8-.5 1.3a4 4 0 0 0-.3 1.5c-.1 2.6-.4 5.3-.4 7.9 0 2.9.4 5.9-.4 8.7a9.25 9.25 0 0 0-.5-1c.4.4-.2.9-.4 1.1Z"/>
    </clipPath>
    <clipPath id="clip-path-30" transform="translate(-122.2 -150.2)">
      <path class="cls-1" d="M443.8 203.1c0-.1-.1-.3-.1-.4-.5-.5-.5 3.5-.5 4.2-.7 25.9-.2 52 .2 77.9a7.49 7.49 0 0 0 .2 2.1c.8-5.8.8-12.8.9-18.9.1-6.6-.1-13.3-.1-19.9l-.4-41.2c-.1-1.3-.2-2.6-.2-3.8Z"/>
    </clipPath>
    <clipPath id="clip-path-31" transform="translate(-122.2 -150.2)">
      <path class="cls-1" d="M455.6 224.5c0-.1-.1-.3-.2-.3-.8-.4-.7 3-.7 3.5-1 21.6-.3 43.3.3 64.9a4.67 4.67 0 0 0 .3 1.7c1.2-4.8 1.2-10.7 1.3-15.8.1-5.5-.1-11.1-.2-16.6l-.6-34.4c-.1-.9-.1-1.9-.2-3Z"/>
    </clipPath>
    <clipPath id="clip-path-32" transform="translate(-122.2 -150.2)">
      <path class="cls-1" d="M374.9 233.9c0-.1-.1-.2-.2-.3-.8-.3-.7 2.4-.7 2.8-1 17.2-.3 34.5.3 51.7a3.19 3.19 0 0 0 .3 1.4c1.2-3.9 1.2-8.5 1.3-12.5.1-4.4-.1-8.8-.2-13.2l-.7-27.4a21.75 21.75 0 0 0-.1-2.5Z"/>
    </clipPath>
    <clipPath id="clip-path-33" transform="translate(-122.2 -150.2)">
      <path class="cls-1" d="m371.5 219.8.4-.3 2-1.5a2.84 2.84 0 0 1 1.7-.7.9.9 0 0 1 .9.9 6.69 6.69 0 0 1 0 2c-.8 6.3-.3 8.9-.3 8.9s-.1.5-.5-.5-.3-9.5-1.8-9c-1 .4-1.9.8-2.9 1.1a2.35 2.35 0 0 1-.8.2 12.67 12.67 0 0 1 1.3-1.1Z"/>
    </clipPath>
    <clipPath id="clip-path-34" transform="translate(-122.2 -150.2)">
      <path class="cls-1" d="M361.5 235.7a.22.22 0 0 0-.2-.2c-.7-.2-.6 1.6-.7 1.9-.9 11.8-.2 23.7.2 35.5a1.93 1.93 0 0 0 .3 1c1.1-2.6 1.1-5.8 1.2-8.6.1-3-.1-6.1-.2-9.1l-.6-18.8a4.84 4.84 0 0 0 0-1.7Z"/>
    </clipPath>
    <clipPath id="clip-path-35" transform="translate(-122.2 -150.2)">
      <path class="cls-1" d="M331 246.3c0-.1-.1-.2-.2-.3-.7-.3-.6 2.5-.6 3-.9 18.5-.2 37 .2 55.5a7.72 7.72 0 0 0 .2 1.5c1.1-4.1 1.1-9.1 1.1-13.5.1-4.7-.1-9.5-.2-14.2l-.6-29.4a4.57 4.57 0 0 0 .1-2.6Z"/>
    </clipPath>
    <clipPath id="clip-path-36" transform="translate(-122.2 -150.2)">
      <path class="cls-1" d="M323.2 242.8c0-.1-.1-.2-.2-.3-.7-.3-.6 2.5-.6 3-.9 18.5-.2 37 .2 55.5a7.72 7.72 0 0 0 .2 1.5c1.1-4.1 1.1-9.1 1.1-13.5.1-4.7-.1-9.5-.2-14.2l-.6-29.4a7.48 7.48 0 0 0 .1-2.6Z"/>
    </clipPath>
    <clipPath id="clip-path-37" transform="translate(-122.2 -150.2)">
      <path class="cls-1" d="M406.8 219.5a1.09 1.09 0 0 1 .5-.1l2.6-.7a7.8 7.8 0 0 1 2.2-.3c.9 0 1.1.2 1.2.4a.75.75 0 0 1 0 .9c-1.1 2.8-.4 4-.4 4s-.1.2-.6-.2-.4-4.3-2.3-4c-1.2.2-2.5.3-3.8.5a4.1 4.1 0 0 1-1.1.1 4.07 4.07 0 0 1 1.7-.6Z"/>
    </clipPath>
    <clipPath id="clip-path-38" transform="translate(-122.2 -150.2)">
      <path class="cls-1" d="M326.7 225.9c.2-.1.3-.2.4-.2l2-1.2a3.37 3.37 0 0 1 1.7-.5.87.87 0 0 1 .9.6 3.79 3.79 0 0 1 0 1.5c-.8 4.8-.3 6.7-.3 6.7s-.1.4-.5-.4-.3-7.2-1.8-6.8c-1 .3-1.9.6-2.9.9a2.2 2.2 0 0 1-.8.1 8.26 8.26 0 0 0 1.3-.7Z"/>
    </clipPath>
    <clipPath id="clip-path-39" transform="translate(-122.2 -150.2)">
      <path class="cls-1" d="M658.5 182.8c-.2-.1-.3-.3-.4-.3L656 181a2.87 2.87 0 0 0-1.8-.7 1.06 1.06 0 0 0-1 .9 6.69 6.69 0 0 0 0 2c.9 6.3.3 8.9.3 8.9s.1.5.5-.5.3-9.5 1.8-9a28.27 28.27 0 0 0 3.1 1.1 2.92 2.92 0 0 0 .9.2 15 15 0 0 1-1.3-1.1Z"/>
    </clipPath>
    <clipPath id="clip-path-40" transform="translate(-122.2 -150.2)">
      <path class="cls-1" d="m791 397 1 5c0 3.6-13.6 1-17 2-.7.2 8.7 6 8 6l-41.1 1.4v21.5a5 5 0 0 1-5 5H199.1a5 5 0 0 1-5-5v-21L165 425c-2.8 0-8 .8-8-2l3-1c0-2.8-4.8-5-2-5l4.8-28.1a7.94 7.94 0 0 1 6.9-3.9h2.6a7.84 7.84 0 0 1 6.1-2.8h12.1v-2.9a8 8 0 0 1 8-8H216v-1.2a8 8 0 0 1 8-8h6.9a8.1 8.1 0 0 1 7.1-4.3h13.5v-8.4a8 8 0 0 1 8-8h22.8v-6.8a8 8 0 0 1 8-8h18.4a8.13 8.13 0 0 1 7.8 6 8 8 0 0 1 7.2 8v.9a8 8 0 0 1 6.8 7.9v8.2h3.2a7.4 7.4 0 0 1 3.6.9 7.89 7.89 0 0 1 7.5-6.5v-.8a8 8 0 0 1 8-8h5.1a7.92 7.92 0 0 1 6.8-3.8h11.5a8 8 0 0 1 6.8 3.8h1.3a8 8 0 0 1 8 8 4.1 4.1 0 0 1-.1 1.1 8 8 0 0 1 7.4 8v.1h15.5a8 8 0 0 1 8 8v3H452a8 8 0 0 1 8 8v2.9h51.5a8 8 0 0 1 7.9 6.7h47.7c.1-.2.1-.4.2-.6a8.12 8.12 0 0 1 7.5-5.2h6.9a8.1 8.1 0 0 1 7.1-4.3h13.5v-8.4a8 8 0 0 1 8-8h22.8v-6.8a8 8 0 0 1 8-8h18.4a8.13 8.13 0 0 1 7.8 6 8 8 0 0 1 7.2 8v.9a8 8 0 0 1 6.8 7.9v2.2h18.2a7.63 7.63 0 0 1 4.2 1.2 8 8 0 0 1 5.6-4.2v-1.5a8 8 0 0 1 8-8h9a8.17 8.17 0 0 1 7.5 5.1h2.4a8.16 8.16 0 0 1 6.7 3.6h4.2a8 8 0 0 1 8 8v2.2h2.5a8 8 0 0 1 8 8v1.2l22.4-.3c4.5.1 3 4.5 3 9Z"/>
    </clipPath>
    <clipPath id="clip-path-41" transform="translate(-122.2 -150.2)">
      <path class="cls-1" d="M805.3 411a4.68 4.68 0 0 1-2.8.9h-60.6v-.6h61.2a7.8 7.8 0 0 0 2.2-.3Z"/>
    </clipPath>
    <clipPath id="clip-path-42" transform="translate(-122.2 -150.2)">
      <path class="cls-1" d="M567.4 388.4c-.1.2-.1.4-.2.6h-20.8a7.17 7.17 0 0 1 2.9-.6Z"/>
    </clipPath>
    <clipPath id="clip-path-43" transform="translate(-122.2 -150.2)">
      <path class="cls-1" d="M614.4 373.6c-.3-.4-.5-.7-.6-.8l-3.4-4.3c-.6-.8-1.7-2.1-2.8-2s-1.4 1.5-1.5 2.4a26.2 26.2 0 0 0 0 5.6c1.4 17.9.5 25.1.5 25.1s.2 1.4.8-1.5.5-27.1 3-25.4c1.6 1.1 3.3 2.2 4.9 3.2.4.2 1 .6 1.4.5a20.11 20.11 0 0 1-2.3-2.8Z"/>
    </clipPath>
    <clipPath id="clip-path-44" transform="translate(-122.2 -150.2)">
      <path class="cls-1" d="M761.9 386.7c-.3-.1-.5-.3-.6-.3l-3.4-1.5a7.22 7.22 0 0 0-2.8-.7c-1.1 0-1.4.5-1.5.9a3.4 3.4 0 0 0 0 2c1.4 6.3.5 8.9.5 8.9s.2.5.8-.5.5-9.5 3-9c1.6.4 3.3.8 4.9 1.1a6.75 6.75 0 0 0 1.4.2c-.8-.4-1.6-.7-2.3-1.1Z"/>
    </clipPath>
    <clipPath id="clip-path-45" transform="translate(-122.2 -150.2)">
      <path class="cls-1" d="M599.4 382.7c-2.2-.2-4.3-.2-6.5-.2-1.1 0-2.2 0-3.3-.1a7.08 7.08 0 0 0-2.9 0c-.7.2-.8.5-.9.9-.4 2.4.6 4.9.8 7.3a12 12 0 0 1-.2 3.8c0 .1-.2.3-.1.5 0 0 .2.5.8-.6a6.72 6.72 0 0 0 .4-2.4c.1-1.4.2-2.8.4-4.1a13 13 0 0 1 .7-3.3c.1-.3 0-1 1-1.1a2.15 2.15 0 0 1 .8 0c2.2 0 4.5 0 6.7.2 1 0 1.9.1 2.9.1.2 0 2.8-.2 2.7-.2a6.69 6.69 0 0 0-3.3-.8Z"/>
    </clipPath>
    <clipPath id="clip-path-46" transform="translate(-122.2 -150.2)">
      <path class="cls-1" d="M694.9 375.6c-2.2-.2-4.3-.2-6.5-.2-1.1 0-2.2 0-3.3-.1a7.08 7.08 0 0 0-2.9 0c-.7.2-.8.5-.9.9-.4 2.4.6 4.9.8 7.3a12 12 0 0 1-.2 3.8c0 .1-.2.3-.1.5 0 0 .2.5.8-.6a6.72 6.72 0 0 0 .4-2.4c.1-1.4.2-2.8.4-4.1a13 13 0 0 1 .7-3.3c.1-.3 0-1 1-1.1h.8c2.2 0 4.5 0 6.7.2 1 0 1.9.1 2.9.1.2 0 2.8-.2 2.7-.2a6.69 6.69 0 0 0-3.3-.8Z"/>
    </clipPath>
    <clipPath id="clip-path-47" transform="translate(-122.2 -150.2)">
      <path class="cls-1" d="M299.1 330.4a23.48 23.48 0 0 1 6.5-.4 9.26 9.26 0 0 0 3.3-.3 3.28 3.28 0 0 1 2.9 0 2.81 2.81 0 0 1 .9 2.3c.4 6.4-.6 12.9-.8 19.3a83.46 83.46 0 0 0 .2 10 4.87 4.87 0 0 1 .1 1.2s-.2 1.4-.8-1.5a45.83 45.83 0 0 1-.4-6.4c-.1-3.6-.2-7.3-.4-10.9a85 85 0 0 0-.7-8.7c-.1-.9 0-2.5-1-2.9a2.2 2.2 0 0 0-.8-.1 50.2 50.2 0 0 0-6.7.4 14.08 14.08 0 0 1-2.9.1 13.1 13.1 0 0 1-2.7-.6c.6-.8 2.3-1.2 3.3-1.5Z"/>
    </clipPath>
    <clipPath id="clip-path-48" transform="translate(-122.2 -150.2)">
      <path class="cls-1" d="M384.6 354.4a5.44 5.44 0 0 0 .4-.8l2.5-4.3c.5-.8 1.2-2.1 2.1-2s1 1.5 1.1 2.4a52.3 52.3 0 0 1 0 5.6c-1 17.9-.3 25.1-.3 25.1s-.1 1.4-.6-1.5-.4-27.1-2.2-25.4c-1.2 1.1-2.4 2.2-3.6 3.2-.3.2-.7.6-1 .5.5-.9 1.1-1.9 1.6-2.8Z"/>
    </clipPath>
    <clipPath id="clip-path-49" transform="translate(-122.2 -150.2)">
      <path class="cls-1" d="M219.4 370.4c.3-.1.5-.3.6-.3l3.4-1.5a7.22 7.22 0 0 1 2.8-.7c1.1 0 1.4.5 1.5.9a3.4 3.4 0 0 1 0 2c-1.4 6.3-.5 8.9-.5 8.9s-.2.5-.8-.5-.5-9.5-3-9c-1.6.4-3.3.8-4.9 1.1a6.75 6.75 0 0 1-1.4.2 15.77 15.77 0 0 1 2.3-1.1Z"/>
    </clipPath>
    <clipPath id="clip-path-50" transform="translate(-122.2 -150.2)">
      <path class="cls-1" d="M264.8 345.7c2.2-.2 4.3-.2 6.5-.2 1.1 0 2.2 0 3.3-.1a7.08 7.08 0 0 1 2.9 0c.7.2.9.5.9.9.4 2.4-.6 4.9-.8 7.3a12 12 0 0 0 .2 3.8c0 .1.2.3.1.5 0 0-.2.5-.8-.6a6.72 6.72 0 0 1-.4-2.4c-.1-1.4-.2-2.8-.4-4.1a13 13 0 0 0-.7-3.3c-.1-.3 0-1-1-1.1a2.15 2.15 0 0 0-.8 0c-2.2 0-4.5 0-6.7.2-1 0-1.9.1-2.9.1-.2 0-2.8-.2-2.7-.2a6.69 6.69 0 0 1 3.3-.8Z"/>
    </clipPath>
    <clipPath id="clip-path-51" transform="translate(-122.2 -150.2)">
      <path class="cls-1" d="M319.5 347.1c.3-.1.5-.3.6-.3l3.4-1.5a7.22 7.22 0 0 1 2.8-.7c1.1 0 1.4.5 1.5.9a3.4 3.4 0 0 1 0 2c-1.4 6.3-.5 8.9-.5 8.9s-.2.5-.8-.5-.5-9.5-3-9c-1.6.4-3.3.8-4.9 1.1a6.75 6.75 0 0 1-1.4.2c.2-.1 1.5-.7 2.3-1.1Z"/>
    </clipPath>
    <clipPath id="clip-path-52" transform="translate(-122.2 -150.2)">
      <path class="cls-1" d="M352.2 346.8c.2-.1.3-.2.4-.2l2.1-.9a3.66 3.66 0 0 1 1.8-.4c.7 0 .9.3 1 .5a2.44 2.44 0 0 1 0 1.2c-.9 3.9-.3 5.5-.3 5.5s-.1.3-.5-.3-.3-5.9-1.8-5.6c-1 .2-2 .5-3.1.7a2.77 2.77 0 0 1-.9.1c.4-.2.9-.4 1.3-.6Z"/>
    </clipPath>
    <clipPath id="clip-path-53" transform="translate(-122.2 -150.2)">
      <path class="cls-1" d="M365.4 342.7a23.48 23.48 0 0 1 6.5-.4 9.26 9.26 0 0 0 3.3-.3 3.28 3.28 0 0 1 2.9 0 2.81 2.81 0 0 1 .9 2.3c.4 6.4-.6 12.9-.8 19.3a83.46 83.46 0 0 0 .2 10 4.87 4.87 0 0 1 .1 1.2s-.2 1.4-.8-1.5a45.83 45.83 0 0 1-.4-6.4c-.1-3.6-.2-7.3-.4-10.9a85 85 0 0 0-.7-8.7c-.1-.9 0-2.5-1-2.9a2.2 2.2 0 0 0-.8-.1 50.2 50.2 0 0 0-6.7.4 14.08 14.08 0 0 1-2.9.1 13.1 13.1 0 0 1-2.7-.6c.5-.8 2.3-1.2 3.3-1.5Z"/>
    </clipPath>
    <clipPath id="clip-path-54" transform="translate(-122.2 -150.2)">
      <path class="cls-1" d="M406.5 363.4a35 35 0 0 1 6.5-.3 18.29 18.29 0 0 0 3.3-.2 4.78 4.78 0 0 1 2.9 0 1.51 1.51 0 0 1 .9 1.4c.4 4.1-.6 8.2-.8 12.3a34.26 34.26 0 0 0 .2 6.4c0 .2.2.5.1.8 0 0-.2.9-.8-.9a18.4 18.4 0 0 1-.4-4.1c-.1-2.3-.2-4.6-.4-6.9a34.49 34.49 0 0 0-.7-5.5c-.1-.6 0-1.6-1-1.9a2.2 2.2 0 0 0-.8-.1c-2.2 0-4.5.1-6.7.3a17.61 17.61 0 0 1-5.6-.3c.6-.6 2.4-.9 3.3-1Z"/>
    </clipPath>
    <clipPath id="clip-path-55" transform="translate(-122.2 -150.2)">
      <path class="cls-1" d="M432.9 375c3.3-.2 6.6-.2 9.9-.2 1.7 0 3.4 0 5-.1a16.2 16.2 0 0 1 4.4 0c1.1.2 1.3.6 1.4 1 .7 2.7-1 5.5-1.2 8.2a12.46 12.46 0 0 0 .2 4.3c0 .1.3.4.2.5s-.3.6-1.3-.6c-.7-.9-.5-1.8-.6-2.7-.2-1.5-.3-3.1-.6-4.6a12 12 0 0 0-1-3.7c-.2-.4 0-1.1-1.5-1.2-.4 0-.8-.1-1.2-.1-3.5 0-6.9 0-10.3.2-1.5.1-2.9.1-4.4.1-.3 0-4.2-.2-4.1-.3a23.46 23.46 0 0 1 5.1-.8Z"/>
    </clipPath>
    <clipPath id="clip-path-56" transform="translate(-122.2 -150.2)">
      <path class="cls-1" d="M749.9 374.7c-.3-.1-.5-.3-.6-.3l-3.4-1.5a7.22 7.22 0 0 0-2.8-.7c-1.1 0-1.4.5-1.5.9a3.4 3.4 0 0 0 0 2c1.4 6.3.5 8.9.5 8.9s.2.5.8-.5.5-9.5 3-9c1.6.4 3.3.8 5 1.1a6.75 6.75 0 0 0 1.4.2c-.9-.4-1.7-.8-2.4-1.1Z"/>
    </clipPath>
    <clipPath id="clip-path-57" transform="translate(-122.2 -150.2)">
      <path class="cls-1" d="M579.8 389.8c-.3-.1-.5-.3-.6-.3l-3.4-1.5a7.22 7.22 0 0 0-2.8-.7c-1.1 0-1.4.5-1.5.9a3.4 3.4 0 0 0 0 2c1.4 6.3.5 8.9.5 8.9s.2.5.8-.5.5-9.5 3-9c1.6.4 3.3.8 4.9 1.1a6.75 6.75 0 0 0 1.4.2c-.2-.1-1.5-.7-2.3-1.1Z"/>
    </clipPath>
    <clipPath id="clip-path-58" transform="translate(-122.2 -150.2)">
      <path class="cls-1" d="M728.8 364.5a23.48 23.48 0 0 0-6.5-.4 9.26 9.26 0 0 1-3.3-.3 3.28 3.28 0 0 0-2.9 0 2.81 2.81 0 0 0-.9 2.3c-.4 6.4.6 12.9.8 19.3a83.46 83.46 0 0 1-.2 10 4.87 4.87 0 0 0-.1 1.2s.2 1.4.8-1.5a45.83 45.83 0 0 0 .4-6.4c.1-3.6.2-7.3.4-10.9a85 85 0 0 1 .7-8.7c.1-.9 0-2.5 1-2.9a2.2 2.2 0 0 1 .8-.1 50.2 50.2 0 0 1 6.7.4 14.08 14.08 0 0 0 2.9.1 13.1 13.1 0 0 0 2.7-.6c-.6-.8-2.4-1.3-3.3-1.5Z"/>
    </clipPath>
    <clipPath id="clip-path-59" transform="translate(-122.2 -150.2)">
      <path class="cls-1" d="M295.7 358.1c.3-.4.5-.7.6-.8l3.4-4.3c.6-.8 1.7-2.1 2.8-2s1.4 1.5 1.5 2.4a26.2 26.2 0 0 1 0 5.6c-1.4 17.9-.5 25.1-.5 25.1s-.2 1.4-.8-1.5-.5-27.1-3-25.4c-1.6 1.1-3.3 2.2-4.9 3.2-.4.2-1 .6-1.4.5a20.11 20.11 0 0 0 2.3-2.8Z"/>
    </clipPath>
    <clipPath id="clip-path-60" transform="translate(-122.2 -150.2)">
      <path class="cls-1" d="M356 365.8c.3-.4.5-.7.6-.8l3.4-4.3c.6-.8 1.7-2.1 2.8-2s1.4 1.5 1.5 2.4a26.2 26.2 0 0 1 0 5.6c-1.4 17.9-.5 25.1-.5 25.1s-.2 1.4-.8-1.5-.5-27.1-3-25.4c-1.6 1.1-3.3 2.2-5 3.2-.4.2-1 .6-1.4.5a15.53 15.53 0 0 0 2.4-2.8Z"/>
    </clipPath>
    <clipPath id="clip-path-61" transform="translate(-122.2 -150.2)">
      <path class="cls-1" d="M263.7 365.9c.3-.4.5-.7.6-.8l3.4-4.3c.6-.8 1.7-2.1 2.8-2s1.4 1.5 1.5 2.4a26.2 26.2 0 0 1 0 5.6c-1.4 17.9-.5 25.1-.5 25.1s-.2 1.4-.8-1.5-.5-27.1-3-25.4c-1.6 1.1-3.3 2.2-4.9 3.2-.4.2-1 .6-1.4.5a15.6 15.6 0 0 0 2.3-2.8Z"/>
    </clipPath>
    <style>
      .cls-1,.cls-67{fill:none}.cls-2{fill:#e3e9f1}.cls-6{fill:#f1f5fb}.cls-8{clip-path:url(#clip-path-4)}.cls-10{fill:#f9fbff}.cls-66{fill:#b5bdc2}.cls-67{stroke:#e3e9f1;stroke-linecap:round;stroke-miterlimit:10;stroke-width:2px}.cls-69{fill:#fff}
    </style>
  </defs>
  <path class="cls-2" d="M192.64 403.11C181.76 406.65 172.45 386 161 386c-31 0-25.8 30.33-26.34 41.76-.62 13.32 13.74 21.4 24.44 29.37a79.63 79.63 0 0 1 31.16 54.1c.77 6.71.78 13.86 4.39 19.56 4.76 7.53 14.27 10.27 23 12.12a400.72 400.72 0 0 0 62.86 8.27c11.12.57 22.6.76 32.76 5.31 12.66 5.67 21.53 17.33 32.92 25.25 16.07 11.18 36.5 14.42 56.06 13.58s38.73-5.38 58.06-8.43a381.27 381.27 0 0 1 132.8 2.51c17.58 3.46 35.91 8.14 53.06 3 38.75-11.61 48.5-63.8 81.8-86.77 9-6.19 19.55-10.12 27.5-17.57 9.08-8.51 13.81-20.74 22.33-29.81 6.7-7.14 15.57-12.12 21.64-19.82 7.26-9.2 13.21-21.75 14.46-33.46 1.71-16-12.64-22-25.89-24-19.59-2.92-41 6-61 20.7-40.17 29.5-96.43 28.06-146.26 28.94-54.48 1-105.88-28-160.37-28.85-17-.25-33.88 2.24-50.86 2.64-56.8 1.32-114-20.8-169.46-8.4" transform="translate(-122.2 -150.2)"/>
  <g style="clip-path:url(#clip-path)">
    <path style="fill:#ffe2db" d="M289.8 86.86h280.6v160.2H289.8z"/>
  </g>
  <path class="cls-6" d="M452.4 226.8h215.8v10.4H452.4z" style="clip-path:url(#clip-path-2)"/>
  <path class="cls-6" d="M68.1 0h617.1v247.4H68.1z" style="clip-path:url(#clip-path-3)"/>
  <g class="cls-8">
    <path class="cls-6" d="M647.3 206.5h11.1v10.8h-11.1z"/>
  </g>
  <g class="cls-8">
    <path class="cls-6" d="M647.3 206.5h11.1v10.8h-11.1z"/>
  </g>
  <path class="cls-10" d="M466.74 178.79H633.1v18.61H466.74z" style="clip-path:url(#clip-path-6)"/>
  <path class="cls-10" d="M465.45 157.92H632.4v24.78H465.45z" style="clip-path:url(#clip-path-7)"/>
  <path class="cls-10" d="M461.1 199.4h197.22v27.8H461.1z" style="clip-path:url(#clip-path-8)"/>
  <path class="cls-10" d="M181.99 173.4H429.2V195H181.99z" style="clip-path:url(#clip-path-9)"/>
  <path class="cls-10" d="M125.81 201.02H430.9v24.78H125.81z" style="clip-path:url(#clip-path-10)"/>
  <path class="cls-10" d="M176.11 146.59H380v22.01H176.11z" style="clip-path:url(#clip-path-11)"/>
  <path class="cls-10" d="M510.9 11.1h15.5v106.3h-15.5z" style="clip-path:url(#clip-path-12)"/>
  <path class="cls-10" d="M530.79 30.35h13.13V147.4h-13.13z" style="clip-path:url(#clip-path-13)"/>
  <path class="cls-10" d="M549.6 31.3h14.3v111.6h-14.3z" style="clip-path:url(#clip-path-14)"/>
  <path class="cls-10" d="M563.25 53.15h12.57v89.35h-12.57z" style="clip-path:url(#clip-path-15)"/>
  <path class="cls-10" d="M541.4 23.83H565v37.14h-23.6z" style="clip-path:url(#clip-path-16)"/>
  <path class="cls-10" d="M567.83 20.65h22.27v26.92h-22.27z" style="clip-path:url(#clip-path-17)"/>
  <path class="cls-10" d="M504.7 1.43h23.6v37.14h-23.6z" style="clip-path:url(#clip-path-18)"/>
  <path class="cls-10" d="M573.2 35.3h15.1v111.6h-15.1z" style="clip-path:url(#clip-path-19)"/>
  <path class="cls-10" d="M326.3 60.63h23.6v37.14h-23.6z" style="clip-path:url(#clip-path-20)"/>
  <path class="cls-10" d="M311.6 33.63h23.07v37.14H311.6z" style="clip-path:url(#clip-path-21)"/>
  <path class="cls-10" d="M263.5 52.13h23.07v37.14H263.5z" style="clip-path:url(#clip-path-22)"/>
  <path class="cls-10" d="M335.7 92.6h20.75v21.92H335.7z" style="clip-path:url(#clip-path-23)"/>
  <path class="cls-10" d="M285.9 68.8h18.35v21.92H285.9z" style="clip-path:url(#clip-path-24)"/>
  <path class="cls-10" d="M203.9 80.1h16.38v21.92H203.9z" style="clip-path:url(#clip-path-25)"/>
  <path class="cls-10" d="M208.8 97.7h16.38v21.93H208.8z" style="clip-path:url(#clip-path-26)"/>
  <path class="cls-10" d="M233.1 72.8h16.38v21.92H233.1z" style="clip-path:url(#clip-path-27)"/>
  <path class="cls-10" d="M265.8 63.47h13.33v80.13H265.8z" style="clip-path:url(#clip-path-28)"/>
  <path class="cls-10" d="M281.1 81.3h15.5v75.5h-15.5z" style="clip-path:url(#clip-path-29)"/>
  <path class="cls-10" d="M315.65 47.46h11.68v94.24h-11.68z" style="clip-path:url(#clip-path-30)"/>
  <path class="cls-10" d="M327 68.97h12.43v80.13H327z" style="clip-path:url(#clip-path-31)"/>
  <path class="cls-10" d="M246.3 78.38h12.43v65.92H246.3z" style="clip-path:url(#clip-path-32)"/>
  <path class="cls-10" d="M243 62.1h16.38v21.92H243z" style="clip-path:url(#clip-path-33)"/>
  <path class="cls-10" d="M232.96 80.28h12.17v48.42h-12.17z" style="clip-path:url(#clip-path-34)"/>
  <path class="cls-10" d="M202.56 90.78h11.97v70.02h-11.97z" style="clip-path:url(#clip-path-35)"/>
  <path class="cls-10" d="M194.76 87.28h11.97v70.02h-11.97z" style="clip-path:url(#clip-path-36)"/>
  <path class="cls-10" d="M277.9 63.2h18.35v15.35H277.9z" style="clip-path:url(#clip-path-37)"/>
  <path class="cls-10" d="M198.2 68.8h16.38v18.9H198.2z" style="clip-path:url(#clip-path-38)"/>
  <path class="cls-10" d="M525.92 25.1h16.67v21.92h-16.67z" style="clip-path:url(#clip-path-39)"/>
  <path class="cls-2" d="M122.2 321.6v121.3h693.9V321.6ZM152 432c10-19 24-34 35-52-11 18-25 33-35 52Z" transform="translate(-122.2 -150.2)" style="clip-path:url(#clip-path-40)"/>
  <path class="cls-2" d="M614.7 255.8h73.4v10.9h-73.4z" style="clip-path:url(#clip-path-41)"/>
  <path class="cls-2" d="M419.2 233.2h31v10.6h-31z" style="clip-path:url(#clip-path-42)"/>
  <path class="cls-6" d="M478.75 211.29h20.75v43.44h-20.75z" style="clip-path:url(#clip-path-43)"/>
  <path class="cls-6" d="M626.25 229H647v21.93h-20.75z" style="clip-path:url(#clip-path-44)"/>
  <path class="cls-6" d="M458.51 227.05h27v22.76h-27z" style="clip-path:url(#clip-path-45)"/>
  <path class="cls-6" d="M554.01 219.95h27v22.76h-27z" style="clip-path:url(#clip-path-46)"/>
  <path class="cls-6" d="M168.6 174.15h26.99v43.48H168.6z" style="clip-path:url(#clip-path-47)"/>
  <path class="cls-6" d="M255.8 192.09h17.77v43.44H255.8z" style="clip-path:url(#clip-path-48)"/>
  <path class="cls-6" d="M89.9 212.7h20.75v21.93H89.9z" style="clip-path:url(#clip-path-49)"/>
  <path class="cls-6" d="M134.3 190.05h27v22.76h-27z" style="clip-path:url(#clip-path-50)"/>
  <path class="cls-6" d="M190 189.4h20.75v21.93H190z" style="clip-path:url(#clip-path-51)"/>
  <path class="cls-6" d="M223.7 190.1h16.67v17.27H223.7z" style="clip-path:url(#clip-path-52)"/>
  <path class="cls-6" d="M234.9 186.45h26.99v43.48H234.9z" style="clip-path:url(#clip-path-53)"/>
  <path class="cls-6" d="M276 207.47h26.99v31.35H276z" style="clip-path:url(#clip-path-54)"/>
  <path class="cls-6" d="M300.6 219.35h35.97v24.3H300.6z" style="clip-path:url(#clip-path-55)"/>
  <path class="cls-6" d="M614.25 217h20.85v21.93h-20.85z" style="clip-path:url(#clip-path-56)"/>
  <path class="cls-6" d="M444.15 232.1h20.75v21.92h-20.75z" style="clip-path:url(#clip-path-57)"/>
  <path class="cls-6" d="M587.91 208.25h26.99v43.48h-26.99z" style="clip-path:url(#clip-path-58)"/>
  <path class="cls-6" d="M166.2 195.79h20.75v43.44H166.2z" style="clip-path:url(#clip-path-59)"/>
  <path class="cls-6" d="M226.4 203.49h20.85v43.44H226.4z" style="clip-path:url(#clip-path-60)"/>
  <path class="cls-6" d="M134.2 203.59h20.75v43.44H134.2z" style="clip-path:url(#clip-path-61)"/>
  <path class="cls-1" d="M416 610c35.1 3.83 98.53-3 103-3 17.45 0 28.22-20.65 35-34.13 8.54-16.94 20.69-35.9 23.43-54.9 2.91-20.2-6.62-45-25-55-16-8.72-35.8-12.35-53.5-16.28a55.35 55.35 0 0 1-15.31-6.38c-43.4-27.44 59.35-40.21 74-42.12h.64a15.07 15.07 0 0 0 10.21-4.47 22.56 22.56 0 0 0-12.12-3.83c-24.89-1.27-49.14.64-73.39 4.47-22.34 3.19-46 6.38-65.73 17.87a24.74 24.74 0 0 0-12.76 16c-5.11 22.34 24.25 31.91 38.92 40.84C472.19 487.57 429.08 590 334 583c-1.91 0-6.51 27.28-18 26l36-13c39.57 5.11 22.52 7 64 14Z" transform="translate(-122.2 -150.2)"/>
  <path class="cls-66" d="M488.27 413.56c22-9.35 60.83-14.21 69.43-15.33h.64a15.07 15.07 0 0 0 10.21-4.47 22.56 22.56 0 0 0-12.12-3.83c-24.89-1.27-49.14.64-73.39 4.47-14.71 2.1-30 4.22-44.32 8.69 16.69 2 33.14 6.05 49.55 10.47ZM322.05 606.82 316 609a7.73 7.73 0 0 0 6.05-2.18ZM520.89 606.91h-.43ZM528.19 605l-.28.11Z" transform="translate(-122.2 -150.2)"/>
  <path class="cls-66" d="M199.85 456.62z"/>
  <path class="cls-66" d="M523.76 606.47h-.18ZM526.89 605.52l-.42.15ZM525.5 606l-.38.12ZM522.37 606.73l-.44.06ZM316 609a7.73 7.73 0 0 0 6.05-2.18ZM334 583ZM344.52 583.32ZM333.83 583.07h-.06ZM341.72 583.32h-1.63ZM332.9 584.77v.07ZM333.43 583.61l-.06.1ZM332.62 585.5ZM333.64 583.27l-.07.09ZM538.54 597.2l-.42.45ZM541.85 593.3c-.15.2-.3.4-.46.59.16-.19.31-.39.46-.59ZM544.09 590.25c-.3.43-.6.86-.91 1.28.31-.42.61-.85.91-1.28ZM542.78 592.09l-.48.63ZM540.81 594.6q-.27.35-.57.69.3-.35.57-.69ZM547.74 584.54c-.58 1-1.19 2-1.82 3 .63-1.02 1.24-2.01 1.82-3ZM539.56 596.08l-.42.47ZM545.73 587.81l-.54.82ZM544.91 589c-.17.27-.35.53-.53.79.18-.22.36-.48.53-.79ZM532.28 602.66l-.33.21ZM529.77 604.19l-.34.18ZM531.08 603.43l-.41.25ZM533.72 601.61l-.3.24ZM552.49 463c-16-8.72-35.8-12.35-53.5-16.28a55.35 55.35 0 0 1-15.31-6.38c-43.4-27.44 59.35-40.21 74-42.12h.64a15.07 15.07 0 0 0 10.21-4.47 22.56 22.56 0 0 0-12.12-3.83c-24.89-1.27-49.14.64-73.39 4.47-22.34 3.19-46 6.38-65.73 17.87a24.74 24.74 0 0 0-12.76 16c-5.11 22.34 24.25 31.91 38.92 40.84 27.22 17.54-10.1 110.49-95 114.16 15.7 10 35.15 12.9 53.81 12.1 19.55-.83 38.73-5.38 58.06-8.43a381.2 381.2 0 0 1 88.13-3.53c-.2.35-.4.7-.61 1 2.37-4 4.42-8 6.2-11.54 8.54-16.94 20.69-35.9 23.43-54.9 2.89-20.19-6.64-44.96-24.98-54.96ZM537.09 598.69l.3-.3ZM535 600.62l-.41.34ZM536.07 599.65l-.38.33Z" transform="translate(-122.2 -150.2)"/>
  <path class="cls-67" d="M474 583s.61-.65 1.68-1.84" transform="translate(-122.2 -150.2)"/>
  <path d="M482.05 573.69c19.59-24 63.75-87.56.95-107.69 0 0-128.67-53.61 58.63-71.34" transform="translate(-122.2 -150.2)" style="stroke-dasharray:4.9 9.81;stroke:#e3e9f1;stroke-linecap:round;stroke-miterlimit:10;stroke-width:2px;fill:none"/>
  <path class="cls-67" d="M546.51 394.22 549 394" transform="translate(-122.2 -150.2)"/>
  <path d="M557.66 297.65c1.78.58 3.56 1.21 5.34 1.84v-6.14c-1.78-.63-3.55-1.26-5.34-1.84Z" transform="translate(-122.2 -150.2)"/>
  <path class="cls-69" d="M552.32 296.17c1.79.39 3.56.91 5.34 1.48v-6.14c-1.77-.57-3.55-1.09-5.34-1.48Z" transform="translate(-122.2 -150.2)"/>
  <path d="M547 295.36a36.4 36.4 0 0 1 5.35.81v-6.14a36.27 36.27 0 0 0-5.34-.81q-.01 3.06-.01 6.14Z" transform="translate(-122.2 -150.2)"/>
  <path class="cls-69" d="M541.62 295.41a31.86 31.86 0 0 1 5.35-.05v-6.14a31.85 31.85 0 0 0-5.35 0Z" transform="translate(-122.2 -150.2)"/>
  <path d="M536.27 296.29a39.51 39.51 0 0 1 5.35-.88v-6.14a39.65 39.65 0 0 0-5.36.88Z" transform="translate(-122.2 -150.2)"/>
  <path class="cls-69" d="M530.91 297.8a70.3 70.3 0 0 1 5.36-1.51v-6.14c-1.79.42-3.57.94-5.36 1.51Z" transform="translate(-122.2 -150.2)"/>
  <path d="M525.55 299.58c1.79-.59 3.57-1.21 5.36-1.78v-6.14c-1.79.57-3.57 1.19-5.36 1.78Z" transform="translate(-122.2 -150.2)"/>
  <path class="cls-69" d="M520.19 301.22c1.79-.48 3.58-1.05 5.36-1.64v-6.14c-1.78.59-3.56 1.16-5.36 1.64Z" transform="translate(-122.2 -150.2)"/>
  <path d="M514.84 302.32a43.79 43.79 0 0 0 5.35-1.1v-6.14a43.79 43.79 0 0 1-5.35 1.1Z" transform="translate(-122.2 -150.2)"/>
  <path class="cls-69" d="M509.48 302.64a33.19 33.19 0 0 0 5.36-.32v-6.14a33.13 33.13 0 0 1-5.35.32q.02 3.06-.01 6.14Z" transform="translate(-122.2 -150.2)"/>
  <path d="M504.14 302.08a34.43 34.43 0 0 0 5.34.56v-6.14a34.56 34.56 0 0 1-5.35-.56Z" transform="translate(-122.2 -150.2)"/>
  <path class="cls-69" d="M498.79 300.77a49 49 0 0 0 5.35 1.31v-6.14a48.32 48.32 0 0 1-5.34-1.31c.02 2.05.01 4.09-.01 6.14Z" transform="translate(-122.2 -150.2)"/>
  <path d="M493.45 299c1.78.62 3.56 1.23 5.34 1.77v-6.14c-1.79-.54-3.56-1.15-5.34-1.77.03 2.05.02 4.14 0 6.14Z" transform="translate(-122.2 -150.2)"/>
  <path class="cls-69" d="M557.63 303.79c1.78.58 3.56 1.21 5.34 1.84v-6.14c-1.78-.63-3.56-1.26-5.34-1.84Z" transform="translate(-122.2 -150.2)"/>
  <path d="M552.29 302.31c1.78.39 3.56.91 5.34 1.48v-6.14c-1.78-.57-3.55-1.09-5.34-1.48Z" transform="translate(-122.2 -150.2)"/>
  <path class="cls-69" d="M546.94 301.5a36.4 36.4 0 0 1 5.35.81v-6.14a36.4 36.4 0 0 0-5.35-.81Z" transform="translate(-122.2 -150.2)"/>
  <path d="M541.59 301.55a31.86 31.86 0 0 1 5.35-.05v-6.14a31.86 31.86 0 0 0-5.35.05Z" transform="translate(-122.2 -150.2)"/>
  <path class="cls-69" d="M536.23 302.43a39.65 39.65 0 0 1 5.36-.88v-6.14a39.51 39.51 0 0 0-5.35.88c.02 2.05.01 4.09-.01 6.14Z" transform="translate(-122.2 -150.2)"/>
  <path d="M530.88 303.94c1.78-.57 3.56-1.09 5.35-1.51v-6.14a70.3 70.3 0 0 0-5.36 1.51Z" transform="translate(-122.2 -150.2)"/>
  <path class="cls-69" d="M525.52 305.72c1.79-.59 3.57-1.21 5.36-1.78v-6.14c-1.79.57-3.57 1.19-5.36 1.78Z" transform="translate(-122.2 -150.2)"/>
  <path d="M520.16 307.36c1.79-.48 3.57-1.05 5.36-1.64v-6.14c-1.78.59-3.57 1.16-5.36 1.64Z" transform="translate(-122.2 -150.2)"/>
  <path class="cls-69" d="M514.8 308.46a43.94 43.94 0 0 0 5.36-1.1v-6.14a43.79 43.79 0 0 1-5.35 1.1c.02 2.05 0 4.1-.01 6.14Z" transform="translate(-122.2 -150.2)"/>
  <path d="M509.45 308.78a33.13 33.13 0 0 0 5.35-.32v-6.14a33.19 33.19 0 0 1-5.36.32Z" transform="translate(-122.2 -150.2)"/>
  <path class="cls-69" d="M504.1 308.22a34.69 34.69 0 0 0 5.35.56v-6.14a34.43 34.43 0 0 1-5.34-.56c.02 2.05.01 4.09-.01 6.14Z" transform="translate(-122.2 -150.2)"/>
  <path d="M498.76 306.91a49.45 49.45 0 0 0 5.34 1.31v-6.14a49 49 0 0 1-5.35-1.31Z" transform="translate(-122.2 -150.2)"/>
  <path class="cls-69" d="M493.42 305.14c1.78.62 3.56 1.23 5.34 1.77v-6.14c-1.78-.54-3.56-1.15-5.34-1.77Z" transform="translate(-122.2 -150.2)"/>
  <path d="M557.59 309.93c1.79.58 3.56 1.21 5.34 1.84v-6.14c-1.78-.63-3.56-1.26-5.34-1.84Z" transform="translate(-122.2 -150.2)"/>
  <path class="cls-69" d="M552.25 308.45c1.79.39 3.57.91 5.34 1.48v-6.14c-1.78-.57-3.56-1.09-5.34-1.48Z" transform="translate(-122.2 -150.2)"/>
  <path d="M546.91 307.64a36.27 36.27 0 0 1 5.34.81v-6.14a36.4 36.4 0 0 0-5.35-.81Z" transform="translate(-122.2 -150.2)"/>
  <path class="cls-69" d="M541.56 307.69a31.86 31.86 0 0 1 5.35-.05v-6.14a31.86 31.86 0 0 0-5.35.05Z" transform="translate(-122.2 -150.2)"/>
  <path d="M536.2 308.57a39.65 39.65 0 0 1 5.36-.88v-6.14a39.65 39.65 0 0 0-5.36.88Z" transform="translate(-122.2 -150.2)"/>
  <path class="cls-69" d="M530.84 310.08c1.79-.57 3.57-1.09 5.36-1.51v-6.14c-1.79.42-3.57.94-5.35 1.51.02 2.06.01 4.06-.01 6.14Z" transform="translate(-122.2 -150.2)"/>
  <path d="M525.48 311.86c1.79-.59 3.57-1.21 5.36-1.78v-6.14c-1.79.57-3.57 1.19-5.36 1.78q.03 3.07 0 6.14Z" transform="translate(-122.2 -150.2)"/>
  <path class="cls-69" d="M520.13 313.5c1.79-.48 3.57-1.05 5.35-1.64v-6.14c-1.79.59-3.57 1.16-5.36 1.64Z" transform="translate(-122.2 -150.2)"/>
  <path d="M514.77 314.6a43.94 43.94 0 0 0 5.36-1.1v-6.14a43.94 43.94 0 0 1-5.36 1.1Z" transform="translate(-122.2 -150.2)"/>
  <path class="cls-69" d="M509.42 314.92a33.13 33.13 0 0 0 5.35-.32v-6.14a33.13 33.13 0 0 1-5.35.32Z" transform="translate(-122.2 -150.2)"/>
  <path d="M504.07 314.36a34.56 34.56 0 0 0 5.35.56v-6.14a34.69 34.69 0 0 1-5.35-.56Z" transform="translate(-122.2 -150.2)"/>
  <path class="cls-69" d="M498.73 313.05a48.32 48.32 0 0 0 5.34 1.31v-6.14a49.45 49.45 0 0 1-5.34-1.31Z" transform="translate(-122.2 -150.2)"/>
  <path d="M493.39 311.28c1.78.62 3.55 1.23 5.34 1.77v-6.14c-1.78-.54-3.56-1.15-5.34-1.77Z" transform="translate(-122.2 -150.2)"/>
  <path class="cls-69" d="M557.56 316.07c1.79.58 3.56 1.21 5.34 1.84v-6.14c-1.78-.63-3.55-1.26-5.34-1.84Z" transform="translate(-122.2 -150.2)"/>
  <path d="M552.22 314.59c1.79.39 3.57.91 5.34 1.48v-6.14c-1.77-.57-3.55-1.09-5.34-1.48Z" transform="translate(-122.2 -150.2)"/>
  <path class="cls-69" d="M546.87 313.78a36.4 36.4 0 0 1 5.35.81v-6.14a36.27 36.27 0 0 0-5.34-.81c.02 2.04 0 4.09-.01 6.14Z" transform="translate(-122.2 -150.2)"/>
  <path d="M541.52 313.83a31.86 31.86 0 0 1 5.35-.05v-6.14a31.86 31.86 0 0 0-5.35.05c.03 2.04.01 4.09 0 6.14Z" transform="translate(-122.2 -150.2)"/>
  <path class="cls-69" d="M536.17 314.71a39.77 39.77 0 0 1 5.35-.88v-6.14a39.65 39.65 0 0 0-5.36.88Z" transform="translate(-122.2 -150.2)"/>
  <path d="M530.81 316.22a70.3 70.3 0 0 1 5.36-1.51v-6.14c-1.79.42-3.57.94-5.36 1.51Z" transform="translate(-122.2 -150.2)"/>
  <path class="cls-69" d="M525.45 318c1.79-.59 3.57-1.21 5.36-1.78v-6.14c-1.79.57-3.57 1.19-5.36 1.78Z" transform="translate(-122.2 -150.2)"/>
  <path d="M520.09 319.64c1.79-.48 3.58-1.05 5.36-1.64v-6.14c-1.78.59-3.56 1.16-5.35 1.64Z" transform="translate(-122.2 -150.2)"/>
  <path class="cls-69" d="M514.74 320.74a43.79 43.79 0 0 0 5.35-1.1v-6.14a43.94 43.94 0 0 1-5.36 1.1Z" transform="translate(-122.2 -150.2)"/>
  <path d="M509.39 321.06a33.13 33.13 0 0 0 5.35-.32v-6.14a33.13 33.13 0 0 1-5.35.32Z" transform="translate(-122.2 -150.2)"/>
  <path class="cls-69" d="M504 320.5a34.56 34.56 0 0 0 5.35.56v-6.14a34.56 34.56 0 0 1-5.35-.56Z" transform="translate(-122.2 -150.2)"/>
  <path d="M498.7 319.19a48.32 48.32 0 0 0 5.3 1.31v-6.14a48.32 48.32 0 0 1-5.34-1.31Z" transform="translate(-122.2 -150.2)"/>
  <path class="cls-69" d="M493.36 317.42c1.77.62 3.55 1.23 5.34 1.77v-6.14c-1.79-.54-3.56-1.15-5.34-1.77Z" transform="translate(-122.2 -150.2)"/>
  <path d="M557.53 322.21c1.78.58 3.56 1.21 5.34 1.84v-6.14c-1.78-.63-3.55-1.26-5.34-1.84Z" transform="translate(-122.2 -150.2)"/>
  <path class="cls-69" d="M552.19 320.73c1.78.39 3.56.91 5.34 1.48v-6.14c-1.77-.57-3.55-1.09-5.34-1.48Z" transform="translate(-122.2 -150.2)"/>
  <path d="M546.84 319.92a36.4 36.4 0 0 1 5.35.81v-6.14a36.4 36.4 0 0 0-5.35-.81Z" transform="translate(-122.2 -150.2)"/>
  <path class="cls-69" d="M541.49 320a31.86 31.86 0 0 1 5.35-.05v-6.14a31.86 31.86 0 0 0-5.35.05Z" transform="translate(-122.2 -150.2)"/>
  <path d="M536.14 320.85a39.51 39.51 0 0 1 5.35-.88v-6.14a39.77 39.77 0 0 0-5.35.88Z" transform="translate(-122.2 -150.2)"/>
  <path class="cls-69" d="M530.78 322.36c1.78-.57 3.56-1.09 5.36-1.51v-6.14a70.3 70.3 0 0 0-5.36 1.51Z" transform="translate(-122.2 -150.2)"/>
  <path d="M525.42 324.14c1.79-.59 3.57-1.21 5.36-1.78v-6.14c-1.79.57-3.57 1.19-5.36 1.78Z" transform="translate(-122.2 -150.2)"/>
  <path class="cls-69" d="M520.06 325.78c1.79-.48 3.58-1 5.36-1.64V318c-1.78.59-3.57 1.16-5.36 1.64Z" transform="translate(-122.2 -150.2)"/>
  <path d="M514.7 326.88a43.94 43.94 0 0 0 5.36-1.1v-6.14a43.79 43.79 0 0 1-5.35 1.1q.02 3.08-.01 6.14Z" transform="translate(-122.2 -150.2)"/>
  <path class="cls-69" d="M509.35 327.2a33.06 33.06 0 0 0 5.35-.32v-6.14a33.13 33.13 0 0 1-5.35.32q.01 3.06 0 6.14Z" transform="translate(-122.2 -150.2)"/>
  <path d="M504 326.64a34.43 34.43 0 0 0 5.34.56v-6.14a34.56 34.56 0 0 1-5.35-.56Z" transform="translate(-122.2 -150.2)"/>
  <path class="cls-69" d="M498.66 325.33a49 49 0 0 0 5.35 1.31v-6.14a48.32 48.32 0 0 1-5.34-1.31c.02 2.05 0 4.09-.01 6.14Z" transform="translate(-122.2 -150.2)"/>
  <path d="M493.32 323.56c1.78.62 3.56 1.23 5.34 1.77v-6.14c-1.79-.54-3.57-1.15-5.34-1.77.02 2.05.01 4.09 0 6.14Z" transform="translate(-122.2 -150.2)"/>
  <path class="cls-69" d="M557.5 328.35c1.78.58 3.56 1.21 5.34 1.84v-6.14c-1.78-.63-3.56-1.26-5.34-1.84Z" transform="translate(-122.2 -150.2)"/>
  <path d="M552.15 326.87c1.79.39 3.57.91 5.35 1.48v-6.14c-1.78-.57-3.56-1.09-5.34-1.48.02 2.04 0 4.09-.01 6.14Z" transform="translate(-122.2 -150.2)"/>
  <path class="cls-69" d="M546.81 326.06a36.27 36.27 0 0 1 5.34.81v-6.14a36.4 36.4 0 0 0-5.35-.81Z" transform="translate(-122.2 -150.2)"/>
  <path d="M541.46 326.11a31.86 31.86 0 0 1 5.35-.05v-6.14a31.86 31.86 0 0 0-5.35.05Z" transform="translate(-122.2 -150.2)"/>
  <path class="cls-69" d="M536.1 327a39.65 39.65 0 0 1 5.36-.88v-6.14a39.51 39.51 0 0 0-5.35.88Z" transform="translate(-122.2 -150.2)"/>
  <path d="M530.75 328.5c1.78-.57 3.56-1.09 5.35-1.51v-6.14c-1.8.42-3.58.94-5.36 1.51Z" transform="translate(-122.2 -150.2)"/>
  <path class="cls-69" d="M525.39 330.28c1.78-.59 3.57-1.21 5.36-1.78v-6.14c-1.79.57-3.57 1.19-5.36 1.78Z" transform="translate(-122.2 -150.2)"/>
  <path d="M520 331.92c1.79-.48 3.57-1.05 5.36-1.64v-6.14c-1.78.59-3.57 1.16-5.36 1.64Z" transform="translate(-122.2 -150.2)"/>
  <path class="cls-69" d="M514.67 333a43.94 43.94 0 0 0 5.36-1.1v-6.14a43.94 43.94 0 0 1-5.36 1.1Z" transform="translate(-122.2 -150.2)"/>
  <path d="M509.32 333.34a33.13 33.13 0 0 0 5.35-.32v-6.14a33.06 33.06 0 0 1-5.35.32Z" transform="translate(-122.2 -150.2)"/>
  <path class="cls-69" d="M504 332.78a34.69 34.69 0 0 0 5.35.56v-6.14a34.43 34.43 0 0 1-5.34-.56c-.01 2.05-.01 4.09-.01 6.14Z" transform="translate(-122.2 -150.2)"/>
  <path d="M498.63 331.47a49.45 49.45 0 0 0 5.34 1.31v-6.14a49 49 0 0 1-5.35-1.31Z" transform="translate(-122.2 -150.2)"/>
  <path class="cls-69" d="M493.29 329.7c1.78.62 3.55 1.23 5.34 1.77v-6.14c-1.78-.54-3.56-1.15-5.34-1.77Z" transform="translate(-122.2 -150.2)"/>
  <path d="M557.46 334.49c1.79.58 3.56 1.21 5.34 1.84v-6.14c-1.78-.63-3.56-1.26-5.34-1.84q.01 3.07 0 6.14Z" transform="translate(-122.2 -150.2)"/>
  <path class="cls-69" d="M552.12 333c1.79.39 3.57.91 5.34 1.48v-6.14c-1.78-.57-3.56-1.09-5.35-1.48Z" transform="translate(-122.2 -150.2)"/>
  <path d="M546.78 332.2a36.27 36.27 0 0 1 5.34.81v-6.14a36.27 36.27 0 0 0-5.34-.81Z" transform="translate(-122.2 -150.2)"/>
  <path class="cls-69" d="M541.43 332.25a31.85 31.85 0 0 1 5.35-.05v-6.14a31.86 31.86 0 0 0-5.35.05Z" transform="translate(-122.2 -150.2)"/>
  <path d="M536.07 333.13a39.65 39.65 0 0 1 5.36-.88v-6.14a39.65 39.65 0 0 0-5.36.88Z" transform="translate(-122.2 -150.2)"/>
  <path class="cls-69" d="M530.71 334.64a70.3 70.3 0 0 1 5.36-1.51v-6.14c-1.79.42-3.57.94-5.35 1.51Z" transform="translate(-122.2 -150.2)"/>
  <path d="M525.35 336.42c1.79-.59 3.57-1.21 5.36-1.78v-6.14c-1.79.57-3.58 1.19-5.36 1.78Z" transform="translate(-122.2 -150.2)"/>
  <path class="cls-69" d="M520 338.06c1.8-.48 3.58-1.05 5.36-1.64v-6.14c-1.79.59-3.57 1.16-5.36 1.64v6.14Z" transform="translate(-122.2 -150.2)"/>
  <path d="M514.64 339.16a43.79 43.79 0 0 0 5.35-1.1v-6.14a43.94 43.94 0 0 1-5.36 1.1Z" transform="translate(-122.2 -150.2)"/>
  <path class="cls-69" d="M509.29 339.48a33.13 33.13 0 0 0 5.35-.32v-6.14a33.13 33.13 0 0 1-5.35.32Z" transform="translate(-122.2 -150.2)"/>
  <path d="M503.94 338.92a34.56 34.56 0 0 0 5.35.56v-6.14a34.69 34.69 0 0 1-5.35-.56Z" transform="translate(-122.2 -150.2)"/>
  <path class="cls-69" d="M498.6 337.61a48.32 48.32 0 0 0 5.34 1.31v-6.14a49.45 49.45 0 0 1-5.34-1.31Z" transform="translate(-122.2 -150.2)"/>
  <path d="M493.26 335.84c1.78.62 3.55 1.23 5.34 1.77v-6.14c-1.79-.54-3.56-1.15-5.34-1.77Z" transform="translate(-122.2 -150.2)"/>
  <path d="M562.32 292.71c-1.48-.53-3-1.07-4.54-1.56-2-.64-3.75-1.13-5.37-1.49a36.93 36.93 0 0 0-5.38-.81 32.47 32.47 0 0 0-5.4 0 40.26 40.26 0 0 0-5.4.9c-1.59.37-3.3.85-5.37 1.51l-3.51 1.16-1.86.62c-1.56.52-3.42 1.12-5.34 1.63a43.58 43.58 0 0 1-5.32 1.1 31.86 31.86 0 0 1-5.3.31 34 34 0 0 1-5.31-.55 48.44 48.44 0 0 1-5.31-1.3c-1.85-.55-3.72-1.2-5.33-1.77l-.42-.14-.23 43.75.23.09c1.62.56 3.49 1.21 5.36 1.77a51.48 51.48 0 0 0 5.37 1.32 35 35 0 0 0 5.39.56h.51a34 34 0 0 0 4.89-.33 42.82 42.82 0 0 0 5.39-1.11c1.93-.51 3.8-1.12 5.37-1.64l1.87-.62c1.14-.39 2.33-.79 3.49-1.16 2.06-.66 3.75-1.13 5.34-1.5a37.4 37.4 0 0 1 5.31-.88 32.37 32.37 0 0 1 5.3-.05 36 36 0 0 1 5.31.8c1.6.36 3.34.84 5.31 1.48 1.52.49 3 1 4.54 1.56l1.22.42.23-43.76Zm-.22 43c-1.49-.52-3-1.06-4.55-1.56h-.09a54.62 54.62 0 0 0-5.28-1.47h-.06a37.55 37.55 0 0 0-5.32-.81c-.71-.05-1.43-.08-2.14-.08a31.21 31.21 0 0 0-3.21.13 40.76 40.76 0 0 0-5.33.88H536c-1.57.37-3.25.84-5.29 1.49h-.09c-1.16.37-2.35.77-3.49 1.16l-1.77.59h-.1c-1.54.52-3.37 1.1-5.26 1.61h-.08a42.65 42.65 0 0 1-5.28 1.1 31.85 31.85 0 0 1-5.31.31 35.1 35.1 0 0 1-5.3-.56h-.05a49.93 49.93 0 0 1-5.26-1.29h-.08c-1.74-.53-3.49-1.13-5-1.67v-42.2c1.51.53 3.23 1.12 4.93 1.63h.09a47.62 47.62 0 0 0 5.29 1.3h.05a35.58 35.58 0 0 0 5.34.55 33.64 33.64 0 0 0 5.36-.31 42.93 42.93 0 0 0 5.31-1.09h.08c1.89-.5 3.73-1.09 5.28-1.61h.09l1.86-.62c1.12-.38 2.27-.77 3.41-1.13h.09c2-.65 3.71-1.12 5.27-1.49h.07a39.8 39.8 0 0 1 5.28-.88 32.48 32.48 0 0 1 5.31-.05 38.57 38.57 0 0 1 5.29.8h.06c1.58.35 3.3.83 5.25 1.46h.09c1.49.48 3 1 4.44 1.52l.58.2v42.21Z" transform="translate(-122.2 -150.2)"/>
  <path d="m366.63 216.63 1.85-.53-.16 30.49-1.84-.01.15-29.95z"/>
  <path d="m368.87 139.77-.01 1.13-.4 76.15-1.85.53.41-76.67.01-1.16 1.84.02z"/>
  <path d="M488.05 288.94a2.11 2.11 0 1 0 2.1-2.38 2.25 2.25 0 0 0-2.1 2.38Z" transform="translate(-122.2 -150.2)"/>
  <path d="m442.93 215.76 1.85-.54-.16 30.5-1.85-.02.16-29.94z"/>
  <path d="m445.17 138.89-.01 1.14-.41 76.14-1.85.54.42-76.68v-1.15l1.85.01z"/>
  <path d="M564.34 288.06a2.28 2.28 0 0 0 2.08 2.42 2.42 2.42 0 1 0-2.08-2.42Z" transform="translate(-122.2 -150.2)"/>
</svg>
