<svg width="500" height="330" viewBox="0 0 500 330" fill="none" xmlns="http://www.w3.org/2000/svg">
<g clip-path="url(#clip0_338_2458)">
<path d="M46.7519 178.333C38.9211 180.879 32.2203 166.025 23.9793 166.025C1.66727 166.025 5.40993 187.843 5.02127 196.065C4.57503 205.646 14.9105 211.459 22.6118 217.192C35.0777 226.572 43.1748 240.628 45.0389 256.109C45.5931 260.935 45.6003 266.079 48.1986 270.179C51.6246 275.596 58.4693 277.567 64.7527 278.897C79.6513 282.07 94.7803 284.062 109.996 284.846C117.999 285.256 126.262 285.393 133.574 288.666C142.686 292.745 149.07 301.132 157.268 306.83C168.835 314.872 183.539 317.203 197.617 316.598C211.695 315.994 225.493 312.728 239.405 310.534C271.124 305.542 303.477 306.153 334.987 312.34C347.64 314.829 360.833 318.195 373.177 314.498C401.067 306.146 408.084 268.604 432.051 252.08C438.529 247.627 446.122 244.8 451.844 239.441C458.38 233.32 461.784 224.522 467.916 217.998C472.738 212.862 479.123 209.279 483.491 203.74C488.717 197.122 492.999 188.094 493.899 179.671C495.13 168.161 484.801 163.845 475.265 162.407C461.165 160.306 445.755 166.723 431.361 177.297C402.448 198.518 361.956 197.482 326.091 198.115C286.879 198.834 249.885 177.973 210.666 177.362C198.43 177.182 186.281 178.973 174.06 179.261C133.179 180.21 92.0093 164.299 52.0924 173.218" fill="#E3E9F1"/>
<path d="M304.607 61.7198C250.266 61.7198 208.233 96.4067 208.233 139.201C208.233 181.994 402.996 181.994 402.996 139.201C402.996 96.4067 358.947 61.7198 304.607 61.7198V61.7198Z" fill="#FFE2DB"/>
<path d="M457.624 163.435H472.235C472.638 163.45 473.041 163.349 473.386 163.148H459.711C459.035 163.356 458.329 163.45 457.624 163.435Z" fill="#F1F5FB"/>
<path d="M480.584 148.617H466.261V149.192H465.47V148.617H466.261V137.395C466.261 132.626 462.396 128.763 457.625 128.763H447.188V114.016C447.188 109.247 443.323 105.384 438.551 105.384H423.581V71.4886C423.581 69.6255 422.062 68.1148 420.198 68.122H418.039V52.3684C419.874 52.3108 421.335 50.8218 421.349 48.9874V16.7464C421.349 14.8833 419.831 13.3726 417.967 13.3798H410.611C408.747 13.3798 407.235 14.8976 407.243 16.7607V26.6877H402.996C402.73 26.6733 402.463 26.7021 402.204 26.7596V19.4799C402.204 17.6168 400.686 16.1061 398.822 16.1133H391.466C389.602 16.1133 388.09 17.6312 388.097 19.4943V39.0605H385.722C385.456 39.0461 385.19 39.0748 384.931 39.1324V19.7676C384.931 17.9045 383.412 16.3939 381.548 16.4011H380.756C378.914 16.4298 377.431 17.9405 377.445 19.782V23.4507H375.574V3.36653C375.574 1.50343 374.055 -0.00719839 372.191 -4.9329e-06H364.835C362.971 -4.9329e-06 361.46 1.51781 361.467 3.38092V57.4757C359.747 57.6196 358.43 59.0583 358.444 60.7847V105.384H341.89C337.118 105.384 333.253 109.247 333.253 114.016V128.763H331.526V128.619C331.526 125.835 329.273 123.584 326.487 123.584H300.145C300.512 122.871 300.706 122.08 300.721 121.282V109.341C300.721 106.557 298.468 104.305 295.683 104.305H265.669V100.924C265.669 98.1403 263.416 95.8888 260.631 95.8888H250.267V67.7623C250.267 66.1726 248.978 64.885 247.388 64.885H246.38V46.3259C246.38 43.542 244.127 41.2904 241.342 41.2904H235.8C235.361 41.2689 234.922 41.3192 234.504 41.4343V26.2561C234.504 24.6664 233.216 23.3787 231.625 23.3787H224.068C222.478 23.3787 221.189 24.6664 221.189 26.2561V37.1182C219.663 37.7728 218.677 39.2691 218.67 40.9308V81.4299L212.912 81.5738V52.0087C212.912 49.6636 211.012 47.7717 208.666 47.7645C208.277 47.743 207.888 47.7933 207.514 47.9084V47.1891C207.514 46.2251 207.183 45.2828 206.578 44.5275C205.125 42.7291 202.49 42.4414 200.677 43.8801V40.7869C200.662 39.5424 200.115 38.3627 199.165 37.5498C198.215 36.5356 196.884 35.9673 195.494 35.9673H190.384C187.599 35.9673 185.346 38.2188 185.346 41.0027V46.182C185.116 46.7071 184.993 47.2682 184.986 47.8365V49.9226C184.367 49.5773 183.676 49.4046 182.971 49.419C182.345 49.419 181.733 49.5701 181.172 49.8506V47.6063C181.172 45.2612 179.264 43.3621 176.918 43.3693C174.571 43.3693 172.671 45.2756 172.679 47.6207V51.0735H170.375C167.59 51.0735 165.337 53.3251 165.337 56.109C165.272 56.3679 165.251 56.6341 165.265 56.9002V83.7318C163.372 84.0339 161.926 85.5662 161.738 87.4724C161.551 87.4149 161.357 87.3861 161.163 87.4005H157.348C157.082 87.3861 156.815 87.4077 156.556 87.4724V71.8626C156.556 69.5176 154.656 67.6257 152.31 67.6185H152.238V59.5618C152.245 57.6915 151.014 56.0442 149.215 55.5335V51.9943C149.215 49.6492 147.308 47.7502 144.961 47.7573C142.615 47.7573 140.715 49.6636 140.722 52.0087V60.497C138.426 60.5617 136.605 62.4464 136.619 64.7411V95.8888H134.244C131.459 95.8888 129.206 98.1403 129.206 100.924V104.305H96.098C93.3126 104.305 91.0598 106.557 91.0598 109.341V121.282C91.0742 122.08 91.2685 122.871 91.6356 123.584H66.3007C63.5153 123.584 61.2625 125.835 61.2625 128.619V132.144H57.3039C52.532 132.144 48.667 136.007 48.667 140.776V154.803C48.667 159.572 52.532 163.435 57.3039 163.435H90.8439C95.6158 163.435 99.4808 159.572 99.4808 154.803V145.596H192.471V170.773H325.264V163.507H457.696C458.402 163.486 459.1 163.385 459.784 163.219H480.584C483.37 163.219 485.622 160.968 485.622 158.184V153.58C485.622 153.516 485.622 153.444 485.622 153.379C485.543 150.674 483.291 148.545 480.584 148.617V148.617Z" fill="#F1F5FB"/>
<path d="M466.333 148.545H465.541V149.12H466.333V148.545Z" fill="#F1F5FB"/>
<path d="M466.333 148.545H465.541V149.12H466.333V148.545Z" fill="#F1F5FB"/>
<path d="M448.123 129.195C447.836 128.986 447.519 128.813 447.188 128.691C446.54 128.619 441.646 129.195 440.422 129.267C436.895 129.554 432.217 129.411 428.69 129.339C425.164 129.267 421.277 129.195 417.75 129.195C409.977 129.267 403.284 128.979 395.51 128.979C380.324 128.979 364.921 129.051 349.879 129.195C347.935 129.195 346.064 129.267 344.121 129.267C342.753 129.339 341.386 129.339 340.018 129.267C339.507 129.209 339.003 129.108 338.507 128.979L337.499 128.619C337.355 128.547 336.779 128.907 336.707 128.907C338.485 129.482 340.32 129.842 342.177 129.986C342.753 130.058 334.908 133.367 335.628 133.439C336.491 133.511 345.56 130.274 345.632 130.274H351.822C352.686 130.274 348.943 131.712 349.879 131.712C350.454 131.712 353.621 130.49 354.989 130.274C355.565 130.13 380.18 131.065 392.487 131.065C392.559 131.065 392.991 133.439 393.711 133.727C394.287 134.014 395.078 131.209 395.582 131.209C403.787 131.497 412.064 130.993 420.269 131.497C420.413 131.497 427.251 134.806 427.611 134.806C428.115 134.806 423.652 130.705 423.724 130.705C431.886 130.777 440.034 130.274 448.123 129.195V129.195Z" fill="#F9FBFF"/>
<path d="M445.461 115.311C442.078 117.829 401.628 116.318 384.283 115.599C375.286 115.239 366.361 115.239 357.364 115.311C352.758 115.311 350.095 115.527 345.488 115.527C341.098 115.455 340.306 113.009 339.011 113.729C338.867 113.8 338.723 113.872 338.723 114.088C338.507 114.304 339.515 115.527 340.81 116.966C341.242 117.397 334.117 122.72 334.692 123.08C335.556 123.655 342.753 118.404 344.049 118.404C345.704 118.404 347.36 118.476 349.015 118.476C349.447 118.476 346.496 120.634 346.928 120.706C347.36 120.778 350.599 118.476 351.03 118.476C362.546 118.476 378.669 116.462 390.184 118.692C390.616 118.764 390.328 122.864 390.688 123.008C391.048 123.152 392.632 118.692 393.063 118.692C401.988 118.692 416.455 120.778 424.012 120.562C424.156 120.562 427.323 123.152 428.619 124.087C428.698 124.166 428.799 124.209 428.907 124.231C429.338 124.231 426.747 120.634 426.891 120.634C428.907 120.706 446.972 117.253 447.62 116.606C447.62 116.606 445.749 115.095 445.461 115.311Z" fill="#F9FBFF"/>
<path d="M465.541 144.589C457.624 146.531 449.131 146.099 440.854 146.099H434.305C432.145 146.099 429.986 146.099 427.755 146.027C425.524 145.956 423.436 145.956 421.205 145.884L414.656 145.668C413.936 145.668 413.288 145.596 412.568 145.596C402.852 145.164 393.135 144.517 383.419 144.948C376.005 145.236 368.664 146.171 361.323 146.459C355.781 146.675 349.879 147.035 344.481 145.956C342.343 145.452 340.299 144.596 338.435 143.438C338.435 143.438 337.643 143.869 337.787 144.013C338.442 145.042 339.162 146.027 339.946 146.963C340.018 146.963 339.515 147.538 339.443 147.538C338.939 148.042 338.435 148.473 337.931 148.977C337.283 149.624 336.564 150.2 335.916 150.847C335.268 151.494 334.548 152.142 333.829 152.789C333.267 153.307 332.735 153.861 332.245 154.444C332.101 154.588 331.957 154.803 331.813 154.947C331.669 155.091 331.525 155.307 331.525 155.523C331.799 155.451 332.051 155.3 332.245 155.091C333.829 154.084 335.268 153.005 336.779 151.926C338.075 150.991 339.227 149.912 340.594 149.049C341.53 148.473 343.113 147.61 343.761 147.682C344.121 147.754 345.848 147.97 347.36 148.114C347.72 148.185 343.977 151.638 344.265 151.71C344.553 151.782 348.871 148.329 349.087 148.329C350.714 148.531 352.348 148.624 353.981 148.617C357.724 148.761 361.467 148.617 365.209 148.401C372.767 147.97 380.324 147.178 387.881 147.106C391.552 147.106 396.23 147.61 399.901 147.61C400.261 147.61 399.685 156.098 400.189 156.242C400.693 156.386 402.204 147.754 402.348 147.754C405.587 147.754 412.784 148.617 416.023 148.761C423.796 149.121 432.721 148.977 440.494 148.761C440.998 148.761 446.324 154.3 446.756 154.3C447.62 154.3 442.869 148.689 443.301 148.689C447.836 148.401 455.105 148.761 459.639 147.97C462.95 147.25 463.67 146.531 466.261 145.308C466.405 145.164 465.613 144.589 465.541 144.589V144.589Z" fill="#F9FBFF"/>
<path d="M299.929 124.879C298.993 124.807 291.508 125.526 289.637 125.67C284.167 126.03 277.257 125.814 271.787 125.742C266.461 125.67 260.631 125.526 255.233 125.526C243.501 125.526 233.353 125.166 221.549 125.166C198.517 125.166 175.198 125.31 152.31 125.454C149.431 125.454 146.48 125.526 143.601 125.526C141.586 125.526 139.354 125.67 137.339 125.526C136.591 125.447 135.842 125.325 135.108 125.166C134.748 125.094 133.956 124.807 133.596 124.735C133.179 124.857 132.776 125.001 132.373 125.166C135.072 125.929 137.85 126.411 140.65 126.605C141.586 126.677 129.566 131.209 130.718 131.281C132.013 131.353 145.76 127.037 145.904 127.037H155.261C156.484 127.037 150.798 128.979 152.238 128.979C153.101 128.979 157.924 127.324 160.011 127.037C160.947 126.893 198.229 128.116 216.871 128.116C217.015 128.116 217.662 131.209 218.742 131.641C219.678 131.928 220.829 128.188 221.621 128.188C234.072 128.619 246.668 127.9 259.12 128.619C259.335 128.619 269.7 133.079 270.204 133.079C270.995 133.079 264.302 127.612 264.374 127.612C276.732 127.691 289.09 127.015 301.368 125.598C300.944 125.26 300.454 125.015 299.929 124.879V124.879Z" fill="#F9FBFF"/>
<path d="M302.591 147.609C302.591 147.609 299.065 146.099 298.561 146.315C292.299 148.832 216.15 147.322 183.618 146.602C166.776 146.243 149.862 146.243 133.02 146.315C124.455 146.315 119.345 146.53 110.78 146.53C102.503 146.458 101.064 144.013 98.5444 144.732C98.2853 144.811 98.0406 144.926 97.8247 145.092C97.3928 145.307 99.2642 146.53 101.711 147.969C102.503 148.401 89.1878 153.724 90.2674 154.083C91.8508 154.659 105.31 149.408 107.757 149.408C110.924 149.408 114.019 149.48 117.114 149.48C117.906 149.48 112.292 151.638 113.155 151.71C114.019 151.782 120.137 149.48 120.928 149.48C142.593 149.48 172.822 147.466 194.486 149.695C195.206 149.767 194.558 153.868 195.422 154.012C196.141 154.155 199.164 149.695 199.884 149.695C216.654 149.695 243.86 151.782 258.111 151.566C258.399 151.566 264.301 154.155 266.748 155.091C266.928 155.17 267.122 155.22 267.324 155.234C268.188 155.234 263.293 151.638 263.581 151.638C267.396 151.71 301.368 148.257 302.591 147.609V147.609Z" fill="#F9FBFF"/>
<path d="M265.957 106.319C265.619 106.01 265.23 105.772 264.805 105.6C264.086 105.456 258.04 106.247 256.456 106.391C251.994 106.751 246.236 106.535 241.845 106.463C237.455 106.391 232.705 106.247 228.314 106.247C218.67 106.247 210.393 105.887 200.748 105.887C181.963 105.887 162.89 105.959 144.176 106.175C141.801 106.175 139.426 106.247 137.051 106.247C135.324 106.319 133.668 106.319 131.941 106.247C131.365 106.175 130.717 106.031 130.07 105.959C129.782 105.815 129.134 105.6 128.846 105.456C128.702 105.384 127.91 105.887 127.838 105.887C130.019 106.671 132.294 107.175 134.604 107.398C135.324 107.47 125.463 112.146 126.471 112.218C127.478 112.29 138.706 107.758 138.85 107.758H146.48C147.559 107.758 142.881 109.772 144.033 109.772C144.752 109.772 148.639 108.117 150.366 107.758C151.158 107.614 181.603 108.909 196.862 108.909C197.006 108.909 197.509 112.146 198.445 112.577C199.237 112.865 200.172 108.981 200.82 108.981C211.041 109.412 221.261 108.693 231.481 109.412C231.625 109.412 240.118 114.088 240.55 114.088C241.126 114.088 235.656 108.405 235.728 108.405C245.847 108.52 255.952 107.822 265.957 106.319V106.319Z" fill="#F9FBFF"/>
<path d="M371.04 7.98447V8.0564C370.968 8.2722 370.968 8.48801 370.896 8.70381C370.881 9.09226 370.838 9.47351 370.752 9.85476C370.593 11.1208 370.55 12.3941 370.608 13.6673C370.673 14.2212 370.622 14.7823 370.464 15.3218C370.457 15.3793 370.428 15.4297 370.392 15.4657H370.32C369.816 15.2499 369.096 14.8182 369.096 15.9692L368.88 44.4553V50.4978C368.88 51.6487 368.377 51.4329 367.657 51.5049C367.578 51.4977 367.498 51.5193 367.441 51.5768C367.383 51.6847 367.355 51.8142 367.369 51.9365C367.398 52.8932 367.563 53.8356 367.873 54.7419C368.089 55.5332 368.449 56.1806 368.736 56.9719C369.6 59.5615 369.024 64.597 369.024 67.5463C369.024 69.4166 368.88 71.2149 368.88 73.0852C368.931 74.4808 369.046 75.8763 369.24 77.2574C369.355 77.1424 369.636 76.7683 369.622 76.4734C369.73 76.7323 369.823 76.9913 369.888 77.2574C370.464 74.2362 370.176 71.143 370.176 68.0498C370.176 65.2444 370.392 62.4389 370.464 59.6335C370.464 59.1012 370.536 58.5688 370.68 58.0509C370.867 57.6121 370.989 57.1517 371.04 56.6842C370.968 56.3964 370.896 56.1806 370.824 55.8929C370.248 54.0226 370.608 51.5049 370.608 49.4907L370.68 45.6782L370.752 41.2902L370.824 36.5425L370.896 31.6509L370.968 26.7594L371.04 22.0836L371.112 17.8395C371.184 16.5447 371.184 15.2499 371.256 13.955C371.327 12.948 371.327 11.8689 371.327 10.8618V9.35122C371.327 8.91242 371.256 8.47362 371.112 8.0564C371.112 8.01324 371.083 7.98447 371.04 7.98447V7.98447Z" fill="#F9FBFF"/>
<path d="M383.059 25.681C383.224 24.5372 383.253 23.3791 383.131 22.2281C383.131 22.0771 383.051 21.9404 382.915 21.8684C382.195 21.4368 382.267 25.1055 382.195 25.7529C381.187 49.4194 381.907 73.2297 382.411 96.8962C382.404 97.558 382.497 98.2126 382.699 98.8384C383.85 93.5153 383.85 87.185 383.922 81.5741C383.994 75.5316 383.85 69.4172 383.706 63.3747L383.059 25.681V25.681Z" fill="#F9FBFF"/>
<path d="M398.101 22.5155V22.5874C398.101 22.8032 398.029 23.091 398.029 23.3068C397.957 23.7384 397.957 24.0981 397.885 24.5297C397.727 25.8677 397.684 27.2128 397.742 28.558C397.828 29.1335 397.799 29.7162 397.67 30.2844C397.662 30.342 397.634 30.3923 397.598 30.4283H397.526C397.166 30.2844 396.59 29.7809 396.59 31.0038C396.446 41.0027 396.446 51.0016 396.374 61.0005V67.3307C396.374 68.5536 396.014 68.3378 395.438 68.4097C395.366 68.4817 395.294 68.4817 395.294 68.5536C395.237 68.6615 395.208 68.791 395.222 68.9133C395.23 69.906 395.352 70.8987 395.582 71.8626C395.755 72.6683 395.971 73.4596 396.23 74.2364C396.878 77.0419 396.446 82.2931 396.446 85.3863C396.446 87.3285 396.302 89.2708 396.302 91.213C396.302 91.3569 396.446 95.4571 396.59 95.601C396.849 95.2485 396.935 94.7953 396.806 94.3781C396.935 94.7306 397.029 95.0903 397.094 95.4571C397.526 92.292 397.31 88.983 397.31 85.746C397.31 82.7967 397.454 79.8473 397.526 76.898C397.54 76.3441 397.583 75.7902 397.67 75.2435C397.835 74.7832 397.929 74.294 397.957 73.8048C397.943 73.5099 397.9 73.2222 397.814 72.9416C397.382 70.9275 397.67 68.3378 397.67 66.1798L397.742 62.1514L397.814 57.5476L397.885 52.5841L397.957 47.4049L398.029 42.2256L398.101 37.334L398.173 32.8741C398.173 31.5073 398.245 30.1406 398.245 28.7738C398.317 27.6948 398.317 26.6158 398.317 25.5368V23.9542C398.339 23.4938 398.296 23.0334 398.173 22.5874C398.173 22.5443 398.145 22.5155 398.101 22.5155V22.5155Z" fill="#F9FBFF"/>
<path d="M406.234 41.0749C406.285 40.2333 406.256 39.3917 406.162 38.5572C406.141 38.4493 406.098 38.3486 406.019 38.2695C405.443 37.9098 405.515 40.6433 405.443 41.1469C404.651 58.6989 405.227 76.3229 405.659 93.8749C405.659 94.3641 405.731 94.846 405.875 95.3136C406.81 91.3572 406.81 86.6815 406.882 82.5093C406.954 77.9774 406.81 73.5174 406.738 68.9856L406.234 41.0749V41.0749Z" fill="#F9FBFF"/>
<path d="M397.31 17.7681C396.086 17.4804 394.82 17.4084 393.567 17.5523C392.912 17.6242 392.25 17.5523 391.624 17.3365C391.077 17.0847 390.444 17.0847 389.896 17.3365C389.529 17.6602 389.342 18.1422 389.393 18.6313C389.105 22.3719 389.753 26.1845 389.824 29.925C389.911 31.8673 389.882 33.8095 389.753 35.7518C389.688 35.9891 389.666 36.2265 389.681 36.4711C389.681 36.4711 389.824 37.2624 390.184 35.6079C390.4 34.3706 390.472 33.1189 390.4 31.8673C390.472 29.7092 390.544 27.6231 390.616 25.4651C390.688 23.8106 390.76 22.0842 390.976 20.4297C391.048 19.9261 390.976 18.991 391.552 18.7033C391.689 18.6457 391.833 18.6169 391.984 18.6313C393.279 18.6313 394.582 18.7033 395.87 18.8471C396.417 18.9047 396.972 18.9263 397.526 18.9191C398.058 18.8327 398.591 18.7105 399.109 18.5594C398.893 18.1278 397.886 17.912 397.31 17.7681V17.7681Z" fill="#F9FBFF"/>
<path d="M412.137 15.1065C411.554 15.1281 410.978 15.085 410.409 14.9627C409.913 14.8188 409.394 14.8188 408.898 14.9627C408.603 15.1209 408.415 15.4231 408.394 15.7539C408.178 18.0559 408.754 20.4297 408.826 22.8035C408.876 24.0264 408.847 25.2493 408.754 26.4722C408.696 26.6089 408.667 26.7527 408.682 26.9038C408.682 26.9038 408.754 27.4073 409.114 26.4003C409.25 25.6378 409.322 24.8681 409.33 24.0984C409.402 22.8035 409.402 21.4368 409.545 20.142C409.596 19.0773 409.711 18.0199 409.905 16.9768C409.977 16.6891 409.905 16.0417 410.409 15.8978C410.553 15.8978 410.697 15.8259 410.841 15.8259C411.993 15.8043 413.151 15.8475 414.296 15.9698C414.8 16.0273 415.303 16.0561 415.807 16.0417C416.311 15.9698 416.743 15.8978 417.175 15.8259C416.707 15.4446 416.124 15.2432 415.519 15.2504C414.397 15.0922 413.267 15.0418 412.137 15.1065V15.1065Z" fill="#F9FBFF"/>
<path d="M370.896 1.65449C369.672 1.36675 368.405 1.29482 367.153 1.43869C366.498 1.51062 365.836 1.43869 365.21 1.22289C364.663 0.971115 364.029 0.971115 363.482 1.22289C363.115 1.54659 362.928 2.02855 362.979 2.51771C362.691 6.2583 363.338 10.0708 363.41 13.8114C363.497 15.7537 363.468 17.6959 363.338 19.6381C363.274 19.8755 363.252 20.1129 363.266 20.3575C363.266 20.3575 363.41 21.1488 363.77 19.4943C363.986 18.257 364.058 17.0053 363.986 15.7537C364.058 13.5956 364.13 11.5095 364.202 9.35149C364.274 7.697 364.346 5.97057 364.562 4.31607C364.634 3.81253 364.562 2.87738 365.138 2.58964C365.275 2.53209 365.419 2.50332 365.57 2.51771C366.865 2.51771 368.168 2.58964 369.456 2.73351C370.003 2.79106 370.558 2.81264 371.112 2.80545C371.644 2.71912 372.177 2.59684 372.695 2.44577C372.479 2.0861 371.4 1.79836 370.896 1.65449V1.65449Z" fill="#F9FBFF"/>
<path d="M415.592 71.2871C414.944 71.2152 414.512 71.431 414.512 70.2081V63.8779L414.296 33.8812C414.296 32.6583 413.648 33.1618 413.217 33.3057H413.145C413.109 33.2697 413.08 33.2194 413.073 33.1618C412.95 32.5935 412.907 32.0181 412.929 31.4354C412.986 30.0902 412.943 28.745 412.785 27.4071C412.713 26.9754 412.713 26.6158 412.641 26.1842C412.626 25.9396 412.576 25.695 412.497 25.4648V25.3929C412.454 25.3929 412.425 25.4217 412.425 25.4648C412.281 25.9036 412.209 26.3712 412.209 26.8316V28.4141C412.209 29.4932 412.209 30.5722 412.281 31.6512C412.353 33.0179 412.353 34.3847 412.425 35.7515L412.497 40.2114L412.569 45.103L412.641 50.2822L412.713 55.4615L412.785 60.425L412.857 65.0288L412.929 69.0572C412.929 71.2152 413.289 73.8048 412.713 75.819C412.626 76.0996 412.583 76.3873 412.569 76.6822C412.619 77.1786 412.742 77.6605 412.929 78.1209C413.051 78.6604 413.094 79.2215 413.073 79.7754C413.145 82.7247 413.289 85.674 413.361 88.6234C413.361 91.8604 413.145 95.1694 413.648 98.3345C413.706 98.0899 413.785 97.8526 413.872 97.6152C413.85 97.982 414.116 98.3705 414.224 98.4784C414.368 98.3345 414.584 94.2343 414.584 94.0904C414.584 92.1482 414.44 90.2059 414.44 88.2637C414.44 85.1705 413.936 79.9193 414.656 77.1138C414.872 76.3225 415.232 75.5313 415.448 74.74C415.736 73.7833 415.88 72.7906 415.88 71.7907C415.894 71.6684 415.865 71.5389 415.808 71.431C415.736 71.3591 415.664 71.2871 415.592 71.2871Z" fill="#F9FBFF"/>
<path d="M244.22 45.103C244.271 44.6138 244.084 44.1319 243.717 43.8082C243.17 43.5564 242.536 43.5564 241.989 43.8082C241.363 44.024 240.701 44.0959 240.046 44.024C238.794 43.8801 237.527 43.952 236.303 44.2398C235.727 44.3836 234.72 44.6714 234.504 45.031C235.022 45.1821 235.555 45.3044 236.087 45.3907C236.642 45.3979 237.196 45.3763 237.743 45.3188C239.031 45.1749 240.334 45.103 241.629 45.103C241.78 45.0886 241.924 45.1174 242.061 45.1749C242.637 45.4626 242.565 46.3978 242.637 46.9013C242.853 48.5558 242.925 50.2823 242.997 51.9368C243.069 54.0948 243.141 56.1809 243.213 58.3389C243.141 59.5906 243.213 60.8423 243.429 62.0795C243.789 63.734 243.933 62.9427 243.933 62.9427C243.947 62.6982 243.925 62.4608 243.861 62.2234C243.731 60.2812 243.702 58.3389 243.789 56.3967C243.861 52.6561 244.508 48.8436 244.22 45.103V45.103Z" fill="#F9FBFF"/>
<path d="M233.28 25.6803C233.28 25.1984 233.108 24.738 232.777 24.3855C232.273 24.0259 231.769 24.2417 231.193 24.3855C230.617 24.6013 230.006 24.6733 229.394 24.6013C228.192 24.4575 226.968 24.5294 225.795 24.8171C225.119 24.925 224.478 25.1984 223.924 25.6084C224.42 25.7595 224.924 25.8818 225.435 25.9681C225.961 26.0184 226.493 25.9897 227.019 25.8961C228.264 25.7523 229.509 25.6803 230.761 25.6803C230.913 25.666 231.056 25.6947 231.193 25.7523C231.769 26.04 231.697 26.9752 231.769 27.4787C231.985 29.1332 232.057 30.8596 232.129 32.5141C232.201 34.6722 232.273 36.7583 232.345 38.9163C232.345 40.168 232.417 41.4124 232.561 42.6569C232.921 44.3114 232.993 43.5201 232.993 43.5201C233.007 43.2755 232.985 43.0382 232.921 42.8008C232.791 40.8585 232.762 38.9163 232.849 36.9741C232.921 33.2335 233.496 29.4209 233.28 25.6803V25.6803Z" fill="#F9FBFF"/>
<path d="M198.661 38.9882C198.661 38.5063 198.489 38.0459 198.158 37.6934C197.654 37.3337 197.15 37.5495 196.574 37.6934C195.998 37.9092 195.387 37.9812 194.775 37.9092C193.573 37.7653 192.349 37.8373 191.176 38.125C190.507 38.2545 189.866 38.5279 189.305 38.9163C189.801 39.0674 190.305 39.1897 190.816 39.276C191.342 39.2904 191.874 39.2616 192.4 39.204C193.645 39.0602 194.89 38.9882 196.142 38.9882C196.293 38.9738 196.437 39.0026 196.574 39.0602C197.15 39.3479 197.078 40.2831 197.15 40.7866C197.366 42.4411 197.438 44.1675 197.51 45.822C197.582 47.9801 197.654 50.0662 197.726 52.2242C197.69 53.4759 197.762 54.7275 197.942 55.9648C198.301 57.6193 198.373 56.828 198.373 56.828C198.388 56.5834 198.366 56.346 198.301 56.1087C198.172 54.1664 198.143 52.2242 198.229 50.282C198.301 46.5414 198.877 42.7288 198.661 38.9882V38.9882Z" fill="#F9FBFF"/>
<path d="M247.819 66.6111C247.121 66.6399 246.437 66.8125 245.804 67.1147L243.357 68.1937C243.285 68.1937 243.141 68.3375 242.925 68.4095C242.349 68.6253 241.802 68.8914 241.27 69.2008C241.608 69.1864 241.946 69.1432 242.277 69.0569C243.429 68.8411 244.652 68.5533 245.804 68.2656C247.603 67.9059 247.531 74.0204 247.963 74.7397C248.395 75.4591 248.539 75.0994 248.539 75.0994C248.539 75.0994 247.891 73.2291 248.899 68.6972C249.043 68.2296 249.043 67.7261 248.899 67.2585C248.827 66.9708 248.611 66.6111 247.819 66.6111V66.6111Z" fill="#F9FBFF"/>
<path d="M210.465 49.491C209.896 49.5054 209.349 49.678 208.882 49.9945L207.01 51.0735C206.938 51.0735 206.794 51.2174 206.65 51.2893C206.218 51.5771 205.859 51.7929 205.427 52.0806C205.693 52.0806 205.967 52.0231 206.218 51.9367C207.154 51.7209 208.09 51.4332 208.953 51.1455C210.321 50.7858 210.249 56.9002 210.609 57.6196C210.969 58.3389 211.041 57.9792 211.041 57.9792C211.041 57.9792 210.537 56.1089 211.329 51.5771C211.473 51.1095 211.473 50.6059 211.329 50.1384C211.213 49.7571 210.861 49.491 210.465 49.491V49.491Z" fill="#F9FBFF"/>
<path d="M150.295 57.6193C149.841 57.6481 149.41 57.8207 149.071 58.1228L147.632 59.2019C147.56 59.2019 147.488 59.3457 147.344 59.4177C147.013 59.655 146.696 59.9212 146.408 60.2089C146.61 60.1945 146.804 60.1442 146.984 60.0651C147.704 59.8493 148.352 59.5615 149.071 59.2738C150.151 58.9141 150.079 65.0286 150.367 65.7479C150.655 66.4672 150.727 66.1076 150.727 66.1076C150.727 66.1076 150.367 64.2373 150.943 59.7054C151.015 59.2306 151.015 58.7415 150.943 58.2667C150.943 57.907 150.655 57.6193 150.295 57.6193V57.6193Z" fill="#F9FBFF"/>
<path d="M153.821 70.2801C153.368 70.3088 152.936 70.4815 152.598 70.7836L151.158 71.8626C151.086 71.8626 151.014 72.0065 150.87 72.0784C150.582 72.3662 150.222 72.582 149.935 72.8697C150.136 72.8553 150.33 72.805 150.51 72.7258C151.23 72.51 151.878 72.2223 152.598 71.9346C153.677 71.5749 153.605 77.6893 153.893 78.4087C154.181 79.128 154.253 78.7683 154.253 78.7683C154.253 78.7683 153.893 76.898 154.469 72.3662C154.541 71.8914 154.541 71.4022 154.469 70.9275C154.469 70.5678 154.181 70.2801 153.821 70.2801V70.2801Z" fill="#F9FBFF"/>
<path d="M171.31 52.3683C170.857 52.3971 170.425 52.5698 170.087 52.8719L168.647 53.9509C168.575 53.9509 168.503 54.0948 168.359 54.1667C168.072 54.3825 167.784 54.6703 167.424 54.958C167.625 54.9436 167.82 54.8932 168 54.8141C168.719 54.5983 169.367 54.3106 170.087 54.0228C171.166 53.6632 171.095 59.7776 171.382 60.4969C171.67 61.2163 171.742 60.8566 171.742 60.8566C171.742 60.8566 171.382 58.9863 171.958 54.4544C172.03 53.9797 172.03 53.4905 171.958 53.0158C171.958 52.6561 171.67 52.3683 171.31 52.3683V52.3683Z" fill="#F9FBFF"/>
<path d="M192.472 48.0526C192.558 47.3332 192.529 46.6067 192.4 45.8945C192.4 45.7795 192.299 45.6859 192.184 45.6787C191.392 45.391 191.464 47.8368 191.464 48.1965C190.456 63.7343 191.176 79.3441 191.752 94.882C191.737 95.3064 191.838 95.7308 192.04 96.1049C193.263 92.652 193.263 88.4079 193.335 84.7392C193.407 80.7828 193.263 76.7545 193.119 72.7981L192.472 48.0526V48.0526Z" fill="#F9FBFF"/>
<path d="M205.643 58.4828V58.5547C205.571 58.6986 205.571 58.8425 205.499 58.9863C205.484 59.2525 205.434 59.5186 205.355 59.7776C205.196 60.6336 205.153 61.504 205.211 62.3672C205.268 62.7341 205.218 63.1082 205.067 63.4463C205.067 63.5182 204.995 63.5182 204.923 63.5182C204.419 63.3743 203.699 63.0866 203.699 63.8779C203.627 70.352 203.555 76.7542 203.483 83.2283V87.3285C203.411 88.1918 202.979 87.976 202.26 88.0479C202.231 88.0479 202.209 88.0479 202.181 88.0479C202.044 88.0695 201.95 88.199 201.972 88.3356C201.986 89.0118 202.159 89.6808 202.476 90.2779C202.735 90.7958 203.023 91.2993 203.339 91.7885C204.203 93.5868 203.627 96.9678 203.627 98.9819C203.627 100.205 203.483 101.5 203.483 102.723C203.526 103.686 203.649 104.65 203.843 105.6C203.958 105.485 204.253 105.226 204.217 104.981C204.311 105.161 204.412 105.341 204.491 105.528C205.067 103.514 204.779 101.356 204.779 99.2697C204.779 97.3994 204.995 95.4572 205.067 93.5869C205.067 93.22 205.139 92.8531 205.283 92.5078C205.427 92.1482 205.643 91.9324 205.643 91.5727C205.585 91.3785 205.513 91.1842 205.427 90.9972C204.851 89.7024 205.211 87.976 205.211 86.6092L205.283 84.0196L205.355 81.0702L205.427 77.8332L205.499 74.5242L205.571 71.2152L205.643 68.0501L205.714 65.1727C205.786 64.2375 205.786 63.3743 205.858 62.5111C205.916 61.8206 205.945 61.1228 205.93 60.425V59.4179C205.93 59.1158 205.851 58.8209 205.714 58.5547C205.714 58.5116 205.686 58.4828 205.643 58.4828V58.4828Z" fill="#F9FBFF"/>
<path d="M227.667 37.1902C227.595 36.255 227.523 35.3199 227.523 34.4567C227.523 34.3847 227.451 34.2409 227.451 34.1689C227.091 33.8092 227.091 36.6866 227.091 37.1902C226.587 55.8212 226.947 74.5961 227.235 93.2272C227.213 93.7379 227.256 94.2415 227.379 94.7378C227.955 90.5656 227.955 85.5302 228.027 81.1422C228.098 76.3945 227.955 71.5749 227.955 66.8272L227.667 37.1902V37.1902Z" fill="#F9FBFF"/>
<path d="M236.16 52.009C236.088 51.3616 236.088 50.6422 236.016 49.8509C236.016 49.779 235.944 49.6351 235.872 49.6351C235.296 49.3474 235.368 51.7932 235.368 52.1528C234.648 67.6907 235.152 83.3005 235.584 98.8384C235.584 99.2556 235.656 99.6728 235.8 100.061C236.663 96.6084 236.663 92.3643 236.735 88.6956C236.807 84.7392 236.663 80.7109 236.592 76.7545L236.16 52.009V52.009Z" fill="#F9FBFF"/>
<path d="M178.005 58.4109C178.012 57.8138 177.99 57.2096 177.933 56.6125C177.933 56.5406 177.861 56.4686 177.789 56.3967C177.213 56.1809 177.285 58.1231 177.285 58.4109C176.565 70.7836 177.069 83.2283 177.501 95.601C177.501 95.9463 177.573 96.2916 177.717 96.6081C178.58 93.8027 178.58 90.4937 178.652 87.6163C178.724 84.4512 178.58 81.2861 178.509 78.1209L178.005 58.4109V58.4109Z" fill="#F9FBFF"/>
<path d="M178.436 44.6711C177.983 44.6999 177.551 44.8725 177.213 45.1746L175.773 46.2536L175.485 46.4694C175.154 46.714 174.845 46.973 174.55 47.2607C174.751 47.2463 174.946 47.196 175.126 47.1169C175.845 46.9011 176.493 46.6133 177.213 46.3256C178.292 45.9659 178.22 52.0803 178.508 52.7997C178.796 53.519 178.868 53.1594 178.868 53.1594C178.868 53.1594 178.508 51.2891 179.084 46.7572C179.156 46.2824 179.156 45.7933 179.084 45.3185C179.084 44.9588 178.796 44.6711 178.436 44.6711V44.6711Z" fill="#F9FBFF"/>
<path d="M168.288 59.13C168.36 58.7271 168.36 58.3099 168.288 57.9071C168.288 57.8279 168.223 57.7704 168.144 57.7632C167.64 57.6193 167.712 58.9142 167.64 59.13C166.992 67.6182 167.496 76.1784 167.784 84.6667C167.784 84.9185 167.863 85.1703 168 85.3861C168.791 83.5158 168.791 81.2139 168.863 79.1997C168.935 77.0417 168.791 74.8117 168.72 72.6537L168.288 59.13V59.13Z" fill="#F9FBFF"/>
<path d="M146.264 67.4027C146.465 66.7984 146.494 66.151 146.336 65.5324C146.336 65.4604 146.264 65.3885 146.192 65.3166C145.688 65.1008 145.76 67.1149 145.76 67.4746C145.112 80.7825 145.616 94.0904 145.904 107.398C145.918 107.765 145.962 108.125 146.048 108.477C146.84 105.528 146.84 101.931 146.84 98.7661C146.912 95.3852 146.768 91.9324 146.696 88.5514L146.264 67.4027V67.4027Z" fill="#F9FBFF"/>
<path d="M140.65 64.885C140.779 64.2735 140.808 63.6405 140.722 63.0147C140.722 62.9427 140.65 62.8708 140.578 62.7989C140.074 62.5831 140.146 64.5972 140.146 64.9569C139.498 78.2648 140.002 91.5727 140.29 104.881C140.304 105.247 140.347 105.607 140.434 105.96C141.225 103.01 141.225 99.4136 141.225 96.2484C141.297 92.8675 141.153 89.4147 141.081 86.0337L140.65 64.885V64.885Z" fill="#F9FBFF"/>
<path d="M204.707 45.4626C204.175 45.4626 203.642 45.5346 203.124 45.6784L201.252 46.182C201.13 46.182 201.008 46.2036 200.893 46.2539C200.461 46.3043 200.036 46.4553 199.669 46.6855C199.935 46.6999 200.202 46.6711 200.461 46.6136C201.396 46.4697 202.332 46.3978 203.196 46.2539C204.563 46.0381 204.491 48.8436 204.851 49.1313C205.211 49.419 205.283 49.2752 205.283 49.2752C205.283 49.2752 204.779 48.412 205.571 46.3978C205.715 46.2036 205.715 45.9446 205.571 45.7504C205.499 45.6065 205.355 45.4626 204.707 45.4626V45.4626Z" fill="#F9FBFF"/>
<path d="M146.192 49.4912C145.76 49.4984 145.336 49.6207 144.969 49.8509L143.529 50.7141C143.457 50.7141 143.385 50.786 143.241 50.8579C142.946 51.0522 142.63 51.2248 142.306 51.3615C142.5 51.3759 142.694 51.3471 142.881 51.2896C143.601 51.0738 144.249 50.8579 144.969 50.6421C146.048 50.3544 145.976 54.9582 146.264 55.5337C146.552 56.1092 146.624 55.8214 146.624 55.8214C146.624 55.8214 146.264 54.4547 146.84 51.0018C146.912 50.6493 146.912 50.2753 146.84 49.9228C146.754 49.6494 146.48 49.4696 146.192 49.4912V49.4912Z" fill="#F9FBFF"/>
<path d="M381.763 19.6379L380.252 18.5588C379.892 18.2495 379.431 18.0697 378.956 18.0553C378.589 18.0697 378.294 18.343 378.237 18.7027C378.165 19.1775 378.165 19.6666 378.237 20.1414C378.884 24.6733 378.453 26.5436 378.453 26.5436C378.453 26.5436 378.524 26.9032 378.812 26.1839C379.1 25.4646 379.028 19.3501 380.108 19.7098C380.835 20.0191 381.583 20.2781 382.339 20.5011C382.548 20.5802 382.764 20.6306 382.987 20.6449C382.663 20.4004 382.346 20.1342 382.051 19.8537C381.907 19.7817 381.835 19.6379 381.763 19.6379V19.6379Z" fill="#F9FBFF"/>
<path d="M475.258 167.464L459.136 167.68V166.817C459.136 163.637 456.559 161.062 453.378 161.062H451.578V159.479C451.578 156.3 449.002 153.724 445.82 153.724H442.798C441.718 152.12 439.911 151.149 437.975 151.135H436.248C435.355 148.934 433.225 147.488 430.85 147.466H424.372C421.191 147.466 418.614 150.041 418.614 153.221V154.3C416.88 154.638 415.39 155.746 414.584 157.321C413.684 156.746 412.633 156.444 411.561 156.458H398.461V154.875C398.461 152.034 396.381 149.617 393.567 149.193V148.545C393.582 145.581 391.336 143.085 388.385 142.79C387.694 140.251 385.398 138.489 382.771 138.474H369.528C366.346 138.474 363.77 141.05 363.77 144.229V149.121H347.36C344.178 149.121 341.602 151.696 341.602 154.875V160.918H331.885C329.74 160.932 327.783 162.119 326.775 164.011H321.809C319.412 164.033 317.274 165.515 316.411 167.752C316.339 167.896 316.339 168.039 316.267 168.183H281.935C281.474 165.399 279.071 163.364 276.249 163.364H239.182V161.278C239.182 158.098 236.606 155.523 233.425 155.523H212.624V153.365C212.624 150.185 210.047 147.61 206.866 147.61H195.71V147.538C195.717 144.524 193.392 142.006 190.384 141.783C190.442 141.524 190.47 141.258 190.456 140.992C190.456 137.813 187.879 135.237 184.698 135.237H183.762C182.711 133.54 180.862 132.504 178.868 132.504H170.591C168.59 132.497 166.733 133.532 165.697 135.237H162.026C158.845 135.237 156.268 137.813 156.268 140.992V141.568C153.591 141.661 151.338 143.61 150.87 146.243C150.078 145.812 149.186 145.589 148.279 145.596H145.976V139.697C145.976 136.856 143.896 134.439 141.082 134.014V133.367C141.096 130.403 138.85 127.907 135.899 127.612C135.209 125.073 132.913 123.311 130.285 123.296H117.042C113.861 123.296 111.284 125.871 111.284 129.051V133.942H94.8742C91.6929 133.942 89.1162 136.518 89.1162 139.697V145.74H79.3997C77.2549 145.754 75.2972 146.941 74.2895 148.833H69.3233C66.142 148.833 63.5654 151.408 63.5654 154.588V155.451H50.9699C47.7886 155.451 45.2119 158.026 45.2119 161.206V163.292H36.5031C34.8117 163.27 33.1994 164.011 32.1126 165.306H30.2413C28.2044 165.292 26.3115 166.356 25.2751 168.111L21.8203 188.325C19.8051 188.325 23.2598 189.908 23.2598 191.922L21.1006 192.641C21.1006 194.655 24.8432 194.08 26.8585 194.08L47.803 184.656V199.763C47.803 201.748 49.4152 203.359 51.4017 203.359H438.479C440.466 203.359 442.078 201.748 442.078 199.763V184.297L471.659 183.29C472.163 183.29 465.397 179.117 465.901 178.973C468.348 178.254 478.137 180.124 478.137 177.535L477.417 173.938C477.417 170.701 478.497 167.536 475.258 167.464V167.464Z" fill="#E3E9F1"/>
<path d="M442.078 184.224V184.656H485.694C486.421 184.656 487.127 184.433 487.71 184.009C487.192 184.152 486.659 184.232 486.126 184.224H442.078V184.224Z" fill="#E3E9F1"/>
<path d="M301.368 168.183H316.339C316.411 168.039 316.411 167.895 316.483 167.751H303.455C302.736 167.751 302.023 167.895 301.368 168.183Z" fill="#E3E9F1"/>
<path d="M349.879 156.53L347.431 153.437C347 152.861 346.208 151.926 345.416 151.998C344.624 152.07 344.408 153.077 344.336 153.724C344.193 155.062 344.193 156.415 344.336 157.753C345.344 170.629 344.696 175.808 344.696 175.808C344.696 175.808 344.84 176.815 345.272 174.729C345.704 172.643 345.632 155.235 347.431 156.458C348.583 157.249 349.807 158.04 350.958 158.76C351.246 158.904 351.678 159.191 351.966 159.12C351.354 158.501 350.8 157.825 350.31 157.105C350.094 156.818 349.95 156.602 349.879 156.53V156.53Z" fill="#F1F5FB"/>
<path d="M456.041 166.313L453.594 165.234C452.96 164.932 452.276 164.759 451.578 164.73C450.786 164.73 450.571 165.09 450.499 165.378C450.355 165.845 450.355 166.349 450.499 166.816C451.506 171.348 450.858 173.218 450.858 173.218C450.858 173.218 451.002 173.578 451.434 172.859C451.866 172.139 451.794 166.025 453.594 166.385C454.745 166.672 455.969 166.96 457.12 167.176C457.451 167.262 457.79 167.305 458.128 167.32C457.552 167.032 456.976 166.816 456.472 166.528C456.257 166.457 456.113 166.313 456.041 166.313Z" fill="#F1F5FB"/>
<path d="M334.837 163.507C334.045 163.507 333.253 163.507 332.462 163.435C331.771 163.291 331.065 163.291 330.374 163.435C329.87 163.579 329.798 163.795 329.727 164.083C329.439 165.809 330.158 167.607 330.302 169.334C330.403 170.247 330.353 171.168 330.158 172.067C330.158 172.139 330.014 172.283 330.086 172.427C330.086 172.427 330.23 172.787 330.662 171.996C330.864 171.442 330.957 170.859 330.95 170.269C331.022 169.262 331.094 168.255 331.238 167.32C331.303 166.507 331.468 165.708 331.742 164.946C331.814 164.73 331.742 164.227 332.462 164.155C332.649 164.119 332.85 164.119 333.037 164.155C334.621 164.155 336.276 164.155 337.86 164.299C338.579 164.299 339.227 164.37 339.947 164.37C340.091 164.37 341.962 164.227 341.89 164.227C341.163 163.831 340.343 163.637 339.515 163.651C337.932 163.507 336.42 163.507 334.837 163.507V163.507Z" fill="#F1F5FB"/>
<path d="M403.571 158.4C402.779 158.4 401.988 158.4 401.196 158.328C400.505 158.184 399.8 158.184 399.109 158.328C398.605 158.472 398.533 158.688 398.461 158.976C398.173 160.702 398.893 162.5 399.037 164.227C399.137 165.14 399.087 166.061 398.893 166.96C398.893 167.032 398.749 167.176 398.821 167.32C398.821 167.32 398.965 167.68 399.397 166.888C399.598 166.334 399.692 165.752 399.684 165.162C399.756 164.155 399.828 163.148 399.972 162.213C400.037 161.4 400.203 160.601 400.476 159.839C400.548 159.623 400.476 159.119 401.196 159.047H401.772C403.355 159.047 405.011 159.047 406.594 159.191C407.314 159.191 407.961 159.263 408.681 159.263C408.825 159.263 410.697 159.119 410.625 159.119C409.898 158.724 409.077 158.53 408.249 158.544C406.666 158.4 405.155 158.4 403.571 158.4V158.4Z" fill="#F1F5FB"/>
<path d="M133.165 127.18C133.215 126.561 132.977 125.95 132.517 125.525C131.862 125.202 131.085 125.202 130.43 125.525C129.659 125.741 128.853 125.813 128.054 125.741C126.493 125.619 124.916 125.72 123.376 126.029C122.656 126.245 121.433 126.533 121.001 127.108C121.634 127.317 122.282 127.468 122.944 127.54C123.642 127.59 124.341 127.561 125.032 127.468C126.629 127.266 128.242 127.166 129.854 127.18C130.048 127.166 130.242 127.194 130.43 127.252C131.149 127.54 131.077 128.691 131.149 129.338C131.423 131.417 131.596 133.503 131.653 135.596C131.797 138.186 131.869 140.848 131.941 143.437C131.927 144.977 132.027 146.516 132.229 148.041C132.661 150.127 132.805 149.12 132.805 149.12C132.819 148.832 132.79 148.537 132.733 148.257C132.538 145.861 132.495 143.459 132.589 141.063C132.733 136.46 133.453 131.784 133.165 127.18Z" fill="#F1F5FB"/>
<path d="M188.513 138.186C187.865 138.114 187.361 139.05 187.002 139.625L185.202 142.718C185.123 142.92 185.029 143.107 184.914 143.294C184.554 143.941 184.123 144.66 183.763 145.308C183.979 145.38 184.267 145.092 184.482 144.948C185.346 144.229 186.21 143.438 187.074 142.646C188.369 141.423 188.297 158.832 188.657 160.918C189.017 163.004 189.089 161.997 189.089 161.997C189.089 161.997 188.585 156.817 189.305 143.941C189.377 142.596 189.377 141.258 189.305 139.913C189.233 139.265 189.161 138.258 188.513 138.186V138.186Z" fill="#F1F5FB"/>
<path d="M70.9071 153.005C70.2089 153.034 69.5252 153.206 68.8918 153.508L66.4447 154.587C66.3727 154.587 66.2287 154.731 66.0128 154.803C65.437 155.019 64.89 155.285 64.3574 155.594C64.6957 155.58 65.034 155.537 65.3651 155.451C66.5166 155.235 67.7402 154.947 68.8918 154.659C70.6911 154.3 70.6192 160.414 71.051 161.133C71.4829 161.853 71.6268 161.493 71.6268 161.493C71.6268 161.493 70.979 159.623 71.9867 155.091C72.1306 154.623 72.1306 154.12 71.9867 153.652C71.9147 153.365 71.6988 153.005 70.9071 153.005V153.005Z" fill="#F1F5FB"/>
<path d="M108.477 137.467C108.477 137.179 108.333 136.963 107.829 136.82C107.138 136.676 106.433 136.676 105.742 136.82C104.95 136.891 104.159 136.891 103.367 136.891C101.784 136.891 100.272 136.891 98.6887 137.035C97.861 137.021 97.0405 137.215 96.3135 137.611C96.2416 137.611 98.1129 137.755 98.2569 137.755C98.9766 137.755 99.6244 137.683 100.344 137.683C101.928 137.539 103.583 137.539 105.166 137.539C105.354 137.503 105.555 137.503 105.742 137.539C106.462 137.611 106.39 138.114 106.462 138.33C106.735 139.093 106.901 139.891 106.966 140.704C107.11 141.639 107.182 142.646 107.254 143.653C107.246 144.243 107.34 144.826 107.542 145.38C107.973 146.171 108.117 145.811 108.117 145.811C108.189 145.667 108.045 145.524 108.045 145.452C107.851 144.552 107.801 143.632 107.901 142.718C108.045 140.992 108.765 139.193 108.477 137.467V137.467Z" fill="#F1F5FB"/>
<path d="M142.953 136.244C142.255 136.273 141.571 136.446 140.938 136.748L138.491 137.827C138.419 137.827 138.275 137.971 138.059 138.043C137.483 138.33 136.547 138.762 136.403 138.834C136.742 138.82 137.08 138.776 137.411 138.69C138.563 138.474 139.786 138.187 140.938 137.899C142.737 137.539 142.665 143.654 143.097 144.373C143.529 145.092 143.673 144.733 143.673 144.733C143.673 144.733 143.025 142.862 144.033 138.33C144.177 137.863 144.177 137.359 144.033 136.892C143.961 136.604 143.745 136.244 142.953 136.244Z" fill="#F1F5FB"/>
<path d="M164.689 136.747C164.243 136.733 163.796 136.834 163.393 137.035L161.882 137.682C161.81 137.682 161.738 137.754 161.594 137.826C161.306 137.97 160.946 138.114 160.658 138.258C160.874 138.272 161.097 138.244 161.306 138.186C162.098 138.042 162.817 137.826 163.537 137.682C164.617 137.467 164.545 141.279 164.833 141.711C165.121 142.142 165.193 141.927 165.193 141.927C165.193 141.927 164.761 140.776 165.408 137.97C165.48 137.69 165.48 137.387 165.408 137.107C165.337 136.963 165.193 136.747 164.689 136.747V136.747Z" fill="#F1F5FB"/>
<path d="M180.883 136.029C180.934 135.41 180.696 134.798 180.236 134.374C179.581 134.05 178.803 134.05 178.148 134.374C177.378 134.59 176.572 134.662 175.773 134.59C174.211 134.468 172.635 134.568 171.095 134.878C170.375 135.093 169.08 135.381 168.72 135.957C169.353 136.165 170.001 136.316 170.663 136.388C171.361 136.439 172.059 136.41 172.75 136.316C174.348 136.115 175.96 136.014 177.573 136.029C177.767 136.014 177.961 136.043 178.148 136.1C178.868 136.388 178.796 137.539 178.868 138.187C179.142 140.265 179.314 142.352 179.372 144.445C179.516 147.034 179.588 149.696 179.66 152.286C179.645 153.825 179.746 155.365 179.948 156.89C180.38 158.976 180.523 157.969 180.523 157.969C180.538 157.681 180.509 157.386 180.452 157.105C180.257 154.71 180.214 152.307 180.308 149.912C180.452 145.308 181.171 140.632 180.883 136.029Z" fill="#F1F5FB"/>
<path d="M210.464 150.415C210.464 149.983 210.213 149.58 209.817 149.408C209.14 149.192 208.406 149.192 207.729 149.408C206.945 149.53 206.146 149.573 205.354 149.552C203.792 149.48 202.223 149.552 200.676 149.767C200.028 149.839 198.733 150.055 198.301 150.487C199.625 150.775 200.985 150.847 202.331 150.703C203.915 150.559 205.57 150.487 207.154 150.487C207.348 150.472 207.542 150.501 207.729 150.559C208.449 150.775 208.377 151.494 208.449 151.926C208.723 153.228 208.888 154.551 208.953 155.882C209.097 157.536 209.169 159.191 209.241 160.845C209.226 161.838 209.32 162.824 209.529 163.795C209.961 165.09 210.105 164.442 210.105 164.442C210.177 164.226 210.033 164.011 210.033 163.867C209.838 162.342 209.795 160.795 209.889 159.263C210.033 156.314 210.752 153.364 210.464 150.415V150.415Z" fill="#F1F5FB"/>
<path d="M234.577 158.615C234.505 158.328 234.361 158.04 233.569 157.896C232.518 157.752 231.453 157.752 230.402 157.896C229.25 157.968 228.027 157.968 226.803 157.968C224.428 157.968 222.053 157.968 219.678 158.112C218.44 158.169 217.209 158.364 216.007 158.687C215.935 158.759 218.742 158.903 218.958 158.903C220.038 158.903 221.045 158.903 222.125 158.831C224.572 158.687 227.019 158.687 229.538 158.687C229.826 158.687 230.114 158.759 230.402 158.759C231.482 158.831 231.338 159.335 231.482 159.622C231.863 160.464 232.108 161.363 232.201 162.284C232.417 163.363 232.489 164.514 232.633 165.593C232.705 166.24 232.561 166.888 233.065 167.535C233.785 168.398 233.929 168.039 234.001 167.967C234.073 167.895 233.857 167.679 233.857 167.607C233.626 166.593 233.583 165.543 233.713 164.514C233.857 162.572 235.08 160.558 234.577 158.615V158.615Z" fill="#F1F5FB"/>
<path d="M447.404 157.681L444.957 156.602C444.323 156.299 443.64 156.127 442.941 156.098C442.15 156.098 441.934 156.458 441.862 156.745C441.718 157.213 441.718 157.717 441.862 158.184C442.87 162.716 442.222 164.586 442.222 164.586C442.222 164.586 442.366 164.946 442.798 164.227C443.229 163.507 443.157 157.393 444.957 157.753C446.108 158.04 447.332 158.328 448.556 158.544C448.887 158.63 449.225 158.673 449.563 158.688C448.915 158.4 448.34 158.112 447.836 157.896C447.62 157.824 447.476 157.681 447.404 157.681Z" fill="#F1F5FB"/>
<path d="M324.976 168.542L322.529 167.463C321.896 167.161 321.212 166.989 320.514 166.96C319.722 166.96 319.506 167.32 319.434 167.607C319.29 168.075 319.29 168.578 319.434 169.046C320.442 173.578 319.794 175.448 319.794 175.448C319.794 175.448 319.938 175.808 320.37 175.088C320.802 174.369 320.73 168.255 322.529 168.614C323.681 168.902 324.904 169.19 326.056 169.406C326.387 169.492 326.725 169.535 327.063 169.549C326.919 169.478 325.984 169.046 325.408 168.758C325.192 168.686 325.048 168.542 324.976 168.542V168.542Z" fill="#F1F5FB"/>
<path d="M432.649 150.559C431.109 150.25 429.532 150.149 427.97 150.271C427.172 150.343 426.365 150.271 425.595 150.056C424.94 149.732 424.163 149.732 423.508 150.056C423.047 150.48 422.81 151.091 422.86 151.71C422.572 156.314 423.292 160.99 423.436 165.593C423.53 167.989 423.486 170.391 423.292 172.787C423.235 173.067 423.206 173.362 423.22 173.65C423.22 173.65 423.364 174.657 423.796 172.571C423.997 171.046 424.098 169.507 424.084 167.967C424.156 165.378 424.228 162.716 424.372 160.126C424.429 158.033 424.602 155.947 424.876 153.868C424.948 153.221 424.876 152.07 425.595 151.782C425.782 151.724 425.977 151.696 426.171 151.71C427.783 151.696 429.396 151.796 430.993 151.998C431.684 152.091 432.382 152.12 433.081 152.07C433.743 151.998 434.391 151.847 435.024 151.638C434.592 151.063 433.297 150.703 432.649 150.559Z" fill="#F1F5FB"/>
<path d="M125.823 140.848C125.031 140.776 124.24 141.711 123.808 142.287L121.361 145.38C121.289 145.452 121.145 145.668 120.929 145.956C120.439 146.675 119.885 147.351 119.273 147.97C119.561 148.042 119.993 147.754 120.281 147.61C121.433 146.891 122.656 146.099 123.808 145.308C125.607 144.085 125.535 161.493 125.967 163.579C126.399 165.666 126.543 164.658 126.543 164.658C126.543 164.658 125.895 159.479 126.903 146.603C127.047 145.265 127.047 143.913 126.903 142.575C126.831 141.927 126.615 140.92 125.823 140.848V140.848Z" fill="#F1F5FB"/>
<path d="M169.223 146.387C168.431 146.315 167.64 147.25 167.208 147.825L164.761 150.918C164.689 150.99 164.545 151.206 164.329 151.494C163.832 152.235 163.257 152.911 162.602 153.508C162.889 153.58 163.321 153.292 163.609 153.148C164.833 152.429 166.056 151.638 167.208 150.846C169.007 149.624 168.935 167.032 169.367 169.118C169.799 171.204 169.943 170.197 169.943 170.197C169.943 170.197 169.295 165.018 170.303 152.141C170.447 150.803 170.447 149.451 170.303 148.113C170.231 147.466 170.015 146.458 169.223 146.387V146.387Z" fill="#F1F5FB"/>
<path d="M102.792 146.459C102 146.387 101.208 147.322 100.777 147.897L98.3294 150.991C98.2575 151.063 98.1135 151.278 97.8976 151.566C97.4226 152.3 96.8684 152.976 96.2422 153.58C96.5301 153.652 96.9619 153.364 97.2498 153.221C98.4014 152.501 99.625 151.71 100.777 150.919C102.576 149.696 102.504 167.104 102.936 169.19C103.368 171.276 103.512 170.269 103.512 170.269C103.512 170.269 102.864 165.09 103.871 152.214C104.015 150.876 104.015 149.523 103.871 148.185C103.799 147.538 103.584 146.531 102.792 146.459V146.459Z" fill="#F1F5FB"/>
<path d="M259.529 185.85C275.364 179.124 303.311 175.628 309.501 174.823H309.962C312.733 174.729 315.36 173.578 317.31 171.607C314.726 169.873 311.696 168.917 308.587 168.852C290.673 167.938 273.219 169.312 255.765 172.067C245.178 173.578 234.173 175.103 223.866 178.319C235.879 179.757 247.718 182.671 259.529 185.85Z" fill="#B5BDC2"/>
<path d="M139.894 324.871L135.54 326.439C137.152 326.576 138.743 326 139.894 324.871Z" fill="#B5BDC2"/>
<path d="M288.262 323.562L288.061 323.641L288.262 323.562Z" fill="#B5BDC2"/>
<path d="M287.326 323.936L287.023 324.044L287.326 323.936Z" fill="#B5BDC2"/>
<path d="M286.326 324.281L286.053 324.367L286.326 324.281Z" fill="#B5BDC2"/>
<path d="M284.073 324.806L283.756 324.849L284.073 324.806Z" fill="#B5BDC2"/>
<path d="M135.54 326.439C137.152 326.576 138.743 326 139.894 324.871L135.54 326.439Z" fill="#B5BDC2"/>
<path d="M148.495 307.736C149.46 307.808 150.417 307.858 151.374 307.901C150.417 307.858 149.46 307.808 148.495 307.736Z" fill="#B5BDC2"/>
<path d="M148.085 308.175L148.042 308.247L148.085 308.175Z" fill="#B5BDC2"/>
<path d="M148.236 307.93L148.186 307.996L148.236 307.93Z" fill="#B5BDC2"/>
<path d="M295.711 317.951L295.409 318.274L295.711 317.951Z" fill="#B5BDC2"/>
<path d="M298.093 315.145C297.985 315.289 297.877 315.433 297.762 315.569C297.877 315.433 297.985 315.289 298.093 315.145Z" fill="#B5BDC2"/>
<path d="M299.706 312.951C299.49 313.261 299.274 313.57 299.051 313.872C299.274 313.57 299.49 313.261 299.706 312.951Z" fill="#B5BDC2"/>
<path d="M298.762 314.275L298.417 314.728L298.762 314.275Z" fill="#B5BDC2"/>
<path d="M297.345 316.081C297.215 316.246 297.079 316.412 296.935 316.577C297.079 316.412 297.215 316.246 297.345 316.081Z" fill="#B5BDC2"/>
<path d="M302.332 308.844C301.915 309.563 301.476 310.283 301.022 311.002C301.476 310.268 301.915 309.556 302.332 308.844Z" fill="#B5BDC2"/>
<path d="M296.445 317.145L296.143 317.483L296.445 317.145Z" fill="#B5BDC2"/>
<path d="M300.886 311.196L300.497 311.786L300.886 311.196Z" fill="#B5BDC2"/>
<path d="M300.296 312.052C300.173 312.246 300.044 312.433 299.914 312.62C300.044 312.462 300.173 312.275 300.296 312.052Z" fill="#B5BDC2"/>
<path d="M291.205 321.878L290.968 322.029L291.205 321.878Z" fill="#B5BDC2"/>
<path d="M289.399 322.979L289.154 323.109L289.399 322.979Z" fill="#B5BDC2"/>
<path d="M290.342 322.433L290.047 322.612L290.342 322.433Z" fill="#B5BDC2"/>
<path d="M292.242 321.123L292.026 321.296L292.242 321.123Z" fill="#B5BDC2"/>
<path d="M305.752 221.415C294.236 215.142 279.985 212.531 267.245 209.704C263.366 208.733 259.645 207.186 256.226 205.114C224.989 185.375 298.943 176.189 309.487 174.815H309.948C312.719 174.722 315.346 173.571 317.296 171.6C314.712 169.866 311.682 168.91 308.573 168.845C290.659 167.931 273.205 169.305 255.751 172.06C239.672 174.355 222.643 176.65 208.443 184.915C203.865 187.246 200.511 191.439 199.259 196.425C195.581 212.495 216.712 219.379 227.271 225.803C246.862 238.42 220.002 305.283 158.896 307.923C170.195 315.117 184.194 317.203 197.625 316.627C211.696 316.03 225.5 312.757 239.413 310.563C260.386 307.268 281.676 306.412 302.844 308.024C302.7 308.276 302.556 308.527 302.405 308.743C304.111 305.866 305.586 302.988 306.867 300.442C313.014 288.256 321.759 274.617 323.731 260.95C325.811 246.426 318.952 228.608 305.752 221.415V221.415Z" fill="#B5BDC2"/>
<path d="M294.667 319.023L294.883 318.807L294.667 319.023Z" fill="#B5BDC2"/>
<path d="M293.163 320.411L292.868 320.655L293.163 320.411Z" fill="#B5BDC2"/>
<path d="M293.934 319.713L293.66 319.951L293.934 319.713Z" fill="#B5BDC2"/>
<path d="M249.259 307.736C249.259 307.736 249.698 307.268 250.468 306.412" stroke="#E3E9F1" stroke-width="2" stroke-miterlimit="10" stroke-linecap="round"/>
<path d="M301.447 171.938L303.239 171.78" stroke="#E3E9F1" stroke-width="2" stroke-miterlimit="10" stroke-linecap="round"/>
<path d="M309.473 102.47C310.754 102.888 312.035 103.341 313.316 103.794V99.3773C312.035 98.9241 310.761 98.4709 309.473 98.0537V102.47Z" fill="black"/>
<path d="M305.629 101.406C306.917 101.687 308.191 102.061 309.472 102.471V98.054C308.198 97.644 306.917 97.2699 305.629 96.9894V101.406Z" fill="white"/>
<path d="M301.8 100.823C303.095 100.924 304.384 101.118 305.65 101.406V96.989C304.384 96.7013 303.103 96.5071 301.807 96.4064C301.807 97.8738 301.807 99.3485 301.807 100.823H301.8Z" fill="black"/>
<path d="M297.928 100.859C299.209 100.737 300.497 100.73 301.778 100.823V96.4065C300.497 96.2986 299.209 96.2986 297.928 96.4065V100.859Z" fill="white"/>
<path d="M294.078 101.493C295.344 101.191 296.633 100.982 297.928 100.86V96.4429C296.633 96.5652 295.337 96.7738 294.07 97.0759V101.493H294.078Z" fill="black"/>
<path d="M290.22 102.579C291.501 102.169 292.789 101.795 294.078 101.492V97.0757C292.789 97.3778 291.508 97.7519 290.22 98.1619V102.579Z" fill="white"/>
<path d="M286.361 103.859C287.65 103.435 288.931 102.989 290.219 102.579V98.1619C288.931 98.5719 287.65 99.0179 286.361 99.4423V103.859Z" fill="black"/>
<path d="M282.504 105.039C283.792 104.694 285.081 104.284 286.362 103.859V99.4423C285.081 99.8667 283.799 100.277 282.504 100.622V105.039Z" fill="white"/>
<path d="M278.653 105.83C279.949 105.65 281.237 105.384 282.504 105.039V100.622C281.237 100.967 279.949 101.234 278.653 101.413V105.83Z" fill="black"/>
<path d="M274.795 106.061C276.083 106.089 277.372 106.01 278.653 105.83V101.414C277.379 101.594 276.09 101.673 274.802 101.644C274.809 103.111 274.802 104.586 274.795 106.061Z" fill="white"/>
<path d="M270.952 105.657C272.218 105.895 273.507 106.024 274.795 106.06V101.644C273.499 101.608 272.218 101.478 270.944 101.241V105.657H270.952Z" fill="black"/>
<path d="M267.102 104.715C268.368 105.103 269.649 105.413 270.952 105.657V101.24C269.657 101.003 268.368 100.687 267.109 100.298C267.123 101.773 267.109 103.24 267.102 104.715V104.715Z" fill="white"/>
<path d="M263.258 103.442C264.539 103.888 265.82 104.327 267.101 104.715V100.298C265.813 99.9099 264.539 99.4711 263.258 99.0251C263.279 100.5 263.272 102.003 263.258 103.442Z" fill="black"/>
<path d="M309.451 106.888C310.732 107.305 312.013 107.758 313.295 108.211V103.794C312.013 103.341 310.732 102.888 309.451 102.471V106.888Z" fill="white"/>
<path d="M305.607 105.823C306.889 106.103 308.17 106.477 309.451 106.887V102.471C308.17 102.061 306.896 101.686 305.607 101.406V105.823Z" fill="black"/>
<path d="M301.757 105.24C303.052 105.341 304.341 105.535 305.607 105.823V101.406C304.341 101.118 303.052 100.924 301.757 100.823V105.24Z" fill="white"/>
<path d="M297.906 105.276C299.187 105.154 300.476 105.147 301.757 105.24V100.823C300.476 100.73 299.187 100.737 297.906 100.859V105.276Z" fill="black"/>
<path d="M294.049 105.909C295.316 105.607 296.611 105.399 297.907 105.276V100.859C296.611 100.982 295.323 101.19 294.056 101.492C294.07 102.967 294.063 104.435 294.049 105.909Z" fill="white"/>
<path d="M290.198 106.995C291.479 106.585 292.76 106.211 294.048 105.909V101.492C292.76 101.794 291.472 102.169 290.19 102.579V106.995H290.198Z" fill="black"/>
<path d="M286.34 108.276C287.628 107.851 288.909 107.405 290.198 106.995V102.578C288.909 102.988 287.628 103.434 286.34 103.859V108.276Z" fill="white"/>
<path d="M282.482 109.456C283.771 109.11 285.052 108.7 286.34 108.276V103.859C285.059 104.284 283.771 104.694 282.482 105.039V109.456Z" fill="black"/>
<path d="M278.624 110.247C279.927 110.067 281.215 109.801 282.482 109.455V105.039C281.215 105.384 279.927 105.65 278.631 105.83C278.646 107.304 278.631 108.779 278.624 110.247Z" fill="white"/>
<path d="M274.774 110.477C276.062 110.506 277.35 110.427 278.624 110.247V105.83C277.343 106.01 276.055 106.089 274.767 106.06V110.477H274.774Z" fill="black"/>
<path d="M270.923 110.074C272.197 110.304 273.478 110.441 274.773 110.477V106.06C273.485 106.024 272.197 105.895 270.93 105.657C270.944 107.132 270.93 108.6 270.923 110.074V110.074Z" fill="white"/>
<path d="M267.079 109.132C268.339 109.521 269.627 109.83 270.923 110.074V105.658C269.62 105.413 268.339 105.104 267.072 104.715V109.132H267.079Z" fill="black"/>
<path d="M263.236 107.859C264.517 108.305 265.799 108.743 267.08 109.132V104.715C265.799 104.327 264.517 103.888 263.236 103.442V107.859Z" fill="white"/>
<path d="M309.422 111.304C310.71 111.722 311.984 112.175 313.265 112.628V108.211C311.984 107.758 310.703 107.305 309.422 106.888V111.304Z" fill="black"/>
<path d="M305.579 110.24C306.867 110.521 308.149 110.895 309.423 111.305V106.888C308.141 106.478 306.86 106.104 305.579 105.823V110.24Z" fill="white"/>
<path d="M301.736 109.657C303.031 109.758 304.312 109.952 305.579 110.24V105.823C304.312 105.535 303.024 105.341 301.729 105.24V109.657H301.736Z" fill="black"/>
<path d="M297.885 109.693C299.166 109.57 300.454 109.563 301.735 109.657V105.24C300.454 105.146 299.166 105.154 297.885 105.276V109.693Z" fill="white"/>
<path d="M294.026 110.326C295.293 110.024 296.589 109.815 297.884 109.693V105.276C296.589 105.398 295.293 105.607 294.026 105.909V110.326Z" fill="black"/>
<path d="M290.169 111.413C291.457 111.003 292.738 110.628 294.027 110.326V105.91C292.738 106.212 291.457 106.586 290.176 106.996C290.191 108.478 290.176 109.916 290.169 111.413Z" fill="white"/>
<path d="M286.312 112.693C287.6 112.268 288.881 111.822 290.169 111.412V106.995C288.881 107.405 287.6 107.851 286.312 108.276C286.326 109.751 286.326 111.218 286.312 112.693Z" fill="black"/>
<path d="M282.46 113.872C283.749 113.527 285.03 113.117 286.311 112.692V108.276C285.023 108.7 283.741 109.11 282.453 109.455V113.872H282.46Z" fill="white"/>
<path d="M278.603 114.664C279.905 114.484 281.194 114.218 282.46 113.872V109.456C281.194 109.801 279.905 110.067 278.603 110.247V114.664Z" fill="black"/>
<path d="M274.752 114.894C276.04 114.923 277.329 114.844 278.603 114.664V110.247C277.329 110.427 276.04 110.506 274.752 110.477V114.894Z" fill="white"/>
<path d="M270.901 114.491C272.175 114.728 273.456 114.858 274.752 114.894V110.477C273.456 110.441 272.175 110.304 270.901 110.074V114.491Z" fill="black"/>
<path d="M267.059 113.549C268.318 113.937 269.606 114.254 270.902 114.491V110.074C269.606 109.83 268.318 109.52 267.059 109.132V113.549Z" fill="white"/>
<path d="M263.215 112.276C264.496 112.722 265.77 113.161 267.058 113.549V109.132C265.777 108.744 264.496 108.305 263.215 107.859V112.276Z" fill="black"/>
<path d="M309.4 115.721C310.689 116.139 311.963 116.592 313.244 117.045V112.628C311.963 112.175 310.689 111.722 309.4 111.305V115.721Z" fill="white"/>
<path d="M305.557 114.656C306.845 114.937 308.126 115.311 309.4 115.721V111.304C308.126 110.894 306.845 110.52 305.557 110.24V114.656Z" fill="black"/>
<path d="M301.707 114.074C303.003 114.175 304.291 114.369 305.558 114.657V110.24C304.291 109.952 303.01 109.758 301.714 109.657C301.729 111.125 301.714 112.599 301.714 114.074H301.707Z" fill="white"/>
<path d="M297.855 114.11C299.137 113.988 300.425 113.98 301.706 114.074V109.657C300.425 109.564 299.137 109.571 297.855 109.693C297.877 111.16 297.863 112.635 297.855 114.11Z" fill="black"/>
<path d="M294.005 114.743C295.272 114.448 296.56 114.232 297.856 114.11V109.693C296.56 109.815 295.265 110.024 293.998 110.326V114.743H294.005Z" fill="white"/>
<path d="M290.147 115.829C291.429 115.419 292.717 115.045 294.005 114.743V110.326C292.717 110.628 291.436 111.002 290.147 111.412V115.829Z" fill="black"/>
<path d="M286.29 117.109C287.578 116.685 288.86 116.239 290.148 115.829V111.412C288.86 111.822 287.578 112.268 286.29 112.693V117.109Z" fill="white"/>
<path d="M282.432 118.289C283.72 117.944 285.008 117.534 286.289 117.109V112.693C285.008 113.117 283.727 113.527 282.439 113.872V118.289H282.432Z" fill="black"/>
<path d="M278.581 119.08C279.877 118.901 281.165 118.635 282.432 118.289V113.872C281.165 114.218 279.877 114.484 278.574 114.664V119.08H278.581Z" fill="white"/>
<path d="M274.73 119.311C276.019 119.34 277.307 119.261 278.581 119.081V114.664C277.307 114.844 276.019 114.923 274.73 114.894V119.311Z" fill="black"/>
<path d="M270.852 118.908C272.126 119.145 273.407 119.275 274.702 119.311V114.894C273.407 114.858 272.126 114.728 270.852 114.491V118.908Z" fill="white"/>
<path d="M267.037 117.965C268.289 118.354 269.563 118.663 270.851 118.908V114.491C269.556 114.253 268.267 113.937 267.008 113.548L267.037 117.965V117.965Z" fill="black"/>
<path d="M263.193 116.692C264.467 117.138 265.748 117.577 267.037 117.965V113.549C265.748 113.16 264.475 112.721 263.193 112.275V116.692Z" fill="white"/>
<path d="M309.379 120.138C310.66 120.555 311.941 121.008 313.222 121.462V117.045C311.941 116.592 310.667 116.138 309.379 115.721V120.138Z" fill="black"/>
<path d="M305.535 119.073C306.816 119.354 308.097 119.728 309.379 120.138V115.721C308.105 115.311 306.823 114.937 305.535 114.656V119.073Z" fill="white"/>
<path d="M301.685 118.491C302.98 118.591 304.268 118.786 305.535 119.073V114.657C304.268 114.369 302.98 114.175 301.685 114.074V118.491Z" fill="black"/>
<path d="M297.834 118.548C299.115 118.426 300.403 118.419 301.685 118.512V114.095C300.403 114.002 299.115 114.009 297.834 114.131V118.548Z" fill="white"/>
<path d="M293.983 119.159C295.25 118.857 296.538 118.649 297.834 118.526V114.11C296.538 114.232 295.25 114.448 293.983 114.743V119.159Z" fill="black"/>
<path d="M290.126 120.246C291.407 119.836 292.688 119.462 293.984 119.16V114.743C292.695 115.045 291.407 115.419 290.126 115.829V120.246Z" fill="white"/>
<path d="M286.268 121.526C287.556 121.101 288.837 120.655 290.125 120.245V115.829C288.837 116.239 287.556 116.685 286.268 117.109V121.526Z" fill="black"/>
<path d="M282.41 122.706C283.698 122.361 284.987 121.987 286.268 121.526V117.109C284.987 117.534 283.698 117.944 282.41 118.289V122.706Z" fill="white"/>
<path d="M278.553 123.498C279.855 123.318 281.144 123.052 282.411 122.706V118.289C281.144 118.635 279.855 118.901 278.56 119.081C278.567 120.555 278.56 122.03 278.553 123.498Z" fill="black"/>
<path d="M274.702 123.727C275.99 123.756 277.279 123.677 278.553 123.497V119.08C277.279 119.26 275.99 119.339 274.702 119.311C274.702 120.778 274.702 122.253 274.702 123.727Z" fill="white"/>
<path d="M270.851 123.325C272.118 123.562 273.406 123.691 274.694 123.727V119.311C273.399 119.275 272.118 119.145 270.844 118.908V123.325H270.851Z" fill="black"/>
<path d="M267.008 122.382C268.275 122.771 269.556 123.08 270.858 123.325V118.908C269.563 118.67 268.275 118.354 267.015 117.965C267.029 119.44 267.015 120.908 267.008 122.382V122.382Z" fill="white"/>
<path d="M263.164 121.109C264.445 121.555 265.726 121.994 267.007 122.382V117.965C265.719 117.577 264.438 117.138 263.164 116.692C263.178 118.167 263.164 119.634 263.164 121.109Z" fill="black"/>
<path d="M309.357 124.555C310.639 124.972 311.92 125.425 313.201 125.878V121.461C311.92 121.008 310.639 120.555 309.357 120.138V124.555Z" fill="white"/>
<path d="M305.507 123.49C306.795 123.771 308.076 124.145 309.357 124.555V120.138C308.076 119.728 306.795 119.354 305.514 119.073C305.528 120.541 305.514 122.016 305.514 123.49H305.507Z" fill="black"/>
<path d="M301.663 122.907C302.959 123.008 304.24 123.202 305.507 123.49V119.073C304.24 118.785 302.952 118.591 301.656 118.49V122.907H301.663Z" fill="white"/>
<path d="M297.812 122.944C299.094 122.821 300.382 122.814 301.663 122.908V118.491C300.382 118.397 299.094 118.405 297.812 118.527V122.944Z" fill="black"/>
<path d="M293.955 123.584C295.222 123.282 296.517 123.073 297.813 122.951V118.534C296.517 118.656 295.229 118.865 293.962 119.167V123.584H293.955Z" fill="white"/>
<path d="M290.104 124.663C291.385 124.253 292.666 123.879 293.955 123.577V119.16C292.659 119.462 291.378 119.836 290.097 120.246V124.663H290.104Z" fill="black"/>
<path d="M286.246 125.943C287.527 125.519 288.816 125.073 290.104 124.663V120.246C288.816 120.656 287.534 121.102 286.246 121.526V125.943Z" fill="white"/>
<path d="M282.367 127.123C283.656 126.778 284.937 126.368 286.225 125.943V121.527C284.944 121.951 283.656 122.361 282.367 122.706V127.123Z" fill="black"/>
<path d="M278.531 127.899C279.834 127.72 281.122 127.453 282.389 127.108V122.691C281.122 123.037 279.834 123.303 278.531 123.483V127.899Z" fill="white"/>
<path d="M274.68 128.144C275.968 128.173 277.256 128.094 278.53 127.914V123.497C277.256 123.677 275.968 123.756 274.68 123.727V128.144Z" fill="black"/>
<path d="M270.852 127.742C272.126 127.972 273.407 128.109 274.702 128.145V123.728C273.414 123.692 272.126 123.562 270.859 123.325C270.852 124.8 270.852 126.267 270.852 127.742V127.742Z" fill="white"/>
<path d="M266.987 126.799C268.246 127.187 269.535 127.497 270.83 127.741V123.325C269.527 123.08 268.246 122.771 266.979 122.382V126.799H266.987Z" fill="black"/>
<path d="M263.143 125.526C264.424 125.972 265.698 126.411 266.986 126.799V122.382C265.705 121.994 264.424 121.555 263.143 121.109V125.526Z" fill="white"/>
<path d="M309.329 128.972C310.617 129.389 311.891 129.842 313.173 130.295V125.879C311.891 125.425 310.61 124.972 309.329 124.555C309.329 126.03 309.329 127.497 309.329 128.972Z" fill="black"/>
<path d="M305.485 127.9C306.773 128.18 308.054 128.554 309.328 128.964V124.547C308.047 124.137 306.766 123.763 305.478 123.483V127.9H305.485Z" fill="white"/>
<path d="M301.642 127.324C302.937 127.425 304.218 127.619 305.485 127.907V123.49C304.218 123.203 302.937 123.008 301.642 122.908V127.324Z" fill="black"/>
<path d="M297.791 127.36C299.072 127.238 300.36 127.231 301.642 127.324V122.907C300.36 122.814 299.072 122.821 297.791 122.943V127.36Z" fill="white"/>
<path d="M293.934 127.993C295.2 127.691 296.496 127.482 297.791 127.36V122.943C296.496 123.066 295.2 123.274 293.934 123.576V127.993Z" fill="black"/>
<path d="M290.075 129.079C291.356 128.669 292.645 128.295 293.933 127.993V123.576C292.645 123.878 291.364 124.253 290.082 124.663V129.079H290.075Z" fill="white"/>
<path d="M286.218 130.36C287.506 129.935 288.787 129.489 290.076 129.079V124.663C288.787 125.073 287.499 125.519 286.218 125.943V130.36Z" fill="black"/>
<path d="M282.367 131.54C283.663 131.194 284.944 130.784 286.225 130.36V125.943C284.937 126.367 283.656 126.777 282.367 127.123V131.54Z" fill="white"/>
<path d="M278.509 132.331C279.805 132.151 281.093 131.885 282.36 131.539V127.123C281.093 127.468 279.805 127.734 278.502 127.914V132.331H278.509Z" fill="black"/>
<path d="M274.659 132.561C275.948 132.59 277.236 132.511 278.51 132.331V127.914C277.236 128.094 275.948 128.173 274.659 128.144V132.561Z" fill="white"/>
<path d="M270.808 132.158C272.082 132.396 273.363 132.525 274.658 132.561V128.144C273.363 128.108 272.082 127.972 270.808 127.741V132.158Z" fill="black"/>
<path d="M266.965 131.215C268.224 131.604 269.513 131.92 270.808 132.158V127.741C269.513 127.496 268.224 127.187 266.965 126.799V131.215Z" fill="white"/>
<path d="M263.121 129.943C264.402 130.389 265.676 130.827 266.965 131.216V126.799C265.676 126.411 264.402 125.972 263.121 125.526V129.943Z" fill="black"/>
<path d="M312.827 98.9169C311.761 98.5357 310.667 98.1472 309.559 97.7947C308.12 97.3344 306.86 96.9819 305.694 96.7229C304.42 96.4352 303.125 96.241 301.822 96.1403C300.526 96.0324 299.231 96.0324 297.935 96.1403C296.625 96.2697 295.33 96.4855 294.049 96.7877C292.904 97.0538 291.673 97.3991 290.184 97.8739L287.657 98.7083L286.319 99.1543C285.196 99.5284 283.857 99.96 282.475 100.327C281.216 100.672 279.934 100.931 278.646 101.118C277.387 101.298 276.105 101.37 274.832 101.341C273.55 101.312 272.269 101.176 271.01 100.945C269.721 100.708 268.44 100.392 267.188 100.01C265.856 99.6147 264.51 99.1471 263.352 98.7371L263.049 98.6364L262.884 130.108L263.049 130.173C264.215 130.575 265.561 131.043 266.907 131.446C268.181 131.834 269.469 132.151 270.772 132.395C272.053 132.633 273.349 132.762 274.652 132.798H275.019C276.199 132.798 277.372 132.726 278.538 132.561C279.848 132.381 281.144 132.115 282.418 131.762C283.807 131.395 285.153 130.957 286.283 130.583L287.629 130.137C288.449 129.856 289.306 129.568 290.14 129.302C291.623 128.827 292.839 128.489 293.984 128.223C295.243 127.921 296.517 127.712 297.806 127.59C299.072 127.475 300.346 127.461 301.62 127.554C302.909 127.648 304.183 127.842 305.442 128.13C306.594 128.389 307.846 128.734 309.264 129.194C310.358 129.547 311.423 129.914 312.532 130.316L313.41 130.618L313.575 99.1399L312.827 98.9169V98.9169ZM312.668 129.849C311.596 129.475 310.509 129.086 309.394 128.727H309.329C308.084 128.309 306.81 127.957 305.529 127.669H305.485C304.226 127.381 302.945 127.187 301.656 127.087C301.145 127.051 300.627 127.029 300.116 127.029C299.346 127.022 298.576 127.051 297.806 127.122C296.517 127.252 295.236 127.461 293.969 127.755H293.883C292.753 128.022 291.544 128.36 290.076 128.827H290.011C289.176 129.093 288.319 129.381 287.499 129.662L286.225 130.086H286.153C285.045 130.46 283.728 130.877 282.367 131.244H282.31C281.057 131.59 279.791 131.856 278.509 132.036C277.243 132.215 275.969 132.287 274.688 132.259C273.406 132.223 272.132 132.086 270.873 131.856H270.837C269.556 131.618 268.296 131.302 267.051 130.928H266.994C265.741 130.547 264.482 130.115 263.395 129.726V99.3701C264.482 99.7514 265.72 100.176 266.943 100.543H267.008C268.26 100.924 269.527 101.24 270.815 101.478H270.851C272.118 101.708 273.406 101.837 274.695 101.873C275.983 101.902 277.271 101.83 278.553 101.65C279.841 101.471 281.115 101.204 282.374 100.866H282.432C283.792 100.507 285.117 100.082 286.232 99.7082H286.297L287.636 99.2622C288.442 98.9889 289.27 98.7083 290.09 98.4494H290.155C291.594 97.9818 292.825 97.6437 293.948 97.3775H293.998C295.251 97.0826 296.517 96.8668 297.798 96.7445C299.072 96.6294 300.346 96.615 301.62 96.7085C302.901 96.8093 304.175 97.0035 305.428 97.284H305.471C306.608 97.5358 307.846 97.8811 309.25 98.3343H309.314C310.387 98.6795 311.474 99.0536 312.51 99.4277L312.927 99.5715V129.935L312.668 129.849Z" fill="black"/>
<path d="M259.932 152.235L261.264 151.854L261.149 173.786L259.824 173.779L259.932 152.235Z" fill="black"/>
<path d="M261.545 96.9462L261.537 97.7591L261.249 152.537L259.918 152.918L260.213 97.7663L260.22 96.9318L261.545 96.9462Z" fill="black"/>
<path d="M259.371 96.2055C259.479 97.04 260.242 97.6226 261.07 97.5147C261.897 97.4068 262.488 96.6443 262.38 95.8171C262.279 95.0617 261.638 94.4935 260.875 94.4935C259.983 94.551 259.314 95.3135 259.364 96.2055H259.371Z" fill="black"/>
<path d="M314.849 151.609L316.18 151.221L316.065 173.161L314.733 173.146L314.849 151.609Z" fill="black"/>
<path d="M316.461 96.3132L316.454 97.1332L316.159 151.904L314.827 152.293L315.129 97.1332V96.306L316.461 96.3132Z" fill="black"/>
<path d="M314.281 95.5722C314.223 96.4642 314.885 97.2339 315.778 97.3131C316.728 97.4497 317.613 96.7879 317.75 95.8312C317.887 94.8817 317.225 93.9969 316.267 93.8602C315.317 93.7235 314.432 94.3853 314.295 95.342C314.288 95.414 314.281 95.4931 314.281 95.5722V95.5722Z" fill="black"/>
<path d="M254.139 301.427C268.238 284.163 300.022 238.441 254.822 223.961C254.822 223.961 162.213 185.397 297.021 172.643" stroke="#E3E9F1" stroke-width="2" stroke-miterlimit="10" stroke-linecap="round" stroke-dasharray="4.9 9.81"/>
</g>
<defs>
<clipPath id="clip0_338_2458">
<rect width="489" height="328" fill="white" transform="translate(5)"/>
</clipPath>
</defs>
</svg>
