<svg width="492" height="328" viewBox="0 0 492 328" fill="none" xmlns="http://www.w3.org/2000/svg">
<g clip-path="url(#clip0_338_2458)">
<path d="M43.7519 178.333C35.9211 180.879 29.2203 166.025 20.9793 166.025C-1.33273 166.025 2.40993 187.843 2.02127 196.065C1.57503 205.646 11.9105 211.459 19.6118 217.192C32.0777 226.572 40.1748 240.628 42.0389 256.109C42.5931 260.935 42.6003 266.079 45.1986 270.179C48.6246 275.596 55.4693 277.567 61.7527 278.897C76.6513 282.07 91.7803 284.062 106.996 284.846C114.999 285.256 123.262 285.393 130.574 288.666C139.686 292.745 146.07 301.132 154.268 306.83C165.835 314.872 180.539 317.203 194.617 316.598C208.695 315.994 222.493 312.728 236.405 310.534C268.124 305.542 300.477 306.153 331.987 312.34C344.64 314.829 357.833 318.195 370.177 314.498C398.067 306.146 405.084 268.604 429.051 252.08C435.529 247.627 443.122 244.8 448.844 239.441C455.38 233.32 458.784 224.522 464.916 217.998C469.738 212.862 476.123 209.279 480.491 203.74C485.717 197.122 489.999 188.094 490.899 179.671C492.13 168.161 481.801 163.845 472.265 162.407C458.165 160.306 442.755 166.723 428.361 177.297C399.448 198.518 358.956 197.482 323.091 198.115C283.879 198.834 246.885 177.973 207.666 177.362C195.43 177.182 183.281 178.973 171.06 179.261C130.179 180.21 89.0093 164.299 49.0924 173.218" fill="#E3E9F1"/>
<path d="M301.607 61.7198C247.266 61.7198 205.233 96.4067 205.233 139.201C205.233 181.994 399.996 181.994 399.996 139.201C399.996 96.4067 355.947 61.7198 301.607 61.7198V61.7198Z" fill="#FFE2DB"/>
<path d="M454.624 163.435H469.235C469.638 163.45 470.041 163.349 470.386 163.148H456.711C456.035 163.356 455.329 163.45 454.624 163.435Z" fill="#F1F5FB"/>
<path d="M477.584 148.617H463.261V149.192H462.47V148.617H463.261V137.395C463.261 132.626 459.396 128.763 454.625 128.763H444.188V114.016C444.188 109.247 440.323 105.384 435.551 105.384H420.581V71.4886C420.581 69.6255 419.062 68.1148 417.198 68.122H415.039V52.3684C416.874 52.3108 418.335 50.8218 418.349 48.9874V16.7464C418.349 14.8833 416.831 13.3726 414.967 13.3798H407.611C405.747 13.3798 404.235 14.8976 404.243 16.7607V26.6877H399.996C399.73 26.6733 399.463 26.7021 399.204 26.7596V19.4799C399.204 17.6168 397.686 16.1061 395.822 16.1133H388.466C386.602 16.1133 385.09 17.6312 385.097 19.4943V39.0605H382.722C382.456 39.0461 382.19 39.0748 381.931 39.1324V19.7676C381.931 17.9045 380.412 16.3939 378.548 16.4011H377.756C375.914 16.4298 374.431 17.9405 374.445 19.782V23.4507H372.574V3.36653C372.574 1.50343 371.055 -0.00719839 369.191 -4.9329e-06H361.835C359.971 -4.9329e-06 358.46 1.51781 358.467 3.38092V57.4757C356.747 57.6196 355.43 59.0583 355.444 60.7847V105.384H338.89C334.118 105.384 330.253 109.247 330.253 114.016V128.763H328.526V128.619C328.526 125.835 326.273 123.584 323.487 123.584H297.145C297.512 122.871 297.706 122.08 297.721 121.282V109.341C297.721 106.557 295.468 104.305 292.683 104.305H262.669V100.924C262.669 98.1403 260.416 95.8888 257.631 95.8888H247.267V67.7623C247.267 66.1726 245.978 64.885 244.388 64.885H243.38V46.3259C243.38 43.542 241.127 41.2904 238.342 41.2904H232.8C232.361 41.2689 231.922 41.3192 231.504 41.4343V26.2561C231.504 24.6664 230.216 23.3787 228.625 23.3787H221.068C219.478 23.3787 218.189 24.6664 218.189 26.2561V37.1182C216.663 37.7728 215.677 39.2691 215.67 40.9308V81.4299L209.912 81.5738V52.0087C209.912 49.6636 208.012 47.7717 205.666 47.7645C205.277 47.743 204.888 47.7933 204.514 47.9084V47.1891C204.514 46.2251 204.183 45.2828 203.578 44.5275C202.125 42.7291 199.49 42.4414 197.677 43.8801V40.7869C197.662 39.5424 197.115 38.3627 196.165 37.5498C195.215 36.5356 193.884 35.9673 192.494 35.9673H187.384C184.599 35.9673 182.346 38.2188 182.346 41.0027V46.182C182.116 46.7071 181.993 47.2682 181.986 47.8365V49.9226C181.367 49.5773 180.676 49.4046 179.971 49.419C179.345 49.419 178.733 49.5701 178.172 49.8506V47.6063C178.172 45.2612 176.264 43.3621 173.918 43.3693C171.571 43.3693 169.671 45.2756 169.679 47.6207V51.0735H167.375C164.59 51.0735 162.337 53.3251 162.337 56.109C162.272 56.3679 162.251 56.6341 162.265 56.9002V83.7318C160.372 84.0339 158.926 85.5662 158.738 87.4724C158.551 87.4149 158.357 87.3861 158.163 87.4005H154.348C154.082 87.3861 153.815 87.4077 153.556 87.4724V71.8626C153.556 69.5176 151.656 67.6257 149.31 67.6185H149.238V59.5618C149.245 57.6915 148.014 56.0442 146.215 55.5335V51.9943C146.215 49.6492 144.308 47.7502 141.961 47.7573C139.615 47.7573 137.715 49.6636 137.722 52.0087V60.497C135.426 60.5617 133.605 62.4464 133.619 64.7411V95.8888H131.244C128.459 95.8888 126.206 98.1403 126.206 100.924V104.305H93.098C90.3126 104.305 88.0598 106.557 88.0598 109.341V121.282C88.0742 122.08 88.2685 122.871 88.6356 123.584H63.3007C60.5153 123.584 58.2625 125.835 58.2625 128.619V132.144H54.3039C49.532 132.144 45.667 136.007 45.667 140.776V154.803C45.667 159.572 49.532 163.435 54.3039 163.435H87.8439C92.6158 163.435 96.4808 159.572 96.4808 154.803V145.596H189.471V170.773H322.264V163.507H454.696C455.402 163.486 456.1 163.385 456.784 163.219H477.584C480.37 163.219 482.622 160.968 482.622 158.184V153.58C482.622 153.516 482.622 153.444 482.622 153.379C482.543 150.674 480.291 148.545 477.584 148.617V148.617Z" fill="#F1F5FB"/>
<path d="M463.333 148.545H462.541V149.12H463.333V148.545Z" fill="#F1F5FB"/>
<path d="M463.333 148.545H462.541V149.12H463.333V148.545Z" fill="#F1F5FB"/>
<path d="M445.123 129.195C444.836 128.986 444.519 128.813 444.188 128.691C443.54 128.619 438.646 129.195 437.422 129.267C433.895 129.554 429.217 129.411 425.69 129.339C422.164 129.267 418.277 129.195 414.75 129.195C406.977 129.267 400.284 128.979 392.51 128.979C377.324 128.979 361.921 129.051 346.879 129.195C344.935 129.195 343.064 129.267 341.121 129.267C339.753 129.339 338.386 129.339 337.018 129.267C336.507 129.209 336.003 129.108 335.507 128.979L334.499 128.619C334.355 128.547 333.779 128.907 333.707 128.907C335.485 129.482 337.32 129.842 339.177 129.986C339.753 130.058 331.908 133.367 332.628 133.439C333.491 133.511 342.56 130.274 342.632 130.274H348.822C349.686 130.274 345.943 131.712 346.879 131.712C347.454 131.712 350.621 130.49 351.989 130.274C352.565 130.13 377.18 131.065 389.487 131.065C389.559 131.065 389.991 133.439 390.711 133.727C391.287 134.014 392.078 131.209 392.582 131.209C400.787 131.497 409.064 130.993 417.269 131.497C417.413 131.497 424.251 134.806 424.611 134.806C425.115 134.806 420.652 130.705 420.724 130.705C428.886 130.777 437.034 130.274 445.123 129.195V129.195Z" fill="#F9FBFF"/>
<path d="M442.461 115.311C439.078 117.829 398.628 116.318 381.283 115.599C372.286 115.239 363.361 115.239 354.364 115.311C349.758 115.311 347.095 115.527 342.488 115.527C338.098 115.455 337.306 113.009 336.011 113.729C335.867 113.8 335.723 113.872 335.723 114.088C335.507 114.304 336.515 115.527 337.81 116.966C338.242 117.397 331.117 122.72 331.692 123.08C332.556 123.655 339.753 118.404 341.049 118.404C342.704 118.404 344.36 118.476 346.015 118.476C346.447 118.476 343.496 120.634 343.928 120.706C344.36 120.778 347.599 118.476 348.03 118.476C359.546 118.476 375.669 116.462 387.184 118.692C387.616 118.764 387.328 122.864 387.688 123.008C388.048 123.152 389.632 118.692 390.063 118.692C398.988 118.692 413.455 120.778 421.012 120.562C421.156 120.562 424.323 123.152 425.619 124.087C425.698 124.166 425.799 124.209 425.907 124.231C426.338 124.231 423.747 120.634 423.891 120.634C425.907 120.706 443.972 117.253 444.62 116.606C444.62 116.606 442.749 115.095 442.461 115.311Z" fill="#F9FBFF"/>
<path d="M462.541 144.589C454.624 146.531 446.131 146.099 437.854 146.099H431.305C429.145 146.099 426.986 146.099 424.755 146.027C422.524 145.956 420.436 145.956 418.205 145.884L411.656 145.668C410.936 145.668 410.288 145.596 409.568 145.596C399.852 145.164 390.135 144.517 380.419 144.948C373.005 145.236 365.664 146.171 358.323 146.459C352.781 146.675 346.879 147.035 341.481 145.956C339.343 145.452 337.299 144.596 335.435 143.438C335.435 143.438 334.643 143.869 334.787 144.013C335.442 145.042 336.162 146.027 336.946 146.963C337.018 146.963 336.515 147.538 336.443 147.538C335.939 148.042 335.435 148.473 334.931 148.977C334.283 149.624 333.564 150.2 332.916 150.847C332.268 151.494 331.548 152.142 330.829 152.789C330.267 153.307 329.735 153.861 329.245 154.444C329.101 154.588 328.957 154.803 328.813 154.947C328.669 155.091 328.525 155.307 328.525 155.523C328.799 155.451 329.051 155.3 329.245 155.091C330.829 154.084 332.268 153.005 333.779 151.926C335.075 150.991 336.227 149.912 337.594 149.049C338.53 148.473 340.113 147.61 340.761 147.682C341.121 147.754 342.848 147.97 344.36 148.114C344.72 148.185 340.977 151.638 341.265 151.71C341.553 151.782 345.871 148.329 346.087 148.329C347.714 148.531 349.348 148.624 350.981 148.617C354.724 148.761 358.467 148.617 362.209 148.401C369.767 147.97 377.324 147.178 384.881 147.106C388.552 147.106 393.23 147.61 396.901 147.61C397.261 147.61 396.685 156.098 397.189 156.242C397.693 156.386 399.204 147.754 399.348 147.754C402.587 147.754 409.784 148.617 413.023 148.761C420.796 149.121 429.721 148.977 437.494 148.761C437.998 148.761 443.324 154.3 443.756 154.3C444.62 154.3 439.869 148.689 440.301 148.689C444.836 148.401 452.105 148.761 456.639 147.97C459.95 147.25 460.67 146.531 463.261 145.308C463.405 145.164 462.613 144.589 462.541 144.589V144.589Z" fill="#F9FBFF"/>
<path d="M296.929 124.879C295.993 124.807 288.508 125.526 286.637 125.67C281.167 126.03 274.257 125.814 268.787 125.742C263.461 125.67 257.631 125.526 252.233 125.526C240.501 125.526 230.353 125.166 218.549 125.166C195.517 125.166 172.198 125.31 149.31 125.454C146.431 125.454 143.48 125.526 140.601 125.526C138.586 125.526 136.354 125.67 134.339 125.526C133.591 125.447 132.842 125.325 132.108 125.166C131.748 125.094 130.956 124.807 130.596 124.735C130.179 124.857 129.776 125.001 129.373 125.166C132.072 125.929 134.85 126.411 137.65 126.605C138.586 126.677 126.566 131.209 127.718 131.281C129.013 131.353 142.76 127.037 142.904 127.037H152.261C153.484 127.037 147.798 128.979 149.238 128.979C150.101 128.979 154.924 127.324 157.011 127.037C157.947 126.893 195.229 128.116 213.871 128.116C214.015 128.116 214.662 131.209 215.742 131.641C216.678 131.928 217.829 128.188 218.621 128.188C231.072 128.619 243.668 127.9 256.12 128.619C256.335 128.619 266.7 133.079 267.204 133.079C267.995 133.079 261.302 127.612 261.374 127.612C273.732 127.691 286.09 127.015 298.368 125.598C297.944 125.26 297.454 125.015 296.929 124.879V124.879Z" fill="#F9FBFF"/>
<path d="M299.591 147.609C299.591 147.609 296.065 146.099 295.561 146.315C289.299 148.832 213.15 147.322 180.618 146.602C163.776 146.243 146.862 146.243 130.02 146.315C121.455 146.315 116.345 146.53 107.78 146.53C99.503 146.458 98.0635 144.013 95.5444 144.732C95.2853 144.811 95.0406 144.926 94.8247 145.092C94.3928 145.307 96.2642 146.53 98.7113 147.969C99.503 148.401 86.1878 153.724 87.2674 154.083C88.8508 154.659 102.31 149.408 104.757 149.408C107.924 149.408 111.019 149.48 114.114 149.48C114.906 149.48 109.292 151.638 110.155 151.71C111.019 151.782 117.137 149.48 117.928 149.48C139.593 149.48 169.822 147.466 191.486 149.695C192.206 149.767 191.558 153.868 192.422 154.012C193.141 154.155 196.164 149.695 196.884 149.695C213.654 149.695 240.86 151.782 255.111 151.566C255.399 151.566 261.301 154.155 263.748 155.091C263.928 155.17 264.122 155.22 264.324 155.234C265.188 155.234 260.293 151.638 260.581 151.638C264.396 151.71 298.368 148.257 299.591 147.609V147.609Z" fill="#F9FBFF"/>
<path d="M262.957 106.319C262.619 106.01 262.23 105.772 261.805 105.6C261.086 105.456 255.04 106.247 253.456 106.391C248.994 106.751 243.236 106.535 238.845 106.463C234.455 106.391 229.705 106.247 225.314 106.247C215.67 106.247 207.393 105.887 197.748 105.887C178.963 105.887 159.89 105.959 141.176 106.175C138.801 106.175 136.426 106.247 134.051 106.247C132.324 106.319 130.668 106.319 128.941 106.247C128.365 106.175 127.717 106.031 127.07 105.959C126.782 105.815 126.134 105.6 125.846 105.456C125.702 105.384 124.91 105.887 124.838 105.887C127.019 106.671 129.294 107.175 131.604 107.398C132.324 107.47 122.463 112.146 123.471 112.218C124.478 112.29 135.706 107.758 135.85 107.758H143.48C144.559 107.758 139.881 109.772 141.033 109.772C141.752 109.772 145.639 108.117 147.366 107.758C148.158 107.614 178.603 108.909 193.862 108.909C194.006 108.909 194.509 112.146 195.445 112.577C196.237 112.865 197.172 108.981 197.82 108.981C208.041 109.412 218.261 108.693 228.481 109.412C228.625 109.412 237.118 114.088 237.55 114.088C238.126 114.088 232.656 108.405 232.728 108.405C242.847 108.52 252.952 107.822 262.957 106.319V106.319Z" fill="#F9FBFF"/>
<path d="M368.04 7.98447V8.0564C367.968 8.2722 367.968 8.48801 367.896 8.70381C367.881 9.09226 367.838 9.47351 367.752 9.85476C367.593 11.1208 367.55 12.3941 367.608 13.6673C367.673 14.2212 367.622 14.7823 367.464 15.3218C367.457 15.3793 367.428 15.4297 367.392 15.4657H367.32C366.816 15.2499 366.096 14.8182 366.096 15.9692L365.88 44.4553V50.4978C365.88 51.6487 365.377 51.4329 364.657 51.5049C364.578 51.4977 364.498 51.5193 364.441 51.5768C364.383 51.6847 364.355 51.8142 364.369 51.9365C364.398 52.8932 364.563 53.8356 364.873 54.7419C365.089 55.5332 365.449 56.1806 365.736 56.9719C366.6 59.5615 366.024 64.597 366.024 67.5463C366.024 69.4166 365.88 71.2149 365.88 73.0852C365.931 74.4808 366.046 75.8763 366.24 77.2574C366.355 77.1424 366.636 76.7683 366.622 76.4734C366.73 76.7323 366.823 76.9913 366.888 77.2574C367.464 74.2362 367.176 71.143 367.176 68.0498C367.176 65.2444 367.392 62.4389 367.464 59.6335C367.464 59.1012 367.536 58.5688 367.68 58.0509C367.867 57.6121 367.989 57.1517 368.04 56.6842C367.968 56.3964 367.896 56.1806 367.824 55.8929C367.248 54.0226 367.608 51.5049 367.608 49.4907L367.68 45.6782L367.752 41.2902L367.824 36.5425L367.896 31.6509L367.968 26.7594L368.04 22.0836L368.112 17.8395C368.184 16.5447 368.184 15.2499 368.256 13.955C368.327 12.948 368.327 11.8689 368.327 10.8618V9.35122C368.327 8.91242 368.256 8.47362 368.112 8.0564C368.112 8.01324 368.083 7.98447 368.04 7.98447V7.98447Z" fill="#F9FBFF"/>
<path d="M380.059 25.681C380.224 24.5372 380.253 23.3791 380.131 22.2281C380.131 22.0771 380.051 21.9404 379.915 21.8684C379.195 21.4368 379.267 25.1055 379.195 25.7529C378.187 49.4194 378.907 73.2297 379.411 96.8962C379.404 97.558 379.497 98.2126 379.699 98.8384C380.85 93.5153 380.85 87.185 380.922 81.5741C380.994 75.5316 380.85 69.4172 380.706 63.3747L380.059 25.681V25.681Z" fill="#F9FBFF"/>
<path d="M395.101 22.5155V22.5874C395.101 22.8032 395.029 23.091 395.029 23.3068C394.957 23.7384 394.957 24.0981 394.885 24.5297C394.727 25.8677 394.684 27.2128 394.742 28.558C394.828 29.1335 394.799 29.7162 394.67 30.2844C394.662 30.342 394.634 30.3923 394.598 30.4283H394.526C394.166 30.2844 393.59 29.7809 393.59 31.0038C393.446 41.0027 393.446 51.0016 393.374 61.0005V67.3307C393.374 68.5536 393.014 68.3378 392.438 68.4097C392.366 68.4817 392.294 68.4817 392.294 68.5536C392.237 68.6615 392.208 68.791 392.222 68.9133C392.23 69.906 392.352 70.8987 392.582 71.8626C392.755 72.6683 392.971 73.4596 393.23 74.2364C393.878 77.0419 393.446 82.2931 393.446 85.3863C393.446 87.3285 393.302 89.2708 393.302 91.213C393.302 91.3569 393.446 95.4571 393.59 95.601C393.849 95.2485 393.935 94.7953 393.806 94.3781C393.935 94.7306 394.029 95.0903 394.094 95.4571C394.526 92.292 394.31 88.983 394.31 85.746C394.31 82.7967 394.454 79.8473 394.526 76.898C394.54 76.3441 394.583 75.7902 394.67 75.2435C394.835 74.7832 394.929 74.294 394.957 73.8048C394.943 73.5099 394.9 73.2222 394.814 72.9416C394.382 70.9275 394.67 68.3378 394.67 66.1798L394.742 62.1514L394.814 57.5476L394.885 52.5841L394.957 47.4049L395.029 42.2256L395.101 37.334L395.173 32.8741C395.173 31.5073 395.245 30.1406 395.245 28.7738C395.317 27.6948 395.317 26.6158 395.317 25.5368V23.9542C395.339 23.4938 395.296 23.0334 395.173 22.5874C395.173 22.5443 395.145 22.5155 395.101 22.5155V22.5155Z" fill="#F9FBFF"/>
<path d="M403.234 41.0749C403.285 40.2333 403.256 39.3917 403.162 38.5572C403.141 38.4493 403.098 38.3486 403.019 38.2695C402.443 37.9098 402.515 40.6433 402.443 41.1469C401.651 58.6989 402.227 76.3229 402.659 93.8749C402.659 94.3641 402.731 94.846 402.875 95.3136C403.81 91.3572 403.81 86.6815 403.882 82.5093C403.954 77.9774 403.81 73.5174 403.738 68.9856L403.234 41.0749V41.0749Z" fill="#F9FBFF"/>
<path d="M394.31 17.7681C393.086 17.4804 391.82 17.4084 390.567 17.5523C389.912 17.6242 389.25 17.5523 388.624 17.3365C388.077 17.0847 387.444 17.0847 386.896 17.3365C386.529 17.6602 386.342 18.1422 386.393 18.6313C386.105 22.3719 386.753 26.1845 386.824 29.925C386.911 31.8673 386.882 33.8095 386.753 35.7518C386.688 35.9891 386.666 36.2265 386.681 36.4711C386.681 36.4711 386.824 37.2624 387.184 35.6079C387.4 34.3706 387.472 33.1189 387.4 31.8673C387.472 29.7092 387.544 27.6231 387.616 25.4651C387.688 23.8106 387.76 22.0842 387.976 20.4297C388.048 19.9261 387.976 18.991 388.552 18.7033C388.689 18.6457 388.833 18.6169 388.984 18.6313C390.279 18.6313 391.582 18.7033 392.87 18.8471C393.417 18.9047 393.972 18.9263 394.526 18.9191C395.058 18.8327 395.591 18.7105 396.109 18.5594C395.893 18.1278 394.886 17.912 394.31 17.7681V17.7681Z" fill="#F9FBFF"/>
<path d="M409.137 15.1065C408.554 15.1281 407.978 15.085 407.409 14.9627C406.913 14.8188 406.394 14.8188 405.898 14.9627C405.603 15.1209 405.415 15.4231 405.394 15.7539C405.178 18.0559 405.754 20.4297 405.826 22.8035C405.876 24.0264 405.847 25.2493 405.754 26.4722C405.696 26.6089 405.667 26.7527 405.682 26.9038C405.682 26.9038 405.754 27.4073 406.114 26.4003C406.25 25.6378 406.322 24.8681 406.33 24.0984C406.402 22.8035 406.402 21.4368 406.545 20.142C406.596 19.0773 406.711 18.0199 406.905 16.9768C406.977 16.6891 406.905 16.0417 407.409 15.8978C407.553 15.8978 407.697 15.8259 407.841 15.8259C408.993 15.8043 410.151 15.8475 411.296 15.9698C411.8 16.0273 412.303 16.0561 412.807 16.0417C413.311 15.9698 413.743 15.8978 414.175 15.8259C413.707 15.4446 413.124 15.2432 412.519 15.2504C411.397 15.0922 410.267 15.0418 409.137 15.1065V15.1065Z" fill="#F9FBFF"/>
<path d="M367.896 1.65449C366.672 1.36675 365.405 1.29482 364.153 1.43869C363.498 1.51062 362.836 1.43869 362.21 1.22289C361.663 0.971115 361.029 0.971115 360.482 1.22289C360.115 1.54659 359.928 2.02855 359.979 2.51771C359.691 6.2583 360.338 10.0708 360.41 13.8114C360.497 15.7537 360.468 17.6959 360.338 19.6381C360.274 19.8755 360.252 20.1129 360.266 20.3575C360.266 20.3575 360.41 21.1488 360.77 19.4943C360.986 18.257 361.058 17.0053 360.986 15.7537C361.058 13.5956 361.13 11.5095 361.202 9.35149C361.274 7.697 361.346 5.97057 361.562 4.31607C361.634 3.81253 361.562 2.87738 362.138 2.58964C362.275 2.53209 362.419 2.50332 362.57 2.51771C363.865 2.51771 365.168 2.58964 366.456 2.73351C367.003 2.79106 367.558 2.81264 368.112 2.80545C368.644 2.71912 369.177 2.59684 369.695 2.44577C369.479 2.0861 368.4 1.79836 367.896 1.65449V1.65449Z" fill="#F9FBFF"/>
<path d="M412.592 71.2871C411.944 71.2152 411.512 71.431 411.512 70.2081V63.8779L411.296 33.8812C411.296 32.6583 410.648 33.1618 410.217 33.3057H410.145C410.109 33.2697 410.08 33.2194 410.073 33.1618C409.95 32.5935 409.907 32.0181 409.929 31.4354C409.986 30.0902 409.943 28.745 409.785 27.4071C409.713 26.9754 409.713 26.6158 409.641 26.1842C409.626 25.9396 409.576 25.695 409.497 25.4648V25.3929C409.454 25.3929 409.425 25.4217 409.425 25.4648C409.281 25.9036 409.209 26.3712 409.209 26.8316V28.4141C409.209 29.4932 409.209 30.5722 409.281 31.6512C409.353 33.0179 409.353 34.3847 409.425 35.7515L409.497 40.2114L409.569 45.103L409.641 50.2822L409.713 55.4615L409.785 60.425L409.857 65.0288L409.929 69.0572C409.929 71.2152 410.289 73.8048 409.713 75.819C409.626 76.0996 409.583 76.3873 409.569 76.6822C409.619 77.1786 409.742 77.6605 409.929 78.1209C410.051 78.6604 410.094 79.2215 410.073 79.7754C410.145 82.7247 410.289 85.674 410.361 88.6234C410.361 91.8604 410.145 95.1694 410.648 98.3345C410.706 98.0899 410.785 97.8526 410.872 97.6152C410.85 97.982 411.116 98.3705 411.224 98.4784C411.368 98.3345 411.584 94.2343 411.584 94.0904C411.584 92.1482 411.44 90.2059 411.44 88.2637C411.44 85.1705 410.936 79.9193 411.656 77.1138C411.872 76.3225 412.232 75.5313 412.448 74.74C412.736 73.7833 412.88 72.7906 412.88 71.7907C412.894 71.6684 412.865 71.5389 412.808 71.431C412.736 71.3591 412.664 71.2871 412.592 71.2871Z" fill="#F9FBFF"/>
<path d="M241.22 45.103C241.271 44.6138 241.084 44.1319 240.717 43.8082C240.17 43.5564 239.536 43.5564 238.989 43.8082C238.363 44.024 237.701 44.0959 237.046 44.024C235.794 43.8801 234.527 43.952 233.303 44.2398C232.727 44.3836 231.72 44.6714 231.504 45.031C232.022 45.1821 232.555 45.3044 233.087 45.3907C233.642 45.3979 234.196 45.3763 234.743 45.3188C236.031 45.1749 237.334 45.103 238.629 45.103C238.78 45.0886 238.924 45.1174 239.061 45.1749C239.637 45.4626 239.565 46.3978 239.637 46.9013C239.853 48.5558 239.925 50.2823 239.997 51.9368C240.069 54.0948 240.141 56.1809 240.213 58.3389C240.141 59.5906 240.213 60.8423 240.429 62.0795C240.789 63.734 240.933 62.9427 240.933 62.9427C240.947 62.6982 240.925 62.4608 240.861 62.2234C240.731 60.2812 240.702 58.3389 240.789 56.3967C240.861 52.6561 241.508 48.8436 241.22 45.103V45.103Z" fill="#F9FBFF"/>
<path d="M230.28 25.6803C230.28 25.1984 230.108 24.738 229.777 24.3855C229.273 24.0259 228.769 24.2417 228.193 24.3855C227.617 24.6013 227.006 24.6733 226.394 24.6013C225.192 24.4575 223.968 24.5294 222.795 24.8171C222.119 24.925 221.478 25.1984 220.924 25.6084C221.42 25.7595 221.924 25.8818 222.435 25.9681C222.961 26.0184 223.493 25.9897 224.019 25.8961C225.264 25.7523 226.509 25.6803 227.761 25.6803C227.913 25.666 228.056 25.6947 228.193 25.7523C228.769 26.04 228.697 26.9752 228.769 27.4787C228.985 29.1332 229.057 30.8596 229.129 32.5141C229.201 34.6722 229.273 36.7583 229.345 38.9163C229.345 40.168 229.417 41.4124 229.561 42.6569C229.921 44.3114 229.993 43.5201 229.993 43.5201C230.007 43.2755 229.985 43.0382 229.921 42.8008C229.791 40.8585 229.762 38.9163 229.849 36.9741C229.921 33.2335 230.496 29.4209 230.28 25.6803V25.6803Z" fill="#F9FBFF"/>
<path d="M195.661 38.9882C195.661 38.5063 195.489 38.0459 195.158 37.6934C194.654 37.3337 194.15 37.5495 193.574 37.6934C192.998 37.9092 192.387 37.9812 191.775 37.9092C190.573 37.7653 189.349 37.8373 188.176 38.125C187.507 38.2545 186.866 38.5279 186.305 38.9163C186.801 39.0674 187.305 39.1897 187.816 39.276C188.342 39.2904 188.874 39.2616 189.4 39.204C190.645 39.0602 191.89 38.9882 193.142 38.9882C193.293 38.9738 193.437 39.0026 193.574 39.0602C194.15 39.3479 194.078 40.2831 194.15 40.7866C194.366 42.4411 194.438 44.1675 194.51 45.822C194.582 47.9801 194.654 50.0662 194.726 52.2242C194.69 53.4759 194.762 54.7275 194.942 55.9648C195.301 57.6193 195.373 56.828 195.373 56.828C195.388 56.5834 195.366 56.346 195.301 56.1087C195.172 54.1664 195.143 52.2242 195.229 50.282C195.301 46.5414 195.877 42.7288 195.661 38.9882V38.9882Z" fill="#F9FBFF"/>
<path d="M244.819 66.6111C244.121 66.6399 243.437 66.8125 242.804 67.1147L240.357 68.1937C240.285 68.1937 240.141 68.3375 239.925 68.4095C239.349 68.6253 238.802 68.8914 238.27 69.2008C238.608 69.1864 238.946 69.1432 239.277 69.0569C240.429 68.8411 241.652 68.5533 242.804 68.2656C244.603 67.9059 244.531 74.0204 244.963 74.7397C245.395 75.4591 245.539 75.0994 245.539 75.0994C245.539 75.0994 244.891 73.2291 245.899 68.6972C246.043 68.2296 246.043 67.7261 245.899 67.2585C245.827 66.9708 245.611 66.6111 244.819 66.6111V66.6111Z" fill="#F9FBFF"/>
<path d="M207.465 49.491C206.896 49.5054 206.349 49.678 205.882 49.9945L204.01 51.0735C203.938 51.0735 203.794 51.2174 203.65 51.2893C203.218 51.5771 202.859 51.7929 202.427 52.0806C202.693 52.0806 202.967 52.0231 203.218 51.9367C204.154 51.7209 205.09 51.4332 205.953 51.1455C207.321 50.7858 207.249 56.9002 207.609 57.6196C207.969 58.3389 208.041 57.9792 208.041 57.9792C208.041 57.9792 207.537 56.1089 208.329 51.5771C208.473 51.1095 208.473 50.6059 208.329 50.1384C208.213 49.7571 207.861 49.491 207.465 49.491V49.491Z" fill="#F9FBFF"/>
<path d="M147.295 57.6193C146.841 57.6481 146.41 57.8207 146.071 58.1228L144.632 59.2019C144.56 59.2019 144.488 59.3457 144.344 59.4177C144.013 59.655 143.696 59.9212 143.408 60.2089C143.61 60.1945 143.804 60.1442 143.984 60.0651C144.704 59.8493 145.352 59.5615 146.071 59.2738C147.151 58.9141 147.079 65.0286 147.367 65.7479C147.655 66.4672 147.727 66.1076 147.727 66.1076C147.727 66.1076 147.367 64.2373 147.943 59.7054C148.015 59.2306 148.015 58.7415 147.943 58.2667C147.943 57.907 147.655 57.6193 147.295 57.6193V57.6193Z" fill="#F9FBFF"/>
<path d="M150.821 70.2801C150.368 70.3088 149.936 70.4815 149.598 70.7836L148.158 71.8626C148.086 71.8626 148.014 72.0065 147.87 72.0784C147.582 72.3662 147.222 72.582 146.935 72.8697C147.136 72.8553 147.33 72.805 147.51 72.7258C148.23 72.51 148.878 72.2223 149.598 71.9346C150.677 71.5749 150.605 77.6893 150.893 78.4087C151.181 79.128 151.253 78.7683 151.253 78.7683C151.253 78.7683 150.893 76.898 151.469 72.3662C151.541 71.8914 151.541 71.4022 151.469 70.9275C151.469 70.5678 151.181 70.2801 150.821 70.2801V70.2801Z" fill="#F9FBFF"/>
<path d="M168.31 52.3683C167.857 52.3971 167.425 52.5698 167.087 52.8719L165.647 53.9509C165.575 53.9509 165.503 54.0948 165.359 54.1667C165.072 54.3825 164.784 54.6703 164.424 54.958C164.625 54.9436 164.82 54.8932 165 54.8141C165.719 54.5983 166.367 54.3106 167.087 54.0228C168.166 53.6632 168.095 59.7776 168.382 60.4969C168.67 61.2163 168.742 60.8566 168.742 60.8566C168.742 60.8566 168.382 58.9863 168.958 54.4544C169.03 53.9797 169.03 53.4905 168.958 53.0158C168.958 52.6561 168.67 52.3683 168.31 52.3683V52.3683Z" fill="#F9FBFF"/>
<path d="M189.472 48.0526C189.558 47.3332 189.529 46.6067 189.4 45.8945C189.4 45.7795 189.299 45.6859 189.184 45.6787C188.392 45.391 188.464 47.8368 188.464 48.1965C187.456 63.7343 188.176 79.3441 188.752 94.882C188.737 95.3064 188.838 95.7308 189.04 96.1049C190.263 92.652 190.263 88.4079 190.335 84.7392C190.407 80.7828 190.263 76.7545 190.119 72.7981L189.472 48.0526V48.0526Z" fill="#F9FBFF"/>
<path d="M202.643 58.4828V58.5547C202.571 58.6986 202.571 58.8425 202.499 58.9863C202.484 59.2525 202.434 59.5186 202.355 59.7776C202.196 60.6336 202.153 61.504 202.211 62.3672C202.268 62.7341 202.218 63.1082 202.067 63.4463C202.067 63.5182 201.995 63.5182 201.923 63.5182C201.419 63.3743 200.699 63.0866 200.699 63.8779C200.627 70.352 200.555 76.7542 200.483 83.2283V87.3285C200.411 88.1918 199.979 87.976 199.26 88.0479C199.231 88.0479 199.209 88.0479 199.181 88.0479C199.044 88.0695 198.95 88.199 198.972 88.3356C198.986 89.0118 199.159 89.6808 199.476 90.2779C199.735 90.7958 200.023 91.2993 200.339 91.7885C201.203 93.5868 200.627 96.9678 200.627 98.9819C200.627 100.205 200.483 101.5 200.483 102.723C200.526 103.686 200.649 104.65 200.843 105.6C200.958 105.485 201.253 105.226 201.217 104.981C201.311 105.161 201.412 105.341 201.491 105.528C202.067 103.514 201.779 101.356 201.779 99.2697C201.779 97.3994 201.995 95.4572 202.067 93.5869C202.067 93.22 202.139 92.8531 202.283 92.5078C202.427 92.1482 202.643 91.9324 202.643 91.5727C202.585 91.3785 202.513 91.1842 202.427 90.9972C201.851 89.7024 202.211 87.976 202.211 86.6092L202.283 84.0196L202.355 81.0702L202.427 77.8332L202.499 74.5242L202.571 71.2152L202.643 68.0501L202.714 65.1727C202.786 64.2375 202.786 63.3743 202.858 62.5111C202.916 61.8206 202.945 61.1228 202.93 60.425V59.4179C202.93 59.1158 202.851 58.8209 202.714 58.5547C202.714 58.5116 202.686 58.4828 202.643 58.4828V58.4828Z" fill="#F9FBFF"/>
<path d="M224.667 37.1902C224.595 36.255 224.523 35.3199 224.523 34.4567C224.523 34.3847 224.451 34.2409 224.451 34.1689C224.091 33.8092 224.091 36.6866 224.091 37.1902C223.587 55.8212 223.947 74.5961 224.235 93.2272C224.213 93.7379 224.256 94.2415 224.379 94.7378C224.955 90.5656 224.955 85.5302 225.027 81.1422C225.098 76.3945 224.955 71.5749 224.955 66.8272L224.667 37.1902V37.1902Z" fill="#F9FBFF"/>
<path d="M233.16 52.009C233.088 51.3616 233.088 50.6422 233.016 49.8509C233.016 49.779 232.944 49.6351 232.872 49.6351C232.296 49.3474 232.368 51.7932 232.368 52.1528C231.648 67.6907 232.152 83.3005 232.584 98.8384C232.584 99.2556 232.656 99.6728 232.8 100.061C233.663 96.6084 233.663 92.3643 233.735 88.6956C233.807 84.7392 233.663 80.7109 233.592 76.7545L233.16 52.009V52.009Z" fill="#F9FBFF"/>
<path d="M175.005 58.4109C175.012 57.8138 174.99 57.2096 174.933 56.6125C174.933 56.5406 174.861 56.4686 174.789 56.3967C174.213 56.1809 174.285 58.1231 174.285 58.4109C173.565 70.7836 174.069 83.2283 174.501 95.601C174.501 95.9463 174.573 96.2916 174.717 96.6081C175.58 93.8027 175.58 90.4937 175.652 87.6163C175.724 84.4512 175.58 81.2861 175.509 78.1209L175.005 58.4109V58.4109Z" fill="#F9FBFF"/>
<path d="M175.436 44.6711C174.983 44.6999 174.551 44.8725 174.213 45.1746L172.773 46.2536L172.485 46.4694C172.154 46.714 171.845 46.973 171.55 47.2607C171.751 47.2463 171.946 47.196 172.126 47.1169C172.845 46.9011 173.493 46.6133 174.213 46.3256C175.292 45.9659 175.22 52.0803 175.508 52.7997C175.796 53.519 175.868 53.1594 175.868 53.1594C175.868 53.1594 175.508 51.2891 176.084 46.7572C176.156 46.2824 176.156 45.7933 176.084 45.3185C176.084 44.9588 175.796 44.6711 175.436 44.6711V44.6711Z" fill="#F9FBFF"/>
<path d="M165.288 59.13C165.36 58.7271 165.36 58.3099 165.288 57.9071C165.288 57.8279 165.223 57.7704 165.144 57.7632C164.64 57.6193 164.712 58.9142 164.64 59.13C163.992 67.6182 164.496 76.1784 164.784 84.6667C164.784 84.9185 164.863 85.1703 165 85.3861C165.791 83.5158 165.791 81.2139 165.863 79.1997C165.935 77.0417 165.791 74.8117 165.72 72.6537L165.288 59.13V59.13Z" fill="#F9FBFF"/>
<path d="M143.264 67.4027C143.465 66.7984 143.494 66.151 143.336 65.5324C143.336 65.4604 143.264 65.3885 143.192 65.3166C142.688 65.1008 142.76 67.1149 142.76 67.4746C142.112 80.7825 142.616 94.0904 142.904 107.398C142.918 107.765 142.962 108.125 143.048 108.477C143.84 105.528 143.84 101.931 143.84 98.7661C143.912 95.3852 143.768 91.9324 143.696 88.5514L143.264 67.4027V67.4027Z" fill="#F9FBFF"/>
<path d="M137.65 64.885C137.779 64.2735 137.808 63.6405 137.722 63.0147C137.722 62.9427 137.65 62.8708 137.578 62.7989C137.074 62.5831 137.146 64.5972 137.146 64.9569C136.498 78.2648 137.002 91.5727 137.29 104.881C137.304 105.247 137.347 105.607 137.434 105.96C138.225 103.01 138.225 99.4136 138.225 96.2484C138.297 92.8675 138.153 89.4147 138.081 86.0337L137.65 64.885V64.885Z" fill="#F9FBFF"/>
<path d="M201.707 45.4626C201.175 45.4626 200.642 45.5346 200.124 45.6784L198.252 46.182C198.13 46.182 198.008 46.2036 197.893 46.2539C197.461 46.3043 197.036 46.4553 196.669 46.6855C196.935 46.6999 197.202 46.6711 197.461 46.6136C198.396 46.4697 199.332 46.3978 200.196 46.2539C201.563 46.0381 201.491 48.8436 201.851 49.1313C202.211 49.419 202.283 49.2752 202.283 49.2752C202.283 49.2752 201.779 48.412 202.571 46.3978C202.715 46.2036 202.715 45.9446 202.571 45.7504C202.499 45.6065 202.355 45.4626 201.707 45.4626V45.4626Z" fill="#F9FBFF"/>
<path d="M143.192 49.4912C142.76 49.4984 142.336 49.6207 141.969 49.8509L140.529 50.7141C140.457 50.7141 140.385 50.786 140.241 50.8579C139.946 51.0522 139.63 51.2248 139.306 51.3615C139.5 51.3759 139.694 51.3471 139.881 51.2896C140.601 51.0738 141.249 50.8579 141.969 50.6421C143.048 50.3544 142.976 54.9582 143.264 55.5337C143.552 56.1092 143.624 55.8214 143.624 55.8214C143.624 55.8214 143.264 54.4547 143.84 51.0018C143.912 50.6493 143.912 50.2753 143.84 49.9228C143.754 49.6494 143.48 49.4696 143.192 49.4912V49.4912Z" fill="#F9FBFF"/>
<path d="M378.763 19.6379L377.252 18.5588C376.892 18.2495 376.431 18.0697 375.956 18.0553C375.589 18.0697 375.294 18.343 375.237 18.7027C375.165 19.1775 375.165 19.6666 375.237 20.1414C375.884 24.6733 375.453 26.5436 375.453 26.5436C375.453 26.5436 375.524 26.9032 375.812 26.1839C376.1 25.4646 376.028 19.3501 377.108 19.7098C377.835 20.0191 378.583 20.2781 379.339 20.5011C379.548 20.5802 379.764 20.6306 379.987 20.6449C379.663 20.4004 379.346 20.1342 379.051 19.8537C378.907 19.7817 378.835 19.6379 378.763 19.6379V19.6379Z" fill="#F9FBFF"/>
<path d="M472.258 167.464L456.136 167.68V166.817C456.136 163.637 453.559 161.062 450.378 161.062H448.578V159.479C448.578 156.3 446.002 153.724 442.82 153.724H439.798C438.718 152.12 436.911 151.149 434.975 151.135H433.248C432.355 148.934 430.225 147.488 427.85 147.466H421.372C418.191 147.466 415.614 150.041 415.614 153.221V154.3C413.88 154.638 412.39 155.746 411.584 157.321C410.684 156.746 409.633 156.444 408.561 156.458H395.461V154.875C395.461 152.034 393.381 149.617 390.567 149.193V148.545C390.582 145.581 388.336 143.085 385.385 142.79C384.694 140.251 382.398 138.489 379.771 138.474H366.528C363.346 138.474 360.77 141.05 360.77 144.229V149.121H344.36C341.178 149.121 338.602 151.696 338.602 154.875V160.918H328.885C326.74 160.932 324.783 162.119 323.775 164.011H318.809C316.412 164.033 314.274 165.515 313.411 167.752C313.339 167.896 313.339 168.039 313.267 168.183H278.935C278.474 165.399 276.071 163.364 273.249 163.364H236.182V161.278C236.182 158.098 233.606 155.523 230.425 155.523H209.624V153.365C209.624 150.185 207.047 147.61 203.866 147.61H192.71V147.538C192.717 144.524 190.392 142.006 187.384 141.783C187.442 141.524 187.47 141.258 187.456 140.992C187.456 137.813 184.879 135.237 181.698 135.237H180.762C179.711 133.54 177.862 132.504 175.868 132.504H167.591C165.59 132.497 163.733 133.532 162.697 135.237H159.026C155.845 135.237 153.268 137.813 153.268 140.992V141.568C150.591 141.661 148.338 143.61 147.87 146.243C147.078 145.812 146.186 145.589 145.279 145.596H142.976V139.697C142.976 136.856 140.896 134.439 138.082 134.014V133.367C138.096 130.403 135.85 127.907 132.899 127.612C132.209 125.073 129.913 123.311 127.285 123.296H114.042C110.861 123.296 108.284 125.871 108.284 129.051V133.942H91.8742C88.6929 133.942 86.1162 136.518 86.1162 139.697V145.74H76.3997C74.2549 145.754 72.2972 146.941 71.2895 148.833H66.3233C63.142 148.833 60.5654 151.408 60.5654 154.588V155.451H47.9699C44.7886 155.451 42.2119 158.026 42.2119 161.206V163.292H33.5031C31.8117 163.27 30.1994 164.011 29.1126 165.306H27.2413C25.2044 165.292 23.3115 166.356 22.2751 168.111L18.8203 188.325C16.8051 188.325 20.2598 189.908 20.2598 191.922L18.1006 192.641C18.1006 194.655 21.8432 194.08 23.8585 194.08L44.803 184.656V199.763C44.803 201.748 46.4152 203.359 48.4017 203.359H435.479C437.466 203.359 439.078 201.748 439.078 199.763V184.297L468.659 183.29C469.163 183.29 462.397 179.117 462.901 178.973C465.348 178.254 475.137 180.124 475.137 177.535L474.417 173.938C474.417 170.701 475.497 167.536 472.258 167.464V167.464Z" fill="#E3E9F1"/>
<path d="M439.078 184.224V184.656H482.694C483.421 184.656 484.127 184.433 484.71 184.009C484.192 184.152 483.659 184.232 483.126 184.224H439.078V184.224Z" fill="#E3E9F1"/>
<path d="M298.368 168.183H313.339C313.411 168.039 313.411 167.895 313.483 167.751H300.455C299.736 167.751 299.023 167.895 298.368 168.183Z" fill="#E3E9F1"/>
<path d="M346.879 156.53L344.431 153.437C344 152.861 343.208 151.926 342.416 151.998C341.624 152.07 341.408 153.077 341.336 153.724C341.193 155.062 341.193 156.415 341.336 157.753C342.344 170.629 341.696 175.808 341.696 175.808C341.696 175.808 341.84 176.815 342.272 174.729C342.704 172.643 342.632 155.235 344.431 156.458C345.583 157.249 346.807 158.04 347.958 158.76C348.246 158.904 348.678 159.191 348.966 159.12C348.354 158.501 347.8 157.825 347.31 157.105C347.094 156.818 346.95 156.602 346.879 156.53V156.53Z" fill="#F1F5FB"/>
<path d="M453.041 166.313L450.594 165.234C449.96 164.932 449.276 164.759 448.578 164.73C447.786 164.73 447.571 165.09 447.499 165.378C447.355 165.845 447.355 166.349 447.499 166.816C448.506 171.348 447.858 173.218 447.858 173.218C447.858 173.218 448.002 173.578 448.434 172.859C448.866 172.139 448.794 166.025 450.594 166.385C451.745 166.672 452.969 166.96 454.12 167.176C454.451 167.262 454.79 167.305 455.128 167.32C454.552 167.032 453.976 166.816 453.472 166.528C453.257 166.457 453.113 166.313 453.041 166.313Z" fill="#F1F5FB"/>
<path d="M331.837 163.507C331.045 163.507 330.253 163.507 329.462 163.435C328.771 163.291 328.065 163.291 327.374 163.435C326.87 163.579 326.798 163.795 326.727 164.083C326.439 165.809 327.158 167.607 327.302 169.334C327.403 170.247 327.353 171.168 327.158 172.067C327.158 172.139 327.014 172.283 327.086 172.427C327.086 172.427 327.23 172.787 327.662 171.996C327.864 171.442 327.957 170.859 327.95 170.269C328.022 169.262 328.094 168.255 328.238 167.32C328.303 166.507 328.468 165.708 328.742 164.946C328.814 164.73 328.742 164.227 329.462 164.155C329.649 164.119 329.85 164.119 330.037 164.155C331.621 164.155 333.276 164.155 334.86 164.299C335.579 164.299 336.227 164.37 336.947 164.37C337.091 164.37 338.962 164.227 338.89 164.227C338.163 163.831 337.343 163.637 336.515 163.651C334.932 163.507 333.42 163.507 331.837 163.507V163.507Z" fill="#F1F5FB"/>
<path d="M400.571 158.4C399.779 158.4 398.988 158.4 398.196 158.328C397.505 158.184 396.8 158.184 396.109 158.328C395.605 158.472 395.533 158.688 395.461 158.976C395.173 160.702 395.893 162.5 396.037 164.227C396.137 165.14 396.087 166.061 395.893 166.96C395.893 167.032 395.749 167.176 395.821 167.32C395.821 167.32 395.965 167.68 396.397 166.888C396.598 166.334 396.692 165.752 396.684 165.162C396.756 164.155 396.828 163.148 396.972 162.213C397.037 161.4 397.203 160.601 397.476 159.839C397.548 159.623 397.476 159.119 398.196 159.047H398.772C400.355 159.047 402.011 159.047 403.594 159.191C404.314 159.191 404.961 159.263 405.681 159.263C405.825 159.263 407.697 159.119 407.625 159.119C406.898 158.724 406.077 158.53 405.249 158.544C403.666 158.4 402.155 158.4 400.571 158.4V158.4Z" fill="#F1F5FB"/>
<path d="M130.165 127.18C130.215 126.561 129.977 125.95 129.517 125.525C128.862 125.202 128.085 125.202 127.43 125.525C126.659 125.741 125.853 125.813 125.054 125.741C123.493 125.619 121.916 125.72 120.376 126.029C119.656 126.245 118.433 126.533 118.001 127.108C118.634 127.317 119.282 127.468 119.944 127.54C120.642 127.59 121.341 127.561 122.032 127.468C123.629 127.266 125.242 127.166 126.854 127.18C127.048 127.166 127.242 127.194 127.43 127.252C128.149 127.54 128.077 128.691 128.149 129.338C128.423 131.417 128.596 133.503 128.653 135.596C128.797 138.186 128.869 140.848 128.941 143.437C128.927 144.977 129.027 146.516 129.229 148.041C129.661 150.127 129.805 149.12 129.805 149.12C129.819 148.832 129.79 148.537 129.733 148.257C129.538 145.861 129.495 143.459 129.589 141.063C129.733 136.46 130.453 131.784 130.165 127.18Z" fill="#F1F5FB"/>
<path d="M185.513 138.186C184.865 138.114 184.361 139.05 184.002 139.625L182.202 142.718C182.123 142.92 182.029 143.107 181.914 143.294C181.554 143.941 181.123 144.66 180.763 145.308C180.979 145.38 181.267 145.092 181.482 144.948C182.346 144.229 183.21 143.438 184.074 142.646C185.369 141.423 185.297 158.832 185.657 160.918C186.017 163.004 186.089 161.997 186.089 161.997C186.089 161.997 185.585 156.817 186.305 143.941C186.377 142.596 186.377 141.258 186.305 139.913C186.233 139.265 186.161 138.258 185.513 138.186V138.186Z" fill="#F1F5FB"/>
<path d="M67.9071 153.005C67.2089 153.034 66.5252 153.206 65.8918 153.508L63.4447 154.587C63.3727 154.587 63.2287 154.731 63.0128 154.803C62.437 155.019 61.89 155.285 61.3574 155.594C61.6957 155.58 62.034 155.537 62.3651 155.451C63.5166 155.235 64.7402 154.947 65.8918 154.659C67.6911 154.3 67.6192 160.414 68.051 161.133C68.4829 161.853 68.6268 161.493 68.6268 161.493C68.6268 161.493 67.979 159.623 68.9867 155.091C69.1306 154.623 69.1306 154.12 68.9867 153.652C68.9147 153.365 68.6988 153.005 67.9071 153.005V153.005Z" fill="#F1F5FB"/>
<path d="M105.477 137.467C105.477 137.179 105.333 136.963 104.829 136.82C104.138 136.676 103.433 136.676 102.742 136.82C101.95 136.891 101.159 136.891 100.367 136.891C98.7836 136.891 97.2721 136.891 95.6887 137.035C94.861 137.021 94.0405 137.215 93.3135 137.611C93.2416 137.611 95.1129 137.755 95.2569 137.755C95.9766 137.755 96.6244 137.683 97.3441 137.683C98.9275 137.539 100.583 137.539 102.166 137.539C102.354 137.503 102.555 137.503 102.742 137.539C103.462 137.611 103.39 138.114 103.462 138.33C103.735 139.093 103.901 139.891 103.966 140.704C104.11 141.639 104.182 142.646 104.254 143.653C104.246 144.243 104.34 144.826 104.542 145.38C104.973 146.171 105.117 145.811 105.117 145.811C105.189 145.667 105.045 145.524 105.045 145.452C104.851 144.552 104.801 143.632 104.901 142.718C105.045 140.992 105.765 139.193 105.477 137.467V137.467Z" fill="#F1F5FB"/>
<path d="M139.953 136.244C139.255 136.273 138.571 136.446 137.938 136.748L135.491 137.827C135.419 137.827 135.275 137.971 135.059 138.043C134.483 138.33 133.547 138.762 133.403 138.834C133.742 138.82 134.08 138.776 134.411 138.69C135.563 138.474 136.786 138.187 137.938 137.899C139.737 137.539 139.665 143.654 140.097 144.373C140.529 145.092 140.673 144.733 140.673 144.733C140.673 144.733 140.025 142.862 141.033 138.33C141.177 137.863 141.177 137.359 141.033 136.892C140.961 136.604 140.745 136.244 139.953 136.244Z" fill="#F1F5FB"/>
<path d="M161.689 136.747C161.243 136.733 160.796 136.834 160.393 137.035L158.882 137.682C158.81 137.682 158.738 137.754 158.594 137.826C158.306 137.97 157.946 138.114 157.658 138.258C157.874 138.272 158.097 138.244 158.306 138.186C159.098 138.042 159.817 137.826 160.537 137.682C161.617 137.467 161.545 141.279 161.833 141.711C162.121 142.142 162.193 141.927 162.193 141.927C162.193 141.927 161.761 140.776 162.408 137.97C162.48 137.69 162.48 137.387 162.408 137.107C162.337 136.963 162.193 136.747 161.689 136.747V136.747Z" fill="#F1F5FB"/>
<path d="M177.883 136.029C177.934 135.41 177.696 134.798 177.236 134.374C176.581 134.05 175.803 134.05 175.148 134.374C174.378 134.59 173.572 134.662 172.773 134.59C171.211 134.468 169.635 134.568 168.095 134.878C167.375 135.093 166.08 135.381 165.72 135.957C166.353 136.165 167.001 136.316 167.663 136.388C168.361 136.439 169.059 136.41 169.75 136.316C171.348 136.115 172.96 136.014 174.573 136.029C174.767 136.014 174.961 136.043 175.148 136.1C175.868 136.388 175.796 137.539 175.868 138.187C176.142 140.265 176.314 142.352 176.372 144.445C176.516 147.034 176.588 149.696 176.66 152.286C176.645 153.825 176.746 155.365 176.948 156.89C177.38 158.976 177.523 157.969 177.523 157.969C177.538 157.681 177.509 157.386 177.452 157.105C177.257 154.71 177.214 152.307 177.308 149.912C177.452 145.308 178.171 140.632 177.883 136.029Z" fill="#F1F5FB"/>
<path d="M207.464 150.415C207.464 149.983 207.213 149.58 206.817 149.408C206.14 149.192 205.406 149.192 204.729 149.408C203.945 149.53 203.146 149.573 202.354 149.552C200.792 149.48 199.223 149.552 197.676 149.767C197.028 149.839 195.733 150.055 195.301 150.487C196.625 150.775 197.985 150.847 199.331 150.703C200.915 150.559 202.57 150.487 204.154 150.487C204.348 150.472 204.542 150.501 204.729 150.559C205.449 150.775 205.377 151.494 205.449 151.926C205.723 153.228 205.888 154.551 205.953 155.882C206.097 157.536 206.169 159.191 206.241 160.845C206.226 161.838 206.32 162.824 206.529 163.795C206.961 165.09 207.105 164.442 207.105 164.442C207.177 164.226 207.033 164.011 207.033 163.867C206.838 162.342 206.795 160.795 206.889 159.263C207.033 156.314 207.752 153.364 207.464 150.415V150.415Z" fill="#F1F5FB"/>
<path d="M231.577 158.615C231.505 158.328 231.361 158.04 230.569 157.896C229.518 157.752 228.453 157.752 227.402 157.896C226.25 157.968 225.027 157.968 223.803 157.968C221.428 157.968 219.053 157.968 216.678 158.112C215.44 158.169 214.209 158.364 213.007 158.687C212.935 158.759 215.742 158.903 215.958 158.903C217.038 158.903 218.045 158.903 219.125 158.831C221.572 158.687 224.019 158.687 226.538 158.687C226.826 158.687 227.114 158.759 227.402 158.759C228.482 158.831 228.338 159.335 228.482 159.622C228.863 160.464 229.108 161.363 229.201 162.284C229.417 163.363 229.489 164.514 229.633 165.593C229.705 166.24 229.561 166.888 230.065 167.535C230.785 168.398 230.929 168.039 231.001 167.967C231.073 167.895 230.857 167.679 230.857 167.607C230.626 166.593 230.583 165.543 230.713 164.514C230.857 162.572 232.08 160.558 231.577 158.615V158.615Z" fill="#F1F5FB"/>
<path d="M444.404 157.681L441.957 156.602C441.323 156.299 440.64 156.127 439.941 156.098C439.15 156.098 438.934 156.458 438.862 156.745C438.718 157.213 438.718 157.717 438.862 158.184C439.87 162.716 439.222 164.586 439.222 164.586C439.222 164.586 439.366 164.946 439.798 164.227C440.229 163.507 440.157 157.393 441.957 157.753C443.108 158.04 444.332 158.328 445.556 158.544C445.887 158.63 446.225 158.673 446.563 158.688C445.915 158.4 445.34 158.112 444.836 157.896C444.62 157.824 444.476 157.681 444.404 157.681Z" fill="#F1F5FB"/>
<path d="M321.976 168.542L319.529 167.463C318.896 167.161 318.212 166.989 317.514 166.96C316.722 166.96 316.506 167.32 316.434 167.607C316.29 168.075 316.29 168.578 316.434 169.046C317.442 173.578 316.794 175.448 316.794 175.448C316.794 175.448 316.938 175.808 317.37 175.088C317.802 174.369 317.73 168.255 319.529 168.614C320.681 168.902 321.904 169.19 323.056 169.406C323.387 169.492 323.725 169.535 324.063 169.549C323.919 169.478 322.984 169.046 322.408 168.758C322.192 168.686 322.048 168.542 321.976 168.542V168.542Z" fill="#F1F5FB"/>
<path d="M429.649 150.559C428.109 150.25 426.532 150.149 424.97 150.271C424.172 150.343 423.365 150.271 422.595 150.056C421.94 149.732 421.163 149.732 420.508 150.056C420.047 150.48 419.81 151.091 419.86 151.71C419.572 156.314 420.292 160.99 420.436 165.593C420.53 167.989 420.486 170.391 420.292 172.787C420.235 173.067 420.206 173.362 420.22 173.65C420.22 173.65 420.364 174.657 420.796 172.571C420.997 171.046 421.098 169.507 421.084 167.967C421.156 165.378 421.228 162.716 421.372 160.126C421.429 158.033 421.602 155.947 421.876 153.868C421.948 153.221 421.876 152.07 422.595 151.782C422.782 151.724 422.977 151.696 423.171 151.71C424.783 151.696 426.396 151.796 427.993 151.998C428.684 152.091 429.382 152.12 430.081 152.07C430.743 151.998 431.391 151.847 432.024 151.638C431.592 151.063 430.297 150.703 429.649 150.559Z" fill="#F1F5FB"/>
<path d="M122.823 140.848C122.031 140.776 121.24 141.711 120.808 142.287L118.361 145.38C118.289 145.452 118.145 145.668 117.929 145.956C117.439 146.675 116.885 147.351 116.273 147.97C116.561 148.042 116.993 147.754 117.281 147.61C118.433 146.891 119.656 146.099 120.808 145.308C122.607 144.085 122.535 161.493 122.967 163.579C123.399 165.666 123.543 164.658 123.543 164.658C123.543 164.658 122.895 159.479 123.903 146.603C124.047 145.265 124.047 143.913 123.903 142.575C123.831 141.927 123.615 140.92 122.823 140.848V140.848Z" fill="#F1F5FB"/>
<path d="M166.223 146.387C165.431 146.315 164.64 147.25 164.208 147.825L161.761 150.918C161.689 150.99 161.545 151.206 161.329 151.494C160.832 152.235 160.257 152.911 159.602 153.508C159.889 153.58 160.321 153.292 160.609 153.148C161.833 152.429 163.056 151.638 164.208 150.846C166.007 149.624 165.935 167.032 166.367 169.118C166.799 171.204 166.943 170.197 166.943 170.197C166.943 170.197 166.295 165.018 167.303 152.141C167.447 150.803 167.447 149.451 167.303 148.113C167.231 147.466 167.015 146.458 166.223 146.387V146.387Z" fill="#F1F5FB"/>
<path d="M99.7918 146.459C99.0001 146.387 98.2084 147.322 97.7766 147.897L95.3294 150.991C95.2575 151.063 95.1135 151.278 94.8976 151.566C94.4226 152.3 93.8684 152.976 93.2422 153.58C93.5301 153.652 93.9619 153.364 94.2498 153.221C95.4014 152.501 96.625 151.71 97.7766 150.919C99.5759 149.696 99.504 167.104 99.9358 169.19C100.368 171.276 100.512 170.269 100.512 170.269C100.512 170.269 99.8638 165.09 100.871 152.214C101.015 150.876 101.015 149.523 100.871 148.185C100.799 147.538 100.584 146.531 99.7918 146.459V146.459Z" fill="#F1F5FB"/>
<path d="M256.529 185.85C272.364 179.124 300.311 175.628 306.501 174.823H306.962C309.733 174.729 312.36 173.578 314.31 171.607C311.726 169.873 308.696 168.917 305.587 168.852C287.673 167.938 270.219 169.312 252.765 172.067C242.178 173.578 231.173 175.103 220.866 178.319C232.879 179.757 244.718 182.671 256.529 185.85Z" fill="#B5BDC2"/>
<path d="M136.894 324.871L132.54 326.439C134.152 326.576 135.743 326 136.894 324.871Z" fill="#B5BDC2"/>
<path d="M285.262 323.562L285.061 323.641L285.262 323.562Z" fill="#B5BDC2"/>
<path d="M284.326 323.936L284.023 324.044L284.326 323.936Z" fill="#B5BDC2"/>
<path d="M283.326 324.281L283.053 324.367L283.326 324.281Z" fill="#B5BDC2"/>
<path d="M281.073 324.806L280.756 324.849L281.073 324.806Z" fill="#B5BDC2"/>
<path d="M132.54 326.439C134.152 326.576 135.743 326 136.894 324.871L132.54 326.439Z" fill="#B5BDC2"/>
<path d="M145.495 307.736C146.46 307.808 147.417 307.858 148.374 307.901C147.417 307.858 146.46 307.808 145.495 307.736Z" fill="#B5BDC2"/>
<path d="M145.085 308.175L145.042 308.247L145.085 308.175Z" fill="#B5BDC2"/>
<path d="M145.236 307.93L145.186 307.996L145.236 307.93Z" fill="#B5BDC2"/>
<path d="M292.711 317.951L292.409 318.274L292.711 317.951Z" fill="#B5BDC2"/>
<path d="M295.093 315.145C294.985 315.289 294.877 315.433 294.762 315.569C294.877 315.433 294.985 315.289 295.093 315.145Z" fill="#B5BDC2"/>
<path d="M296.706 312.951C296.49 313.261 296.274 313.57 296.051 313.872C296.274 313.57 296.49 313.261 296.706 312.951Z" fill="#B5BDC2"/>
<path d="M295.762 314.275L295.417 314.728L295.762 314.275Z" fill="#B5BDC2"/>
<path d="M294.345 316.081C294.215 316.246 294.079 316.412 293.935 316.577C294.079 316.412 294.215 316.246 294.345 316.081Z" fill="#B5BDC2"/>
<path d="M299.332 308.844C298.915 309.563 298.476 310.283 298.022 311.002C298.476 310.268 298.915 309.556 299.332 308.844Z" fill="#B5BDC2"/>
<path d="M293.445 317.145L293.143 317.483L293.445 317.145Z" fill="#B5BDC2"/>
<path d="M297.886 311.196L297.497 311.786L297.886 311.196Z" fill="#B5BDC2"/>
<path d="M297.296 312.052C297.173 312.246 297.044 312.433 296.914 312.62C297.044 312.462 297.173 312.275 297.296 312.052Z" fill="#B5BDC2"/>
<path d="M288.205 321.878L287.968 322.029L288.205 321.878Z" fill="#B5BDC2"/>
<path d="M286.399 322.979L286.154 323.109L286.399 322.979Z" fill="#B5BDC2"/>
<path d="M287.342 322.433L287.047 322.612L287.342 322.433Z" fill="#B5BDC2"/>
<path d="M289.242 321.123L289.026 321.296L289.242 321.123Z" fill="#B5BDC2"/>
<path d="M302.752 221.415C291.236 215.142 276.985 212.531 264.245 209.704C260.366 208.733 256.645 207.186 253.226 205.114C221.989 185.375 295.943 176.189 306.487 174.815H306.948C309.719 174.722 312.346 173.571 314.296 171.6C311.712 169.866 308.682 168.91 305.573 168.845C287.659 167.931 270.205 169.305 252.751 172.06C236.672 174.355 219.643 176.65 205.443 184.915C200.865 187.246 197.511 191.439 196.259 196.425C192.581 212.495 213.712 219.379 224.271 225.803C243.862 238.42 217.002 305.283 155.896 307.923C167.195 315.117 181.194 317.203 194.625 316.627C208.696 316.03 222.5 312.757 236.413 310.563C257.386 307.268 278.676 306.412 299.844 308.024C299.7 308.276 299.556 308.527 299.405 308.743C301.111 305.866 302.586 302.988 303.867 300.442C310.014 288.256 318.759 274.617 320.731 260.95C322.811 246.426 315.952 228.608 302.752 221.415V221.415Z" fill="#B5BDC2"/>
<path d="M291.667 319.023L291.883 318.807L291.667 319.023Z" fill="#B5BDC2"/>
<path d="M290.163 320.411L289.868 320.655L290.163 320.411Z" fill="#B5BDC2"/>
<path d="M290.934 319.713L290.66 319.951L290.934 319.713Z" fill="#B5BDC2"/>
<path d="M246.259 307.736C246.259 307.736 246.698 307.268 247.468 306.412" stroke="#E3E9F1" stroke-width="2" stroke-miterlimit="10" stroke-linecap="round"/>
<path d="M298.447 171.938L300.239 171.78" stroke="#E3E9F1" stroke-width="2" stroke-miterlimit="10" stroke-linecap="round"/>
<path d="M306.473 102.47C307.754 102.888 309.035 103.341 310.316 103.794V99.3773C309.035 98.9241 307.761 98.4709 306.473 98.0537V102.47Z" fill="black"/>
<path d="M302.629 101.406C303.917 101.687 305.191 102.061 306.472 102.471V98.054C305.198 97.644 303.917 97.2699 302.629 96.9894V101.406Z" fill="white"/>
<path d="M298.8 100.823C300.095 100.924 301.384 101.118 302.65 101.406V96.989C301.384 96.7013 300.103 96.5071 298.807 96.4064C298.807 97.8738 298.807 99.3485 298.807 100.823H298.8Z" fill="black"/>
<path d="M294.928 100.859C296.209 100.737 297.497 100.73 298.778 100.823V96.4065C297.497 96.2986 296.209 96.2986 294.928 96.4065V100.859Z" fill="white"/>
<path d="M291.078 101.493C292.344 101.191 293.633 100.982 294.928 100.86V96.4429C293.633 96.5652 292.337 96.7738 291.07 97.0759V101.493H291.078Z" fill="black"/>
<path d="M287.22 102.579C288.501 102.169 289.789 101.795 291.078 101.492V97.0757C289.789 97.3778 288.508 97.7519 287.22 98.1619V102.579Z" fill="white"/>
<path d="M283.361 103.859C284.65 103.435 285.931 102.989 287.219 102.579V98.1619C285.931 98.5719 284.65 99.0179 283.361 99.4423V103.859Z" fill="black"/>
<path d="M279.504 105.039C280.792 104.694 282.081 104.284 283.362 103.859V99.4423C282.081 99.8667 280.799 100.277 279.504 100.622V105.039Z" fill="white"/>
<path d="M275.653 105.83C276.949 105.65 278.237 105.384 279.504 105.039V100.622C278.237 100.967 276.949 101.234 275.653 101.413V105.83Z" fill="black"/>
<path d="M271.795 106.061C273.083 106.089 274.372 106.01 275.653 105.83V101.414C274.379 101.594 273.09 101.673 271.802 101.644C271.809 103.111 271.802 104.586 271.795 106.061Z" fill="white"/>
<path d="M267.952 105.657C269.218 105.895 270.507 106.024 271.795 106.06V101.644C270.499 101.608 269.218 101.478 267.944 101.241V105.657H267.952Z" fill="black"/>
<path d="M264.102 104.715C265.368 105.103 266.649 105.413 267.952 105.657V101.24C266.657 101.003 265.368 100.687 264.109 100.298C264.123 101.773 264.109 103.24 264.102 104.715V104.715Z" fill="white"/>
<path d="M260.258 103.442C261.539 103.888 262.82 104.327 264.101 104.715V100.298C262.813 99.9099 261.539 99.4711 260.258 99.0251C260.279 100.5 260.272 102.003 260.258 103.442Z" fill="black"/>
<path d="M306.451 106.888C307.732 107.305 309.013 107.758 310.295 108.211V103.794C309.013 103.341 307.732 102.888 306.451 102.471V106.888Z" fill="white"/>
<path d="M302.607 105.823C303.889 106.103 305.17 106.477 306.451 106.887V102.471C305.17 102.061 303.896 101.686 302.607 101.406V105.823Z" fill="black"/>
<path d="M298.757 105.24C300.052 105.341 301.341 105.535 302.607 105.823V101.406C301.341 101.118 300.052 100.924 298.757 100.823V105.24Z" fill="white"/>
<path d="M294.906 105.276C296.187 105.154 297.476 105.147 298.757 105.24V100.823C297.476 100.73 296.187 100.737 294.906 100.859V105.276Z" fill="black"/>
<path d="M291.049 105.909C292.316 105.607 293.611 105.399 294.907 105.276V100.859C293.611 100.982 292.323 101.19 291.056 101.492C291.07 102.967 291.063 104.435 291.049 105.909Z" fill="white"/>
<path d="M287.198 106.995C288.479 106.585 289.76 106.211 291.048 105.909V101.492C289.76 101.794 288.472 102.169 287.19 102.579V106.995H287.198Z" fill="black"/>
<path d="M283.34 108.276C284.628 107.851 285.909 107.405 287.198 106.995V102.578C285.909 102.988 284.628 103.434 283.34 103.859V108.276Z" fill="white"/>
<path d="M279.482 109.456C280.771 109.11 282.052 108.7 283.34 108.276V103.859C282.059 104.284 280.771 104.694 279.482 105.039V109.456Z" fill="black"/>
<path d="M275.624 110.247C276.927 110.067 278.215 109.801 279.482 109.455V105.039C278.215 105.384 276.927 105.65 275.631 105.83C275.646 107.304 275.631 108.779 275.624 110.247Z" fill="white"/>
<path d="M271.774 110.477C273.062 110.506 274.35 110.427 275.624 110.247V105.83C274.343 106.01 273.055 106.089 271.767 106.06V110.477H271.774Z" fill="black"/>
<path d="M267.923 110.074C269.197 110.304 270.478 110.441 271.773 110.477V106.06C270.485 106.024 269.197 105.895 267.93 105.657C267.944 107.132 267.93 108.6 267.923 110.074V110.074Z" fill="white"/>
<path d="M264.079 109.132C265.339 109.521 266.627 109.83 267.923 110.074V105.658C266.62 105.413 265.339 105.104 264.072 104.715V109.132H264.079Z" fill="black"/>
<path d="M260.236 107.859C261.517 108.305 262.799 108.743 264.08 109.132V104.715C262.799 104.327 261.517 103.888 260.236 103.442V107.859Z" fill="white"/>
<path d="M306.422 111.304C307.71 111.722 308.984 112.175 310.265 112.628V108.211C308.984 107.758 307.703 107.305 306.422 106.888V111.304Z" fill="black"/>
<path d="M302.579 110.24C303.867 110.521 305.149 110.895 306.423 111.305V106.888C305.141 106.478 303.86 106.104 302.579 105.823V110.24Z" fill="white"/>
<path d="M298.736 109.657C300.031 109.758 301.312 109.952 302.579 110.24V105.823C301.312 105.535 300.024 105.341 298.729 105.24V109.657H298.736Z" fill="black"/>
<path d="M294.885 109.693C296.166 109.57 297.454 109.563 298.735 109.657V105.24C297.454 105.146 296.166 105.154 294.885 105.276V109.693Z" fill="white"/>
<path d="M291.026 110.326C292.293 110.024 293.589 109.815 294.884 109.693V105.276C293.589 105.398 292.293 105.607 291.026 105.909V110.326Z" fill="black"/>
<path d="M287.169 111.413C288.457 111.003 289.738 110.628 291.027 110.326V105.91C289.738 106.212 288.457 106.586 287.176 106.996C287.191 108.478 287.176 109.916 287.169 111.413Z" fill="white"/>
<path d="M283.312 112.693C284.6 112.268 285.881 111.822 287.169 111.412V106.995C285.881 107.405 284.6 107.851 283.312 108.276C283.326 109.751 283.326 111.218 283.312 112.693Z" fill="black"/>
<path d="M279.46 113.872C280.749 113.527 282.03 113.117 283.311 112.692V108.276C282.023 108.7 280.741 109.11 279.453 109.455V113.872H279.46Z" fill="white"/>
<path d="M275.603 114.664C276.905 114.484 278.194 114.218 279.46 113.872V109.456C278.194 109.801 276.905 110.067 275.603 110.247V114.664Z" fill="black"/>
<path d="M271.752 114.894C273.04 114.923 274.329 114.844 275.603 114.664V110.247C274.329 110.427 273.04 110.506 271.752 110.477V114.894Z" fill="white"/>
<path d="M267.901 114.491C269.175 114.728 270.456 114.858 271.752 114.894V110.477C270.456 110.441 269.175 110.304 267.901 110.074V114.491Z" fill="black"/>
<path d="M264.059 113.549C265.318 113.937 266.606 114.254 267.902 114.491V110.074C266.606 109.83 265.318 109.52 264.059 109.132V113.549Z" fill="white"/>
<path d="M260.215 112.276C261.496 112.722 262.77 113.161 264.058 113.549V109.132C262.777 108.744 261.496 108.305 260.215 107.859V112.276Z" fill="black"/>
<path d="M306.4 115.721C307.689 116.139 308.963 116.592 310.244 117.045V112.628C308.963 112.175 307.689 111.722 306.4 111.305V115.721Z" fill="white"/>
<path d="M302.557 114.656C303.845 114.937 305.126 115.311 306.4 115.721V111.304C305.126 110.894 303.845 110.52 302.557 110.24V114.656Z" fill="black"/>
<path d="M298.707 114.074C300.003 114.175 301.291 114.369 302.558 114.657V110.24C301.291 109.952 300.01 109.758 298.714 109.657C298.729 111.125 298.714 112.599 298.714 114.074H298.707Z" fill="white"/>
<path d="M294.855 114.11C296.137 113.988 297.425 113.98 298.706 114.074V109.657C297.425 109.564 296.137 109.571 294.855 109.693C294.877 111.16 294.863 112.635 294.855 114.11Z" fill="black"/>
<path d="M291.005 114.743C292.272 114.448 293.56 114.232 294.856 114.11V109.693C293.56 109.815 292.265 110.024 290.998 110.326V114.743H291.005Z" fill="white"/>
<path d="M287.147 115.829C288.429 115.419 289.717 115.045 291.005 114.743V110.326C289.717 110.628 288.436 111.002 287.147 111.412V115.829Z" fill="black"/>
<path d="M283.29 117.109C284.578 116.685 285.86 116.239 287.148 115.829V111.412C285.86 111.822 284.578 112.268 283.29 112.693V117.109Z" fill="white"/>
<path d="M279.432 118.289C280.72 117.944 282.008 117.534 283.289 117.109V112.693C282.008 113.117 280.727 113.527 279.439 113.872V118.289H279.432Z" fill="black"/>
<path d="M275.581 119.08C276.877 118.901 278.165 118.635 279.432 118.289V113.872C278.165 114.218 276.877 114.484 275.574 114.664V119.08H275.581Z" fill="white"/>
<path d="M271.73 119.311C273.019 119.34 274.307 119.261 275.581 119.081V114.664C274.307 114.844 273.019 114.923 271.73 114.894V119.311Z" fill="black"/>
<path d="M267.852 118.908C269.126 119.145 270.407 119.275 271.702 119.311V114.894C270.407 114.858 269.126 114.728 267.852 114.491V118.908Z" fill="white"/>
<path d="M264.037 117.965C265.289 118.354 266.563 118.663 267.851 118.908V114.491C266.556 114.253 265.267 113.937 264.008 113.548L264.037 117.965V117.965Z" fill="black"/>
<path d="M260.193 116.692C261.467 117.138 262.748 117.577 264.037 117.965V113.549C262.748 113.16 261.475 112.721 260.193 112.275V116.692Z" fill="white"/>
<path d="M306.379 120.138C307.66 120.555 308.941 121.008 310.222 121.462V117.045C308.941 116.592 307.667 116.138 306.379 115.721V120.138Z" fill="black"/>
<path d="M302.535 119.073C303.816 119.354 305.097 119.728 306.379 120.138V115.721C305.105 115.311 303.823 114.937 302.535 114.656V119.073Z" fill="white"/>
<path d="M298.685 118.491C299.98 118.591 301.268 118.786 302.535 119.073V114.657C301.268 114.369 299.98 114.175 298.685 114.074V118.491Z" fill="black"/>
<path d="M294.834 118.548C296.115 118.426 297.403 118.419 298.685 118.512V114.095C297.403 114.002 296.115 114.009 294.834 114.131V118.548Z" fill="white"/>
<path d="M290.983 119.159C292.25 118.857 293.538 118.649 294.834 118.526V114.11C293.538 114.232 292.25 114.448 290.983 114.743V119.159Z" fill="black"/>
<path d="M287.126 120.246C288.407 119.836 289.688 119.462 290.984 119.16V114.743C289.695 115.045 288.407 115.419 287.126 115.829V120.246Z" fill="white"/>
<path d="M283.268 121.526C284.556 121.101 285.837 120.655 287.125 120.245V115.829C285.837 116.239 284.556 116.685 283.268 117.109V121.526Z" fill="black"/>
<path d="M279.41 122.706C280.698 122.361 281.987 121.987 283.268 121.526V117.109C281.987 117.534 280.698 117.944 279.41 118.289V122.706Z" fill="white"/>
<path d="M275.553 123.498C276.855 123.318 278.144 123.052 279.411 122.706V118.289C278.144 118.635 276.855 118.901 275.56 119.081C275.567 120.555 275.56 122.03 275.553 123.498Z" fill="black"/>
<path d="M271.702 123.727C272.99 123.756 274.279 123.677 275.553 123.497V119.08C274.279 119.26 272.99 119.339 271.702 119.311C271.702 120.778 271.702 122.253 271.702 123.727Z" fill="white"/>
<path d="M267.851 123.325C269.118 123.562 270.406 123.691 271.694 123.727V119.311C270.399 119.275 269.118 119.145 267.844 118.908V123.325H267.851Z" fill="black"/>
<path d="M264.008 122.382C265.275 122.771 266.556 123.08 267.858 123.325V118.908C266.563 118.67 265.275 118.354 264.015 117.965C264.029 119.44 264.015 120.908 264.008 122.382V122.382Z" fill="white"/>
<path d="M260.164 121.109C261.445 121.555 262.726 121.994 264.007 122.382V117.965C262.719 117.577 261.438 117.138 260.164 116.692C260.178 118.167 260.164 119.634 260.164 121.109Z" fill="black"/>
<path d="M306.357 124.555C307.639 124.972 308.92 125.425 310.201 125.878V121.461C308.92 121.008 307.639 120.555 306.357 120.138V124.555Z" fill="white"/>
<path d="M302.507 123.49C303.795 123.771 305.076 124.145 306.357 124.555V120.138C305.076 119.728 303.795 119.354 302.514 119.073C302.528 120.541 302.514 122.016 302.514 123.49H302.507Z" fill="black"/>
<path d="M298.663 122.907C299.959 123.008 301.24 123.202 302.507 123.49V119.073C301.24 118.785 299.952 118.591 298.656 118.49V122.907H298.663Z" fill="white"/>
<path d="M294.812 122.944C296.094 122.821 297.382 122.814 298.663 122.908V118.491C297.382 118.397 296.094 118.405 294.812 118.527V122.944Z" fill="black"/>
<path d="M290.955 123.584C292.222 123.282 293.517 123.073 294.813 122.951V118.534C293.517 118.656 292.229 118.865 290.962 119.167V123.584H290.955Z" fill="white"/>
<path d="M287.104 124.663C288.385 124.253 289.666 123.879 290.955 123.577V119.16C289.659 119.462 288.378 119.836 287.097 120.246V124.663H287.104Z" fill="black"/>
<path d="M283.246 125.943C284.527 125.519 285.816 125.073 287.104 124.663V120.246C285.816 120.656 284.534 121.102 283.246 121.526V125.943Z" fill="white"/>
<path d="M279.367 127.123C280.656 126.778 281.937 126.368 283.225 125.943V121.527C281.944 121.951 280.656 122.361 279.367 122.706V127.123Z" fill="black"/>
<path d="M275.531 127.899C276.834 127.72 278.122 127.453 279.389 127.108V122.691C278.122 123.037 276.834 123.303 275.531 123.483V127.899Z" fill="white"/>
<path d="M271.68 128.144C272.968 128.173 274.256 128.094 275.53 127.914V123.497C274.256 123.677 272.968 123.756 271.68 123.727V128.144Z" fill="black"/>
<path d="M267.852 127.742C269.126 127.972 270.407 128.109 271.702 128.145V123.728C270.414 123.692 269.126 123.562 267.859 123.325C267.852 124.8 267.852 126.267 267.852 127.742V127.742Z" fill="white"/>
<path d="M263.987 126.799C265.246 127.187 266.535 127.497 267.83 127.741V123.325C266.527 123.08 265.246 122.771 263.979 122.382V126.799H263.987Z" fill="black"/>
<path d="M260.143 125.526C261.424 125.972 262.698 126.411 263.986 126.799V122.382C262.705 121.994 261.424 121.555 260.143 121.109V125.526Z" fill="white"/>
<path d="M306.329 128.972C307.617 129.389 308.891 129.842 310.173 130.295V125.879C308.891 125.425 307.61 124.972 306.329 124.555C306.329 126.03 306.329 127.497 306.329 128.972Z" fill="black"/>
<path d="M302.485 127.9C303.773 128.18 305.054 128.554 306.328 128.964V124.547C305.047 124.137 303.766 123.763 302.478 123.483V127.9H302.485Z" fill="white"/>
<path d="M298.642 127.324C299.937 127.425 301.218 127.619 302.485 127.907V123.49C301.218 123.203 299.937 123.008 298.642 122.908V127.324Z" fill="black"/>
<path d="M294.791 127.36C296.072 127.238 297.36 127.231 298.642 127.324V122.907C297.36 122.814 296.072 122.821 294.791 122.943V127.36Z" fill="white"/>
<path d="M290.934 127.993C292.2 127.691 293.496 127.482 294.791 127.36V122.943C293.496 123.066 292.2 123.274 290.934 123.576V127.993Z" fill="black"/>
<path d="M287.075 129.079C288.356 128.669 289.645 128.295 290.933 127.993V123.576C289.645 123.878 288.364 124.253 287.082 124.663V129.079H287.075Z" fill="white"/>
<path d="M283.218 130.36C284.506 129.935 285.787 129.489 287.076 129.079V124.663C285.787 125.073 284.499 125.519 283.218 125.943V130.36Z" fill="black"/>
<path d="M279.367 131.54C280.663 131.194 281.944 130.784 283.225 130.36V125.943C281.937 126.367 280.656 126.777 279.367 127.123V131.54Z" fill="white"/>
<path d="M275.509 132.331C276.805 132.151 278.093 131.885 279.36 131.539V127.123C278.093 127.468 276.805 127.734 275.502 127.914V132.331H275.509Z" fill="black"/>
<path d="M271.659 132.561C272.948 132.59 274.236 132.511 275.51 132.331V127.914C274.236 128.094 272.948 128.173 271.659 128.144V132.561Z" fill="white"/>
<path d="M267.808 132.158C269.082 132.396 270.363 132.525 271.658 132.561V128.144C270.363 128.108 269.082 127.972 267.808 127.741V132.158Z" fill="black"/>
<path d="M263.965 131.215C265.224 131.604 266.513 131.92 267.808 132.158V127.741C266.513 127.496 265.224 127.187 263.965 126.799V131.215Z" fill="white"/>
<path d="M260.121 129.943C261.402 130.389 262.676 130.827 263.965 131.216V126.799C262.676 126.411 261.402 125.972 260.121 125.526V129.943Z" fill="black"/>
<path d="M309.827 98.9169C308.761 98.5357 307.667 98.1472 306.559 97.7947C305.12 97.3344 303.86 96.9819 302.694 96.7229C301.42 96.4352 300.125 96.241 298.822 96.1403C297.526 96.0324 296.231 96.0324 294.935 96.1403C293.625 96.2697 292.33 96.4855 291.049 96.7877C289.904 97.0538 288.673 97.3991 287.184 97.8739L284.657 98.7083L283.319 99.1543C282.196 99.5284 280.857 99.96 279.475 100.327C278.216 100.672 276.934 100.931 275.646 101.118C274.387 101.298 273.105 101.37 271.832 101.341C270.55 101.312 269.269 101.176 268.01 100.945C266.721 100.708 265.44 100.392 264.188 100.01C262.856 99.6147 261.51 99.1471 260.352 98.7371L260.049 98.6364L259.884 130.108L260.049 130.173C261.215 130.575 262.561 131.043 263.907 131.446C265.181 131.834 266.469 132.151 267.772 132.395C269.053 132.633 270.349 132.762 271.652 132.798H272.019C273.199 132.798 274.372 132.726 275.538 132.561C276.848 132.381 278.144 132.115 279.418 131.762C280.807 131.395 282.153 130.957 283.283 130.583L284.629 130.137C285.449 129.856 286.306 129.568 287.14 129.302C288.623 128.827 289.839 128.489 290.984 128.223C292.243 127.921 293.517 127.712 294.806 127.59C296.072 127.475 297.346 127.461 298.62 127.554C299.909 127.648 301.183 127.842 302.442 128.13C303.594 128.389 304.846 128.734 306.264 129.194C307.358 129.547 308.423 129.914 309.532 130.316L310.41 130.618L310.575 99.1399L309.827 98.9169V98.9169ZM309.668 129.849C308.596 129.475 307.509 129.086 306.394 128.727H306.329C305.084 128.309 303.81 127.957 302.529 127.669H302.485C301.226 127.381 299.945 127.187 298.656 127.087C298.145 127.051 297.627 127.029 297.116 127.029C296.346 127.022 295.576 127.051 294.806 127.122C293.517 127.252 292.236 127.461 290.969 127.755H290.883C289.753 128.022 288.544 128.36 287.076 128.827H287.011C286.176 129.093 285.319 129.381 284.499 129.662L283.225 130.086H283.153C282.045 130.46 280.728 130.877 279.367 131.244H279.31C278.057 131.59 276.791 131.856 275.509 132.036C274.243 132.215 272.969 132.287 271.688 132.259C270.406 132.223 269.132 132.086 267.873 131.856H267.837C266.556 131.618 265.296 131.302 264.051 130.928H263.994C262.741 130.547 261.482 130.115 260.395 129.726V99.3701C261.482 99.7514 262.72 100.176 263.943 100.543H264.008C265.26 100.924 266.527 101.24 267.815 101.478H267.851C269.118 101.708 270.406 101.837 271.695 101.873C272.983 101.902 274.271 101.83 275.553 101.65C276.841 101.471 278.115 101.204 279.374 100.866H279.432C280.792 100.507 282.117 100.082 283.232 99.7082H283.297L284.636 99.2622C285.442 98.9889 286.27 98.7083 287.09 98.4494H287.155C288.594 97.9818 289.825 97.6437 290.948 97.3775H290.998C292.251 97.0826 293.517 96.8668 294.798 96.7445C296.072 96.6294 297.346 96.615 298.62 96.7085C299.901 96.8093 301.175 97.0035 302.428 97.284H302.471C303.608 97.5358 304.846 97.8811 306.25 98.3343H306.314C307.387 98.6795 308.474 99.0536 309.51 99.4277L309.927 99.5715V129.935L309.668 129.849Z" fill="black"/>
<path d="M256.932 152.235L258.264 151.854L258.149 173.786L256.824 173.779L256.932 152.235Z" fill="black"/>
<path d="M258.545 96.9462L258.537 97.7591L258.249 152.537L256.918 152.918L257.213 97.7663L257.22 96.9318L258.545 96.9462Z" fill="black"/>
<path d="M256.371 96.2055C256.479 97.04 257.242 97.6226 258.07 97.5147C258.897 97.4068 259.488 96.6443 259.38 95.8171C259.279 95.0617 258.638 94.4935 257.875 94.4935C256.983 94.551 256.314 95.3135 256.364 96.2055H256.371Z" fill="black"/>
<path d="M311.849 151.609L313.18 151.221L313.065 173.161L311.733 173.146L311.849 151.609Z" fill="black"/>
<path d="M313.461 96.3132L313.454 97.1332L313.159 151.904L311.827 152.293L312.129 97.1332V96.306L313.461 96.3132Z" fill="black"/>
<path d="M311.281 95.5722C311.223 96.4642 311.885 97.2339 312.778 97.3131C313.728 97.4497 314.613 96.7879 314.75 95.8312C314.887 94.8817 314.225 93.9969 313.267 93.8602C312.317 93.7235 311.432 94.3853 311.295 95.342C311.288 95.414 311.281 95.4931 311.281 95.5722V95.5722Z" fill="black"/>
<path d="M251.139 301.427C265.238 284.163 297.022 238.441 251.822 223.961C251.822 223.961 159.213 185.397 294.021 172.643" stroke="#E3E9F1" stroke-width="2" stroke-miterlimit="10" stroke-linecap="round" stroke-dasharray="4.9 9.81"/>
</g>
<defs>
<clipPath id="clip0_338_2458">
<rect width="489" height="328" fill="white" transform="translate(2)"/>
</clipPath>
</defs>
</svg>
