<svg xmlns="http://www.w3.org/2000/svg" viewBox="0 0 417 108">
  <path fill="#e6eaf0" d="M90.078 70.766c1.878-.271 7.72-1.411 10.812-5.371 3.48-4.457 6.483-26.495 6.814-28.993l.019-.136-.02-.136a3.316 3.316 0 0 0-6.566-.054c-1.562 7.839-4.574 20.278-6.477 22.42a10.149 10.149 0 0 1-4.761 3l-.175-6.876c1.9-1.229 5.353-3.71 6.591-6.273 1.642-3.4 1.777-21.321 1.787-23.354l-.01-.146a2.481 2.481 0 0 0-4.921.031c-.018.164-1.816 16.417-2.057 18.321a4.256 4.256 0 0 1-1.631 1.97L88.438 4.155a4.27 4.27 0 0 0-8.528.08l-1.3 50.987a9.323 9.323 0 0 1-3.4-4.347c-.71-2.328-2.659-23.645-3.351-31.663l-.016-.186-.082-.167a3.953 3.953 0 0 0-3.223-1.95 3.248 3.248 0 0 0-3.487 2.048l-.051.165v.178c0 1.3.066 32 4.424 38.307 3.587 5.191 7.466 6.343 8.963 6.6l-.111 4.353V95.4a2 2 0 0 0 2 2h7.8a2 2 0 0 0 2-2V70.766ZM36.032 49.094 34.621 3.5c0-.032-.043-3.181-3.717-3.181s-3.717 3.145-3.717 3.161l-1.153 37.3a2.982 2.982 0 0 1-2.141-2.235c-.349-2.357-.883-21.996-.893-22.263a2.539 2.539 0 0 0-2.639-2.026 2.541 2.541 0 0 0-2.643 2.066c-.077.9-1.863 22.186.51 26.383 1.965 3.476 6.013 4.577 7.6 4.883l-.245 7.918v18.84a1.5 1.5 0 0 0 1.5 1.5h7.647a1.5 1.5 0 0 0 1.5-1.5V56.034c1.84-.442 5.243-1.649 7-4.75 2.373-4.2.587-24.453.5-25.351a2.724 2.724 0 0 0-5.283.067c0 .187-.539 18.765-.888 21.121a2.686 2.686 0 0 1-1.527 1.973Z"/>
  <path fill="#565a5c" d="M416.563 72.34a1 1 0 0 0-1.411.089 11.192 11.192 0 0 1-3.785 2.68 46.485 46.485 0 0 0 2.983-10.265 1 1 0 0 0-.86-1.122 1.011 1.011 0 0 0-1.122.86c-.025.187-1.926 13.562-10.99 22.038a16.474 16.474 0 0 1 1.754-6.571 1 1 0 1 0-1.758-.953 19.425 19.425 0 0 0-2.037 9.237 24.706 24.706 0 0 1-12.457 4.934c-.209.024-.435.028-.65.045a16.014 16.014 0 0 1 4.756-4.271 1 1 0 0 0-1-1.732 17.586 17.586 0 0 0-6.2 6.069c-6.694-.157-15.329-2.725-22.229-5.918 1.375.118 2.83.209 4.361.25q.858.022 1.763.023c1.714 0 3.549-.073 5.446-.242a17.529 17.529 0 0 0 8.076 3.358 1 1 0 1 0 .281-1.98 15.86 15.86 0 0 1-5.24-1.747c5.876-.869 12.086-2.822 17.2-6.814a28.507 28.507 0 0 0 5.337-5.7 17.92 17.92 0 0 0 8.421-4.133A1 1 0 1 0 405.846 69a15.228 15.228 0 0 1-5.347 3.073 72.993 72.993 0 0 0 5.528-10.916 18.37 18.37 0 0 0 8.129-4.148 1 1 0 1 0-1.355-1.47 16.007 16.007 0 0 1-5.841 3.289 111.871 111.871 0 0 0 4.032-12.6 1 1 0 0 0-1.943-.473c-.014.058-.371 1.5-1.047 3.756a13.367 13.367 0 0 1-.742-5.718 1 1 0 1 0-1.988-.217 16.3 16.3 0 0 0 1.808 8.873 93.248 93.248 0 0 1-7.122 16.612 16.214 16.214 0 0 1 .123-6.475 1 1 0 1 0-1.941-.479 19.06 19.06 0 0 0 .332 9.41 29.3 29.3 0 0 1-6.256 7.213c-8.112 6.326-19.3 7.325-27.969 6.885a43.262 43.262 0 0 0 20.2-10.165 12.975 12.975 0 0 0 1.455.076 17.932 17.932 0 0 0 7.225-1.534 1 1 0 0 0-.818-1.826 15.938 15.938 0 0 1-5.789 1.343 52.612 52.612 0 0 0 3.567-3.9 38.228 38.228 0 0 0 5.958-10.388 18.115 18.115 0 0 0 7.328-4.122 1 1 0 1 0-1.355-1.47 16.577 16.577 0 0 1-5.106 3.192 65.385 65.385 0 0 0 2.961-14.638c.221-2.439.314-4.707.335-6.723a17.824 17.824 0 0 0 5.6-6.992 1 1 0 1 0-1.836-.791 15.67 15.67 0 0 1-3.773 5.193c-.071-3.631-.35-5.97-.37-6.131a1 1 0 1 0-1.984.245 80.614 80.614 0 0 1-.526 19.442 15.87 15.87 0 0 1-1.482-5.32 1 1 0 0 0-1.992.182 16.488 16.488 0 0 0 2.933 8.21 46.66 46.66 0 0 1-5.707 15.281 16.269 16.269 0 0 1-1.592-6.471 1 1 0 0 0-2 .035A18.453 18.453 0 0 0 389.8 66.7c-.4.559-.816 1.109-1.255 1.642a46.264 46.264 0 0 1-10.852 9.721 16.008 16.008 0 0 1 2.055-6.51 1 1 0 1 0-1.719-1.021 18.079 18.079 0 0 0-2.4 8.76 41.531 41.531 0 0 1-17.557 5.138 104.664 104.664 0 0 0 6.735-6.652 14.737 14.737 0 0 0 1.879.111 17.924 17.924 0 0 0 6.59-1.252 1 1 0 1 0-.742-1.857 15.935 15.935 0 0 1-6.018 1.1 106.431 106.431 0 0 0 8.38-10.835 17.821 17.821 0 0 0 8.66-2.419 1 1 0 0 0-1.053-1.7 15.219 15.219 0 0 1-6.235 2.02 100.046 100.046 0 0 0 6.081-10.909c.346-.726.675-1.449 1-2.17a17.547 17.547 0 0 0 7.894-3.693 1 1 0 1 0-1.271-1.543 16.016 16.016 0 0 1-5.642 2.955 99.98 99.98 0 0 0 3.379-9.538 14.233 14.233 0 0 0 6.825-6.438 1 1 0 0 0-1.807-.859 11.569 11.569 0 0 1-4.253 4.6 89.878 89.878 0 0 0 2.943-16 1 1 0 0 0-2-.121c0 .06-.164 2.461-.828 6.343a15.893 15.893 0 0 1-2.5-5.577 1 1 0 1 0-1.951.44 17.555 17.555 0 0 0 3.964 7.738 99.255 99.255 0 0 1-7.562 23 95.922 95.922 0 0 1-1.608 3.208 12.648 12.648 0 0 1-2.191-6.574 1 1 0 1 0-2 .065 14.562 14.562 0 0 0 3.142 8.447 102.066 102.066 0 0 1-10.236 15.132 15.918 15.918 0 0 1-1-6.487 1 1 0 0 0-.937-1.059 1.013 1.013 0 0 0-1.059.938 17.7 17.7 0 0 0 1.555 8.34 104.565 104.565 0 0 1-8.987 9.319c1.241-6.75 2.91-14.883 4.825-21.757a17.5 17.5 0 0 0 7.717-4.137 1 1 0 1 0-1.355-1.47 16 16 0 0 1-5.71 3.346c.162-.539.325-1.07.489-1.586 2.226-6.982 6.818-13.8 11-19.019h.142a18.027 18.027 0 0 0 8.585-2.286 1 1 0 0 0-1-1.731 15.752 15.752 0 0 1-5.99 1.911 93.6 93.6 0 0 1 6.871-7.338 1 1 0 0 0-1.357-1.469 97.782 97.782 0 0 0-11.2 12.73 15.887 15.887 0 0 1-.822-6.032 1 1 0 0 0-.936-1.06.981.981 0 0 0-1.061.936 17.785 17.785 0 0 0 1.428 8.1 56.842 56.842 0 0 0-7.56 14.648l-.162.522a15.868 15.868 0 0 1-2.552-5.064 1 1 0 0 0-1.922.556 17.865 17.865 0 0 0 3.778 6.823c-2.121 7.37-3.961 16.378-5.285 23.643a52.189 52.189 0 0 1-2.256-8.5 17.5 17.5 0 0 0 4.539-7.494 1 1 0 1 0-1.916-.574 16 16 0 0 1-3.007 5.55 57.71 57.71 0 0 1 1.851-23.043 37.527 37.527 0 0 1 2.418-6.316c.33.029.789.057 1.351.057a17.91 17.91 0 0 0 6.808-1.343 1 1 0 1 0-.768-1.847 16 16 0 0 1-6.374 1.181 52.346 52.346 0 0 1 12.037-14.24 18.347 18.347 0 0 0 2.662.185 17.869 17.869 0 0 0 6.315-1.1 1 1 0 1 0-.715-1.868 16.084 16.084 0 0 1-6.012.957 68.937 68.937 0 0 1 13.156-8.109 1 1 0 1 0-.789-1.838 62.678 62.678 0 0 0-8.267 4.528 16.678 16.678 0 0 1 2.308-6.485 1 1 0 1 0-1.678-1.088 19.314 19.314 0 0 0-2.784 9.005 66.934 66.934 0 0 0-9.8 8.2 15.918 15.918 0 0 1-1.135-6.54 1 1 0 0 0-.958-1.047.982.982 0 0 0-1.043.956 17.764 17.764 0 0 0 1.643 8.209 45.92 45.92 0 0 0-9.557 15.668 18.5 18.5 0 0 1-3.237-6.154 1 1 0 1 0-1.92.559 20.34 20.34 0 0 0 4.447 7.837c-.009.033-.021.065-.031.1a61.129 61.129 0 0 0-2.34 17.933 15.881 15.881 0 0 1-3.118-4.713 1 1 0 0 0-1.842.779 17.685 17.685 0 0 0 5.1 6.785 54.055 54.055 0 0 0 2.67 13.253c-.3-.306-.611-.613-.9-.919-7.761-8.247-11.3-15.781-11.7-25.793a17.535 17.535 0 0 0 6.158-6.2 1 1 0 1 0-1.727-1.01 15.988 15.988 0 0 1-4.47 4.859c.012-1.876.112-3.829.317-5.9a39.424 39.424 0 0 1 3.955-13.921c.123.008.358.02.693.02a17.867 17.867 0 0 0 7.836-1.876 1 1 0 1 0-.9-1.786 16.014 16.014 0 0 1-6.544 1.652 36.968 36.968 0 0 1 14.569-14.184 1 1 0 0 0-.829-1.82 36.044 36.044 0 0 0-9.234 6.889 15.946 15.946 0 0 1 1.061-5.976 1 1 0 1 0-1.861-.729 17.487 17.487 0 0 0-1.05 8.7 39.791 39.791 0 0 0-9.119 18.933 15.886 15.886 0 0 1-2.5-5.516 1 1 0 1 0-1.947.454 17.534 17.534 0 0 0 4.035 7.731c-.052.41-.11.816-.151 1.236-1.475 14.916 1.88 24.9 11.962 35.61.208.222.428.443.643.664a45.2 45.2 0 0 1-10.486-5.7 17.771 17.771 0 0 0-1.54-8.187 1 1 0 0 0-1.822.826 15.946 15.946 0 0 1 1.368 5.777 30 30 0 0 1-7.783-9.974c-.059-.125-.1-.25-.16-.375a17.712 17.712 0 0 0 3.545-7.67 1 1 0 0 0-1.965-.377 15.99 15.99 0 0 1-2.469 5.89 28.543 28.543 0 0 1-1.735-11.36 17.694 17.694 0 0 0 6.657-6.757 1 1 0 0 0-1.779-.914 15.143 15.143 0 0 1-4.659 5.151c2.056-15.508 15.4-27.194 15.576-27.349a1 1 0 1 0-1.3-1.518 53.008 53.008 0 0 0-5.472 5.815 15.99 15.99 0 0 1-1.031-6.456 1 1 0 1 0-2-.108 17.683 17.683 0 0 0 1.616 8.356 52.372 52.372 0 0 0-6.938 11.98 16.163 16.163 0 0 1-2.541-6.273 1.01 1.01 0 0 0-1.148-.827 1 1 0 0 0-.827 1.147 18.133 18.133 0 0 0 3.689 8.2 33.971 33.971 0 0 0-1.865 12.327 15.443 15.443 0 0 1-4.648-5.4 1 1 0 0 0-1.809.854 18.292 18.292 0 0 0 6.672 7.115 31.2 31.2 0 0 0 2.773 9.4c.077.163.162.318.242.478a14.7 14.7 0 0 1-4.763-3.468 1 1 0 0 0-1.5 1.328 17.222 17.222 0 0 0 7.778 4.853c4.447 7.059 11.179 11.345 16.53 13.818a46.178 46.178 0 0 1-13.323-4.176 14.306 14.306 0 0 0-4.542-7.315 1 1 0 1 0-1.311 1.51 12.739 12.739 0 0 1 3.207 4.292c-8.916-5.759-13.2-15.412-13.249-15.515a1 1 0 1 0-1.834.8 37.834 37.834 0 0 0 3.311 5.766 15.772 15.772 0 0 1-5.171-2.856 1 1 0 1 0-1.3 1.521 18.193 18.193 0 0 0 8.352 3.883 37.974 37.974 0 0 0 7.388 7.116 18.774 18.774 0 0 1-6-1.114 1 1 0 1 0-.723 1.865 23.194 23.194 0 0 0 9.735 1.168c.212.119.414.247.63.361a49.345 49.345 0 0 0 20.031 5.237 61.068 61.068 0 0 1-4.95 3.653 1 1 0 0 0 1.06 1.7 64.423 64.423 0 0 0 5.554-4.127c-.83 4.869-1.31 8.171-1.324 8.26a1 1 0 0 0 .848 1.133 1.033 1.033 0 0 0 .144.01 1 1 0 0 0 .989-.857c.011-.079.392-2.7 1.059-6.691a46.475 46.475 0 0 0 8.271 11.782 1 1 0 0 0 1.359-1.467 43.079 43.079 0 0 1-7.414-10.232 82.721 82.721 0 0 0 16.1 10.112 12.877 12.877 0 0 0 5.222 7.062 1 1 0 1 0 1.07-1.689 10.424 10.424 0 0 1-3.687-4.229 33.031 33.031 0 0 0 12.025 2.833 15.808 15.808 0 0 0 1.717-.09 17.762 17.762 0 0 0 2.579-.5 16.129 16.129 0 0 0 6.012 1.14 15.531 15.531 0 0 0 2.727-.238 1 1 0 0 0-.35-1.969 14.205 14.205 0 0 1-5.206-.08 24.094 24.094 0 0 0 9.99-9.337 1 1 0 0 0-1.758-.955c-.048.089-4.963 8.941-14.212 9.946a17.946 17.946 0 0 1-4.967-.25 11.867 11.867 0 0 1 5.893-2.281 1 1 0 0 0 .916-1.078 1.015 1.015 0 0 0-1.078-.916 14.2 14.2 0 0 0-8.211 3.727c-6.672-1.772-14.522-6.062-21.347-11.139 7.213 3.229 15.938 5.685 22.784 5.685a24.4 24.4 0 0 0 2.684-.141 28.206 28.206 0 0 0 5.42-1.154 23.019 23.019 0 0 0 5.391.608 23.567 23.567 0 0 0 3.257-.224 1 1 0 0 0-.277-1.98 22.075 22.075 0 0 1-4.71.131c6.941-3.415 11.313-9.413 14.026-14.965a14.181 14.181 0 0 0 6.443-3.92 1 1 0 0 0-.09-1.408ZM1 108a1 1 0 0 1-.6-1.8c.1-.076 2.538-1.9 6.711-4.546a1 1 0 1 1 1.072 1.689c-4.1 2.6-6.56 4.438-6.584 4.456A.994.994 0 0 1 1 108ZM254.478 107.255a1 1 0 0 1-.866-1.5 60.855 60.855 0 0 1 4.584-6.728 1 1 0 1 1 1.582 1.225 58.75 58.75 0 0 0-4.432 6.5 1 1 0 0 1-.868.503ZM115.991 105.294a1 1 0 0 1-.629-1.778c2-1.612 4.146-3.27 6.382-4.924a1 1 0 0 1 1.189 1.607 190.401 190.401 0 0 0-6.315 4.873.994.994 0 0 1-.627.222ZM110.132 105.222a1 1 0 0 1-.7-.289 72.422 72.422 0 0 0-5.92-5.229 1 1 0 1 1 1.242-1.566 73.983 73.983 0 0 1 6.084 5.373 1 1 0 0 1-.706 1.711ZM250.122 102.021a1 1 0 0 1-.8-.395 68.783 68.783 0 0 0-5.137-5.983 1 1 0 1 1 1.441-1.387 70.909 70.909 0 0 1 5.287 6.159 1 1 0 0 1-.791 1.606ZM14.52 99.381a1 1 0 0 1-.493-1.87 155.952 155.952 0 0 1 7.116-3.789 1 1 0 1 1 .893 1.789 154.962 154.962 0 0 0-7.024 3.74.994.994 0 0 1-.492.13ZM128.873 95.756a1 1 0 0 1-.564-1.826c2.226-1.518 4.493-3 6.74-4.4a1 1 0 0 1 1.061 1.7 201.81 201.81 0 0 0-6.674 4.359 1 1 0 0 1-.563.167ZM97.61 95.278a1 1 0 0 1-.537-.157A73.366 73.366 0 0 0 90.2 91.24a1 1 0 0 1 .887-1.793 75.376 75.376 0 0 1 7.062 3.988 1 1 0 0 1-.539 1.843ZM264.2 94.568a1 1 0 0 1-.727-1.687 88.629 88.629 0 0 1 5.828-5.612 1 1 0 0 1 1.32 1.5 87.482 87.482 0 0 0-5.7 5.485 1 1 0 0 1-.721.314ZM28.852 92.244a1 1 0 0 1-.395-1.919 121.443 121.443 0 0 1 7.519-2.941 1 1 0 0 1 .664 1.887 119.183 119.183 0 0 0-7.394 2.893.991.991 0 0 1-.394.08ZM239.063 90.486a1 1 0 0 1-.644-.235 77.02 77.02 0 0 0-6.294-4.766 1 1 0 1 1 1.125-1.654 79.429 79.429 0 0 1 6.458 4.891 1 1 0 0 1-.645 1.764ZM83.288 88.208a1 1 0 0 1-.338-.059 64.938 64.938 0 0 0-7.558-2.209 1 1 0 0 1 .441-1.951 67.021 67.021 0 0 1 7.792 2.277 1 1 0 0 1-.337 1.942ZM142.462 87.278a1 1 0 0 1-.494-1.87c2.38-1.348 4.77-2.628 7.1-3.8a1 1 0 0 1 .9 1.785 168.58 168.58 0 0 0-7.017 3.759 1 1 0 0 1-.489.126ZM43.95 86.962A1 1 0 0 1 43.7 85a82.085 82.085 0 0 1 7.921-1.7 1 1 0 1 1 .32 1.975c-2.5.405-5.1.965-7.729 1.662a1.013 1.013 0 0 1-.262.025ZM67.723 84.693a.822.822 0 0 1-.1 0 61.858 61.858 0 0 0-3.67-.243 56.116 56.116 0 0 0-4.183.011 1 1 0 1 1-.079-2q2.172-.088 4.334-.011c1.25.045 2.525.13 3.789.251a1 1 0 0 1-.091 1.992ZM276.2 84.015a1 1 0 0 1-.592-1.807 92.255 92.255 0 0 1 6.729-4.482 1 1 0 1 1 1.035 1.711 90.421 90.421 0 0 0-6.583 4.385.993.993 0 0 1-.589.193ZM225.858 81.5a.989.989 0 0 1-.477-.122 81.788 81.788 0 0 0-7.113-3.432 1 1 0 0 1 .781-1.842 84.088 84.088 0 0 1 7.287 3.518 1 1 0 0 1-.478 1.878ZM156.761 80.088a1 1 0 0 1-.4-1.916 129.14 129.14 0 0 1 7.494-3 1 1 0 1 1 .68 1.881A124.483 124.483 0 0 0 157.162 80a.988.988 0 0 1-.401.088ZM289.87 75.739a1 1 0 0 1-.443-1.9 96.155 96.155 0 0 1 3.676-1.719 1 1 0 1 1 .809 1.83c-1.209.534-2.42 1.1-3.6 1.682a1 1 0 0 1-.442.107ZM211.165 75.24a1.006 1.006 0 0 1-.3-.048 91.82 91.82 0 0 0-7.63-2.08 1 1 0 1 1 .443-1.951 94.07 94.07 0 0 1 7.8 2.127 1 1 0 0 1-.313 1.952ZM171.817 74.677a1 1 0 0 1-.266-1.964 85.755 85.755 0 0 1 7.889-1.8 1 1 0 0 1 .352 1.969 85.4 85.4 0 0 0-7.707 1.764 1.009 1.009 0 0 1-.268.031ZM195.552 71.938h-.073a58.222 58.222 0 0 0-7.857-.019 1.011 1.011 0 0 1-1.062-.935 1 1 0 0 1 .935-1.062 59.675 59.675 0 0 1 8.129.021 1 1 0 0 1-.072 1.995Z"/>
</svg>
