<svg width="500" height="330" viewBox="0 0 500 330" fill="none" xmlns="http://www.w3.org/2000/svg">
<g clip-path="url(#clip0_337_1769)">
<path d="M124.263 283.352C126.249 283.064 132.427 281.85 135.697 277.633C139.377 272.887 142.553 249.421 142.903 246.761L142.923 246.616L142.902 246.471C142.79 245.628 142.38 244.854 141.747 244.292C141.113 243.729 140.299 243.415 139.455 243.408C138.61 243.401 137.791 243.701 137.149 244.253C136.506 244.806 136.084 245.573 135.958 246.414C134.306 254.761 131.121 268.006 129.108 270.287C127.763 271.809 126.017 272.916 124.073 273.482L123.888 266.16C125.898 264.851 129.549 262.209 130.859 259.48C132.595 255.86 132.738 236.777 132.748 234.613L132.738 234.457C132.652 233.821 132.339 233.238 131.858 232.817C131.376 232.396 130.759 232.166 130.121 232.17C129.484 232.174 128.869 232.412 128.393 232.839C127.917 233.266 127.611 233.853 127.534 234.49C127.515 234.665 125.613 251.971 125.358 253.999C125.01 254.859 124.408 255.592 123.633 256.096L122.528 212.424C122.457 211.261 121.945 210.171 121.099 209.377C120.252 208.583 119.135 208.146 117.979 208.157C116.822 208.168 115.713 208.626 114.882 209.435C114.05 210.245 113.559 211.345 113.509 212.509L112.135 266.801C110.499 265.659 109.246 264.045 108.539 262.172C107.788 259.693 105.727 236.995 104.995 228.457L104.978 228.259L104.891 228.081C104.54 227.477 104.044 226.97 103.449 226.608C102.853 226.245 102.178 226.038 101.483 226.005C100.714 225.895 99.9305 226.051 99.2608 226.447C98.5911 226.843 98.0744 227.456 97.7951 228.185L97.7412 228.361V228.551C97.7412 229.935 97.811 262.625 102.42 269.341C106.213 274.868 110.316 276.095 111.899 276.368L111.781 281.003V309.583C111.781 310.148 112.004 310.69 112.401 311.089C112.797 311.488 113.335 311.713 113.896 311.713H122.145C122.706 311.713 123.244 311.488 123.641 311.089C124.038 310.69 124.26 310.148 124.26 309.583V283.352H124.263Z" fill="#E6EAF0"/>
<path d="M67.1057 260.276L65.6135 211.727C65.6135 211.693 65.568 208.34 61.6826 208.34C57.7971 208.34 57.7517 211.689 57.7517 211.706L56.5323 251.423C55.9747 251.273 55.4688 250.972 55.0695 250.552C54.6703 250.133 54.3931 249.611 54.2681 249.044C53.899 246.534 53.3343 225.622 53.3237 225.338C53.1942 224.7 52.8407 224.131 52.3281 223.735C51.8154 223.338 51.178 223.142 50.5328 223.18C49.881 223.143 49.2378 223.345 48.7234 223.75C48.2091 224.155 47.8587 224.734 47.7377 225.38C47.6563 226.339 45.7675 249.004 48.277 253.473C50.3551 257.175 54.6361 258.347 56.3144 258.673L56.0553 267.104V287.165C56.0553 287.589 56.2225 287.995 56.52 288.294C56.8175 288.594 57.221 288.762 57.6417 288.762H65.7288C66.1495 288.762 66.553 288.594 66.8505 288.294C67.148 287.995 67.3151 287.589 67.3151 287.165V267.666C69.261 267.196 72.8599 265.91 74.718 262.608C77.2276 258.136 75.3388 236.57 75.2468 235.614C75.0823 234.99 74.7155 234.438 74.2044 234.047C73.6934 233.657 73.0673 233.449 72.4256 233.457C71.7839 233.465 71.1633 233.689 70.6623 234.093C70.1612 234.496 69.8084 235.057 69.6597 235.686C69.6597 235.885 69.0897 255.667 68.7206 258.175C68.6403 258.631 68.4514 259.06 68.1701 259.426C67.8889 259.792 67.5236 260.084 67.1057 260.276V260.276Z" fill="#E6EAF0"/>
<path d="M469.538 285.029C469.327 284.842 469.052 284.747 468.772 284.765C468.492 284.783 468.231 284.912 468.046 285.124C466.924 286.346 465.56 287.318 464.043 287.977C465.508 284.468 466.567 280.8 467.197 277.047C467.234 276.767 467.159 276.484 466.988 276.26C466.818 276.036 466.566 275.889 466.288 275.852C466.01 275.818 465.731 275.895 465.509 276.067C465.287 276.238 465.141 276.489 465.101 276.768C465.075 276.967 463.064 291.209 453.479 300.234C453.607 297.797 454.239 295.414 455.334 293.237C455.403 293.114 455.447 292.979 455.463 292.838C455.48 292.698 455.468 292.555 455.429 292.419C455.391 292.284 455.325 292.157 455.237 292.047C455.149 291.936 455.04 291.845 454.917 291.778C454.794 291.71 454.658 291.668 454.518 291.654C454.379 291.64 454.237 291.654 454.103 291.696C453.969 291.737 453.844 291.805 453.736 291.895C453.628 291.986 453.539 292.097 453.475 292.223C451.963 295.272 451.223 298.651 451.32 302.058C447.494 304.998 442.935 306.816 438.146 307.312C437.925 307.338 437.686 307.342 437.459 307.36C438.815 305.519 440.526 303.972 442.489 302.812C442.73 302.67 442.905 302.438 442.976 302.166C443.048 301.894 443.009 301.605 442.87 301.361C442.73 301.118 442.5 300.94 442.231 300.866C441.961 300.792 441.674 300.829 441.431 300.968C438.744 302.537 436.49 304.759 434.874 307.43C427.795 307.263 418.663 304.529 411.366 301.129C412.82 301.254 414.359 301.351 415.978 301.395C416.583 301.411 417.204 301.419 417.842 301.419C419.655 301.419 421.596 301.342 423.602 301.162C426.103 303.061 429.041 304.291 432.143 304.737C432.281 304.759 432.422 304.753 432.558 304.719C432.694 304.685 432.822 304.624 432.934 304.54C433.047 304.456 433.142 304.351 433.213 304.23C433.285 304.109 433.332 303.974 433.352 303.835C433.371 303.695 433.363 303.553 433.328 303.417C433.293 303.28 433.231 303.152 433.146 303.04C433.061 302.928 432.955 302.834 432.834 302.763C432.713 302.693 432.579 302.647 432.44 302.629C430.499 302.34 428.623 301.711 426.898 300.769C433.112 299.844 439.68 297.764 445.088 293.513C447.237 291.76 449.136 289.718 450.732 287.444C454.036 286.799 457.11 285.28 459.638 283.043C459.74 282.948 459.823 282.834 459.882 282.707C459.94 282.58 459.974 282.442 459.979 282.302C459.985 282.162 459.964 282.023 459.916 281.891C459.868 281.76 459.795 281.639 459.701 281.536C459.607 281.433 459.493 281.349 459.367 281.29C459.241 281.231 459.104 281.198 458.965 281.192C458.826 281.186 458.688 281.208 458.557 281.256C458.426 281.304 458.306 281.377 458.204 281.472C456.56 282.94 454.636 284.053 452.549 284.744C454.818 281.042 456.773 277.153 458.395 273.121C461.584 272.4 464.541 270.881 466.992 268.704C467.099 268.611 467.186 268.496 467.248 268.369C467.31 268.241 467.346 268.102 467.353 267.959C467.361 267.817 467.34 267.675 467.293 267.541C467.245 267.407 467.171 267.284 467.075 267.18C466.979 267.075 466.863 266.991 466.735 266.932C466.606 266.873 466.467 266.841 466.326 266.837C466.184 266.833 466.044 266.858 465.912 266.91C465.78 266.962 465.66 267.039 465.559 267.139C463.769 268.732 461.664 269.926 459.382 270.641C461.065 266.257 462.489 261.777 463.646 257.224C463.707 256.952 463.66 256.666 463.514 256.428C463.368 256.191 463.135 256.021 462.865 255.954C462.595 255.888 462.311 255.932 462.072 256.075C461.834 256.218 461.661 256.45 461.591 256.721C461.577 256.782 461.199 258.318 460.484 260.72C459.786 258.772 459.518 256.694 459.699 254.631C459.716 254.491 459.706 254.349 459.668 254.214C459.63 254.078 459.566 253.951 459.479 253.84C459.392 253.73 459.284 253.638 459.161 253.569C459.039 253.501 458.904 253.458 458.764 253.443C458.625 253.427 458.484 253.44 458.35 253.48C458.216 253.52 458.09 253.587 457.982 253.676C457.873 253.765 457.783 253.875 457.717 253.999C457.651 254.124 457.61 254.26 457.597 254.4C457.335 257.668 457.998 260.944 459.509 263.849C457.573 269.976 455.051 275.9 451.977 281.537C451.56 279.254 451.604 276.909 452.107 274.643C452.145 274.505 452.155 274.362 452.136 274.221C452.118 274.08 452.072 273.944 452.001 273.821C451.929 273.698 451.834 273.591 451.721 273.506C451.608 273.421 451.478 273.359 451.341 273.325C451.204 273.291 451.061 273.285 450.922 273.307C450.782 273.33 450.648 273.38 450.528 273.455C450.409 273.53 450.305 273.629 450.223 273.746C450.142 273.862 450.085 273.993 450.054 274.133C449.337 277.449 449.458 280.895 450.406 284.152C448.632 287.06 446.397 289.654 443.79 291.833C435.211 298.569 423.379 299.633 414.211 299.164C422.159 297.527 429.532 293.791 435.573 288.34C436.084 288.396 436.598 288.423 437.112 288.421C439.744 288.417 442.346 287.86 444.753 286.788C445.009 286.672 445.209 286.459 445.309 286.195C445.409 285.931 445.401 285.638 445.286 285.38C445.171 285.122 444.959 284.921 444.697 284.82C444.435 284.72 444.144 284.728 443.888 284.843C441.954 285.702 439.877 286.188 437.766 286.274C439.091 284.954 440.35 283.568 441.538 282.121C444.202 278.79 446.329 275.057 447.839 271.059C450.728 270.229 453.383 268.725 455.589 266.67C455.695 266.577 455.782 266.463 455.844 266.335C455.906 266.207 455.942 266.068 455.95 265.926C455.957 265.784 455.937 265.641 455.889 265.507C455.841 265.374 455.767 265.251 455.671 265.146C455.576 265.041 455.46 264.957 455.331 264.898C455.202 264.839 455.063 264.807 454.922 264.803C454.781 264.799 454.64 264.824 454.509 264.876C454.377 264.928 454.257 265.006 454.156 265.105C452.577 266.56 450.747 267.712 448.756 268.504C450.387 263.446 451.438 258.216 451.887 252.917C452.121 250.32 452.219 247.905 452.241 245.758C454.813 243.825 456.851 241.262 458.164 238.313C458.224 238.184 458.257 238.044 458.262 237.902C458.267 237.759 458.244 237.618 458.193 237.484C458.143 237.351 458.067 237.23 457.969 237.127C457.871 237.024 457.754 236.942 457.624 236.886C457.494 236.829 457.354 236.8 457.212 236.799C457.071 236.798 456.931 236.825 456.8 236.88C456.669 236.935 456.551 237.015 456.452 237.116C456.352 237.218 456.274 237.339 456.222 237.471C455.285 239.572 453.927 241.454 452.232 243.001C452.157 239.134 451.862 236.644 451.841 236.472C451.828 236.33 451.786 236.192 451.719 236.067C451.652 235.941 451.561 235.83 451.451 235.741C451.34 235.651 451.213 235.585 451.077 235.546C450.941 235.507 450.799 235.496 450.658 235.514C450.517 235.531 450.382 235.577 450.259 235.648C450.137 235.719 450.029 235.815 449.944 235.928C449.859 236.042 449.797 236.172 449.762 236.31C449.728 236.448 449.721 236.592 449.742 236.733C450.388 243.631 450.201 250.582 449.186 257.435C448.339 255.654 447.809 253.736 447.619 251.77C447.593 251.489 447.458 251.23 447.242 251.049C447.027 250.868 446.749 250.781 446.469 250.807C446.19 250.832 445.932 250.969 445.753 251.186C445.573 251.403 445.487 251.683 445.512 251.964C445.748 255.106 446.82 258.125 448.614 260.706C447.567 266.445 445.524 271.953 442.579 276.978C441.551 274.822 440.978 272.476 440.895 270.087C440.893 269.947 440.863 269.809 440.807 269.681C440.752 269.553 440.672 269.437 440.572 269.34C440.472 269.243 440.354 269.166 440.225 269.115C440.096 269.064 439.958 269.039 439.819 269.041C439.538 269.046 439.271 269.163 439.077 269.366C438.98 269.467 438.904 269.586 438.853 269.716C438.802 269.846 438.777 269.985 438.78 270.125C438.884 273.245 439.726 276.295 441.234 279.023C440.811 279.618 440.372 280.204 439.907 280.772C436.649 284.811 432.775 288.304 428.431 291.123C428.652 288.682 429.393 286.317 430.604 284.191C430.679 284.07 430.73 283.936 430.752 283.796C430.775 283.656 430.77 283.512 430.737 283.374C430.704 283.236 430.643 283.106 430.56 282.992C430.476 282.877 430.37 282.781 430.249 282.708C430.127 282.636 429.993 282.588 429.853 282.569C429.713 282.55 429.571 282.559 429.435 282.595C429.298 282.632 429.171 282.696 429.059 282.783C428.948 282.871 428.855 282.98 428.786 283.104C427.165 285.945 426.292 289.155 426.248 292.431C420.539 295.622 414.196 297.491 407.68 297.902C409.867 295.914 412.275 293.572 414.803 290.819C415.462 290.901 416.126 290.941 416.79 290.937C419.176 290.939 421.54 290.486 423.759 289.604C423.89 289.554 424.01 289.478 424.112 289.38C424.213 289.283 424.295 289.166 424.351 289.037C424.407 288.908 424.438 288.768 424.44 288.627C424.442 288.486 424.417 288.345 424.365 288.214C424.313 288.083 424.235 287.964 424.137 287.863C424.038 287.762 423.921 287.682 423.792 287.628C423.662 287.573 423.524 287.545 423.383 287.545C423.243 287.544 423.104 287.572 422.975 287.627C420.948 288.428 418.787 288.825 416.61 288.798C419.807 285.148 422.768 281.294 425.473 277.261C428.694 277.205 431.847 276.318 434.631 274.685C434.864 274.534 435.029 274.297 435.09 274.024C435.151 273.752 435.104 273.466 434.958 273.229C434.812 272.992 434.579 272.822 434.31 272.755C434.04 272.689 433.756 272.732 433.517 272.875C431.501 274.066 429.251 274.8 426.924 275.026C429.305 271.292 431.453 267.413 433.355 263.41C433.721 262.637 434.068 261.867 434.412 261.099C437.479 260.516 440.35 259.164 442.761 257.167C442.872 257.08 442.966 256.971 443.035 256.846C443.105 256.722 443.149 256.585 443.164 256.443C443.18 256.302 443.167 256.158 443.127 256.022C443.087 255.885 443.02 255.758 442.93 255.648C442.84 255.538 442.728 255.447 442.603 255.381C442.477 255.315 442.34 255.275 442.199 255.263C442.058 255.252 441.916 255.269 441.781 255.314C441.647 255.358 441.523 255.43 441.416 255.524C439.657 256.964 437.628 258.034 435.45 258.67C436.81 255.348 438.003 251.958 439.023 248.514C442.129 247.116 444.674 244.7 446.241 241.659C446.361 241.404 446.376 241.111 446.282 240.845C446.188 240.578 445.993 240.361 445.74 240.239C445.486 240.118 445.195 240.103 444.931 240.198C444.667 240.292 444.45 240.489 444.33 240.744C443.307 242.762 441.75 244.457 439.832 245.642C441.379 240.07 442.421 234.367 442.945 228.605C442.953 228.465 442.934 228.325 442.889 228.193C442.843 228.06 442.772 227.938 442.68 227.833C442.494 227.622 442.231 227.493 441.951 227.476C441.812 227.468 441.673 227.487 441.541 227.532C441.41 227.578 441.289 227.649 441.184 227.742C440.974 227.93 440.846 228.194 440.829 228.476C440.829 228.54 440.656 231.097 439.954 235.231C438.699 233.442 437.801 231.425 437.31 229.292C437.279 229.156 437.222 229.027 437.142 228.912C437.062 228.798 436.961 228.701 436.843 228.626C436.726 228.552 436.595 228.501 436.458 228.477C436.321 228.453 436.181 228.457 436.046 228.488C435.91 228.518 435.782 228.576 435.668 228.656C435.555 228.737 435.458 228.839 435.384 228.958C435.31 229.076 435.26 229.207 435.236 229.345C435.212 229.483 435.216 229.624 435.247 229.761C435.936 232.818 437.377 235.651 439.439 238C437.776 246.462 435.09 254.686 431.442 262.491C430.891 263.656 430.321 264.791 429.741 265.907C428.336 263.836 427.534 261.412 427.424 258.907C427.419 258.767 427.388 258.629 427.33 258.502C427.273 258.374 427.191 258.26 427.09 258.164C426.988 258.068 426.869 257.994 426.739 257.944C426.609 257.895 426.471 257.872 426.332 257.877C426.193 257.881 426.056 257.913 425.93 257.971C425.803 258.029 425.689 258.111 425.594 258.213C425.499 258.315 425.425 258.435 425.376 258.566C425.327 258.697 425.304 258.836 425.309 258.976C425.444 262.252 426.607 265.401 428.632 267.97C425.509 273.656 421.886 279.049 417.806 284.083C416.981 281.88 416.621 279.527 416.749 277.176C416.766 276.894 416.671 276.617 416.485 276.405C416.3 276.194 416.038 276.065 415.758 276.048C415.479 276.035 415.205 276.131 414.996 276.318C414.787 276.505 414.658 276.766 414.638 277.047C414.463 280.098 415.027 283.145 416.283 285.927C413.321 289.43 410.147 292.744 406.778 295.85C408.091 288.663 409.856 280.003 411.881 272.683C414.928 271.935 417.736 270.419 420.042 268.278C420.149 268.185 420.236 268.071 420.298 267.943C420.36 267.815 420.395 267.676 420.403 267.534C420.411 267.391 420.39 267.249 420.342 267.115C420.295 266.981 420.221 266.858 420.125 266.754C420.029 266.649 419.913 266.565 419.785 266.506C419.656 266.447 419.517 266.415 419.376 266.411C419.234 266.407 419.094 266.432 418.962 266.484C418.83 266.536 418.71 266.614 418.609 266.713C416.865 268.311 414.808 269.525 412.571 270.276C412.742 269.702 412.914 269.136 413.088 268.587C415.442 261.152 420.298 253.893 424.721 248.335H424.871C428.052 248.299 431.173 247.462 433.95 245.901C434.184 245.755 434.352 245.524 434.419 245.255C434.486 244.987 434.447 244.703 434.309 244.463C434.172 244.223 433.947 244.047 433.682 243.971C433.418 243.896 433.135 243.927 432.892 244.058C430.938 245.158 428.784 245.85 426.558 246.093C428.839 243.359 431.265 240.751 433.824 238.279C434.026 238.087 434.145 237.822 434.154 237.542C434.163 237.261 434.063 236.989 433.874 236.783C433.685 236.577 433.423 236.455 433.145 236.442C432.868 236.429 432.596 236.527 432.389 236.715C428.059 240.879 424.095 245.415 420.544 250.27C419.846 248.205 419.551 246.024 419.675 243.847C419.693 243.565 419.598 243.288 419.412 243.076C419.227 242.865 418.965 242.736 418.685 242.718C418.546 242.707 418.406 242.724 418.273 242.768C418.141 242.812 418.018 242.883 417.913 242.976C417.809 243.069 417.724 243.183 417.663 243.31C417.603 243.437 417.569 243.574 417.563 243.715C417.39 246.669 417.908 249.623 419.073 252.34C415.67 257.12 412.976 262.375 411.078 267.937C411.021 268.119 410.964 268.309 410.907 268.493C409.693 266.874 408.779 265.047 408.208 263.101C408.17 262.967 408.105 262.841 408.018 262.732C407.931 262.623 407.824 262.532 407.703 262.464C407.581 262.397 407.447 262.354 407.309 262.338C407.171 262.323 407.031 262.335 406.898 262.374C406.764 262.413 406.64 262.478 406.531 262.565C406.423 262.652 406.332 262.76 406.265 262.883C406.198 263.005 406.156 263.14 406.14 263.279C406.125 263.418 406.137 263.559 406.175 263.693C406.96 266.382 408.324 268.862 410.171 270.958C407.928 278.806 405.982 288.398 404.582 296.134C403.535 293.19 402.737 290.162 402.196 287.083C404.442 284.876 406.094 282.13 406.996 279.103C407.036 278.969 407.049 278.829 407.035 278.689C407.021 278.55 406.98 278.415 406.914 278.292C406.848 278.169 406.759 278.06 406.651 277.972C406.543 277.884 406.42 277.817 406.287 277.777C406.153 277.737 406.014 277.724 405.876 277.738C405.738 277.752 405.603 277.794 405.481 277.86C405.359 277.926 405.251 278.016 405.163 278.125C405.075 278.233 405.01 278.358 404.97 278.492C404.31 280.655 403.229 282.664 401.79 284.402C400.792 276.174 401.458 267.827 403.747 259.865C404.397 257.55 405.253 255.299 406.304 253.14C406.653 253.171 407.139 253.2 407.733 253.2C410.203 253.201 412.649 252.715 414.933 251.77C415.061 251.717 415.178 251.638 415.276 251.539C415.374 251.44 415.452 251.322 415.505 251.193C415.558 251.064 415.585 250.925 415.585 250.786C415.585 250.646 415.557 250.507 415.504 250.378C415.45 250.249 415.372 250.132 415.274 250.033C415.176 249.934 415.059 249.856 414.93 249.803C414.802 249.749 414.664 249.722 414.526 249.722C414.387 249.722 414.249 249.75 414.121 249.804C411.983 250.682 409.689 251.109 407.38 251.061C410.688 245.281 415 240.145 420.11 235.898C421.042 236.033 421.983 236.098 422.925 236.095C425.203 236.113 427.466 235.716 429.603 234.924C429.733 234.874 429.852 234.799 429.953 234.703C430.054 234.606 430.135 234.491 430.191 234.363C430.248 234.236 430.279 234.098 430.283 233.958C430.286 233.818 430.263 233.679 430.213 233.549C430.164 233.418 430.089 233.299 429.993 233.197C429.898 233.096 429.783 233.014 429.657 232.957C429.53 232.9 429.393 232.869 429.254 232.865C429.115 232.861 428.977 232.885 428.847 232.935C426.812 233.679 424.654 234.025 422.489 233.954C426.791 230.56 431.458 227.663 436.402 225.319C436.53 225.264 436.646 225.184 436.743 225.084C436.84 224.984 436.916 224.865 436.968 224.736C437.019 224.606 437.045 224.467 437.043 224.327C437.041 224.187 437.012 224.049 436.957 223.921C436.902 223.792 436.823 223.676 436.724 223.578C436.624 223.481 436.506 223.404 436.378 223.352C436.249 223.3 436.111 223.274 435.972 223.276C435.833 223.278 435.696 223.307 435.568 223.362C432.538 224.746 429.615 226.358 426.825 228.184C427.153 225.736 427.984 223.384 429.266 221.278C429.344 221.161 429.397 221.029 429.424 220.891C429.451 220.753 429.45 220.61 429.421 220.472C429.393 220.334 429.338 220.204 429.259 220.087C429.18 219.971 429.078 219.872 428.961 219.795C428.844 219.718 428.712 219.666 428.575 219.641C428.437 219.615 428.296 219.618 428.159 219.648C428.022 219.679 427.893 219.736 427.778 219.817C427.664 219.898 427.566 220.001 427.492 220.12C425.739 223.022 424.727 226.316 424.547 229.708C420.824 232.279 417.354 235.203 414.183 238.44C413.302 236.229 412.893 233.856 412.983 231.476C412.99 231.336 412.969 231.195 412.921 231.063C412.874 230.931 412.801 230.81 412.707 230.706C412.613 230.603 412.499 230.519 412.373 230.46C412.246 230.4 412.109 230.367 411.97 230.361C411.83 230.352 411.691 230.372 411.559 230.419C411.427 230.466 411.306 230.539 411.203 230.634C411.1 230.729 411.017 230.844 410.96 230.972C410.902 231.1 410.87 231.239 410.867 231.379C410.746 234.391 411.342 237.387 412.604 240.12C408.155 244.94 404.717 250.614 402.497 256.804C400.955 254.857 399.793 252.633 399.074 250.251C399.037 250.115 398.973 249.987 398.887 249.876C398.801 249.764 398.693 249.671 398.57 249.602C398.448 249.533 398.313 249.489 398.174 249.473C398.034 249.457 397.893 249.469 397.758 249.509C397.623 249.548 397.498 249.615 397.389 249.704C397.28 249.792 397.189 249.902 397.123 250.027C397.056 250.151 397.015 250.288 397.001 250.428C396.988 250.569 397.002 250.711 397.044 250.846C397.972 253.947 399.579 256.798 401.746 259.191C401.737 259.226 401.724 259.26 401.714 259.298C399.953 265.504 399.119 271.939 399.239 278.393C397.851 276.932 396.734 275.232 395.942 273.374C395.831 273.116 395.624 272.913 395.364 272.808C395.105 272.703 394.816 272.706 394.558 272.815C394.301 272.925 394.098 273.132 393.992 273.392C393.886 273.652 393.887 273.944 393.994 274.204C395.182 277.017 397.033 279.497 399.387 281.429C399.738 286.233 400.687 290.974 402.211 295.541C401.893 295.215 401.565 294.888 401.259 294.562C393.051 285.781 389.309 277.758 388.886 267.097C391.575 265.485 393.815 263.214 395.398 260.495C395.468 260.375 395.514 260.241 395.533 260.103C395.552 259.964 395.543 259.823 395.508 259.688C395.473 259.552 395.412 259.425 395.328 259.314C395.244 259.203 395.139 259.109 395.019 259.038C394.899 258.968 394.766 258.921 394.629 258.902C394.491 258.883 394.351 258.892 394.217 258.927C394.082 258.963 393.956 259.024 393.845 259.109C393.735 259.194 393.642 259.299 393.572 259.42C392.37 261.457 390.76 263.219 388.844 264.594C388.857 262.596 388.963 260.517 389.18 258.311C389.653 253.153 391.071 248.127 393.362 243.488C393.492 243.497 393.741 243.509 394.095 243.509C396.972 243.488 399.807 242.804 402.382 241.512C402.507 241.45 402.619 241.363 402.71 241.257C402.802 241.151 402.872 241.028 402.916 240.895C402.96 240.762 402.978 240.621 402.968 240.481C402.958 240.341 402.92 240.204 402.857 240.078C402.795 239.953 402.708 239.841 402.602 239.75C402.496 239.658 402.373 239.589 402.241 239.545C402.108 239.502 401.968 239.485 401.829 239.496C401.69 239.507 401.554 239.546 401.43 239.61C399.274 240.685 396.914 241.285 394.51 241.369C398.142 234.984 403.48 229.751 409.917 226.266C410.17 226.147 410.365 225.933 410.462 225.669C410.558 225.406 410.548 225.115 410.432 224.86C410.317 224.604 410.105 224.405 409.845 224.306C409.584 224.206 409.295 224.214 409.04 224.328C405.416 226.23 402.118 228.707 399.275 231.663C399.241 229.49 399.622 227.329 400.397 225.3C400.454 225.169 400.483 225.027 400.484 224.884C400.486 224.741 400.458 224.599 400.403 224.467C400.349 224.335 400.268 224.216 400.167 224.115C400.065 224.015 399.945 223.937 399.813 223.885C399.68 223.832 399.539 223.808 399.397 223.812C399.255 223.816 399.115 223.849 398.986 223.908C398.857 223.968 398.741 224.053 398.645 224.159C398.549 224.265 398.476 224.389 398.429 224.524C397.284 227.467 396.902 230.655 397.318 233.788C392.368 239.516 389.037 246.479 387.675 253.948C386.427 252.179 385.53 250.185 385.031 248.074C385.002 247.935 384.947 247.803 384.867 247.685C384.787 247.568 384.684 247.468 384.565 247.391C384.446 247.314 384.313 247.262 384.174 247.238C384.035 247.214 383.892 247.218 383.754 247.25C383.617 247.283 383.487 247.342 383.373 247.426C383.258 247.51 383.162 247.616 383.089 247.738C383.016 247.86 382.968 247.995 382.948 248.136C382.928 248.277 382.936 248.42 382.972 248.558C383.683 251.62 385.151 254.451 387.239 256.79C387.184 257.226 387.123 257.659 387.079 258.106C385.519 273.989 389.067 284.62 399.73 296.024C399.95 296.26 400.182 296.496 400.41 296.731C396.463 295.21 392.734 293.169 389.32 290.662C389.471 287.667 388.913 284.679 387.692 281.944C387.576 281.687 387.363 281.486 387.101 281.387C386.838 281.287 386.547 281.297 386.291 281.414C386.036 281.53 385.837 281.744 385.738 282.009C385.639 282.273 385.649 282.566 385.765 282.824C386.625 284.765 387.116 286.851 387.211 288.975C383.749 286.064 380.943 282.444 378.98 278.354C378.918 278.221 378.875 278.088 378.811 277.955C380.697 275.577 381.983 272.775 382.56 269.788C382.613 269.511 382.554 269.223 382.397 268.99C382.239 268.756 381.996 268.594 381.721 268.541C381.445 268.488 381.16 268.547 380.927 268.706C380.695 268.864 380.535 269.109 380.482 269.387C380.04 271.633 379.151 273.766 377.871 275.658C376.451 271.793 375.827 267.678 376.036 263.562C378.99 261.854 381.424 259.366 383.076 256.367C383.14 256.243 383.178 256.107 383.19 255.968C383.201 255.828 383.185 255.688 383.143 255.555C383.1 255.422 383.032 255.298 382.942 255.192C382.852 255.085 382.743 254.997 382.619 254.933C382.495 254.869 382.361 254.831 382.222 254.819C382.084 254.808 381.944 254.824 381.812 254.867C381.68 254.909 381.557 254.978 381.452 255.068C381.346 255.159 381.258 255.27 381.195 255.394C379.997 257.582 378.31 259.46 376.268 260.879C378.442 244.366 392.554 231.922 392.74 231.757C392.852 231.668 392.944 231.557 393.012 231.432C393.08 231.306 393.122 231.168 393.136 231.025C393.149 230.882 393.134 230.739 393.092 230.602C393.049 230.465 392.979 230.339 392.886 230.23C392.794 230.121 392.681 230.033 392.553 229.969C392.426 229.905 392.287 229.868 392.145 229.86C392.003 229.851 391.861 229.872 391.727 229.92C391.593 229.969 391.47 230.044 391.365 230.141C389.285 232.055 387.35 234.125 385.579 236.333C384.749 234.141 384.378 231.801 384.488 229.458C384.496 229.318 384.476 229.178 384.43 229.046C384.383 228.914 384.312 228.793 384.219 228.688C384.126 228.584 384.014 228.499 383.888 228.439C383.763 228.378 383.627 228.343 383.488 228.336C383.349 228.328 383.21 228.348 383.079 228.395C382.948 228.441 382.827 228.514 382.723 228.607C382.62 228.701 382.536 228.814 382.475 228.94C382.415 229.066 382.381 229.203 382.373 229.343C382.215 232.405 382.802 235.459 384.082 238.241C381.086 242.147 378.619 246.437 376.745 250.997C375.391 248.987 374.475 246.71 374.058 244.318C374.01 244.04 373.856 243.792 373.629 243.628C373.402 243.463 373.12 243.395 372.844 243.437C372.567 243.482 372.319 243.636 372.155 243.865C371.991 244.094 371.924 244.38 371.969 244.658C372.521 247.853 373.862 250.855 375.87 253.39C374.414 257.605 373.745 262.056 373.898 266.516C371.837 265.011 370.153 263.042 368.982 260.766C368.863 260.51 368.647 260.313 368.383 260.218C368.119 260.123 367.828 260.137 367.574 260.257C367.321 260.378 367.125 260.595 367.03 260.861C366.935 261.127 366.949 261.42 367.069 261.675C368.697 264.797 371.136 267.416 374.125 269.251C374.573 272.723 375.563 276.101 377.058 279.261C377.139 279.434 377.229 279.599 377.314 279.77C375.404 278.894 373.691 277.637 372.277 276.077C372.184 275.972 372.073 275.886 371.948 275.825C371.822 275.764 371.687 275.728 371.548 275.719C371.409 275.711 371.27 275.73 371.138 275.776C371.007 275.821 370.885 275.892 370.781 275.985C370.677 276.078 370.592 276.191 370.531 276.317C370.47 276.443 370.435 276.579 370.426 276.719C370.418 276.859 370.437 276.999 370.482 277.132C370.527 277.264 370.598 277.386 370.69 277.491C372.918 279.93 375.761 281.716 378.916 282.658C383.619 290.175 390.738 294.739 396.397 297.372C391.504 296.617 386.753 295.118 382.308 292.925C381.539 289.894 379.862 287.174 377.504 285.136C377.4 285.042 377.278 284.969 377.145 284.923C377.012 284.876 376.872 284.857 376.732 284.865C376.592 284.874 376.455 284.911 376.329 284.974C376.203 285.036 376.091 285.123 375.999 285.23C375.907 285.337 375.837 285.461 375.793 285.595C375.749 285.73 375.732 285.871 375.743 286.012C375.754 286.153 375.793 286.291 375.857 286.416C375.922 286.542 376.01 286.653 376.118 286.744C377.557 288.008 378.713 289.566 379.509 291.314C370.08 285.182 365.55 274.903 365.498 274.794C365.442 274.666 365.362 274.55 365.262 274.453C365.162 274.355 365.044 274.279 364.915 274.228C364.785 274.177 364.647 274.152 364.508 274.155C364.369 274.157 364.232 274.187 364.105 274.243C363.978 274.299 363.862 274.38 363.766 274.481C363.67 274.581 363.594 274.7 363.543 274.83C363.492 274.961 363.468 275.1 363.47 275.24C363.473 275.379 363.503 275.517 363.558 275.646C364.544 277.792 365.716 279.846 367.06 281.785C365.063 281.127 363.207 280.096 361.591 278.744C361.485 278.653 361.363 278.584 361.231 278.541C361.099 278.498 360.96 278.481 360.821 278.492C360.683 278.503 360.548 278.541 360.424 278.605C360.3 278.668 360.19 278.756 360.099 278.862C360.009 278.968 359.941 279.091 359.898 279.224C359.855 279.357 359.838 279.498 359.849 279.637C359.86 279.777 359.898 279.913 359.961 280.037C360.024 280.162 360.111 280.273 360.216 280.364C362.76 282.482 365.801 283.906 369.049 284.498V284.498C371.301 287.368 373.929 289.917 376.862 292.076C374.697 292.031 372.554 291.631 370.517 290.889C370.387 290.839 370.249 290.815 370.11 290.818C369.972 290.821 369.835 290.852 369.708 290.908C369.58 290.965 369.466 291.046 369.37 291.147C369.274 291.248 369.199 291.367 369.148 291.498C369.098 291.628 369.074 291.767 369.077 291.907C369.08 292.047 369.111 292.184 369.167 292.312C369.223 292.44 369.304 292.556 369.404 292.652C369.504 292.749 369.623 292.825 369.752 292.875C373.057 294.024 376.567 294.448 380.048 294.119C380.272 294.246 380.485 294.382 380.714 294.503C387.304 297.85 394.524 299.75 401.898 300.08C400.219 301.464 398.472 302.762 396.663 303.97C396.424 304.119 396.255 304.358 396.191 304.634C396.128 304.909 396.176 305.199 396.324 305.439C396.473 305.679 396.71 305.85 396.984 305.914C397.258 305.978 397.545 305.93 397.784 305.78C399.818 304.422 401.779 302.955 403.657 301.385C402.78 306.57 402.272 310.086 402.257 310.181C402.237 310.319 402.245 310.46 402.279 310.596C402.313 310.732 402.374 310.859 402.457 310.971C402.541 311.083 402.645 311.178 402.765 311.249C402.884 311.32 403.016 311.367 403.154 311.387C403.204 311.394 403.255 311.398 403.306 311.398C403.56 311.398 403.806 311.305 403.998 311.138C404.19 310.97 404.316 310.739 404.352 310.485C404.364 310.401 404.767 307.61 405.472 303.361C407.723 307.975 410.674 312.207 414.219 315.906C414.426 316.093 414.697 316.19 414.974 316.177C415.252 316.164 415.513 316.042 415.701 315.837C415.89 315.632 415.991 315.361 415.982 315.081C415.974 314.802 415.857 314.537 415.656 314.344C412.525 311.12 409.883 307.449 407.816 303.449C413.061 307.685 418.775 311.298 424.842 314.216C425.751 317.297 427.706 319.959 430.365 321.736C430.482 321.815 430.614 321.87 430.752 321.896C430.891 321.923 431.033 321.922 431.171 321.893C431.309 321.863 431.44 321.806 431.556 321.725C431.672 321.644 431.77 321.541 431.846 321.421C431.921 321.301 431.972 321.167 431.996 321.027C432.019 320.887 432.014 320.743 431.981 320.605C431.949 320.467 431.889 320.337 431.806 320.222C431.723 320.107 431.617 320.011 431.497 319.938C429.812 318.824 428.464 317.266 427.597 315.435C431.61 317.236 435.925 318.26 440.314 318.451C440.921 318.452 441.527 318.42 442.13 318.355C443.051 318.246 443.963 318.068 444.858 317.823C446.881 318.632 449.039 319.044 451.216 319.037C452.183 319.038 453.148 318.953 454.1 318.783C454.373 318.731 454.615 318.572 454.773 318.342C454.931 318.111 454.992 317.827 454.944 317.551C454.895 317.275 454.74 317.029 454.513 316.868C454.286 316.706 454.004 316.641 453.729 316.687C451.905 317 450.038 316.971 448.224 316.602C452.625 314.384 456.295 310.931 458.789 306.659C458.923 306.411 458.953 306.12 458.874 305.849C458.794 305.578 458.611 305.35 458.364 305.215C458.118 305.08 457.828 305.049 457.559 305.13C457.29 305.21 457.064 305.394 456.93 305.642C456.879 305.737 451.681 315.163 441.9 316.233C440.145 316.39 438.377 316.301 436.647 315.967C438.468 314.605 440.622 313.766 442.879 313.538C443.017 313.527 443.152 313.488 443.276 313.424C443.4 313.361 443.51 313.273 443.6 313.166C443.689 313.06 443.758 312.936 443.8 312.803C443.843 312.67 443.859 312.53 443.848 312.39C443.821 312.11 443.687 311.852 443.474 311.67C443.261 311.488 442.986 311.396 442.708 311.415C439.462 311.753 436.413 313.146 434.024 315.383C426.968 313.497 418.666 308.929 411.448 303.522C419.077 306.961 428.304 309.576 435.544 309.576C436.492 309.578 437.44 309.528 438.382 309.426C440.328 309.207 442.248 308.795 444.114 308.197C445.983 308.638 447.896 308.856 449.815 308.844C450.968 308.845 452.119 308.765 453.26 308.606C453.532 308.56 453.775 308.409 453.938 308.186C454.101 307.962 454.171 307.683 454.133 307.408C454.095 307.133 453.951 306.884 453.734 306.714C453.516 306.544 453.241 306.466 452.967 306.498C451.316 306.723 449.646 306.77 447.986 306.637C455.326 303.001 459.95 296.614 462.819 290.702C465.423 289.955 467.778 288.513 469.633 286.528C469.817 286.316 469.911 286.04 469.893 285.759C469.875 285.478 469.747 285.215 469.538 285.029Z" fill="#565A5C"/>
<path d="M30.0576 323C29.8356 323 29.6193 322.93 29.4392 322.799C29.2591 322.668 29.1245 322.484 29.0543 322.272C28.9841 322.06 28.9819 321.831 29.0481 321.618C29.1143 321.404 29.2455 321.217 29.423 321.083C29.5288 321.002 32.1071 319.06 36.5203 316.243C36.6375 316.168 36.7683 316.117 36.9052 316.093C37.042 316.069 37.1822 316.072 37.3178 316.102C37.4534 316.133 37.5817 316.19 37.6953 316.271C37.809 316.351 37.9058 316.453 37.9802 316.571C38.0547 316.689 38.1053 316.821 38.1292 316.959C38.153 317.097 38.1498 317.238 38.1195 317.374C38.0892 317.511 38.0325 317.64 37.9526 317.754C37.8727 317.869 37.7712 317.966 37.654 318.041C33.318 320.81 30.7164 322.767 30.691 322.786C30.5086 322.925 30.2862 323 30.0576 323V323Z" fill="#565A5C"/>
<path d="M298.124 322.206C297.938 322.206 297.756 322.157 297.595 322.064C297.434 321.97 297.301 321.836 297.208 321.674C297.115 321.512 297.066 321.328 297.066 321.141C297.066 320.955 297.115 320.771 297.208 320.609C298.663 318.115 300.283 315.721 302.056 313.445C302.141 313.334 302.247 313.242 302.367 313.172C302.488 313.103 302.621 313.058 302.759 313.04C302.897 313.023 303.037 313.033 303.171 313.069C303.305 313.106 303.43 313.169 303.54 313.255C303.65 313.341 303.742 313.447 303.811 313.569C303.88 313.69 303.924 313.824 303.942 313.963C303.96 314.102 303.95 314.242 303.913 314.377C303.877 314.512 303.814 314.639 303.729 314.749C302.015 316.948 300.449 319.261 299.042 321.671C298.949 321.833 298.816 321.969 298.654 322.063C298.493 322.157 298.31 322.206 298.124 322.206V322.206Z" fill="#565A5C"/>
<path d="M151.667 320.119C151.448 320.119 151.234 320.051 151.056 319.923C150.877 319.796 150.742 319.617 150.669 319.409C150.596 319.201 150.589 318.976 150.648 318.764C150.708 318.552 150.831 318.364 151.002 318.225C153.117 316.509 155.386 314.743 157.751 312.982C157.977 312.825 158.255 312.762 158.526 312.807C158.797 312.852 159.04 313.002 159.203 313.224C159.367 313.446 159.438 313.724 159.401 313.999C159.365 314.273 159.224 314.522 159.008 314.693C156.667 316.439 154.42 318.183 152.33 319.882C152.142 320.035 151.908 320.119 151.667 320.119V320.119Z" fill="#565A5C"/>
<path d="M145.47 320.042C145.193 320.041 144.927 319.93 144.73 319.734C142.745 317.765 140.655 315.906 138.469 314.166C138.355 314.081 138.259 313.974 138.186 313.851C138.114 313.728 138.067 313.591 138.048 313.449C138.03 313.308 138.039 313.164 138.077 313.026C138.115 312.888 138.18 312.759 138.268 312.647C138.356 312.535 138.466 312.442 138.591 312.373C138.716 312.305 138.853 312.263 138.994 312.249C139.136 312.235 139.278 312.25 139.414 312.293C139.549 312.336 139.675 312.406 139.783 312.498C142.03 314.285 144.178 316.195 146.217 318.22C146.366 318.368 146.468 318.558 146.51 318.765C146.552 318.973 146.531 319.187 146.451 319.383C146.371 319.578 146.235 319.745 146.06 319.862C145.886 319.98 145.68 320.042 145.47 320.042Z" fill="#565A5C"/>
<path d="M293.518 316.633C293.354 316.634 293.192 316.596 293.045 316.523C292.899 316.45 292.771 316.344 292.672 316.213C290.983 313.986 289.169 311.859 287.239 309.842C287.044 309.638 286.938 309.365 286.944 309.083C286.949 308.801 287.065 308.532 287.268 308.336C287.47 308.14 287.741 308.033 288.021 308.039C288.302 308.044 288.568 308.161 288.763 308.365C290.75 310.442 292.616 312.631 294.354 314.923C294.473 315.081 294.547 315.268 294.566 315.466C294.585 315.663 294.549 315.861 294.462 316.039C294.375 316.217 294.24 316.366 294.074 316.471C293.907 316.576 293.714 316.632 293.518 316.633Z" fill="#565A5C"/>
<path d="M44.3554 313.822C44.1218 313.822 43.8949 313.745 43.7099 313.601C43.5249 313.457 43.3923 313.256 43.3328 313.029C43.2733 312.802 43.2901 312.561 43.3808 312.344C43.4715 312.127 43.6308 311.947 43.834 311.831C46.3319 310.408 48.8648 309.051 51.3595 307.797C51.4841 307.73 51.6206 307.69 51.761 307.678C51.9013 307.665 52.0427 307.681 52.1768 307.725C52.3109 307.768 52.4351 307.838 52.542 307.93C52.6489 308.023 52.7363 308.136 52.7993 308.263C52.8622 308.39 52.8993 308.528 52.9084 308.67C52.9175 308.811 52.8984 308.953 52.8523 309.087C52.8061 309.221 52.7338 309.345 52.6397 309.45C52.5455 309.556 52.4314 309.641 52.3039 309.702C49.8419 310.939 47.3429 312.279 44.8757 313.684C44.7171 313.775 44.5378 313.822 44.3554 313.822V313.822Z" fill="#565A5C"/>
<path d="M165.29 309.962C165.064 309.962 164.844 309.89 164.662 309.755C164.48 309.619 164.346 309.429 164.28 309.212C164.213 308.994 164.217 308.761 164.292 308.546C164.366 308.331 164.507 308.146 164.694 308.018C167.048 306.402 169.445 304.824 171.822 303.333C172.06 303.183 172.348 303.135 172.622 303.199C172.896 303.262 173.133 303.433 173.282 303.673C173.431 303.913 173.479 304.203 173.415 304.479C173.352 304.754 173.182 304.993 172.944 305.143C170.591 306.624 168.216 308.185 165.886 309.785C165.709 309.903 165.502 309.964 165.29 309.962Z" fill="#565A5C"/>
<path d="M132.228 309.454C132.027 309.454 131.83 309.396 131.66 309.287C129.313 307.779 126.886 306.399 124.391 305.154C124.267 305.092 124.156 305.006 124.064 304.901C123.973 304.796 123.903 304.673 123.858 304.541C123.814 304.408 123.796 304.268 123.805 304.129C123.814 303.989 123.851 303.853 123.912 303.727C123.974 303.602 124.06 303.49 124.164 303.398C124.269 303.306 124.39 303.235 124.522 303.191C124.653 303.146 124.792 303.128 124.931 303.137C125.07 303.146 125.205 303.183 125.33 303.245C127.893 304.524 130.386 305.942 132.798 307.491C132.991 307.615 133.139 307.799 133.219 308.015C133.3 308.231 133.308 308.467 133.244 308.688C133.18 308.909 133.046 309.103 132.863 309.242C132.68 309.38 132.457 309.454 132.228 309.454Z" fill="#565A5C"/>
<path d="M308.406 308.697C308.199 308.697 307.997 308.637 307.824 308.522C307.651 308.408 307.516 308.245 307.434 308.054C307.352 307.863 307.328 307.652 307.364 307.447C307.4 307.242 307.495 307.052 307.637 306.901C309.581 304.834 311.655 302.823 313.8 300.925C314.012 300.753 314.282 300.67 314.554 300.694C314.825 300.717 315.077 300.845 315.257 301.051C315.437 301.257 315.532 301.525 315.52 301.799C315.509 302.073 315.393 302.332 315.196 302.523C313.098 304.379 311.072 306.343 309.168 308.363C309.07 308.468 308.952 308.551 308.821 308.609C308.69 308.666 308.549 308.696 308.406 308.697Z" fill="#565A5C"/>
<path d="M59.5124 306.223C59.2688 306.223 59.0327 306.138 58.8438 305.984C58.6549 305.829 58.5249 305.613 58.4758 305.373C58.4267 305.132 58.4615 304.882 58.5742 304.665C58.687 304.448 58.8708 304.276 59.0947 304.179C61.765 303.025 64.4406 301.972 67.0465 301.048C67.3111 300.954 67.6019 300.97 67.8548 301.092C68.1078 301.214 68.3022 301.432 68.3954 301.699C68.4885 301.965 68.4727 302.258 68.3514 302.513C68.2301 302.768 68.0133 302.963 67.7487 303.057C65.1873 303.965 62.5571 305.001 59.9291 306.138C59.7975 306.194 59.6557 306.223 59.5124 306.223V306.223Z" fill="#565A5C"/>
<path d="M281.823 304.351C281.573 304.351 281.332 304.263 281.142 304.101C279.01 302.296 276.789 300.602 274.485 299.026C274.37 298.947 274.272 298.847 274.196 298.73C274.12 298.613 274.067 298.482 274.041 298.345C274.015 298.207 274.016 298.066 274.045 297.929C274.073 297.792 274.127 297.662 274.206 297.547C274.284 297.431 274.384 297.332 274.5 297.255C274.616 297.178 274.746 297.125 274.882 297.099C275.019 297.073 275.159 297.074 275.295 297.103C275.431 297.131 275.56 297.186 275.675 297.265C278.038 298.883 280.318 300.621 282.505 302.473C282.67 302.614 282.789 302.802 282.845 303.013C282.9 303.224 282.89 303.447 282.816 303.652C282.741 303.857 282.606 304.034 282.428 304.159C282.251 304.284 282.039 304.351 281.823 304.351Z" fill="#565A5C"/>
<path d="M117.081 301.926C116.959 301.926 116.838 301.904 116.724 301.863C114.109 300.917 111.44 300.131 108.731 299.511C108.457 299.448 108.219 299.279 108.07 299.04C107.92 298.802 107.87 298.513 107.932 298.237C107.994 297.962 108.162 297.722 108.399 297.571C108.637 297.421 108.924 297.371 109.197 297.433C111.99 298.073 114.742 298.883 117.438 299.858C117.672 299.942 117.87 300.107 117.996 300.324C118.122 300.541 118.167 300.796 118.125 301.043C118.082 301.29 117.954 301.515 117.763 301.676C117.572 301.838 117.331 301.926 117.081 301.926V301.926Z" fill="#565A5C"/>
<path d="M179.661 300.935C179.427 300.935 179.2 300.858 179.015 300.714C178.83 300.571 178.697 300.37 178.638 300.142C178.578 299.915 178.595 299.674 178.685 299.457C178.776 299.24 178.935 299.06 179.139 298.944C181.656 297.509 184.183 296.146 186.647 294.898C186.896 294.781 187.181 294.766 187.441 294.857C187.7 294.947 187.915 295.136 188.038 295.383C188.162 295.631 188.186 295.916 188.104 296.181C188.022 296.445 187.841 296.666 187.599 296.798C185.167 298.036 182.666 299.383 180.178 300.801C180.02 300.89 179.842 300.936 179.661 300.935V300.935Z" fill="#565A5C"/>
<path d="M75.4794 300.598C75.2262 300.593 74.9834 300.496 74.7952 300.325C74.6069 300.154 74.4858 299.921 74.4538 299.668C74.4218 299.415 74.481 299.159 74.6207 298.947C74.7604 298.734 74.9713 298.579 75.215 298.509C78.0641 297.749 80.8825 297.139 83.5919 296.699C83.729 296.677 83.8692 296.682 84.0044 296.714C84.1396 296.746 84.2672 296.805 84.3799 296.887C84.4926 296.968 84.5882 297.072 84.6612 297.191C84.7342 297.31 84.7832 297.442 84.8055 297.58C84.8277 297.718 84.8227 297.859 84.7907 297.996C84.7588 298.132 84.7005 298.26 84.6192 298.374C84.538 298.487 84.4353 298.583 84.3171 298.657C84.1989 298.73 84.0675 298.78 83.9303 298.802C81.2864 299.233 78.5368 299.83 75.7565 300.572C75.6657 300.593 75.5725 300.602 75.4794 300.598V300.598Z" fill="#565A5C"/>
<path d="M100.62 298.182C100.585 298.185 100.55 298.185 100.515 298.182C99.219 298.058 97.914 297.969 96.6333 297.924C95.1654 297.871 93.688 297.877 92.2095 297.935C91.929 297.946 91.6557 297.845 91.4495 297.653C91.2433 297.461 91.1213 297.195 91.1102 296.913C91.0991 296.63 91.1999 296.355 91.3904 296.147C91.5809 295.94 91.8455 295.817 92.126 295.806C93.6573 295.743 95.1851 295.739 96.7094 295.794C98.0314 295.842 99.3797 295.932 100.716 296.061C100.981 296.094 101.223 296.226 101.395 296.431C101.567 296.636 101.656 296.899 101.644 297.167C101.631 297.435 101.519 297.688 101.33 297.876C101.14 298.065 100.887 298.174 100.62 298.182V298.182Z" fill="#565A5C"/>
<path d="M321.096 297.46C320.873 297.461 320.656 297.39 320.475 297.258C320.294 297.127 320.159 296.941 320.09 296.727C320.02 296.514 320.02 296.283 320.088 296.07C320.156 295.856 320.29 295.669 320.47 295.536C322.757 293.852 325.151 292.246 327.586 290.764C327.705 290.688 327.838 290.638 327.976 290.615C328.115 290.591 328.257 290.596 328.393 290.629C328.53 290.661 328.659 290.721 328.772 290.804C328.886 290.888 328.982 290.993 329.055 291.114C329.127 291.235 329.175 291.369 329.196 291.509C329.216 291.649 329.209 291.792 329.174 291.929C329.14 292.066 329.078 292.194 328.993 292.307C328.909 292.42 328.802 292.515 328.681 292.586C326.297 294.037 323.955 295.608 321.719 297.255C321.539 297.389 321.32 297.461 321.096 297.46V297.46Z" fill="#565A5C"/>
<path d="M267.857 294.782C267.681 294.783 267.507 294.738 267.353 294.652C264.935 293.329 262.405 292.097 259.831 290.998C259.572 290.888 259.368 290.679 259.263 290.417C259.158 290.155 259.16 289.862 259.269 289.602C259.379 289.341 259.587 289.136 259.847 289.03C260.107 288.924 260.398 288.926 260.656 289.037C263.294 290.165 265.886 291.425 268.363 292.783C268.569 292.896 268.732 293.075 268.826 293.292C268.92 293.509 268.939 293.751 268.882 293.98C268.824 294.209 268.691 294.413 268.506 294.558C268.321 294.703 268.092 294.782 267.857 294.782V294.782Z" fill="#565A5C"/>
<path d="M194.783 293.279C194.54 293.279 194.305 293.194 194.117 293.04C193.928 292.886 193.798 292.671 193.749 292.432C193.699 292.192 193.733 291.943 193.844 291.726C193.955 291.509 194.137 291.337 194.36 291.239C197.025 290.067 199.691 288.994 202.285 288.044C202.416 287.997 202.554 287.976 202.693 287.982C202.832 287.988 202.968 288.022 203.094 288.082C203.22 288.141 203.332 288.225 203.426 288.328C203.52 288.431 203.592 288.552 203.639 288.684C203.687 288.815 203.708 288.955 203.701 289.094C203.695 289.234 203.661 289.371 203.602 289.498C203.543 289.624 203.46 289.738 203.358 289.832C203.255 289.927 203.135 290 203.004 290.047C200.453 290.977 197.83 292.033 195.207 293.185C195.074 293.246 194.929 293.278 194.783 293.279Z" fill="#565A5C"/>
<path d="M335.553 288.648C335.313 288.649 335.08 288.569 334.891 288.419C334.703 288.27 334.57 288.06 334.516 287.825C334.461 287.589 334.488 287.342 334.591 287.124C334.695 286.906 334.869 286.73 335.085 286.624C336.359 285.991 337.666 285.375 338.972 284.794C339.229 284.68 339.52 284.673 339.782 284.775C340.044 284.877 340.254 285.079 340.368 285.338C340.481 285.596 340.488 285.889 340.387 286.153C340.286 286.416 340.085 286.628 339.828 286.743C338.549 287.311 337.269 287.914 336.021 288.534C335.876 288.607 335.716 288.646 335.553 288.648Z" fill="#565A5C"/>
<path d="M252.318 288.116C252.211 288.115 252.104 288.098 252.001 288.065C249.381 287.221 246.667 286.475 243.932 285.85C243.797 285.819 243.668 285.762 243.555 285.681C243.442 285.6 243.345 285.498 243.271 285.379C243.197 285.261 243.147 285.129 243.124 284.991C243.1 284.853 243.104 284.712 243.135 284.576C243.165 284.439 243.223 284.31 243.303 284.196C243.383 284.082 243.485 283.985 243.602 283.91C243.72 283.836 243.851 283.785 243.988 283.762C244.125 283.738 244.265 283.742 244.401 283.773C247.195 284.412 249.969 285.174 252.649 286.038C252.89 286.116 253.095 286.278 253.227 286.495C253.359 286.711 253.41 286.969 253.37 287.22C253.33 287.471 253.202 287.7 253.009 287.864C252.816 288.029 252.571 288.118 252.318 288.116Z" fill="#565A5C"/>
<path d="M210.706 287.517C210.45 287.517 210.203 287.424 210.01 287.254C209.818 287.085 209.692 286.851 209.658 286.595C209.624 286.34 209.682 286.081 209.823 285.866C209.964 285.651 210.178 285.494 210.425 285.426C213.251 284.639 216.057 283.992 218.768 283.509C219.044 283.46 219.328 283.522 219.559 283.684C219.789 283.845 219.946 284.092 219.995 284.37C220.044 284.648 219.982 284.935 219.822 285.166C219.661 285.398 219.416 285.556 219.14 285.606C216.496 286.082 213.752 286.714 210.99 287.484C210.897 287.508 210.802 287.519 210.706 287.517V287.517Z" fill="#565A5C"/>
<path d="M235.807 284.601H235.729C232.963 284.406 230.187 284.399 227.42 284.58C227.141 284.595 226.867 284.5 226.657 284.313C226.447 284.127 226.318 283.866 226.297 283.585C226.288 283.445 226.307 283.305 226.352 283.173C226.397 283.04 226.467 282.918 226.559 282.813C226.651 282.708 226.762 282.622 226.887 282.561C227.012 282.499 227.147 282.463 227.286 282.454C230.149 282.265 233.021 282.272 235.883 282.476C236.151 282.503 236.399 282.631 236.576 282.835C236.754 283.039 236.847 283.304 236.837 283.575C236.828 283.846 236.716 284.103 236.524 284.293C236.332 284.484 236.076 284.594 235.807 284.601Z" fill="#565A5C"/>
</g>
<defs>
<clipPath id="clip0_337_1769">
<rect width="441" height="115" fill="white" transform="translate(29 208)"/>
</clipPath>
</defs>
</svg>
