<svg width="492" height="328" viewBox="0 0 492 328" fill="none" xmlns="http://www.w3.org/2000/svg">
<g clip-path="url(#clip0_337_1769)">
<path d="M120.263 258.352C122.249 258.064 128.427 256.85 131.697 252.633C135.377 247.887 138.553 224.421 138.903 221.761L138.923 221.616L138.902 221.471C138.79 220.628 138.38 219.854 137.747 219.292C137.113 218.729 136.299 218.415 135.455 218.408C134.61 218.401 133.791 218.701 133.149 219.253C132.506 219.806 132.084 220.573 131.958 221.414C130.306 229.761 127.121 243.006 125.108 245.287C123.763 246.809 122.017 247.916 120.073 248.482L119.888 241.16C121.898 239.851 125.549 237.209 126.859 234.48C128.595 230.86 128.738 211.777 128.748 209.613L128.738 209.457C128.652 208.821 128.339 208.238 127.858 207.817C127.376 207.396 126.759 207.166 126.121 207.17C125.484 207.174 124.869 207.412 124.393 207.839C123.917 208.266 123.611 208.853 123.534 209.49C123.515 209.665 121.613 226.971 121.358 228.999C121.01 229.859 120.408 230.592 119.633 231.096L118.528 187.424C118.457 186.261 117.945 185.171 117.099 184.377C116.252 183.583 115.135 183.146 113.979 183.157C112.822 183.168 111.713 183.626 110.882 184.435C110.05 185.245 109.559 186.345 109.509 187.509L108.135 241.801C106.499 240.659 105.246 239.045 104.539 237.172C103.788 234.693 101.727 211.995 100.995 203.457L100.978 203.259L100.891 203.081C100.54 202.477 100.044 201.97 99.4485 201.608C98.8533 201.245 98.1777 201.038 97.4828 201.005C96.7138 200.895 95.9305 201.051 95.2608 201.447C94.5911 201.843 94.0744 202.456 93.7951 203.185L93.7412 203.361V203.551C93.7412 204.935 93.811 237.625 98.4198 244.341C102.213 249.868 106.316 251.095 107.899 251.368L107.781 256.003V284.583C107.781 285.148 108.004 285.69 108.401 286.089C108.797 286.488 109.335 286.713 109.896 286.713H118.145C118.706 286.713 119.244 286.488 119.641 286.089C120.038 285.69 120.26 285.148 120.26 284.583V258.352H120.263Z" fill="#E6EAF0"/>
<path d="M63.1057 235.276L61.6135 186.727C61.6135 186.693 61.568 183.34 57.6826 183.34C53.7971 183.34 53.7517 186.689 53.7517 186.706L52.5323 226.423C51.9747 226.273 51.4688 225.972 51.0695 225.552C50.6703 225.133 50.3931 224.611 50.2681 224.044C49.899 221.534 49.3343 200.622 49.3237 200.338C49.1942 199.7 48.8407 199.131 48.3281 198.735C47.8154 198.338 47.178 198.142 46.5328 198.18C45.881 198.143 45.2378 198.345 44.7234 198.75C44.2091 199.155 43.8587 199.734 43.7377 200.38C43.6563 201.339 41.7675 224.004 44.277 228.473C46.3551 232.175 50.6361 233.347 52.3144 233.673L52.0553 242.104V262.165C52.0553 262.589 52.2225 262.995 52.52 263.294C52.8175 263.594 53.221 263.762 53.6417 263.762H61.7288C62.1495 263.762 62.553 263.594 62.8505 263.294C63.148 262.995 63.3151 262.589 63.3151 262.165V242.666C65.261 242.196 68.8599 240.91 70.718 237.608C73.2276 233.136 71.3388 211.57 71.2468 210.614C71.0823 209.99 70.7155 209.438 70.2044 209.047C69.6934 208.657 69.0673 208.449 68.4256 208.457C67.7839 208.465 67.1633 208.689 66.6623 209.093C66.1612 209.496 65.8084 210.057 65.6597 210.686C65.6597 210.885 65.0897 230.667 64.7206 233.175C64.6403 233.631 64.4514 234.06 64.1701 234.426C63.8889 234.792 63.5236 235.084 63.1057 235.276V235.276Z" fill="#E6EAF0"/>
<path d="M465.538 260.029C465.327 259.842 465.052 259.747 464.772 259.765C464.492 259.783 464.231 259.912 464.046 260.124C462.924 261.346 461.56 262.318 460.043 262.977C461.508 259.468 462.567 255.8 463.197 252.047C463.234 251.767 463.159 251.484 462.988 251.26C462.818 251.036 462.566 250.889 462.288 250.852C462.01 250.818 461.731 250.895 461.509 251.067C461.287 251.238 461.141 251.489 461.101 251.768C461.075 251.967 459.064 266.209 449.479 275.234C449.607 272.797 450.239 270.414 451.334 268.237C451.403 268.114 451.447 267.979 451.463 267.838C451.48 267.698 451.468 267.555 451.429 267.419C451.391 267.284 451.325 267.157 451.237 267.047C451.149 266.936 451.04 266.845 450.917 266.778C450.794 266.71 450.658 266.668 450.518 266.654C450.379 266.64 450.237 266.654 450.103 266.696C449.969 266.737 449.844 266.805 449.736 266.895C449.628 266.986 449.539 267.097 449.475 267.223C447.963 270.272 447.223 273.651 447.32 277.058C443.494 279.998 438.935 281.816 434.146 282.312C433.925 282.338 433.686 282.342 433.459 282.36C434.815 280.519 436.526 278.972 438.489 277.812C438.73 277.67 438.905 277.438 438.976 277.166C439.048 276.894 439.009 276.605 438.87 276.361C438.73 276.118 438.5 275.94 438.231 275.866C437.961 275.792 437.674 275.829 437.431 275.968C434.744 277.537 432.49 279.759 430.874 282.43C423.795 282.263 414.663 279.529 407.366 276.129C408.82 276.254 410.359 276.351 411.978 276.395C412.583 276.411 413.204 276.419 413.842 276.419C415.655 276.419 417.596 276.342 419.602 276.162C422.103 278.061 425.041 279.291 428.143 279.737C428.281 279.759 428.422 279.753 428.558 279.719C428.694 279.685 428.822 279.624 428.934 279.54C429.047 279.456 429.142 279.351 429.213 279.23C429.285 279.109 429.332 278.974 429.352 278.835C429.371 278.695 429.363 278.553 429.328 278.417C429.293 278.28 429.231 278.152 429.146 278.04C429.061 277.928 428.955 277.834 428.834 277.763C428.713 277.693 428.579 277.647 428.44 277.629C426.499 277.34 424.623 276.711 422.898 275.769C429.112 274.844 435.68 272.764 441.088 268.513C443.237 266.76 445.136 264.718 446.732 262.444C450.036 261.799 453.11 260.28 455.638 258.043C455.74 257.948 455.823 257.834 455.882 257.707C455.94 257.58 455.974 257.442 455.979 257.302C455.985 257.162 455.964 257.023 455.916 256.891C455.868 256.76 455.795 256.639 455.701 256.536C455.607 256.433 455.493 256.349 455.367 256.29C455.241 256.231 455.104 256.198 454.965 256.192C454.826 256.186 454.688 256.208 454.557 256.256C454.426 256.304 454.306 256.377 454.204 256.472C452.56 257.94 450.636 259.053 448.549 259.744C450.818 256.042 452.773 252.153 454.395 248.121C457.584 247.4 460.541 245.881 462.992 243.704C463.099 243.611 463.186 243.496 463.248 243.369C463.31 243.241 463.346 243.102 463.353 242.959C463.361 242.817 463.34 242.675 463.293 242.541C463.245 242.407 463.171 242.284 463.075 242.18C462.979 242.075 462.863 241.991 462.735 241.932C462.606 241.873 462.467 241.841 462.326 241.837C462.184 241.833 462.044 241.858 461.912 241.91C461.78 241.962 461.66 242.039 461.559 242.139C459.769 243.732 457.664 244.926 455.382 245.641C457.065 241.257 458.489 236.777 459.646 232.224C459.707 231.952 459.66 231.666 459.514 231.428C459.368 231.191 459.135 231.021 458.865 230.954C458.595 230.888 458.311 230.932 458.072 231.075C457.834 231.218 457.661 231.45 457.591 231.721C457.577 231.782 457.199 233.318 456.484 235.72C455.786 233.772 455.518 231.694 455.699 229.631C455.716 229.491 455.706 229.349 455.668 229.214C455.63 229.078 455.566 228.951 455.479 228.84C455.392 228.73 455.284 228.638 455.161 228.569C455.039 228.501 454.904 228.458 454.764 228.443C454.625 228.427 454.484 228.44 454.35 228.48C454.216 228.52 454.09 228.587 453.982 228.676C453.873 228.765 453.783 228.875 453.717 228.999C453.651 229.124 453.61 229.26 453.597 229.4C453.335 232.668 453.998 235.944 455.509 238.849C453.573 244.976 451.051 250.9 447.977 256.537C447.56 254.254 447.604 251.909 448.107 249.643C448.145 249.505 448.155 249.362 448.136 249.221C448.118 249.08 448.072 248.944 448.001 248.821C447.929 248.698 447.834 248.591 447.721 248.506C447.608 248.421 447.478 248.359 447.341 248.325C447.204 248.291 447.061 248.285 446.922 248.307C446.782 248.33 446.648 248.38 446.528 248.455C446.409 248.53 446.305 248.629 446.223 248.746C446.142 248.862 446.085 248.993 446.054 249.133C445.337 252.449 445.458 255.895 446.406 259.152C444.632 262.06 442.397 264.654 439.79 266.833C431.211 273.569 419.379 274.633 410.211 274.164C418.159 272.527 425.532 268.791 431.573 263.34C432.084 263.396 432.598 263.423 433.112 263.421C435.744 263.417 438.346 262.86 440.753 261.788C441.009 261.672 441.209 261.459 441.309 261.195C441.409 260.931 441.401 260.638 441.286 260.38C441.171 260.122 440.959 259.921 440.697 259.82C440.435 259.72 440.144 259.728 439.888 259.843C437.954 260.702 435.877 261.188 433.766 261.274C435.091 259.954 436.35 258.568 437.538 257.121C440.202 253.79 442.329 250.057 443.839 246.059C446.728 245.229 449.383 243.725 451.589 241.67C451.695 241.577 451.782 241.463 451.844 241.335C451.906 241.207 451.942 241.068 451.95 240.926C451.957 240.784 451.937 240.641 451.889 240.507C451.841 240.374 451.767 240.251 451.671 240.146C451.576 240.041 451.46 239.957 451.331 239.898C451.202 239.839 451.063 239.807 450.922 239.803C450.781 239.799 450.64 239.824 450.509 239.876C450.377 239.928 450.257 240.006 450.156 240.105C448.577 241.56 446.747 242.712 444.756 243.504C446.387 238.446 447.438 233.216 447.887 227.917C448.121 225.32 448.219 222.905 448.241 220.758C450.813 218.825 452.851 216.262 454.164 213.313C454.224 213.184 454.257 213.044 454.262 212.902C454.267 212.759 454.244 212.618 454.193 212.484C454.143 212.351 454.067 212.23 453.969 212.127C453.871 212.024 453.754 211.942 453.624 211.886C453.494 211.829 453.354 211.8 453.212 211.799C453.071 211.798 452.931 211.825 452.8 211.88C452.669 211.935 452.551 212.015 452.452 212.116C452.352 212.218 452.274 212.339 452.222 212.471C451.285 214.572 449.927 216.454 448.232 218.001C448.157 214.134 447.862 211.644 447.841 211.472C447.828 211.33 447.786 211.192 447.719 211.067C447.652 210.941 447.561 210.83 447.451 210.741C447.34 210.651 447.213 210.585 447.077 210.546C446.941 210.507 446.799 210.496 446.658 210.514C446.517 210.531 446.382 210.577 446.259 210.648C446.137 210.719 446.029 210.815 445.944 210.928C445.859 211.042 445.797 211.172 445.762 211.31C445.728 211.448 445.721 211.592 445.742 211.733C446.388 218.631 446.201 225.582 445.186 232.435C444.339 230.654 443.809 228.736 443.619 226.77C443.593 226.489 443.458 226.23 443.242 226.049C443.027 225.868 442.749 225.781 442.469 225.807C442.19 225.832 441.932 225.969 441.753 226.186C441.573 226.403 441.487 226.683 441.512 226.964C441.748 230.106 442.82 233.125 444.614 235.706C443.567 241.445 441.524 246.953 438.579 251.978C437.551 249.822 436.978 247.476 436.895 245.087C436.893 244.947 436.863 244.809 436.807 244.681C436.752 244.553 436.672 244.437 436.572 244.34C436.472 244.243 436.354 244.166 436.225 244.115C436.096 244.064 435.958 244.039 435.819 244.041C435.538 244.046 435.271 244.163 435.077 244.366C434.98 244.467 434.904 244.586 434.853 244.716C434.802 244.846 434.777 244.985 434.78 245.125C434.884 248.245 435.726 251.295 437.234 254.023C436.811 254.618 436.372 255.204 435.907 255.772C432.649 259.811 428.775 263.304 424.431 266.123C424.652 263.682 425.393 261.317 426.604 259.191C426.679 259.07 426.73 258.936 426.752 258.796C426.775 258.656 426.77 258.512 426.737 258.374C426.704 258.236 426.643 258.106 426.56 257.992C426.476 257.877 426.37 257.781 426.249 257.708C426.127 257.636 425.993 257.588 425.853 257.569C425.713 257.55 425.571 257.559 425.435 257.595C425.298 257.632 425.171 257.696 425.059 257.783C424.948 257.871 424.855 257.98 424.786 258.104C423.165 260.945 422.292 264.155 422.248 267.431C416.539 270.622 410.196 272.491 403.68 272.902C405.867 270.914 408.275 268.572 410.803 265.819C411.462 265.901 412.126 265.941 412.79 265.937C415.176 265.939 417.54 265.486 419.759 264.604C419.89 264.554 420.01 264.478 420.112 264.38C420.213 264.283 420.295 264.166 420.351 264.037C420.407 263.908 420.438 263.768 420.44 263.627C420.442 263.486 420.417 263.345 420.365 263.214C420.313 263.083 420.235 262.964 420.137 262.863C420.038 262.762 419.921 262.682 419.792 262.628C419.662 262.573 419.524 262.545 419.383 262.545C419.243 262.544 419.104 262.572 418.975 262.627C416.948 263.428 414.787 263.825 412.61 263.798C415.807 260.148 418.768 256.294 421.473 252.261C424.694 252.205 427.847 251.318 430.631 249.685C430.864 249.534 431.029 249.297 431.09 249.024C431.151 248.752 431.104 248.466 430.958 248.229C430.812 247.992 430.579 247.822 430.31 247.755C430.04 247.689 429.756 247.732 429.517 247.875C427.501 249.066 425.251 249.8 422.924 250.026C425.305 246.292 427.453 242.413 429.355 238.41C429.721 237.637 430.068 236.867 430.412 236.099C433.479 235.516 436.35 234.164 438.761 232.167C438.872 232.08 438.966 231.971 439.035 231.846C439.105 231.722 439.149 231.585 439.164 231.443C439.18 231.302 439.167 231.158 439.127 231.022C439.087 230.885 439.02 230.758 438.93 230.648C438.84 230.538 438.728 230.447 438.603 230.381C438.477 230.315 438.34 230.275 438.199 230.263C438.058 230.252 437.916 230.269 437.781 230.314C437.647 230.358 437.523 230.43 437.416 230.524C435.657 231.964 433.628 233.034 431.45 233.67C432.81 230.348 434.003 226.958 435.023 223.514C438.129 222.116 440.674 219.7 442.241 216.659C442.361 216.404 442.376 216.111 442.282 215.845C442.188 215.578 441.993 215.361 441.74 215.239C441.486 215.118 441.195 215.103 440.931 215.198C440.667 215.292 440.45 215.489 440.33 215.744C439.307 217.762 437.75 219.457 435.832 220.642C437.379 215.07 438.421 209.367 438.945 203.605C438.953 203.465 438.934 203.325 438.889 203.193C438.843 203.06 438.772 202.938 438.68 202.833C438.494 202.622 438.231 202.493 437.951 202.476C437.812 202.468 437.673 202.487 437.541 202.532C437.41 202.578 437.289 202.649 437.184 202.742C436.974 202.93 436.846 203.194 436.829 203.476C436.829 203.54 436.656 206.097 435.954 210.231C434.699 208.442 433.801 206.425 433.31 204.292C433.279 204.156 433.222 204.027 433.142 203.912C433.062 203.798 432.961 203.701 432.843 203.626C432.726 203.552 432.595 203.501 432.458 203.477C432.321 203.453 432.181 203.457 432.046 203.488C431.91 203.518 431.782 203.576 431.668 203.656C431.555 203.737 431.458 203.839 431.384 203.958C431.31 204.076 431.26 204.207 431.236 204.345C431.212 204.483 431.216 204.624 431.247 204.761C431.936 207.818 433.377 210.651 435.439 213C433.776 221.462 431.09 229.686 427.442 237.491C426.891 238.656 426.321 239.791 425.741 240.907C424.336 238.836 423.534 236.412 423.424 233.907C423.419 233.767 423.388 233.629 423.33 233.502C423.273 233.374 423.191 233.26 423.09 233.164C422.988 233.068 422.869 232.994 422.739 232.944C422.609 232.895 422.471 232.872 422.332 232.877C422.193 232.881 422.056 232.913 421.93 232.971C421.803 233.029 421.689 233.111 421.594 233.213C421.499 233.315 421.425 233.435 421.376 233.566C421.327 233.697 421.304 233.836 421.309 233.976C421.444 237.252 422.607 240.401 424.632 242.97C421.509 248.656 417.886 254.049 413.806 259.083C412.981 256.88 412.621 254.527 412.749 252.176C412.766 251.894 412.671 251.617 412.485 251.405C412.3 251.194 412.038 251.065 411.758 251.048C411.479 251.035 411.205 251.131 410.996 251.318C410.787 251.505 410.658 251.766 410.638 252.047C410.463 255.098 411.027 258.145 412.283 260.927C409.321 264.43 406.147 267.744 402.778 270.85C404.091 263.663 405.856 255.003 407.881 247.683C410.928 246.935 413.736 245.419 416.042 243.278C416.149 243.185 416.236 243.071 416.298 242.943C416.36 242.815 416.395 242.676 416.403 242.534C416.411 242.391 416.39 242.249 416.342 242.115C416.295 241.981 416.221 241.858 416.125 241.754C416.029 241.649 415.913 241.565 415.785 241.506C415.656 241.447 415.517 241.415 415.376 241.411C415.234 241.407 415.094 241.432 414.962 241.484C414.83 241.536 414.71 241.614 414.609 241.713C412.865 243.311 410.808 244.525 408.571 245.276C408.742 244.702 408.914 244.136 409.088 243.587C411.442 236.152 416.298 228.893 420.721 223.335H420.871C424.052 223.299 427.173 222.462 429.95 220.901C430.184 220.755 430.352 220.524 430.419 220.255C430.486 219.987 430.447 219.703 430.309 219.463C430.172 219.223 429.947 219.047 429.682 218.971C429.418 218.896 429.135 218.927 428.892 219.058C426.938 220.158 424.784 220.85 422.558 221.093C424.839 218.359 427.265 215.751 429.824 213.279C430.026 213.087 430.145 212.822 430.154 212.542C430.163 212.261 430.063 211.989 429.874 211.783C429.685 211.577 429.423 211.455 429.145 211.442C428.868 211.429 428.596 211.527 428.389 211.715C424.059 215.879 420.095 220.415 416.544 225.27C415.846 223.205 415.551 221.024 415.675 218.847C415.693 218.565 415.598 218.288 415.412 218.076C415.227 217.865 414.965 217.736 414.685 217.718C414.546 217.707 414.406 217.724 414.273 217.768C414.141 217.812 414.018 217.883 413.913 217.976C413.809 218.069 413.724 218.183 413.663 218.31C413.603 218.437 413.569 218.574 413.563 218.715C413.39 221.669 413.908 224.623 415.073 227.34C411.67 232.12 408.976 237.375 407.078 242.937C407.021 243.119 406.964 243.309 406.907 243.493C405.693 241.874 404.779 240.047 404.208 238.101C404.17 237.967 404.105 237.841 404.018 237.732C403.931 237.623 403.824 237.532 403.703 237.464C403.581 237.397 403.447 237.354 403.309 237.338C403.171 237.323 403.031 237.335 402.898 237.374C402.764 237.413 402.64 237.478 402.531 237.565C402.423 237.652 402.332 237.76 402.265 237.883C402.198 238.005 402.156 238.14 402.14 238.279C402.125 238.418 402.137 238.559 402.175 238.693C402.96 241.382 404.324 243.862 406.171 245.958C403.928 253.806 401.982 263.398 400.582 271.134C399.535 268.19 398.737 265.162 398.196 262.083C400.442 259.876 402.094 257.13 402.996 254.103C403.036 253.969 403.049 253.829 403.035 253.689C403.021 253.55 402.98 253.415 402.914 253.292C402.848 253.169 402.759 253.06 402.651 252.972C402.543 252.884 402.42 252.817 402.287 252.777C402.153 252.737 402.014 252.724 401.876 252.738C401.738 252.752 401.603 252.794 401.481 252.86C401.359 252.926 401.251 253.016 401.163 253.125C401.075 253.233 401.01 253.358 400.97 253.492C400.31 255.655 399.229 257.664 397.79 259.402C396.792 251.174 397.458 242.827 399.747 234.865C400.397 232.55 401.253 230.299 402.304 228.14C402.653 228.171 403.139 228.2 403.733 228.2C406.203 228.201 408.649 227.715 410.933 226.77C411.061 226.717 411.178 226.638 411.276 226.539C411.374 226.44 411.452 226.322 411.505 226.193C411.558 226.064 411.585 225.925 411.585 225.786C411.585 225.646 411.557 225.507 411.504 225.378C411.45 225.249 411.372 225.132 411.274 225.033C411.176 224.934 411.059 224.856 410.93 224.803C410.802 224.749 410.664 224.722 410.526 224.722C410.387 224.722 410.249 224.75 410.121 224.804C407.983 225.682 405.689 226.109 403.38 226.061C406.688 220.281 411 215.145 416.11 210.898C417.042 211.033 417.983 211.098 418.925 211.095C421.203 211.113 423.466 210.716 425.603 209.924C425.733 209.874 425.852 209.799 425.953 209.703C426.054 209.606 426.135 209.491 426.191 209.363C426.248 209.236 426.279 209.098 426.283 208.958C426.286 208.818 426.263 208.679 426.213 208.549C426.164 208.418 426.089 208.299 425.993 208.197C425.898 208.096 425.783 208.014 425.657 207.957C425.53 207.9 425.393 207.869 425.254 207.865C425.115 207.861 424.977 207.885 424.847 207.935C422.812 208.679 420.654 209.025 418.489 208.954C422.791 205.56 427.458 202.663 432.402 200.319C432.53 200.264 432.646 200.184 432.743 200.084C432.84 199.984 432.916 199.865 432.968 199.736C433.019 199.606 433.045 199.467 433.043 199.327C433.041 199.187 433.012 199.049 432.957 198.921C432.902 198.792 432.823 198.676 432.724 198.578C432.624 198.481 432.506 198.404 432.378 198.352C432.249 198.3 432.111 198.274 431.972 198.276C431.833 198.278 431.696 198.307 431.568 198.362C428.538 199.746 425.615 201.358 422.825 203.184C423.153 200.736 423.984 198.384 425.266 196.278C425.344 196.161 425.397 196.029 425.424 195.891C425.451 195.753 425.45 195.61 425.421 195.472C425.393 195.334 425.338 195.204 425.259 195.087C425.18 194.971 425.078 194.872 424.961 194.795C424.844 194.718 424.712 194.666 424.575 194.641C424.437 194.615 424.296 194.618 424.159 194.648C424.022 194.679 423.893 194.736 423.778 194.817C423.664 194.898 423.566 195.001 423.492 195.12C421.739 198.022 420.727 201.316 420.547 204.708C416.824 207.279 413.354 210.203 410.183 213.44C409.302 211.229 408.893 208.856 408.983 206.476C408.99 206.336 408.969 206.195 408.921 206.063C408.874 205.931 408.801 205.81 408.707 205.706C408.613 205.603 408.499 205.519 408.373 205.46C408.246 205.4 408.109 205.367 407.97 205.361C407.83 205.352 407.691 205.372 407.559 205.419C407.427 205.466 407.306 205.539 407.203 205.634C407.1 205.729 407.017 205.844 406.96 205.972C406.902 206.1 406.87 206.239 406.867 206.379C406.746 209.391 407.342 212.387 408.604 215.12C404.155 219.94 400.717 225.614 398.497 231.804C396.955 229.857 395.793 227.633 395.074 225.251C395.037 225.115 394.973 224.987 394.887 224.876C394.801 224.764 394.693 224.671 394.57 224.602C394.448 224.533 394.313 224.489 394.174 224.473C394.034 224.457 393.893 224.469 393.758 224.509C393.623 224.548 393.498 224.615 393.389 224.704C393.28 224.792 393.189 224.902 393.123 225.027C393.056 225.151 393.015 225.288 393.001 225.428C392.988 225.569 393.002 225.711 393.044 225.846C393.972 228.947 395.579 231.798 397.746 234.191C397.737 234.226 397.724 234.26 397.714 234.298C395.953 240.504 395.119 246.939 395.239 253.393C393.851 251.932 392.734 250.232 391.942 248.374C391.831 248.116 391.624 247.913 391.364 247.808C391.105 247.703 390.816 247.706 390.558 247.815C390.301 247.925 390.098 248.132 389.992 248.392C389.886 248.652 389.887 248.944 389.994 249.204C391.182 252.017 393.033 254.497 395.387 256.429C395.738 261.233 396.687 265.974 398.211 270.541C397.893 270.215 397.565 269.888 397.259 269.562C389.051 260.781 385.309 252.758 384.886 242.097C387.575 240.485 389.815 238.214 391.398 235.495C391.468 235.375 391.514 235.241 391.533 235.103C391.552 234.964 391.543 234.823 391.508 234.688C391.473 234.552 391.412 234.425 391.328 234.314C391.244 234.203 391.139 234.109 391.019 234.038C390.899 233.968 390.766 233.921 390.629 233.902C390.491 233.883 390.351 233.892 390.217 233.927C390.082 233.963 389.956 234.024 389.845 234.109C389.735 234.194 389.642 234.299 389.572 234.42C388.37 236.457 386.76 238.219 384.844 239.594C384.857 237.596 384.963 235.517 385.18 233.311C385.653 228.153 387.071 223.127 389.362 218.488C389.492 218.497 389.741 218.509 390.095 218.509C392.972 218.488 395.807 217.804 398.382 216.512C398.507 216.45 398.619 216.363 398.71 216.257C398.802 216.151 398.872 216.028 398.916 215.895C398.96 215.762 398.978 215.621 398.968 215.481C398.958 215.341 398.92 215.204 398.857 215.078C398.795 214.953 398.708 214.841 398.602 214.75C398.496 214.658 398.373 214.589 398.241 214.545C398.108 214.502 397.968 214.485 397.829 214.496C397.69 214.507 397.554 214.546 397.43 214.61C395.274 215.685 392.914 216.285 390.51 216.369C394.142 209.984 399.48 204.751 405.917 201.266C406.17 201.147 406.365 200.933 406.462 200.669C406.558 200.406 406.548 200.115 406.432 199.86C406.317 199.604 406.105 199.405 405.845 199.306C405.584 199.206 405.295 199.214 405.04 199.328C401.416 201.23 398.118 203.707 395.275 206.663C395.241 204.49 395.622 202.329 396.397 200.3C396.454 200.169 396.483 200.027 396.484 199.884C396.486 199.741 396.458 199.599 396.403 199.467C396.349 199.335 396.268 199.216 396.167 199.115C396.065 199.015 395.945 198.937 395.813 198.885C395.68 198.832 395.539 198.808 395.397 198.812C395.255 198.816 395.115 198.849 394.986 198.908C394.857 198.968 394.741 199.053 394.645 199.159C394.549 199.265 394.476 199.389 394.429 199.524C393.284 202.467 392.902 205.655 393.318 208.788C388.368 214.516 385.037 221.479 383.675 228.948C382.427 227.179 381.53 225.185 381.031 223.074C381.002 222.935 380.947 222.803 380.867 222.685C380.787 222.568 380.684 222.468 380.565 222.391C380.446 222.314 380.313 222.262 380.174 222.238C380.035 222.214 379.892 222.218 379.754 222.25C379.617 222.283 379.487 222.342 379.373 222.426C379.258 222.51 379.162 222.616 379.089 222.738C379.016 222.86 378.968 222.995 378.948 223.136C378.928 223.277 378.936 223.42 378.972 223.558C379.683 226.62 381.151 229.451 383.239 231.79C383.184 232.226 383.123 232.659 383.079 233.106C381.519 248.989 385.067 259.62 395.73 271.024C395.95 271.26 396.182 271.496 396.41 271.731C392.463 270.21 388.734 268.169 385.32 265.662C385.471 262.667 384.913 259.679 383.692 256.944C383.576 256.687 383.363 256.486 383.101 256.387C382.838 256.287 382.547 256.297 382.291 256.414C382.036 256.53 381.837 256.744 381.738 257.009C381.639 257.273 381.649 257.566 381.765 257.824C382.625 259.765 383.116 261.851 383.211 263.975C379.749 261.064 376.943 257.444 374.98 253.354C374.918 253.221 374.875 253.088 374.811 252.955C376.697 250.577 377.983 247.775 378.56 244.788C378.613 244.511 378.554 244.223 378.397 243.99C378.239 243.756 377.996 243.594 377.721 243.541C377.445 243.488 377.16 243.547 376.927 243.706C376.695 243.864 376.535 244.109 376.482 244.387C376.04 246.633 375.151 248.766 373.871 250.658C372.451 246.793 371.827 242.678 372.036 238.562C374.99 236.854 377.424 234.366 379.076 231.367C379.14 231.243 379.178 231.107 379.19 230.968C379.201 230.828 379.185 230.688 379.143 230.555C379.1 230.422 379.032 230.298 378.942 230.192C378.852 230.085 378.743 229.997 378.619 229.933C378.495 229.869 378.361 229.831 378.222 229.819C378.084 229.808 377.944 229.824 377.812 229.867C377.68 229.909 377.557 229.978 377.452 230.068C377.346 230.159 377.258 230.27 377.195 230.394C375.997 232.582 374.31 234.46 372.268 235.879C374.442 219.366 388.554 206.922 388.74 206.757C388.852 206.668 388.944 206.557 389.012 206.432C389.08 206.306 389.122 206.168 389.136 206.025C389.149 205.882 389.134 205.739 389.092 205.602C389.049 205.465 388.979 205.339 388.886 205.23C388.794 205.121 388.681 205.033 388.553 204.969C388.426 204.905 388.287 204.868 388.145 204.86C388.003 204.851 387.861 204.872 387.727 204.92C387.593 204.969 387.47 205.044 387.365 205.141C385.285 207.055 383.35 209.125 381.579 211.333C380.749 209.141 380.378 206.801 380.488 204.458C380.496 204.318 380.476 204.178 380.43 204.046C380.383 203.914 380.312 203.793 380.219 203.688C380.126 203.584 380.014 203.499 379.888 203.439C379.763 203.378 379.627 203.343 379.488 203.336C379.349 203.328 379.21 203.348 379.079 203.395C378.948 203.441 378.827 203.514 378.723 203.607C378.62 203.701 378.536 203.814 378.475 203.94C378.415 204.066 378.381 204.203 378.373 204.343C378.215 207.405 378.802 210.459 380.082 213.241C377.086 217.147 374.619 221.437 372.745 225.997C371.391 223.987 370.475 221.71 370.058 219.318C370.01 219.04 369.856 218.792 369.629 218.628C369.402 218.463 369.12 218.395 368.844 218.437C368.567 218.482 368.319 218.636 368.155 218.865C367.991 219.094 367.924 219.38 367.969 219.658C368.521 222.853 369.862 225.855 371.87 228.39C370.414 232.605 369.745 237.056 369.898 241.516C367.837 240.011 366.153 238.042 364.982 235.766C364.863 235.51 364.647 235.313 364.383 235.218C364.119 235.123 363.828 235.137 363.574 235.257C363.321 235.378 363.125 235.595 363.03 235.861C362.935 236.127 362.949 236.42 363.069 236.675C364.697 239.797 367.136 242.416 370.125 244.251C370.573 247.723 371.563 251.101 373.058 254.261C373.139 254.434 373.229 254.599 373.314 254.77C371.404 253.894 369.691 252.637 368.277 251.077C368.184 250.972 368.073 250.886 367.948 250.825C367.822 250.764 367.687 250.728 367.548 250.719C367.409 250.711 367.27 250.73 367.138 250.776C367.007 250.821 366.885 250.892 366.781 250.985C366.677 251.078 366.592 251.191 366.531 251.317C366.47 251.443 366.435 251.579 366.426 251.719C366.418 251.859 366.437 251.999 366.482 252.132C366.527 252.264 366.598 252.386 366.69 252.491C368.918 254.93 371.761 256.716 374.916 257.658C379.619 265.175 386.738 269.739 392.397 272.372C387.504 271.617 382.753 270.118 378.308 267.925C377.539 264.894 375.862 262.174 373.504 260.136C373.4 260.042 373.278 259.969 373.145 259.923C373.012 259.876 372.872 259.857 372.732 259.865C372.592 259.874 372.455 259.911 372.329 259.974C372.203 260.036 372.091 260.123 371.999 260.23C371.907 260.337 371.837 260.461 371.793 260.595C371.749 260.73 371.732 260.871 371.743 261.012C371.754 261.153 371.793 261.291 371.857 261.416C371.922 261.542 372.01 261.653 372.118 261.744C373.557 263.008 374.713 264.566 375.509 266.314C366.08 260.182 361.55 249.903 361.498 249.794C361.442 249.666 361.362 249.55 361.262 249.453C361.162 249.355 361.044 249.279 360.915 249.228C360.785 249.177 360.647 249.152 360.508 249.155C360.369 249.157 360.232 249.187 360.105 249.243C359.978 249.299 359.862 249.38 359.766 249.481C359.67 249.581 359.594 249.7 359.543 249.83C359.492 249.961 359.468 250.1 359.47 250.24C359.473 250.379 359.503 250.517 359.558 250.646C360.544 252.792 361.716 254.846 363.06 256.785C361.063 256.127 359.207 255.096 357.591 253.744C357.485 253.653 357.363 253.584 357.231 253.541C357.099 253.498 356.96 253.481 356.821 253.492C356.683 253.503 356.548 253.541 356.424 253.605C356.3 253.668 356.19 253.756 356.099 253.862C356.009 253.968 355.941 254.091 355.898 254.224C355.855 254.357 355.838 254.498 355.849 254.637C355.86 254.777 355.898 254.913 355.961 255.037C356.024 255.162 356.111 255.273 356.216 255.364C358.76 257.482 361.801 258.906 365.049 259.498V259.498C367.301 262.368 369.929 264.917 372.862 267.076C370.697 267.031 368.554 266.631 366.517 265.889C366.387 265.839 366.249 265.815 366.11 265.818C365.972 265.821 365.835 265.852 365.708 265.908C365.58 265.965 365.466 266.046 365.37 266.147C365.274 266.248 365.199 266.367 365.148 266.498C365.098 266.628 365.074 266.767 365.077 266.907C365.08 267.047 365.111 267.184 365.167 267.312C365.223 267.44 365.304 267.556 365.404 267.652C365.504 267.749 365.623 267.825 365.752 267.875C369.057 269.024 372.567 269.448 376.048 269.119C376.272 269.246 376.485 269.382 376.714 269.503C383.304 272.85 390.524 274.75 397.898 275.08C396.219 276.464 394.472 277.762 392.663 278.97C392.424 279.119 392.255 279.358 392.191 279.634C392.128 279.909 392.176 280.199 392.324 280.439C392.473 280.679 392.71 280.85 392.984 280.914C393.258 280.978 393.545 280.93 393.784 280.78C395.818 279.422 397.779 277.955 399.657 276.385C398.78 281.57 398.272 285.086 398.257 285.181C398.237 285.319 398.245 285.46 398.279 285.596C398.313 285.732 398.374 285.859 398.457 285.971C398.541 286.083 398.645 286.178 398.765 286.249C398.884 286.32 399.016 286.367 399.154 286.387C399.204 286.394 399.255 286.398 399.306 286.398C399.56 286.398 399.806 286.305 399.998 286.138C400.19 285.97 400.316 285.739 400.352 285.485C400.364 285.401 400.767 282.61 401.472 278.361C403.723 282.975 406.674 287.207 410.219 290.906C410.426 291.093 410.697 291.19 410.974 291.177C411.252 291.164 411.513 291.042 411.701 290.837C411.89 290.632 411.991 290.361 411.982 290.081C411.974 289.802 411.857 289.537 411.656 289.344C408.525 286.12 405.883 282.449 403.816 278.449C409.061 282.685 414.775 286.298 420.842 289.216C421.751 292.297 423.706 294.959 426.365 296.736C426.482 296.815 426.614 296.87 426.752 296.896C426.891 296.923 427.033 296.922 427.171 296.893C427.309 296.863 427.44 296.806 427.556 296.725C427.672 296.644 427.77 296.541 427.846 296.421C427.921 296.301 427.972 296.167 427.996 296.027C428.019 295.887 428.014 295.743 427.981 295.605C427.949 295.467 427.889 295.337 427.806 295.222C427.723 295.107 427.617 295.011 427.497 294.938C425.812 293.824 424.464 292.266 423.597 290.435C427.61 292.236 431.925 293.26 436.314 293.451C436.921 293.452 437.527 293.42 438.13 293.355C439.051 293.246 439.963 293.068 440.858 292.823C442.881 293.632 445.039 294.044 447.216 294.037C448.183 294.038 449.148 293.953 450.1 293.783C450.373 293.731 450.615 293.572 450.773 293.342C450.931 293.111 450.992 292.827 450.944 292.551C450.895 292.275 450.74 292.029 450.513 291.868C450.286 291.706 450.004 291.641 449.729 291.687C447.905 292 446.038 291.971 444.224 291.602C448.625 289.384 452.295 285.931 454.789 281.659C454.923 281.411 454.953 281.12 454.874 280.849C454.794 280.578 454.611 280.35 454.364 280.215C454.118 280.08 453.828 280.049 453.559 280.13C453.29 280.21 453.064 280.394 452.93 280.642C452.879 280.737 447.681 290.163 437.9 291.233C436.145 291.39 434.377 291.301 432.647 290.967C434.468 289.605 436.622 288.766 438.879 288.538C439.017 288.527 439.152 288.488 439.276 288.424C439.4 288.361 439.51 288.273 439.6 288.166C439.689 288.06 439.758 287.936 439.8 287.803C439.843 287.67 439.859 287.53 439.848 287.39C439.821 287.11 439.687 286.852 439.474 286.67C439.261 286.488 438.986 286.396 438.708 286.415C435.462 286.753 432.413 288.146 430.024 290.383C422.968 288.497 414.666 283.929 407.448 278.522C415.077 281.961 424.304 284.576 431.544 284.576C432.492 284.578 433.44 284.528 434.382 284.426C436.328 284.207 438.248 283.795 440.114 283.197C441.983 283.638 443.896 283.856 445.815 283.844C446.968 283.845 448.119 283.765 449.26 283.606C449.532 283.56 449.775 283.409 449.938 283.186C450.101 282.962 450.171 282.683 450.133 282.408C450.095 282.133 449.951 281.884 449.734 281.714C449.516 281.544 449.241 281.466 448.967 281.498C447.316 281.723 445.646 281.77 443.986 281.637C451.326 278.001 455.95 271.614 458.819 265.702C461.423 264.955 463.778 263.513 465.633 261.528C465.817 261.316 465.911 261.04 465.893 260.759C465.875 260.478 465.747 260.215 465.538 260.029Z" fill="#565A5C"/>
<path d="M26.0576 298C25.8356 298 25.6193 297.93 25.4392 297.799C25.2591 297.668 25.1245 297.484 25.0543 297.272C24.9841 297.06 24.9819 296.831 25.0481 296.618C25.1143 296.404 25.2455 296.217 25.423 296.083C25.5288 296.002 28.1071 294.06 32.5203 291.243C32.6375 291.168 32.7683 291.117 32.9052 291.093C33.042 291.069 33.1822 291.072 33.3178 291.102C33.4534 291.133 33.5817 291.19 33.6953 291.271C33.809 291.351 33.9058 291.453 33.9802 291.571C34.0547 291.689 34.1053 291.821 34.1292 291.959C34.153 292.097 34.1498 292.238 34.1195 292.374C34.0892 292.511 34.0325 292.64 33.9526 292.754C33.8727 292.869 33.7712 292.966 33.654 293.041C29.318 295.81 26.7164 297.767 26.691 297.786C26.5086 297.925 26.2862 298 26.0576 298V298Z" fill="#565A5C"/>
<path d="M294.124 297.206C293.938 297.206 293.756 297.157 293.595 297.064C293.434 296.97 293.301 296.836 293.208 296.674C293.115 296.512 293.066 296.328 293.066 296.141C293.066 295.955 293.115 295.771 293.208 295.609C294.663 293.115 296.283 290.721 298.056 288.445C298.141 288.334 298.247 288.242 298.367 288.172C298.488 288.103 298.621 288.058 298.759 288.04C298.897 288.023 299.037 288.033 299.171 288.069C299.305 288.106 299.43 288.169 299.54 288.255C299.65 288.341 299.742 288.447 299.811 288.569C299.88 288.69 299.924 288.824 299.942 288.963C299.96 289.102 299.95 289.242 299.913 289.377C299.877 289.512 299.814 289.639 299.729 289.749C298.015 291.948 296.449 294.261 295.042 296.671C294.949 296.833 294.816 296.969 294.654 297.063C294.493 297.157 294.31 297.206 294.124 297.206V297.206Z" fill="#565A5C"/>
<path d="M147.667 295.119C147.448 295.119 147.234 295.051 147.056 294.923C146.877 294.796 146.742 294.617 146.669 294.409C146.596 294.201 146.589 293.976 146.648 293.764C146.708 293.552 146.831 293.364 147.002 293.225C149.117 291.509 151.386 289.743 153.751 287.982C153.977 287.825 154.255 287.762 154.526 287.807C154.797 287.852 155.04 288.002 155.203 288.224C155.367 288.446 155.438 288.724 155.401 288.999C155.365 289.273 155.224 289.522 155.008 289.693C152.667 291.439 150.42 293.183 148.33 294.882C148.142 295.035 147.908 295.119 147.667 295.119V295.119Z" fill="#565A5C"/>
<path d="M141.47 295.042C141.193 295.041 140.927 294.93 140.73 294.734C138.745 292.765 136.655 290.906 134.469 289.166C134.355 289.081 134.259 288.974 134.186 288.851C134.114 288.728 134.067 288.591 134.048 288.449C134.03 288.308 134.039 288.164 134.077 288.026C134.115 287.888 134.18 287.759 134.268 287.647C134.356 287.535 134.466 287.442 134.591 287.373C134.716 287.305 134.853 287.263 134.994 287.249C135.136 287.235 135.278 287.25 135.414 287.293C135.549 287.336 135.675 287.406 135.783 287.498C138.03 289.285 140.178 291.195 142.217 293.22C142.366 293.368 142.468 293.558 142.51 293.765C142.552 293.973 142.531 294.187 142.451 294.383C142.371 294.578 142.235 294.745 142.06 294.862C141.886 294.98 141.68 295.042 141.47 295.042Z" fill="#565A5C"/>
<path d="M289.518 291.633C289.354 291.634 289.192 291.596 289.045 291.523C288.899 291.45 288.771 291.344 288.672 291.213C286.983 288.986 285.169 286.859 283.239 284.842C283.044 284.638 282.938 284.365 282.944 284.083C282.949 283.801 283.065 283.532 283.268 283.336C283.47 283.14 283.741 283.033 284.021 283.039C284.302 283.044 284.568 283.161 284.763 283.365C286.75 285.442 288.616 287.631 290.354 289.923C290.473 290.081 290.547 290.268 290.566 290.466C290.585 290.663 290.549 290.861 290.462 291.039C290.375 291.217 290.24 291.366 290.074 291.471C289.907 291.576 289.714 291.632 289.518 291.633Z" fill="#565A5C"/>
<path d="M40.3554 288.822C40.1218 288.822 39.8949 288.745 39.7099 288.601C39.5249 288.457 39.3923 288.256 39.3328 288.029C39.2733 287.802 39.2901 287.561 39.3808 287.344C39.4715 287.127 39.6308 286.947 39.834 286.831C42.3319 285.408 44.8648 284.051 47.3595 282.797C47.4841 282.73 47.6206 282.69 47.761 282.678C47.9013 282.665 48.0427 282.681 48.1768 282.725C48.3109 282.768 48.4351 282.838 48.542 282.93C48.6489 283.023 48.7363 283.136 48.7993 283.263C48.8622 283.39 48.8993 283.528 48.9084 283.67C48.9175 283.811 48.8984 283.953 48.8523 284.087C48.8061 284.221 48.7338 284.345 48.6397 284.45C48.5455 284.556 48.4314 284.641 48.3039 284.702C45.8419 285.939 43.3429 287.279 40.8757 288.684C40.7171 288.775 40.5378 288.822 40.3554 288.822V288.822Z" fill="#565A5C"/>
<path d="M161.29 284.962C161.064 284.962 160.844 284.89 160.662 284.755C160.48 284.619 160.346 284.429 160.28 284.212C160.213 283.994 160.217 283.761 160.292 283.546C160.366 283.331 160.507 283.146 160.694 283.018C163.048 281.402 165.445 279.824 167.822 278.333C168.06 278.183 168.348 278.135 168.622 278.199C168.896 278.262 169.133 278.433 169.282 278.673C169.431 278.913 169.479 279.203 169.415 279.479C169.352 279.754 169.182 279.993 168.944 280.143C166.591 281.624 164.216 283.185 161.886 284.785C161.709 284.903 161.502 284.964 161.29 284.962Z" fill="#565A5C"/>
<path d="M128.228 284.454C128.027 284.454 127.83 284.396 127.66 284.287C125.313 282.779 122.886 281.399 120.391 280.154C120.267 280.092 120.156 280.006 120.064 279.901C119.973 279.796 119.903 279.673 119.858 279.541C119.814 279.408 119.796 279.268 119.805 279.129C119.814 278.989 119.851 278.853 119.912 278.727C119.974 278.602 120.06 278.49 120.164 278.398C120.269 278.306 120.39 278.235 120.522 278.191C120.653 278.146 120.792 278.128 120.931 278.137C121.07 278.146 121.205 278.183 121.33 278.245C123.893 279.524 126.386 280.942 128.798 282.491C128.991 282.615 129.139 282.799 129.219 283.015C129.3 283.231 129.308 283.467 129.244 283.688C129.18 283.909 129.046 284.103 128.863 284.242C128.68 284.38 128.457 284.454 128.228 284.454Z" fill="#565A5C"/>
<path d="M304.406 283.697C304.199 283.697 303.997 283.637 303.824 283.522C303.651 283.408 303.516 283.245 303.434 283.054C303.352 282.863 303.328 282.652 303.364 282.447C303.4 282.242 303.495 282.052 303.637 281.901C305.581 279.834 307.655 277.823 309.8 275.925C310.012 275.753 310.282 275.67 310.554 275.694C310.825 275.717 311.077 275.845 311.257 276.051C311.437 276.257 311.532 276.525 311.52 276.799C311.509 277.073 311.393 277.332 311.196 277.523C309.098 279.379 307.072 281.343 305.168 283.363C305.07 283.468 304.952 283.551 304.821 283.609C304.69 283.666 304.549 283.696 304.406 283.697Z" fill="#565A5C"/>
<path d="M55.5124 281.223C55.2688 281.223 55.0327 281.138 54.8438 280.984C54.6549 280.829 54.5249 280.613 54.4758 280.373C54.4267 280.132 54.4615 279.882 54.5742 279.665C54.687 279.448 54.8708 279.276 55.0947 279.179C57.765 278.025 60.4406 276.972 63.0465 276.048C63.3111 275.954 63.6019 275.97 63.8548 276.092C64.1078 276.214 64.3022 276.432 64.3954 276.699C64.4885 276.965 64.4727 277.258 64.3514 277.513C64.2301 277.768 64.0133 277.963 63.7487 278.057C61.1873 278.965 58.5571 280.001 55.9291 281.138C55.7975 281.194 55.6557 281.223 55.5124 281.223V281.223Z" fill="#565A5C"/>
<path d="M277.823 279.351C277.573 279.351 277.332 279.263 277.142 279.101C275.01 277.296 272.789 275.602 270.485 274.026C270.37 273.947 270.272 273.847 270.196 273.73C270.12 273.613 270.067 273.482 270.041 273.345C270.015 273.207 270.016 273.066 270.045 272.929C270.073 272.792 270.127 272.662 270.206 272.547C270.284 272.431 270.384 272.332 270.5 272.255C270.616 272.178 270.746 272.125 270.882 272.099C271.019 272.073 271.159 272.074 271.295 272.103C271.431 272.131 271.56 272.186 271.675 272.265C274.038 273.883 276.318 275.621 278.505 277.473C278.67 277.614 278.789 277.802 278.845 278.013C278.9 278.224 278.89 278.447 278.816 278.652C278.741 278.857 278.606 279.034 278.428 279.159C278.251 279.284 278.039 279.351 277.823 279.351Z" fill="#565A5C"/>
<path d="M113.081 276.926C112.959 276.926 112.838 276.904 112.724 276.863C110.109 275.917 107.44 275.131 104.731 274.511C104.457 274.448 104.219 274.279 104.07 274.04C103.92 273.802 103.87 273.513 103.932 273.237C103.994 272.962 104.162 272.722 104.399 272.571C104.637 272.421 104.924 272.371 105.197 272.433C107.99 273.073 110.742 273.883 113.438 274.858C113.672 274.942 113.87 275.107 113.996 275.324C114.122 275.541 114.167 275.796 114.125 276.043C114.082 276.29 113.954 276.515 113.763 276.676C113.572 276.838 113.331 276.926 113.081 276.926V276.926Z" fill="#565A5C"/>
<path d="M175.661 275.935C175.427 275.935 175.2 275.858 175.015 275.714C174.83 275.571 174.697 275.37 174.638 275.142C174.578 274.915 174.595 274.674 174.685 274.457C174.776 274.24 174.935 274.06 175.139 273.944C177.656 272.509 180.183 271.146 182.647 269.898C182.896 269.781 183.181 269.766 183.441 269.857C183.7 269.947 183.915 270.136 184.038 270.383C184.162 270.631 184.186 270.916 184.104 271.181C184.022 271.445 183.841 271.666 183.599 271.798C181.167 273.036 178.666 274.383 176.178 275.801C176.02 275.89 175.842 275.936 175.661 275.935V275.935Z" fill="#565A5C"/>
<path d="M71.4794 275.598C71.2262 275.593 70.9834 275.496 70.7952 275.325C70.6069 275.154 70.4858 274.921 70.4538 274.668C70.4218 274.415 70.481 274.159 70.6207 273.947C70.7604 273.734 70.9713 273.579 71.215 273.509C74.0641 272.749 76.8825 272.139 79.5919 271.699C79.729 271.677 79.8692 271.682 80.0044 271.714C80.1396 271.746 80.2672 271.805 80.3799 271.887C80.4926 271.968 80.5882 272.072 80.6612 272.191C80.7342 272.31 80.7832 272.442 80.8055 272.58C80.8277 272.718 80.8227 272.859 80.7907 272.996C80.7588 273.132 80.7005 273.26 80.6192 273.374C80.538 273.487 80.4353 273.583 80.3171 273.657C80.1989 273.73 80.0675 273.78 79.9303 273.802C77.2864 274.233 74.5368 274.83 71.7565 275.572C71.6657 275.593 71.5725 275.602 71.4794 275.598V275.598Z" fill="#565A5C"/>
<path d="M96.6203 273.182C96.585 273.185 96.5497 273.185 96.5145 273.182C95.219 273.058 93.914 272.969 92.6333 272.924C91.1654 272.871 89.688 272.877 88.2095 272.935C87.929 272.946 87.6557 272.845 87.4495 272.653C87.2433 272.461 87.1213 272.195 87.1102 271.913C87.0991 271.63 87.1999 271.355 87.3904 271.147C87.5809 270.94 87.8455 270.817 88.126 270.806C89.6573 270.743 91.1851 270.739 92.7094 270.794C94.0314 270.842 95.3797 270.932 96.7165 271.061C96.9809 271.094 97.2233 271.226 97.3951 271.431C97.567 271.636 97.6557 271.899 97.6436 272.167C97.6314 272.435 97.5193 272.688 97.3296 272.876C97.1398 273.065 96.8865 273.174 96.6203 273.182V273.182Z" fill="#565A5C"/>
<path d="M317.096 272.46C316.873 272.461 316.656 272.39 316.475 272.258C316.294 272.127 316.159 271.941 316.09 271.727C316.02 271.514 316.02 271.283 316.088 271.07C316.156 270.856 316.29 270.669 316.47 270.536C318.757 268.852 321.151 267.246 323.586 265.764C323.705 265.688 323.838 265.638 323.976 265.615C324.115 265.591 324.257 265.596 324.393 265.629C324.53 265.661 324.659 265.721 324.772 265.804C324.886 265.888 324.982 265.993 325.055 266.114C325.127 266.235 325.175 266.369 325.196 266.509C325.216 266.649 325.209 266.792 325.174 266.929C325.14 267.066 325.078 267.194 324.993 267.307C324.909 267.42 324.802 267.515 324.681 267.586C322.297 269.037 319.955 270.608 317.719 272.255C317.539 272.389 317.32 272.461 317.096 272.46V272.46Z" fill="#565A5C"/>
<path d="M263.857 269.782C263.681 269.783 263.507 269.738 263.353 269.652C260.935 268.329 258.405 267.097 255.831 265.998C255.572 265.888 255.368 265.679 255.263 265.417C255.158 265.155 255.16 264.862 255.269 264.602C255.379 264.341 255.587 264.136 255.847 264.03C256.107 263.924 256.398 263.926 256.656 264.037C259.294 265.165 261.886 266.425 264.363 267.783C264.569 267.896 264.732 268.075 264.826 268.292C264.92 268.509 264.939 268.751 264.882 268.98C264.824 269.209 264.691 269.413 264.506 269.558C264.321 269.703 264.092 269.782 263.857 269.782V269.782Z" fill="#565A5C"/>
<path d="M190.783 268.279C190.54 268.279 190.305 268.194 190.117 268.04C189.928 267.886 189.798 267.671 189.749 267.432C189.699 267.192 189.733 266.943 189.844 266.726C189.955 266.509 190.137 266.337 190.36 266.239C193.025 265.067 195.691 263.994 198.285 263.044C198.416 262.997 198.554 262.976 198.693 262.982C198.832 262.988 198.968 263.022 199.094 263.082C199.22 263.141 199.332 263.225 199.426 263.328C199.52 263.431 199.592 263.552 199.639 263.684C199.687 263.815 199.708 263.955 199.701 264.094C199.695 264.234 199.661 264.371 199.602 264.498C199.543 264.624 199.46 264.738 199.358 264.832C199.255 264.927 199.135 265 199.004 265.047C196.453 265.977 193.83 267.033 191.207 268.185C191.074 268.246 190.929 268.278 190.783 268.279Z" fill="#565A5C"/>
<path d="M331.553 263.648C331.313 263.649 331.08 263.569 330.891 263.419C330.703 263.27 330.57 263.06 330.516 262.825C330.461 262.589 330.488 262.342 330.591 262.124C330.695 261.906 330.869 261.73 331.085 261.624C332.359 260.991 333.666 260.375 334.972 259.794C335.229 259.68 335.52 259.673 335.782 259.775C336.044 259.877 336.254 260.079 336.368 260.338C336.481 260.596 336.488 260.889 336.387 261.153C336.286 261.416 336.085 261.628 335.828 261.743C334.549 262.311 333.269 262.914 332.021 263.534C331.876 263.607 331.716 263.646 331.553 263.648Z" fill="#565A5C"/>
<path d="M248.318 263.116C248.211 263.115 248.104 263.098 248.001 263.065C245.381 262.221 242.667 261.475 239.932 260.85C239.797 260.819 239.668 260.762 239.555 260.681C239.442 260.6 239.345 260.498 239.271 260.379C239.197 260.261 239.147 260.129 239.124 259.991C239.1 259.853 239.104 259.712 239.135 259.576C239.165 259.439 239.223 259.31 239.303 259.196C239.383 259.082 239.485 258.985 239.602 258.91C239.72 258.836 239.851 258.785 239.988 258.762C240.125 258.738 240.265 258.742 240.401 258.773C243.195 259.412 245.969 260.174 248.649 261.038C248.89 261.116 249.095 261.278 249.227 261.495C249.359 261.711 249.41 261.969 249.37 262.22C249.33 262.471 249.202 262.7 249.009 262.864C248.816 263.029 248.571 263.118 248.318 263.116Z" fill="#565A5C"/>
<path d="M206.706 262.517C206.45 262.517 206.203 262.424 206.01 262.254C205.818 262.085 205.692 261.851 205.658 261.595C205.624 261.34 205.682 261.081 205.823 260.866C205.964 260.651 206.178 260.494 206.425 260.426C209.251 259.639 212.057 258.992 214.768 258.509C215.044 258.46 215.328 258.522 215.559 258.684C215.789 258.845 215.946 259.092 215.995 259.37C216.044 259.648 215.982 259.935 215.822 260.166C215.661 260.398 215.416 260.556 215.14 260.606C212.496 261.082 209.752 261.714 206.99 262.484C206.897 262.508 206.802 262.519 206.706 262.517V262.517Z" fill="#565A5C"/>
<path d="M231.807 259.601H231.729C228.963 259.406 226.187 259.399 223.42 259.58C223.141 259.595 222.867 259.5 222.657 259.313C222.447 259.127 222.318 258.866 222.297 258.585C222.288 258.445 222.307 258.305 222.352 258.173C222.397 258.04 222.467 257.918 222.559 257.813C222.651 257.708 222.762 257.622 222.887 257.561C223.012 257.499 223.147 257.463 223.286 257.454C226.149 257.265 229.021 257.272 231.883 257.476C232.151 257.503 232.399 257.631 232.576 257.835C232.754 258.039 232.847 258.304 232.837 258.575C232.828 258.846 232.716 259.103 232.524 259.293C232.332 259.484 232.076 259.594 231.807 259.601Z" fill="#565A5C"/>
</g>
<defs>
<clipPath id="clip0_337_1769">
<rect width="441" height="115" fill="white" transform="translate(25 183)"/>
</clipPath>
</defs>
</svg>
