<svg width="500" height="330" viewBox="0 0 500 330" fill="none" xmlns="http://www.w3.org/2000/svg">
<g clip-path="url(#clip0_337_1769)">
<path d="M124.262 240.353C126.248 240.064 132.427 238.85 135.697 234.633C139.377 229.888 142.553 206.421 142.903 203.761L142.923 203.617L142.902 203.472C142.79 202.629 142.38 201.855 141.746 201.292C141.113 200.729 140.299 200.415 139.455 200.408C138.61 200.401 137.791 200.701 137.149 201.254C136.506 201.806 136.083 202.573 135.958 203.414C134.306 211.761 131.121 225.007 129.108 227.287C127.762 228.809 126.017 229.916 124.073 230.482L123.888 223.16C125.897 221.851 129.549 219.21 130.858 216.481C132.595 212.86 132.738 193.778 132.748 191.613L132.738 191.457C132.652 190.821 132.339 190.238 131.857 189.817C131.376 189.396 130.759 189.167 130.121 189.171C129.483 189.175 128.869 189.412 128.393 189.839C127.917 190.266 127.611 190.853 127.533 191.49C127.514 191.665 125.613 208.971 125.358 210.999C125.01 211.86 124.408 212.592 123.633 213.097L122.528 169.424C122.457 168.262 121.945 167.171 121.099 166.377C120.252 165.583 119.135 165.147 117.978 165.157C116.822 165.168 115.713 165.626 114.881 166.436C114.05 167.245 113.559 168.346 113.509 169.509L112.134 223.801C110.499 222.659 109.246 221.045 108.539 219.172C107.788 216.694 105.727 193.995 104.995 185.457L104.978 185.259L104.891 185.081C104.539 184.477 104.043 183.971 103.448 183.608C102.853 183.245 102.177 183.038 101.483 183.005C100.714 182.895 99.9303 183.051 99.2606 183.447C98.5908 183.843 98.0742 184.456 97.7949 185.186L97.741 185.361V185.551C97.741 186.935 97.8108 219.625 102.42 226.341C106.213 231.868 110.315 233.095 111.898 233.369L111.781 238.004V266.583C111.781 267.148 112.004 267.69 112.401 268.089C112.797 268.489 113.335 268.713 113.896 268.713H122.145C122.706 268.713 123.244 268.489 123.641 268.089C124.037 267.69 124.26 267.148 124.26 266.583V240.353H124.262Z" fill="#E6EAF0"/>
<path d="M67.1057 217.276L65.6135 168.727C65.6135 168.693 65.568 165.34 61.6826 165.34C57.7971 165.34 57.7517 168.689 57.7517 168.706L56.5323 208.423C55.9747 208.273 55.4688 207.972 55.0695 207.552C54.6703 207.133 54.3931 206.611 54.2681 206.043C53.899 203.534 53.3343 182.622 53.3237 182.337C53.1942 181.7 52.8407 181.131 52.3281 180.734C51.8154 180.338 51.178 180.141 50.5328 180.18C49.881 180.142 49.2378 180.345 48.7234 180.75C48.2091 181.155 47.8587 181.734 47.7377 182.38C47.6563 183.338 45.7675 206.004 48.277 210.473C50.3551 214.174 54.6361 215.347 56.3144 215.673L56.0553 224.104V244.165C56.0553 244.589 56.2225 244.995 56.52 245.294C56.8175 245.594 57.221 245.762 57.6417 245.762H65.7288C66.1495 245.762 66.553 245.594 66.8505 245.294C67.148 244.995 67.3151 244.589 67.3151 244.165V224.666C69.261 224.195 72.8599 222.91 74.718 219.608C77.2276 215.136 75.3388 193.57 75.2468 192.614C75.0823 191.989 74.7155 191.438 74.2044 191.047C73.6934 190.656 73.0673 190.449 72.4256 190.457C71.7839 190.465 71.1633 190.689 70.6623 191.092C70.1612 191.496 69.8084 192.057 69.6597 192.685C69.6597 192.884 69.0897 212.667 68.7206 215.175C68.6403 215.631 68.4514 216.06 68.1701 216.426C67.8889 216.792 67.5236 217.084 67.1057 217.276Z" fill="#E6EAF0"/>
<path d="M469.538 242.028C469.328 241.842 469.052 241.747 468.773 241.765C468.493 241.782 468.231 241.911 468.046 242.123C466.924 243.345 465.561 244.317 464.043 244.977C465.509 241.468 466.567 237.8 467.198 234.046C467.234 233.767 467.159 233.484 466.989 233.259C466.818 233.035 466.566 232.889 466.288 232.852C466.011 232.818 465.731 232.895 465.51 233.066C465.288 233.237 465.141 233.489 465.102 233.767C465.075 233.967 463.065 248.208 453.479 257.234C453.607 254.797 454.239 252.414 455.334 250.237C455.403 250.114 455.447 249.978 455.464 249.838C455.48 249.697 455.469 249.555 455.43 249.419C455.391 249.283 455.326 249.156 455.238 249.046C455.15 248.936 455.041 248.844 454.917 248.777C454.794 248.71 454.658 248.668 454.519 248.654C454.379 248.64 454.238 248.654 454.103 248.695C453.969 248.737 453.844 248.804 453.737 248.895C453.629 248.985 453.54 249.097 453.475 249.222C451.963 252.272 451.223 255.651 451.321 259.058C447.494 261.997 442.935 263.816 438.147 264.312C437.926 264.337 437.687 264.341 437.459 264.36C438.815 262.519 440.526 260.972 442.489 259.812C442.73 259.67 442.905 259.437 442.977 259.165C443.048 258.893 443.01 258.604 442.87 258.361C442.73 258.117 442.501 257.939 442.231 257.866C441.962 257.792 441.674 257.828 441.432 257.967C438.744 259.536 436.49 261.758 434.875 264.43C427.795 264.263 418.663 261.528 411.366 258.128C412.82 258.254 414.359 258.351 415.978 258.394C416.583 258.41 417.205 258.418 417.843 258.419C419.655 258.419 421.596 258.341 423.602 258.161C426.103 260.061 429.042 261.291 432.143 261.737C432.281 261.758 432.423 261.752 432.559 261.718C432.694 261.685 432.822 261.624 432.935 261.54C433.047 261.456 433.142 261.35 433.214 261.229C433.285 261.108 433.332 260.974 433.352 260.834C433.372 260.695 433.364 260.553 433.328 260.416C433.293 260.28 433.231 260.152 433.146 260.04C433.061 259.927 432.955 259.833 432.834 259.763C432.713 259.692 432.579 259.647 432.44 259.629C430.499 259.34 428.624 258.71 426.899 257.768C433.113 256.843 439.68 254.763 445.089 250.513C447.238 248.76 449.137 246.718 450.733 244.443C454.037 243.799 457.111 242.28 459.638 240.042C459.741 239.948 459.824 239.833 459.882 239.706C459.941 239.579 459.974 239.442 459.98 239.302C459.986 239.162 459.964 239.022 459.916 238.891C459.869 238.759 459.795 238.638 459.701 238.535C459.607 238.432 459.494 238.349 459.368 238.29C459.241 238.231 459.105 238.197 458.966 238.191C458.827 238.185 458.688 238.207 458.557 238.255C458.427 238.303 458.307 238.377 458.204 238.472C456.561 239.939 454.636 241.053 452.55 241.744C454.818 238.041 456.774 234.153 458.396 230.12C461.585 229.4 464.542 227.881 466.993 225.704C467.099 225.61 467.186 225.496 467.248 225.368C467.31 225.24 467.346 225.101 467.354 224.959C467.361 224.817 467.341 224.675 467.293 224.541C467.245 224.407 467.171 224.284 467.075 224.179C466.979 224.075 466.864 223.99 466.735 223.931C466.606 223.873 466.467 223.84 466.326 223.837C466.185 223.833 466.044 223.857 465.912 223.909C465.781 223.961 465.661 224.039 465.56 224.138C463.769 225.732 461.664 226.925 459.382 227.64C461.065 223.257 462.489 218.777 463.647 214.224C463.708 213.951 463.66 213.665 463.514 213.428C463.368 213.19 463.135 213.02 462.865 212.954C462.596 212.888 462.311 212.931 462.073 213.074C461.834 213.218 461.662 213.45 461.592 213.72C461.577 213.782 461.199 215.317 460.484 217.72C459.786 215.772 459.518 213.694 459.7 211.631C459.717 211.491 459.706 211.349 459.668 211.213C459.63 211.077 459.566 210.95 459.479 210.84C459.392 210.729 459.284 210.637 459.162 210.569C459.039 210.501 458.904 210.458 458.765 210.442C458.626 210.427 458.485 210.44 458.35 210.48C458.216 210.52 458.091 210.586 457.982 210.675C457.874 210.764 457.784 210.874 457.717 210.999C457.651 211.123 457.611 211.259 457.597 211.4C457.336 214.668 457.999 217.944 459.509 220.848C457.574 226.976 455.051 232.9 451.977 238.537C451.56 236.253 451.604 233.908 452.108 231.642C452.145 231.505 452.155 231.362 452.137 231.22C452.119 231.079 452.072 230.943 452.001 230.82C451.929 230.698 451.834 230.59 451.721 230.505C451.608 230.42 451.479 230.359 451.342 230.325C451.204 230.29 451.062 230.284 450.922 230.307C450.783 230.329 450.649 230.379 450.529 230.455C450.409 230.53 450.305 230.629 450.224 230.745C450.142 230.861 450.085 230.993 450.055 231.132C449.338 234.449 449.458 237.894 450.406 241.152C448.632 244.059 446.397 246.654 443.79 248.832C435.211 255.568 423.379 256.632 414.211 256.164C422.159 254.527 429.532 250.791 435.574 245.34C436.085 245.396 436.598 245.423 437.112 245.421C439.744 245.416 442.347 244.86 444.753 243.787C445.009 243.672 445.209 243.459 445.309 243.195C445.409 242.931 445.401 242.637 445.286 242.38C445.172 242.122 444.96 241.92 444.698 241.82C444.435 241.719 444.144 241.727 443.888 241.843C441.955 242.702 439.878 243.187 437.766 243.273C439.092 241.953 440.351 240.567 441.538 239.12C444.203 235.789 446.329 232.056 447.839 228.059C450.729 227.228 453.383 225.725 455.589 223.67C455.696 223.576 455.782 223.462 455.844 223.334C455.906 223.206 455.942 223.067 455.95 222.925C455.958 222.783 455.937 222.641 455.889 222.507C455.841 222.373 455.767 222.25 455.672 222.145C455.576 222.041 455.46 221.957 455.332 221.898C455.203 221.839 455.064 221.807 454.922 221.803C454.781 221.799 454.641 221.824 454.509 221.875C454.377 221.927 454.257 222.005 454.156 222.105C452.577 223.56 450.747 224.712 448.756 225.503C450.388 220.445 451.438 215.216 451.888 209.917C452.121 207.32 452.22 204.905 452.242 202.758C454.813 200.824 456.852 198.262 458.164 195.313C458.224 195.184 458.257 195.044 458.262 194.901C458.268 194.759 458.244 194.617 458.194 194.484C458.143 194.351 458.067 194.229 457.969 194.126C457.871 194.023 457.754 193.941 457.624 193.885C457.494 193.829 457.354 193.799 457.213 193.798C457.071 193.797 456.931 193.825 456.8 193.879C456.67 193.934 456.551 194.014 456.452 194.116C456.353 194.217 456.275 194.338 456.222 194.47C455.286 196.571 453.927 198.454 452.232 200C452.157 196.134 451.862 193.643 451.841 193.472C451.828 193.33 451.787 193.192 451.72 193.066C451.653 192.941 451.561 192.83 451.451 192.74C451.341 192.651 451.214 192.585 451.078 192.546C450.941 192.507 450.799 192.496 450.658 192.513C450.518 192.531 450.382 192.576 450.26 192.647C450.137 192.719 450.03 192.814 449.944 192.928C449.859 193.041 449.797 193.171 449.763 193.31C449.728 193.448 449.721 193.592 449.743 193.733C450.388 200.631 450.201 207.582 449.187 214.435C448.339 212.653 447.809 210.736 447.619 208.77C447.594 208.489 447.458 208.229 447.243 208.048C447.027 207.868 446.749 207.78 446.47 207.806C446.19 207.832 445.933 207.968 445.753 208.185C445.574 208.402 445.487 208.682 445.513 208.964C445.749 212.105 446.82 215.125 448.614 217.706C447.567 223.444 445.524 228.952 442.579 233.977C441.552 231.822 440.978 229.476 440.895 227.087C440.893 226.947 440.863 226.809 440.808 226.681C440.752 226.552 440.672 226.436 440.573 226.339C440.473 226.242 440.355 226.166 440.225 226.115C440.096 226.063 439.958 226.038 439.819 226.041C439.539 226.046 439.272 226.162 439.077 226.366C438.98 226.466 438.905 226.585 438.854 226.715C438.803 226.845 438.778 226.984 438.78 227.124C438.885 230.244 439.726 233.295 441.235 236.023C440.812 236.618 440.372 237.204 439.908 237.771C436.649 241.81 432.775 245.304 428.431 248.122C428.652 245.681 429.393 243.317 430.604 241.19C430.679 241.07 430.73 240.936 430.753 240.795C430.776 240.655 430.77 240.512 430.737 240.374C430.704 240.235 430.644 240.105 430.56 239.991C430.476 239.877 430.37 239.78 430.249 239.708C430.128 239.635 429.993 239.588 429.853 239.568C429.714 239.549 429.571 239.558 429.435 239.595C429.299 239.632 429.171 239.696 429.06 239.783C428.948 239.87 428.855 239.979 428.786 240.103C427.166 242.944 426.292 246.155 426.248 249.431C420.54 252.621 414.197 254.49 407.681 254.902C409.868 252.914 412.276 250.571 414.803 247.819C415.463 247.901 416.126 247.94 416.791 247.937C419.176 247.938 421.541 247.486 423.76 246.604C423.891 246.553 424.011 246.477 424.112 246.38C424.214 246.283 424.295 246.166 424.351 246.036C424.408 245.907 424.438 245.768 424.44 245.626C424.443 245.485 424.417 245.345 424.365 245.214C424.313 245.083 424.235 244.963 424.137 244.862C424.039 244.762 423.922 244.682 423.792 244.627C423.663 244.572 423.524 244.544 423.384 244.544C423.243 244.544 423.105 244.572 422.975 244.626C420.949 245.427 418.787 245.825 416.611 245.798C419.808 242.148 422.768 238.294 425.473 234.26C428.694 234.204 431.847 233.317 434.631 231.685C434.865 231.534 435.03 231.296 435.091 231.024C435.152 230.752 435.104 230.466 434.958 230.229C434.812 229.991 434.579 229.821 434.31 229.755C434.041 229.689 433.756 229.732 433.518 229.874C431.501 231.065 429.251 231.799 426.924 232.025C429.306 228.292 431.454 224.412 433.355 220.409C433.721 219.636 434.069 218.866 434.413 218.099C437.479 217.516 440.351 216.163 442.761 214.166C442.873 214.079 442.966 213.97 443.036 213.846C443.105 213.722 443.149 213.584 443.165 213.443C443.18 213.301 443.168 213.158 443.127 213.021C443.087 212.884 443.02 212.757 442.93 212.647C442.84 212.537 442.729 212.446 442.603 212.38C442.478 212.314 442.34 212.274 442.199 212.263C442.058 212.251 441.916 212.268 441.782 212.313C441.647 212.358 441.523 212.429 441.417 212.523C439.657 213.964 437.628 215.034 435.45 215.67C436.811 212.347 438.003 208.958 439.023 205.514C442.13 204.116 444.674 201.699 446.241 198.658C446.362 198.403 446.377 198.11 446.283 197.844C446.189 197.578 445.993 197.36 445.74 197.239C445.487 197.118 445.196 197.103 444.931 197.197C444.667 197.292 444.451 197.489 444.33 197.744C443.307 199.762 441.751 201.457 439.833 202.642C441.379 197.069 442.421 191.367 442.945 185.605C442.953 185.465 442.934 185.325 442.889 185.192C442.843 185.06 442.773 184.938 442.68 184.833C442.494 184.621 442.232 184.493 441.951 184.476C441.812 184.467 441.673 184.486 441.542 184.532C441.41 184.578 441.289 184.649 441.185 184.742C440.974 184.929 440.847 185.194 440.83 185.476C440.83 185.54 440.656 188.096 439.954 192.23C438.7 190.441 437.802 188.425 437.31 186.292C437.28 186.155 437.223 186.026 437.143 185.912C437.063 185.798 436.961 185.7 436.844 185.626C436.726 185.551 436.595 185.5 436.458 185.477C436.322 185.453 436.181 185.456 436.046 185.487C435.91 185.518 435.782 185.575 435.669 185.656C435.555 185.736 435.459 185.839 435.385 185.957C435.31 186.075 435.26 186.207 435.236 186.345C435.213 186.483 435.216 186.624 435.247 186.76C435.936 189.817 437.378 192.651 439.439 195C437.776 203.461 435.09 211.686 431.442 219.49C430.891 220.655 430.321 221.79 429.741 222.906C428.337 220.836 427.534 218.411 427.424 215.906C427.42 215.766 427.388 215.629 427.331 215.501C427.273 215.374 427.192 215.259 427.09 215.163C426.989 215.068 426.87 214.993 426.74 214.944C426.61 214.895 426.471 214.871 426.332 214.876C426.193 214.881 426.057 214.913 425.93 214.97C425.804 215.028 425.69 215.11 425.595 215.212C425.5 215.314 425.425 215.434 425.376 215.565C425.327 215.696 425.305 215.836 425.309 215.975C425.444 219.252 426.608 222.401 428.632 224.97C425.509 230.656 421.886 236.048 417.807 241.083C416.982 238.879 416.621 236.527 416.749 234.175C416.766 233.893 416.672 233.616 416.486 233.405C416.3 233.193 416.038 233.065 415.758 233.048C415.479 233.034 415.206 233.131 414.997 233.318C414.787 233.504 414.659 233.766 414.638 234.046C414.463 237.097 415.028 240.145 416.283 242.927C413.321 246.429 410.147 249.743 406.779 252.85C408.091 245.662 409.856 237.002 411.881 229.683C414.929 228.934 417.737 227.419 420.042 225.278C420.149 225.184 420.236 225.07 420.298 224.942C420.36 224.814 420.396 224.675 420.404 224.533C420.411 224.391 420.391 224.249 420.343 224.115C420.295 223.981 420.221 223.858 420.125 223.753C420.029 223.649 419.914 223.564 419.785 223.506C419.656 223.447 419.517 223.414 419.376 223.411C419.235 223.407 419.094 223.432 418.962 223.483C418.831 223.535 418.711 223.613 418.61 223.712C416.865 225.311 414.808 226.524 412.571 227.275C412.742 226.701 412.915 226.136 413.088 225.586C415.442 218.152 420.298 210.892 424.721 205.335H424.871C428.052 205.299 431.173 204.462 433.95 202.901C434.184 202.755 434.353 202.523 434.42 202.255C434.487 201.986 434.447 201.702 434.31 201.462C434.172 201.223 433.947 201.046 433.683 200.971C433.418 200.895 433.135 200.926 432.893 201.057C430.939 202.157 428.784 202.849 426.558 203.092C428.839 200.359 431.265 197.75 433.825 195.279C434.027 195.086 434.145 194.821 434.155 194.541C434.164 194.261 434.063 193.989 433.874 193.783C433.686 193.577 433.424 193.454 433.146 193.442C432.868 193.429 432.596 193.527 432.389 193.714C428.059 197.879 424.096 202.414 420.545 207.27C419.847 205.205 419.551 203.024 419.676 200.847C419.693 200.565 419.598 200.287 419.413 200.076C419.227 199.864 418.966 199.735 418.686 199.718C418.546 199.706 418.406 199.723 418.274 199.767C418.141 199.812 418.019 199.882 417.914 199.976C417.809 200.069 417.724 200.182 417.664 200.309C417.604 200.436 417.57 200.574 417.564 200.715C417.391 203.669 417.908 206.623 419.074 209.34C415.67 214.12 412.977 219.374 411.079 224.937C411.022 225.119 410.964 225.309 410.907 225.493C409.693 223.873 408.779 222.047 408.208 220.101C408.17 219.966 408.105 219.841 408.019 219.731C407.932 219.622 407.825 219.531 407.703 219.464C407.581 219.396 407.448 219.353 407.309 219.338C407.171 219.322 407.032 219.334 406.898 219.373C406.765 219.412 406.64 219.477 406.532 219.564C406.423 219.652 406.333 219.76 406.266 219.882C406.199 220.005 406.156 220.139 406.141 220.278C406.125 220.417 406.137 220.558 406.176 220.693C406.96 223.381 408.324 225.862 410.171 227.958C407.928 235.805 405.982 245.397 404.582 253.133C403.535 250.189 402.737 247.161 402.196 244.082C404.442 241.875 406.094 239.129 406.996 236.103C407.036 235.969 407.05 235.828 407.036 235.689C407.021 235.55 406.98 235.415 406.914 235.292C406.848 235.169 406.759 235.06 406.651 234.971C406.544 234.883 406.42 234.817 406.287 234.777C406.154 234.737 406.014 234.723 405.876 234.738C405.738 234.752 405.604 234.793 405.482 234.86C405.359 234.926 405.251 235.016 405.163 235.124C405.076 235.233 405.01 235.357 404.97 235.491C404.31 237.654 403.229 239.663 401.79 241.401C400.792 233.173 401.458 224.827 403.748 216.865C404.397 214.55 405.253 212.299 406.305 210.139C406.654 210.17 407.139 210.2 407.734 210.2C410.203 210.2 412.649 209.715 414.933 208.77C415.062 208.716 415.178 208.638 415.276 208.539C415.374 208.439 415.452 208.322 415.505 208.193C415.558 208.063 415.585 207.925 415.585 207.785C415.585 207.645 415.557 207.507 415.504 207.378C415.451 207.248 415.373 207.131 415.274 207.032C415.176 206.934 415.059 206.855 414.931 206.802C414.802 206.749 414.665 206.721 414.526 206.722C414.387 206.722 414.249 206.749 414.121 206.803C411.983 207.681 409.689 208.109 407.38 208.061C410.688 202.28 415 197.144 420.11 192.898C421.043 193.032 421.983 193.098 422.925 193.095C425.203 193.113 427.466 192.716 429.604 191.923C429.734 191.873 429.852 191.798 429.953 191.702C430.054 191.606 430.135 191.491 430.192 191.363C430.248 191.235 430.279 191.098 430.283 190.958C430.287 190.818 430.263 190.679 430.214 190.548C430.164 190.418 430.089 190.298 429.994 190.197C429.898 190.095 429.784 190.013 429.657 189.956C429.53 189.899 429.393 189.868 429.254 189.864C429.116 189.861 428.977 189.884 428.848 189.934C426.812 190.678 424.654 191.024 422.49 190.953C426.791 187.559 431.458 184.663 436.403 182.319C436.53 182.264 436.646 182.184 436.743 182.084C436.84 181.983 436.916 181.865 436.968 181.735C437.019 181.605 437.045 181.466 437.043 181.327C437.041 181.187 437.012 181.049 436.958 180.92C436.903 180.792 436.823 180.675 436.724 180.578C436.624 180.48 436.507 180.403 436.378 180.351C436.249 180.299 436.111 180.274 435.972 180.275C435.833 180.277 435.696 180.306 435.568 180.362C432.538 181.746 429.616 183.357 426.826 185.183C427.153 182.736 427.985 180.384 429.266 178.278C429.344 178.161 429.398 178.029 429.424 177.891C429.451 177.752 429.45 177.61 429.422 177.472C429.393 177.334 429.338 177.203 429.259 177.087C429.18 176.97 429.079 176.871 428.961 176.794C428.844 176.718 428.713 176.665 428.575 176.64C428.437 176.615 428.296 176.618 428.159 176.648C428.023 176.678 427.893 176.735 427.779 176.816C427.664 176.897 427.567 177 427.492 177.119C425.739 180.022 424.728 183.316 424.548 186.708C420.824 189.279 417.354 192.203 414.184 195.439C413.302 193.229 412.893 190.856 412.983 188.476C412.99 188.335 412.969 188.195 412.922 188.063C412.874 187.931 412.801 187.809 412.707 187.706C412.613 187.602 412.499 187.518 412.373 187.459C412.246 187.4 412.11 187.366 411.97 187.361C411.831 187.352 411.691 187.372 411.559 187.418C411.428 187.465 411.307 187.538 411.204 187.633C411.101 187.728 411.018 187.843 410.96 187.972C410.902 188.1 410.871 188.238 410.867 188.379C410.746 191.39 411.342 194.387 412.605 197.12C408.155 201.939 404.717 207.614 402.498 213.803C400.955 211.856 399.794 209.633 399.074 207.25C399.037 207.114 398.974 206.986 398.887 206.875C398.801 206.764 398.693 206.671 398.571 206.602C398.448 206.533 398.313 206.489 398.174 206.473C398.035 206.457 397.893 206.469 397.759 206.509C397.624 206.548 397.498 206.614 397.389 206.703C397.28 206.792 397.189 206.902 397.123 207.026C397.056 207.151 397.015 207.287 397.002 207.428C396.988 207.569 397.002 207.711 397.044 207.846C397.972 210.946 399.579 213.798 401.747 216.191C401.737 216.226 401.725 216.26 401.714 216.297C399.953 222.503 399.119 228.939 399.239 235.392C397.851 233.931 396.734 232.232 395.942 230.374C395.831 230.116 395.624 229.912 395.365 229.807C395.106 229.703 394.816 229.705 394.559 229.815C394.302 229.924 394.098 230.132 393.992 230.392C393.886 230.652 393.887 230.944 393.994 231.203C395.183 234.017 397.034 236.496 399.387 238.428C399.738 243.233 400.687 247.974 402.211 252.54C401.894 252.214 401.565 251.887 401.259 251.562C393.052 242.78 389.309 234.758 388.886 224.097C391.575 222.485 393.816 220.214 395.398 217.495C395.468 217.374 395.514 217.241 395.533 217.102C395.552 216.964 395.544 216.823 395.508 216.687C395.473 216.552 395.412 216.425 395.328 216.314C395.244 216.202 395.139 216.108 395.019 216.038C394.899 215.967 394.767 215.921 394.629 215.902C394.491 215.883 394.351 215.891 394.217 215.927C394.083 215.962 393.957 216.024 393.846 216.109C393.735 216.193 393.642 216.299 393.572 216.419C392.371 218.456 390.761 220.219 388.845 221.593C388.857 219.596 388.963 217.516 389.18 215.311C389.654 210.152 391.072 205.127 393.363 200.488C393.493 200.496 393.741 200.509 394.095 200.509C396.973 200.487 399.807 199.804 402.382 198.511C402.507 198.449 402.619 198.362 402.711 198.257C402.802 198.151 402.872 198.028 402.916 197.894C402.961 197.761 402.978 197.62 402.968 197.48C402.958 197.34 402.92 197.203 402.858 197.078C402.795 196.952 402.708 196.841 402.602 196.749C402.496 196.658 402.374 196.588 402.241 196.545C402.108 196.501 401.968 196.485 401.829 196.496C401.69 196.507 401.555 196.546 401.431 196.61C399.274 197.684 396.915 198.284 394.51 198.369C398.143 191.983 403.48 186.751 409.917 183.265C410.17 183.147 410.366 182.932 410.462 182.669C410.559 182.406 410.548 182.115 410.432 181.859C410.317 181.604 410.106 181.405 409.845 181.305C409.585 181.205 409.296 181.214 409.041 181.327C405.416 183.23 402.119 185.706 399.275 188.663C399.241 186.489 399.622 184.329 400.397 182.3C400.454 182.168 400.484 182.027 400.485 181.884C400.486 181.741 400.458 181.599 400.404 181.467C400.349 181.335 400.269 181.215 400.167 181.115C400.066 181.015 399.945 180.936 399.813 180.884C399.681 180.832 399.539 180.807 399.397 180.811C399.255 180.815 399.115 180.848 398.986 180.908C398.857 180.967 398.741 181.053 398.646 181.158C398.55 181.264 398.476 181.388 398.429 181.523C397.284 184.466 396.902 187.654 397.319 190.787C392.368 196.516 389.037 203.479 387.675 210.947C386.428 209.178 385.53 207.184 385.031 205.074C385.003 204.934 384.947 204.802 384.867 204.685C384.787 204.567 384.685 204.467 384.566 204.39C384.447 204.314 384.314 204.262 384.174 204.237C384.035 204.213 383.892 204.218 383.755 204.25C383.617 204.282 383.487 204.342 383.373 204.426C383.259 204.509 383.162 204.615 383.089 204.737C383.016 204.859 382.968 204.994 382.948 205.135C382.928 205.276 382.936 205.42 382.972 205.557C383.683 208.619 385.151 211.451 387.239 213.789C387.184 214.226 387.123 214.658 387.08 215.105C385.52 230.988 389.068 241.619 399.73 253.024C399.95 253.26 400.183 253.495 400.41 253.731C396.463 252.21 392.734 250.169 389.321 247.661C389.471 244.666 388.913 241.678 387.692 238.944C387.576 238.686 387.363 238.486 387.101 238.386C386.838 238.287 386.547 238.297 386.292 238.413C386.036 238.53 385.837 238.744 385.738 239.008C385.64 239.273 385.649 239.566 385.765 239.823C386.625 241.764 387.116 243.851 387.212 245.974C383.75 243.064 380.943 239.443 378.981 235.354C378.918 235.221 378.875 235.088 378.812 234.955C380.697 232.577 381.984 229.775 382.561 226.788C382.614 226.51 382.555 226.223 382.397 225.989C382.24 225.755 381.997 225.594 381.721 225.541C381.445 225.487 381.16 225.547 380.928 225.705C380.696 225.864 380.535 226.109 380.483 226.386C380.04 228.632 379.152 230.765 377.871 232.658C376.452 228.793 375.827 224.677 376.037 220.562C378.99 218.853 381.424 216.365 383.077 213.367C383.14 213.242 383.179 213.107 383.19 212.967C383.201 212.828 383.185 212.688 383.143 212.554C383.101 212.421 383.032 212.298 382.943 212.191C382.853 212.085 382.743 211.997 382.619 211.933C382.496 211.869 382.361 211.83 382.223 211.819C382.084 211.807 381.945 211.823 381.813 211.866C381.68 211.909 381.558 211.978 381.452 212.068C381.346 212.158 381.259 212.269 381.195 212.393C379.997 214.581 378.31 216.459 376.268 217.878C378.443 201.365 392.555 188.922 392.741 188.757C392.852 188.668 392.945 188.557 393.013 188.431C393.081 188.305 393.123 188.167 393.136 188.024C393.15 187.882 393.135 187.738 393.092 187.602C393.049 187.465 392.979 187.339 392.887 187.23C392.794 187.121 392.681 187.032 392.554 186.968C392.426 186.905 392.287 186.868 392.145 186.859C392.003 186.851 391.861 186.872 391.727 186.92C391.593 186.968 391.47 187.043 391.366 187.14C389.285 189.055 387.351 191.125 385.579 193.332C384.749 191.141 384.378 188.8 384.489 186.458C384.496 186.318 384.476 186.178 384.43 186.046C384.384 185.914 384.312 185.792 384.219 185.688C384.126 185.584 384.014 185.499 383.889 185.438C383.763 185.378 383.627 185.343 383.488 185.335C383.349 185.328 383.21 185.348 383.079 185.394C382.948 185.441 382.827 185.513 382.724 185.607C382.62 185.7 382.536 185.813 382.476 185.94C382.416 186.066 382.381 186.203 382.373 186.343C382.215 189.404 382.802 192.459 384.082 195.24C381.087 199.147 378.62 203.436 376.745 207.997C375.391 205.986 374.475 203.71 374.058 201.317C374.01 201.04 373.857 200.792 373.63 200.627C373.403 200.462 373.12 200.394 372.844 200.437C372.567 200.482 372.319 200.636 372.155 200.865C371.991 201.094 371.924 201.379 371.969 201.658C372.521 204.852 373.863 207.855 375.871 210.389C374.415 214.605 373.746 219.055 373.898 223.515C371.837 222.011 370.154 220.042 368.983 217.765C368.863 217.51 368.647 217.313 368.383 217.218C368.119 217.122 367.828 217.136 367.575 217.257C367.321 217.378 367.125 217.595 367.03 217.861C366.936 218.126 366.95 218.419 367.07 218.675C368.697 221.797 371.136 224.415 374.126 226.251C374.573 229.722 375.563 233.1 377.058 236.26C377.14 236.434 377.23 236.599 377.314 236.769C375.405 235.893 373.691 234.637 372.277 233.076C372.185 232.971 372.073 232.886 371.948 232.825C371.823 232.763 371.687 232.727 371.548 232.719C371.409 232.71 371.27 232.729 371.139 232.775C371.007 232.821 370.886 232.892 370.782 232.985C370.677 233.078 370.592 233.19 370.532 233.316C370.471 233.442 370.435 233.579 370.426 233.719C370.418 233.858 370.437 233.999 370.482 234.131C370.528 234.263 370.598 234.386 370.691 234.49C372.918 236.93 375.761 238.715 378.916 239.658C383.619 247.175 390.739 251.738 396.398 254.372C391.504 253.617 386.754 252.118 382.308 249.925C381.539 246.894 379.862 244.174 377.504 242.136C377.4 242.041 377.278 241.969 377.145 241.922C377.013 241.876 376.872 241.856 376.732 241.865C376.592 241.874 376.455 241.91 376.329 241.973C376.203 242.036 376.091 242.123 375.999 242.23C375.907 242.336 375.837 242.461 375.793 242.595C375.749 242.729 375.732 242.871 375.743 243.012C375.754 243.153 375.793 243.29 375.858 243.416C375.922 243.541 376.01 243.653 376.118 243.744C377.558 245.008 378.714 246.566 379.51 248.314C370.08 242.182 365.55 231.903 365.498 231.793C365.443 231.665 365.362 231.549 365.262 231.452C365.162 231.355 365.044 231.279 364.915 231.228C364.786 231.176 364.648 231.151 364.509 231.154C364.37 231.157 364.233 231.187 364.105 231.243C363.978 231.299 363.863 231.379 363.766 231.48C363.67 231.581 363.594 231.7 363.543 231.83C363.493 231.96 363.468 232.099 363.47 232.239C363.473 232.379 363.503 232.517 363.559 232.645C364.545 234.791 365.716 236.846 367.06 238.785C365.063 238.127 363.208 237.095 361.591 235.744C361.486 235.653 361.363 235.584 361.231 235.541C361.099 235.497 360.96 235.481 360.821 235.492C360.683 235.502 360.548 235.541 360.424 235.604C360.3 235.668 360.19 235.755 360.1 235.861C360.01 235.968 359.941 236.091 359.898 236.224C359.855 236.357 359.838 236.497 359.849 236.637C359.86 236.776 359.898 236.912 359.961 237.037C360.024 237.161 360.111 237.272 360.217 237.363C362.76 239.482 365.802 240.905 369.049 241.498C371.301 244.368 373.93 246.917 376.863 249.075C374.697 249.031 372.554 248.63 370.517 247.889C370.388 247.838 370.25 247.814 370.111 247.817C369.972 247.82 369.835 247.851 369.708 247.908C369.581 247.964 369.466 248.045 369.37 248.146C369.274 248.247 369.199 248.367 369.149 248.497C369.099 248.627 369.074 248.766 369.078 248.906C369.081 249.046 369.111 249.184 369.167 249.312C369.223 249.44 369.304 249.555 369.404 249.652C369.505 249.749 369.623 249.824 369.753 249.875C373.057 251.023 376.567 251.447 380.048 251.119C380.272 251.245 380.486 251.382 380.714 251.503C387.304 254.849 394.525 256.75 401.898 257.079C400.219 258.464 398.472 259.762 396.663 260.969C396.425 261.119 396.255 261.358 396.192 261.633C396.128 261.909 396.176 262.199 396.325 262.439C396.473 262.679 396.711 262.849 396.984 262.913C397.258 262.977 397.546 262.929 397.784 262.779C399.819 261.422 401.78 259.955 403.658 258.385C402.78 263.569 402.272 267.085 402.258 267.18C402.238 267.319 402.245 267.46 402.279 267.596C402.314 267.731 402.374 267.859 402.458 267.971C402.541 268.083 402.645 268.177 402.765 268.249C402.884 268.32 403.017 268.367 403.154 268.387C403.205 268.394 403.256 268.397 403.307 268.397C403.561 268.397 403.806 268.305 403.999 268.137C404.191 267.97 404.316 267.738 404.353 267.485C404.364 267.401 404.767 264.61 405.473 260.36C407.723 264.974 410.674 269.207 414.22 272.906C414.426 273.092 414.697 273.19 414.975 273.177C415.252 273.164 415.513 273.042 415.702 272.837C415.89 272.632 415.991 272.36 415.983 272.081C415.974 271.802 415.857 271.537 415.657 271.344C412.526 268.12 409.884 264.449 407.816 260.448C413.062 264.685 418.775 268.298 424.843 271.216C425.751 274.297 427.706 276.958 430.365 278.736C430.483 278.815 430.614 278.869 430.753 278.896C430.891 278.923 431.034 278.921 431.172 278.892C431.31 278.863 431.441 278.806 431.556 278.725C431.672 278.644 431.771 278.54 431.846 278.42C431.922 278.3 431.973 278.166 431.996 278.026C432.019 277.886 432.014 277.743 431.982 277.605C431.949 277.466 431.89 277.336 431.806 277.221C431.723 277.107 431.618 277.01 431.497 276.937C429.813 275.823 428.464 274.266 427.598 272.434C431.611 274.236 435.925 275.259 440.315 275.451C440.921 275.452 441.527 275.42 442.131 275.355C443.052 275.245 443.963 275.067 444.858 274.822C446.881 275.632 449.039 276.044 451.216 276.036C452.183 276.037 453.148 275.953 454.1 275.783C454.373 275.731 454.615 275.572 454.773 275.341C454.931 275.11 454.993 274.826 454.944 274.55C454.895 274.274 454.741 274.029 454.513 273.867C454.286 273.705 454.004 273.64 453.73 273.686C451.905 274 450.039 273.971 448.224 273.601C452.626 271.384 456.295 267.931 458.789 263.659C458.923 263.411 458.954 263.119 458.874 262.848C458.794 262.577 458.611 262.349 458.365 262.214C458.118 262.08 457.828 262.049 457.559 262.129C457.29 262.209 457.064 262.394 456.93 262.642C456.879 262.737 451.681 272.163 441.9 273.233C440.145 273.39 438.377 273.3 436.647 272.966C438.468 271.605 440.622 270.765 442.879 270.538C443.018 270.526 443.153 270.488 443.276 270.424C443.4 270.36 443.51 270.272 443.6 270.166C443.69 270.059 443.758 269.936 443.801 269.803C443.843 269.669 443.859 269.529 443.848 269.39C443.821 269.11 443.687 268.851 443.475 268.669C443.262 268.487 442.987 268.396 442.708 268.414C439.462 268.752 436.414 270.145 434.024 272.383C426.968 270.496 418.667 265.928 411.449 260.522C419.077 263.96 428.304 266.575 435.544 266.575C436.492 266.578 437.44 266.528 438.383 266.425C440.329 266.206 442.249 265.795 444.115 265.197C445.983 265.638 447.897 265.855 449.816 265.844C450.968 265.845 452.119 265.765 453.26 265.605C453.532 265.56 453.775 265.409 453.938 265.185C454.101 264.961 454.171 264.682 454.133 264.408C454.095 264.133 453.952 263.884 453.734 263.714C453.516 263.544 453.241 263.466 452.967 263.497C451.317 263.722 449.647 263.769 447.986 263.637C455.327 260 459.95 253.613 462.819 247.702C465.423 246.955 467.778 245.513 469.633 243.528C469.818 243.316 469.911 243.039 469.893 242.758C469.875 242.477 469.748 242.215 469.538 242.028Z" fill="#565A5C"/>
<path d="M30.0576 280C29.8356 280 29.6193 279.93 29.4392 279.799C29.2591 279.669 29.1245 279.484 29.0543 279.272C28.9841 279.06 28.9819 278.831 29.0481 278.618C29.1143 278.405 29.2455 278.218 29.423 278.084C29.5288 278.003 32.1071 276.06 36.5203 273.243C36.6375 273.168 36.7683 273.117 36.9052 273.093C37.042 273.069 37.1822 273.072 37.3178 273.103C37.4534 273.133 37.5817 273.19 37.6953 273.271C37.809 273.351 37.9058 273.453 37.9802 273.571C38.0547 273.69 38.1053 273.821 38.1292 273.959C38.153 274.097 38.1498 274.238 38.1195 274.374C38.0892 274.511 38.0325 274.64 37.9526 274.755C37.8727 274.869 37.7712 274.967 37.654 275.041C33.318 277.81 30.7164 279.767 30.691 279.786C30.5086 279.925 30.2862 280 30.0576 280Z" fill="#565A5C"/>
<path d="M298.124 279.207C297.939 279.207 297.756 279.157 297.595 279.064C297.435 278.97 297.301 278.836 297.208 278.674C297.116 278.512 297.067 278.329 297.067 278.142C297.067 277.955 297.116 277.771 297.208 277.609C298.664 275.115 300.283 272.722 302.056 270.445C302.141 270.335 302.247 270.242 302.368 270.173C302.488 270.103 302.621 270.058 302.759 270.041C302.897 270.023 303.037 270.033 303.171 270.07C303.305 270.107 303.431 270.17 303.54 270.255C303.65 270.341 303.742 270.447 303.811 270.569C303.88 270.69 303.925 270.824 303.942 270.963C303.96 271.102 303.95 271.243 303.913 271.378C303.877 271.513 303.814 271.639 303.729 271.75C302.015 273.949 300.449 276.261 299.042 278.671C298.95 278.834 298.816 278.969 298.655 279.063C298.493 279.157 298.31 279.207 298.124 279.207Z" fill="#565A5C"/>
<path d="M151.667 277.119C151.448 277.119 151.234 277.051 151.056 276.924C150.877 276.797 150.742 276.617 150.669 276.409C150.596 276.202 150.589 275.976 150.648 275.764C150.708 275.552 150.831 275.364 151.002 275.226C153.117 273.509 155.386 271.744 157.751 269.983C157.977 269.825 158.255 269.762 158.526 269.807C158.797 269.852 159.04 270.002 159.203 270.224C159.367 270.447 159.438 270.725 159.401 270.999C159.365 271.273 159.224 271.522 159.008 271.694C156.667 273.439 154.42 275.183 152.33 276.883C152.142 277.036 151.908 277.119 151.667 277.119Z" fill="#565A5C"/>
<path d="M145.47 277.042C145.193 277.041 144.927 276.931 144.73 276.734C142.745 274.765 140.655 272.906 138.469 271.166C138.355 271.081 138.259 270.974 138.186 270.851C138.114 270.728 138.067 270.592 138.048 270.45C138.03 270.308 138.039 270.164 138.077 270.026C138.115 269.888 138.18 269.759 138.268 269.647C138.356 269.535 138.466 269.442 138.591 269.374C138.716 269.305 138.853 269.263 138.994 269.249C139.136 269.235 139.278 269.25 139.414 269.293C139.549 269.336 139.675 269.406 139.783 269.499C142.03 271.286 144.178 273.196 146.217 275.22C146.366 275.369 146.468 275.559 146.51 275.766C146.552 275.973 146.531 276.188 146.451 276.383C146.371 276.579 146.235 276.746 146.06 276.863C145.886 276.98 145.68 277.043 145.47 277.042Z" fill="#565A5C"/>
<path d="M293.517 273.633C293.354 273.633 293.192 273.596 293.045 273.523C292.898 273.45 292.77 273.343 292.671 273.212C290.983 270.986 289.169 268.859 287.239 266.841C287.044 266.638 286.938 266.365 286.943 266.083C286.949 265.8 287.065 265.532 287.267 265.336C287.469 265.14 287.74 265.033 288.021 265.038C288.301 265.044 288.568 265.161 288.763 265.364C290.749 267.441 292.616 269.631 294.354 271.923C294.473 272.08 294.546 272.268 294.565 272.465C294.584 272.662 294.548 272.861 294.461 273.038C294.374 273.216 294.24 273.366 294.073 273.471C293.907 273.576 293.714 273.632 293.517 273.633Z" fill="#565A5C"/>
<path d="M44.3557 270.823C44.1222 270.823 43.8952 270.745 43.7103 270.601C43.5253 270.458 43.3927 270.257 43.3332 270.029C43.2736 269.802 43.2905 269.561 43.3812 269.344C43.4718 269.128 43.6312 268.947 43.8343 268.831C46.3323 267.408 48.8651 266.051 51.3599 264.797C51.4845 264.731 51.621 264.69 51.7613 264.678C51.9017 264.666 52.0431 264.682 52.1772 264.725C52.3113 264.768 52.4355 264.838 52.5424 264.931C52.6492 265.023 52.7367 265.136 52.7996 265.263C52.8626 265.39 52.8997 265.528 52.9088 265.67C52.9179 265.811 52.8988 265.953 52.8526 266.087C52.8065 266.221 52.7342 266.345 52.64 266.45C52.5459 266.556 52.4317 266.641 52.3043 266.702C49.8423 267.939 47.3433 269.28 44.876 270.684C44.7175 270.775 44.5381 270.823 44.3557 270.823Z" fill="#565A5C"/>
<path d="M165.29 266.962C165.064 266.962 164.844 266.889 164.662 266.754C164.48 266.619 164.346 266.429 164.279 266.212C164.213 265.994 164.217 265.761 164.292 265.546C164.366 265.331 164.507 265.146 164.694 265.018C167.048 263.402 169.445 261.823 171.822 260.333C172.06 260.183 172.348 260.135 172.622 260.198C172.895 260.262 173.133 260.433 173.282 260.673C173.43 260.913 173.478 261.203 173.415 261.478C173.352 261.754 173.182 261.993 172.944 262.143C170.591 263.624 168.215 265.185 165.886 266.784C165.709 266.902 165.502 266.964 165.29 266.962Z" fill="#565A5C"/>
<path d="M132.228 266.454C132.026 266.454 131.829 266.396 131.66 266.287C129.312 264.779 126.886 263.4 124.391 262.154C124.267 262.092 124.155 262.006 124.064 261.901C123.973 261.796 123.903 261.673 123.858 261.541C123.814 261.408 123.795 261.268 123.805 261.129C123.814 260.989 123.85 260.853 123.912 260.728C123.974 260.602 124.059 260.49 124.164 260.398C124.268 260.306 124.39 260.236 124.521 260.191C124.653 260.146 124.792 260.128 124.931 260.137C125.069 260.146 125.205 260.183 125.329 260.245C127.893 261.525 130.386 262.942 132.798 264.492C132.991 264.616 133.138 264.799 133.219 265.015C133.299 265.231 133.308 265.467 133.244 265.688C133.18 265.909 133.046 266.104 132.862 266.242C132.679 266.38 132.456 266.454 132.228 266.454Z" fill="#565A5C"/>
<path d="M308.406 265.697C308.199 265.697 307.997 265.636 307.824 265.522C307.652 265.408 307.516 265.245 307.434 265.054C307.352 264.863 307.328 264.652 307.364 264.447C307.4 264.242 307.495 264.052 307.637 263.901C309.581 261.834 311.656 259.822 313.8 257.925C314.012 257.753 314.282 257.67 314.554 257.693C314.826 257.717 315.078 257.845 315.258 258.051C315.438 258.257 315.532 258.525 315.52 258.799C315.509 259.073 315.393 259.332 315.196 259.522C313.098 261.378 311.072 263.343 309.168 265.363C309.07 265.467 308.952 265.551 308.821 265.609C308.69 265.666 308.549 265.696 308.406 265.697Z" fill="#565A5C"/>
<path d="M59.5126 263.223C59.269 263.223 59.0328 263.138 58.8439 262.983C58.655 262.829 58.5251 262.613 58.4759 262.373C58.4268 262.132 58.4616 261.882 58.5744 261.665C58.6871 261.448 58.871 261.276 59.0948 261.179C61.7652 260.025 64.4408 258.972 67.0466 258.048C67.3112 257.954 67.602 257.97 67.855 258.092C68.1079 258.214 68.3024 258.432 68.3955 258.699C68.4886 258.965 68.4728 259.258 68.3515 259.513C68.2302 259.767 68.0134 259.963 67.7488 260.057C65.1874 260.965 62.5573 262.001 59.9292 263.138C59.7976 263.194 59.6558 263.223 59.5126 263.223Z" fill="#565A5C"/>
<path d="M281.822 261.351C281.573 261.351 281.332 261.262 281.141 261.101C279.01 259.295 276.788 257.602 274.485 256.026C274.37 255.947 274.272 255.846 274.195 255.729C274.119 255.613 274.067 255.482 274.041 255.344C274.015 255.207 274.016 255.066 274.044 254.929C274.072 254.792 274.127 254.662 274.205 254.546C274.283 254.43 274.383 254.331 274.499 254.255C274.615 254.178 274.745 254.125 274.882 254.099C275.018 254.073 275.159 254.074 275.295 254.102C275.431 254.131 275.56 254.186 275.675 254.264C278.038 255.882 280.317 257.621 282.504 259.472C282.67 259.613 282.788 259.802 282.844 260.013C282.9 260.224 282.89 260.447 282.815 260.652C282.741 260.857 282.606 261.034 282.428 261.159C282.25 261.284 282.039 261.351 281.822 261.351Z" fill="#565A5C"/>
<path d="M117.081 258.926C116.96 258.926 116.839 258.905 116.724 258.863C114.109 257.917 111.44 257.131 108.731 256.511C108.457 256.449 108.22 256.279 108.07 256.041C107.92 255.802 107.871 255.513 107.933 255.237C107.994 254.962 108.162 254.722 108.4 254.572C108.637 254.421 108.924 254.371 109.197 254.433C111.99 255.073 114.742 255.883 117.438 256.858C117.673 256.942 117.871 257.107 117.996 257.324C118.122 257.541 118.168 257.796 118.125 258.043C118.082 258.291 117.954 258.515 117.763 258.676C117.572 258.838 117.331 258.926 117.081 258.926Z" fill="#565A5C"/>
<path d="M179.661 257.935C179.427 257.935 179.2 257.858 179.015 257.714C178.83 257.571 178.697 257.37 178.638 257.142C178.578 256.915 178.595 256.674 178.685 256.457C178.776 256.24 178.935 256.06 179.139 255.944C181.656 254.509 184.183 253.146 186.647 251.898C186.896 251.781 187.181 251.766 187.441 251.857C187.7 251.947 187.915 252.136 188.038 252.383C188.162 252.63 188.186 252.916 188.104 253.18C188.022 253.445 187.841 253.666 187.599 253.798C185.167 255.036 182.666 256.383 180.178 257.801C180.02 257.889 179.842 257.936 179.661 257.935Z" fill="#565A5C"/>
<path d="M75.4795 257.599C75.2263 257.593 74.9835 257.496 74.7953 257.325C74.6071 257.155 74.4859 256.922 74.4539 256.669C74.4219 256.416 74.4811 256.16 74.6208 255.947C74.7605 255.734 74.9714 255.579 75.2151 255.509C78.0642 254.749 80.8826 254.139 83.592 253.699C83.7292 253.677 83.8693 253.682 84.0046 253.714C84.1398 253.746 84.2674 253.805 84.38 253.887C84.4927 253.969 84.5883 254.072 84.6613 254.191C84.7343 254.31 84.7834 254.442 84.8056 254.58C84.8278 254.718 84.8228 254.86 84.7908 254.996C84.7589 255.132 84.7006 255.26 84.6193 255.374C84.5381 255.487 84.4354 255.584 84.3172 255.657C84.199 255.731 84.0676 255.78 83.9304 255.802C81.2866 256.234 78.5369 256.83 75.7566 257.572C75.6658 257.593 75.5727 257.602 75.4795 257.599Z" fill="#565A5C"/>
<path d="M100.621 255.183C100.586 255.185 100.55 255.185 100.515 255.183C99.2195 255.058 97.9145 254.97 96.6338 254.924C95.1659 254.872 93.6885 254.877 92.21 254.935C91.9295 254.947 91.6561 254.845 91.45 254.653C91.2438 254.462 91.1218 254.195 91.1107 253.913C91.0996 253.63 91.2004 253.355 91.3909 253.147C91.5814 252.94 91.846 252.817 92.1265 252.806C93.6578 252.743 95.1856 252.739 96.7099 252.794C98.0319 252.842 99.3802 252.933 100.717 253.061C100.981 253.094 101.224 253.226 101.396 253.431C101.568 253.636 101.656 253.899 101.644 254.167C101.632 254.435 101.52 254.688 101.33 254.877C101.14 255.065 100.887 255.174 100.621 255.183Z" fill="#565A5C"/>
<path d="M321.096 254.461C320.873 254.461 320.656 254.39 320.475 254.259C320.294 254.127 320.159 253.941 320.09 253.728C320.02 253.514 320.02 253.284 320.088 253.07C320.156 252.856 320.29 252.669 320.47 252.537C322.757 250.852 325.151 249.246 327.587 247.764C327.706 247.689 327.838 247.638 327.977 247.615C328.115 247.592 328.257 247.597 328.394 247.629C328.53 247.662 328.659 247.721 328.773 247.805C328.886 247.888 328.982 247.993 329.055 248.114C329.128 248.235 329.176 248.37 329.196 248.51C329.217 248.649 329.209 248.792 329.175 248.929C329.14 249.066 329.078 249.195 328.994 249.308C328.909 249.42 328.803 249.515 328.681 249.586C326.298 251.037 323.955 252.608 321.719 254.255C321.539 254.389 321.321 254.461 321.096 254.461Z" fill="#565A5C"/>
<path d="M267.857 251.782C267.681 251.783 267.507 251.738 267.353 251.652C264.935 250.329 262.404 249.097 259.83 247.998C259.572 247.888 259.368 247.679 259.262 247.417C259.157 247.155 259.16 246.862 259.269 246.602C259.379 246.341 259.586 246.136 259.846 246.03C260.107 245.924 260.398 245.926 260.656 246.037C263.294 247.165 265.886 248.425 268.362 249.783C268.569 249.896 268.732 250.075 268.826 250.292C268.92 250.509 268.939 250.751 268.881 250.98C268.823 251.209 268.691 251.413 268.506 251.558C268.32 251.703 268.092 251.782 267.857 251.782Z" fill="#565A5C"/>
<path d="M194.783 250.279C194.541 250.278 194.305 250.194 194.117 250.04C193.929 249.885 193.799 249.671 193.749 249.431C193.7 249.192 193.733 248.943 193.845 248.726C193.956 248.508 194.138 248.336 194.36 248.238C197.025 247.067 199.691 245.994 202.286 245.044C202.416 244.996 202.555 244.975 202.694 244.982C202.832 244.988 202.968 245.022 203.094 245.081C203.22 245.141 203.333 245.224 203.426 245.328C203.52 245.431 203.593 245.552 203.64 245.683C203.687 245.815 203.708 245.954 203.702 246.094C203.695 246.234 203.662 246.371 203.603 246.497C203.544 246.624 203.461 246.738 203.358 246.832C203.255 246.926 203.135 246.999 203.005 247.047C200.454 247.976 197.83 249.033 195.207 250.185C195.074 250.246 194.93 250.278 194.783 250.279Z" fill="#565A5C"/>
<path d="M335.553 245.648C335.313 245.649 335.08 245.569 334.891 245.419C334.703 245.27 334.57 245.06 334.516 244.825C334.461 244.589 334.488 244.342 334.591 244.124C334.695 243.906 334.869 243.73 335.085 243.624C336.359 242.991 337.666 242.375 338.972 241.794C339.229 241.68 339.52 241.673 339.782 241.775C340.043 241.877 340.254 242.079 340.368 242.338C340.481 242.596 340.488 242.889 340.387 243.153C340.286 243.416 340.084 243.628 339.828 243.743C338.549 244.311 337.269 244.914 336.021 245.534C335.876 245.607 335.716 245.646 335.553 245.648Z" fill="#565A5C"/>
<path d="M252.318 245.116C252.21 245.115 252.104 245.098 252.001 245.065C249.38 244.22 246.667 243.475 243.932 242.85C243.796 242.819 243.668 242.761 243.555 242.681C243.441 242.6 243.345 242.497 243.271 242.379C243.197 242.261 243.147 242.129 243.123 241.991C243.1 241.853 243.104 241.712 243.134 241.575C243.165 241.439 243.222 241.31 243.303 241.196C243.383 241.082 243.485 240.985 243.602 240.91C243.72 240.835 243.851 240.785 243.988 240.761C244.125 240.738 244.265 240.742 244.4 240.773C247.194 241.411 249.968 242.174 252.649 243.037C252.89 243.115 253.095 243.277 253.227 243.494C253.359 243.711 253.41 243.968 253.37 244.22C253.33 244.471 253.202 244.699 253.009 244.864C252.816 245.028 252.571 245.118 252.318 245.116Z" fill="#565A5C"/>
<path d="M210.706 244.517C210.45 244.517 210.203 244.423 210.01 244.254C209.817 244.084 209.692 243.85 209.658 243.595C209.623 243.34 209.682 243.08 209.823 242.865C209.964 242.65 210.178 242.494 210.424 242.425C213.25 241.639 216.057 240.991 218.767 240.509C219.044 240.459 219.328 240.522 219.558 240.683C219.788 240.845 219.945 241.092 219.995 241.37C220.044 241.648 219.982 241.934 219.821 242.166C219.661 242.398 219.416 242.556 219.14 242.605C216.496 243.081 213.752 243.714 210.989 244.484C210.897 244.507 210.801 244.519 210.706 244.517Z" fill="#565A5C"/>
<path d="M235.807 241.601H235.73C232.963 241.406 230.187 241.399 227.42 241.58C227.141 241.595 226.867 241.5 226.657 241.313C226.447 241.127 226.318 240.866 226.297 240.585C226.288 240.445 226.307 240.305 226.352 240.173C226.397 240.04 226.467 239.918 226.559 239.813C226.651 239.708 226.762 239.622 226.887 239.561C227.012 239.499 227.147 239.463 227.286 239.454C230.149 239.265 233.021 239.272 235.883 239.476C236.151 239.503 236.399 239.631 236.576 239.835C236.754 240.039 236.847 240.304 236.837 240.575C236.828 240.846 236.716 241.103 236.524 241.293C236.333 241.484 236.076 241.594 235.807 241.601Z" fill="#565A5C"/>
</g>
<defs>
<clipPath id="clip0_337_1769">
<rect width="441" height="115" fill="white" transform="translate(29 165)"/>
</clipPath>
</defs>
</svg>
