<svg width="18" height="18" viewBox="0 0 18 18" fill="none" xmlns="http://www.w3.org/2000/svg">
  <path d="M17.336 5.636C16.896 5.212 16.226 5 15.34 5h-2.992v1.686h-3.59l-.294 1.208c.245-.114.593-.229.832-.288.24-.06.479-.05.713-.05.794 0 1.441.245 1.936.724.495.479.74 1.088.74 1.817 0 .511-.125 1.006-.38 1.48a2.61 2.61 0 0 1-1.083 1.088 2.815 2.815 0 0 1-.555.223h3.041v-2.883h1.36c.99 0 1.724-.229 2.208-.68.484-.452.724-1.083.724-1.883 0-.777-.223-1.381-.664-1.806Zm-2.013 2.497c-.19.163-.522.24-.995.24h-.62V6.632h.718c.457 0 .772.082.935.256a.85.85 0 0 1 .25.625.776.776 0 0 1-.288.62Z" fill="#494C4E"/>
  <path d="M9.22 8.987c-.43 0-.8.25-.979.61l-2.149-.305L7.061 5H5.113v3.373h-2.72V5H0v7.888h2.393v-2.883h2.72v2.883h2.949c-.365-.11-.68-.25-.936-.441a2.642 2.642 0 0 1-.636-.67 3.275 3.275 0 0 1-.398-.897l2.155-.31c.18.36.549.604.973.604a1.093 1.093 0 0 0 0-2.187Z" fill="#494C4E"/>
</svg>
