<svg width="18" height="18" xmlns="http://www.w3.org/2000/svg" viewBox="0 0 18 18">
  <path fill="#494C4E" d="M9 2c3.9 0 7 3.1 7 7s-3.1 7-7 7-7-3.1-7-7 3.1-7 7-7m0-2C4 0 0 4 0 9s4 9 9 9 9-4 9-9-4-9-9-9z"/>
  <circle fill="#494C4E" cx="6.5" cy="7.5" r="1.5"/>
  <path fill="#494C4E" d="M6.5 6C5.7 6 5 6.7 5 7.5S5.7 9 6.5 9 8 8.3 8 7.5 7.3 6 6.5 6z"/>
  <circle fill="#494C4E" cx="11.5" cy="7.5" r="1.5"/>
  <path fill="#494C4E" d="M11.5 6c-.8 0-1.5.7-1.5 1.5S10.7 9 11.5 9 13 8.3 13 7.5 12.3 6 11.5 6zM14 11c0 1.6-2.8 3-5 3s-5-1.4-5-3c0-.8 2 1 5 1s5-1.8 5-1z"/>
</svg>
