<svg xmlns="http://www.w3.org/2000/svg" width="18" height="18" viewBox="0 0 18 18">
  <g fill="#494c4e">
    <path d="M9 18H1a1 1 0 01-1-1V1a1 1 0 011-1h16a.947.947 0 011 1v8a1 1 0 01-1 1h-2a4.947 4.947 0 00-5 5v2a1 1 0 01-1 1zm-3-4v2h2v-2zm-4 0v2h2v-2zm4-4v2h2v-2zm-4 0v2h2v-2zm12-4v2h2V6zm-4 0v2h2V6zM6 6v2h2V6zM2 6v2h2V6zm12-4v2h2V2zm-4 0v2h2V2zM6 2v2h2V2zM2 2v2h2V2z"/>
    <path d="M18 15a1 1 0 01-1 1h-4a1 1 0 01-1-1 1.075 1.075 0 011-1h4a.945.945 0 011 1z"/>
    <path d="M15 18a1 1 0 01-1-1v-4a1 1 0 011-1 1.075 1.075 0 011 1v4a.945.945 0 01-1 1z"/>
  </g>
</svg>
