<svg xmlns="http://www.w3.org/2000/svg" width="18" height="18" viewBox="0 0 18 18">
  <path d="M17.783 7.629L12.514 14.5a2.371 2.371 0 01.079.691 2.188 2.188 0 01-.02.23 2.616 2.616 0 01-.108.44 3.319 3.319 0 01-2.644 1.922A7.1 7.1 0 018.228 18c-.688.01-1.789-.06-2.143-.791-.521-1.061 1.494-.16 1.868-2.262a2.332 2.332 0 011.16-1.9 1.47 1.47 0 01.128-.08 2.282 2.282 0 01.9-.23l6.167-6.429a.97.97 0 011.358-.058 1.014 1.014 0 01.116 1.379zM1 11a1.007 1.007 0 01-.41-.09.994.994 0 01-.5-1.32L4.07.629a.977.977 0 01.52-.541 1.011 1.011 0 01.52-.083 1 1 0 01.8.583l.02.041 3.98 8.96a.992.992 0 01-.5 1.32A1.015 1.015 0 019 11a1 1 0 01-.91-.589L7.46 9H2.54l-.63 1.41A.992.992 0 011 11zm4-7.541L3.43 7h3.14L5 3.459z" fill="#494c4e"/>
  <path d="M17.783 7.629L12.514 14.5a2.371 2.371 0 01.079.691 2.513 2.513 0 00-1.78-1.211c-1.313-.1-1.613-.991-1.572-1.016a2.282 2.282 0 01.9-.23l6.167-6.426a.97.97 0 011.358-.058 1.014 1.014 0 01.116 1.379z" fill="#494c4e"/>
</svg>
