<svg width="30" height="30" viewBox="0 0 30 30" xmlns="http://www.w3.org/2000/svg">
  <path fill-rule="evenodd" clip-rule="evenodd" d="M15 30c8.284 0 15-6.716 15-15 0-8.284-6.716-15-15-15C6.716 0 0 6.716 0 15c0 8.284 6.716 15 15 15Zm0-3.333c6.443 0 11.667-5.224 11.667-11.667S21.443 3.333 15 3.333 3.333 8.557 3.333 15 8.557 26.667 15 26.667Z" fill="#494c4e"/>
  <path d="M17.5 7.917a2.5 2.5 0 1 1-5 0 2.5 2.5 0 0 1 5 0Z" fill="#494c4e"/>
  <path d="M21.924 12.011c.184-.114.392-.188.573-.306a.928.928 0 0 0-.317-1.685.873.873 0 0 0-.377.023c-.953.22-5.322 1.207-6.803 1.207-1.481 0-5.85-.988-6.803-1.207a.873.873 0 0 0-.377-.023.929.929 0 0 0-.35 1.662c.197.142.43.23.633.361 1.395.903 4.408 2.082 3.985 3.77l-1.796 6.644a1.065 1.065 0 0 0 1.896.928L15 18.333l2.812 5.052a1.065 1.065 0 0 0 1.896-.928l-1.796-6.644c-.385-1.539 2.713-3.002 4.012-3.802Z" fill="#494c4e"/>
</svg>
