<svg xmlns="http://www.w3.org/2000/svg" width="30" height="30" fill="none" viewBox="0 0 30 30">
  <path fill="#202122" fill-rule="evenodd" d="M7.72 1.794a.75.75 0 0 0-1.443 0c-.281.985-.48 1.677-.682 2.202-.198.516-.377.807-.585 1.015-.208.209-.5.388-1.015.586-.525.202-1.216.4-2.201.682a.75.75 0 0 0 0 1.442c.985.282 1.676.48 2.202.682.515.198.806.377 1.015.586.208.208.387.5.586 1.015.203.526.402 1.217.684 2.203a.75.75 0 0 0 1.442-.002c.28-.985.478-1.676.68-2.202.198-.515.376-.806.584-1.014.208-.209.5-.387 1.015-.586.526-.202 1.218-.4 2.204-.682a.75.75 0 0 0 0-1.442c-.986-.282-1.678-.48-2.204-.682-.516-.199-.807-.377-1.015-.586-.209-.208-.388-.499-.586-1.015-.202-.525-.4-1.217-.682-2.202Zm-3.186 5.21L4.526 7l.008-.003c.613-.236 1.12-.508 1.537-.925.416-.417.689-.924.924-1.537l.003-.008.003.008c.236.613.508 1.12.925 1.537.417.417.925.69 1.538.925L9.472 7l-.008.003c-.613.236-1.12.508-1.538.925-.416.417-.688.925-.924 1.538L7 9.473l-.003-.008c-.236-.613-.51-1.12-.926-1.537-.417-.417-.924-.69-1.537-.925ZM19 5a1 1 0 0 1 .928.629c1.32 3.3 1.888 4.665 2.833 5.61.945.945 2.31 1.512 5.61 2.832a1 1 0 0 1 0 1.857c-3.3 1.32-4.665 1.888-5.61 2.833-.945.945-1.512 2.31-2.832 5.61a1 1 0 0 1-1.857 0c-1.32-3.3-1.888-4.665-2.833-5.61-.945-.945-2.31-1.512-5.61-2.832a1 1 0 0 1 0-1.857c3.3-1.32 4.665-1.888 5.61-2.833.945-.945 1.512-2.31 2.832-5.61A1 1 0 0 1 19 5Zm-6.338 10c1.807.759 3.043 1.398 3.992 2.346.948.95 1.587 2.185 2.346 3.992.759-1.807 1.398-3.043 2.346-3.992.95-.948 2.185-1.587 3.992-2.346-1.807-.759-3.043-1.398-3.992-2.347-.948-.948-1.587-2.184-2.346-3.99-.759 1.806-1.398 3.042-2.346 3.99-.95.95-2.185 1.588-3.992 2.347ZM9.5 20.5a.5.5 0 0 1 .485.379c.177.709.303 1.207.435 1.585.13.37.252.576.396.72.144.144.35.265.72.396.378.133.876.258 1.585.435a.5.5 0 0 1 0 .97c-.709.177-1.207.303-1.585.435-.37.13-.576.252-.72.396-.144.144-.266.35-.396.72-.133.378-.258.876-.435 1.585a.5.5 0 0 1-.97 0c-.177-.709-.302-1.207-.435-1.585-.13-.37-.252-.576-.396-.72-.144-.144-.35-.265-.72-.396-.378-.133-.876-.258-1.585-.435a.5.5 0 0 1 0-.97c.709-.177 1.207-.303 1.585-.435.37-.13.576-.252.72-.396.144-.144.266-.35.396-.72.133-.378.258-.876.435-1.585A.5.5 0 0 1 9.5 20.5Zm-1.64 4c.41.15.752.33 1.031.609.28.279.46.621.609 1.03.15-.409.33-.751.609-1.03.279-.28.621-.46 1.03-.609-.409-.15-.751-.33-1.03-.609-.28-.279-.46-.621-.609-1.03-.15.409-.33.751-.609 1.03-.279.28-.621.46-1.03.609Z" clip-rule="evenodd"/>
</svg>
