<svg width="30" height="30" xmlns="http://www.w3.org/2000/svg" viewBox="0 0 30 30">
  <path fill="#494c4e" d="M13.7 12.3l-3-3L5 3.5v-1c0-.1-.1-.3-.2-.4l-2-2C2.7 0 2.5 0 2.3 0c-.2.1-.3.3-.3.5V2H.5c-.2 0-.4.1-.5.3 0 .2 0 .4.1.5l1.3 1.3.7.7c.2.1.3.2.4.2h1l5.8 5.7 3 3c.2.2.5.3.7.3s.5-.1.7-.3c.4-.4.4-1 0-1.4z"/>
  <path fill="#494c4e" d="M15 0c-3 0-5.7.9-8 2.3V2.6l1.2 1.2C10.2 2.7 12.5 2 15 2c7.2 0 13 5.8 13 13s-5.8 13-13 13S2 22.2 2 15c0-2.5.7-4.8 1.9-6.8L2.7 7h-.2-.1C.9 9.3 0 12 0 15c0 8.3 6.7 15 15 15s15-6.7 15-15S23.3 0 15 0z"/>
  <path fill="#494c4e" d="M15 6c5 0 9 4 9 9s-4 9-9 9-9-4-9-9c0-1.4.3-2.7.9-3.9L5.4 9.7C4.5 11.2 4 13.1 4 15c0 6.1 4.9 11 11 11s11-4.9 11-11S21.1 4 15 4c-1.9 0-3.8.5-5.3 1.4l1.5 1.5c1.1-.6 2.4-.9 3.8-.9z"/>
  <path fill="#494c4e" d="M15 22c3.9 0 7-3.1 7-7s-3.1-7-7-7c-.8 0-1.6.1-2.3.4l1.7 1.7c.2 0 .5-.1.7-.1 2.8 0 5 2.2 5 5s-2.2 5-5 5-5-2.2-5-5c0-.2 0-.5.1-.7l-1.7-1.7c-.4.8-.5 1.6-.5 2.4 0 3.9 3.1 7 7 7z"/>
  <path fill="#494c4e" d="M15.7 14.3c.2.2.3.4.3.7 0 .6-.4 1-1 1-.3 0-.5-.1-.7-.3-.4.2-.8.3-1.3.3-.3 0-.6-.1-.9-.1.4 1.2 1.5 2.1 2.9 2.1 1.7 0 3-1.3 3-3 0-1.4-.9-2.5-2.1-2.9.2.7.1 1.5-.2 2.2z"/>
</svg>
