<svg width="30" height="30" xmlns="http://www.w3.org/2000/svg" viewBox="0 0 30 30">
  <path fill="#494c4e" d="M23.6 11.2c-.4-.4-1-.6-1.6-.6h-8c-1.1 0-1.9.8-1.9 1.9v15.6c0 1.1.9 1.9 1.9 1.9h11.6c1.1 0 1.9-.8 1.9-1.9V15.8c0-.6-.3-1.2-.7-1.6l-3.2-3zm1.7 4.2h-3v-2.8h.1l2.9 2.8zM14.1 28V12.6h6.2v3.3h-3.8c-.3 0-.5.2-.5.5s.2.6.5.6h4.4c.3.3.8.5 1.3.5h3.3V28H14.1z"/>
  <path fill="#494c4e" d="M23.3 18.8h-6.8c-.3 0-.5.2-.5.5s.2.5.5.5h6.8c.3 0 .5-.2.5-.5s-.3-.5-.5-.5zM23.3 21.7h-6.8c-.3 0-.5.2-.5.5s.2.5.5.5h6.8c.3 0 .5-.2.5-.5s-.3-.5-.5-.5zM21.3 24.6h-4.8c-.3 0-.5.2-.5.5s.2.5.5.5h4.9c.3 0 .5-.2.5-.5s-.3-.5-.6-.5zM9.3 17.4H4.5V2h6.2v3.3H6.9c-.3 0-.5.2-.5.5s.2.5.5.5h4.4c.3.3.8.5 1.2.5h3.4v1.4c0 .5.4 1 1 1s1-.4 1-1v-3c0-.6-.3-1.2-.7-1.6L14 .7c-.4-.5-1-.7-1.6-.7h-8c-1 0-1.9.8-1.9 1.9v15.6c0 1.1.9 1.9 1.9 1.9h4.9c.6 0 1-.4 1-1s-.4-1-1-1zm6.4-12.6h-3V2.1h.1l2.9 2.7z"/>
  <path fill="#494c4e" d="M6.9 8.2c-.3 0-.5.2-.5.5s.2.5.5.5h6.8c.3 0 .5-.2.5-.5s-.2-.5-.5-.5H6.9zM9.8 11.1H6.9c-.3 0-.5.2-.5.5s.2.5.5.5h2.9c.3 0 .5-.2.5-.5s-.2-.5-.5-.5zM9.8 14H6.9c-.3 0-.5.2-.5.5s.2.5.5.5h2.9c.3 0 .5-.2.5-.5s-.2-.5-.5-.5z"/>
</svg>
