<svg width="30" height="30" xmlns="http://www.w3.org/2000/svg" viewBox="0 0 25 30">
		<path fill="#494c4e" d="M21.1,11.2c-0.4-0.4-1-0.6-1.6-0.6h-0.8h-7.2c-1.1,0-1.9,0.8-1.9,1.9v15.6c0,1.1,0.9,1.9,1.9,1.9h11.6
			c1.1,0,1.9-0.8,1.9-1.9V15.8c0-0.6-0.3-1.2-0.7-1.6L21.1,11.2z M22.8,15.4h-3v-2.8c0,0,0,0,0.1,0L22.8,15.4z M11.6,28V12.6h6.2
			v2.9c0,0.1,0,0.3,0,0.4H14c-0.3,0-0.5,0.2-0.5,0.5S13.7,17,14,17h4.4c0.3,0.3,0.8,0.5,1.3,0.5H23V28H11.6z"/>
		<path fill="#494c4e" d="M20.8,18.8H14c-0.3,0-0.5,0.2-0.5,0.5s0.2,0.5,0.5,0.5h6.8c0.3,0,0.5-0.2,0.5-0.5S21,18.8,20.8,18.8z"/>
		<path fill="#494c4e" d="M20.8,21.7H14c-0.3,0-0.5,0.2-0.5,0.5s0.2,0.5,0.5,0.5h6.8c0.3,0,0.5-0.2,0.5-0.5S21,21.7,20.8,21.7z"/>
		<path fill="#494c4e" d="M18.8,24.6H14c-0.3,0-0.5,0.2-0.5,0.5s0.2,0.5,0.5,0.5h4.9c0.3,0,0.5-0.2,0.5-0.5S19.1,24.6,18.8,24.6z"/>
		<path fill="#494c4e" d="M6.8,17.4H2V2h6.2v2.9c0,0.1,0,0.3,0,0.4H4.4c-0.3,0-0.5,0.2-0.5,0.5s0.2,0.5,0.5,0.5h4.4	C9.1,6.6,9.6,6.8,10,6.8h3.4v1.4c0,0.5,0.4,1,1,1s1-0.4,1-1V5.2c0-0.6-0.3-1.2-0.7-1.6l-3.2-2.9C11.1,0.2,10.5,0,9.9,0h-8 C0.9,0,0,0.8,0,1.9v15.6c0,1.1,0.9,1.9,1.9,1.9h4.9c0.6,0,1-0.4,1-1S7.4,17.4,6.8,17.4L6.8,17.4z M13.2,4.8h-3V2.1c0,0,0,0,0.1,0 L13.2,4.8z"/>
		<path fill="#494c4e" d="M4.4,8.2c-0.3,0-0.5,0.2-0.5,0.5s0.2,0.5,0.5,0.5h6.8c0.3,0,0.5-0.2,0.5-0.5s-0.2-0.5-0.5-0.5H4.4z"/>
		<path fill="#494c4e" d="M7.3,11.1H4.4c-0.3,0-0.5,0.2-0.5,0.5s0.2,0.5,0.5,0.5h2.9c0.3,0,0.5-0.2,0.5-0.5S7.6,11.1,7.3,11.1z"/>
		<path fill="#494c4e" d="M7.3,14H4.4c-0.3,0-0.5,0.2-0.5,0.5S4.1,15,4.4,15h2.9c0.3,0,0.5-0.2,0.5-0.5S7.6,14,7.3,14z"/>
</svg>
