<svg width="30" height="30" xmlns="http://www.w3.org/2000/svg" viewBox="0 0 30 30" mirror-in-rtl="true">
  <path fill="#565A5C" d="M12.738 29.58a14.692 14.692 0 0 1-2.054-.473.75.75 0 1 1 .44-1.434c.604.185 1.22.327 1.844.424a.75.75 0 0 1-.23 1.482zm-5.255-1.89a14.832 14.832 0 0 1-1.732-1.199.75.75 0 0 1 .94-1.17c.493.397 1.013.757 1.557 1.08a.75.75 0 0 1-.765 1.29zM3.33 24.027a14.65 14.65 0 0 1-1.168-1.755.75.75 0 0 1 1.306-.74c.311.551.661 1.078 1.048 1.576a.75.75 0 1 1-1.186.919zM.8 18.996a14.984 14.984 0 0 1-.426-2.073.75.75 0 0 1 1.487-.197 13.489 13.489 0 0 0 .384 1.865.75.75 0 1 1-1.445.406zm-.47-5.564c.075-.7.2-1.393.374-2.074a.75.75 0 1 1 1.453.372 13.167 13.167 0 0 0-.336 1.861.75.75 0 1 1-1.491-.159zm1.637-5.338c.33-.621.703-1.218 1.117-1.786a.75.75 0 0 1 1.212.883 13.398 13.398 0 0 0-1.004 1.606.75.75 0 1 1-1.325-.703zm3.468-4.325a14.668 14.668 0 0 1 1.698-1.25.75.75 0 0 1 .8 1.27c-.535.337-1.044.712-1.524 1.121a.75.75 0 1 1-.974-1.141zm4.9-2.762a14.921 14.921 0 0 1 2.063-.525.75.75 0 1 1 .266 1.476 13.72 13.72 0 0 0-1.856.473.75.75 0 0 1-.473-1.424zm5.595.991a1 1 0 1 1 .14-1.996C23.896.556 30 7.097 30 15s-6.105 14.444-13.93 14.998a1 1 0 0 1-.14-1.996C22.707 27.522 28 21.852 28 15c0-6.853-5.292-12.523-12.07-13.002z"/>
</svg>
