<svg height="30" width="30" xmlns="http://www.w3.org/2000/svg" viewBox="0 0 30 30">
  <path fill="#494c4e" d="M24,18a2,2,0,1,1,2-2A2,2,0,0,1,24,18Zm4.94-3.32a1.642,1.642,0,0,0-.83-1.05,1.709,1.709,0,0,0-.49-1.25,1.664,1.664,0,0,0-1.25-.49,1.677,1.677,0,0,0-2.37-.63,1.677,1.677,0,0,0-2.37.63,1.664,1.664,0,0,0-1.25.49,1.709,1.709,0,0,0-.49,1.25,1.677,1.677,0,0,0-.63,2.37,1.677,1.677,0,0,0,.63,2.37,1.71,1.71,0,0,0,.49,1.25,1.63,1.63,0,0,0,1.25.49,1.388,1.388,0,0,0,.37.46v8.15a.263.263,0,0,0,.07.19.214.214,0,0,0,.18.09.236.236,0,0,0,.17-.07l.01-.01L24,27.5l1.58,1.43a.236.236,0,0,0,.17.07.214.214,0,0,0,.18-.09.263.263,0,0,0,.07-.19v-8.15a1.388,1.388,0,0,0,.37-.46,1.63,1.63,0,0,0,1.25-.49,1.71,1.71,0,0,0,.49-1.25,1.677,1.677,0,0,0,.63-2.37A1.642,1.642,0,0,0,28.936,14.676Z"/>
  <path fill="none" d="M16,2H4A2.006,2.006,0,0,0,2,4V22a2.006,2.006,0,0,0,2,2V8A4,4,0,0,1,8,4H18A2,2,0,0,0,16,2Z"/>
  <path fill="#494c4e" d="M8.443,16h8.114a.5.5,0,0,0,0-1H8.443a.5.5,0,0,0,0,1Z"/>
  <path fill="#494c4e" d="M8.443,19h8.114a.5.5,0,0,0,0-1H8.443a.5.5,0,0,0,0,1Z"/>
  <path fill="#494c4e" d="M19.468,21H8.531a.5.5,0,1,0,0,1H19.469a.5.5,0,1,0,0-1Z"/>
  <path fill="#494c4e" d="M8.443,13h9.114a.5.5,0,0,0,0-1H8.443a.5.5,0,0,0,0,1Z"/>
  <path fill="#494c4e" d="M8.531,10H19.557a.5.5,0,0,0,0-1H8.531a.5.5,0,1,0,0,1Z"/>
  <path fill="#494c4e" d="M19.468,24H8.531a.5.5,0,1,0,0,1H19.469a.5.5,0,1,0,0-1Z"/>
  <path fill="#494c4e" d="M20,4a4,4,0,0,0-4-4H4A4,4,0,0,0,0,4V22a4,4,0,0,0,4,4,4,4,0,0,0,4,4H19a1,1,0,0,0,0-2H8a2.006,2.006,0,0,1-2-2V8A2.006,2.006,0,0,1,8,6H20a2.015,2.015,0,0,1,2,2,1,1,0,0,0,2,0A4,4,0,0,0,20,4ZM8,4A4,4,0,0,0,4,8V24a2.006,2.006,0,0,1-2-2V4A2.006,2.006,0,0,1,4,2H16a2.006,2.006,0,0,1,2,2Z"/>
</svg>
