<svg width="30" height="30" xmlns="http://www.w3.org/2000/svg" viewBox="0 0 30 26">
	<path fill="#494c4e" d="M29,12.28a.993.993,0,0,0-1,.986v9.49c0,.689-.806,1.272-1.759,1.272H3.759C2.806,24.028,2,23.445,2,22.756V12.977a.993.993,0,0,0-1-.986.993.993,0,0,0-1,.986v9.779A3.534,3.534,0,0,0,3.759,26H26.241A3.534,3.534,0,0,0,30,22.756v-9.49A.993.993,0,0,0,29,12.28Z"/>
	<path fill="#494c4e" d="M10.119,19.124a1.653,1.653,0,0,0,1.4.765,1.741,1.741,0,0,0,.32-.03,1.62,1.62,0,0,0,1.309-1.292,10.8,10.8,0,0,1,4.717-7.177l2.559,2.863a1.664,1.664,0,0,0,1.817.453,1.639,1.639,0,0,0,1.08-1.559l-.362-9.889a1.618,1.618,0,0,0-1.42-1.638l-10-1.61A1.654,1.654,0,0,0,9.884.877a1.6,1.6,0,0,0,.225,1.835l2.411,2.7C8.19,9.249,7.242,14.6,10.119,19.124ZM14.25,4.362l-2-2.24,8.721,1.4.319,8.71L19.179,9.877a1.673,1.673,0,0,0-2.071-.341,12.43,12.43,0,0,0-5.729,7.78c-1.811-3.57-.8-7.661,2.7-10.63a1.661,1.661,0,0,0,.582-1.14A1.6,1.6,0,0,0,14.25,4.362Z"/>
</svg>