<svg width="30" height="30" xmlns="http://www.w3.org/2000/svg" viewBox="0 0 30 30">
  <path fill="#494c4e" d="M29 14.28a.993.993 0 0 0-1 .986v9.49c0 .689-.806 1.272-1.759 1.272H3.759c-.953 0-1.759-.583-1.759-1.272v-9.779a.993.993 0 0 0-1-.986.993.993 0 0 0-1 .986v9.779A3.534 3.534 0 0 0 3.759 28h22.482A3.534 3.534 0 0 0 30 24.756v-9.49a.993.993 0 0 0-1-.986z"/>
  <path fill="#494c4e" d="M10.119 21.124a1.653 1.653 0 0 0 1.4.765 1.741 1.741 0 0 0 .32-.03 1.62 1.62 0 0 0 1.309-1.292 10.8 10.8 0 0 1 4.717-7.177l2.559 2.863a1.664 1.664 0 0 0 1.817.453 1.639 1.639 0 0 0 1.08-1.559l-.362-9.889a1.618 1.618 0 0 0-1.42-1.638l-10-1.61a1.654 1.654 0 0 0-1.655.867 1.6 1.6 0 0 0 .225 1.835l2.411 2.7c-4.33 3.837-5.278 9.188-2.401 13.712zM14.25 6.362l-2-2.24 8.721 1.4.319 8.71-2.111-2.355a1.673 1.673 0 0 0-2.071-.341 12.43 12.43 0 0 0-5.729 7.78c-1.811-3.57-.8-7.661 2.7-10.63a1.661 1.661 0 0 0 .582-1.14 1.6 1.6 0 0 0-.411-1.184z"/>
</svg>
