<svg width="30" height="30" viewBox="0 0 30 30" xmlns="http://www.w3.org/2000/svg">
  <g fill="#494c4e" fill-rule="evenodd">
    <path d="M6 14a1 1 0 011 1v2h2v-2a1 1 0 011-1h3a1 1 0 011 1v2h2v-2a1 1 0 011-1h3a1 1 0 011 1v2h2v-2a1 1 0 011-1h3a1 1 0 011 1v2.2a3 3 0 012 2.8v9a1 1 0 01-1 1H1a1 1 0 01-1-1v-9a3 3 0 012-2.8V15a1 1 0 011-1h3zm22 10H2v4h26v-4zm-1-5H3a1 1 0 00-1 .9V23h26v-3a1 1 0 00-.9-1H27zm-1-3h-1v1h1v-1zm-7 0h-1v1h1v-1zm-7 0h-1v1h1v-1zm-7 0H4v1h1v-1z" fill-rule="nonzero"/>
    <path d="M18.9.1l1.9.5a1 1 0 01.7 1.2l-.5 2 2.9.8.5-2a1 1 0 011.2-.7l2 .5a1 1 0 01.7 1.3l-.6 1.9.5.1a2 2 0 011.4 2.5l-1 3.8a1 1 0 01-1.2.7L13.9 9.1a1 1 0 01-.7-1.2l1-3.9a2 2 0 012.4-1.4l.5.1.5-1.9A1 1 0 0119 .1z"/>
  </g>
</svg>