<svg height="30" width="30" xmlns="http://www.w3.org/2000/svg" viewBox="0 0 30 30">
  <path fill="#494c4e" d="M30,16H0V2.812A2.883,2.883,0,0,1,2.942,0H27.058A2.883,2.883,0,0,1,30,2.812ZM2,14H28V2.812A.885.885,0,0,0,27.058,2H2.942A.885.885,0,0,0,2,2.812Z"/>
  <path fill="#494c4e" d="M27.058,30H2.942A3.207,3.207,0,0,1,0,26.588V18H30v8.588A3.207,3.207,0,0,1,27.058,30ZM2,20v6.588C2,27.34,2.44,28,2.942,28H27.058c.5,0,.942-.66.942-1.412V20Z"/>
  <path fill="#494c4e" d="M24.009,8.01a2,2,0,1,1,2-2A2.005,2.005,0,0,1,24.009,8.01Zm0-3a1,1,0,1,0,1,1A1,1,0,0,0,24.009,5.005Z"/>
  <path fill="#494c4e" d="M6.572,26.005H5.444a1.441,1.441,0,0,1-1.439-1.44V23.438A1.441,1.441,0,0,1,5.444,22H6.572a1.441,1.441,0,0,1,1.44,1.439v1.127A1.442,1.442,0,0,1,6.572,26.005ZM5.444,23a.44.44,0,0,0-.439.439v1.127a.44.44,0,0,0,.439.44H6.572a.441.441,0,0,0,.44-.44V23.438A.44.44,0,0,0,6.572,23Z"/>
  <path fill="#494c4e" d="M24.036,26.009,11.941,26a1.95,1.95,0,0,1-1.948-1.948v-.11A1.95,1.95,0,0,1,11.941,22l12.1.006a1.95,1.95,0,0,1,1.948,1.948v.11A1.95,1.95,0,0,1,24.036,26.009ZM11.941,23a.95.95,0,0,0-.948.948v.11a.95.95,0,0,0,.948.948l12.1.006a.949.949,0,0,0,.948-.948v-.11A.949.949,0,0,0,24.036,23Z"/>
  <path fill="#494c4e" d="M23.852,12H6a2.128,2.128,0,0,1-1.622-.862,1.712,1.712,0,0,1-.317-1.506,4.762,4.762,0,0,1,.322-.768c.047-.095.093-.19.135-.283q.161-.366.346-.724C5,7.6,5.146,7.349,5.3,7.1c.062-.106.124-.218.186-.332a5.389,5.389,0,0,1,.525-.836c.863-1.066,1.744-.584,2.521-.161.143.078.295.161.459.244l1.02.6c.328-.312.922-.949,1.034-1.085A9.427,9.427,0,0,1,12.213,4.3a.989.989,0,0,1,1.367.027,7.512,7.512,0,0,1,.928,1.118c.426.621.988,1.388,1.468,2.025.373-.411.754-.812,1.106-1.164.241-.241.425-.414.567-.533a.854.854,0,0,1,1.125,0,10.776,10.776,0,0,1,1.12,1.15c.119.134.226.254.311.345.2.212.59.667.915,1.043.224.258.414.479.479.548l.03.031a2.531,2.531,0,0,0,.542.1c.376.01.717.015,1.067.011S23.847,9,24.1,9h.173a1.67,1.67,0,0,1,1.306.394,1.472,1.472,0,0,1,.4.757,1.441,1.441,0,0,1-.066.84,1.565,1.565,0,0,1-.968.858A3.448,3.448,0,0,1,23.852,12ZM7.186,6.282c-.155,0-.254.095-.4.278a4.7,4.7,0,0,0-.425.686c-.067.124-.134.247-.2.363-.139.236-.277.472-.4.713-.114.219-.22.443-.32.668-.047.105-.1.209-.15.316a3.89,3.89,0,0,0-.26.607.737.737,0,0,0,.157.626A1.13,1.13,0,0,0,6,11H23.852a2.494,2.494,0,0,0,.773-.1.593.593,0,0,0,.364-.287A.457.457,0,0,0,25,10.354a.5.5,0,0,0-.125-.249c-.1-.1-.267-.105-.591-.1h-.2c-.25,0-.5,0-.747,0-.463,0-.81,0-1.2-.01a2.75,2.75,0,0,1-.986-.238.829.829,0,0,1-.231-.151l-.051-.05c-.066-.069-.272-.307-.514-.588-.316-.366-.7-.808-.89-1.015-.09-.1-.2-.223-.328-.363a12.615,12.615,0,0,0-.931-.98c-.116.1-.255.237-.427.408-.466.466-.988,1.024-1.47,1.571a.5.5,0,0,1-.771-.027c-.54-.7-1.313-1.743-1.863-2.546a6.235,6.235,0,0,0-.774-.942c.012-.044-.019-.03-.076.014a8.281,8.281,0,0,0-1.023,1.076c-1.457,1.759-1.781,1.6-1.995,1.492L8.509,6.892c-.147-.074-.309-.162-.46-.245A2.305,2.305,0,0,0,7.186,6.282Z"/>
</svg>
