<svg width="30" height="30" viewBox="0 0 30 30" xmlns="http://www.w3.org/2000/svg">
    <path fill="#494c4e" d="M29.08 8l-.04-.03-.05-.03a2.324 2.324 0 00-1.28-.38h-.35l-.33.12-.92.33-1.16.4-2.92 1.03A3.991 3.991 0 0018.05 6H4.01A3.982 3.982 0 000 9.94v9.12A3.982 3.982 0 004.01 23h14.04a4 4 0 004-3.66l2.77 1.12 1.21.49.82.34.3.11.32.03h.22c.412.002.818-.102 1.18-.3l.03-.02.03-.02A2.228 2.228 0 0030 19.18V9.82A2.246 2.246 0 0029.08 8zm-9.02 8.38v2.68A2 2 0 0118.05 21H4.01A2 2 0 012 19.06V9.94A2 2 0 014.01 8h14.04a2 2 0 012.01 1.94v2.31l5.55-1.95a14.561 14.561 0 00-.61 4.2c0 1.39.192 2.773.57 4.11l-5.51-2.23zm7.94 2.8a.26.26 0 01-.1.2.365.365 0 01-.21.05h-.09l-.82-.33a14.012 14.012 0 01-.78-4.6c-.001-1.57.266-3.13.79-4.61l.92-.33a.354.354 0 01.17.04c.073.05.118.132.12.22v9.36z"/>
    <path fill="#494c4e" d="M8.5 19a.5.5 0 01-.5-.5v-8a.5.5 0 01.765-.424l6.4 4a.5.5 0 010 .848l-6.4 4A.5.5 0 018.5 19zm.5-7.6v6.2l4.957-3.1L9 11.4z"/>
</svg>
