<svg width="30" height="30" viewBox="0 0 30 30" xmlns="http://www.w3.org/2000/svg">
    <path fill="#494c4e" d="M11.978 28c-1.218 0-1.996-.59-1.996-1 0-.41.778-1 1.996-1s1.996.59 1.996 1c0 .41-.778 1-1.996 1zm2.053-3.6c-.998-.26-1.296-.4-2.025-.4C9.771 24 8 25.32 8 27s1.778 3 4.014 3c2.235 0 4.013-1.32 4.013-3V16h-1.996v8.4zM25.95 24c-1.217 0-1.995-.59-1.995-1 0-.41.778-1 1.996-1s1.996.59 1.996 1c0 .41-.778 1-1.996 1m3.88-21.13a1.476 1.476 0 00-1.971-.73l-7.84 3.632v3.3l7.984-3.692v2.11l-7.984 3.607v1.1l7.984-3.607V20.4c-.998-.26-1.296-.4-2.025-.4-2.235 0-4.006 1.32-4.006 3s1.778 3 4.014 3C28.222 26 30 24.68 30 23V3.44c0-.19-.078-.39-.168-.57M15 0H3C1.35 0 0 1.35 0 3v8c0 1.65 1.35 3 3 3h12c1.65 0 3-1.35 3-3V3c0-1.65-1.35-3-3-3m0 2c.542 0 1 .458 1 1v8c0 .542-.458 1-1 1H3c-.542 0-1-.458-1-1V3c0-.542.458-1 1-1h12"/>
    <path fill="#494c4e" d="M7 4a.999.999 0 00-1 1v4a1.001 1.001 0 001.371.929l5-2a1 1 0 000-1.857l-5-2A1 1 0 007.001 4m0 1l5 2-5 2V5"/>
</svg>
