<svg width="30" height="30" xmlns="http://www.w3.org/2000/svg" viewBox="0 0 30 30"><path fill="#565a5c" d="M18,17a1,1,0,1,1-1,1,1,1,0,0,1,1-1Zm0-1a2,2,0,1,0,2,2,2,2,0,0,0-2-2Z"/><path fill="#565a5c" d="M9,17a1,1,0,0,1,1,1v2h2a1,1,0,0,1,0,2H10v2a1,1,0,0,1-2,0V22H6a1,1,0,0,1,0-2H8V18a1,1,0,0,1,1-1Zm0-1a2,2,0,0,0-2,2v1H6a2,2,0,0,0,0,4H7v1a2,2,0,0,0,4,0V23h1a2,2,0,0,0,0-4H11V18a2,2,0,0,0-2-2Z"/><path fill="#565a5c" d="M24,17a1,1,0,1,1-1,1,1,1,0,0,1,1-1Zm0-1a2,2,0,1,0,2,2,2,2,0,0,0-2-2Z"/><path fill="#565a5c" d="M18,23a1,1,0,1,1-1,1,1,1,0,0,1,1-1Zm0-1a2,2,0,1,0,2,2,2,2,0,0,0-2-2Z"/><path fill="#565a5c" d="M24,23a1,1,0,1,1-1,1,1,1,0,0,1,1-1Zm0-1a2,2,0,1,0,2,2,2,2,0,0,0-2-2Z"/><path fill="#565a5c" d="M24,12H16.01c0-.29,0-.63-.01-1V10c0-.96,0-1.73.01-1.93V7.93c.02-.77.04-1.22.36-1.53.537-.52,1.518-.312,2.187-.545A2.169,2.169,0,0,0,20,3.881c0-.719.031-1.437.017-2.156,0-.242-.01-.483-.017-.725a1,1,0,0,0-1.01-1A.994.994,0,0,0,18,1c0,.658-.007,1.343,0,2a2.12,2.12,0,0,1-.088.933.134.134,0,0,1-.044.058.142.142,0,0,1-.061.016,8.043,8.043,0,0,0-1.611.244,3.173,3.173,0,0,0-1.212.707,3.831,3.831,0,0,0-.97,2.94v.13C14,8.23,14,9.03,14,10c0,.35,0,.69.01,1v1H6a6.018,6.018,0,0,0-6,6v6a6.018,6.018,0,0,0,6,6H24a6.018,6.018,0,0,0,6-6V18A6.018,6.018,0,0,0,24,12Zm4,12a4,4,0,0,1-4,4H6a4,4,0,0,1-4-4V18a4,4,0,0,1,4-4H24a4,4,0,0,1,4,4Z"/></svg>