<svg width="30" height="30" xmlns="http://www.w3.org/2000/svg" viewBox="0 0 30 26">
	<path fill="#494c4e" d="M13.922,19.551a1.6,1.6,0,0,0,1.091.437,1.491,1.491,0,0,0,1.027-.4l7.237-6.148a1.69,1.69,0,0,0,.42-1.83,1.6,1.6,0,0,0-1.5-1.066H18.693A10.687,10.687,0,0,1,20.85,2.68,1.686,1.686,0,0,0,20.962.823a1.579,1.579,0,0,0-1.645-.8c-4.947.84-8.144,4.948-8.228,10.517H7.8a1.6,1.6,0,0,0-1.5,1.065,1.707,1.707,0,0,0,.458,1.864Zm-2.437-6.938a1.556,1.556,0,0,0,1.135-.491,1.729,1.729,0,0,0,.468-1.2c-.049-4.295,2.1-7.569,5.562-8.617a12.443,12.443,0,0,0-1.861,8.982,1.621,1.621,0,0,0,1.577,1.331h2.727L15,17.789,8.906,12.613Z"/>
	<path fill="#494c4e" d="M29,11.581a1.018,1.018,0,0,0-1,1.036V22.59c0,.725-.806,1.337-1.759,1.337H3.759C2.806,23.927,2,23.315,2,22.59V12.313a1.019,1.019,0,0,0-1-1.036,1.019,1.019,0,0,0-1,1.036V22.59A3.6,3.6,0,0,0,3.759,26H26.241A3.6,3.6,0,0,0,30,22.59V12.617A1.018,1.018,0,0,0,29,11.581Z"/>
</svg>