<svg width="30" height="30" xmlns="http://www.w3.org/2000/svg" viewBox="0 0 30 30">
  <path fill="#494c4e" d="M10.5 5h-6c-.3 0-.5-.2-.5-.5s.2-.5.5-.5h6c.3 0 .5.2.5.5s-.2.5-.5.5zm0 3h-6c-.3 0-.5-.2-.5-.5s.2-.5.5-.5h6c.3 0 .5.2.5.5s-.2.5-.5.5zm0 3h-6c-.3 0-.5-.2-.5-.5s.2-.5.5-.5h6c.3 0 .5.2.5.5s-.2.5-.5.5zm0 3h-6c-.3 0-.5-.2-.5-.5s.2-.5.5-.5h6c.3 0 .5.2.5.5s-.2.5-.5.5zm0 3h-6c-.3 0-.5-.2-.5-.5s.2-.5.5-.5h6c.3 0 .5.2.5.5s-.2.5-.5.5zm0 3h-6c-.3 0-.5-.2-.5-.5s.2-.5.5-.5h6c.3 0 .5.2.5.5s-.2.5-.5.5zm0 3h-6c-.3 0-.5-.2-.5-.5s.2-.5.5-.5h6c.3 0 .5.2.5.5s-.2.5-.5.5zm0 3h-6c-.3 0-.5-.2-.5-.5s.2-.5.5-.5h6c.3 0 .5.2.5.5s-.2.5-.5.5z"/>
  <circle fill="#494c4e" cx="22" cy="9" r="1"/>
  <path fill="#494c4e" d="M27 1H14.2c-.5-.6-1.3-1-2.2-1H3C1.3 0 0 1.3 0 3v24c0 1.7 1.3 3 3 3h9c.9 0 1.7-.4 2.2-1H27c1.7 0 3-1.3 3-3V4c0-1.7-1.3-3-3-3zM15 6h9.5c.3 0 .5.2.5.5v7.9l-7.7-4.8c-.2-.1-.5-.1-.6.1L15 11.3V6zm0 6.7l2.1-2.1 7 4.4H15v-2.3zM13 27c0 .6-.4 1-1 1H3c-.6 0-1-.4-1-1V3c0-.6.4-1 1-1h9c.6 0 1 .4 1 1v24zm15-1c0 .6-.4 1-1 1H15v-2h10.5c.3 0 .5-.2.5-.5s-.2-.5-.5-.5H15v-2h10.5c.3 0 .5-.2.5-.5s-.2-.5-.5-.5H15v-2h10.5c.3 0 .5-.2.5-.5s-.2-.5-.5-.5H15v-2h9.5c.8 0 1.5-.7 1.5-1.5v-8c0-.8-.7-1.5-1.5-1.5H15V3h12c.6 0 1 .4 1 1v22z"/>
</svg>
