<svg width="30" height="30" xmlns="http://www.w3.org/2000/svg" viewBox="0 0 30 30">
  <path fill="#494c4e" d="M14,24.17V28.5a1.521,1.521,0,0,1-.39,1.01A1.47,1.47,0,0,1,12.5,30a1.521,1.521,0,0,1-1.01-.39L9,27.34,6.53,29.59A1.5,1.5,0,0,1,4,28.5V16.33a2.931,2.931,0,0,1-1.51-.82,3.012,3.012,0,0,1-.88-2.24A3,3,0,0,1,.47,9,3,3,0,0,1,1.61,4.73a3.012,3.012,0,0,1,.88-2.24,2.921,2.921,0,0,1,2.14-.88h.1A3.037,3.037,0,0,1,6.62.1,2.908,2.908,0,0,1,7.39,0,3.026,3.026,0,0,1,9,.47,3.026,3.026,0,0,1,10.61,0a2.908,2.908,0,0,1,.77.1,3.037,3.037,0,0,1,1.89,1.51h.11a2.938,2.938,0,0,1,2.13.88,3.012,3.012,0,0,1,.88,2.24A3,3,0,0,1,17.53,9a3.024,3.024,0,0,1,.43,1.12c.034.2-.1.212-.131.218A13.606,13.606,0,0,0,16.2,10.8c-.272.1-.2-.12-.2-.155a1.044,1.044,0,0,0-.161-.574L15.17,9l.67-1.07a1.028,1.028,0,0,0,.13-.8,1.017,1.017,0,0,0-.51-.62l-1.12-.59.05-1.27a1,1,0,0,0-.29-.75.957.957,0,0,0-.72-.29l-1.26.04-.63-1.11a.97.97,0,0,0-.62-.5A.824.824,0,0,0,10.61,2a.949.949,0,0,0-.54.16L9,2.84,7.93,2.16A.949.949,0,0,0,7.39,2a1.068,1.068,0,0,0-.25.03,1.009,1.009,0,0,0-.63.51L5.93,3.65,4.67,3.61A1,1,0,0,0,3.61,4.65l.05,1.27-1.12.59a1.017,1.017,0,0,0-.51.62,1.028,1.028,0,0,0,.13.8L2.83,9l-.67,1.07a1.028,1.028,0,0,0-.13.8,1.017,1.017,0,0,0,.51.62l1.12.59-.05,1.27a1,1,0,0,0,.29.75c.03.03.07.06.1.09a.88.88,0,0,0,.59.2h.06l1.27-.06.05.09.54,1.04a.97.97,0,0,0,.62.5.824.824,0,0,0,.26.04.949.949,0,0,0,.54-.16L9,15.17s.847.544,1.212.725a.189.189,0,0,1,.1.2,5.93,5.93,0,0,0-.308,1.648c0,.063-.057.185-.266.119A3.18,3.18,0,0,1,9,17.53,3.026,3.026,0,0,1,7.39,18a2.908,2.908,0,0,1-.77-.1,2.848,2.848,0,0,1-.65-.26L6,27.37l3-2.73,3,2.73s0-4.418,0-4.536.115-.117.193-.042A10.4,10.4,0,0,0,14,24.17Z"/>
  <path fill="#494c4e" d="M9,5a4,4,0,1,0,4,4A4,4,0,0,0,9,5ZM9,6A3,3,0,1,1,6,9,3,3,0,0,1,9,6Z"/>
  <path fill="#494c4e" d="M24.71,21.35a5,5,0,0,0,0-6.7C26.75,15.41,28,16.75,28,18S26.75,20.59,24.71,21.35ZM14,18c0-1.25,1.25-2.59,3.29-3.35a5,5,0,0,0,0,6.7C15.25,20.59,14,19.25,14,18Zm9,0a1,1,0,1,1,1-1A1,1,0,0,1,23,18Zm-2-6c-4.97,0-9,2.69-9,6s4.03,6,9,6,9-2.69,9-6S25.97,12,21,12Z"/>
</svg>
