<svg width="30" height="30" xmlns="http://www.w3.org/2000/svg" viewBox="0 0 30 30">
  <path fill="#565a5c" d="M26,0H4A4.012,4.012,0,0,0,0,4V26a4.012,4.012,0,0,0,4,4H26a4.012,4.012,0,0,0,4-4V4A4.012,4.012,0,0,0,26,0ZM23,2h3a2.006,2.006,0,0,1,2,2V7H23Zm0,7h5v5H23Zm-4.7,5H16V9h5v5ZM14,21H9V16h5ZM21,7H16V2h5ZM9,2h5V7H9ZM9,9h5v5H9ZM2,4A2.006,2.006,0,0,1,4,2H7V7H2ZM2,9H7v5H2ZM7,28H4a2.006,2.006,0,0,1-2-2V23H7Zm0-7H2V16H7Zm2,2h5v5H9Zm12,5H16V23h5Zm0-7H16V16h5Zm7,5a2.006,2.006,0,0,1-2,2H23V23h5Zm0-5H23V16h5Z"/>
</svg>
