<svg height="30" width="30" xmlns="http://www.w3.org/2000/svg" viewBox="0 0 30 30">
  <path fill="#565a5c" d="M17.641,17.98l-9.89,11.5a1.488,1.488,0,0,1-1.13.52.277.277,0,0,1-.09-.01.22.22,0,0,1-.08.01,1.509,1.509,0,0,1-1.01-.39l-4.95-4.5a1.5,1.5,0,1,1,2.02-2.22l3.9,3.55,8.95-10.42a1.5,1.5,0,1,1,2.28,1.96Z"/>
  <path fill="#565a5c" d="M26,0H4A4.012,4.012,0,0,0,0,4V20.85a3.5,3.5,0,0,1,1.505-.35A3.492,3.492,0,0,1,2,20.545V16H7v5H3.3a3.439,3.439,0,0,1,.556.411L5.6,23H6.729L9,20.356V16h3.741l1.1-1.282A3.48,3.48,0,0,1,16,13.551V9h5v5H18.3a3.417,3.417,0,0,1,1.547,2H21v5H17.681L14,25.28V28H11.661l-1.72,2H26a4.012,4.012,0,0,0,4-4V4A4.012,4.012,0,0,0,26,0ZM7,14H2V9H7ZM7,7H2V4A2.006,2.006,0,0,1,4,2H7Zm7,7H9V9h5Zm0-7H9V2h5Zm7,21H16V23h5ZM21,7H16V2h5Zm7,19a2.006,2.006,0,0,1-2,2H23V23h5Zm0-5H23V16h5Zm0-7H23V9h5Zm0-7H23V2h3a2.006,2.006,0,0,1,2,2Z"/></svg>
</svg>