<svg width="30" height="30" xmlns="http://www.w3.org/2000/svg" viewBox="0 0 30 30">
  <path fill="#494c4e" d="M22,7V4a2,2,0,0,0-2-2H4A2.006,2.006,0,0,0,2,4V26a2.006,2.006,0,0,0,2,2H20a2.006,2.006,0,0,0,2-2,1,1,0,0,1,2,0,3.995,3.995,0,0,1-4,4H4a4,4,0,0,1-4-4V4A4,4,0,0,1,4,0H20a4,4,0,0,1,4,4V7a1,1,0,0,1-2,0Z"/>
  <circle fill="#494c4e" cx="5" cy="24" r="1"/>
  <path fill="#494c4e" d="M19.119,25H8.881a1.008,1.008,0,0,1,0-2H19.118a1.008,1.008,0,0,1,0,2Z"/>
  <circle fill="#494c4e" cx="5" cy="7" r="1"/>
  <path fill="#494c4e" d="M19.119,8H8.881A.947.947,0,0,1,8,7a.95.95,0,0,1,.881-1H19.118A.949.949,0,0,1,20,7,.95.95,0,0,1,19.119,8Z"/>
  <circle fill="#494c4e" cx="5" cy="19.75" r="1"/>
  <circle fill="#494c4e" cx="5" cy="11.25" r="1"/>
  <circle fill="#494c4e" cx="5" cy="15.5" r="1"/>
  <path fill="#494c4e" d="M29.426,23.1l-2.813-2.813a1.937,1.937,0,0,0-1.412-.576,1.768,1.768,0,0,0-.507.059l-.9-.9a6.371,6.371,0,0,0,1.24-3.809A6.453,6.453,0,0,0,14.264,10.25H8.881a1.008,1.008,0,0,0,0,2h3.876a6.425,6.425,0,0,0-.621,2.25H8.881a1.008,1.008,0,0,0,0,2h3.395a6.412,6.412,0,0,0,1,2.25H8.881a1.008,1.008,0,0,0,0,2h6.631a6.455,6.455,0,0,0,6.864-.474l.9.905A2.013,2.013,0,0,0,23.8,23.1l2.813,2.813A1.989,1.989,0,0,0,29.426,23.1Zm-10.857-3.57a4.477,4.477,0,0,1-3.7-1.971H18.41a2.138,2.138,0,0,0,2.13-2.13v-.48a2.14,2.14,0,0,0-2.13-2.14H14.723a4.453,4.453,0,0,1,3.846-2.225,4.565,4.565,0,0,1,.589.038,4.474,4.474,0,0,1-.589,8.908Z"/>
</svg>
