<svg width="24" height="24" viewBox="0 0 24 24" xmlns="http://www.w3.org/2000/svg">
  <path fill-rule="evenodd" clip-rule="evenodd" d="M12 24c6.627 0 12-5.373 12-12S18.627 0 12 0 0 5.373 0 12s5.373 12 12 12Zm0-2.667A9.333 9.333 0 0 0 21.333 12a9.333 9.333 0 1 0-18.666 0A9.333 9.333 0 0 0 12 21.333Z" fill="#494c4e"/>
  <path d="M14 6.333a2 2 0 1 1-4 0 2 2 0 0 1 4 0Z" fill="#494c4e"/>
  <path d="M17.595 9.574c.11-.069.232-.115.346-.177a.743.743 0 0 0-.235-1.388.6.6 0 0 0-.228.017C16.798 8.183 13.205 9 12 9s-4.797-.817-5.478-.974a.6.6 0 0 0-.228-.017.743.743 0 0 0-.256 1.377c.125.072.262.127.383.208 1.086.728 3.594 1.68 3.25 3.057l-1.437 5.315a.852.852 0 0 0 1.516.742L12 14.667l2.25 4.04a.852.852 0 0 0 1.516-.741L14.33 12.65c-.313-1.254 2.263-2.444 3.265-3.077Z" fill="#494c4e"/>
</svg>
