<svg width="24" height="24" viewBox="0 0 24 24" xmlns="http://www.w3.org/2000/svg">
  <g clip-path="url(#clip0_24_17528)">
    <circle cx="12" cy="12" r="12" fill="#494c4e"/>
    <path fill-rule="evenodd" clip-rule="evenodd" d="M13 5C13 4.44772 12.5523 4 12 4C11.4477 4 11 4.44772 11 5V11H5C4.44772 11 4 11.4477 4 12C4 12.5523 4.44772 13 5 13H11V19C11 19.5523 11.4477 20 12 20C12.5523 20 13 19.5523 13 19V13H19C19.5523 13 20 12.5523 20 12C20 11.4477 19.5523 11 19 11H13V5Z" fill="white"/>
  </g>
  <defs>
    <clipPath id="clip0_24_17528">
      <rect width="24" height="24" fill="white"/>
    </clipPath>
  </defs>
</svg>
