<svg xmlns="http://www.w3.org/2000/svg" width="24" height="24" fill="none" viewBox="0 0 24 24">
  <path fill="#202122" d="M5 1a1 1 0 0 1 1 1 2 2 0 0 0 2 2 1 1 0 0 1 0 2 2 2 0 0 0-2 2 1 1 0 0 1-2 0 2 2 0 0 0-2-2 1 1 0 0 1 0-2 2 2 0 0 0 2-2 1 1 0 0 1 1-1Z"/>
  <path fill="#202122" fill-rule="evenodd" d="M16 4a1 1 0 0 1 .928.629c1.035 2.585 1.46 3.594 2.154 4.289.695.695 1.704 1.12 4.29 2.154a1 1 0 0 1 0 1.857c-2.586 1.034-3.595 1.458-4.29 2.153-.695.695-1.12 1.704-2.154 4.29a1 1 0 0 1-1.857 0c-1.034-2.586-1.458-3.595-2.153-4.29-.695-.695-1.704-1.12-4.29-2.154a1 1 0 0 1 0-1.857c2.586-1.034 3.595-1.458 4.29-2.153.695-.695 1.12-1.704 2.154-4.29A1 1 0 0 1 16 4Zm-4.365 8c1.164.512 2.02.991 2.697 1.668.677.677 1.156 1.533 1.668 2.697.512-1.164.991-2.02 1.668-2.697.677-.677 1.533-1.156 2.697-1.668-1.164-.512-2.02-.991-2.697-1.668C16.99 9.655 16.512 8.8 16 7.635c-.512 1.164-.991 2.02-1.668 2.697-.677.677-1.533 1.156-2.697 1.668Z" clip-rule="evenodd"/>
  <path fill="#202122" d="M7.75 17.75a.75.75 0 0 0-1.5 0 1.5 1.5 0 0 1-1.5 1.5.75.75 0 0 0 0 1.5 1.5 1.5 0 0 1 1.5 1.5.75.75 0 0 0 1.5 0 1.5 1.5 0 0 1 1.5-1.5.75.75 0 0 0 0-1.5 1.5 1.5 0 0 1-1.5-1.5Z"/>
</svg>
