<svg width="24" height="24" xmlns="http://www.w3.org/2000/svg" viewBox="0 0 24 24">
  <path fill="#494c4e" d="M10.707 9.293L5 3.511v-1a.548.548 0 0 0-.169-.355L2.84.147A.49.49 0 0 0 2 .5V2H.5a.49.49 0 0 0-.355.84l1.3 1.284.714.707A.548.548 0 0 0 2.511 5h1l5.782 5.707a1 1 0 0 0 1.414-1.414z"/>
  <path fill="#494c4e" d="M12 0a11.94 11.94 0 0 0-5.357 1.273A2.491 2.491 0 0 1 7 2.474v.22l.419.425a10.026 10.026 0 1 1-4.3 4.3L2.69 7h-.215a2.489 2.489 0 0 1-1.2-.357A11.993 11.993 0 1 0 12 0z"/>
  <path fill="#494c4e" d="M12 6a6.03 6.03 0 1 1-5.794 4.467l-1.323-1.3-.261-.267A8 8 0 1 0 8.9 4.622l1.562 1.584A5.963 5.963 0 0 1 12 6z"/>
  <path fill="#494c4e" d="M12 16a3.991 3.991 0 0 0 .24-7.976 2.976 2.976 0 0 1 .733 2.24 1.993 1.993 0 1 1-2.709 2.71c-.088.008-.174.026-.264.026a2.97 2.97 0 0 1-1.976-.759A3.989 3.989 0 0 0 12 16z"/>
</svg>
