<svg xmlns="http://www.w3.org/2000/svg" width="30" height="30" viewBox="0 0 30 30">
  <path fill="#494c4e" d="M2.668 21A1.665 1.665 0 001 22.668v4.664A1.665 1.665 0 002.668 29h4.664A1.665 1.665 0 009 27.332v-4.664A1.665 1.665 0 007.332 21H2.668zM3 23h4v4H3v-4zM2.668 1A1.665 1.665 0 001 2.668v4.664A1.665 1.665 0 002.668 9h4.664A1.665 1.665 0 009 7.332V2.668A1.665 1.665 0 007.332 1H2.668zM3 3h4v4H3V3zm-.332 8A1.665 1.665 0 001 12.668v4.664A1.665 1.665 0 002.668 19h4.664A1.665 1.665 0 009 17.332v-4.664A1.665 1.665 0 007.332 11H2.668zM3 13h4v4H3v-4zm9.668 8A1.665 1.665 0 0011 22.668v4.664A1.665 1.665 0 0012.668 29h4.664A1.665 1.665 0 0019 27.332v-4.664A1.665 1.665 0 0017.332 21h-4.664zM13 23h4v4h-4v-4zm-.332-22A1.665 1.665 0 0011 2.668v4.664A1.665 1.665 0 0012.668 9h4.664A1.665 1.665 0 0019 7.332V2.668A1.665 1.665 0 0017.332 1h-4.664zM13 3h4v4h-4V3zm-.332 8A1.665 1.665 0 0011 12.668v4.664A1.665 1.665 0 0012.668 19h4.664A1.665 1.665 0 0019 17.332v-4.664A1.665 1.665 0 0017.332 11h-4.664zM13 13h4v4h-4v-4zm9.668 8A1.665 1.665 0 0021 22.668v4.664A1.665 1.665 0 0022.668 29h4.664A1.665 1.665 0 0029 27.332v-4.664A1.665 1.665 0 0027.332 21h-4.664zM23 23h4v4h-4v-4zm-.332-22A1.665 1.665 0 0021 2.668v4.664A1.665 1.665 0 0022.668 9h4.664A1.665 1.665 0 0029 7.332V2.668A1.665 1.665 0 0027.332 1h-4.664zM23 3h4v4h-4V3zm-.332 8A1.665 1.665 0 0021 12.668v4.664A1.665 1.665 0 0022.668 19h4.664A1.665 1.665 0 0029 17.332v-4.664A1.665 1.665 0 0027.332 11h-4.664zM23 13h4v4h-4v-4z"/>
</svg>
