<?xml version="1.0" encoding="UTF-8"?>
<svg width="24px" height="24px" viewBox="0 0 24 24" version="1.1" xmlns="http://www.w3.org/2000/svg" xmlns:xlink="http://www.w3.org/1999/xlink">
    <!-- Generator: Sketch 57.1 (83088) - https://sketch.com -->
    <desc>Created with Sketch.</desc>
    <g id="divider" stroke="none" stroke-width="1" fill="none" fill-rule="evenodd">
        <polygon id="Stroke" stroke-opacity="0.0117647061" stroke="#000000" stroke-width="1.33333336e-11" points="0 0 23.999999 0 23.999999 23.999999 0 23.999999"></polygon>
        <g id="divider-dots" transform="translate(11.000000, 1.000000)" fill="#494C4E">
            <path d="M1.99999928,0.99999988 C1.99999928,1.66666648 1.66666618,1.99999988 0.99999928,1.99999988 C0.33333226,1.99999988 -7.19999999e-07,1.66666648 -7.19999999e-07,0.99999988 C-7.19999999e-07,0.33333316 0.33333226,-1.19999999e-07 0.99999928,-1.19999999e-07 C1.66666618,-1.19999999e-07 1.99999928,0.33333316 1.99999928,0.99999988 Z" id="Fill-3"></path>
            <path d="M1.99999928,4.99999964 C1.99999928,5.66666604 1.66666618,5.99999964 0.99999928,5.99999964 C0.33333226,5.99999964 -7.19999999e-07,5.66666604 -7.19999999e-07,4.99999964 C-7.19999999e-07,4.33333312 0.33333226,3.99999964 0.99999928,3.99999964 C1.66666618,3.99999964 1.99999928,4.33333312 1.99999928,4.99999964 Z" id="Fill-5"></path>
            <path d="M1.99999928,8.9999994 C1.99999928,9.6666663 1.66666618,9.9999994 0.99999928,9.9999994 C0.33333226,9.9999994 -7.19999999e-07,9.6666663 -7.19999999e-07,8.9999994 C-7.19999999e-07,8.33333238 0.33333226,7.9999994 0.99999928,7.9999994 C1.66666618,7.9999994 1.99999928,8.33333238 1.99999928,8.9999994 Z" id="Fill-6"></path>
            <path d="M1.99999928,12.9999992 C1.99999928,13.6666661 1.66666618,13.9999992 0.99999928,13.9999992 C0.33333226,13.9999992 -7.19999999e-07,13.6666661 -7.19999999e-07,12.9999992 C-7.19999999e-07,12.3333321 0.33333226,11.9999992 0.99999928,11.9999992 C1.66666618,11.9999992 1.99999928,12.3333321 1.99999928,12.9999992 Z" id="Fill-7"></path>
            <path d="M1.99999928,16.9999989 C1.99999928,17.6666648 1.66666618,17.9999989 0.99999928,17.9999989 C0.33333226,17.9999989 -7.19999999e-07,17.6666648 -7.19999999e-07,16.9999989 C-7.19999999e-07,16.3333329 0.33333226,15.9999989 0.99999928,15.9999989 C1.66666618,15.9999989 1.99999928,16.3333329 1.99999928,16.9999989 Z" id="Fill-8"></path>
            <path d="M1.99999928,20.9999987 C1.99999928,21.6666646 1.66666618,21.9999987 0.99999928,21.9999987 C0.33333226,21.9999987 -7.19999999e-07,21.6666646 -7.19999999e-07,20.9999987 C-7.19999999e-07,20.3333327 0.33333226,19.9999987 0.99999928,19.9999987 C1.66666618,19.9999987 1.99999928,20.3333327 1.99999928,20.9999987 Z" id="Fill-9"></path>
        </g>
    </g>
</svg>