<svg width="24" height="24" xmlns="http://www.w3.org/2000/svg">
  <g fill="none" fill-rule="evenodd">
    <path d="M0 0h24v24H0z"/>
    <g fill="#494C4E">
      <path d="M13.5 2c0 1-.5 1.5-1.5 1.5S10.5 3 10.5 2 11 .5 12 .5s1.5.5 1.5 1.5zM13.5 7c0 1-.5 1.5-1.5 1.5S10.5 8 10.5 7 11 5.5 12 5.5s1.5.5 1.5 1.5zM13.5 12c0 1-.5 1.5-1.5 1.5s-1.5-.5-1.5-1.5.5-1.5 1.5-1.5 1.5.5 1.5 1.5zM13.5 17c0 1-.5 1.5-1.5 1.5s-1.5-.5-1.5-1.5.5-1.5 1.5-1.5 1.5.5 1.5 1.5zM13.5 22c0 1-.5 1.5-1.5 1.5s-1.5-.5-1.5-1.5.5-1.5 1.5-1.5 1.5.5 1.5 1.5z"/>
    </g>
  </g>
</svg>
