<?xml version="1.0" encoding="UTF-8"?>
<svg width="24px" height="24px" viewBox="0 0 24 24" version="1.1" xmlns="http://www.w3.org/2000/svg" xmlns:xlink="http://www.w3.org/1999/xlink">
    <!-- Generator: Sketch 57.1 (83088) - https://sketch.com -->
    <desc>Created with Sketch.</desc>
    <g id="divider-big" stroke="none" stroke-width="1" fill="none" fill-rule="evenodd">
        <polygon id="Stroke" stroke-opacity="0.0117647061" stroke="#000000" stroke-width="1.33333336e-11" points="0 0 23.999999 0 23.999999 23.999999 0 23.999999"></polygon>
        <g id="divider-dots" transform="translate(10.500000, 0.500000)" fill="#494C4E">
            <path d="M2.99999934,1.5 C2.99999934,2.5 2.49999934,3 1.49999934,3 C0.49999934,3 -6.6e-07,2.5 -6.6e-07,1.5 C-6.6e-07,0.5 0.49999934,0 1.49999934,0 C2.49999934,0 2.99999934,0.5 2.99999934,1.5 Z" id="Fill-3"></path>
            <path d="M2.99999934,6.4999997 C2.99999934,7.4999997 2.49999934,7.9999997 1.49999934,7.9999997 C0.49999934,7.9999997 -6.6e-07,7.4999997 -6.6e-07,6.4999997 C-6.6e-07,5.4999997 0.49999934,4.9999997 1.49999934,4.9999997 C2.49999934,4.9999997 2.99999934,5.4999997 2.99999934,6.4999997 Z" id="Fill-5"></path>
            <path d="M2.99999934,11.4999994 C2.99999934,12.4999994 2.49999934,12.9999994 1.49999934,12.9999994 C0.49999934,12.9999994 -6.6e-07,12.4999994 -6.6e-07,11.4999994 C-6.6e-07,10.4999994 0.49999934,9.9999994 1.49999934,9.9999994 C2.49999934,9.9999994 2.99999934,10.4999994 2.99999934,11.4999994 Z" id="Fill-6"></path>
            <path d="M2.99999934,16.4999991 C2.99999934,17.4999991 2.49999934,17.9999991 1.49999934,17.9999991 C0.49999934,17.9999991 -6.6e-07,17.4999991 -6.6e-07,16.4999991 C-6.6e-07,15.4999991 0.49999934,14.9999991 1.49999934,14.9999991 C2.49999934,14.9999991 2.99999934,15.4999991 2.99999934,16.4999991 Z" id="Fill-7"></path>
            <path d="M2.99999934,21.4999988 C2.99999934,22.4999988 2.49999934,22.9999988 1.49999934,22.9999988 C0.49999934,22.9999988 -6.6e-07,22.4999988 -6.6e-07,21.4999988 C-6.6e-07,20.4999988 0.49999934,19.9999988 1.49999934,19.9999988 C2.49999934,19.9999988 2.99999934,20.4999988 2.99999934,21.4999988 Z" id="Fill-8"></path>
        </g>
    </g>
</svg>