<svg width="24" height="24" xmlns="http://www.w3.org/2000/svg">
  <g fill="none" fill-rule="evenodd">
    <path d="M0 0h24v24H0z"/>
    <g fill="#494C4E">
      <path d="M13 2c0 .667-.333 1-1 1s-1-.333-1-1 .333-1 1-1 1 .333 1 1zM13 6c0 .667-.333 1-1 1s-1-.333-1-1 .333-1 1-1 1 .333 1 1zM13 10c0 .667-.333 1-1 1s-1-.333-1-1 .333-1 1-1 1 .333 1 1zM13 14c0 .667-.333 1-1 1s-1-.333-1-1 .333-1 1-1 1 .333 1 1zM13 18c0 .667-.333 1-1 1s-1-.333-1-1 .333-1 1-1 1 .333 1 1zM13 22c0 .667-.333 1-1 1s-1-.333-1-1 .333-1 1-1 1 .333 1 1z"/>
    </g>
  </g>
</svg>
