<svg width="24" height="24" viewBox="0 0 24 24" xmlns="http://www.w3.org/2000/svg">
  <g fill="#494c4e" fill-rule="evenodd">
    <path d="M6 10a1 1 0 011 1v2h2v-2a1 1 0 011-1h3a1 1 0 011 1v2h2v-2a1 1 0 011-1h3a1 1 0 011 1v2.2a3 3 0 012 2.8v7a1 1 0 01-1 1H1a1 1 0 01-1-1v-7a3 3 0 012-2.8V11a1 1 0 011-1h3zm15 9H2v3h19v-3zm-1-4H3a1 1 0 00-1 .9V18h19v-2a1 1 0 00-.9-1H20zM5 12H4v1h1v-1zm7 0h-1v1h1v-1zm7 0h-1v1h1v-1z" fill-rule="nonzero"/>
    <path d="M13.5 0l2 .4a1 1 0 01.8 1L16.1 3l2 .3.2-1.5a1 1 0 011.1-.9l2 .3a1 1 0 01.9 1.1L22 3.8a2 2 0 011.7 2.3l-.4 2.7a1 1 0 01-1.2.8L10.4 8a1 1 0 01-.9-1.2l.4-2.7a2 2 0 012.3-1.7l.2-1.5a1 1 0 011-.8z"/>
  </g>
</svg>