<svg width="24" height="24" xmlns="http://www.w3.org/2000/svg" viewBox="0 0 24 24"><path fill="#494C4E" d="M19,10H13.01c-.01-1.06-.01-3.37,0-3.93V5.93c.02-.77.04-1.22.36-1.53a1.793,1.793,0,0,1,1.04-.36l.15-.01a2.694,2.694,0,0,0,1.29-.3A2.205,2.205,0,0,0,16.9,2.27,4.3,4.3,0,0,0,16.99.96a1,1,0,0,0-2,.07,3.026,3.026,0,0,1-.03.76.441.441,0,0,1-.09.2,1.893,1.893,0,0,1-.41.05l-.18.01a3.611,3.611,0,0,0-2.3.91,3.831,3.831,0,0,0-.97,2.94v.13C11,6.59,11,8.9,11.01,10H5a5,5,0,0,0-5,5v4a5,5,0,0,0,5,5H19a5,5,0,0,0,5-5V15A5,5,0,0,0,19,10Zm3,9a3.009,3.009,0,0,1-3,3H5a3.009,3.009,0,0,1-3-3V15a3.009,3.009,0,0,1,3-3H19a3.009,3.009,0,0,1,3,3Z"/><path fill="#494C4E" d="M10,16.99a1,1,0,0,1-1,1H8v1a1,1,0,0,1-2,0v-1H5a1,1,0,1,1,0-2H6v-1a1,1,0,0,1,2,0v1H9A1,1,0,0,1,10,16.99Z"/><circle fill="#494C4E" cx="19" cy="15" r="1"/><circle fill="#494C4E" cx="19" cy="19" r="1"/><circle fill="#494C4E" cx="15" cy="15" r="1"/><circle fill="#494C4E" cx="15" cy="19" r="1"/></svg>