<svg width="24" height="24" viewBox="0 0 24 24" xmlns="http://www.w3.org/2000/svg">
  <path fill-rule="evenodd" clip-rule="evenodd" d="M3 0a2.998 2.998 0 0 1 .984 5.831c.01.055.016.111.016.169v5h8.174c.412-1.165 1.52-2 2.826-2h6a3 3 0 1 1 0 6h-6a2.998 2.998 0 0 1-2.826-2H4v7h8.174c.412-1.165 1.52-2 2.826-2h6a3 3 0 1 1 0 6h-6a2.998 2.998 0 0 1-2.826-2H3a1 1 0 0 1-1-1V6c0-.058.005-.114.015-.169A2.998 2.998 0 0 1 3 0Zm12 20a1 1 0 1 0 0 2h6a1 1 0 1 0 0-2h-6Zm0-9a1 1 0 1 0 0 2h6a1 1 0 1 0 0-2h-6Z" fill="#494C4E"/>
  <path fill-rule="evenodd" clip-rule="evenodd" d="M21 0a3 3 0 1 1 0 6H11l-.154-.004A3 3 0 0 1 11 0h10ZM11 2a1 1 0 1 0 0 2h10a1 1 0 1 0 0-2H11Z" fill="#494C4E"/>
</svg>
