<svg xmlns="http://www.w3.org/2000/svg" xmlns:xlink="http://www.w3.org/1999/xlink" width="24" height="24" viewBox="0 0 24 24">
  <defs>
    <clipPath id="clip-_24x24-no-editing-icon">
      <rect width="24" height="24"/>
    </clipPath>
  </defs>
  <g id="_24x24-no-editing-icon" data-name="24x24-no-editing-icon" clip-path="url(#clip-_24x24-no-editing-icon)">
    <rect width="24" height="24" fill="#fff"/>
    <path id="Path_3554" data-name="Path 3554" d="M0,0,17,17" transform="translate(2.5 4.5)" fill="#494c4e" stroke="#565a5c" stroke-linecap="round" stroke-width="2" opacity="0.998"/>
    <g id="Group_5079" data-name="Group 5079" transform="translate(-48 -6)">
      <g id="Group_5077" data-name="Group 5077">
        <g id="edit" transform="translate(59.38 6)">
          <path id="Shape" d="M15.62,12.619h0L14.206,11.2l4.586-4.586L17.38,5.207,12.8,9.794,11.38,8.379l6-6,4.24,4.24-6,6Zm7.085-7.084h0L18.464,1.292l.706-.707a2,2,0,0,1,2.83,0L23.413,2a2,2,0,0,1,0,2.828l-.706.708Z" transform="translate(-11.38 0)" fill="#494c4e"/>
        </g>
      </g>
      <g id="Group_5078" data-name="Group 5078">
        <path id="Shape-2" data-name="Shape" d="M.56,24a.584.584,0,0,1-.19-.031.667.667,0,0,1-.18-.16.679.679,0,0,1-.16-.18.587.587,0,0,1,0-.37l2.15-4.94.671-1.409,6-6,1.416,1.416L4.51,18.081,4,19.149l-.654,1.506L4.852,20l1.068-.508,5.755-5.756,1.414,1.414-6,6-1.41.67L.74,23.969A.569.569,0,0,1,.56,24Z" transform="translate(48 6)" fill="#494c4e"/>
      </g>
    </g>
  </g>
</svg>
