<svg width="24" height="24" xmlns="http://www.w3.org/2000/svg" viewBox="0 0 24 24">
  <circle fill="#494c4e" cx="7.921" cy="6.857" r="2"/>
  <path fill="#494c4e" d="M19.548,15.542a3.93,3.93,0,0,0,0-4.36c1.45.43,2.42,1.25,2.42,2.18S21,15.112,19.548,15.542Zm-1.46-1.68a1,1,0,1,1,1-1A1,1,0,0,1,18.088,13.862Zm-3.22,1.67c-1.43-.43-2.4-1.24-2.4-2.17s.97-1.74,2.4-2.17A3.9,3.9,0,0,0,14.868,15.532Zm2.34-6.67c-3.72,0-6.74,2.02-6.74,4.5s3.02,4.5,6.74,4.5,6.76-2.02,6.76-4.5S20.938,8.862,17.208,8.862Z"/>
  <path fill="#494c4e" d="M10,17.346V21.21L8,19.39,6,21.21V13.85a.851.851,0,0,0,.17.06A2.619,2.619,0,0,0,8,13.74c.14-.014.364-.1.364-.216a4.467,4.467,0,0,1,.178-1.3c.043-.139,0-.269-.116-.269A.959.959,0,0,1,8,11.81a1.859,1.859,0,0,1-1.31.13,2.024,2.024,0,0,1-1.1-.77,1.968,1.968,0,0,1-1.21-.56,1.99,1.99,0,0,1-.55-1.2,2.009,2.009,0,0,1-.77-1.1A2.041,2.041,0,0,1,3.182,7a2.063,2.063,0,0,1-.12-1.32,1.953,1.953,0,0,1,.78-1.09,2.016,2.016,0,0,1,.55-1.21A1.931,1.931,0,0,1,5.6,2.83a1.918,1.918,0,0,1,1.11-.77A1.865,1.865,0,0,1,8,2.19a2.138,2.138,0,0,1,.56-.17A1.493,1.493,0,0,1,8.822,2a1.963,1.963,0,0,1,1.59.83,1.917,1.917,0,0,1,1.76,1.76A1.956,1.956,0,0,1,13,6.18a1.923,1.923,0,0,1-.18.82,2.015,2.015,0,0,1,.155.571.145.145,0,0,0,.2.127,11.11,11.11,0,0,1,1.479-.417c.057-.012.189-.046.12-.192-.014-.029-.022-.06-.036-.089a2.695,2.695,0,0,0-.9-3.37,2.706,2.706,0,0,0-2.47-2.47A2.7,2.7,0,0,0,9.15,0a1.874,1.874,0,0,0-.36.03A3,3,0,0,0,8,.26,2.683,2.683,0,0,0,6.19.08,2.743,2.743,0,0,0,4.64,1.16a2.777,2.777,0,0,0-1.69.77,2.847,2.847,0,0,0-.78,1.7A2.78,2.78,0,0,0,1.08,5.16,2.857,2.857,0,0,0,1.262,7a2.745,2.745,0,0,0-.18,1.83,2.838,2.838,0,0,0,1.08,1.54,2.821,2.821,0,0,0,.78,1.69A2.872,2.872,0,0,0,4,12.71v9.91a1.378,1.378,0,0,0,2.17,1.13L8,22.09l1.72,1.57A1.375,1.375,0,0,0,12,22.62V18.828A7.852,7.852,0,0,1,10,17.346Z"/>
</svg>
