<svg xmlns="http://www.w3.org/2000/svg" width="24" height="24" viewBox="0 0 24 24">
  <path d="M24 8V3a3 3 0 0 0-3-3h-1a3 3 0 0 0-3 3v5a3 3 0 0 0 2.5 2.949v2.1A3 3 0 0 0 17 16v5a3 3 0 0 0 3 3h1a3 3 0 0 0 3-3v-5a3 3 0 0 0-2.5-2.949v-2.1A3 3 0 0 0 24 8zm-5 0V3a1 1 0 0 1 1-1h1a1 1 0 0 1 1 1v5a.987.987 0 0 1-.5.846V8a1 1 0 0 0-2 0v.846A.987.987 0 0 1 19 8zm3 8v5a1 1 0 0 1-1 1h-1a1 1 0 0 1-1-1v-5a.986.986 0 0 1 .5-.846V16a1 1 0 0 0 2 0v-.846A.986.986 0 0 1 22 16zm-8-7H9.387l2.562-7.684A1 1 0 0 0 10.208.39l-10 13A1 1 0 0 0 1 15h4.461l-3.375 7.594a1 1 0 0 0 1.677 1.052l11-13A1 1 0 0 0 14 9zm-7.246 8.015l1.159-2.608A1 1 0 0 0 7 13H3.031l5.144-6.687-1.124 3.371A1 1 0 0 0 8 11h3.844z" fill="#494c4e"/>
</svg>