<svg width="24" height="24" xmlns="http://www.w3.org/2000/svg" viewBox="0 0 24 24">
  <path fill="#565a5c" d="M20.9 4H3.1C1.4 4 0 5.4 0 7.1c0 .9.4 1.8 1.1 2.4v7.4C1.1 19.1 3 21 5.3 21h13.3c2.3 0 4.2-1.9 4.2-4.2V9.5C23.6 8.9 24 8 24 7.1 24 5.4 22.6 4 20.9 4zm0 12.8c0 1.2-1 2.2-2.2 2.2H5.3c-1.2 0-2.2-1-2.2-2.2v-6.6h17.8v6.6zm0-8.6H3.1C2.5 8.2 2 7.7 2 7.1 2 6.5 2.5 6 3.1 6h17.8c.6 0 1.1.5 1.1 1.1 0 .6-.5 1.1-1.1 1.1z"/>
  <path fill="#565a5c" d="M10 16.2H6c-.6 0-1-.4-1-1v-2c0-.6.4-1 1-1h4c.6 0 1 .4 1 1v2c0 .5-.4 1-1 1z"/>
</svg>