<svg width="24" height="24" viewBox="0 0 24 24" xmlns="http://www.w3.org/2000/svg">
  <g fill="#494C4E" fill-rule="evenodd">
    <path d="M6 20c-1.05 0-1.918-.82-1.994-1.851L4 18V2C4 .95 4.82.082 5.851.006L6 0h9c.217 0 .433.07.61.203l.1.087 4 4a1 1 0 01.282.58L20 5v5a1 1 0 01-1.993.117L18 10V7.5a.494.494 0 00-.41-.492L17.5 7H15c-1.05 0-1.918-.82-1.994-1.851L13 5V2.5a.494.494 0 00-.41-.492L12.5 2h-6a.494.494 0 00-.492.41L6 2.5v15c0 .249.174.45.41.492L6.5 18H11a1 1 0 01.117 1.993L11 20H6zm9-17.58V4.5c0 .249.174.45.41.492L15.5 5h2.08L15 2.42z" fill-rule="nonzero"/>
    <path d="M24 16v4.99c0 1.65-1.35 3.01-3 3.01H3c-1.65 0-2.99-1.35-3-3v-5c0-.02 0-.04.01-.06A.99.99 0 011 15c.53 0 .97.42.99.94.01.02.01.04.01.06v4c.01 1.1.91 1.99 2 1.99h16c1.09 0 1.99-.89 2-1.99v-4c0-.02 0-.04.01-.06A.99.99 0 0123 15c.53 0 .97.42.99.94.01.02.01.04.01.06z" fill-rule="nonzero"/>
    <path d="M12 14v2H9a1 1 0 110-2h3zm0-4v2H9a1 1 0 110-2h3zm-1-4a1 1 0 110 2H9a1 1 0 110-2h2z" fill-rule="nonzero"/>
    <path d="M15 9.974a1 1 0 01.65.241l4.464 3.826a1 1 0 010 1.518l-4.463 3.826a1 1 0 01-1.651-.76v-7.65a1 1 0 011-1zm1 3.326v3l2-1.5-2-1.5z"/>
  </g>
</svg>