<svg width="24" height="24" xmlns="http://www.w3.org/2000/svg" viewBox="0 0 24 24">
  <path fill="#494c4e" d="M19,19a1,1,0,0,0-1,1,2.006,2.006,0,0,1-2,2H4a2.006,2.006,0,0,1-2-2V4A2.006,2.006,0,0,1,4,2H16a2,2,0,0,1,2,2,1,1,0,0,0,2,0,4,4,0,0,0-4-4H4A4,4,0,0,0,0,4V20a4,4,0,0,0,4,4H16a3.995,3.995,0,0,0,4-4A1,1,0,0,0,19,19Z"/>
  <circle fill="#494c4e" cx="5" cy="14" r="1"/>
  <circle fill="#494c4e" cx="5" cy="6" r="1"/>
  <circle fill="#494c4e" cx="5" cy="10" r="1"/>
  <circle fill="#494c4e" cx="5.014" cy="18" r="1"/>
  <path fill="#494c4e" d="M15.752,19a1.018,1.018,0,0,0,0-2H8.838a1.019,1.019,0,0,0,0,2Z"/>
  <path fill="#494c4e" d="M23.56,17.29l-2.83-2.83a1.466,1.466,0,0,0-1.14-.43l-1.04-1.05A5.482,5.482,0,0,0,11.48,5h-2.6A.95.95,0,0,0,8,6a.947.947,0,0,0,.881,1h.465a5.451,5.451,0,0,0-.734,2.062A.988.988,0,0,0,8,10a.973.973,0,0,0,.655.946A5.46,5.46,0,0,0,9.554,13H8.881a1.008,1.008,0,0,0,0,2h3.3a5.492,5.492,0,0,0,4.945-.61l1.05,1.05a1.466,1.466,0,0,0,.43,1.14l2.83,2.83a1.509,1.509,0,0,0,2.12,0A1.491,1.491,0,0,0,23.56,17.29Zm-7.05-4.97a3.513,3.513,0,0,1-4.95,0,2.789,2.789,0,0,1-.28-.32h3.04A1.69,1.69,0,0,0,16,10.32V9.68A1.69,1.69,0,0,0,14.32,8H11.06a3.38,3.38,0,0,1,.5-.63,3.5,3.5,0,0,1,4.95,4.95Z"/>
</svg>
