<svg width="24" height="24" xmlns="http://www.w3.org/2000/svg" viewBox="0 0 24 24" mirror-in-rtl="true">
  <mask id="a" fill="#fff">
    <path d="M2.113.71l.094.083 21 21a1 1 0 01-1.32 1.497l-.094-.083-1.514-1.512c-.706 1.189-1.285 1.87-1.332 1.925a1.11 1.11 0 01-.72.372l-.136.008-.14-.008a1.136 1.136 0 01-.532-.206c-.476-.34-.558-.97-.188-1.403l.012-.014.037-.044c.187-.228.787-.992 1.444-2.187l-2.372-2.373c-.161.267-.336.537-.525.807a1.006 1.006 0 01-1.397.248.996.996 0 01-.25-1.392c.267-.382.5-.76.7-1.134l-2.879-2.878V17.5c0 .913-.5 1.749-1.288 2.188l-.162.082c-.322.153-.675.23-1.05.23-.567 0-1.13-.202-1.59-.568l-.053-.042-.05-.046L5.252 17H2.98A2.982 2.982 0 010 14.02V9.98C0 8.34 1.337 7 2.98 7h2.264l.178-.163-4.63-4.63A1 1 0 012.113.71zm4.724 7.542L6.02 9H2.98c-.54 0-.98.44-.98.98v4.04c0 .54.44.98.98.98h3.05l3.13 2.87c.1.08.22.13.34.13.07 0 .14-.01.2-.04.18-.08.3-.26.3-.46v-6.085L6.837 8.252zM19.004.45c4.66 6.5 4.407 12.446 3.373 16.29-.105.39-.22.768-.342 1.13l-1.72-1.718c.984-3.768.93-8.929-3.137-14.603-.332-.463-.192-1.083.313-1.386.504-.304 1.18-.174 1.513.287zm-3.221 4.92c.038.047 2.848 3.586 2.087 8.335l-1.877-1.877c-.067-3.056-1.743-5.166-1.769-5.198a.996.996 0 01.147-1.406 1.005 1.005 0 011.412.146zM9.506 4a2.497 2.497 0 012.495 2.5v1.337L8.415 4.249c.278-.134.58-.216.889-.24L9.505 4z"/>
  </mask>
  <g mask="url(#a)" fill="#494c4e">
    <path d="M0 0h24v24H0z"/>
  </g>
</svg>