<svg xmlns="http://www.w3.org/2000/svg" width="24" height="24" viewBox="0 0 24 24">
  <g fill="#494c4e">
    <path d="M18.011 7.985a1.996 1.996 0 1 0 0-3.992 1.996 1.996 0 0 0 0 3.992Z"/>
    <path fill-rule="evenodd" d="M20.935 4.063a1 1 0 0 1-.706-1.7l2-2a.999.999 0 1 1 1.409 1.407l-2 2a1 1 0 0 1-.703.293Zm-2.924-1.068a1 1 0 0 1-1-1V1a1 1 0 1 1 2 0v1a1 1 0 0 1-1 .995Zm0 8.984a1 1 0 0 1-1-1v-1a1 1 0 1 1 2 0v1a1 1 0 0 1-1 1Z" clip-rule="evenodd"/>
    <path fill-rule="evenodd" d="M18.011 2.995a1 1 0 0 1-1-1V1a1 1 0 0 1 2 0v1a1 1 0 0 1-1 .995Zm0 8.984a1 1 0 0 1-1-1v-1a1 1 0 0 1 2 0v1a1 1 0 0 1-1 1Zm-3.993-4.991h-1a1 1 0 1 1 0-2h1a1 1 0 1 1 0 2Zm8.982 0h-1a1 1 0 1 1 0-2h1a1 1 0 1 1 0 2Zm-7.984-2.995a1 1 0 0 1-.706-.293l-2-2A1 1 0 0 1 13.725.292l2 2a1 1 0 0 1-.709 1.701ZM23 11.979a1 1 0 0 1-.706-.292l-2-2a1 1 0 0 1 1.412-1.412l2 2A1 1 0 0 1 23 11.979Zm-11.021-.998c.237 0 .465.093.633.261l.145.145a.9.9 0 0 1 0 1.267l-9.088 9.088a.9.9 0 0 1-1.267 0l-.145-.142a.9.9 0 0 1 0-1.267l9.089-9.089a.893.893 0 0 1 .633-.261v-.002Zm0-1.998a2.873 2.873 0 0 0-2.045.846l-9.088 9.09a2.9 2.9 0 0 0 0 4.09l.145.145a2.895 2.895 0 0 0 4.09 0l9.089-9.088a2.9 2.9 0 0 0 0-4.09l-.146-.146a2.872 2.872 0 0 0-2.045-.846v-.001Z" clip-rule="evenodd"/>
  </g>
</svg>
